<?xml version="1.0" encoding="utf-8" standalone="no"?>
<!DOCTYPE svg PUBLIC "-//W3C//DTD SVG 1.1//EN"
  "http://www.w3.org/Graphics/SVG/1.1/DTD/svg11.dtd">
<!-- Created with matplotlib (https://matplotlib.org/) -->
<svg height="432pt" version="1.1" viewBox="0 0 648 432" width="648pt" xmlns="http://www.w3.org/2000/svg" xmlns:xlink="http://www.w3.org/1999/xlink">
 <defs>
  <style type="text/css">
*{stroke-linecap:butt;stroke-linejoin:round;}
  </style>
 </defs>
 <g id="figure_1">
  <g id="patch_1">
   <path d="M 0 432 
L 648 432 
L 648 0 
L 0 0 
z
" style="fill:#ffffff;"/>
  </g>
  <g id="axes_1">
   <g id="patch_2">
    <path d="M 81.221789 351.892606 
L 636 351.892606 
L 636 12 
L 81.221789 12 
z
" style="fill:none;"/>
   </g>
   <g id="matplotlib.axis_1">
    <g id="xtick_1">
     <g id="line2d_1">
      <defs>
       <path d="M 0 0 
L 0 3.5 
" id="mfe1116479a" style="stroke:#000000;stroke-width:0.8;"/>
      </defs>
      <g>
       <use style="stroke:#000000;stroke-width:0.8;" x="106.43898" xlink:href="#mfe1116479a" y="351.892606"/>
      </g>
     </g>
     <g id="text_1">
      <!-- \textbf{2020-01-17} -->
      <defs>
       <path d="M 50.5 21.375 
L 46.296875 21.375 
C 46 19.28125 45.296875 13.40625 43.796875 12.421875 
C 43 11.71875 35.203125 11.71875 33.703125 11.71875 
L 18.203125 11.71875 
C 22 14.90625 31.09375 22.46875 32.59375 23.578125 
C 43.703125 31.84375 50.5 36.90625 50.5 46.46875 
C 50.5 58.203125 39.796875 65.28125 26.59375 65.28125 
C 15.296875 65.28125 5.59375 58.90625 5.59375 49.453125 
C 5.59375 44.171875 9.90625 42.6875 12.203125 42.6875 
C 15.296875 42.6875 18.90625 44.765625 18.90625 49.359375 
C 18.90625 53.546875 15.796875 55.625 12.703125 56.03125 
C 16.703125 60.609375 22 61 24.09375 61 
C 33.296875 61 37.703125 53.546875 37.703125 46.375 
C 37.703125 38.609375 32.40625 31.453125 28.296875 27.171875 
L 6.59375 4.578125 
C 5.59375 3.671875 5.59375 3.484375 5.59375 1.6875 
L 5.59375 0 
L 47.59375 0 
z
" id="CMBX12-50"/>
       <path d="M 51.703125 31.84375 
C 51.703125 41.375 51.703125 65.28125 28.09375 65.28125 
C 4.40625 65.28125 4.40625 41.46875 4.40625 31.84375 
C 4.40625 22.3125 4.40625 -1 28 -1 
C 51.59375 -1 51.703125 22.015625 51.703125 31.84375 
z
M 28.09375 2.28125 
C 24.90625 2.28125 22.5 3.5625 20.5 5.65625 
C 18 8.140625 16.40625 9.703125 16.40625 33.03125 
C 16.40625 39.984375 16.40625 46.3125 17.203125 51.484375 
C 18.59375 61.3125 25.796875 62 28 62 
C 31.203125 62 37.40625 60.515625 38.796875 52.1875 
C 39.703125 47.109375 39.703125 39.078125 39.703125 33.03125 
C 39.703125 9.609375 38.203125 8.234375 35.203125 5.25 
C 33.203125 3.265625 30.5 2.28125 28.09375 2.28125 
z
" id="CMBX12-48"/>
       <path d="M 31.203125 17 
L 31.203125 26.140625 
L 1.203125 26.140625 
L 1.203125 17 
z
" id="CMBX12-45"/>
       <path d="M 34.59375 62.109375 
C 34.59375 65 34.40625 65 31.203125 65 
C 23.796875 59 12.703125 59 10.5 59 
L 8.59375 59 
L 8.59375 54.734375 
L 10.5 54.734375 
C 14 54.734375 19.296875 55.328125 23.296875 56.625 
L 23.296875 4.171875 
L 9.40625 4.171875 
L 9.40625 0 
C 13.59375 0 24.09375 0 28.796875 0 
C 33.5 0 44.09375 0 48.296875 0 
L 48.296875 4.171875 
L 34.59375 4.171875 
z
" id="CMBX12-49"/>
       <path d="M 53.59375 60.390625 
C 54.5 61.390625 54.5 61.609375 54.5 64.921875 
L 33.40625 64.921875 
C 32.703125 64.921875 17.796875 64.921875 16.59375 65.125 
C 14.09375 65.515625 13.90625 66.5625 13.703125 67.53125 
L 9.5 67.53125 
L 6.203125 43 
L 10.40625 43 
C 10.5 44.015625 11.296875 51.25 13 52.390625 
C 13.90625 53 22.203125 53 23.796875 53 
L 41.90625 53 
C 30.296875 38.859375 29 37.25 25.90625 31.328125 
C 20 19.671875 19.09375 10.640625 19.09375 5.71875 
C 19.09375 -1 24.203125 -1 25 -1 
C 27.5 -1 28.90625 0.296875 29.59375 1 
C 30.90625 2.625 30.90625 3.828125 30.90625 8.25 
C 30.90625 23.609375 32.296875 34.875 38.59375 42.40625 
z
" id="CMBX12-55"/>
      </defs>
      <g transform="translate(22.84901 416.967924)rotate(-30)scale(0.18 -0.18)">
       <use transform="scale(0.996264)" xlink:href="#CMBX12-50"/>
       <use transform="translate(56.039851 0)scale(0.996264)" xlink:href="#CMBX12-48"/>
       <use transform="translate(112.079701 0)scale(0.996264)" xlink:href="#CMBX12-50"/>
       <use transform="translate(168.119552 0)scale(0.996264)" xlink:href="#CMBX12-48"/>
       <use transform="translate(224.159402 0)scale(0.996264)" xlink:href="#CMBX12-45"/>
       <use transform="translate(261.519303 0)scale(0.996264)" xlink:href="#CMBX12-48"/>
       <use transform="translate(317.559153 0)scale(0.996264)" xlink:href="#CMBX12-49"/>
       <use transform="translate(373.599004 0)scale(0.996264)" xlink:href="#CMBX12-45"/>
       <use transform="translate(410.958904 0)scale(0.996264)" xlink:href="#CMBX12-49"/>
       <use transform="translate(466.998755 0)scale(0.996264)" xlink:href="#CMBX12-55"/>
      </g>
     </g>
    </g>
    <g id="xtick_2">
     <g id="line2d_2">
      <g>
       <use style="stroke:#000000;stroke-width:0.8;" x="238.121442" xlink:href="#mfe1116479a" y="351.892606"/>
      </g>
     </g>
     <g id="text_2">
      <!-- \textbf{2020-02-10} -->
      <g transform="translate(154.531471 416.967924)rotate(-30)scale(0.18 -0.18)">
       <use transform="scale(0.996264)" xlink:href="#CMBX12-50"/>
       <use transform="translate(56.039851 0)scale(0.996264)" xlink:href="#CMBX12-48"/>
       <use transform="translate(112.079701 0)scale(0.996264)" xlink:href="#CMBX12-50"/>
       <use transform="translate(168.119552 0)scale(0.996264)" xlink:href="#CMBX12-48"/>
       <use transform="translate(224.159402 0)scale(0.996264)" xlink:href="#CMBX12-45"/>
       <use transform="translate(261.519303 0)scale(0.996264)" xlink:href="#CMBX12-48"/>
       <use transform="translate(317.559153 0)scale(0.996264)" xlink:href="#CMBX12-50"/>
       <use transform="translate(373.599004 0)scale(0.996264)" xlink:href="#CMBX12-45"/>
       <use transform="translate(410.958904 0)scale(0.996264)" xlink:href="#CMBX12-49"/>
       <use transform="translate(466.998755 0)scale(0.996264)" xlink:href="#CMBX12-48"/>
      </g>
     </g>
    </g>
    <g id="xtick_3">
     <g id="line2d_3">
      <g>
       <use style="stroke:#000000;stroke-width:0.8;" x="369.803904" xlink:href="#mfe1116479a" y="351.892606"/>
      </g>
     </g>
     <g id="text_3">
      <!-- \textbf{2020-02-19} -->
      <defs>
       <path d="M 38.703125 28.375 
C 38.703125 21.375 38.703125 2.96875 23.09375 2.96875 
C 20 2.96875 16.40625 3.765625 14.296875 5.375 
C 17.203125 5.96875 19.296875 8.078125 19.296875 11.296875 
C 19.296875 14.90625 16.59375 17.21875 13.40625 17.21875 
C 10.796875 17.21875 7.5 15.515625 7.5 11.109375 
C 7.5 4.109375 13 -1 23.296875 -1 
C 36 -1 51.40625 7.265625 51.40625 32.984375 
C 51.40625 39.671875 51.40625 65.578125 28.296875 65.578125 
C 14.5 65.578125 4.703125 57.625 4.703125 44 
C 4.703125 30.171875 14.296875 22.734375 26.296875 22.734375 
C 30.5 22.734375 35.5 24.21875 38.703125 31.265625 
z
M 27.296875 26 
C 17.40625 26 17.40625 34.046875 17.40625 43.796875 
C 17.40625 53.359375 17.40625 62 28.296875 62 
C 34.703125 62 37 56.34375 37.40625 55.25 
C 38.40625 52.25 38.59375 46.09375 38.59375 42.8125 
C 38.59375 35.859375 35.703125 26 27.296875 26 
z
" id="CMBX12-57"/>
      </defs>
      <g transform="translate(286.213933 416.967924)rotate(-30)scale(0.18 -0.18)">
       <use transform="scale(0.996264)" xlink:href="#CMBX12-50"/>
       <use transform="translate(56.039851 0)scale(0.996264)" xlink:href="#CMBX12-48"/>
       <use transform="translate(112.079701 0)scale(0.996264)" xlink:href="#CMBX12-50"/>
       <use transform="translate(168.119552 0)scale(0.996264)" xlink:href="#CMBX12-48"/>
       <use transform="translate(224.159402 0)scale(0.996264)" xlink:href="#CMBX12-45"/>
       <use transform="translate(261.519303 0)scale(0.996264)" xlink:href="#CMBX12-48"/>
       <use transform="translate(317.559153 0)scale(0.996264)" xlink:href="#CMBX12-50"/>
       <use transform="translate(373.599004 0)scale(0.996264)" xlink:href="#CMBX12-45"/>
       <use transform="translate(410.958904 0)scale(0.996264)" xlink:href="#CMBX12-49"/>
       <use transform="translate(466.998755 0)scale(0.996264)" xlink:href="#CMBX12-57"/>
      </g>
     </g>
    </g>
    <g id="xtick_4">
     <g id="line2d_4">
      <g>
       <use style="stroke:#000000;stroke-width:0.8;" x="501.486365" xlink:href="#mfe1116479a" y="351.892606"/>
      </g>
     </g>
     <g id="text_4">
      <!-- \textbf{2020-02-25} -->
      <defs>
       <path d="M 15.40625 51.796875 
C 18.796875 51 21.5 51 23 51 
C 25.40625 51 31.09375 51 37.796875 55.109375 
C 40.90625 56.984375 46.09375 61.5 46.09375 63.796875 
C 46.09375 64.296875 46.09375 65.5 44.90625 65.5 
C 44.796875 65.5 44.59375 65.5 43.59375 64.984375 
C 39 63.34375 34.09375 62.21875 28.5 62.21875 
C 22.796875 62.21875 18 63.3125 13.296875 65 
C 12.59375 65.203125 12.296875 65.40625 12 65.40625 
C 10.796875 65.40625 10.796875 64.40625 10.796875 62.71875 
L 10.796875 33.796875 
C 10.796875 31.90625 10.796875 30.8125 12.796875 30.8125 
C 13.796875 30.8125 14 30.921875 14.796875 31.90625 
C 16 33.3125 19.59375 37.71875 28.09375 37.71875 
C 37.296875 37.71875 37.296875 28.359375 37.296875 20.5 
C 37.296875 13.3125 37.296875 2.96875 25 2.96875 
C 21.296875 2.96875 15 4.359375 11.59375 10 
C 16.90625 10 18.203125 13.984375 18.203125 16.171875 
C 18.203125 19.75 15.59375 22.421875 11.90625 22.421875 
C 8.90625 22.421875 5.59375 20.640625 5.59375 15.96875 
C 5.59375 7.34375 13.5 -1 25.40625 -1 
C 40.796875 -1 50.5 7.859375 50.5 20.203125 
C 50.5 32.34375 42.203125 41 28.5 41 
C 24.5 41 19.703125 40.203125 15.40625 37.015625 
z
" id="CMBX12-53"/>
      </defs>
      <g transform="translate(417.896395 416.967924)rotate(-30)scale(0.18 -0.18)">
       <use transform="scale(0.996264)" xlink:href="#CMBX12-50"/>
       <use transform="translate(56.039851 0)scale(0.996264)" xlink:href="#CMBX12-48"/>
       <use transform="translate(112.079701 0)scale(0.996264)" xlink:href="#CMBX12-50"/>
       <use transform="translate(168.119552 0)scale(0.996264)" xlink:href="#CMBX12-48"/>
       <use transform="translate(224.159402 0)scale(0.996264)" xlink:href="#CMBX12-45"/>
       <use transform="translate(261.519303 0)scale(0.996264)" xlink:href="#CMBX12-48"/>
       <use transform="translate(317.559153 0)scale(0.996264)" xlink:href="#CMBX12-50"/>
       <use transform="translate(373.599004 0)scale(0.996264)" xlink:href="#CMBX12-45"/>
       <use transform="translate(410.958904 0)scale(0.996264)" xlink:href="#CMBX12-50"/>
       <use transform="translate(466.998755 0)scale(0.996264)" xlink:href="#CMBX12-53"/>
      </g>
     </g>
    </g>
    <g id="xtick_5">
     <g id="line2d_5">
      <g>
       <use style="stroke:#000000;stroke-width:0.8;" x="633.168827" xlink:href="#mfe1116479a" y="351.892606"/>
      </g>
     </g>
    </g>
    <g id="text_5">
     <!-- \textbf{} -->
     <g transform="translate(358.610894 440.27777)scale(0.22 -0.22)"/>
    </g>
   </g>
   <g id="matplotlib.axis_2">
    <g id="ytick_1">
     <g id="line2d_6">
      <defs>
       <path d="M 0 0 
L -3.5 0 
" id="m0f1361530c" style="stroke:#000000;stroke-width:0.8;"/>
      </defs>
      <g>
       <use style="stroke:#000000;stroke-width:0.8;" x="81.221789" xlink:href="#m0f1361530c" y="351.892606"/>
      </g>
     </g>
     <g id="text_6">
      <!-- $0.0$ -->
      <defs>
       <path d="M 23.703125 7.765625 
C 23.703125 12.046875 20.203125 15.53125 15.90625 15.53125 
C 11.59375 15.53125 8.09375 12.046875 8.09375 7.765625 
C 8.09375 3.484375 11.59375 0 15.90625 0 
C 20.203125 0 23.703125 3.484375 23.703125 7.765625 
z
" id="CMMIB10-58"/>
      </defs>
      <g transform="translate(48.221819 358.142606)scale(0.18 -0.18)">
       <use transform="scale(0.996264)" xlink:href="#CMBX12-48"/>
       <use transform="translate(56.039851 0)scale(0.996264)" xlink:href="#CMMIB10-58"/>
       <use transform="translate(87.864782 0)scale(0.996264)" xlink:href="#CMBX12-48"/>
      </g>
     </g>
    </g>
    <g id="ytick_2">
     <g id="line2d_7">
      <g>
       <use style="stroke:#000000;stroke-width:0.8;" x="81.221789" xlink:href="#m0f1361530c" y="290.86402"/>
      </g>
     </g>
     <g id="text_7">
      <!-- $0.1$ -->
      <g transform="translate(48.221819 297.11402)scale(0.18 -0.18)">
       <use transform="scale(0.996264)" xlink:href="#CMBX12-48"/>
       <use transform="translate(56.039851 0)scale(0.996264)" xlink:href="#CMMIB10-58"/>
       <use transform="translate(87.864782 0)scale(0.996264)" xlink:href="#CMBX12-49"/>
      </g>
     </g>
    </g>
    <g id="ytick_3">
     <g id="line2d_8">
      <g>
       <use style="stroke:#000000;stroke-width:0.8;" x="81.221789" xlink:href="#m0f1361530c" y="229.835434"/>
      </g>
     </g>
     <g id="text_8">
      <!-- $0.2$ -->
      <g transform="translate(48.221819 236.085434)scale(0.18 -0.18)">
       <use transform="scale(0.996264)" xlink:href="#CMBX12-48"/>
       <use transform="translate(56.039851 0)scale(0.996264)" xlink:href="#CMMIB10-58"/>
       <use transform="translate(87.864782 0)scale(0.996264)" xlink:href="#CMBX12-50"/>
      </g>
     </g>
    </g>
    <g id="ytick_4">
     <g id="line2d_9">
      <g>
       <use style="stroke:#000000;stroke-width:0.8;" x="81.221789" xlink:href="#m0f1361530c" y="168.806849"/>
      </g>
     </g>
     <g id="text_9">
      <!-- $0.3$ -->
      <defs>
       <path d="M 26.09375 33 
C 37.296875 33 37.296875 22.71875 37.296875 17.984375 
C 37.296875 13.53125 37.296875 3.0625 26.5 3.0625 
C 24.40625 3.0625 17.796875 3.0625 13 6.625 
C 17.296875 7.515625 18.796875 10.59375 18.796875 13.5625 
C 18.796875 17.625 15.90625 20.5 11.796875 20.5 
C 7.59375 20.5 4.703125 17.625 4.703125 13.46875 
C 4.703125 4.34375 14.703125 -1 27 -1 
C 43.5 -1 51.40625 8.015625 51.40625 17.921875 
C 51.40625 22.796875 48.90625 32.203125 33.40625 34.875 
C 42.203125 37.59375 48.296875 43.8125 48.296875 51.71875 
C 48.296875 59.25 41.09375 65.578125 27.203125 65.578125 
C 16 65.578125 7.796875 59.65625 7.796875 51.53125 
C 7.796875 46.515625 11.703125 44.90625 14.296875 44.90625 
C 17.203125 44.90625 20.703125 46.8125 20.703125 51.4375 
C 20.703125 53.765625 19.703125 57.171875 15 57.875 
C 19.203125 62 26 62 26.59375 62 
C 35.5 62 35.5 55.03125 35.5 52.015625 
C 35.5 48.984375 35.09375 44.328125 31.90625 40.203125 
C 29.296875 36.75 26.703125 36.5625 22.90625 36.5625 
C 21.703125 36.265625 19.703125 36.265625 19.296875 36.078125 
C 18.703125 35.78125 18.703125 35.078125 18.703125 34.6875 
C 18.703125 33 19.296875 33 21.296875 33 
z
" id="CMBX12-51"/>
      </defs>
      <g transform="translate(48.221819 175.056849)scale(0.18 -0.18)">
       <use transform="scale(0.996264)" xlink:href="#CMBX12-48"/>
       <use transform="translate(56.039851 0)scale(0.996264)" xlink:href="#CMMIB10-58"/>
       <use transform="translate(87.864782 0)scale(0.996264)" xlink:href="#CMBX12-51"/>
      </g>
     </g>
    </g>
    <g id="ytick_5">
     <g id="line2d_10">
      <g>
       <use style="stroke:#000000;stroke-width:0.8;" x="81.221789" xlink:href="#m0f1361530c" y="107.778263"/>
      </g>
     </g>
     <g id="text_10">
      <!-- $0.4$ -->
      <defs>
       <path d="M 43.296875 15.71875 
L 53 15.71875 
L 53 20 
L 43.296875 20 
L 43.296875 62.609375 
C 43.296875 65.09375 43.203125 65.5 40.703125 65.5 
C 38.90625 65.5 38.703125 65.5 37.5 64 
L 3.09375 20 
L 3.09375 15.71875 
L 31.5 15.71875 
L 31.5 4.171875 
L 20.59375 4.171875 
L 20.59375 0 
C 23.5 0 33.40625 0 37 0 
C 40.40625 0 50.296875 0 53 -0.09375 
L 53 4.171875 
L 43.296875 4.171875 
z
M 32.40625 51.59375 
L 32.40625 20 
L 7.703125 20 
z
" id="CMBX12-52"/>
      </defs>
      <g transform="translate(48.221819 114.028263)scale(0.18 -0.18)">
       <use transform="scale(0.996264)" xlink:href="#CMBX12-48"/>
       <use transform="translate(56.039851 0)scale(0.996264)" xlink:href="#CMMIB10-58"/>
       <use transform="translate(87.864782 0)scale(0.996264)" xlink:href="#CMBX12-52"/>
      </g>
     </g>
    </g>
    <g id="ytick_6">
     <g id="line2d_11">
      <g>
       <use style="stroke:#000000;stroke-width:0.8;" x="81.221789" xlink:href="#m0f1361530c" y="46.749677"/>
      </g>
     </g>
     <g id="text_11">
      <!-- $0.5$ -->
      <g transform="translate(48.221819 52.999677)scale(0.18 -0.18)">
       <use transform="scale(0.996264)" xlink:href="#CMBX12-48"/>
       <use transform="translate(56.039851 0)scale(0.996264)" xlink:href="#CMMIB10-58"/>
       <use transform="translate(87.864782 0)scale(0.996264)" xlink:href="#CMBX12-53"/>
      </g>
     </g>
    </g>
    <g id="text_12">
     <!-- \textbf{Vibration RMS (g)} -->
     <defs>
      <path d="M 72.40625 61.734375 
C 73 63.015625 73.40625 64 80.796875 64 
L 82.5 64 
L 82.5 68.171875 
C 79.40625 68.171875 72.203125 68.171875 71.40625 68.171875 
C 68.59375 68.171875 61.5 68.171875 59.203125 68.28125 
L 59.203125 64 
C 61.40625 64 65.09375 64 67.90625 62.90625 
L 67.40625 61.53125 
L 46.90625 15.234375 
L 25.296875 64 
L 34.59375 64 
L 34.59375 68.171875 
C 31.40625 68.171875 21.796875 68.171875 18 68.171875 
C 14.796875 68.171875 4.90625 68.171875 2.40625 68.28125 
L 2.40625 64 
L 11.40625 64 
L 39 1.5625 
C 39.90625 -0.40625 40.796875 -0.5 42.40625 -0.5 
C 44 -0.5 45 -0.5 45.90625 1.5625 
z
" id="CMBX12-86"/>
      <path d="M 22.296875 61.84375 
C 22.296875 65.921875 19 69 15.09375 69 
C 11 69 7.90625 65.625 7.90625 61.84375 
C 7.90625 58.0625 11 54.6875 15.09375 54.6875 
C 19 54.6875 22.296875 57.765625 22.296875 61.84375 
z
M 4.703125 44 
L 4.703125 39.328125 
C 10.59375 39.328125 11.296875 39.328125 11.296875 35.46875 
L 11.296875 4.0625 
L 4.40625 4.0625 
L 4.40625 -0.203125 
C 6.703125 0 13.59375 0 16.296875 0 
C 19.09375 0 25.5 0 27.90625 -0.203125 
L 27.90625 4.0625 
L 21.703125 4.0625 
L 21.703125 44 
z
" id="CMBX12-105"/>
      <path d="M 20.796875 69 
L 3.5 69 
L 3.5 64.328125 
C 9.703125 64.328125 10.40625 64.328125 10.40625 60.421875 
L 10.40625 0 
L 14.59375 0 
C 16.296875 1.921875 18 3.859375 19.59375 5.875 
C 24.703125 0.59375 30.203125 -0.5 34.203125 -0.5 
C 48 -0.5 58.59375 7.875 58.59375 22.359375 
C 58.59375 36.015625 49.203125 45 35.5 45 
C 29.59375 45 24.90625 43.109375 20.796875 39.921875 
z
M 21.296875 35.125 
C 24.796875 39.921875 30 41.71875 34.203125 41.71875 
C 46.59375 41.71875 46.59375 29.046875 46.59375 22.453125 
C 46.59375 17.953125 46.59375 12.265625 44.203125 8.5625 
C 41.09375 3.765625 36.40625 2.78125 33.203125 2.78125 
C 26.40625 2.78125 22.703125 7.5625 21.296875 9.765625 
z
" id="CMBX12-98"/>
      <path d="M 20.796875 22.046875 
C 20.796875 25.296875 21.5 41 33.203125 41 
C 31.796875 39.921875 31.09375 38.25 31.09375 36.5 
C 31.09375 32.484375 34.40625 30.8125 36.90625 30.8125 
C 39.40625 30.8125 42.703125 32.484375 42.703125 36.515625 
C 42.703125 41.53125 37.5 44.28125 32.703125 44.28125 
C 24.796875 44.28125 21.40625 37.515625 20 33.390625 
L 19.90625 33.390625 
L 19.90625 44 
L 3.5 44 
L 3.5 39.328125 
C 9.703125 39.328125 10.40625 39.328125 10.40625 35.46875 
L 10.40625 4.0625 
L 3.5 4.0625 
L 3.5 -0.203125 
C 5.796875 0 13.296875 0 16.09375 0 
C 19 0 27.09375 0 29.5 -0.203125 
L 29.5 4.0625 
L 20.796875 4.0625 
z
" id="CMBX12-114"/>
      <path d="M 46 29.65625 
C 46 38.8125 38.703125 44.984375 24.59375 44.984375 
C 19 44.984375 7.203125 44.984375 7.203125 36.46875 
C 7.203125 32.203125 10.40625 30.390625 13.09375 30.390625 
C 16.09375 30.390625 19 32.484375 19 36.296875 
C 19 38.203125 18.296875 39.984375 16.59375 41.09375 
C 19.90625 42 22.296875 42 24.203125 42 
C 31 42 35.09375 38.203125 35.09375 29.984375 
L 35.09375 25.984375 
C 19.296875 25.984375 3.40625 21.59375 3.40625 10.5625 
C 3.40625 1.484375 15 -0.5 21.90625 -0.5 
C 29.59375 -0.5 34.5 3.640625 36.5 7.96875 
C 36.5 4.28125 36.5 0 46.59375 0 
L 51.703125 0 
C 53.796875 0 54.59375 0 54.59375 2.265625 
C 54.59375 4.265625 53.703125 4.265625 52.296875 4.265625 
C 46 4.265625 46 5.84375 46 8.15625 
z
M 35.09375 13.78125 
C 35.09375 4.546875 26.703125 2.78125 23.5 2.78125 
C 18.59375 2.78125 14.5 6.09375 14.5 10.71875 
C 14.5 19.890625 25.296875 23 35.09375 23 
z
" id="CMBX12-97"/>
      <path d="M 21.09375 40 
L 35.5 40 
L 35.5 44.265625 
L 21.09375 44.265625 
L 21.09375 63 
L 16.90625 63 
C 16.796875 53.203125 12 43.375 2.09375 43.375 
L 2.09375 40 
L 10.203125 40 
L 10.203125 12.328125 
C 10.203125 1.78125 18.40625 -0.5 25.59375 -0.5 
C 33 -0.5 37.40625 5.078125 37.40625 12.421875 
L 37.40625 17.703125 
L 33.203125 17.703125 
L 33.203125 12.53125 
C 33.203125 5.953125 30.203125 3.078125 27.09375 3.078125 
C 21.09375 3.078125 21.09375 9.75 21.09375 12.03125 
z
" id="CMBX12-116"/>
      <path d="M 53 21.796875 
C 53 35.1875 43.796875 45 28.09375 45 
C 11.796875 45 3.09375 34.6875 3.09375 21.796875 
C 3.09375 8.828125 12.296875 -0.5 28 -0.5 
C 44.296875 -0.5 53 9.3125 53 21.796875 
z
M 28.09375 3.078125 
C 15.09375 3.078125 15.09375 14.671875 15.09375 22.796875 
C 15.09375 27.453125 15.09375 32.40625 17 35.984375 
C 19.203125 39.9375 23.703125 41.71875 28 41.71875 
C 33.703125 41.71875 37.296875 39.046875 39 36.28125 
C 41 32.703125 41 27.546875 41 22.796875 
C 41 14.5625 41 3.078125 28.09375 3.078125 
z
" id="CMBX12-111"/>
      <path d="M 53.09375 30.0625 
C 53.09375 39.453125 49 44.28125 38 44.28125 
C 30.796875 44.28125 24.59375 40.859375 21.203125 33.484375 
L 21.09375 33.484375 
L 21.09375 44 
L 4.203125 44 
L 4.203125 39.328125 
C 10.40625 39.328125 11.09375 39.328125 11.09375 35.46875 
L 11.09375 4.0625 
L 4.203125 4.0625 
L 4.203125 -0.203125 
C 6.5 0 13.703125 0 16.5 0 
C 19.296875 0 26.59375 0 28.90625 -0.203125 
L 28.90625 4.0625 
L 22 4.0625 
L 22 25.109375 
C 22 35.765625 30 41 36.40625 41 
C 40.09375 41 42.203125 38.640625 42.203125 31.140625 
L 42.203125 4.0625 
L 35.296875 4.0625 
L 35.296875 -0.203125 
C 37.59375 0 44.796875 0 47.59375 0 
C 50.40625 0 57.703125 0 60 -0.203125 
L 60 4.0625 
L 53.09375 4.0625 
z
" id="CMBX12-110"/>
      <path d="M 52.90625 33.65625 
C 66.40625 37.234375 69.703125 44.359375 69.703125 49.734375 
C 69.703125 59.671875 59.203125 68 40.703125 68 
L 3.796875 68 
L 3.796875 63.71875 
L 14.40625 63.71875 
L 14.40625 4.171875 
L 3.796875 4.171875 
L 3.796875 0 
C 6.703125 0 17.09375 0 20.703125 0 
C 24.296875 0 34.796875 0 37.703125 0 
L 37.703125 4.171875 
L 27.09375 4.171875 
L 27.09375 32.71875 
L 39 32.71875 
C 43 32.71875 46.203125 31.515625 48.40625 28.890625 
C 51.40625 25.46875 51.40625 23.25 51.40625 16.515625 
C 51.40625 9.78125 51.40625 5.671875 56.5 2.25 
C 61.703125 -1.28125 69.90625 -1.28125 72.09375 -1.28125 
C 82.296875 -1.28125 83.5 7.71875 83.5 9.109375 
C 83.5 10.8125 82.703125 11.109375 81.40625 11.109375 
C 79.5 11.109375 79.40625 10.421875 79.296875 9.109375 
C 78.796875 4.09375 75.703125 2 72.90625 2 
C 66.5 2 65.796875 8.65625 65 17.765625 
C 64.40625 23.03125 63.703125 30.375 52.90625 33.65625 
z
M 38.796875 36 
L 27.09375 36 
L 27.09375 63.71875 
L 39 63.71875 
C 55.296875 63.71875 55.59375 55.6875 55.59375 49.90625 
C 55.59375 44.515625 55.5 36 38.796875 36 
z
" id="CMBX12-82"/>
      <path d="M 53.296875 12.453125 
L 29.296875 65.90625 
C 28.40625 68 27.5 68 25.40625 68 
L 4.09375 68 
L 4.09375 63.71875 
L 14.703125 63.71875 
L 14.703125 6.9375 
C 14.703125 4.75 14.59375 4.65625 12 4.25 
C 10.203125 4.0625 8.203125 4.0625 6.40625 4.0625 
L 4.09375 4.0625 
L 4.09375 -0.203125 
C 6.40625 0 14.203125 0 17 0 
C 19.796875 0 27.703125 0 30 -0.203125 
L 30 4.0625 
L 27.703125 4.0625 
C 25 4.0625 24.796875 4.0625 22.40625 4.359375 
C 19.5 4.765625 19.40625 4.859375 19.40625 7.046875 
L 19.40625 62.53125 
L 19.5 62.53125 
L 46.703125 2.09375 
C 47.203125 1 47.796875 0 49.5 0 
C 51.203125 0 51.796875 1 52.296875 2.09375 
L 80 63.71875 
L 80.09375 63.71875 
L 80.09375 4.0625 
L 69.5 4.0625 
L 69.5 -0.203125 
C 72.203125 0 82.59375 0 86 0 
C 89.40625 0 99.796875 0 102.5 -0.203125 
L 102.5 4.0625 
L 91.90625 4.0625 
L 91.90625 63.71875 
L 102.5 63.71875 
L 102.5 68 
L 81.203125 68 
C 79.09375 68 78.203125 68 77.296875 65.90625 
z
" id="CMBX12-77"/>
      <path d="M 25.40625 43.46875 
C 15.5 45.625 15.203125 52.75 15.203125 54.140625 
C 15.203125 59.171875 18.5 65.03125 28.203125 65.03125 
C 37.90625 65.03125 46.59375 60.359375 48.703125 47.34375 
C 49 45.25 49 45.25 50.90625 45.25 
C 53 45.25 53 45.546875 53 47.8125 
L 53 66.4375 
C 53 68.3125 53 69.015625 51.5 69.015625 
C 50.796875 69.015625 50.5 68.921875 49.59375 67.921875 
L 45.296875 63.046875 
C 42.796875 65.140625 37.796875 69 28.09375 69 
C 13.796875 69 6.203125 60.09375 6.203125 49.3125 
C 6.203125 42.6875 9.796875 38.03125 11.203125 36.640625 
C 16.40625 31.5 19.203125 30.90625 29.59375 28.625 
C 39.59375 26.453125 40.796875 26.25 43 24.1875 
C 44.296875 22.890625 47.203125 20.125 47.203125 15.078125 
C 47.203125 10.8125 45.09375 3 33.90625 3 
C 25.09375 3 11.203125 5.96875 10.40625 20.421875 
C 10.296875 22.203125 10.296875 22.5 8.296875 22.5 
C 6.203125 22.5 6.203125 22.203125 6.203125 19.921875 
L 6.203125 1.296875 
C 6.203125 -0.59375 6.203125 -1.28125 7.703125 -1.28125 
C 8.40625 -1.28125 8.5 -1.1875 9.5 -0.296875 
C 10.59375 0.796875 11.5 2.09375 14 4.578125 
C 19.796875 0.015625 28 -1.265625 34 -1.265625 
C 49.59375 -1.265625 56.203125 9.21875 56.203125 19.71875 
C 56.203125 29 50 37.90625 39.09375 40.375 
z
" id="CMBX12-83"/>
      <path d="M 37.40625 -23.8125 
C 37.40625 -23.40625 37.40625 -23.203125 35.5 -21.421875 
C 24.296875 -10.296875 20 7.203125 20 24.6875 
C 20 44.28125 24.90625 60.390625 36.09375 71.609375 
C 37.296875 72.796875 37.40625 72.90625 37.40625 73.296875 
C 37.40625 74.5 36.203125 74.5 35.703125 74.5 
C 34.796875 74.5 34.59375 74.5 32 72.40625 
C 17.59375 60.984375 10.796875 42.6875 10.796875 24.8125 
C 10.796875 6.515625 17.703125 -11.28125 31.90625 -22.8125 
C 34.5 -25 34.703125 -25 35.703125 -25 
C 36.203125 -25 37.40625 -25 37.40625 -23.8125 
z
" id="CMBX12-40"/>
      <path d="M 13 18.578125 
C 17.796875 16 23.40625 16 24.90625 16 
C 38.703125 16 44.203125 23.65625 44.203125 30.625 
C 44.203125 35.703125 41.296875 39.296875 40.09375 40.28125 
C 43 41.8125 45.40625 42.1875 47.09375 42.390625 
C 46.796875 41.90625 46.5 41.53125 46.5 40.28125 
C 46.5 38.28125 47.90625 36.46875 50.5 36.46875 
C 53.09375 36.46875 54.5 38.359375 54.5 40.4375 
C 54.5 42.828125 52.703125 46 48.5 46 
C 44.203125 46 40.09375 43.796875 38 41.90625 
C 33.90625 44.28125 30 45.171875 24.90625 45.171875 
C 11.09375 45.171875 5.59375 37.546875 5.59375 30.578125 
C 5.59375 27.5 6.59375 23.453125 10.796875 20.078125 
C 9.09375 18.140625 7.296875 14.578125 7.296875 10.921875 
C 7.296875 6.5625 9.59375 2.8125 11.703125 1.1875 
C 9.296875 0.609375 3.09375 -1.640625 3.09375 -7.203125 
C 3.09375 -12.96875 9.59375 -19.5 28 -19.5 
C 44.59375 -19.5 53 -14.21875 53 -6.859375 
C 53 1.78125 47.203125 4.609375 44.703125 5.78125 
C 39.90625 8.140625 33.5 8.140625 24.703125 8.140625 
C 22.203125 8.140625 17.796875 8.140625 17.296875 8.234375 
C 13 8.984375 11.796875 12.953125 11.796875 14.953125 
C 11.796875 15.78125 11.90625 17.296875 13 18.578125 
z
M 24.90625 19.171875 
C 16.203125 19.171875 16.203125 26.015625 16.203125 30.578125 
C 16.203125 35.15625 16.203125 42 24.90625 42 
C 33.59375 42 33.59375 35.15625 33.59375 30.578125 
C 33.59375 26.015625 33.59375 19.171875 24.90625 19.171875 
z
M 30.5 -1 
C 37.796875 -1 44.796875 -2.265625 44.796875 -7.296875 
C 44.796875 -10.703125 41.296875 -16.328125 28.09375 -16.328125 
C 14.90625 -16.328125 11.296875 -10.890625 11.296875 -7.203125 
C 11.296875 -1 17.59375 -1 19.09375 -1 
z
" id="CMBX12-103"/>
      <path d="M 32.796875 24.703125 
C 32.796875 42.984375 25.90625 60.78125 11.703125 72.3125 
C 9.09375 74.5 8.90625 74.5 7.90625 74.5 
C 7.40625 74.5 6.203125 74.5 6.203125 73.3125 
C 6.203125 72.921875 6.203125 72.71875 8.09375 70.9375 
C 19.296875 59.796875 23.59375 42.3125 23.59375 24.8125 
C 23.59375 5.21875 18.703125 -10.875 7.5 -22.109375 
C 6.296875 -23.3125 6.203125 -23.40625 6.203125 -23.8125 
C 6.203125 -25 7.40625 -25 7.90625 -25 
C 8.796875 -25 9 -25 11.59375 -22.90625 
C 26 -11.484375 32.796875 6.8125 32.796875 24.703125 
z
" id="CMBX12-41"/>
     </defs>
     <g transform="translate(37.721819 285.892523)rotate(-90)scale(0.22 -0.22)">
      <use transform="translate(0 -0.0934)scale(0.996264)" xlink:href="#CMBX12-86"/>
      <use transform="translate(84.636395 -0.0934)scale(0.996264)" xlink:href="#CMBX12-105"/>
      <use transform="translate(115.769645 -0.0934)scale(0.996264)" xlink:href="#CMBX12-98"/>
      <use transform="translate(178.036146 -0.0934)scale(0.996264)" xlink:href="#CMBX12-114"/>
      <use transform="translate(223.813653 -0.0934)scale(0.996264)" xlink:href="#CMBX12-97"/>
      <use transform="translate(278.296841 -0.0934)scale(0.996264)" xlink:href="#CMBX12-116"/>
      <use transform="translate(321.883391 -0.0934)scale(0.996264)" xlink:href="#CMBX12-105"/>
      <use transform="translate(353.016642 -0.0934)scale(0.996264)" xlink:href="#CMBX12-111"/>
      <use transform="translate(409.056492 -0.0934)scale(0.996264)" xlink:href="#CMBX12-110"/>
      <use transform="translate(508.682893 -0.0934)scale(0.996264)" xlink:href="#CMBX12-82"/>
      <use transform="translate(592.281569 -0.0934)scale(0.996264)" xlink:href="#CMBX12-77"/>
      <use transform="translate(698.595994 -0.0934)scale(0.996264)" xlink:href="#CMBX12-83"/>
      <use transform="translate(798.222395 -0.0934)scale(0.996264)" xlink:href="#CMBX12-40"/>
      <use transform="translate(841.808945 -0.0934)scale(0.996264)" xlink:href="#CMBX12-103"/>
      <use transform="translate(897.848796 -0.0934)scale(0.996264)" xlink:href="#CMBX12-41"/>
     </g>
    </g>
   </g>
   <g id="line2d_12">
    <path clip-path="url(#p445733c7e6)" d="M 106.43898 272.427285 
L 107.097393 282.08811 
L 107.755805 267.490072 
L 108.414217 288.923311 
L 109.072629 273.147422 
L 109.731042 280.531881 
L 110.389454 267.361912 
L 111.047866 289.771609 
L 111.706279 276.089 
L 112.364691 282.295607 
L 113.023103 273.013159 
L 113.681516 283.705367 
L 114.99834 289.106397 
L 115.656753 288.831768 
L 116.315165 286.659151 
L 116.973577 292.786421 
L 117.63199 289.88146 
L 118.290402 280.476955 
L 119.607226 294.495221 
L 120.265639 293.006124 
L 120.924051 279.891081 
L 121.582463 278.627789 
L 122.240876 274.685342 
L 122.899288 267.453455 
L 123.5577 282.112521 
L 124.216113 286.537094 
L 124.874525 283.046259 
L 125.532937 285.395859 
L 126.849762 275.350554 
L 127.508174 281.325252 
L 128.166586 281.612087 
L 128.824999 281.728041 
L 129.483411 282.911996 
L 130.141823 280.208429 
L 130.800236 281.514441 
L 131.458648 272.238096 
L 132.11706 276.497891 
L 132.775473 277.41332 
L 133.433885 288.502214 
L 134.092297 285.304316 
L 134.75071 290.656523 
L 135.409122 279.097709 
L 136.067534 287.086351 
L 136.725946 264.579008 
L 137.384359 272.500519 
L 138.042771 271.774279 
L 138.701183 279.683583 
L 139.359596 276.503994 
L 140.018008 274.941662 
L 140.67642 278.176177 
L 141.334833 268.210209 
L 141.993245 279.012269 
L 142.651657 278.987858 
L 143.31007 281.819584 
L 143.968482 273.995719 
L 144.626894 276.760314 
L 145.285306 277.309571 
L 145.943719 279.482189 
L 146.602131 286.878854 
L 147.260543 285.060202 
L 147.918956 278.975652 
L 149.23578 283.937276 
L 149.894193 274.245936 
L 150.552605 284.218007 
L 151.211017 283.272064 
L 151.86943 286.146511 
L 152.527842 272.43949 
L 153.186254 262.906825 
L 153.844666 272.769045 
L 154.503079 261.692356 
L 155.161491 272.732428 
L 155.819903 278.804772 
L 156.478316 275.167468 
L 157.136728 261.332288 
L 157.79514 278.414189 
L 159.111965 271.212816 
L 159.770377 268.869318 
L 160.42879 274.367994 
L 161.087202 276.070691 
L 161.745614 276.47348 
L 162.404026 280.470852 
L 163.062439 279.293 
L 163.720851 280.464749 
L 164.379263 270.822233 
L 165.037676 276.650463 
L 165.696088 272.671399 
L 166.3545 280.855332 
L 167.012913 274.844017 
L 167.671325 270.748998 
L 168.329737 263.425568 
L 168.98815 261.649636 
L 169.646562 276.400246 
L 170.304974 276.034074 
L 170.963386 274.367994 
L 171.621799 277.767286 
L 172.280211 276.34532 
L 172.938623 281.679218 
L 173.597036 279.750715 
L 174.255448 281.74635 
L 174.91386 278.627789 
L 175.572273 278.188383 
L 176.230685 282.991333 
L 176.889097 283.02795 
L 177.54751 280.153504 
L 178.205922 278.176177 
L 178.864334 282.698396 
L 180.181159 273.769913 
L 180.839571 283.076773 
L 181.497983 288.51442 
L 182.156396 285.835265 
L 182.814808 275.887605 
L 183.47322 280.074166 
L 184.131633 281.416795 
L 184.790045 286.250259 
L 185.448457 283.601619 
L 186.10687 282.332224 
L 186.765282 276.845754 
L 187.423694 280.165709 
L 188.082107 289.020957 
L 188.740519 279.0794 
L 189.398931 281.245915 
L 190.057343 278.298235 
L 190.715756 290.027929 
L 191.374168 287.464728 
L 192.03258 278.176177 
L 192.690993 280.245046 
L 193.349405 286.634739 
L 194.007817 286.140408 
L 195.324642 290.931152 
L 196.641467 279.897183 
L 197.299879 260.960013 
L 197.958291 253.978343 
L 198.616703 262.821385 
L 199.275116 262.650505 
L 199.933528 254.552012 
L 200.59194 270.041067 
L 201.250353 262.803077 
L 201.908765 272.793456 
L 202.567177 271.035833 
L 203.22559 268.545867 
L 203.884002 276.980017 
L 204.542414 266.660083 
L 205.200827 262.638299 
L 205.859239 283.19883 
L 206.517651 273.898073 
L 207.176063 261.704562 
L 207.834476 267.972198 
L 208.492888 267.380221 
L 209.1513 271.981776 
L 209.809713 264.023648 
L 210.468125 273.885868 
L 211.126537 275.680108 
L 211.78495 274.624314 
L 212.443362 279.372338 
L 213.101774 275.2346 
L 213.760187 273.611239 
L 214.418599 273.12301 
L 215.077011 275.497022 
L 215.735423 276.381937 
L 216.393836 276.296497 
L 217.052248 282.783836 
L 217.71066 271.078553 
L 218.369073 274.911148 
L 219.027485 267.014049 
L 219.685897 272.018393 
L 220.34431 280.464749 
L 221.002722 280.702761 
L 221.661134 264.145705 
L 222.319547 264.536288 
L 222.977959 258.77519 
L 223.636371 264.414231 
L 224.294783 258.299167 
L 224.953196 257.261681 
L 225.611608 261.625225 
L 226.27002 253.990549 
L 226.928433 267.136106 
L 227.586845 266.287809 
L 228.245257 257.57903 
L 228.90367 270.028861 
L 229.562082 262.180585 
L 230.220494 248.565107 
L 230.878907 276.967811 
L 231.537319 267.648746 
L 232.195731 277.785594 
L 232.854143 269.638278 
L 233.512556 277.596406 
L 234.170968 268.448221 
L 234.82938 266.757729 
L 235.487793 270.523193 
L 236.146205 279.366235 
L 236.804617 273.538005 
L 237.46303 59.663326 
L 238.121442 286.653048 
L 238.779854 234.260007 
L 239.438267 250.652285 
L 240.096679 250.585154 
L 240.755091 254.619143 
L 241.413504 249.596491 
L 242.071916 269.32093 
L 242.730328 267.825729 
L 243.38874 268.661821 
L 244.047153 277.260749 
L 244.705565 279.213663 
L 245.363977 262.406391 
L 246.02239 275.472611 
L 246.680802 255.955669 
L 247.339214 270.041067 
L 247.997627 270.108198 
L 248.656039 260.715899 
L 249.314451 266.989638 
L 249.972864 280.330486 
L 250.631276 260.923396 
L 251.289688 275.936428 
L 251.9481 268.899832 
L 252.606513 267.337501 
L 253.264925 280.177915 
L 253.923337 245.696764 
L 254.58175 245.031552 
L 255.240162 239.642728 
L 255.898574 242.212032 
L 256.556987 242.535483 
L 257.215399 255.430823 
L 257.873811 260.111716 
L 258.532224 229.798817 
L 259.190636 263.712403 
L 259.849048 253.337543 
L 260.50746 266.580746 
L 261.165873 256.755144 
L 261.824285 275.088131 
L 262.482697 271.762073 
L 263.14111 263.260791 
L 263.799522 268.710644 
L 264.457934 263.871077 
L 265.116347 253.856286 
L 265.774759 259.055921 
L 266.433171 258.762984 
L 267.091584 265.793477 
L 267.749996 263.388951 
L 268.408408 258.665338 
L 269.06682 257.542412 
L 269.725233 259.190184 
L 270.383645 270.028861 
L 271.042057 249.791782 
L 271.70047 247.423873 
L 272.358882 263.895488 
L 273.017294 267.959992 
L 273.675707 265.988769 
L 274.334119 258.26255 
L 274.992531 258.531076 
L 275.650944 252.965269 
L 276.309356 261.393316 
L 276.967768 260.752516 
L 277.62618 266.025386 
L 278.284593 252.324468 
L 278.943005 263.773431 
L 279.601417 262.028014 
L 280.25983 261.826619 
L 280.918242 269.253798 
L 281.576654 259.098641 
L 282.235067 265.976563 
L 282.893479 274.544977 
L 283.551891 272.09773 
L 284.210304 265.134369 
L 284.868716 264.243351 
L 285.527128 226.130999 
L 286.18554 255.406412 
L 286.843953 263.285202 
L 287.502365 248.65665 
L 288.160777 259.135259 
L 288.81919 259.574664 
L 289.477602 271.377593 
L 290.136014 261.637431 
L 290.794427 256.810069 
L 291.452839 250.933017 
L 292.111251 263.675785 
L 292.769664 245.647941 
L 293.428076 241.540717 
L 294.086488 244.268695 
L 294.7449 242.450043 
L 296.061725 244.433472 
L 296.720137 244.860672 
L 297.37855 247.088216 
L 298.036962 246.545061 
L 298.695374 246.575576 
L 299.353787 247.185861 
L 300.012199 239.929563 
L 300.670611 245.678455 
L 301.329024 244.073404 
L 301.987436 239.300968 
L 302.645848 241.949609 
L 303.304261 240.173677 
L 303.962673 244.274798 
L 304.621085 245.861541 
L 305.279497 243.505838 
L 306.596322 233.118772 
L 307.254734 236.74387 
L 307.913147 238.879871 
L 308.571559 252.757771 
L 309.229971 251.634845 
L 309.888384 248.650548 
L 310.546796 246.795279 
L 311.205208 244.140535 
L 311.863621 250.414274 
L 312.522033 248.131805 
L 313.180445 247.039393 
L 313.838857 243.829289 
L 314.49727 246.172787 
L 315.155682 255.467441 
L 316.472507 246.612193 
L 317.130919 255.461338 
L 318.447744 251.939988 
L 319.106156 254.161429 
L 319.764568 243.926935 
L 320.422981 251.586022 
L 321.081393 248.48577 
L 321.739805 252.001017 
L 322.398217 251.207645 
L 323.05663 253.691509 
L 323.715042 243.987964 
L 324.373454 244.640969 
L 325.031867 244.396855 
L 325.690279 241.089106 
L 326.348691 243.426501 
L 327.007104 241.296603 
L 327.665516 245.690661 
L 328.982341 241.436969 
L 329.640753 242.52938 
L 330.299165 250.383759 
L 330.957577 247.179759 
L 331.61599 241.595643 
L 332.274402 254.234663 
L 332.932814 236.475345 
L 333.591227 245.684558 
L 334.249639 237.567756 
L 334.908051 244.280901 
L 335.566464 249.828399 
L 336.224876 243.664512 
L 336.883288 238.800534 
L 337.541701 242.065563 
L 338.200113 249.785679 
L 338.858525 245.989701 
L 339.516937 235.230361 
L 340.17535 243.725541 
L 341.492174 234.253904 
L 342.150587 246.581678 
L 342.808999 245.92257 
L 343.467411 246.490136 
L 344.125824 246.22161 
L 344.784236 249.706342 
L 345.442648 250.426479 
L 346.101061 252.403806 
L 346.759473 257.756013 
L 347.417885 174.751033 
L 348.076297 165.419762 
L 348.73471 166.756288 
L 349.393122 167.628997 
L 350.051534 167.952448 
L 350.709947 169.307283 
L 351.368359 166.359602 
L 352.026771 165.139031 
L 352.685184 169.679557 
L 353.343596 162.417156 
L 354.002008 167.354368 
L 354.660421 167.818186 
L 355.318833 168.666483 
L 355.977245 175.019559 
L 356.635657 172.688267 
L 357.29407 173.170392 
L 357.952482 173.426713 
L 358.610894 171.742324 
L 359.269307 171.937615 
L 359.927719 174.159056 
L 360.586131 173.579284 
L 361.244544 171.565341 
L 361.902956 172.309889 
L 362.561368 166.835625 
L 363.219781 169.703969 
L 363.878193 167.262825 
L 364.536605 170.350872 
L 365.195018 166.139899 
L 365.85343 169.185226 
L 366.511842 171.632472 
L 367.170254 172.334301 
L 367.828667 173.725753 
L 368.487079 169.649043 
L 369.145491 172.273272 
L 369.803904 171.132038 
L 370.462316 172.480769 
L 371.120728 173.030027 
L 371.779141 174.152953 
L 372.437553 173.243627 
L 373.095965 173.20701 
L 373.754378 173.646415 
L 374.41279 171.821661 
L 375.071202 170.479032 
L 375.729614 171.888792 
L 376.388027 172.828632 
L 377.046439 170.979466 
L 377.704851 171.101523 
L 378.363264 158.169566 
L 379.021676 157.13208 
L 379.680088 154.361382 
L 380.338501 155.08152 
L 380.996913 157.85832 
L 381.655325 158.962938 
L 382.313738 156.729291 
L 382.97215 153.091988 
L 383.630562 156.540103 
L 384.288974 158.175669 
L 384.947387 161.257613 
L 385.605799 158.41368 
L 386.264211 157.138183 
L 386.922624 161.373567 
L 387.581036 155.63688 
L 388.239448 156.564514 
L 388.897861 158.956835 
L 390.214685 160.842618 
L 390.873098 159.939395 
L 391.53151 158.145155 
L 392.189922 159.445064 
L 392.848334 153.500879 
L 393.506747 166.933271 
L 394.165159 174.641181 
L 395.481984 165.334322 
L 396.140396 163.21663 
L 396.798808 162.435464 
L 397.457221 159.713589 
L 398.115633 165.108516 
L 398.774045 166.560997 
L 399.432458 164.45551 
L 400.09087 163.222733 
L 400.749282 166.274162 
L 401.407694 164.772859 
L 402.066107 164.894916 
L 402.724519 167.775465 
L 403.382931 171.669089 
L 404.041344 168.74582 
L 405.358168 171.022186 
L 406.016581 172.65165 
L 406.674993 174.598461 
L 407.333405 172.584518 
L 407.991818 173.371787 
L 408.65023 160.848721 
L 409.308642 161.172172 
L 409.967054 159.817338 
L 411.283879 157.754572 
L 411.942291 158.706618 
L 413.259116 163.314276 
L 413.917528 158.639486 
L 414.575941 160.366595 
L 415.234353 158.389269 
L 415.892765 160.873132 
L 416.551178 158.401475 
L 418.526414 160.690047 
L 420.501651 159.707486 
L 421.160064 160.037041 
L 421.818476 159.957704 
L 422.476888 160.488652 
L 423.135301 160.244538 
L 423.793713 158.560149 
L 424.452125 168.068403 
L 425.110538 168.31862 
L 426.427362 167.854803 
L 427.085775 167.781568 
L 427.744187 163.070162 
L 428.402599 164.864402 
L 429.061011 167.458117 
L 429.719424 165.206162 
L 430.377836 163.363099 
L 431.036248 162.96031 
L 431.694661 164.351762 
L 432.353073 162.044881 
L 433.011485 163.186116 
L 433.669898 165.969019 
L 434.32831 162.630756 
L 434.986722 167.171282 
L 435.645135 167.348265 
L 436.303547 171.394461 
L 436.961959 170.149477 
L 437.620371 167.793774 
L 438.278784 166.005637 
L 438.937196 167.842597 
L 439.595608 168.428471 
L 440.254021 150.980399 
L 440.912433 152.481702 
L 441.570845 157.101566 
L 442.229258 154.166091 
L 442.88767 154.385794 
L 443.546082 153.946388 
L 444.204495 157.150389 
L 444.862907 151.438113 
L 445.521319 152.32913 
L 446.179731 153.568011 
L 446.838144 148.429404 
L 447.496556 152.365748 
L 448.154968 148.65521 
L 448.813381 145.683117 
L 449.471793 143.669174 
L 450.130205 145.762455 
L 450.788618 144.212328 
L 451.44703 150.693564 
L 452.105442 148.075438 
L 452.763855 146.897586 
L 453.422267 142.753745 
L 454.080679 148.063232 
L 454.739091 146.018775 
L 455.397504 145.512237 
L 456.055916 148.819987 
L 456.714328 143.364031 
L 457.372741 150.797313 
L 458.031153 140.928991 
L 458.689565 138.02403 
L 459.347978 148.270729 
L 460.00639 147.092878 
L 460.664802 147.092878 
L 461.323215 141.734568 
L 461.981627 143.882774 
L 462.640039 144.895849 
L 463.298451 142.045814 
L 463.956864 141.209722 
L 464.615276 145.799072 
L 465.273688 147.642135 
L 465.932101 143.486088 
L 466.590513 138.512259 
L 467.248925 141.704054 
L 467.907338 141.295162 
L 468.56575 141.954271 
L 469.224162 139.079824 
L 469.882575 141.557585 
L 470.540987 143.229768 
L 471.199399 146.494798 
L 471.857811 147.373609 
L 472.516224 149.875781 
L 473.174636 149.89409 
L 473.833048 147.214935 
L 474.491461 147.098981 
L 475.149873 147.355301 
L 475.808285 150.199233 
L 476.466698 144.694454 
L 477.12511 149.729313 
L 478.441935 143.38234 
L 479.100347 137.743298 
L 479.758759 136.534932 
L 480.417171 144.175711 
L 481.075584 146.445975 
L 481.733996 147.025746 
L 482.392408 146.122523 
L 483.050821 143.785128 
L 483.709233 143.229768 
L 484.367645 142.302134 
L 485.026058 146.378843 
L 486.342882 145.811277 
L 487.001295 156.265474 
L 487.659707 160.769384 
L 488.318119 153.555805 
L 488.976532 154.190502 
L 489.634944 153.256765 
L 490.293356 162.972516 
L 490.951768 161.391875 
L 491.610181 161.874001 
L 492.268593 157.193109 
L 492.927005 157.028332 
L 493.585418 159.481681 
L 494.24383 153.427645 
L 494.902242 156.765909 
L 495.560655 153.989108 
L 496.219067 154.556674 
L 496.877479 161.697018 
L 497.535892 155.996948 
L 498.194304 158.163463 
L 498.852716 155.563645 
L 499.511128 155.130342 
L 500.169541 154.959462 
L 500.827953 152.017885 
L 501.486365 151.084147 
L 502.144778 144.206226 
L 502.80319 139.464304 
L 503.461602 143.98042 
L 504.120015 153.952491 
L 504.778427 144.883643 
L 505.436839 124.878472 
L 506.095252 117.469602 
L 506.753664 120.2403 
L 508.070488 143.357928 
L 508.728901 144.413723 
L 509.387313 136.187069 
L 510.045725 145.04842 
L 510.704138 143.303003 
L 511.36255 133.361446 
L 512.020962 136.211481 
L 512.679375 133.813057 
L 513.337787 128.027547 
L 513.996199 133.251594 
L 514.654612 135.759869 
L 515.313024 129.724142 
L 515.971436 128.326588 
L 516.629848 139.360556 
L 517.288261 140.977813 
L 517.946673 143.5105 
L 518.605085 154.574982 
L 519.263498 137.218453 
L 519.92191 144.901951 
L 520.580322 144.743277 
L 521.238735 145.536649 
L 521.897147 138.768579 
L 522.555559 134.911572 
L 523.213972 143.119917 
L 523.872384 136.65699 
L 524.530796 135.845309 
L 525.189208 139.90371 
L 525.847621 135.753766 
L 526.506033 133.831366 
L 527.164445 137.798224 
L 527.822858 139.98915 
L 528.48127 138.176601 
L 529.139682 140.782522 
L 529.798095 148.368375 
L 530.456507 154.459028 
L 531.114919 150.388421 
L 531.773332 153.281176 
L 532.431744 150.608124 
L 533.090156 136.455595 
L 533.748568 145.194889 
L 534.406981 209.726515 
L 535.065393 149.55233 
L 535.723805 137.114704 
L 536.382218 154.239325 
L 537.04063 153.647348 
L 537.699042 146.690089 
L 538.357455 150.730181 
L 539.015867 157.577589 
L 540.332692 140.11731 
L 540.991104 138.573287 
L 541.649516 146.946409 
L 542.307928 152.390159 
L 542.966341 133.0502 
L 543.624753 140.184442 
L 544.283165 138.396304 
L 544.941578 144.261151 
L 545.59999 133.910703 
L 546.258402 142.99786 
L 546.916815 148.008307 
L 547.575227 145.188786 
L 548.892052 135.326566 
L 549.550464 146.299506 
L 550.208876 149.869678 
L 550.867289 141.313471 
L 551.525701 140.880168 
L 552.184113 146.983026 
L 552.842525 144.822614 
L 553.500938 141.307368 
L 554.15935 166.475557 
L 554.817762 159.640355 
L 555.476175 162.295098 
L 556.134587 151.792079 
L 556.792999 158.877498 
L 557.451412 161.751944 
L 558.109824 171.577546 
L 558.768236 164.638596 
L 559.426649 155.563645 
L 560.085061 156.686571 
L 560.743473 164.315145 
L 561.401885 161.526138 
L 562.060298 160.90975 
L 562.71871 152.036193 
L 563.377122 154.269839 
L 564.035535 154.843508 
L 564.693947 159.933292 
L 565.352359 159.109406 
L 566.010772 148.838295 
L 566.669184 152.50001 
L 567.327596 167.397088 
L 567.986009 167.128562 
L 568.644421 157.138183 
L 569.302833 163.955076 
L 569.961245 157.101566 
L 570.619658 155.789451 
L 571.27807 162.929796 
L 571.936482 165.731008 
L 573.253307 146.439872 
L 573.911719 146.189655 
L 574.570132 154.95336 
L 575.228544 161.013498 
L 575.886956 156.070183 
L 576.545369 154.269839 
L 577.203781 157.083257 
L 577.862193 154.636011 
L 578.520605 147.697061 
L 579.179018 148.74065 
L 579.83743 156.033566 
L 580.495842 151.200102 
L 581.154255 145.04842 
L 581.812667 143.394545 
L 582.471079 150.479964 
L 583.787904 136.48611 
L 584.446316 143.437265 
L 585.104729 146.775529 
L 585.763141 140.111208 
L 586.421553 145.664809 
L 587.079965 142.082431 
L 587.738378 143.229768 
L 588.39679 133.764235 
L 589.055202 134.221949 
L 589.713615 148.61249 
L 590.372027 137.676167 
L 591.030439 142.155665 
L 591.688852 12 
L 592.347264 158.389269 
L 593.664089 162.221864 
L 594.322501 151.248924 
L 594.980913 143.522705 
L 595.639325 137.438155 
L 596.297738 142.119048 
L 596.95615 148.734547 
L 597.614562 151.120764 
L 598.272975 149.949016 
L 598.931387 152.310822 
L 599.589799 143.400648 
L 600.248212 145.500032 
L 600.906624 150.016147 
L 601.565036 144.83482 
L 602.223449 152.554936 
L 602.881861 144.163506 
L 603.540273 146.928101 
L 604.857098 154.800788 
L 605.51551 144.010934 
L 606.173922 143.38234 
L 606.832335 149.350935 
L 607.490747 153.995211 
L 608.149159 153.403234 
L 608.807572 153.195736 
L 609.465984 152.37185 
L 610.124396 154.410205 
L 610.782809 155.880994 
L 610.782809 155.880994 
" style="fill:none;stroke:#e41a1c;stroke-linecap:square;stroke-width:2;"/>
   </g>
   <g id="patch_3">
    <path d="M 81.221789 351.892606 
L 81.221789 12 
" style="fill:none;stroke:#000000;stroke-linecap:square;stroke-linejoin:miter;stroke-width:0.8;"/>
   </g>
   <g id="patch_4">
    <path d="M 636 351.892606 
L 636 12 
" style="fill:none;"/>
   </g>
   <g id="patch_5">
    <path d="M 81.221789 351.892606 
L 636 351.892606 
" style="fill:none;stroke:#000000;stroke-linecap:square;stroke-linejoin:miter;stroke-width:0.8;"/>
   </g>
   <g id="patch_6">
    <path d="M 81.221789 12 
L 636 12 
" style="fill:none;"/>
   </g>
  </g>
 </g>
 <defs>
  <clipPath id="p445733c7e6">
   <rect height="339.892606" width="554.778211" x="81.221789" y="12"/>
  </clipPath>
 </defs>
</svg>
