<?xml version="1.0" encoding="utf-8" standalone="no"?>
<!DOCTYPE svg PUBLIC "-//W3C//DTD SVG 1.1//EN"
  "http://www.w3.org/Graphics/SVG/1.1/DTD/svg11.dtd">
<!-- Created with matplotlib (https://matplotlib.org/) -->
<svg height="288pt" version="1.1" viewBox="0 0 864 288" width="864pt" xmlns="http://www.w3.org/2000/svg" xmlns:xlink="http://www.w3.org/1999/xlink">
 <defs>
  <style type="text/css">
*{stroke-linecap:butt;stroke-linejoin:round;}
  </style>
 </defs>
 <g id="figure_1">
  <g id="patch_1">
   <path d="M 0 288 
L 864 288 
L 864 0 
L 0 0 
z
" style="fill:#ffffff;"/>
  </g>
  <g id="axes_1">
   <g id="patch_2">
    <path d="M 96.625 225.99886 
L 852 225.99886 
L 852 37.980465 
L 96.625 37.980465 
z
" style="fill:#ffffff;"/>
   </g>
   <g id="matplotlib.axis_1">
    <g id="xtick_1">
     <g id="line2d_1">
      <defs>
       <path d="M 0 0 
L 0 3.5 
" id="m88ca38c02a" style="stroke:#000000;stroke-width:0.8;"/>
      </defs>
      <g>
       <use style="stroke:#000000;stroke-width:0.8;" x="292.881522" xlink:href="#m88ca38c02a" y="225.99886"/>
      </g>
     </g>
     <g id="text_1">
      <!-- $5$ -->
      <defs>
       <path d="M 15.40625 51.796875 
C 18.796875 51 21.5 51 23 51 
C 25.40625 51 31.09375 51 37.796875 55.109375 
C 40.90625 56.984375 46.09375 61.5 46.09375 63.796875 
C 46.09375 64.296875 46.09375 65.5 44.90625 65.5 
C 44.796875 65.5 44.59375 65.5 43.59375 64.984375 
C 39 63.34375 34.09375 62.21875 28.5 62.21875 
C 22.796875 62.21875 18 63.3125 13.296875 65 
C 12.59375 65.203125 12.296875 65.40625 12 65.40625 
C 10.796875 65.40625 10.796875 64.40625 10.796875 62.71875 
L 10.796875 33.796875 
C 10.796875 31.90625 10.796875 30.8125 12.796875 30.8125 
C 13.796875 30.8125 14 30.921875 14.796875 31.90625 
C 16 33.3125 19.59375 37.71875 28.09375 37.71875 
C 37.296875 37.71875 37.296875 28.359375 37.296875 20.5 
C 37.296875 13.3125 37.296875 2.96875 25 2.96875 
C 21.296875 2.96875 15 4.359375 11.59375 10 
C 16.90625 10 18.203125 13.984375 18.203125 16.171875 
C 18.203125 19.75 15.59375 22.421875 11.90625 22.421875 
C 8.90625 22.421875 5.59375 20.640625 5.59375 15.96875 
C 5.59375 7.34375 13.5 -1 25.40625 -1 
C 40.796875 -1 50.5 7.859375 50.5 20.203125 
C 50.5 32.34375 42.203125 41 28.5 41 
C 24.5 41 19.703125 40.203125 15.40625 37.015625 
z
" id="CMBX12-53"/>
      </defs>
      <g transform="translate(287.819022 245.49886)scale(0.18 -0.18)">
       <use transform="scale(0.996264)" xlink:href="#CMBX12-53"/>
      </g>
     </g>
    </g>
    <g id="xtick_2">
     <g id="line2d_2">
      <g>
       <use style="stroke:#000000;stroke-width:0.8;" x="489.138045" xlink:href="#m88ca38c02a" y="225.99886"/>
      </g>
     </g>
     <g id="text_2">
      <!-- $10$ -->
      <defs>
       <path d="M 34.59375 62.109375 
C 34.59375 65 34.40625 65 31.203125 65 
C 23.796875 59 12.703125 59 10.5 59 
L 8.59375 59 
L 8.59375 54.734375 
L 10.5 54.734375 
C 14 54.734375 19.296875 55.328125 23.296875 56.625 
L 23.296875 4.171875 
L 9.40625 4.171875 
L 9.40625 0 
C 13.59375 0 24.09375 0 28.796875 0 
C 33.5 0 44.09375 0 48.296875 0 
L 48.296875 4.171875 
L 34.59375 4.171875 
z
" id="CMBX12-49"/>
       <path d="M 51.703125 31.84375 
C 51.703125 41.375 51.703125 65.28125 28.09375 65.28125 
C 4.40625 65.28125 4.40625 41.46875 4.40625 31.84375 
C 4.40625 22.3125 4.40625 -1 28 -1 
C 51.59375 -1 51.703125 22.015625 51.703125 31.84375 
z
M 28.09375 2.28125 
C 24.90625 2.28125 22.5 3.5625 20.5 5.65625 
C 18 8.140625 16.40625 9.703125 16.40625 33.03125 
C 16.40625 39.984375 16.40625 46.3125 17.203125 51.484375 
C 18.59375 61.3125 25.796875 62 28 62 
C 31.203125 62 37.40625 60.515625 38.796875 52.1875 
C 39.703125 47.109375 39.703125 39.078125 39.703125 33.03125 
C 39.703125 9.609375 38.203125 8.234375 35.203125 5.25 
C 33.203125 3.265625 30.5 2.28125 28.09375 2.28125 
z
" id="CMBX12-48"/>
      </defs>
      <g transform="translate(479.013045 245.49886)scale(0.18 -0.18)">
       <use transform="scale(0.996264)" xlink:href="#CMBX12-49"/>
       <use transform="translate(56.039851 0)scale(0.996264)" xlink:href="#CMBX12-48"/>
      </g>
     </g>
    </g>
    <g id="xtick_3">
     <g id="line2d_3">
      <g>
       <use style="stroke:#000000;stroke-width:0.8;" x="685.394567" xlink:href="#m88ca38c02a" y="225.99886"/>
      </g>
     </g>
     <g id="text_3">
      <!-- $15$ -->
      <g transform="translate(675.269567 245.49886)scale(0.18 -0.18)">
       <use transform="scale(0.996264)" xlink:href="#CMBX12-49"/>
       <use transform="translate(56.039851 0)scale(0.996264)" xlink:href="#CMBX12-53"/>
      </g>
     </g>
    </g>
    <g id="text_4">
     <!-- \textbf{Time (minutes)} -->
     <defs>
      <path d="M 72 67.265625 
L 6.09375 67.265625 
L 4.09375 43.703125 
L 8.296875 43.703125 
C 9.203125 54.546875 10 63 24.40625 63 
L 32.5 63 
L 32.5 4.171875 
L 17.40625 4.171875 
L 17.40625 0 
C 25.40625 0 35.703125 0 39.09375 0 
C 45.203125 0 52.796875 0 60.796875 0 
L 60.796875 4.171875 
L 45.703125 4.171875 
L 45.703125 63 
L 53.703125 63 
C 68.09375 63 68.90625 54.640625 69.796875 43.703125 
L 74 43.703125 
z
" id="CMBX12-84"/>
      <path d="M 22.296875 61.84375 
C 22.296875 65.921875 19 69 15.09375 69 
C 11 69 7.90625 65.625 7.90625 61.84375 
C 7.90625 58.0625 11 54.6875 15.09375 54.6875 
C 19 54.6875 22.296875 57.765625 22.296875 61.84375 
z
M 4.703125 44 
L 4.703125 39.328125 
C 10.59375 39.328125 11.296875 39.328125 11.296875 35.46875 
L 11.296875 4.0625 
L 4.40625 4.0625 
L 4.40625 -0.203125 
C 6.703125 0 13.59375 0 16.296875 0 
C 19.09375 0 25.5 0 27.90625 -0.203125 
L 27.90625 4.0625 
L 21.703125 4.0625 
L 21.703125 44 
z
" id="CMBX12-105"/>
      <path d="M 84.40625 30.0625 
C 84.40625 39.15625 80.5 44.28125 69.296875 44.28125 
C 59.203125 44.28125 54.5 37.609375 52.90625 34.46875 
C 51.296875 42.8125 44.5 44.28125 38.09375 44.28125 
C 28.5 44.28125 23.296875 38.203125 21.203125 33.484375 
L 21.09375 33.484375 
L 21.09375 44 
L 4.203125 44 
L 4.203125 39.328125 
C 10.40625 39.328125 11.09375 39.328125 11.09375 35.46875 
L 11.09375 4.0625 
L 4.203125 4.0625 
L 4.203125 -0.203125 
C 6.5 0 13.703125 0 16.5 0 
C 19.296875 0 26.59375 0 28.90625 -0.203125 
L 28.90625 4.0625 
L 22 4.0625 
L 22 25.109375 
C 22 35.875 30.09375 41 36.40625 41 
C 40.09375 41 42.296875 38.828125 42.296875 31.140625 
L 42.296875 4.0625 
L 35.40625 4.0625 
L 35.40625 -0.203125 
C 37.703125 0 44.90625 0 47.703125 0 
C 50.5 0 57.796875 0 60.09375 -0.203125 
L 60.09375 4.0625 
L 53.203125 4.0625 
L 53.203125 25.109375 
C 53.203125 35.875 61.296875 41 67.59375 41 
C 71.296875 41 73.5 38.828125 73.5 31.140625 
L 73.5 4.0625 
L 66.59375 4.0625 
L 66.59375 -0.203125 
C 68.90625 0 76.09375 0 78.90625 0 
C 81.703125 0 89 0 91.296875 -0.203125 
L 91.296875 4.0625 
L 84.40625 4.0625 
z
" id="CMBX12-109"/>
      <path d="M 45.203125 22 
C 47.5 22 48.09375 22 48.09375 24.484375 
C 48.09375 27.46875 47.40625 34.890625 42.796875 39.5625 
C 38.59375 43.71875 33 45 27.203125 45 
C 11.59375 45 3.09375 34.890625 3.09375 22.40625 
C 3.09375 8.515625 13.40625 -0.5 28.5 -0.5 
C 43.59375 -0.5 48.09375 10 48.09375 11.6875 
C 48.09375 13.171875 46.59375 13.171875 46 13.171875 
C 44.40625 13.171875 44.296875 12.875 43.703125 11.59375 
C 41.09375 5.15625 34.5 3.078125 29.703125 3.078125 
C 15.203125 3.078125 15.09375 16.453125 15.09375 22 
z
M 15.09375 24.890625 
C 15.296875 28.9375 15.40625 32.8125 17.5 36.375 
C 19.40625 39.546875 22.90625 41.71875 27.203125 41.71875 
C 37.90625 41.71875 38.796875 29.828125 38.90625 24.890625 
z
" id="CMBX12-101"/>
      <path d="M 37.40625 -23.8125 
C 37.40625 -23.40625 37.40625 -23.203125 35.5 -21.421875 
C 24.296875 -10.296875 20 7.203125 20 24.6875 
C 20 44.28125 24.90625 60.390625 36.09375 71.609375 
C 37.296875 72.796875 37.40625 72.90625 37.40625 73.296875 
C 37.40625 74.5 36.203125 74.5 35.703125 74.5 
C 34.796875 74.5 34.59375 74.5 32 72.40625 
C 17.59375 60.984375 10.796875 42.6875 10.796875 24.8125 
C 10.796875 6.515625 17.703125 -11.28125 31.90625 -22.8125 
C 34.5 -25 34.703125 -25 35.703125 -25 
C 36.203125 -25 37.40625 -25 37.40625 -23.8125 
z
" id="CMBX12-40"/>
      <path d="M 53.09375 30.0625 
C 53.09375 39.453125 49 44.28125 38 44.28125 
C 30.796875 44.28125 24.59375 40.859375 21.203125 33.484375 
L 21.09375 33.484375 
L 21.09375 44 
L 4.203125 44 
L 4.203125 39.328125 
C 10.40625 39.328125 11.09375 39.328125 11.09375 35.46875 
L 11.09375 4.0625 
L 4.203125 4.0625 
L 4.203125 -0.203125 
C 6.5 0 13.703125 0 16.5 0 
C 19.296875 0 26.59375 0 28.90625 -0.203125 
L 28.90625 4.0625 
L 22 4.0625 
L 22 25.109375 
C 22 35.765625 30 41 36.40625 41 
C 40.09375 41 42.203125 38.640625 42.203125 31.140625 
L 42.203125 4.0625 
L 35.296875 4.0625 
L 35.296875 -0.203125 
C 37.59375 0 44.796875 0 47.59375 0 
C 50.40625 0 57.703125 0 60 -0.203125 
L 60 4.0625 
L 53.09375 4.0625 
z
" id="CMBX12-110"/>
      <path d="M 35.296875 44.671875 
L 35.296875 40 
C 41.5 40 42.203125 40 42.203125 36.125 
L 42.203125 16.5 
C 42.203125 8.890625 37.703125 2.78125 29.90625 2.78125 
C 22.40625 2.78125 22 5.265625 22 10.6875 
L 22 44.671875 
L 4.203125 44.671875 
L 4.203125 40 
C 10.40625 40 11.09375 40 11.09375 36.125 
L 11.09375 12.40625 
C 11.09375 2.390625 17.796875 -0.5 28.5 -0.5 
C 30.90625 -0.5 38.296875 -0.5 42.59375 7.75 
L 42.703125 7.75 
L 42.703125 0 
L 60 0 
L 60 4.5625 
C 53.796875 4.5625 53.09375 4.5625 53.09375 8.4375 
L 53.09375 44.671875 
z
" id="CMBX12-117"/>
      <path d="M 21.09375 40 
L 35.5 40 
L 35.5 44.265625 
L 21.09375 44.265625 
L 21.09375 63 
L 16.90625 63 
C 16.796875 53.203125 12 43.375 2.09375 43.375 
L 2.09375 40 
L 10.203125 40 
L 10.203125 12.328125 
C 10.203125 1.78125 18.40625 -0.5 25.59375 -0.5 
C 33 -0.5 37.40625 5.078125 37.40625 12.421875 
L 37.40625 17.703125 
L 33.203125 17.703125 
L 33.203125 12.53125 
C 33.203125 5.953125 30.203125 3.078125 27.09375 3.078125 
C 21.09375 3.078125 21.09375 9.75 21.09375 12.03125 
z
" id="CMBX12-116"/>
      <path d="M 37.703125 42.421875 
C 37.703125 44.3125 37.703125 45 36.203125 45 
C 35.59375 45 35.40625 45 33.90625 44.109375 
C 33.5 43.8125 32.40625 43.109375 31.90625 42.8125 
C 29.09375 44.40625 25.40625 45 21.796875 45 
C 18.796875 45 3.796875 45 3.796875 32.125 
C 3.796875 21.703125 16.203125 19.53125 19.296875 19.03125 
C 22 18.546875 25.296875 17.9375 25.703125 17.9375 
C 29.703125 17.046875 33.703125 14.5625 33.703125 10.40625 
C 33.703125 2.78125 24.59375 2.78125 22.5 2.78125 
C 17.40625 2.78125 11.09375 4.359375 8.296875 14 
C 7.703125 15.984375 7.59375 15.984375 5.90625 15.984375 
C 3.796875 15.984375 3.796875 15.6875 3.796875 13.40625 
L 3.796875 2.0625 
C 3.796875 0.1875 3.796875 -0.5 5.296875 -0.5 
C 6 -0.5 6.203125 -0.5 8.203125 1.09375 
L 10.796875 2.984375 
C 15.296875 -0.5 20.703125 -0.5 22.5 -0.5 
C 28 -0.5 40.5 0.6875 40.5 13.875 
C 40.5 18.625 37.90625 21.90625 35.90625 23.6875 
C 31.796875 27.046875 28.40625 27.65625 23 28.640625 
C 16.59375 29.734375 10.59375 30.828125 10.59375 35.578125 
C 10.59375 42.015625 19.5 42.015625 21.59375 42.015625 
C 32.703125 42.015625 33.296875 35.078125 33.5 32.609375 
C 33.59375 31.328125 34.40625 31.328125 35.59375 31.328125 
C 37.703125 31.328125 37.703125 31.625 37.703125 33.90625 
z
" id="CMBX12-115"/>
      <path d="M 32.796875 24.703125 
C 32.796875 42.984375 25.90625 60.78125 11.703125 72.3125 
C 9.09375 74.5 8.90625 74.5 7.90625 74.5 
C 7.40625 74.5 6.203125 74.5 6.203125 73.3125 
C 6.203125 72.921875 6.203125 72.71875 8.09375 70.9375 
C 19.296875 59.796875 23.59375 42.3125 23.59375 24.8125 
C 23.59375 5.21875 18.703125 -10.875 7.5 -22.109375 
C 6.296875 -23.3125 6.203125 -23.40625 6.203125 -23.8125 
C 6.203125 -25 7.40625 -25 7.90625 -25 
C 8.796875 -25 9 -25 11.59375 -22.90625 
C 26 -11.484375 32.796875 6.8125 32.796875 24.703125 
z
" id="CMBX12-41"/>
     </defs>
     <g transform="translate(390.0632 270.5)scale(0.22 -0.22)">
      <use transform="translate(0 -0.0934)scale(0.996264)" xlink:href="#CMBX12-84"/>
      <use transform="translate(77.94837 -0.0934)scale(0.996264)" xlink:href="#CMBX12-105"/>
      <use transform="translate(109.081621 -0.0934)scale(0.996264)" xlink:href="#CMBX12-109"/>
      <use transform="translate(202.481372 -0.0934)scale(0.996264)" xlink:href="#CMBX12-101"/>
      <use transform="translate(290.980539 -0.0934)scale(0.996264)" xlink:href="#CMBX12-40"/>
      <use transform="translate(334.56709 -0.0934)scale(0.996264)" xlink:href="#CMBX12-109"/>
      <use transform="translate(427.966841 -0.0934)scale(0.996264)" xlink:href="#CMBX12-105"/>
      <use transform="translate(459.100091 -0.0934)scale(0.996264)" xlink:href="#CMBX12-110"/>
      <use transform="translate(518.253267 -0.0934)scale(0.996264)" xlink:href="#CMBX12-117"/>
      <use transform="translate(580.519767 -0.0934)scale(0.996264)" xlink:href="#CMBX12-116"/>
      <use transform="translate(624.106318 -0.0934)scale(0.996264)" xlink:href="#CMBX12-101"/>
      <use transform="translate(675.245585 -0.0934)scale(0.996264)" xlink:href="#CMBX12-115"/>
      <use transform="translate(719.454922 -0.0934)scale(0.996264)" xlink:href="#CMBX12-41"/>
     </g>
    </g>
   </g>
   <g id="matplotlib.axis_2">
    <g id="ytick_1">
     <g id="line2d_4">
      <defs>
       <path d="M 0 0 
L -3.5 0 
" id="m41b4d1c1e5" style="stroke:#000000;stroke-width:0.8;"/>
      </defs>
      <g>
       <use style="stroke:#000000;stroke-width:0.8;" x="96.625" xlink:href="#m41b4d1c1e5" y="225.99886"/>
      </g>
     </g>
     <g id="text_5">
      <!-- $0$ -->
      <g transform="translate(79.5 232.24886)scale(0.18 -0.18)">
       <use transform="scale(0.996264)" xlink:href="#CMBX12-48"/>
      </g>
     </g>
    </g>
    <g id="ytick_2">
     <g id="line2d_5">
      <g>
       <use style="stroke:#000000;stroke-width:0.8;" x="96.625" xlink:href="#m41b4d1c1e5" y="191.600569"/>
      </g>
     </g>
     <g id="text_6">
      <!-- $2000$ -->
      <defs>
       <path d="M 50.5 21.375 
L 46.296875 21.375 
C 46 19.28125 45.296875 13.40625 43.796875 12.421875 
C 43 11.71875 35.203125 11.71875 33.703125 11.71875 
L 18.203125 11.71875 
C 22 14.90625 31.09375 22.46875 32.59375 23.578125 
C 43.703125 31.84375 50.5 36.90625 50.5 46.46875 
C 50.5 58.203125 39.796875 65.28125 26.59375 65.28125 
C 15.296875 65.28125 5.59375 58.90625 5.59375 49.453125 
C 5.59375 44.171875 9.90625 42.6875 12.203125 42.6875 
C 15.296875 42.6875 18.90625 44.765625 18.90625 49.359375 
C 18.90625 53.546875 15.796875 55.625 12.703125 56.03125 
C 16.703125 60.609375 22 61 24.09375 61 
C 33.296875 61 37.703125 53.546875 37.703125 46.375 
C 37.703125 38.609375 32.40625 31.453125 28.296875 27.171875 
L 6.59375 4.578125 
C 5.59375 3.671875 5.59375 3.484375 5.59375 1.6875 
L 5.59375 0 
L 47.59375 0 
z
" id="CMBX12-50"/>
      </defs>
      <g transform="translate(49.125 197.850569)scale(0.18 -0.18)">
       <use transform="scale(0.996264)" xlink:href="#CMBX12-50"/>
       <use transform="translate(56.039851 0)scale(0.996264)" xlink:href="#CMBX12-48"/>
       <use transform="translate(112.079701 0)scale(0.996264)" xlink:href="#CMBX12-48"/>
       <use transform="translate(168.119552 0)scale(0.996264)" xlink:href="#CMBX12-48"/>
      </g>
     </g>
    </g>
    <g id="ytick_3">
     <g id="line2d_6">
      <g>
       <use style="stroke:#000000;stroke-width:0.8;" x="96.625" xlink:href="#m41b4d1c1e5" y="157.202278"/>
      </g>
     </g>
     <g id="text_7">
      <!-- $4000$ -->
      <defs>
       <path d="M 43.296875 15.71875 
L 53 15.71875 
L 53 20 
L 43.296875 20 
L 43.296875 62.609375 
C 43.296875 65.09375 43.203125 65.5 40.703125 65.5 
C 38.90625 65.5 38.703125 65.5 37.5 64 
L 3.09375 20 
L 3.09375 15.71875 
L 31.5 15.71875 
L 31.5 4.171875 
L 20.59375 4.171875 
L 20.59375 0 
C 23.5 0 33.40625 0 37 0 
C 40.40625 0 50.296875 0 53 -0.09375 
L 53 4.171875 
L 43.296875 4.171875 
z
M 32.40625 51.59375 
L 32.40625 20 
L 7.703125 20 
z
" id="CMBX12-52"/>
      </defs>
      <g transform="translate(49.125 163.452278)scale(0.18 -0.18)">
       <use transform="scale(0.996264)" xlink:href="#CMBX12-52"/>
       <use transform="translate(56.039851 0)scale(0.996264)" xlink:href="#CMBX12-48"/>
       <use transform="translate(112.079701 0)scale(0.996264)" xlink:href="#CMBX12-48"/>
       <use transform="translate(168.119552 0)scale(0.996264)" xlink:href="#CMBX12-48"/>
      </g>
     </g>
    </g>
    <g id="ytick_4">
     <g id="line2d_7">
      <g>
       <use style="stroke:#000000;stroke-width:0.8;" x="96.625" xlink:href="#m41b4d1c1e5" y="122.803988"/>
      </g>
     </g>
     <g id="text_8">
      <!-- $6000$ -->
      <defs>
       <path d="M 17.40625 36.25 
C 17.40625 42.328125 17.703125 48.53125 20.5 53.90625 
C 22.703125 58.109375 27.796875 62 34.296875 62 
C 36.203125 62 39.796875 61.703125 42.203125 59.203125 
C 38.40625 58.8125 36.796875 56.015625 36.796875 53.3125 
C 36.796875 49.703125 39.5 47.40625 42.703125 47.40625 
C 45.296875 47.40625 48.59375 49.109375 48.59375 53.5 
C 48.59375 59.484375 44.59375 65.578125 34.09375 65.578125 
C 21.59375 65.578125 4.703125 57.796875 4.703125 31.796875 
C 4.703125 25.109375 4.703125 -1 28.40625 -1 
C 41.59375 -1 51.40625 6.765625 51.40625 20.703125 
C 51.40625 34.640625 41.703125 42 29.796875 42 
C 27.796875 42 21.40625 42 17.40625 33.546875 
z
M 28.296875 2.96875 
C 21.90625 2.96875 19.40625 8.34375 19 9.140625 
C 17.59375 12.4375 17.59375 20.40625 17.59375 21.296875 
C 17.59375 33.546875 22.90625 38.734375 28.796875 38.734375 
C 38.703125 38.734375 38.703125 30.765625 38.703125 20.796875 
C 38.703125 10.9375 38.703125 2.96875 28.296875 2.96875 
z
" id="CMBX12-54"/>
      </defs>
      <g transform="translate(49.125 129.053988)scale(0.18 -0.18)">
       <use transform="scale(0.996264)" xlink:href="#CMBX12-54"/>
       <use transform="translate(56.039851 0)scale(0.996264)" xlink:href="#CMBX12-48"/>
       <use transform="translate(112.079701 0)scale(0.996264)" xlink:href="#CMBX12-48"/>
       <use transform="translate(168.119552 0)scale(0.996264)" xlink:href="#CMBX12-48"/>
      </g>
     </g>
    </g>
    <g id="ytick_5">
     <g id="line2d_8">
      <g>
       <use style="stroke:#000000;stroke-width:0.8;" x="96.625" xlink:href="#m41b4d1c1e5" y="88.405697"/>
      </g>
     </g>
     <g id="text_9">
      <!-- $8000$ -->
      <defs>
       <path d="M 37.703125 36.921875 
C 42.703125 39.515625 48.296875 43.203125 48.296875 51 
C 48.296875 61.28125 39.09375 65.671875 28.203125 65.671875 
C 14.90625 65.671875 7.796875 58.09375 7.796875 48.40625 
C 7.796875 43.03125 10.5 37.03125 17.90625 33.140625 
C 6.59375 28.140625 4.703125 21.265625 4.703125 16.078125 
C 4.703125 4.59375 14.703125 -1 27.90625 -1 
C 42.703125 -1 51.40625 6.96875 51.40625 18.5625 
C 51.40625 29.4375 42.796875 34.140625 37.703125 36.921875 
z
M 19.703125 47.265625 
C 17.703125 48.375 14.90625 50.671875 14.90625 53.984375 
C 14.90625 62 25.59375 62 27.90625 62 
C 36.40625 62 41.203125 57.53125 41.203125 50.96875 
C 41.203125 46.890625 39.40625 42.609375 33.703125 39.328125 
z
M 22 30.59375 
L 35.796875 22.734375 
C 39.09375 20.84375 43.40625 18.46875 43.40625 13.40625 
C 43.40625 5.453125 35.40625 2.96875 28.203125 2.96875 
C 18.296875 2.96875 12.703125 8.234375 12.703125 16.078125 
C 12.703125 23.328125 17.203125 27.90625 22 30.59375 
z
" id="CMBX12-56"/>
      </defs>
      <g transform="translate(49.125 94.655697)scale(0.18 -0.18)">
       <use transform="scale(0.996264)" xlink:href="#CMBX12-56"/>
       <use transform="translate(56.039851 0)scale(0.996264)" xlink:href="#CMBX12-48"/>
       <use transform="translate(112.079701 0)scale(0.996264)" xlink:href="#CMBX12-48"/>
       <use transform="translate(168.119552 0)scale(0.996264)" xlink:href="#CMBX12-48"/>
      </g>
     </g>
    </g>
    <g id="ytick_6">
     <g id="line2d_9">
      <g>
       <use style="stroke:#000000;stroke-width:0.8;" x="96.625" xlink:href="#m41b4d1c1e5" y="54.007406"/>
      </g>
     </g>
     <g id="text_10">
      <!-- $10000$ -->
      <g transform="translate(39 60.257406)scale(0.18 -0.18)">
       <use transform="scale(0.996264)" xlink:href="#CMBX12-49"/>
       <use transform="translate(56.039851 0)scale(0.996264)" xlink:href="#CMBX12-48"/>
       <use transform="translate(112.079701 0)scale(0.996264)" xlink:href="#CMBX12-48"/>
       <use transform="translate(168.119552 0)scale(0.996264)" xlink:href="#CMBX12-48"/>
       <use transform="translate(224.159402 0)scale(0.996264)" xlink:href="#CMBX12-48"/>
      </g>
     </g>
    </g>
    <g id="text_11">
     <!-- \textbf{Spindle Speed (RPM)} -->
     <defs>
      <path d="M 25.40625 43.46875 
C 15.5 45.625 15.203125 52.75 15.203125 54.140625 
C 15.203125 59.171875 18.5 65.03125 28.203125 65.03125 
C 37.90625 65.03125 46.59375 60.359375 48.703125 47.34375 
C 49 45.25 49 45.25 50.90625 45.25 
C 53 45.25 53 45.546875 53 47.8125 
L 53 66.4375 
C 53 68.3125 53 69.015625 51.5 69.015625 
C 50.796875 69.015625 50.5 68.921875 49.59375 67.921875 
L 45.296875 63.046875 
C 42.796875 65.140625 37.796875 69 28.09375 69 
C 13.796875 69 6.203125 60.09375 6.203125 49.3125 
C 6.203125 42.6875 9.796875 38.03125 11.203125 36.640625 
C 16.40625 31.5 19.203125 30.90625 29.59375 28.625 
C 39.59375 26.453125 40.796875 26.25 43 24.1875 
C 44.296875 22.890625 47.203125 20.125 47.203125 15.078125 
C 47.203125 10.8125 45.09375 3 33.90625 3 
C 25.09375 3 11.203125 5.96875 10.40625 20.421875 
C 10.296875 22.203125 10.296875 22.5 8.296875 22.5 
C 6.203125 22.5 6.203125 22.203125 6.203125 19.921875 
L 6.203125 1.296875 
C 6.203125 -0.59375 6.203125 -1.28125 7.703125 -1.28125 
C 8.40625 -1.28125 8.5 -1.1875 9.5 -0.296875 
C 10.59375 0.796875 11.5 2.09375 14 4.578125 
C 19.796875 0.015625 28 -1.265625 34 -1.265625 
C 49.59375 -1.265625 56.203125 9.21875 56.203125 19.71875 
C 56.203125 29 50 37.90625 39.09375 40.375 
z
" id="CMBX12-83"/>
      <path d="M 28.203125 -14.921875 
L 21.296875 -14.921875 
L 21.296875 4.1875 
C 23.796875 2 28.203125 -0.5 34.203125 -0.5 
C 47.90625 -0.5 58.59375 7.703125 58.59375 22.140625 
C 58.59375 35.78125 49.296875 44.578125 35.796875 44.578125 
C 29.90625 44.578125 24.796875 42.78125 20.796875 39.90625 
L 20.796875 44.671875 
L 3.5 44.671875 
L 3.5 40 
C 9.703125 40 10.40625 40 10.40625 36.09375 
L 10.40625 -14.921875 
L 3.5 -14.921875 
L 3.5 -19.1875 
C 5.796875 -19 13 -19 15.796875 -19 
C 18.59375 -19 25.90625 -19 28.203125 -19.1875 
z
M 21.296875 35.09375 
C 25 39.53125 30.296875 41 34.203125 41 
C 40.703125 41 46.59375 35.171875 46.59375 22.140625 
C 46.59375 7.8125 39.40625 2.78125 33 2.78125 
C 28.703125 2.78125 24.40625 4.984375 21.296875 9.6875 
z
" id="CMBX12-112"/>
      <path d="M 34.703125 69 
L 34.703125 64.328125 
C 40.90625 64.328125 41.59375 64.328125 41.59375 60.421875 
L 41.59375 40.234375 
C 39.40625 42.125 35 45 28.09375 45 
C 13.90625 45 3.796875 36.21875 3.796875 22.25 
C 3.796875 7.96875 13.703125 -0.5 27 -0.5 
C 32.5 -0.5 37.203125 1.46875 41.09375 4.859375 
L 41.09375 0 
L 58.90625 0 
L 58.90625 4.5625 
C 52.703125 4.5625 52 4.5625 52 8.4375 
L 52 69 
z
M 41.09375 10.328125 
C 36.90625 4.09375 31.796875 2.78125 28.203125 2.78125 
C 15.796875 2.78125 15.796875 15.453125 15.796875 22.046875 
C 15.796875 26.75 15.796875 31.75 18 35.53125 
C 21.09375 41.125 27 41.71875 29.296875 41.71875 
C 33.40625 41.71875 37.796875 39.9375 41.09375 35.5625 
z
" id="CMBX12-100"/>
      <path d="M 21.703125 69 
L 4.40625 69 
L 4.40625 64.328125 
C 10.59375 64.328125 11.296875 64.328125 11.296875 60.40625 
L 11.296875 4.0625 
L 4.40625 4.0625 
L 4.40625 -0.203125 
C 6.703125 0 13.796875 0 16.5 0 
C 19.203125 0 26.296875 0 28.59375 -0.203125 
L 28.59375 4.0625 
L 21.703125 4.0625 
z
" id="CMBX12-108"/>
      <path d="M 52.90625 33.65625 
C 66.40625 37.234375 69.703125 44.359375 69.703125 49.734375 
C 69.703125 59.671875 59.203125 68 40.703125 68 
L 3.796875 68 
L 3.796875 63.71875 
L 14.40625 63.71875 
L 14.40625 4.171875 
L 3.796875 4.171875 
L 3.796875 0 
C 6.703125 0 17.09375 0 20.703125 0 
C 24.296875 0 34.796875 0 37.703125 0 
L 37.703125 4.171875 
L 27.09375 4.171875 
L 27.09375 32.71875 
L 39 32.71875 
C 43 32.71875 46.203125 31.515625 48.40625 28.890625 
C 51.40625 25.46875 51.40625 23.25 51.40625 16.515625 
C 51.40625 9.78125 51.40625 5.671875 56.5 2.25 
C 61.703125 -1.28125 69.90625 -1.28125 72.09375 -1.28125 
C 82.296875 -1.28125 83.5 7.71875 83.5 9.109375 
C 83.5 10.8125 82.703125 11.109375 81.40625 11.109375 
C 79.5 11.109375 79.40625 10.421875 79.296875 9.109375 
C 78.796875 4.09375 75.703125 2 72.90625 2 
C 66.5 2 65.796875 8.65625 65 17.765625 
C 64.40625 23.03125 63.703125 30.375 52.90625 33.65625 
z
M 38.796875 36 
L 27.09375 36 
L 27.09375 63.71875 
L 39 63.71875 
C 55.296875 63.71875 55.59375 55.6875 55.59375 49.90625 
C 55.59375 44.515625 55.5 36 38.796875 36 
z
" id="CMBX12-82"/>
      <path d="M 27.59375 30.21875 
L 44.59375 30.21875 
C 61.296875 30.21875 70.59375 38.65625 70.59375 48.875 
C 70.59375 59.5625 61.09375 68 44.59375 68 
L 3.796875 68 
L 3.796875 63.71875 
L 14.40625 63.71875 
L 14.40625 4.171875 
L 3.796875 4.171875 
L 3.796875 0 
C 6.703125 0 17.40625 0 21 0 
C 24.59375 0 35.296875 0 38.203125 0 
L 38.203125 4.171875 
L 27.59375 4.171875 
z
M 41 63.71875 
C 56.5 63.71875 56.5 55.59375 56.5 48.859375 
C 56.5 42.328125 56.5 34 41 34 
L 27.09375 34 
L 27.09375 63.71875 
z
" id="CMBX12-80"/>
      <path d="M 53.296875 12.453125 
L 29.296875 65.90625 
C 28.40625 68 27.5 68 25.40625 68 
L 4.09375 68 
L 4.09375 63.71875 
L 14.703125 63.71875 
L 14.703125 6.9375 
C 14.703125 4.75 14.59375 4.65625 12 4.25 
C 10.203125 4.0625 8.203125 4.0625 6.40625 4.0625 
L 4.09375 4.0625 
L 4.09375 -0.203125 
C 6.40625 0 14.203125 0 17 0 
C 19.796875 0 27.703125 0 30 -0.203125 
L 30 4.0625 
L 27.703125 4.0625 
C 25 4.0625 24.796875 4.0625 22.40625 4.359375 
C 19.5 4.765625 19.40625 4.859375 19.40625 7.046875 
L 19.40625 62.53125 
L 19.5 62.53125 
L 46.703125 2.09375 
C 47.203125 1 47.796875 0 49.5 0 
C 51.203125 0 51.796875 1 52.296875 2.09375 
L 80 63.71875 
L 80.09375 63.71875 
L 80.09375 4.0625 
L 69.5 4.0625 
L 69.5 -0.203125 
C 72.203125 0 82.59375 0 86 0 
C 89.40625 0 99.796875 0 102.5 -0.203125 
L 102.5 4.0625 
L 91.90625 4.0625 
L 91.90625 63.71875 
L 102.5 63.71875 
L 102.5 68 
L 81.203125 68 
C 79.09375 68 78.203125 68 77.296875 65.90625 
z
" id="CMBX12-77"/>
     </defs>
     <g transform="translate(28.5 251.570128)rotate(-90)scale(0.22 -0.22)">
      <use transform="translate(0 -0.0934)scale(0.996264)" xlink:href="#CMBX12-83"/>
      <use transform="translate(62.266501 -0.0934)scale(0.996264)" xlink:href="#CMBX12-112"/>
      <use transform="translate(124.533001 -0.0934)scale(0.996264)" xlink:href="#CMBX12-105"/>
      <use transform="translate(155.666252 -0.0934)scale(0.996264)" xlink:href="#CMBX12-110"/>
      <use transform="translate(217.932752 -0.0934)scale(0.996264)" xlink:href="#CMBX12-100"/>
      <use transform="translate(280.199253 -0.0934)scale(0.996264)" xlink:href="#CMBX12-108"/>
      <use transform="translate(311.332503 -0.0934)scale(0.996264)" xlink:href="#CMBX12-101"/>
      <use transform="translate(399.831671 -0.0934)scale(0.996264)" xlink:href="#CMBX12-83"/>
      <use transform="translate(462.098171 -0.0934)scale(0.996264)" xlink:href="#CMBX12-112"/>
      <use transform="translate(527.477997 -0.0934)scale(0.996264)" xlink:href="#CMBX12-101"/>
      <use transform="translate(578.617264 -0.0934)scale(0.996264)" xlink:href="#CMBX12-101"/>
      <use transform="translate(629.756531 -0.0934)scale(0.996264)" xlink:href="#CMBX12-100"/>
      <use transform="translate(729.382932 -0.0934)scale(0.996264)" xlink:href="#CMBX12-40"/>
      <use transform="translate(772.969483 -0.0934)scale(0.996264)" xlink:href="#CMBX12-82"/>
      <use transform="translate(856.568158 -0.0934)scale(0.996264)" xlink:href="#CMBX12-80"/>
      <use transform="translate(933.132969 -0.0934)scale(0.996264)" xlink:href="#CMBX12-77"/>
      <use transform="translate(1039.447394 -0.0934)scale(0.996264)" xlink:href="#CMBX12-41"/>
     </g>
    </g>
   </g>
   <g id="line2d_10">
    <path clip-path="url(#p318ada672e)" d="M 96.625 208.798747 
L 107.630412 208.798829 
L 142.471832 208.798829 
L 151.512062 208.801371 
L 159.105881 208.799157 
L 159.236718 191.601012 
L 237.600639 191.598716 
L 237.734748 174.401473 
L 263.035485 174.402539 
L 271.034901 174.403277 
L 275.231519 174.402703 
L 278.379474 174.399751 
L 282.180963 174.401391 
L 316.014279 174.401965 
L 316.145771 174.348083 
L 316.276608 157.20013 
L 328.756561 157.199556 
L 332.686924 157.204968 
L 339.762626 157.199638 
L 343.566732 157.204312 
L 394.57969 157.20341 
L 394.841365 140.003543 
L 399.953848 140.001411 
L 457.918211 140.001493 
L 461.458025 140.004937 
L 473.128092 140.002149 
L 473.258275 124.177211 
L 473.389767 122.789242 
L 474.707303 122.805562 
L 478.3773 122.801708 
L 488.350402 122.804496 
L 498.313037 122.802774 
L 502.375547 122.806382 
L 509.219666 122.805316 
L 518.927168 122.805808 
L 528.899616 122.803922 
L 551.609113 122.80384 
L 551.73995 117.846712 
L 551.871442 105.705011 
L 552.133118 105.601594 
L 568.930713 105.606433 
L 588.092546 105.604219 
L 598.32209 105.60102 
L 600.817819 105.606187 
L 604.748837 105.603481 
L 608.815926 105.607089 
L 612.619378 105.604137 
L 616.68385 105.603235 
L 619.052012 105.605941 
L 621.670729 105.603727 
L 626.524152 105.606433 
L 629.41174 105.602743 
L 630.198074 105.603645 
L 630.329566 89.330922 
L 630.460404 88.395904 
L 631.645139 88.401071 
L 637.288168 88.409354 
L 639.254005 88.402876 
L 656.320472 88.400497 
L 658.285 88.407222 
L 665.102951 88.403532 
L 668.510619 88.408124 
L 671.396244 88.400415 
L 673.10433 88.408124 
L 675.723046 88.404024 
L 693.028946 88.406976 
L 708.628069 88.404844 
L 708.758906 86.662829 
L 708.889744 70.453337 
L 709.020582 71.203582 
L 787.180396 71.204321 
L 787.311233 65.697138 
L 787.442071 53.509758 
L 787.573563 54.009456 
L 795.175232 54.01003 
L 852 54.00921 
L 852 54.00921 
" style="fill:none;stroke:#e41a1c;stroke-linecap:square;stroke-width:2;"/>
   </g>
   <g id="patch_3">
    <path d="M 96.625 225.99886 
L 96.625 37.980465 
" style="fill:none;stroke:#000000;stroke-linecap:square;stroke-linejoin:miter;stroke-width:0.8;"/>
   </g>
   <g id="patch_4">
    <path d="M 852 225.99886 
L 852 37.980465 
" style="fill:none;"/>
   </g>
   <g id="patch_5">
    <path d="M 96.625 225.99886 
L 852 225.99886 
" style="fill:none;stroke:#000000;stroke-linecap:square;stroke-linejoin:miter;stroke-width:0.8;"/>
   </g>
   <g id="patch_6">
    <path d="M 96.625 37.980465 
L 852 37.980465 
" style="fill:none;"/>
   </g>
  </g>
 </g>
 <defs>
  <clipPath id="p318ada672e">
   <rect height="188.018395" width="755.375" x="96.625" y="37.980465"/>
  </clipPath>
 </defs>
</svg>
