<?xml version="1.0" encoding="utf-8" standalone="no"?>
<!DOCTYPE svg PUBLIC "-//W3C//DTD SVG 1.1//EN"
  "http://www.w3.org/Graphics/SVG/1.1/DTD/svg11.dtd">
<!-- Created with matplotlib (https://matplotlib.org/) -->
<svg height="288pt" version="1.1" viewBox="0 0 864 288" width="864pt" xmlns="http://www.w3.org/2000/svg" xmlns:xlink="http://www.w3.org/1999/xlink">
 <defs>
  <style type="text/css">
*{stroke-linecap:butt;stroke-linejoin:round;}
  </style>
 </defs>
 <g id="figure_1">
  <g id="patch_1">
   <path d="M 0 288 
L 864 288 
L 864 0 
L 0 0 
z
" style="fill:#ffffff;"/>
  </g>
  <g id="axes_1">
   <g id="patch_2">
    <path d="M 87.02497 221.09886 
L 849.6 221.09886 
L 849.6 14.4 
L 87.02497 14.4 
z
" style="fill:#ffffff;"/>
   </g>
   <g id="matplotlib.axis_1">
    <g id="xtick_1">
     <g id="line2d_1">
      <defs>
       <path d="M 0 0 
L 0 6 
" id="m78e8023ce6" style="stroke:#262626;stroke-width:1.25;"/>
      </defs>
      <g>
       <use style="fill:#262626;stroke:#262626;stroke-width:1.25;" x="239.83844" xlink:href="#m78e8023ce6" y="221.09886"/>
      </g>
     </g>
     <g id="text_1">
      <!-- $2$ -->
      <defs>
       <path d="M 50.5 21.375 
L 46.296875 21.375 
C 46 19.28125 45.296875 13.40625 43.796875 12.421875 
C 43 11.71875 35.203125 11.71875 33.703125 11.71875 
L 18.203125 11.71875 
C 22 14.90625 31.09375 22.46875 32.59375 23.578125 
C 43.703125 31.84375 50.5 36.90625 50.5 46.46875 
C 50.5 58.203125 39.796875 65.28125 26.59375 65.28125 
C 15.296875 65.28125 5.59375 58.90625 5.59375 49.453125 
C 5.59375 44.171875 9.90625 42.6875 12.203125 42.6875 
C 15.296875 42.6875 18.90625 44.765625 18.90625 49.359375 
C 18.90625 53.546875 15.796875 55.625 12.703125 56.03125 
C 16.703125 60.609375 22 61 24.09375 61 
C 33.296875 61 37.703125 53.546875 37.703125 46.375 
C 37.703125 38.609375 32.40625 31.453125 28.296875 27.171875 
L 6.59375 4.578125 
C 5.59375 3.671875 5.59375 3.484375 5.59375 1.6875 
L 5.59375 0 
L 47.59375 0 
z
" id="CMBX12-50"/>
      </defs>
      <g style="fill:#262626;" transform="translate(234.77594 243.09886)scale(0.18 -0.18)">
       <use transform="scale(0.996264)" xlink:href="#CMBX12-50"/>
      </g>
     </g>
    </g>
    <g id="xtick_2">
     <g id="line2d_2">
      <g>
       <use style="fill:#262626;stroke:#262626;stroke-width:1.25;" x="392.65191" xlink:href="#m78e8023ce6" y="221.09886"/>
      </g>
     </g>
     <g id="text_2">
      <!-- $4$ -->
      <defs>
       <path d="M 43.296875 15.71875 
L 53 15.71875 
L 53 20 
L 43.296875 20 
L 43.296875 62.609375 
C 43.296875 65.09375 43.203125 65.5 40.703125 65.5 
C 38.90625 65.5 38.703125 65.5 37.5 64 
L 3.09375 20 
L 3.09375 15.71875 
L 31.5 15.71875 
L 31.5 4.171875 
L 20.59375 4.171875 
L 20.59375 0 
C 23.5 0 33.40625 0 37 0 
C 40.40625 0 50.296875 0 53 -0.09375 
L 53 4.171875 
L 43.296875 4.171875 
z
M 32.40625 51.59375 
L 32.40625 20 
L 7.703125 20 
z
" id="CMBX12-52"/>
      </defs>
      <g style="fill:#262626;" transform="translate(387.58941 243.09886)scale(0.18 -0.18)">
       <use transform="scale(0.996264)" xlink:href="#CMBX12-52"/>
      </g>
     </g>
    </g>
    <g id="xtick_3">
     <g id="line2d_3">
      <g>
       <use style="fill:#262626;stroke:#262626;stroke-width:1.25;" x="545.465379" xlink:href="#m78e8023ce6" y="221.09886"/>
      </g>
     </g>
     <g id="text_3">
      <!-- $6$ -->
      <defs>
       <path d="M 17.40625 36.25 
C 17.40625 42.328125 17.703125 48.53125 20.5 53.90625 
C 22.703125 58.109375 27.796875 62 34.296875 62 
C 36.203125 62 39.796875 61.703125 42.203125 59.203125 
C 38.40625 58.8125 36.796875 56.015625 36.796875 53.3125 
C 36.796875 49.703125 39.5 47.40625 42.703125 47.40625 
C 45.296875 47.40625 48.59375 49.109375 48.59375 53.5 
C 48.59375 59.484375 44.59375 65.578125 34.09375 65.578125 
C 21.59375 65.578125 4.703125 57.796875 4.703125 31.796875 
C 4.703125 25.109375 4.703125 -1 28.40625 -1 
C 41.59375 -1 51.40625 6.765625 51.40625 20.703125 
C 51.40625 34.640625 41.703125 42 29.796875 42 
C 27.796875 42 21.40625 42 17.40625 33.546875 
z
M 28.296875 2.96875 
C 21.90625 2.96875 19.40625 8.34375 19 9.140625 
C 17.59375 12.4375 17.59375 20.40625 17.59375 21.296875 
C 17.59375 33.546875 22.90625 38.734375 28.796875 38.734375 
C 38.703125 38.734375 38.703125 30.765625 38.703125 20.796875 
C 38.703125 10.9375 38.703125 2.96875 28.296875 2.96875 
z
" id="CMBX12-54"/>
      </defs>
      <g style="fill:#262626;" transform="translate(540.402879 243.09886)scale(0.18 -0.18)">
       <use transform="scale(0.996264)" xlink:href="#CMBX12-54"/>
      </g>
     </g>
    </g>
    <g id="xtick_4">
     <g id="line2d_4">
      <g>
       <use style="fill:#262626;stroke:#262626;stroke-width:1.25;" x="698.278849" xlink:href="#m78e8023ce6" y="221.09886"/>
      </g>
     </g>
     <g id="text_4">
      <!-- $8$ -->
      <defs>
       <path d="M 37.703125 36.921875 
C 42.703125 39.515625 48.296875 43.203125 48.296875 51 
C 48.296875 61.28125 39.09375 65.671875 28.203125 65.671875 
C 14.90625 65.671875 7.796875 58.09375 7.796875 48.40625 
C 7.796875 43.03125 10.5 37.03125 17.90625 33.140625 
C 6.59375 28.140625 4.703125 21.265625 4.703125 16.078125 
C 4.703125 4.59375 14.703125 -1 27.90625 -1 
C 42.703125 -1 51.40625 6.96875 51.40625 18.5625 
C 51.40625 29.4375 42.796875 34.140625 37.703125 36.921875 
z
M 19.703125 47.265625 
C 17.703125 48.375 14.90625 50.671875 14.90625 53.984375 
C 14.90625 62 25.59375 62 27.90625 62 
C 36.40625 62 41.203125 57.53125 41.203125 50.96875 
C 41.203125 46.890625 39.40625 42.609375 33.703125 39.328125 
z
M 22 30.59375 
L 35.796875 22.734375 
C 39.09375 20.84375 43.40625 18.46875 43.40625 13.40625 
C 43.40625 5.453125 35.40625 2.96875 28.203125 2.96875 
C 18.296875 2.96875 12.703125 8.234375 12.703125 16.078125 
C 12.703125 23.328125 17.203125 27.90625 22 30.59375 
z
" id="CMBX12-56"/>
      </defs>
      <g style="fill:#262626;" transform="translate(693.216349 243.09886)scale(0.18 -0.18)">
       <use transform="scale(0.996264)" xlink:href="#CMBX12-56"/>
      </g>
     </g>
    </g>
    <g id="text_5">
     <!-- \textbf{Frequency (kHz)} -->
     <defs>
      <path d="M 63 67.28125 
L 3.796875 67.28125 
L 3.796875 63 
L 14.40625 63 
L 14.40625 4.171875 
L 3.796875 4.171875 
L 3.796875 0 
C 6.703125 0 18.09375 0 21.796875 0 
C 27.09375 0 36 0 40.90625 0 
L 40.90625 4.171875 
L 27.59375 4.171875 
L 27.59375 31.71875 
L 33.09375 31.71875 
C 42.703125 31.71875 43.5 27.3125 43.5 20 
L 47.703125 20 
L 47.703125 47.53125 
L 43.5 47.53125 
C 43.5 40.328125 42.703125 36 33.09375 36 
L 27.59375 36 
L 27.59375 63 
L 41.90625 63 
C 57.796875 63 60.296875 55.875 61.703125 44.078125 
L 65.90625 44.078125 
z
" id="CMBX12-70"/>
      <path d="M 20.796875 22.046875 
C 20.796875 25.296875 21.5 41 33.203125 41 
C 31.796875 39.921875 31.09375 38.25 31.09375 36.5 
C 31.09375 32.484375 34.40625 30.8125 36.90625 30.8125 
C 39.40625 30.8125 42.703125 32.484375 42.703125 36.515625 
C 42.703125 41.53125 37.5 44.28125 32.703125 44.28125 
C 24.796875 44.28125 21.40625 37.515625 20 33.390625 
L 19.90625 33.390625 
L 19.90625 44 
L 3.5 44 
L 3.5 39.328125 
C 9.703125 39.328125 10.40625 39.328125 10.40625 35.46875 
L 10.40625 4.0625 
L 3.5 4.0625 
L 3.5 -0.203125 
C 5.796875 0 13.296875 0 16.09375 0 
C 19 0 27.09375 0 29.5 -0.203125 
L 29.5 4.0625 
L 20.796875 4.0625 
z
" id="CMBX12-114"/>
      <path d="M 45.203125 22 
C 47.5 22 48.09375 22 48.09375 24.484375 
C 48.09375 27.46875 47.40625 34.890625 42.796875 39.5625 
C 38.59375 43.71875 33 45 27.203125 45 
C 11.59375 45 3.09375 34.890625 3.09375 22.40625 
C 3.09375 8.515625 13.40625 -0.5 28.5 -0.5 
C 43.59375 -0.5 48.09375 10 48.09375 11.6875 
C 48.09375 13.171875 46.59375 13.171875 46 13.171875 
C 44.40625 13.171875 44.296875 12.875 43.703125 11.59375 
C 41.09375 5.15625 34.5 3.078125 29.703125 3.078125 
C 15.203125 3.078125 15.09375 16.453125 15.09375 22 
z
M 15.09375 24.890625 
C 15.296875 28.9375 15.40625 32.8125 17.5 36.375 
C 19.40625 39.546875 22.90625 41.71875 27.203125 41.71875 
C 37.90625 41.71875 38.796875 29.828125 38.90625 24.890625 
z
" id="CMBX12-101"/>
      <path d="M 52 44.578125 
L 48.296875 44.578125 
L 43 36.359375 
C 39.5 41.421875 34.59375 44.578125 28 44.578125 
C 14.203125 44.578125 3.796875 36.078125 3.796875 22.03125 
C 3.796875 7.890625 13.796875 -0.5 27 -0.5 
C 30.796875 -0.5 35.90625 0.296875 41.09375 5.15625 
L 41.09375 -14.921875 
L 34.203125 -14.921875 
L 34.203125 -19.1875 
C 36.5 -19 43.703125 -19 46.5 -19 
C 49.296875 -19 56.59375 -19 58.90625 -19.1875 
L 58.90625 -14.921875 
L 52 -14.921875 
z
M 41.59375 11.859375 
C 37.40625 4.046875 31.5 2.78125 28.203125 2.78125 
C 21.796875 2.78125 15.796875 8.609375 15.796875 21.9375 
C 15.796875 36.359375 23.40625 41 29.296875 41 
C 37.09375 41 41.59375 33 41.59375 28.453125 
z
" id="CMBX12-113"/>
      <path d="M 35.296875 44.671875 
L 35.296875 40 
C 41.5 40 42.203125 40 42.203125 36.125 
L 42.203125 16.5 
C 42.203125 8.890625 37.703125 2.78125 29.90625 2.78125 
C 22.40625 2.78125 22 5.265625 22 10.6875 
L 22 44.671875 
L 4.203125 44.671875 
L 4.203125 40 
C 10.40625 40 11.09375 40 11.09375 36.125 
L 11.09375 12.40625 
C 11.09375 2.390625 17.796875 -0.5 28.5 -0.5 
C 30.90625 -0.5 38.296875 -0.5 42.59375 7.75 
L 42.703125 7.75 
L 42.703125 0 
L 60 0 
L 60 4.5625 
C 53.796875 4.5625 53.09375 4.5625 53.09375 8.4375 
L 53.09375 44.671875 
z
" id="CMBX12-117"/>
      <path d="M 53.09375 30.0625 
C 53.09375 39.453125 49 44.28125 38 44.28125 
C 30.796875 44.28125 24.59375 40.859375 21.203125 33.484375 
L 21.09375 33.484375 
L 21.09375 44 
L 4.203125 44 
L 4.203125 39.328125 
C 10.40625 39.328125 11.09375 39.328125 11.09375 35.46875 
L 11.09375 4.0625 
L 4.203125 4.0625 
L 4.203125 -0.203125 
C 6.5 0 13.703125 0 16.5 0 
C 19.296875 0 26.59375 0 28.90625 -0.203125 
L 28.90625 4.0625 
L 22 4.0625 
L 22 25.109375 
C 22 35.765625 30 41 36.40625 41 
C 40.09375 41 42.203125 38.640625 42.203125 31.140625 
L 42.203125 4.0625 
L 35.296875 4.0625 
L 35.296875 -0.203125 
C 37.59375 0 44.796875 0 47.59375 0 
C 50.40625 0 57.703125 0 60 -0.203125 
L 60 4.0625 
L 53.09375 4.0625 
z
" id="CMBX12-110"/>
      <path d="M 46.796875 11.765625 
C 46.796875 12.953125 45.703125 12.953125 44.703125 12.953125 
C 43.09375 12.953125 43 12.859375 42.5 11.671875 
C 41.796875 9.765625 39.09375 3.078125 29.90625 3.078125 
C 15.796875 3.078125 15.796875 18.21875 15.796875 22.703125 
C 15.796875 28.578125 15.90625 41.625 29 41.625 
C 29.703125 41.625 35.59375 41.625 35.59375 41.125 
C 35.59375 41 35.5 40.90625 35.296875 40.8125 
C 35 40.515625 33.703125 39 33.703125 36.46875 
C 33.703125 32.25 37.09375 30.53125 39.59375 30.53125 
C 41.703125 30.53125 45.5 31.859375 45.5 36.65625 
C 45.5 45 34 45 28.59375 45 
C 10.796875 45 3.796875 33.515625 3.796875 22.09375 
C 3.796875 8.625 13.296875 -0.5 28 -0.5 
C 43.703125 -0.5 46.796875 11.0625 46.796875 11.765625 
z
" id="CMBX12-99"/>
      <path d="M 49.5 37.828125 
C 50.09375 39.203125 50.5 40 56.90625 40 
L 56.90625 44.171875 
C 53.5 44.171875 53.09375 44.171875 49 44.171875 
C 46.296875 44.171875 46.09375 44.171875 40.40625 44.171875 
L 40.40625 40 
C 40.5 40 45.203125 40 45.203125 38.71875 
C 45.203125 38.421875 44.90625 37.828125 44.796875 37.53125 
L 33.09375 12.578125 
L 20.296875 40 
L 25.796875 40 
L 25.796875 44.265625 
C 23.40625 44.171875 16.59375 44.171875 13.796875 44.171875 
C 10.90625 44.171875 5 44.171875 2.40625 44.265625 
L 2.40625 40 
L 8.796875 40 
L 27.296875 0.3125 
C 26.796875 -0.875 25.40625 -3.75 24.90625 -4.9375 
C 22.796875 -9.390625 19.59375 -16.21875 12.59375 -16.21875 
C 12.203125 -16.21875 11 -16.21875 9.90625 -15.625 
C 10.09375 -15.515625 13.09375 -14.328125 13.09375 -10.5625 
C 13.09375 -7.3125 10.703125 -5.234375 7.703125 -5.234375 
C 4.59375 -5.234375 2.203125 -7.328125 2.203125 -10.6875 
C 2.203125 -15.34375 6.59375 -19.5 12.59375 -19.5 
C 20.796875 -19.5 26.203125 -12.171875 28.203125 -7.8125 
z
" id="CMBX12-121"/>
      <path d="M 37.40625 -23.8125 
C 37.40625 -23.40625 37.40625 -23.203125 35.5 -21.421875 
C 24.296875 -10.296875 20 7.203125 20 24.6875 
C 20 44.28125 24.90625 60.390625 36.09375 71.609375 
C 37.296875 72.796875 37.40625 72.90625 37.40625 73.296875 
C 37.40625 74.5 36.203125 74.5 35.703125 74.5 
C 34.796875 74.5 34.59375 74.5 32 72.40625 
C 17.59375 60.984375 10.796875 42.6875 10.796875 24.8125 
C 10.796875 6.515625 17.703125 -11.28125 31.90625 -22.8125 
C 34.5 -25 34.703125 -25 35.703125 -25 
C 36.203125 -25 37.40625 -25 37.40625 -23.8125 
z
" id="CMBX12-40"/>
      <path d="M 33.203125 27.8125 
L 45.796875 38.03125 
C 47 39.03125 48.09375 39.9375 55 39.9375 
L 55 44.203125 
C 52.40625 44 50.40625 44 46.703125 44 
C 44.09375 44 38.5 44 36.203125 44.203125 
L 36.203125 39.9375 
C 37.40625 39.9375 39.796875 39.640625 39.796875 38.828125 
C 39.796875 38.421875 39.203125 38.03125 39 37.828125 
L 20.796875 23.203125 
L 20.796875 69 
L 3.5 69 
L 3.5 64.328125 
C 9.703125 64.328125 10.40625 64.328125 10.40625 60.390625 
L 10.40625 4.0625 
L 3.5 4.0625 
L 3.5 -0.203125 
C 5.796875 0 12.703125 0 15.40625 0 
C 18.09375 0 25 0 27.296875 -0.203125 
L 27.296875 4.0625 
L 20.40625 4.0625 
L 20.40625 17.484375 
C 22 18.703125 23.5 19.984375 25.703125 21.796875 
L 37.796875 6.171875 
C 38.5 5.375 38.5 5.171875 38.5 5.078125 
C 38.5 4.0625 36.5 4.0625 35.09375 4.0625 
L 35.09375 -0.203125 
C 37.5 0 44.09375 0 46.796875 0 
C 51.90625 0 53.296875 0 57.5 0 
L 57.5 4.0625 
C 55.90625 4.0625 53.90625 4.0625 52.796875 4.171875 
C 51.40625 4.46875 51 4.765625 49.90625 6.171875 
z
" id="CMBX12-107"/>
      <path d="M 73.5 63.828125 
L 84.09375 63.828125 
L 84.09375 68 
C 81.203125 68 70.5 68 66.90625 68 
C 63.296875 68 52.59375 68 49.703125 68 
L 49.703125 63.828125 
L 60.296875 63.828125 
L 60.296875 37.265625 
L 27.59375 37.265625 
L 27.59375 63.828125 
L 38.203125 63.828125 
L 38.203125 68 
C 35.296875 68 24.59375 68 21 68 
C 17.40625 68 6.703125 68 3.796875 68 
L 3.796875 63.828125 
L 14.40625 63.828125 
L 14.40625 4.171875 
L 3.796875 4.171875 
L 3.796875 0 
C 6.703125 0 17.40625 0 21 0 
C 24.59375 0 35.296875 0 38.203125 0 
L 38.203125 4.171875 
L 27.59375 4.171875 
L 27.59375 33 
L 60.296875 33 
L 60.296875 4.171875 
L 49.703125 4.171875 
L 49.703125 0 
C 52.59375 0 63.296875 0 66.90625 0 
C 70.5 0 81.203125 0 84.09375 0 
L 84.09375 4.171875 
L 73.5 4.171875 
z
" id="CMBX12-72"/>
      <path d="M 44 40.234375 
C 44.90625 41.3125 44.90625 41.515625 44.90625 42.109375 
C 44.90625 44 43.90625 44 42 44 
L 5.796875 44 
L 4.703125 26.953125 
L 8.90625 26.953125 
C 9.5 36.359375 11.703125 40.71875 22.796875 40.71875 
L 31.796875 40.71875 
L 4 3.953125 
C 3.09375 2.875 3.09375 2.6875 3.09375 1.984375 
C 3.09375 0 4 0 6 0 
L 43.5 0 
L 45.203125 19.625 
L 41 19.625 
C 40.203125 9.125 38 3.578125 25.40625 3.578125 
L 16.296875 3.578125 
z
" id="CMBX12-122"/>
      <path d="M 32.796875 24.703125 
C 32.796875 42.984375 25.90625 60.78125 11.703125 72.3125 
C 9.09375 74.5 8.90625 74.5 7.90625 74.5 
C 7.40625 74.5 6.203125 74.5 6.203125 73.3125 
C 6.203125 72.921875 6.203125 72.71875 8.09375 70.9375 
C 19.296875 59.796875 23.59375 42.3125 23.59375 24.8125 
C 23.59375 5.21875 18.703125 -10.875 7.5 -22.109375 
C 6.296875 -23.3125 6.203125 -23.40625 6.203125 -23.8125 
C 6.203125 -25 7.40625 -25 7.90625 -25 
C 8.796875 -25 9 -25 11.59375 -22.90625 
C 26 -11.484375 32.796875 6.8125 32.796875 24.703125 
z
" id="CMBX12-41"/>
     </defs>
     <g style="fill:#262626;" transform="translate(377.447885 268.1)scale(0.22 -0.22)">
      <use transform="translate(0 -0.0934)scale(0.996264)" xlink:href="#CMBX12-70"/>
      <use transform="translate(61.113445 -0.0934)scale(0.996264)" xlink:href="#CMBX12-114"/>
      <use transform="translate(106.890953 -0.0934)scale(0.996264)" xlink:href="#CMBX12-101"/>
      <use transform="translate(158.03022 -0.0934)scale(0.996264)" xlink:href="#CMBX12-113"/>
      <use transform="translate(217.183396 -0.0934)scale(0.996264)" xlink:href="#CMBX12-117"/>
      <use transform="translate(279.449896 -0.0934)scale(0.996264)" xlink:href="#CMBX12-101"/>
      <use transform="translate(330.589163 -0.0934)scale(0.996264)" xlink:href="#CMBX12-110"/>
      <use transform="translate(392.855664 -0.0934)scale(0.996264)" xlink:href="#CMBX12-99"/>
      <use transform="translate(442.668864 -0.0934)scale(0.996264)" xlink:href="#CMBX12-121"/>
      <use transform="translate(539.18194 -0.0934)scale(0.996264)" xlink:href="#CMBX12-40"/>
      <use transform="translate(582.768491 -0.0934)scale(0.996264)" xlink:href="#CMBX12-107"/>
      <use transform="translate(641.921666 -0.0934)scale(0.996264)" xlink:href="#CMBX12-72"/>
      <use transform="translate(729.556141 -0.0934)scale(0.996264)" xlink:href="#CMBX12-122"/>
      <use transform="translate(779.369342 -0.0934)scale(0.996264)" xlink:href="#CMBX12-41"/>
     </g>
    </g>
   </g>
   <g id="matplotlib.axis_2">
    <g id="ytick_1">
     <g id="line2d_5">
      <defs>
       <path d="M 0 0 
L -6 0 
" id="m52de546f00" style="stroke:#262626;stroke-width:1.25;"/>
      </defs>
      <g>
       <use style="fill:#262626;stroke:#262626;stroke-width:1.25;" x="87.02497" xlink:href="#m52de546f00" y="221.09886"/>
      </g>
     </g>
     <g id="text_6">
      <!-- $0.00$ -->
      <defs>
       <path d="M 51.703125 31.84375 
C 51.703125 41.375 51.703125 65.28125 28.09375 65.28125 
C 4.40625 65.28125 4.40625 41.46875 4.40625 31.84375 
C 4.40625 22.3125 4.40625 -1 28 -1 
C 51.59375 -1 51.703125 22.015625 51.703125 31.84375 
z
M 28.09375 2.28125 
C 24.90625 2.28125 22.5 3.5625 20.5 5.65625 
C 18 8.140625 16.40625 9.703125 16.40625 33.03125 
C 16.40625 39.984375 16.40625 46.3125 17.203125 51.484375 
C 18.59375 61.3125 25.796875 62 28 62 
C 31.203125 62 37.40625 60.515625 38.796875 52.1875 
C 39.703125 47.109375 39.703125 39.078125 39.703125 33.03125 
C 39.703125 9.609375 38.203125 8.234375 35.203125 5.25 
C 33.203125 3.265625 30.5 2.28125 28.09375 2.28125 
z
" id="CMBX12-48"/>
       <path d="M 23.703125 7.765625 
C 23.703125 12.046875 20.203125 15.53125 15.90625 15.53125 
C 11.59375 15.53125 8.09375 12.046875 8.09375 7.765625 
C 8.09375 3.484375 11.59375 0 15.90625 0 
C 20.203125 0 23.703125 3.484375 23.703125 7.765625 
z
" id="CMMIB10-58"/>
      </defs>
      <g style="fill:#262626;" transform="translate(41.4 227.34886)scale(0.18 -0.18)">
       <use transform="scale(0.996264)" xlink:href="#CMBX12-48"/>
       <use transform="translate(56.039851 0)scale(0.996264)" xlink:href="#CMMIB10-58"/>
       <use transform="translate(87.864782 0)scale(0.996264)" xlink:href="#CMBX12-48"/>
       <use transform="translate(143.904633 0)scale(0.996264)" xlink:href="#CMBX12-48"/>
      </g>
     </g>
    </g>
    <g id="ytick_2">
     <g id="line2d_6">
      <g>
       <use style="fill:#262626;stroke:#262626;stroke-width:1.25;" x="87.02497" xlink:href="#m52de546f00" y="173.51591"/>
      </g>
     </g>
     <g id="text_7">
      <!-- $0.01$ -->
      <defs>
       <path d="M 34.59375 62.109375 
C 34.59375 65 34.40625 65 31.203125 65 
C 23.796875 59 12.703125 59 10.5 59 
L 8.59375 59 
L 8.59375 54.734375 
L 10.5 54.734375 
C 14 54.734375 19.296875 55.328125 23.296875 56.625 
L 23.296875 4.171875 
L 9.40625 4.171875 
L 9.40625 0 
C 13.59375 0 24.09375 0 28.796875 0 
C 33.5 0 44.09375 0 48.296875 0 
L 48.296875 4.171875 
L 34.59375 4.171875 
z
" id="CMBX12-49"/>
      </defs>
      <g style="fill:#262626;" transform="translate(41.4 179.76591)scale(0.18 -0.18)">
       <use transform="scale(0.996264)" xlink:href="#CMBX12-48"/>
       <use transform="translate(56.039851 0)scale(0.996264)" xlink:href="#CMMIB10-58"/>
       <use transform="translate(87.864782 0)scale(0.996264)" xlink:href="#CMBX12-48"/>
       <use transform="translate(143.904633 0)scale(0.996264)" xlink:href="#CMBX12-49"/>
      </g>
     </g>
    </g>
    <g id="ytick_3">
     <g id="line2d_7">
      <g>
       <use style="fill:#262626;stroke:#262626;stroke-width:1.25;" x="87.02497" xlink:href="#m52de546f00" y="125.93296"/>
      </g>
     </g>
     <g id="text_8">
      <!-- $0.02$ -->
      <g style="fill:#262626;" transform="translate(41.4 132.18296)scale(0.18 -0.18)">
       <use transform="scale(0.996264)" xlink:href="#CMBX12-48"/>
       <use transform="translate(56.039851 0)scale(0.996264)" xlink:href="#CMMIB10-58"/>
       <use transform="translate(87.864782 0)scale(0.996264)" xlink:href="#CMBX12-48"/>
       <use transform="translate(143.904633 0)scale(0.996264)" xlink:href="#CMBX12-50"/>
      </g>
     </g>
    </g>
    <g id="ytick_4">
     <g id="line2d_8">
      <g>
       <use style="fill:#262626;stroke:#262626;stroke-width:1.25;" x="87.02497" xlink:href="#m52de546f00" y="78.350009"/>
      </g>
     </g>
     <g id="text_9">
      <!-- $0.03$ -->
      <defs>
       <path d="M 26.09375 33 
C 37.296875 33 37.296875 22.71875 37.296875 17.984375 
C 37.296875 13.53125 37.296875 3.0625 26.5 3.0625 
C 24.40625 3.0625 17.796875 3.0625 13 6.625 
C 17.296875 7.515625 18.796875 10.59375 18.796875 13.5625 
C 18.796875 17.625 15.90625 20.5 11.796875 20.5 
C 7.59375 20.5 4.703125 17.625 4.703125 13.46875 
C 4.703125 4.34375 14.703125 -1 27 -1 
C 43.5 -1 51.40625 8.015625 51.40625 17.921875 
C 51.40625 22.796875 48.90625 32.203125 33.40625 34.875 
C 42.203125 37.59375 48.296875 43.8125 48.296875 51.71875 
C 48.296875 59.25 41.09375 65.578125 27.203125 65.578125 
C 16 65.578125 7.796875 59.65625 7.796875 51.53125 
C 7.796875 46.515625 11.703125 44.90625 14.296875 44.90625 
C 17.203125 44.90625 20.703125 46.8125 20.703125 51.4375 
C 20.703125 53.765625 19.703125 57.171875 15 57.875 
C 19.203125 62 26 62 26.59375 62 
C 35.5 62 35.5 55.03125 35.5 52.015625 
C 35.5 48.984375 35.09375 44.328125 31.90625 40.203125 
C 29.296875 36.75 26.703125 36.5625 22.90625 36.5625 
C 21.703125 36.265625 19.703125 36.265625 19.296875 36.078125 
C 18.703125 35.78125 18.703125 35.078125 18.703125 34.6875 
C 18.703125 33 19.296875 33 21.296875 33 
z
" id="CMBX12-51"/>
      </defs>
      <g style="fill:#262626;" transform="translate(41.4 84.600009)scale(0.18 -0.18)">
       <use transform="scale(0.996264)" xlink:href="#CMBX12-48"/>
       <use transform="translate(56.039851 0)scale(0.996264)" xlink:href="#CMMIB10-58"/>
       <use transform="translate(87.864782 0)scale(0.996264)" xlink:href="#CMBX12-48"/>
       <use transform="translate(143.904633 0)scale(0.996264)" xlink:href="#CMBX12-51"/>
      </g>
     </g>
    </g>
    <g id="ytick_5">
     <g id="line2d_9">
      <g>
       <use style="fill:#262626;stroke:#262626;stroke-width:1.25;" x="87.02497" xlink:href="#m52de546f00" y="30.767059"/>
      </g>
     </g>
     <g id="text_10">
      <!-- $0.04$ -->
      <g style="fill:#262626;" transform="translate(41.4 37.017059)scale(0.18 -0.18)">
       <use transform="scale(0.996264)" xlink:href="#CMBX12-48"/>
       <use transform="translate(56.039851 0)scale(0.996264)" xlink:href="#CMMIB10-58"/>
       <use transform="translate(87.864782 0)scale(0.996264)" xlink:href="#CMBX12-48"/>
       <use transform="translate(143.904633 0)scale(0.996264)" xlink:href="#CMBX12-52"/>
      </g>
     </g>
    </g>
    <g id="text_11">
     <!-- \textbf{Power (g RMS)} -->
     <defs>
      <path d="M 27.59375 30.21875 
L 44.59375 30.21875 
C 61.296875 30.21875 70.59375 38.65625 70.59375 48.875 
C 70.59375 59.5625 61.09375 68 44.59375 68 
L 3.796875 68 
L 3.796875 63.71875 
L 14.40625 63.71875 
L 14.40625 4.171875 
L 3.796875 4.171875 
L 3.796875 0 
C 6.703125 0 17.40625 0 21 0 
C 24.59375 0 35.296875 0 38.203125 0 
L 38.203125 4.171875 
L 27.59375 4.171875 
z
M 41 63.71875 
C 56.5 63.71875 56.5 55.59375 56.5 48.859375 
C 56.5 42.328125 56.5 34 41 34 
L 27.09375 34 
L 27.09375 63.71875 
z
" id="CMBX12-80"/>
      <path d="M 53 21.796875 
C 53 35.1875 43.796875 45 28.09375 45 
C 11.796875 45 3.09375 34.6875 3.09375 21.796875 
C 3.09375 8.828125 12.296875 -0.5 28 -0.5 
C 44.296875 -0.5 53 9.3125 53 21.796875 
z
M 28.09375 3.078125 
C 15.09375 3.078125 15.09375 14.671875 15.09375 22.796875 
C 15.09375 27.453125 15.09375 32.40625 17 35.984375 
C 19.203125 39.9375 23.703125 41.71875 28 41.71875 
C 33.703125 41.71875 37.296875 39.046875 39 36.28125 
C 41 32.703125 41 27.546875 41 22.796875 
C 41 14.5625 41 3.078125 28.09375 3.078125 
z
" id="CMBX12-111"/>
      <path d="M 72 37.4375 
C 72.703125 39.125 73 39.828125 78.796875 39.828125 
L 78.796875 44 
C 75.90625 44 74.59375 44 71 44 
C 66.90625 44 65.59375 44 62 44 
L 62 39.828125 
C 62.90625 39.828125 67.796875 39.828125 67.796875 38.53125 
C 67.796875 38.4375 67.796875 38.328125 67.40625 37.34375 
L 56.90625 11.515625 
L 45.40625 39.828125 
L 51.09375 39.828125 
L 51.09375 44.09375 
C 48.703125 44 42.796875 44 40.09375 44 
C 35 44 34.796875 44 29.796875 44 
L 29.796875 39.828125 
L 35.703125 39.828125 
C 36 39.03125 36.5 37.734375 36.90625 36.84375 
C 37.203125 36.25 38.203125 33.859375 38.203125 33.359375 
C 38.203125 33.171875 37.90625 32.46875 37.796875 32.171875 
L 30.203125 13.40625 
L 19.40625 39.828125 
L 25.09375 39.828125 
L 25.09375 44.09375 
C 22.796875 44 16 44 13.296875 44 
C 10.09375 44 5.296875 44 2.296875 44 
L 2.296875 39.828125 
L 8.203125 39.828125 
L 23.5 1.984375 
C 24.203125 0.203125 24.59375 -0.5 26.796875 -0.5 
C 27.90625 -0.5 29.09375 -0.5 29.90625 1.484375 
L 40.5 27.8125 
L 51.09375 1.6875 
C 52 -0.5 53.09375 -0.5 54.296875 -0.5 
C 56.5 -0.5 56.796875 0.09375 57.5 1.890625 
z
" id="CMBX12-119"/>
      <path d="M 13 18.578125 
C 17.796875 16 23.40625 16 24.90625 16 
C 38.703125 16 44.203125 23.65625 44.203125 30.625 
C 44.203125 35.703125 41.296875 39.296875 40.09375 40.28125 
C 43 41.8125 45.40625 42.1875 47.09375 42.390625 
C 46.796875 41.90625 46.5 41.53125 46.5 40.28125 
C 46.5 38.28125 47.90625 36.46875 50.5 36.46875 
C 53.09375 36.46875 54.5 38.359375 54.5 40.4375 
C 54.5 42.828125 52.703125 46 48.5 46 
C 44.203125 46 40.09375 43.796875 38 41.90625 
C 33.90625 44.28125 30 45.171875 24.90625 45.171875 
C 11.09375 45.171875 5.59375 37.546875 5.59375 30.578125 
C 5.59375 27.5 6.59375 23.453125 10.796875 20.078125 
C 9.09375 18.140625 7.296875 14.578125 7.296875 10.921875 
C 7.296875 6.5625 9.59375 2.8125 11.703125 1.1875 
C 9.296875 0.609375 3.09375 -1.640625 3.09375 -7.203125 
C 3.09375 -12.96875 9.59375 -19.5 28 -19.5 
C 44.59375 -19.5 53 -14.21875 53 -6.859375 
C 53 1.78125 47.203125 4.609375 44.703125 5.78125 
C 39.90625 8.140625 33.5 8.140625 24.703125 8.140625 
C 22.203125 8.140625 17.796875 8.140625 17.296875 8.234375 
C 13 8.984375 11.796875 12.953125 11.796875 14.953125 
C 11.796875 15.78125 11.90625 17.296875 13 18.578125 
z
M 24.90625 19.171875 
C 16.203125 19.171875 16.203125 26.015625 16.203125 30.578125 
C 16.203125 35.15625 16.203125 42 24.90625 42 
C 33.59375 42 33.59375 35.15625 33.59375 30.578125 
C 33.59375 26.015625 33.59375 19.171875 24.90625 19.171875 
z
M 30.5 -1 
C 37.796875 -1 44.796875 -2.265625 44.796875 -7.296875 
C 44.796875 -10.703125 41.296875 -16.328125 28.09375 -16.328125 
C 14.90625 -16.328125 11.296875 -10.890625 11.296875 -7.203125 
C 11.296875 -1 17.59375 -1 19.09375 -1 
z
" id="CMBX12-103"/>
      <path d="M 52.90625 33.65625 
C 66.40625 37.234375 69.703125 44.359375 69.703125 49.734375 
C 69.703125 59.671875 59.203125 68 40.703125 68 
L 3.796875 68 
L 3.796875 63.71875 
L 14.40625 63.71875 
L 14.40625 4.171875 
L 3.796875 4.171875 
L 3.796875 0 
C 6.703125 0 17.09375 0 20.703125 0 
C 24.296875 0 34.796875 0 37.703125 0 
L 37.703125 4.171875 
L 27.09375 4.171875 
L 27.09375 32.71875 
L 39 32.71875 
C 43 32.71875 46.203125 31.515625 48.40625 28.890625 
C 51.40625 25.46875 51.40625 23.25 51.40625 16.515625 
C 51.40625 9.78125 51.40625 5.671875 56.5 2.25 
C 61.703125 -1.28125 69.90625 -1.28125 72.09375 -1.28125 
C 82.296875 -1.28125 83.5 7.71875 83.5 9.109375 
C 83.5 10.8125 82.703125 11.109375 81.40625 11.109375 
C 79.5 11.109375 79.40625 10.421875 79.296875 9.109375 
C 78.796875 4.09375 75.703125 2 72.90625 2 
C 66.5 2 65.796875 8.65625 65 17.765625 
C 64.40625 23.03125 63.703125 30.375 52.90625 33.65625 
z
M 38.796875 36 
L 27.09375 36 
L 27.09375 63.71875 
L 39 63.71875 
C 55.296875 63.71875 55.59375 55.6875 55.59375 49.90625 
C 55.59375 44.515625 55.5 36 38.796875 36 
z
" id="CMBX12-82"/>
      <path d="M 53.296875 12.453125 
L 29.296875 65.90625 
C 28.40625 68 27.5 68 25.40625 68 
L 4.09375 68 
L 4.09375 63.71875 
L 14.703125 63.71875 
L 14.703125 6.9375 
C 14.703125 4.75 14.59375 4.65625 12 4.25 
C 10.203125 4.0625 8.203125 4.0625 6.40625 4.0625 
L 4.09375 4.0625 
L 4.09375 -0.203125 
C 6.40625 0 14.203125 0 17 0 
C 19.796875 0 27.703125 0 30 -0.203125 
L 30 4.0625 
L 27.703125 4.0625 
C 25 4.0625 24.796875 4.0625 22.40625 4.359375 
C 19.5 4.765625 19.40625 4.859375 19.40625 7.046875 
L 19.40625 62.53125 
L 19.5 62.53125 
L 46.703125 2.09375 
C 47.203125 1 47.796875 0 49.5 0 
C 51.203125 0 51.796875 1 52.296875 2.09375 
L 80 63.71875 
L 80.09375 63.71875 
L 80.09375 4.0625 
L 69.5 4.0625 
L 69.5 -0.203125 
C 72.203125 0 82.59375 0 86 0 
C 89.40625 0 99.796875 0 102.5 -0.203125 
L 102.5 4.0625 
L 91.90625 4.0625 
L 91.90625 63.71875 
L 102.5 63.71875 
L 102.5 68 
L 81.203125 68 
C 79.09375 68 78.203125 68 77.296875 65.90625 
z
" id="CMBX12-77"/>
      <path d="M 25.40625 43.46875 
C 15.5 45.625 15.203125 52.75 15.203125 54.140625 
C 15.203125 59.171875 18.5 65.03125 28.203125 65.03125 
C 37.90625 65.03125 46.59375 60.359375 48.703125 47.34375 
C 49 45.25 49 45.25 50.90625 45.25 
C 53 45.25 53 45.546875 53 47.8125 
L 53 66.4375 
C 53 68.3125 53 69.015625 51.5 69.015625 
C 50.796875 69.015625 50.5 68.921875 49.59375 67.921875 
L 45.296875 63.046875 
C 42.796875 65.140625 37.796875 69 28.09375 69 
C 13.796875 69 6.203125 60.09375 6.203125 49.3125 
C 6.203125 42.6875 9.796875 38.03125 11.203125 36.640625 
C 16.40625 31.5 19.203125 30.90625 29.59375 28.625 
C 39.59375 26.453125 40.796875 26.25 43 24.1875 
C 44.296875 22.890625 47.203125 20.125 47.203125 15.078125 
C 47.203125 10.8125 45.09375 3 33.90625 3 
C 25.09375 3 11.203125 5.96875 10.40625 20.421875 
C 10.296875 22.203125 10.296875 22.5 8.296875 22.5 
C 6.203125 22.5 6.203125 22.203125 6.203125 19.921875 
L 6.203125 1.296875 
C 6.203125 -0.59375 6.203125 -1.28125 7.703125 -1.28125 
C 8.40625 -1.28125 8.5 -1.1875 9.5 -0.296875 
C 10.59375 0.796875 11.5 2.09375 14 4.578125 
C 19.796875 0.015625 28 -1.265625 34 -1.265625 
C 49.59375 -1.265625 56.203125 9.21875 56.203125 19.71875 
C 56.203125 29 50 37.90625 39.09375 40.375 
z
" id="CMBX12-83"/>
     </defs>
     <g style="fill:#262626;" transform="translate(30.9 202.903985)rotate(-90)scale(0.22 -0.22)">
      <use transform="translate(0 -0.0934)scale(0.996264)" xlink:href="#CMBX12-80"/>
      <use transform="translate(73.451486 -0.0934)scale(0.996264)" xlink:href="#CMBX12-111"/>
      <use transform="translate(126.378011 -0.0934)scale(0.996264)" xlink:href="#CMBX12-119"/>
      <use transform="translate(204.211137 -0.0934)scale(0.996264)" xlink:href="#CMBX12-101"/>
      <use transform="translate(255.350404 -0.0934)scale(0.996264)" xlink:href="#CMBX12-114"/>
      <use transform="translate(338.487812 -0.0934)scale(0.996264)" xlink:href="#CMBX12-40"/>
      <use transform="translate(382.074362 -0.0934)scale(0.996264)" xlink:href="#CMBX12-103"/>
      <use transform="translate(475.474113 -0.0934)scale(0.996264)" xlink:href="#CMBX12-82"/>
      <use transform="translate(559.072789 -0.0934)scale(0.996264)" xlink:href="#CMBX12-77"/>
      <use transform="translate(665.387214 -0.0934)scale(0.996264)" xlink:href="#CMBX12-83"/>
      <use transform="translate(727.653714 -0.0934)scale(0.996264)" xlink:href="#CMBX12-41"/>
     </g>
    </g>
   </g>
   <g id="line2d_10">
    <path clip-path="url(#pcbdc2a5e57)" d="M 87.02497 220.620928 
L 88.517289 220.46161 
L 90.009608 215.349666 
L 91.501927 205.19916 
L 92.994246 217.622403 
L 94.486565 220.425266 
L 95.978884 218.002555 
L 97.471203 214.714502 
L 98.963522 219.733599 
L 100.455841 220.013393 
L 101.94816 207.023807 
L 103.440479 196.072442 
L 104.932798 217.908248 
L 106.425118 218.470598 
L 107.917437 137.898146 
L 109.409756 99.160866 
L 110.902075 210.860235 
L 112.394394 220.001291 
L 113.886713 208.762219 
L 115.379032 206.768554 
L 116.871351 219.641176 
L 118.36367 220.314356 
L 119.855989 219.529155 
L 121.348308 219.481046 
L 122.840627 220.051433 
L 124.332946 220.328581 
L 125.825265 220.061513 
L 128.809903 220.27405 
L 130.302222 218.335807 
L 131.794541 199.864778 
L 133.28686 208.230019 
L 134.779179 220.108711 
L 136.271498 219.775087 
L 137.763817 214.707844 
L 139.256136 217.970921 
L 140.748455 220.531631 
L 142.240775 218.746431 
L 143.733094 210.521041 
L 145.225413 216.934561 
L 146.717732 220.050848 
L 148.210051 218.486915 
L 149.70237 211.867224 
L 151.194689 217.062554 
L 152.687008 219.777961 
L 154.179327 215.604757 
L 155.671646 205.176914 
L 157.163965 216.855131 
L 158.656284 218.757086 
L 160.148603 219.927595 
L 161.640922 220.029096 
L 163.133241 219.811016 
L 164.62556 218.57509 
L 166.117879 211.548022 
L 167.610198 202.246373 
L 169.102517 214.239498 
L 172.087155 209.817206 
L 173.579474 208.373078 
L 175.071793 210.563477 
L 176.564112 205.6993 
L 178.056432 169.568145 
L 179.548751 157.478092 
L 181.04107 213.040625 
L 182.533389 217.035602 
L 184.025708 204.215249 
L 185.518027 204.898239 
L 187.010346 217.04347 
L 188.502665 216.356727 
L 189.994984 210.067739 
L 191.487303 209.541977 
L 192.979622 212.262741 
L 194.471941 212.305302 
L 195.96426 210.590455 
L 197.456579 215.40806 
L 198.948898 218.653522 
L 200.441217 191.999949 
L 201.933536 40.612336 
L 203.425855 121.856127 
L 204.918174 212.782448 
L 206.410493 216.959386 
L 207.902812 211.345392 
L 209.395131 214.478739 
L 210.88745 216.107652 
L 212.379769 214.078123 
L 213.872088 204.704463 
L 215.364408 214.372009 
L 216.856727 215.335477 
L 218.349046 183.901181 
L 219.841365 182.779499 
L 221.333684 206.409499 
L 222.826003 205.015014 
L 224.318322 173.371824 
L 225.810641 145.296227 
L 227.30296 199.748678 
L 228.795279 216.806193 
L 230.287598 217.882545 
L 231.779917 216.895164 
L 233.272236 218.300378 
L 234.764555 218.199343 
L 236.256874 213.401117 
L 237.749193 210.587936 
L 239.241512 217.352556 
L 240.733831 217.097322 
L 242.22615 199.36849 
L 243.718469 195.619471 
L 245.210788 216.790858 
L 246.703107 214.994532 
L 248.195426 137.585399 
L 249.687745 134.342505 
L 251.180065 215.320946 
L 252.672384 215.337745 
L 254.164703 136.801834 
L 255.657022 152.343899 
L 257.149341 218.583237 
L 258.64166 219.250007 
L 260.133979 211.314572 
L 261.626298 214.251473 
L 263.118617 220.010748 
L 264.610936 218.394621 
L 266.103255 208.442493 
L 267.595574 214.497122 
L 269.087893 219.946796 
L 270.580212 219.085894 
L 272.072531 215.270745 
L 273.56485 218.117088 
L 275.057169 219.557089 
L 276.549488 219.167508 
L 278.041807 218.029695 
L 279.534126 218.566357 
L 281.026445 218.208904 
L 282.518764 218.385194 
L 284.011083 216.882467 
L 285.503402 206.933965 
L 286.995722 175.497583 
L 288.488041 206.17784 
L 289.98036 211.733244 
L 291.472679 171.726064 
L 292.964998 156.032701 
L 294.457317 206.602317 
L 295.949636 209.862439 
L 297.441955 217.005884 
L 298.934274 218.458269 
L 300.426593 218.49108 
L 301.918912 218.698072 
L 303.411231 219.079115 
L 310.872826 219.981544 
L 313.857464 220.063366 
L 315.349783 220.08495 
L 316.842102 219.53057 
L 318.334421 218.17984 
L 319.82674 218.572779 
L 321.319059 219.768603 
L 322.811378 220.110975 
L 324.303698 219.832657 
L 325.796017 219.803303 
L 327.288336 216.615797 
L 328.780655 217.933947 
L 330.272974 219.640429 
L 331.765293 201.374771 
L 333.257612 60.555844 
L 334.749931 143.355162 
L 336.24225 218.520918 
L 337.734569 217.369132 
L 339.226888 204.513225 
L 340.719207 214.195276 
L 342.211526 219.800529 
L 343.703845 211.548869 
L 345.196164 180.10207 
L 346.688483 208.726416 
L 348.180802 220.266436 
L 349.673121 220.004134 
L 351.16544 218.704683 
L 352.657759 218.573521 
L 354.150078 197.689109 
L 355.642397 189.626339 
L 357.134716 214.889958 
L 358.627035 218.826659 
L 360.119355 218.110744 
L 361.611674 217.804978 
L 363.103993 216.951356 
L 364.596312 219.367986 
L 366.088631 220.051278 
L 372.057907 220.191719 
L 373.550226 220.643856 
L 375.042545 220.669899 
L 379.519502 219.586194 
L 381.011821 219.331506 
L 382.50414 220.061578 
L 385.488778 220.413246 
L 389.965735 220.630978 
L 391.458054 220.889818 
L 392.950373 220.909364 
L 394.442692 220.772604 
L 397.427331 220.900905 
L 404.888926 220.878372 
L 406.381245 220.680312 
L 407.873564 220.883427 
L 409.365883 220.918927 
L 410.858202 220.826924 
L 412.350521 220.513514 
L 413.84284 220.820593 
L 415.335159 220.918238 
L 416.827478 220.44773 
L 418.319797 219.18252 
L 419.812116 220.56973 
L 421.304435 220.899181 
L 424.289073 220.632084 
L 425.781392 220.817203 
L 427.273711 220.325319 
L 428.76603 209.761207 
L 430.258349 200.303334 
L 431.750668 217.850408 
L 433.242988 220.536316 
L 434.735307 217.454281 
L 436.227626 215.285045 
L 437.719945 220.141654 
L 439.212264 220.504575 
L 440.704583 215.199358 
L 442.196902 213.853923 
L 443.689221 220.390485 
L 445.18154 220.519186 
L 446.673859 220.090877 
L 448.166178 219.973701 
L 449.658497 220.253585 
L 457.120092 220.567844 
L 458.612411 220.358883 
L 460.10473 220.459193 
L 461.597049 220.733574 
L 463.089368 220.844278 
L 473.535602 220.832513 
L 475.027921 220.882534 
L 479.504878 220.630228 
L 482.489516 220.609571 
L 483.981835 220.526867 
L 485.474154 220.189104 
L 486.966473 220.606268 
L 488.458792 220.645146 
L 489.951111 219.413723 
L 491.44343 217.681238 
L 492.935749 220.081947 
L 494.428068 220.415943 
L 495.920387 219.227194 
L 497.412706 219.012417 
L 498.905025 219.586482 
L 500.397344 219.094848 
L 501.889663 186.817782 
L 503.381982 170.456979 
L 504.874302 216.663913 
L 506.366621 219.804247 
L 507.85894 212.167722 
L 509.351259 210.854251 
L 510.843578 220.047275 
L 512.335897 220.083569 
L 513.828216 209.549166 
L 515.320535 210.298849 
L 516.812854 220.248289 
L 518.305173 220.232867 
L 519.797492 214.027701 
L 521.289811 215.78716 
L 522.78213 220.472075 
L 525.766768 220.607628 
L 527.259087 220.721345 
L 530.243725 220.649711 
L 531.736044 220.409241 
L 533.228363 220.659953 
L 536.213001 220.836519 
L 539.197639 220.886565 
L 540.689958 220.8366 
L 543.674597 220.925398 
L 548.151554 220.905733 
L 551.136192 220.890404 
L 570.536339 220.739221 
L 572.028658 220.959969 
L 573.520977 220.975768 
L 575.013296 220.75038 
L 576.505615 220.711271 
L 577.997935 220.969763 
L 579.490254 220.946367 
L 580.982573 220.207893 
L 582.474892 220.317427 
L 583.967211 220.983451 
L 585.45953 220.941003 
L 586.951849 220.565333 
L 588.444168 220.702345 
L 589.936487 220.97196 
L 597.398082 220.994509 
L 598.890401 220.759119 
L 601.875039 221.018267 
L 628.736782 221.02038 
L 636.198377 221.016119 
L 651.121568 220.969488 
L 652.613887 220.813952 
L 654.106206 220.46623 
L 657.090844 220.635689 
L 658.583163 220.008864 
L 660.075482 214.848588 
L 663.06012 220.526921 
L 664.552439 220.255717 
L 666.044758 216.857855 
L 667.537077 218.93125 
L 669.029396 220.043278 
L 670.521715 219.463569 
L 672.014034 216.204374 
L 673.506353 219.37926 
L 674.998672 220.568721 
L 676.490991 220.352892 
L 677.98331 219.406601 
L 679.475629 220.337093 
L 680.967948 220.683479 
L 682.460267 220.112718 
L 683.952586 219.167384 
L 685.444905 219.987992 
L 686.937225 219.87899 
L 688.429544 203.166049 
L 689.921863 180.978788 
L 691.414182 214.061849 
L 692.906501 218.983111 
L 694.39882 217.622816 
L 695.891139 216.520539 
L 697.383458 220.386404 
L 698.875777 220.862225 
L 701.860415 220.885481 
L 704.845053 220.92262 
L 709.32201 220.995848 
L 730.214477 221.046531 
L 760.060858 221.060509 
L 763.045496 220.955972 
L 766.030134 221.058707 
L 776.476367 221.067149 
L 848.107681 221.048766 
L 849.6 221.08408 
L 849.6 221.08408 
" style="fill:none;stroke:#e41a1c;stroke-linecap:round;stroke-width:2;"/>
   </g>
   <g id="line2d_11">
    <path clip-path="url(#pcbdc2a5e57)" d="M 87.02497 220.337211 
L 88.517289 220.173252 
L 90.009608 217.349351 
L 91.501927 211.055151 
L 92.994246 218.339129 
L 94.486565 219.790587 
L 95.978884 178.437063 
L 97.471203 119.79127 
L 98.963522 205.861512 
L 100.455841 219.903273 
L 101.94816 204.888423 
L 103.440479 191.525633 
L 104.932798 217.271208 
L 106.425118 217.426593 
L 107.917437 94.364142 
L 109.409756 33.189462 
L 110.902075 205.133776 
L 112.394394 219.746268 
L 113.886713 206.958379 
L 115.379032 204.320088 
L 116.871351 219.276703 
L 118.36367 218.01729 
L 119.855989 172.167588 
L 121.348308 175.447424 
L 122.840627 218.528491 
L 124.332946 218.966858 
L 125.825265 203.892906 
L 127.317584 208.474621 
L 128.809903 219.972043 
L 130.302222 212.114379 
L 131.794541 137.788025 
L 133.28686 172.58064 
L 134.779179 219.542711 
L 136.271498 218.805416 
L 137.763817 209.929281 
L 139.256136 215.589419 
L 140.748455 220.251375 
L 142.240775 217.233824 
L 143.733094 203.340581 
L 145.225413 214.589579 
L 146.717732 219.887259 
L 148.210051 212.365313 
L 149.70237 184.591474 
L 151.194689 209.768415 
L 152.687008 219.736147 
L 154.179327 209.451709 
L 155.671646 184.844685 
L 157.163965 212.226472 
L 158.656284 219.829214 
L 160.148603 217.301368 
L 161.640922 212.298355 
L 163.133241 217.268721 
L 164.62556 216.80781 
L 166.117879 178.328157 
L 167.610198 133.572583 
L 169.102517 208.496552 
L 170.594836 217.141729 
L 172.087155 128.813541 
L 173.579474 75.991844 
L 175.071793 202.656497 
L 176.564112 205.904237 
L 178.056432 113.195774 
L 179.548751 88.690306 
L 181.04107 208.721003 
L 182.533389 217.507976 
L 184.025708 189.519313 
L 185.518027 188.470454 
L 187.010346 212.355647 
L 188.502665 212.322246 
L 189.994984 191.412236 
L 191.487303 193.578964 
L 192.979622 212.471016 
L 194.471941 206.200287 
L 195.96426 129.111664 
L 197.456579 164.572184 
L 198.948898 217.216825 
L 200.441217 203.771934 
L 201.933536 114.397742 
L 203.425855 157.400092 
L 204.918174 212.474711 
L 206.410493 209.507221 
L 207.902812 177.416946 
L 209.395131 200.945686 
L 210.88745 215.47515 
L 212.379769 214.451626 
L 213.872088 198.899608 
L 215.364408 211.140429 
L 216.856727 214.442858 
L 218.349046 167.541476 
L 219.841365 115.837036 
L 221.333684 177.792772 
L 222.826003 194.019478 
L 224.318322 170.101004 
L 225.810641 162.609707 
L 227.30296 204.897378 
L 228.795279 217.175966 
L 230.287598 212.374766 
L 231.779917 206.421913 
L 233.272236 215.817238 
L 234.764555 216.01198 
L 236.256874 206.627192 
L 237.749193 202.014231 
L 239.241512 216.928434 
L 240.733831 217.82208 
L 242.22615 208.135158 
L 243.718469 204.254368 
L 245.210788 217.580334 
L 246.703107 217.386282 
L 248.195426 182.605359 
L 249.687745 178.088912 
L 251.180065 216.621331 
L 252.672384 215.926606 
L 254.164703 155.125852 
L 255.657022 162.632336 
L 257.149341 218.298544 
L 258.64166 218.93505 
L 260.133979 209.879489 
L 261.626298 212.642902 
L 263.118617 219.509521 
L 264.610936 219.082265 
L 266.103255 210.912309 
L 267.595574 214.159386 
L 269.087893 219.171298 
L 270.580212 218.934277 
L 272.072531 216.163604 
L 273.56485 217.950758 
L 275.057169 219.124177 
L 276.549488 217.336394 
L 278.041807 209.885218 
L 279.534126 214.627397 
L 281.026445 216.47874 
L 282.518764 216.14817 
L 284.011083 210.022239 
L 285.503402 209.04276 
L 286.995722 185.081206 
L 288.488041 206.071485 
L 289.98036 212.635611 
L 291.472679 186.915182 
L 292.964998 168.925816 
L 294.457317 207.411957 
L 295.949636 210.029546 
L 297.441955 216.619947 
L 298.934274 216.632148 
L 300.426593 217.219993 
L 301.918912 216.932351 
L 303.411231 218.835325 
L 304.90355 219.406001 
L 306.395869 218.621133 
L 307.888188 218.41753 
L 309.380507 219.237912 
L 310.872826 219.257239 
L 313.857464 218.533009 
L 315.349783 219.376344 
L 316.842102 219.169167 
L 318.334421 217.911909 
L 319.82674 218.16479 
L 321.319059 219.606488 
L 322.811378 219.819224 
L 324.303698 219.226693 
L 325.796017 219.11241 
L 327.288336 215.82007 
L 330.272974 218.60341 
L 331.765293 209.002338 
L 333.257612 112.257869 
L 334.749931 160.489533 
L 336.24225 217.201523 
L 337.734569 213.374056 
L 339.226888 179.341785 
L 340.719207 202.01529 
L 342.211526 218.477311 
L 343.703845 214.496394 
L 345.196164 192.116633 
L 346.688483 210.70119 
L 348.180802 219.706095 
L 349.673121 218.47173 
L 351.16544 213.203377 
L 352.657759 217.964166 
L 354.150078 204.680197 
L 355.642397 196.226214 
L 357.134716 216.043699 
L 358.627035 219.155637 
L 360.119355 217.372377 
L 361.611674 218.031599 
L 363.103993 217.707499 
L 364.596312 219.537014 
L 366.088631 220.047757 
L 367.58095 220.071068 
L 369.073269 220.230868 
L 372.057907 220.046916 
L 373.550226 220.548889 
L 375.042545 220.526906 
L 376.534864 219.945606 
L 378.027183 219.670817 
L 379.519502 218.566545 
L 381.011821 217.886328 
L 382.50414 220.081154 
L 383.996459 220.259633 
L 386.981097 220.092772 
L 389.965735 220.582207 
L 394.442692 220.829938 
L 397.427331 220.569443 
L 398.91965 220.7049 
L 400.411969 220.546705 
L 403.396607 220.749496 
L 406.381245 220.729104 
L 407.873564 220.840564 
L 409.365883 220.758017 
L 410.858202 220.852891 
L 416.827478 220.611765 
L 418.319797 219.828019 
L 419.812116 220.505961 
L 422.796754 220.650618 
L 424.289073 220.285745 
L 425.781392 220.685234 
L 427.273711 220.324949 
L 428.76603 213.482049 
L 430.258349 205.316606 
L 431.750668 217.85129 
L 433.242988 220.010241 
L 436.227626 211.895388 
L 437.719945 219.502227 
L 439.212264 219.955265 
L 440.704583 219.304008 
L 442.196902 218.818242 
L 443.689221 219.969557 
L 445.18154 219.739519 
L 446.673859 219.197229 
L 448.166178 218.917609 
L 449.658497 219.347132 
L 451.150816 219.65895 
L 454.135454 220.151105 
L 455.627773 220.37099 
L 457.120092 220.425653 
L 458.612411 220.359098 
L 460.10473 220.584917 
L 463.089368 220.724778 
L 467.566325 220.319452 
L 469.058645 220.528508 
L 470.550964 220.412349 
L 472.043283 220.445047 
L 473.535602 220.341801 
L 475.027921 220.579811 
L 479.504878 220.542589 
L 480.997197 220.251055 
L 486.966473 220.287757 
L 488.458792 220.285582 
L 489.951111 219.325202 
L 491.44343 218.098348 
L 492.935749 219.632003 
L 494.428068 219.985115 
L 495.920387 217.947107 
L 497.412706 216.911165 
L 498.905025 217.517752 
L 500.397344 217.777266 
L 503.381982 182.149406 
L 504.874302 215.187012 
L 506.366621 219.441024 
L 509.351259 219.133777 
L 510.843578 219.490047 
L 512.335897 218.97698 
L 513.828216 211.392085 
L 515.320535 210.121154 
L 516.812854 219.347459 
L 518.305173 219.574131 
L 519.797492 215.5431 
L 521.289811 215.949393 
L 522.78213 220.115338 
L 524.274449 220.187429 
L 525.766768 220.021792 
L 527.259087 220.113456 
L 528.751406 220.390851 
L 530.243725 220.216696 
L 531.736044 219.675335 
L 533.228363 219.909514 
L 534.720682 220.502524 
L 536.213001 220.61015 
L 537.70532 220.555496 
L 542.182278 220.693133 
L 543.674597 220.517369 
L 546.659235 220.77918 
L 554.12083 220.842313 
L 558.597787 220.804627 
L 563.074744 220.892322 
L 566.059382 220.789735 
L 567.551701 220.550107 
L 570.536339 220.822921 
L 573.520977 220.795598 
L 576.505615 220.666451 
L 577.997935 220.911238 
L 579.490254 220.846523 
L 580.982573 219.675129 
L 582.474892 219.502636 
L 583.967211 220.776394 
L 585.45953 220.858215 
L 588.444168 220.785299 
L 592.921125 220.954524 
L 603.367358 220.925475 
L 604.859677 220.690432 
L 607.844315 220.95412 
L 649.629248 220.888278 
L 651.121568 220.803153 
L 652.613887 220.571453 
L 654.106206 220.061776 
L 655.598525 220.139101 
L 658.583163 220.016749 
L 660.075482 216.938341 
L 661.567801 217.828453 
L 663.06012 219.552887 
L 664.552439 220.173457 
L 666.044758 218.836274 
L 667.537077 219.435464 
L 669.029396 219.146113 
L 670.521715 219.021495 
L 672.014034 218.646962 
L 673.506353 219.423824 
L 674.998672 219.777157 
L 677.98331 219.831956 
L 679.475629 219.396596 
L 680.967948 219.54887 
L 682.460267 217.605912 
L 683.952586 214.503616 
L 685.444905 217.40255 
L 686.937225 218.132432 
L 688.429544 211.443291 
L 689.921863 194.867417 
L 691.414182 214.411846 
L 692.906501 218.138515 
L 694.39882 219.389257 
L 695.891139 220.1939 
L 697.383458 220.54938 
L 706.337372 220.874242 
L 713.798967 220.86964 
L 716.783605 220.948956 
L 722.752882 220.983236 
L 751.106943 221.052206 
L 777.968686 221.036192 
L 789.907238 221.051069 
L 827.215214 221.051517 
L 843.630724 221.063435 
L 849.6 221.078269 
L 849.6 221.078269 
" style="fill:none;stroke:#377eb8;stroke-dasharray:7.4,3.2;stroke-dashoffset:0;stroke-linecap:round;stroke-width:2;"/>
   </g>
   <g id="patch_3">
    <path d="M 87.02497 221.09886 
L 87.02497 14.4 
" style="fill:none;stroke:#262626;stroke-linecap:square;stroke-linejoin:miter;stroke-width:1.25;"/>
   </g>
   <g id="patch_4">
    <path d="M 849.6 221.09886 
L 849.6 14.4 
" style="fill:none;"/>
   </g>
   <g id="patch_5">
    <path d="M 87.02497 221.09886 
L 849.6 221.09886 
" style="fill:none;stroke:#262626;stroke-linecap:square;stroke-linejoin:miter;stroke-width:1.25;"/>
   </g>
   <g id="patch_6">
    <path d="M 87.02497 14.4 
L 849.6 14.4 
" style="fill:none;"/>
   </g>
   <g id="legend_1">
    <g id="patch_7">
     <path d="M 706.15737 65.4222 
L 844.8 65.4222 
Q 848 65.4222 848 62.2222 
L 848 19.2 
Q 848 16 844.8 16 
L 706.15737 16 
Q 702.95737 16 702.95737 19.2 
L 702.95737 62.2222 
Q 702.95737 65.4222 706.15737 65.4222 
z
" style="fill:#ffffff;stroke:#1a1a1a;stroke-linejoin:miter;"/>
    </g>
    <g id="line2d_12">
     <path d="M 709.35737 28 
L 741.35737 28 
" style="fill:none;stroke:#e41a1c;stroke-linecap:round;stroke-width:2;"/>
    </g>
    <g id="line2d_13"/>
    <g id="text_12">
     <!-- \textbf{Nominal} -->
     <defs>
      <path d="M 29 66.90625 
C 28 68 27.90625 68 25.90625 68 
L 3.796875 68 
L 3.796875 63.828125 
L 14.40625 63.828125 
L 14.40625 6.953125 
C 14.40625 4.75 14.296875 4.65625 11.703125 4.25 
C 9.90625 4.0625 7.90625 4.0625 6.09375 4.0625 
L 3.796875 4.0625 
L 3.796875 -0.203125 
C 6.09375 0 13.90625 0 16.703125 0 
C 19.5 0 27.40625 0 29.703125 -0.203125 
L 29.703125 4.0625 
L 27.40625 4.0625 
C 24.703125 4.0625 24.5 4.0625 22.09375 4.359375 
C 19.203125 4.765625 19.09375 4.859375 19.09375 7.046875 
L 19.09375 60.4375 
L 68.59375 1.296875 
C 69.703125 0.09375 69.796875 0 71.09375 0 
C 73.5 0 73.5 0.59375 73.5 2.875 
L 73.5 60.9375 
C 73.5 63.125 73.59375 63.234375 76.203125 63.625 
C 78 63.828125 80 63.828125 81.796875 63.828125 
L 84.09375 63.828125 
L 84.09375 68.109375 
C 81.796875 68 74 68 71.203125 68 
C 68.40625 68 60.5 68 58.203125 68.109375 
L 58.203125 63.828125 
L 60.5 63.828125 
C 63.203125 63.828125 63.40625 63.828125 65.796875 63.53125 
C 68.703125 63.140625 68.796875 63.03125 68.796875 60.828125 
L 68.796875 19.203125 
z
" id="CMBX12-78"/>
      <path d="M 84.40625 30.0625 
C 84.40625 39.15625 80.5 44.28125 69.296875 44.28125 
C 59.203125 44.28125 54.5 37.609375 52.90625 34.46875 
C 51.296875 42.8125 44.5 44.28125 38.09375 44.28125 
C 28.5 44.28125 23.296875 38.203125 21.203125 33.484375 
L 21.09375 33.484375 
L 21.09375 44 
L 4.203125 44 
L 4.203125 39.328125 
C 10.40625 39.328125 11.09375 39.328125 11.09375 35.46875 
L 11.09375 4.0625 
L 4.203125 4.0625 
L 4.203125 -0.203125 
C 6.5 0 13.703125 0 16.5 0 
C 19.296875 0 26.59375 0 28.90625 -0.203125 
L 28.90625 4.0625 
L 22 4.0625 
L 22 25.109375 
C 22 35.875 30.09375 41 36.40625 41 
C 40.09375 41 42.296875 38.828125 42.296875 31.140625 
L 42.296875 4.0625 
L 35.40625 4.0625 
L 35.40625 -0.203125 
C 37.703125 0 44.90625 0 47.703125 0 
C 50.5 0 57.796875 0 60.09375 -0.203125 
L 60.09375 4.0625 
L 53.203125 4.0625 
L 53.203125 25.109375 
C 53.203125 35.875 61.296875 41 67.59375 41 
C 71.296875 41 73.5 38.828125 73.5 31.140625 
L 73.5 4.0625 
L 66.59375 4.0625 
L 66.59375 -0.203125 
C 68.90625 0 76.09375 0 78.90625 0 
C 81.703125 0 89 0 91.296875 -0.203125 
L 91.296875 4.0625 
L 84.40625 4.0625 
z
" id="CMBX12-109"/>
      <path d="M 22.296875 61.84375 
C 22.296875 65.921875 19 69 15.09375 69 
C 11 69 7.90625 65.625 7.90625 61.84375 
C 7.90625 58.0625 11 54.6875 15.09375 54.6875 
C 19 54.6875 22.296875 57.765625 22.296875 61.84375 
z
M 4.703125 44 
L 4.703125 39.328125 
C 10.59375 39.328125 11.296875 39.328125 11.296875 35.46875 
L 11.296875 4.0625 
L 4.40625 4.0625 
L 4.40625 -0.203125 
C 6.703125 0 13.59375 0 16.296875 0 
C 19.09375 0 25.5 0 27.90625 -0.203125 
L 27.90625 4.0625 
L 21.703125 4.0625 
L 21.703125 44 
z
" id="CMBX12-105"/>
      <path d="M 46 29.65625 
C 46 38.8125 38.703125 44.984375 24.59375 44.984375 
C 19 44.984375 7.203125 44.984375 7.203125 36.46875 
C 7.203125 32.203125 10.40625 30.390625 13.09375 30.390625 
C 16.09375 30.390625 19 32.484375 19 36.296875 
C 19 38.203125 18.296875 39.984375 16.59375 41.09375 
C 19.90625 42 22.296875 42 24.203125 42 
C 31 42 35.09375 38.203125 35.09375 29.984375 
L 35.09375 25.984375 
C 19.296875 25.984375 3.40625 21.59375 3.40625 10.5625 
C 3.40625 1.484375 15 -0.5 21.90625 -0.5 
C 29.59375 -0.5 34.5 3.640625 36.5 7.96875 
C 36.5 4.28125 36.5 0 46.59375 0 
L 51.703125 0 
C 53.796875 0 54.59375 0 54.59375 2.265625 
C 54.59375 4.265625 53.703125 4.265625 52.296875 4.265625 
C 46 4.265625 46 5.84375 46 8.15625 
z
M 35.09375 13.78125 
C 35.09375 4.546875 26.703125 2.78125 23.5 2.78125 
C 18.59375 2.78125 14.5 6.09375 14.5 10.71875 
C 14.5 19.890625 25.296875 23 35.09375 23 
z
" id="CMBX12-97"/>
      <path d="M 21.703125 69 
L 4.40625 69 
L 4.40625 64.328125 
C 10.59375 64.328125 11.296875 64.328125 11.296875 60.40625 
L 11.296875 4.0625 
L 4.40625 4.0625 
L 4.40625 -0.203125 
C 6.703125 0 13.796875 0 16.5 0 
C 19.203125 0 26.296875 0 28.59375 -0.203125 
L 28.59375 4.0625 
L 21.703125 4.0625 
z
" id="CMBX12-108"/>
     </defs>
     <g style="fill:#262626;" transform="translate(754.15737 33.6)scale(0.16 -0.16)">
      <use transform="scale(0.996264)" xlink:href="#CMBX12-78"/>
      <use transform="translate(87.634475 0)scale(0.996264)" xlink:href="#CMBX12-111"/>
      <use transform="translate(143.674326 0)scale(0.996264)" xlink:href="#CMBX12-109"/>
      <use transform="translate(237.074076 0)scale(0.996264)" xlink:href="#CMBX12-105"/>
      <use transform="translate(268.207327 0)scale(0.996264)" xlink:href="#CMBX12-110"/>
      <use transform="translate(330.473827 0)scale(0.996264)" xlink:href="#CMBX12-97"/>
      <use transform="translate(384.957015 0)scale(0.996264)" xlink:href="#CMBX12-108"/>
     </g>
    </g>
    <g id="line2d_14">
     <path d="M 709.35737 50.3111 
L 741.35737 50.3111 
" style="fill:none;stroke:#377eb8;stroke-dasharray:7.4,3.2;stroke-dashoffset:0;stroke-linecap:round;stroke-width:2;"/>
    </g>
    <g id="line2d_15"/>
    <g id="text_13">
     <!-- \textbf{Anomalous} -->
     <defs>
      <path d="M 45.796875 67.203125 
C 45.09375 69 44.90625 69.5 42.5 69.5 
C 40 69.5 39.796875 69 39.09375 67.203125 
L 14.296875 6.453125 
C 13.59375 4.859375 13.59375 4.671875 10.796875 4.359375 
C 8.296875 4.0625 7.90625 4.0625 5.703125 4.0625 
L 3.90625 4.0625 
L 3.90625 -0.203125 
C 6.5 0 12.5 0 15.40625 0 
C 18.09375 0 25.40625 0 27.703125 -0.203125 
L 27.703125 4.0625 
C 25.5 4.0625 21.703125 4.0625 18.90625 5.171875 
C 19.203125 6.09375 19.203125 6.28125 19.40625 6.6875 
L 24.703125 19.71875 
L 51.5 19.71875 
L 57.796875 4.0625 
L 48.40625 4.0625 
L 48.40625 0 
C 51.59375 0 61.296875 0 65.09375 0 
C 68.296875 0 78.5 0 81 -0.203125 
L 81 4.0625 
L 71.5 4.0625 
z
M 38.09375 52.609375 
L 49.703125 24 
L 26.40625 24 
z
" id="CMBX12-65"/>
      <path d="M 37.703125 42.421875 
C 37.703125 44.3125 37.703125 45 36.203125 45 
C 35.59375 45 35.40625 45 33.90625 44.109375 
C 33.5 43.8125 32.40625 43.109375 31.90625 42.8125 
C 29.09375 44.40625 25.40625 45 21.796875 45 
C 18.796875 45 3.796875 45 3.796875 32.125 
C 3.796875 21.703125 16.203125 19.53125 19.296875 19.03125 
C 22 18.546875 25.296875 17.9375 25.703125 17.9375 
C 29.703125 17.046875 33.703125 14.5625 33.703125 10.40625 
C 33.703125 2.78125 24.59375 2.78125 22.5 2.78125 
C 17.40625 2.78125 11.09375 4.359375 8.296875 14 
C 7.703125 15.984375 7.59375 15.984375 5.90625 15.984375 
C 3.796875 15.984375 3.796875 15.6875 3.796875 13.40625 
L 3.796875 2.0625 
C 3.796875 0.1875 3.796875 -0.5 5.296875 -0.5 
C 6 -0.5 6.203125 -0.5 8.203125 1.09375 
L 10.796875 2.984375 
C 15.296875 -0.5 20.703125 -0.5 22.5 -0.5 
C 28 -0.5 40.5 0.6875 40.5 13.875 
C 40.5 18.625 37.90625 21.90625 35.90625 23.6875 
C 31.796875 27.046875 28.40625 27.65625 23 28.640625 
C 16.59375 29.734375 10.59375 30.828125 10.59375 35.578125 
C 10.59375 42.015625 19.5 42.015625 21.59375 42.015625 
C 32.703125 42.015625 33.296875 35.078125 33.5 32.609375 
C 33.59375 31.328125 34.40625 31.328125 35.59375 31.328125 
C 37.703125 31.328125 37.703125 31.625 37.703125 33.90625 
z
" id="CMBX12-115"/>
     </defs>
     <g style="fill:#262626;" transform="translate(754.15737 55.9111)scale(0.16 -0.16)">
      <use transform="scale(0.996264)" xlink:href="#CMBX12-65"/>
      <use transform="translate(84.636395 0)scale(0.996264)" xlink:href="#CMBX12-110"/>
      <use transform="translate(146.902895 0)scale(0.996264)" xlink:href="#CMBX12-111"/>
      <use transform="translate(202.942746 0)scale(0.996264)" xlink:href="#CMBX12-109"/>
      <use transform="translate(296.342497 0)scale(0.996264)" xlink:href="#CMBX12-97"/>
      <use transform="translate(350.825685 0)scale(0.996264)" xlink:href="#CMBX12-108"/>
      <use transform="translate(381.958935 0)scale(0.996264)" xlink:href="#CMBX12-111"/>
      <use transform="translate(437.998786 0)scale(0.996264)" xlink:href="#CMBX12-117"/>
      <use transform="translate(500.265286 0)scale(0.996264)" xlink:href="#CMBX12-115"/>
     </g>
    </g>
   </g>
  </g>
 </g>
 <defs>
  <clipPath id="pcbdc2a5e57">
   <rect height="206.69886" width="762.57503" x="87.02497" y="14.4"/>
  </clipPath>
 </defs>
</svg>
