<?xml version="1.0" encoding="utf-8" standalone="no"?>
<!DOCTYPE svg PUBLIC "-//W3C//DTD SVG 1.1//EN"
  "http://www.w3.org/Graphics/SVG/1.1/DTD/svg11.dtd">
<!-- Created with matplotlib (https://matplotlib.org/) -->
<svg height="288pt" version="1.1" viewBox="0 0 864 288" width="864pt" xmlns="http://www.w3.org/2000/svg" xmlns:xlink="http://www.w3.org/1999/xlink">
 <defs>
  <style type="text/css">
*{stroke-linecap:butt;stroke-linejoin:round;}
  </style>
 </defs>
 <g id="figure_1">
  <g id="patch_1">
   <path d="M 0 288 
L 864 288 
L 864 0 
L 0 0 
z
" style="fill:#ffffff;"/>
  </g>
  <g id="axes_1">
   <g id="patch_2">
    <path d="M 87.02497 221.09886 
L 849.6 221.09886 
L 849.6 16.959866 
L 87.02497 16.959866 
z
" style="fill:#ffffff;"/>
   </g>
   <g id="matplotlib.axis_1">
    <g id="xtick_1">
     <g id="line2d_1">
      <defs>
       <path d="M 0 0 
L 0 6 
" id="mbab3486b01" style="stroke:#262626;stroke-width:1.25;"/>
      </defs>
      <g>
       <use style="fill:#262626;stroke:#262626;stroke-width:1.25;" x="239.83844" xlink:href="#mbab3486b01" y="221.09886"/>
      </g>
     </g>
     <g id="text_1">
      <!-- $2$ -->
      <defs>
       <path d="M 50.5 21.375 
L 46.296875 21.375 
C 46 19.28125 45.296875 13.40625 43.796875 12.421875 
C 43 11.71875 35.203125 11.71875 33.703125 11.71875 
L 18.203125 11.71875 
C 22 14.90625 31.09375 22.46875 32.59375 23.578125 
C 43.703125 31.84375 50.5 36.90625 50.5 46.46875 
C 50.5 58.203125 39.796875 65.28125 26.59375 65.28125 
C 15.296875 65.28125 5.59375 58.90625 5.59375 49.453125 
C 5.59375 44.171875 9.90625 42.6875 12.203125 42.6875 
C 15.296875 42.6875 18.90625 44.765625 18.90625 49.359375 
C 18.90625 53.546875 15.796875 55.625 12.703125 56.03125 
C 16.703125 60.609375 22 61 24.09375 61 
C 33.296875 61 37.703125 53.546875 37.703125 46.375 
C 37.703125 38.609375 32.40625 31.453125 28.296875 27.171875 
L 6.59375 4.578125 
C 5.59375 3.671875 5.59375 3.484375 5.59375 1.6875 
L 5.59375 0 
L 47.59375 0 
z
" id="CMBX12-50"/>
      </defs>
      <g style="fill:#262626;" transform="translate(234.77594 243.09886)scale(0.18 -0.18)">
       <use transform="scale(0.996264)" xlink:href="#CMBX12-50"/>
      </g>
     </g>
    </g>
    <g id="xtick_2">
     <g id="line2d_2">
      <g>
       <use style="fill:#262626;stroke:#262626;stroke-width:1.25;" x="392.65191" xlink:href="#mbab3486b01" y="221.09886"/>
      </g>
     </g>
     <g id="text_2">
      <!-- $4$ -->
      <defs>
       <path d="M 43.296875 15.71875 
L 53 15.71875 
L 53 20 
L 43.296875 20 
L 43.296875 62.609375 
C 43.296875 65.09375 43.203125 65.5 40.703125 65.5 
C 38.90625 65.5 38.703125 65.5 37.5 64 
L 3.09375 20 
L 3.09375 15.71875 
L 31.5 15.71875 
L 31.5 4.171875 
L 20.59375 4.171875 
L 20.59375 0 
C 23.5 0 33.40625 0 37 0 
C 40.40625 0 50.296875 0 53 -0.09375 
L 53 4.171875 
L 43.296875 4.171875 
z
M 32.40625 51.59375 
L 32.40625 20 
L 7.703125 20 
z
" id="CMBX12-52"/>
      </defs>
      <g style="fill:#262626;" transform="translate(387.58941 243.09886)scale(0.18 -0.18)">
       <use transform="scale(0.996264)" xlink:href="#CMBX12-52"/>
      </g>
     </g>
    </g>
    <g id="xtick_3">
     <g id="line2d_3">
      <g>
       <use style="fill:#262626;stroke:#262626;stroke-width:1.25;" x="545.465379" xlink:href="#mbab3486b01" y="221.09886"/>
      </g>
     </g>
     <g id="text_3">
      <!-- $6$ -->
      <defs>
       <path d="M 17.40625 36.25 
C 17.40625 42.328125 17.703125 48.53125 20.5 53.90625 
C 22.703125 58.109375 27.796875 62 34.296875 62 
C 36.203125 62 39.796875 61.703125 42.203125 59.203125 
C 38.40625 58.8125 36.796875 56.015625 36.796875 53.3125 
C 36.796875 49.703125 39.5 47.40625 42.703125 47.40625 
C 45.296875 47.40625 48.59375 49.109375 48.59375 53.5 
C 48.59375 59.484375 44.59375 65.578125 34.09375 65.578125 
C 21.59375 65.578125 4.703125 57.796875 4.703125 31.796875 
C 4.703125 25.109375 4.703125 -1 28.40625 -1 
C 41.59375 -1 51.40625 6.765625 51.40625 20.703125 
C 51.40625 34.640625 41.703125 42 29.796875 42 
C 27.796875 42 21.40625 42 17.40625 33.546875 
z
M 28.296875 2.96875 
C 21.90625 2.96875 19.40625 8.34375 19 9.140625 
C 17.59375 12.4375 17.59375 20.40625 17.59375 21.296875 
C 17.59375 33.546875 22.90625 38.734375 28.796875 38.734375 
C 38.703125 38.734375 38.703125 30.765625 38.703125 20.796875 
C 38.703125 10.9375 38.703125 2.96875 28.296875 2.96875 
z
" id="CMBX12-54"/>
      </defs>
      <g style="fill:#262626;" transform="translate(540.402879 243.09886)scale(0.18 -0.18)">
       <use transform="scale(0.996264)" xlink:href="#CMBX12-54"/>
      </g>
     </g>
    </g>
    <g id="xtick_4">
     <g id="line2d_4">
      <g>
       <use style="fill:#262626;stroke:#262626;stroke-width:1.25;" x="698.278849" xlink:href="#mbab3486b01" y="221.09886"/>
      </g>
     </g>
     <g id="text_4">
      <!-- $8$ -->
      <defs>
       <path d="M 37.703125 36.921875 
C 42.703125 39.515625 48.296875 43.203125 48.296875 51 
C 48.296875 61.28125 39.09375 65.671875 28.203125 65.671875 
C 14.90625 65.671875 7.796875 58.09375 7.796875 48.40625 
C 7.796875 43.03125 10.5 37.03125 17.90625 33.140625 
C 6.59375 28.140625 4.703125 21.265625 4.703125 16.078125 
C 4.703125 4.59375 14.703125 -1 27.90625 -1 
C 42.703125 -1 51.40625 6.96875 51.40625 18.5625 
C 51.40625 29.4375 42.796875 34.140625 37.703125 36.921875 
z
M 19.703125 47.265625 
C 17.703125 48.375 14.90625 50.671875 14.90625 53.984375 
C 14.90625 62 25.59375 62 27.90625 62 
C 36.40625 62 41.203125 57.53125 41.203125 50.96875 
C 41.203125 46.890625 39.40625 42.609375 33.703125 39.328125 
z
M 22 30.59375 
L 35.796875 22.734375 
C 39.09375 20.84375 43.40625 18.46875 43.40625 13.40625 
C 43.40625 5.453125 35.40625 2.96875 28.203125 2.96875 
C 18.296875 2.96875 12.703125 8.234375 12.703125 16.078125 
C 12.703125 23.328125 17.203125 27.90625 22 30.59375 
z
" id="CMBX12-56"/>
      </defs>
      <g style="fill:#262626;" transform="translate(693.216349 243.09886)scale(0.18 -0.18)">
       <use transform="scale(0.996264)" xlink:href="#CMBX12-56"/>
      </g>
     </g>
    </g>
    <g id="text_5">
     <!-- \textbf{Frequency (kHz)} -->
     <defs>
      <path d="M 63 67.28125 
L 3.796875 67.28125 
L 3.796875 63 
L 14.40625 63 
L 14.40625 4.171875 
L 3.796875 4.171875 
L 3.796875 0 
C 6.703125 0 18.09375 0 21.796875 0 
C 27.09375 0 36 0 40.90625 0 
L 40.90625 4.171875 
L 27.59375 4.171875 
L 27.59375 31.71875 
L 33.09375 31.71875 
C 42.703125 31.71875 43.5 27.3125 43.5 20 
L 47.703125 20 
L 47.703125 47.53125 
L 43.5 47.53125 
C 43.5 40.328125 42.703125 36 33.09375 36 
L 27.59375 36 
L 27.59375 63 
L 41.90625 63 
C 57.796875 63 60.296875 55.875 61.703125 44.078125 
L 65.90625 44.078125 
z
" id="CMBX12-70"/>
      <path d="M 20.796875 22.046875 
C 20.796875 25.296875 21.5 41 33.203125 41 
C 31.796875 39.921875 31.09375 38.25 31.09375 36.5 
C 31.09375 32.484375 34.40625 30.8125 36.90625 30.8125 
C 39.40625 30.8125 42.703125 32.484375 42.703125 36.515625 
C 42.703125 41.53125 37.5 44.28125 32.703125 44.28125 
C 24.796875 44.28125 21.40625 37.515625 20 33.390625 
L 19.90625 33.390625 
L 19.90625 44 
L 3.5 44 
L 3.5 39.328125 
C 9.703125 39.328125 10.40625 39.328125 10.40625 35.46875 
L 10.40625 4.0625 
L 3.5 4.0625 
L 3.5 -0.203125 
C 5.796875 0 13.296875 0 16.09375 0 
C 19 0 27.09375 0 29.5 -0.203125 
L 29.5 4.0625 
L 20.796875 4.0625 
z
" id="CMBX12-114"/>
      <path d="M 45.203125 22 
C 47.5 22 48.09375 22 48.09375 24.484375 
C 48.09375 27.46875 47.40625 34.890625 42.796875 39.5625 
C 38.59375 43.71875 33 45 27.203125 45 
C 11.59375 45 3.09375 34.890625 3.09375 22.40625 
C 3.09375 8.515625 13.40625 -0.5 28.5 -0.5 
C 43.59375 -0.5 48.09375 10 48.09375 11.6875 
C 48.09375 13.171875 46.59375 13.171875 46 13.171875 
C 44.40625 13.171875 44.296875 12.875 43.703125 11.59375 
C 41.09375 5.15625 34.5 3.078125 29.703125 3.078125 
C 15.203125 3.078125 15.09375 16.453125 15.09375 22 
z
M 15.09375 24.890625 
C 15.296875 28.9375 15.40625 32.8125 17.5 36.375 
C 19.40625 39.546875 22.90625 41.71875 27.203125 41.71875 
C 37.90625 41.71875 38.796875 29.828125 38.90625 24.890625 
z
" id="CMBX12-101"/>
      <path d="M 52 44.578125 
L 48.296875 44.578125 
L 43 36.359375 
C 39.5 41.421875 34.59375 44.578125 28 44.578125 
C 14.203125 44.578125 3.796875 36.078125 3.796875 22.03125 
C 3.796875 7.890625 13.796875 -0.5 27 -0.5 
C 30.796875 -0.5 35.90625 0.296875 41.09375 5.15625 
L 41.09375 -14.921875 
L 34.203125 -14.921875 
L 34.203125 -19.1875 
C 36.5 -19 43.703125 -19 46.5 -19 
C 49.296875 -19 56.59375 -19 58.90625 -19.1875 
L 58.90625 -14.921875 
L 52 -14.921875 
z
M 41.59375 11.859375 
C 37.40625 4.046875 31.5 2.78125 28.203125 2.78125 
C 21.796875 2.78125 15.796875 8.609375 15.796875 21.9375 
C 15.796875 36.359375 23.40625 41 29.296875 41 
C 37.09375 41 41.59375 33 41.59375 28.453125 
z
" id="CMBX12-113"/>
      <path d="M 35.296875 44.671875 
L 35.296875 40 
C 41.5 40 42.203125 40 42.203125 36.125 
L 42.203125 16.5 
C 42.203125 8.890625 37.703125 2.78125 29.90625 2.78125 
C 22.40625 2.78125 22 5.265625 22 10.6875 
L 22 44.671875 
L 4.203125 44.671875 
L 4.203125 40 
C 10.40625 40 11.09375 40 11.09375 36.125 
L 11.09375 12.40625 
C 11.09375 2.390625 17.796875 -0.5 28.5 -0.5 
C 30.90625 -0.5 38.296875 -0.5 42.59375 7.75 
L 42.703125 7.75 
L 42.703125 0 
L 60 0 
L 60 4.5625 
C 53.796875 4.5625 53.09375 4.5625 53.09375 8.4375 
L 53.09375 44.671875 
z
" id="CMBX12-117"/>
      <path d="M 53.09375 30.0625 
C 53.09375 39.453125 49 44.28125 38 44.28125 
C 30.796875 44.28125 24.59375 40.859375 21.203125 33.484375 
L 21.09375 33.484375 
L 21.09375 44 
L 4.203125 44 
L 4.203125 39.328125 
C 10.40625 39.328125 11.09375 39.328125 11.09375 35.46875 
L 11.09375 4.0625 
L 4.203125 4.0625 
L 4.203125 -0.203125 
C 6.5 0 13.703125 0 16.5 0 
C 19.296875 0 26.59375 0 28.90625 -0.203125 
L 28.90625 4.0625 
L 22 4.0625 
L 22 25.109375 
C 22 35.765625 30 41 36.40625 41 
C 40.09375 41 42.203125 38.640625 42.203125 31.140625 
L 42.203125 4.0625 
L 35.296875 4.0625 
L 35.296875 -0.203125 
C 37.59375 0 44.796875 0 47.59375 0 
C 50.40625 0 57.703125 0 60 -0.203125 
L 60 4.0625 
L 53.09375 4.0625 
z
" id="CMBX12-110"/>
      <path d="M 46.796875 11.765625 
C 46.796875 12.953125 45.703125 12.953125 44.703125 12.953125 
C 43.09375 12.953125 43 12.859375 42.5 11.671875 
C 41.796875 9.765625 39.09375 3.078125 29.90625 3.078125 
C 15.796875 3.078125 15.796875 18.21875 15.796875 22.703125 
C 15.796875 28.578125 15.90625 41.625 29 41.625 
C 29.703125 41.625 35.59375 41.625 35.59375 41.125 
C 35.59375 41 35.5 40.90625 35.296875 40.8125 
C 35 40.515625 33.703125 39 33.703125 36.46875 
C 33.703125 32.25 37.09375 30.53125 39.59375 30.53125 
C 41.703125 30.53125 45.5 31.859375 45.5 36.65625 
C 45.5 45 34 45 28.59375 45 
C 10.796875 45 3.796875 33.515625 3.796875 22.09375 
C 3.796875 8.625 13.296875 -0.5 28 -0.5 
C 43.703125 -0.5 46.796875 11.0625 46.796875 11.765625 
z
" id="CMBX12-99"/>
      <path d="M 49.5 37.828125 
C 50.09375 39.203125 50.5 40 56.90625 40 
L 56.90625 44.171875 
C 53.5 44.171875 53.09375 44.171875 49 44.171875 
C 46.296875 44.171875 46.09375 44.171875 40.40625 44.171875 
L 40.40625 40 
C 40.5 40 45.203125 40 45.203125 38.71875 
C 45.203125 38.421875 44.90625 37.828125 44.796875 37.53125 
L 33.09375 12.578125 
L 20.296875 40 
L 25.796875 40 
L 25.796875 44.265625 
C 23.40625 44.171875 16.59375 44.171875 13.796875 44.171875 
C 10.90625 44.171875 5 44.171875 2.40625 44.265625 
L 2.40625 40 
L 8.796875 40 
L 27.296875 0.3125 
C 26.796875 -0.875 25.40625 -3.75 24.90625 -4.9375 
C 22.796875 -9.390625 19.59375 -16.21875 12.59375 -16.21875 
C 12.203125 -16.21875 11 -16.21875 9.90625 -15.625 
C 10.09375 -15.515625 13.09375 -14.328125 13.09375 -10.5625 
C 13.09375 -7.3125 10.703125 -5.234375 7.703125 -5.234375 
C 4.59375 -5.234375 2.203125 -7.328125 2.203125 -10.6875 
C 2.203125 -15.34375 6.59375 -19.5 12.59375 -19.5 
C 20.796875 -19.5 26.203125 -12.171875 28.203125 -7.8125 
z
" id="CMBX12-121"/>
      <path d="M 37.40625 -23.8125 
C 37.40625 -23.40625 37.40625 -23.203125 35.5 -21.421875 
C 24.296875 -10.296875 20 7.203125 20 24.6875 
C 20 44.28125 24.90625 60.390625 36.09375 71.609375 
C 37.296875 72.796875 37.40625 72.90625 37.40625 73.296875 
C 37.40625 74.5 36.203125 74.5 35.703125 74.5 
C 34.796875 74.5 34.59375 74.5 32 72.40625 
C 17.59375 60.984375 10.796875 42.6875 10.796875 24.8125 
C 10.796875 6.515625 17.703125 -11.28125 31.90625 -22.8125 
C 34.5 -25 34.703125 -25 35.703125 -25 
C 36.203125 -25 37.40625 -25 37.40625 -23.8125 
z
" id="CMBX12-40"/>
      <path d="M 33.203125 27.8125 
L 45.796875 38.03125 
C 47 39.03125 48.09375 39.9375 55 39.9375 
L 55 44.203125 
C 52.40625 44 50.40625 44 46.703125 44 
C 44.09375 44 38.5 44 36.203125 44.203125 
L 36.203125 39.9375 
C 37.40625 39.9375 39.796875 39.640625 39.796875 38.828125 
C 39.796875 38.421875 39.203125 38.03125 39 37.828125 
L 20.796875 23.203125 
L 20.796875 69 
L 3.5 69 
L 3.5 64.328125 
C 9.703125 64.328125 10.40625 64.328125 10.40625 60.390625 
L 10.40625 4.0625 
L 3.5 4.0625 
L 3.5 -0.203125 
C 5.796875 0 12.703125 0 15.40625 0 
C 18.09375 0 25 0 27.296875 -0.203125 
L 27.296875 4.0625 
L 20.40625 4.0625 
L 20.40625 17.484375 
C 22 18.703125 23.5 19.984375 25.703125 21.796875 
L 37.796875 6.171875 
C 38.5 5.375 38.5 5.171875 38.5 5.078125 
C 38.5 4.0625 36.5 4.0625 35.09375 4.0625 
L 35.09375 -0.203125 
C 37.5 0 44.09375 0 46.796875 0 
C 51.90625 0 53.296875 0 57.5 0 
L 57.5 4.0625 
C 55.90625 4.0625 53.90625 4.0625 52.796875 4.171875 
C 51.40625 4.46875 51 4.765625 49.90625 6.171875 
z
" id="CMBX12-107"/>
      <path d="M 73.5 63.828125 
L 84.09375 63.828125 
L 84.09375 68 
C 81.203125 68 70.5 68 66.90625 68 
C 63.296875 68 52.59375 68 49.703125 68 
L 49.703125 63.828125 
L 60.296875 63.828125 
L 60.296875 37.265625 
L 27.59375 37.265625 
L 27.59375 63.828125 
L 38.203125 63.828125 
L 38.203125 68 
C 35.296875 68 24.59375 68 21 68 
C 17.40625 68 6.703125 68 3.796875 68 
L 3.796875 63.828125 
L 14.40625 63.828125 
L 14.40625 4.171875 
L 3.796875 4.171875 
L 3.796875 0 
C 6.703125 0 17.40625 0 21 0 
C 24.59375 0 35.296875 0 38.203125 0 
L 38.203125 4.171875 
L 27.59375 4.171875 
L 27.59375 33 
L 60.296875 33 
L 60.296875 4.171875 
L 49.703125 4.171875 
L 49.703125 0 
C 52.59375 0 63.296875 0 66.90625 0 
C 70.5 0 81.203125 0 84.09375 0 
L 84.09375 4.171875 
L 73.5 4.171875 
z
" id="CMBX12-72"/>
      <path d="M 44 40.234375 
C 44.90625 41.3125 44.90625 41.515625 44.90625 42.109375 
C 44.90625 44 43.90625 44 42 44 
L 5.796875 44 
L 4.703125 26.953125 
L 8.90625 26.953125 
C 9.5 36.359375 11.703125 40.71875 22.796875 40.71875 
L 31.796875 40.71875 
L 4 3.953125 
C 3.09375 2.875 3.09375 2.6875 3.09375 1.984375 
C 3.09375 0 4 0 6 0 
L 43.5 0 
L 45.203125 19.625 
L 41 19.625 
C 40.203125 9.125 38 3.578125 25.40625 3.578125 
L 16.296875 3.578125 
z
" id="CMBX12-122"/>
      <path d="M 32.796875 24.703125 
C 32.796875 42.984375 25.90625 60.78125 11.703125 72.3125 
C 9.09375 74.5 8.90625 74.5 7.90625 74.5 
C 7.40625 74.5 6.203125 74.5 6.203125 73.3125 
C 6.203125 72.921875 6.203125 72.71875 8.09375 70.9375 
C 19.296875 59.796875 23.59375 42.3125 23.59375 24.8125 
C 23.59375 5.21875 18.703125 -10.875 7.5 -22.109375 
C 6.296875 -23.3125 6.203125 -23.40625 6.203125 -23.8125 
C 6.203125 -25 7.40625 -25 7.90625 -25 
C 8.796875 -25 9 -25 11.59375 -22.90625 
C 26 -11.484375 32.796875 6.8125 32.796875 24.703125 
z
" id="CMBX12-41"/>
     </defs>
     <g style="fill:#262626;" transform="translate(377.447885 268.1)scale(0.22 -0.22)">
      <use transform="translate(0 -0.0934)scale(0.996264)" xlink:href="#CMBX12-70"/>
      <use transform="translate(61.113445 -0.0934)scale(0.996264)" xlink:href="#CMBX12-114"/>
      <use transform="translate(106.890953 -0.0934)scale(0.996264)" xlink:href="#CMBX12-101"/>
      <use transform="translate(158.03022 -0.0934)scale(0.996264)" xlink:href="#CMBX12-113"/>
      <use transform="translate(217.183396 -0.0934)scale(0.996264)" xlink:href="#CMBX12-117"/>
      <use transform="translate(279.449896 -0.0934)scale(0.996264)" xlink:href="#CMBX12-101"/>
      <use transform="translate(330.589163 -0.0934)scale(0.996264)" xlink:href="#CMBX12-110"/>
      <use transform="translate(392.855664 -0.0934)scale(0.996264)" xlink:href="#CMBX12-99"/>
      <use transform="translate(442.668864 -0.0934)scale(0.996264)" xlink:href="#CMBX12-121"/>
      <use transform="translate(539.18194 -0.0934)scale(0.996264)" xlink:href="#CMBX12-40"/>
      <use transform="translate(582.768491 -0.0934)scale(0.996264)" xlink:href="#CMBX12-107"/>
      <use transform="translate(641.921666 -0.0934)scale(0.996264)" xlink:href="#CMBX12-72"/>
      <use transform="translate(729.556141 -0.0934)scale(0.996264)" xlink:href="#CMBX12-122"/>
      <use transform="translate(779.369342 -0.0934)scale(0.996264)" xlink:href="#CMBX12-41"/>
     </g>
    </g>
   </g>
   <g id="matplotlib.axis_2">
    <g id="ytick_1">
     <g id="line2d_5">
      <defs>
       <path d="M 0 0 
L -6 0 
" id="m9d7a3a23e1" style="stroke:#262626;stroke-width:1.25;"/>
      </defs>
      <g>
       <use style="fill:#262626;stroke:#262626;stroke-width:1.25;" x="87.02497" xlink:href="#m9d7a3a23e1" y="221.09886"/>
      </g>
     </g>
     <g id="text_6">
      <!-- $0.00$ -->
      <defs>
       <path d="M 51.703125 31.84375 
C 51.703125 41.375 51.703125 65.28125 28.09375 65.28125 
C 4.40625 65.28125 4.40625 41.46875 4.40625 31.84375 
C 4.40625 22.3125 4.40625 -1 28 -1 
C 51.59375 -1 51.703125 22.015625 51.703125 31.84375 
z
M 28.09375 2.28125 
C 24.90625 2.28125 22.5 3.5625 20.5 5.65625 
C 18 8.140625 16.40625 9.703125 16.40625 33.03125 
C 16.40625 39.984375 16.40625 46.3125 17.203125 51.484375 
C 18.59375 61.3125 25.796875 62 28 62 
C 31.203125 62 37.40625 60.515625 38.796875 52.1875 
C 39.703125 47.109375 39.703125 39.078125 39.703125 33.03125 
C 39.703125 9.609375 38.203125 8.234375 35.203125 5.25 
C 33.203125 3.265625 30.5 2.28125 28.09375 2.28125 
z
" id="CMBX12-48"/>
       <path d="M 23.703125 7.765625 
C 23.703125 12.046875 20.203125 15.53125 15.90625 15.53125 
C 11.59375 15.53125 8.09375 12.046875 8.09375 7.765625 
C 8.09375 3.484375 11.59375 0 15.90625 0 
C 20.203125 0 23.703125 3.484375 23.703125 7.765625 
z
" id="CMMIB10-58"/>
      </defs>
      <g style="fill:#262626;" transform="translate(41.4 227.34886)scale(0.18 -0.18)">
       <use transform="scale(0.996264)" xlink:href="#CMBX12-48"/>
       <use transform="translate(56.039851 0)scale(0.996264)" xlink:href="#CMMIB10-58"/>
       <use transform="translate(87.864782 0)scale(0.996264)" xlink:href="#CMBX12-48"/>
       <use transform="translate(143.904633 0)scale(0.996264)" xlink:href="#CMBX12-48"/>
      </g>
     </g>
    </g>
    <g id="ytick_2">
     <g id="line2d_6">
      <g>
       <use style="fill:#262626;stroke:#262626;stroke-width:1.25;" x="87.02497" xlink:href="#m9d7a3a23e1" y="154.393875"/>
      </g>
     </g>
     <g id="text_7">
      <!-- $0.01$ -->
      <defs>
       <path d="M 34.59375 62.109375 
C 34.59375 65 34.40625 65 31.203125 65 
C 23.796875 59 12.703125 59 10.5 59 
L 8.59375 59 
L 8.59375 54.734375 
L 10.5 54.734375 
C 14 54.734375 19.296875 55.328125 23.296875 56.625 
L 23.296875 4.171875 
L 9.40625 4.171875 
L 9.40625 0 
C 13.59375 0 24.09375 0 28.796875 0 
C 33.5 0 44.09375 0 48.296875 0 
L 48.296875 4.171875 
L 34.59375 4.171875 
z
" id="CMBX12-49"/>
      </defs>
      <g style="fill:#262626;" transform="translate(41.4 160.643875)scale(0.18 -0.18)">
       <use transform="scale(0.996264)" xlink:href="#CMBX12-48"/>
       <use transform="translate(56.039851 0)scale(0.996264)" xlink:href="#CMMIB10-58"/>
       <use transform="translate(87.864782 0)scale(0.996264)" xlink:href="#CMBX12-48"/>
       <use transform="translate(143.904633 0)scale(0.996264)" xlink:href="#CMBX12-49"/>
      </g>
     </g>
    </g>
    <g id="ytick_3">
     <g id="line2d_7">
      <g>
       <use style="fill:#262626;stroke:#262626;stroke-width:1.25;" x="87.02497" xlink:href="#m9d7a3a23e1" y="87.68889"/>
      </g>
     </g>
     <g id="text_8">
      <!-- $0.02$ -->
      <g style="fill:#262626;" transform="translate(41.4 93.93889)scale(0.18 -0.18)">
       <use transform="scale(0.996264)" xlink:href="#CMBX12-48"/>
       <use transform="translate(56.039851 0)scale(0.996264)" xlink:href="#CMMIB10-58"/>
       <use transform="translate(87.864782 0)scale(0.996264)" xlink:href="#CMBX12-48"/>
       <use transform="translate(143.904633 0)scale(0.996264)" xlink:href="#CMBX12-50"/>
      </g>
     </g>
    </g>
    <g id="ytick_4">
     <g id="line2d_8">
      <g>
       <use style="fill:#262626;stroke:#262626;stroke-width:1.25;" x="87.02497" xlink:href="#m9d7a3a23e1" y="20.983906"/>
      </g>
     </g>
     <g id="text_9">
      <!-- $0.03$ -->
      <defs>
       <path d="M 26.09375 33 
C 37.296875 33 37.296875 22.71875 37.296875 17.984375 
C 37.296875 13.53125 37.296875 3.0625 26.5 3.0625 
C 24.40625 3.0625 17.796875 3.0625 13 6.625 
C 17.296875 7.515625 18.796875 10.59375 18.796875 13.5625 
C 18.796875 17.625 15.90625 20.5 11.796875 20.5 
C 7.59375 20.5 4.703125 17.625 4.703125 13.46875 
C 4.703125 4.34375 14.703125 -1 27 -1 
C 43.5 -1 51.40625 8.015625 51.40625 17.921875 
C 51.40625 22.796875 48.90625 32.203125 33.40625 34.875 
C 42.203125 37.59375 48.296875 43.8125 48.296875 51.71875 
C 48.296875 59.25 41.09375 65.578125 27.203125 65.578125 
C 16 65.578125 7.796875 59.65625 7.796875 51.53125 
C 7.796875 46.515625 11.703125 44.90625 14.296875 44.90625 
C 17.203125 44.90625 20.703125 46.8125 20.703125 51.4375 
C 20.703125 53.765625 19.703125 57.171875 15 57.875 
C 19.203125 62 26 62 26.59375 62 
C 35.5 62 35.5 55.03125 35.5 52.015625 
C 35.5 48.984375 35.09375 44.328125 31.90625 40.203125 
C 29.296875 36.75 26.703125 36.5625 22.90625 36.5625 
C 21.703125 36.265625 19.703125 36.265625 19.296875 36.078125 
C 18.703125 35.78125 18.703125 35.078125 18.703125 34.6875 
C 18.703125 33 19.296875 33 21.296875 33 
z
" id="CMBX12-51"/>
      </defs>
      <g style="fill:#262626;" transform="translate(41.4 27.233906)scale(0.18 -0.18)">
       <use transform="scale(0.996264)" xlink:href="#CMBX12-48"/>
       <use transform="translate(56.039851 0)scale(0.996264)" xlink:href="#CMMIB10-58"/>
       <use transform="translate(87.864782 0)scale(0.996264)" xlink:href="#CMBX12-48"/>
       <use transform="translate(143.904633 0)scale(0.996264)" xlink:href="#CMBX12-51"/>
      </g>
     </g>
    </g>
    <g id="text_10">
     <!-- \textbf{Power (g RMS)} -->
     <defs>
      <path d="M 27.59375 30.21875 
L 44.59375 30.21875 
C 61.296875 30.21875 70.59375 38.65625 70.59375 48.875 
C 70.59375 59.5625 61.09375 68 44.59375 68 
L 3.796875 68 
L 3.796875 63.71875 
L 14.40625 63.71875 
L 14.40625 4.171875 
L 3.796875 4.171875 
L 3.796875 0 
C 6.703125 0 17.40625 0 21 0 
C 24.59375 0 35.296875 0 38.203125 0 
L 38.203125 4.171875 
L 27.59375 4.171875 
z
M 41 63.71875 
C 56.5 63.71875 56.5 55.59375 56.5 48.859375 
C 56.5 42.328125 56.5 34 41 34 
L 27.09375 34 
L 27.09375 63.71875 
z
" id="CMBX12-80"/>
      <path d="M 53 21.796875 
C 53 35.1875 43.796875 45 28.09375 45 
C 11.796875 45 3.09375 34.6875 3.09375 21.796875 
C 3.09375 8.828125 12.296875 -0.5 28 -0.5 
C 44.296875 -0.5 53 9.3125 53 21.796875 
z
M 28.09375 3.078125 
C 15.09375 3.078125 15.09375 14.671875 15.09375 22.796875 
C 15.09375 27.453125 15.09375 32.40625 17 35.984375 
C 19.203125 39.9375 23.703125 41.71875 28 41.71875 
C 33.703125 41.71875 37.296875 39.046875 39 36.28125 
C 41 32.703125 41 27.546875 41 22.796875 
C 41 14.5625 41 3.078125 28.09375 3.078125 
z
" id="CMBX12-111"/>
      <path d="M 72 37.4375 
C 72.703125 39.125 73 39.828125 78.796875 39.828125 
L 78.796875 44 
C 75.90625 44 74.59375 44 71 44 
C 66.90625 44 65.59375 44 62 44 
L 62 39.828125 
C 62.90625 39.828125 67.796875 39.828125 67.796875 38.53125 
C 67.796875 38.4375 67.796875 38.328125 67.40625 37.34375 
L 56.90625 11.515625 
L 45.40625 39.828125 
L 51.09375 39.828125 
L 51.09375 44.09375 
C 48.703125 44 42.796875 44 40.09375 44 
C 35 44 34.796875 44 29.796875 44 
L 29.796875 39.828125 
L 35.703125 39.828125 
C 36 39.03125 36.5 37.734375 36.90625 36.84375 
C 37.203125 36.25 38.203125 33.859375 38.203125 33.359375 
C 38.203125 33.171875 37.90625 32.46875 37.796875 32.171875 
L 30.203125 13.40625 
L 19.40625 39.828125 
L 25.09375 39.828125 
L 25.09375 44.09375 
C 22.796875 44 16 44 13.296875 44 
C 10.09375 44 5.296875 44 2.296875 44 
L 2.296875 39.828125 
L 8.203125 39.828125 
L 23.5 1.984375 
C 24.203125 0.203125 24.59375 -0.5 26.796875 -0.5 
C 27.90625 -0.5 29.09375 -0.5 29.90625 1.484375 
L 40.5 27.8125 
L 51.09375 1.6875 
C 52 -0.5 53.09375 -0.5 54.296875 -0.5 
C 56.5 -0.5 56.796875 0.09375 57.5 1.890625 
z
" id="CMBX12-119"/>
      <path d="M 13 18.578125 
C 17.796875 16 23.40625 16 24.90625 16 
C 38.703125 16 44.203125 23.65625 44.203125 30.625 
C 44.203125 35.703125 41.296875 39.296875 40.09375 40.28125 
C 43 41.8125 45.40625 42.1875 47.09375 42.390625 
C 46.796875 41.90625 46.5 41.53125 46.5 40.28125 
C 46.5 38.28125 47.90625 36.46875 50.5 36.46875 
C 53.09375 36.46875 54.5 38.359375 54.5 40.4375 
C 54.5 42.828125 52.703125 46 48.5 46 
C 44.203125 46 40.09375 43.796875 38 41.90625 
C 33.90625 44.28125 30 45.171875 24.90625 45.171875 
C 11.09375 45.171875 5.59375 37.546875 5.59375 30.578125 
C 5.59375 27.5 6.59375 23.453125 10.796875 20.078125 
C 9.09375 18.140625 7.296875 14.578125 7.296875 10.921875 
C 7.296875 6.5625 9.59375 2.8125 11.703125 1.1875 
C 9.296875 0.609375 3.09375 -1.640625 3.09375 -7.203125 
C 3.09375 -12.96875 9.59375 -19.5 28 -19.5 
C 44.59375 -19.5 53 -14.21875 53 -6.859375 
C 53 1.78125 47.203125 4.609375 44.703125 5.78125 
C 39.90625 8.140625 33.5 8.140625 24.703125 8.140625 
C 22.203125 8.140625 17.796875 8.140625 17.296875 8.234375 
C 13 8.984375 11.796875 12.953125 11.796875 14.953125 
C 11.796875 15.78125 11.90625 17.296875 13 18.578125 
z
M 24.90625 19.171875 
C 16.203125 19.171875 16.203125 26.015625 16.203125 30.578125 
C 16.203125 35.15625 16.203125 42 24.90625 42 
C 33.59375 42 33.59375 35.15625 33.59375 30.578125 
C 33.59375 26.015625 33.59375 19.171875 24.90625 19.171875 
z
M 30.5 -1 
C 37.796875 -1 44.796875 -2.265625 44.796875 -7.296875 
C 44.796875 -10.703125 41.296875 -16.328125 28.09375 -16.328125 
C 14.90625 -16.328125 11.296875 -10.890625 11.296875 -7.203125 
C 11.296875 -1 17.59375 -1 19.09375 -1 
z
" id="CMBX12-103"/>
      <path d="M 52.90625 33.65625 
C 66.40625 37.234375 69.703125 44.359375 69.703125 49.734375 
C 69.703125 59.671875 59.203125 68 40.703125 68 
L 3.796875 68 
L 3.796875 63.71875 
L 14.40625 63.71875 
L 14.40625 4.171875 
L 3.796875 4.171875 
L 3.796875 0 
C 6.703125 0 17.09375 0 20.703125 0 
C 24.296875 0 34.796875 0 37.703125 0 
L 37.703125 4.171875 
L 27.09375 4.171875 
L 27.09375 32.71875 
L 39 32.71875 
C 43 32.71875 46.203125 31.515625 48.40625 28.890625 
C 51.40625 25.46875 51.40625 23.25 51.40625 16.515625 
C 51.40625 9.78125 51.40625 5.671875 56.5 2.25 
C 61.703125 -1.28125 69.90625 -1.28125 72.09375 -1.28125 
C 82.296875 -1.28125 83.5 7.71875 83.5 9.109375 
C 83.5 10.8125 82.703125 11.109375 81.40625 11.109375 
C 79.5 11.109375 79.40625 10.421875 79.296875 9.109375 
C 78.796875 4.09375 75.703125 2 72.90625 2 
C 66.5 2 65.796875 8.65625 65 17.765625 
C 64.40625 23.03125 63.703125 30.375 52.90625 33.65625 
z
M 38.796875 36 
L 27.09375 36 
L 27.09375 63.71875 
L 39 63.71875 
C 55.296875 63.71875 55.59375 55.6875 55.59375 49.90625 
C 55.59375 44.515625 55.5 36 38.796875 36 
z
" id="CMBX12-82"/>
      <path d="M 53.296875 12.453125 
L 29.296875 65.90625 
C 28.40625 68 27.5 68 25.40625 68 
L 4.09375 68 
L 4.09375 63.71875 
L 14.703125 63.71875 
L 14.703125 6.9375 
C 14.703125 4.75 14.59375 4.65625 12 4.25 
C 10.203125 4.0625 8.203125 4.0625 6.40625 4.0625 
L 4.09375 4.0625 
L 4.09375 -0.203125 
C 6.40625 0 14.203125 0 17 0 
C 19.796875 0 27.703125 0 30 -0.203125 
L 30 4.0625 
L 27.703125 4.0625 
C 25 4.0625 24.796875 4.0625 22.40625 4.359375 
C 19.5 4.765625 19.40625 4.859375 19.40625 7.046875 
L 19.40625 62.53125 
L 19.5 62.53125 
L 46.703125 2.09375 
C 47.203125 1 47.796875 0 49.5 0 
C 51.203125 0 51.796875 1 52.296875 2.09375 
L 80 63.71875 
L 80.09375 63.71875 
L 80.09375 4.0625 
L 69.5 4.0625 
L 69.5 -0.203125 
C 72.203125 0 82.59375 0 86 0 
C 89.40625 0 99.796875 0 102.5 -0.203125 
L 102.5 4.0625 
L 91.90625 4.0625 
L 91.90625 63.71875 
L 102.5 63.71875 
L 102.5 68 
L 81.203125 68 
C 79.09375 68 78.203125 68 77.296875 65.90625 
z
" id="CMBX12-77"/>
      <path d="M 25.40625 43.46875 
C 15.5 45.625 15.203125 52.75 15.203125 54.140625 
C 15.203125 59.171875 18.5 65.03125 28.203125 65.03125 
C 37.90625 65.03125 46.59375 60.359375 48.703125 47.34375 
C 49 45.25 49 45.25 50.90625 45.25 
C 53 45.25 53 45.546875 53 47.8125 
L 53 66.4375 
C 53 68.3125 53 69.015625 51.5 69.015625 
C 50.796875 69.015625 50.5 68.921875 49.59375 67.921875 
L 45.296875 63.046875 
C 42.796875 65.140625 37.796875 69 28.09375 69 
C 13.796875 69 6.203125 60.09375 6.203125 49.3125 
C 6.203125 42.6875 9.796875 38.03125 11.203125 36.640625 
C 16.40625 31.5 19.203125 30.90625 29.59375 28.625 
C 39.59375 26.453125 40.796875 26.25 43 24.1875 
C 44.296875 22.890625 47.203125 20.125 47.203125 15.078125 
C 47.203125 10.8125 45.09375 3 33.90625 3 
C 25.09375 3 11.203125 5.96875 10.40625 20.421875 
C 10.296875 22.203125 10.296875 22.5 8.296875 22.5 
C 6.203125 22.5 6.203125 22.203125 6.203125 19.921875 
L 6.203125 1.296875 
C 6.203125 -0.59375 6.203125 -1.28125 7.703125 -1.28125 
C 8.40625 -1.28125 8.5 -1.1875 9.5 -0.296875 
C 10.59375 0.796875 11.5 2.09375 14 4.578125 
C 19.796875 0.015625 28 -1.265625 34 -1.265625 
C 49.59375 -1.265625 56.203125 9.21875 56.203125 19.71875 
C 56.203125 29 50 37.90625 39.09375 40.375 
z
" id="CMBX12-83"/>
     </defs>
     <g style="fill:#262626;" transform="translate(30.9 204.183918)rotate(-90)scale(0.22 -0.22)">
      <use transform="translate(0 -0.0934)scale(0.996264)" xlink:href="#CMBX12-80"/>
      <use transform="translate(73.451486 -0.0934)scale(0.996264)" xlink:href="#CMBX12-111"/>
      <use transform="translate(126.378011 -0.0934)scale(0.996264)" xlink:href="#CMBX12-119"/>
      <use transform="translate(204.211137 -0.0934)scale(0.996264)" xlink:href="#CMBX12-101"/>
      <use transform="translate(255.350404 -0.0934)scale(0.996264)" xlink:href="#CMBX12-114"/>
      <use transform="translate(338.487812 -0.0934)scale(0.996264)" xlink:href="#CMBX12-40"/>
      <use transform="translate(382.074362 -0.0934)scale(0.996264)" xlink:href="#CMBX12-103"/>
      <use transform="translate(475.474113 -0.0934)scale(0.996264)" xlink:href="#CMBX12-82"/>
      <use transform="translate(559.072789 -0.0934)scale(0.996264)" xlink:href="#CMBX12-77"/>
      <use transform="translate(665.387214 -0.0934)scale(0.996264)" xlink:href="#CMBX12-83"/>
      <use transform="translate(727.653714 -0.0934)scale(0.996264)" xlink:href="#CMBX12-41"/>
     </g>
    </g>
   </g>
   <g id="line2d_9">
    <path clip-path="url(#p4d149ec3ce)" d="M 87.02497 220.701127 
L 88.517289 220.694621 
L 90.009608 218.295566 
L 91.501927 212.889538 
L 92.994246 220.094105 
L 94.486565 220.209124 
L 95.978884 165.633288 
L 97.471203 88.029078 
L 98.963522 201.652034 
L 100.455841 220.944486 
L 101.94816 218.105334 
L 103.440479 214.724837 
L 104.932798 220.205815 
L 106.425118 219.635305 
L 107.917437 160.069961 
L 109.409756 128.615702 
L 110.902075 213.071125 
L 112.394394 220.741352 
L 113.886713 218.570115 
L 115.379032 217.666434 
L 116.871351 220.587918 
L 118.36367 217.878677 
L 119.855989 154.704225 
L 121.348308 159.369563 
L 122.840627 218.963897 
L 124.332946 219.189905 
L 125.825265 198.432618 
L 127.317584 204.709309 
L 128.809903 220.675486 
L 130.302222 212.377243 
L 131.794541 134.075486 
L 133.28686 171.123158 
L 134.779179 220.305403 
L 136.271498 219.73951 
L 137.763817 214.399949 
L 139.256136 217.76031 
L 140.748455 220.705979 
L 142.240775 218.978385 
L 143.733094 211.032808 
L 145.225413 217.811507 
L 146.717732 220.869531 
L 148.210051 212.517186 
L 149.70237 182.861876 
L 151.194689 210.873444 
L 152.687008 221.040243 
L 154.179327 212.473103 
L 155.671646 192.595772 
L 157.163965 214.610095 
L 158.656284 219.595879 
L 160.148603 217.417237 
L 161.640922 210.261387 
L 163.133241 217.534899 
L 164.62556 218.621367 
L 166.117879 174.529015 
L 167.610198 124.827316 
L 169.102517 213.048011 
L 170.594836 213.859652 
L 172.087155 107.542465 
L 173.579474 35.517929 
L 175.071793 210.014324 
L 176.564112 220.811565 
L 178.056432 142.072273 
L 179.548751 124.667507 
L 181.04107 215.043322 
L 182.533389 220.436654 
L 184.025708 200.497108 
L 185.518027 198.069285 
L 187.010346 214.527153 
L 188.502665 215.443054 
L 189.994984 194.946319 
L 191.487303 198.720833 
L 192.979622 220.806887 
L 194.471941 212.540438 
L 195.96426 106.876401 
L 197.456579 149.833705 
L 198.948898 219.084802 
L 200.441217 204.596098 
L 201.933536 117.661508 
L 203.425855 171.270935 
L 204.918174 220.667453 
L 206.410493 210.651912 
L 207.902812 173.535679 
L 209.395131 202.127315 
L 210.88745 220.212176 
L 212.379769 220.575258 
L 213.872088 212.961224 
L 215.364408 216.568614 
L 216.856727 219.847527 
L 218.349046 198.164724 
L 219.841365 127.254406 
L 221.333684 180.982004 
L 222.826003 205.684577 
L 224.318322 216.513604 
L 225.810641 196.827657 
L 227.30296 213.881066 
L 228.795279 220.580486 
L 231.779917 206.416752 
L 233.272236 217.617827 
L 234.764555 218.032467 
L 236.256874 211.602715 
L 237.749193 209.079664 
L 239.241512 220.504296 
L 240.733831 220.082846 
L 242.22615 208.809154 
L 243.718469 208.99388 
L 245.210788 219.992119 
L 246.703107 217.745944 
L 248.195426 157.986847 
L 249.687745 159.7722 
L 251.180065 219.275893 
L 252.672384 220.273355 
L 254.164703 195.411018 
L 255.657022 206.675835 
L 257.149341 220.699759 
L 258.64166 220.657332 
L 260.133979 219.087063 
L 261.626298 218.843856 
L 263.118617 220.396206 
L 264.610936 220.134873 
L 266.103255 217.636506 
L 267.595574 220.625399 
L 269.087893 220.011714 
L 270.580212 220.886314 
L 272.072531 219.847191 
L 273.56485 220.865687 
L 275.057169 220.491974 
L 276.549488 218.53188 
L 278.041807 209.681383 
L 279.534126 215.576961 
L 281.026445 218.673399 
L 282.518764 217.962849 
L 284.011083 211.48173 
L 285.503402 218.142609 
L 286.995722 207.663892 
L 288.488041 220.949765 
L 289.98036 219.833862 
L 291.472679 199.805731 
L 292.964998 203.024423 
L 294.457317 219.963851 
L 295.949636 220.864598 
L 297.441955 220.557828 
L 298.934274 218.538881 
L 300.426593 219.316965 
L 301.918912 218.623553 
L 303.411231 220.757099 
L 304.90355 220.917799 
L 306.395869 219.861379 
L 307.888188 219.296982 
L 309.380507 220.103088 
L 310.872826 220.083482 
L 312.365145 219.434433 
L 313.857464 218.953503 
L 315.349783 220.105488 
L 316.842102 220.592222 
L 318.334421 220.723258 
L 319.82674 220.526914 
L 321.319059 220.871595 
L 322.811378 220.689863 
L 324.303698 220.249378 
L 327.288336 219.983356 
L 328.780655 220.019932 
L 330.272974 219.645098 
L 331.765293 210.406022 
L 333.257612 148.619479 
L 334.749931 197.078744 
L 336.24225 219.249244 
L 337.734569 215.498293 
L 339.226888 185.81184 
L 340.719207 204.024134 
L 342.211526 219.243884 
L 343.703845 216.966821 
L 345.196164 204.256036 
L 346.688483 218.330489 
L 348.180802 220.313336 
L 349.673121 218.950633 
L 351.16544 213.386759 
L 352.657759 220.244625 
L 354.150078 211.298281 
L 355.642397 211.84671 
L 357.134716 219.481469 
L 358.627035 220.637677 
L 360.119355 220.063767 
L 361.611674 220.781166 
L 363.103993 220.038848 
L 364.596312 220.861905 
L 366.088631 221.093924 
L 367.58095 221.07695 
L 369.073269 220.934673 
L 370.565588 220.992615 
L 372.057907 220.895865 
L 373.550226 220.965729 
L 375.042545 220.898402 
L 376.534864 220.599632 
L 378.027183 220.624541 
L 379.519502 219.669447 
L 381.011821 219.072912 
L 382.50414 221.071417 
L 383.996459 221.066473 
L 385.488778 220.749644 
L 386.981097 220.59471 
L 388.473416 220.895053 
L 389.965735 221.030489 
L 391.458054 220.795243 
L 395.935012 220.907435 
L 397.427331 220.634194 
L 398.91965 220.837207 
L 400.411969 220.679119 
L 406.381245 221.030461 
L 407.873564 221.038771 
L 409.365883 220.873285 
L 410.858202 221.062458 
L 412.350521 220.685081 
L 413.84284 221.020177 
L 416.827478 220.868904 
L 418.319797 220.193956 
L 419.812116 221.009464 
L 421.304435 220.681479 
L 422.796754 220.908147 
L 424.289073 220.61334 
L 425.781392 220.913857 
L 427.273711 221.098342 
L 428.76603 215.882733 
L 430.258349 214.070918 
L 431.750668 221.097624 
L 433.242988 220.361373 
L 434.735307 219.000832 
L 436.227626 216.347011 
L 437.719945 220.202468 
L 439.212264 220.3288 
L 440.704583 215.344685 
L 442.196902 214.139543 
L 443.689221 220.508775 
L 445.18154 220.005871 
L 448.166178 219.618358 
L 449.658497 219.828134 
L 451.150816 220.164399 
L 454.135454 220.523576 
L 455.627773 220.91704 
L 457.120092 220.899527 
L 458.612411 221.098558 
L 460.10473 220.922612 
L 461.597049 221.026475 
L 466.074006 220.781698 
L 467.566325 220.480321 
L 469.058645 220.685385 
L 472.043283 220.640069 
L 473.535602 220.410946 
L 475.027921 220.674482 
L 479.504878 220.976002 
L 480.997197 220.506767 
L 485.474154 220.933141 
L 486.966473 220.652349 
L 488.458792 220.594798 
L 489.951111 220.974766 
L 491.44343 220.514128 
L 494.428068 220.494897 
L 497.412706 218.153185 
L 498.905025 218.198776 
L 500.397344 219.251784 
L 501.889663 202.958678 
L 503.381982 204.707628 
L 504.874302 219.02844 
L 506.366621 220.589669 
L 507.85894 211.09611 
L 509.351259 209.492063 
L 510.843578 220.3177 
L 512.335897 219.547569 
L 513.828216 218.515331 
L 515.320535 220.849755 
L 516.812854 219.836016 
L 518.305173 220.175398 
L 519.797492 218.974471 
L 521.289811 220.871431 
L 522.78213 220.598762 
L 524.274449 220.669969 
L 525.766768 220.277596 
L 527.259087 220.246679 
L 528.751406 220.676072 
L 530.243725 220.491831 
L 531.736044 220.070021 
L 533.228363 220.046843 
L 534.720682 220.692876 
L 536.213001 220.781521 
L 537.70532 220.645725 
L 540.689958 220.794496 
L 542.182278 220.775882 
L 543.674597 220.526857 
L 545.166916 220.759989 
L 549.643873 221.039498 
L 552.628511 220.971776 
L 558.597787 220.970521 
L 564.567063 221.065775 
L 566.059382 221.026998 
L 567.551701 220.845938 
L 569.04402 221.088421 
L 573.520977 220.846285 
L 575.013296 221.052892 
L 579.490254 220.958892 
L 580.982573 220.351996 
L 582.474892 219.95663 
L 583.967211 220.808594 
L 585.45953 220.982802 
L 586.951849 220.794462 
L 588.444168 220.98257 
L 591.428806 221.009647 
L 594.413444 221.021745 
L 597.398082 221.055579 
L 598.890401 220.798064 
L 600.38272 220.981444 
L 603.367358 220.976921 
L 604.859677 220.680716 
L 607.844315 220.9941 
L 621.275187 221.064531 
L 628.736782 221.06996 
L 649.629248 220.980517 
L 655.598525 220.533825 
L 657.090844 220.279036 
L 658.583163 221.087806 
L 660.075482 218.169304 
L 661.567801 220.954449 
L 663.06012 219.733393 
L 664.552439 220.983542 
L 666.044758 218.325379 
L 667.537077 220.39202 
L 669.029396 219.841153 
L 670.521715 220.479131 
L 672.014034 217.674676 
L 673.506353 221.036387 
L 674.998672 219.989192 
L 676.490991 220.381516 
L 677.98331 220.502568 
L 679.475629 219.780408 
L 680.967948 219.508288 
L 682.460267 217.584651 
L 683.952586 214.560876 
L 685.444905 217.474413 
L 686.937225 218.650418 
L 688.429544 209.495264 
L 689.921863 201.628844 
L 691.414182 220.60821 
L 692.906501 219.914848 
L 694.39882 218.622544 
L 695.891139 215.949295 
L 697.383458 220.87039 
L 698.875777 220.751489 
L 701.860415 220.79948 
L 703.352734 220.976151 
L 719.768243 220.950892 
L 727.229839 221.03644 
L 740.66071 221.054416 
L 746.629986 221.083733 
L 757.076219 220.987794 
L 760.060858 221.086983 
L 763.045496 220.967447 
L 764.537815 221.091589 
L 849.6 221.090714 
L 849.6 221.090714 
" style="fill:none;stroke:#e41a1c;stroke-linecap:round;stroke-width:2;"/>
   </g>
   <g id="patch_3">
    <path d="M 87.02497 221.09886 
L 87.02497 16.959866 
" style="fill:none;stroke:#262626;stroke-linecap:square;stroke-linejoin:miter;stroke-width:1.25;"/>
   </g>
   <g id="patch_4">
    <path d="M 849.6 221.09886 
L 849.6 16.959866 
" style="fill:none;"/>
   </g>
   <g id="patch_5">
    <path d="M 87.02497 221.09886 
L 849.6 221.09886 
" style="fill:none;stroke:#262626;stroke-linecap:square;stroke-linejoin:miter;stroke-width:1.25;"/>
   </g>
   <g id="patch_6">
    <path d="M 87.02497 16.959866 
L 849.6 16.959866 
" style="fill:none;"/>
   </g>
   <g id="legend_1">
    <g id="patch_7">
     <path d="M 714.31292 45.670966 
L 844.8 45.670966 
Q 848 45.670966 848 42.470966 
L 848 21.759866 
Q 848 18.559866 844.8 18.559866 
L 714.31292 18.559866 
Q 711.11292 18.559866 711.11292 21.759866 
L 711.11292 42.470966 
Q 711.11292 45.670966 714.31292 45.670966 
z
" style="fill:#ffffff;stroke:#1a1a1a;stroke-linejoin:miter;"/>
    </g>
    <g id="line2d_10">
     <path d="M 717.51292 30.559866 
L 749.51292 30.559866 
" style="fill:none;stroke:#e41a1c;stroke-linecap:round;stroke-width:2;"/>
    </g>
    <g id="line2d_11"/>
    <g id="text_11">
     <!-- \textbf{Difference} -->
     <defs>
      <path d="M 3.796875 68.28125 
L 3.796875 64 
L 14.40625 64 
L 14.40625 4.265625 
L 3.796875 4.265625 
L 3.796875 0 
L 45.90625 0 
C 65.09375 0 79.90625 12.234375 79.90625 33.546875 
C 79.90625 56.046875 64.703125 68.28125 45.90625 68.28125 
z
M 27.09375 4.265625 
L 27.09375 64 
L 42.09375 64 
C 50.796875 64 57.796875 60.625 61.5 55.4375 
C 64.40625 51.359375 66.296875 46.484375 66.296875 33.640625 
C 66.296875 21.984375 64.796875 16.828125 61.296875 12.140625 
C 57.796875 7.546875 51.09375 4.265625 42.09375 4.265625 
z
" id="CMBX12-68"/>
      <path d="M 22.296875 61.84375 
C 22.296875 65.921875 19 69 15.09375 69 
C 11 69 7.90625 65.625 7.90625 61.84375 
C 7.90625 58.0625 11 54.6875 15.09375 54.6875 
C 19 54.6875 22.296875 57.765625 22.296875 61.84375 
z
M 4.703125 44 
L 4.703125 39.328125 
C 10.59375 39.328125 11.296875 39.328125 11.296875 35.46875 
L 11.296875 4.0625 
L 4.40625 4.0625 
L 4.40625 -0.203125 
C 6.703125 0 13.59375 0 16.296875 0 
C 19.09375 0 25.5 0 27.90625 -0.203125 
L 27.90625 4.0625 
L 21.703125 4.0625 
L 21.703125 44 
z
" id="CMBX12-105"/>
      <path d="M 52 39.734375 
L 63.40625 39.734375 
L 63.40625 44 
L 51.5 44 
L 51.5 54.15625 
C 51.5 64.421875 58.09375 66 61.40625 66 
C 62.5 66 62.703125 65.890625 63.296875 65.703125 
C 61.796875 64.703125 60.90625 63.03125 60.90625 60.96875 
C 60.90625 57.015625 64.09375 55.25 66.703125 55.25 
C 68.90625 55.25 72.5 56.71875 72.5 61.078125 
C 72.5 65.125 68.90625 69.28125 61.796875 69.28125 
C 58.703125 69.28125 53.203125 68.875 48.296875 65.90625 
C 44.296875 69.28125 38.5 69.28125 36.796875 69.28125 
C 25 69.28125 10.40625 65.71875 10.40625 53.96875 
L 10.40625 44 
L 3 44 
L 3 39.734375 
L 10.40625 39.734375 
L 10.40625 4.0625 
L 3.5 4.0625 
L 3.5 -0.203125 
C 5.796875 0 12.90625 0 15.59375 0 
C 18.296875 0 25.40625 0 27.703125 -0.203125 
L 27.703125 4.0625 
L 20.796875 4.0625 
L 20.796875 39.734375 
L 41.59375 39.734375 
L 41.59375 4.0625 
L 34.703125 4.0625 
L 34.703125 -0.203125 
C 37 0 44.5 0 47.296875 0 
C 50.203125 0 58.296875 0 60.703125 -0.203125 
L 60.703125 4.0625 
L 52 4.0625 
z
M 20.296875 44 
L 20.296875 53.875 
C 20.296875 64.515625 30.796875 66 36 66 
C 39.5 66 41.90625 65.21875 42.703125 64.921875 
C 41.59375 64.421875 39.59375 62.75 39.59375 59.78125 
C 39.59375 58.015625 40.203125 56.4375 41.59375 55.34375 
L 41.59375 44 
z
" id="CMBX12-11"/>
     </defs>
     <g style="fill:#262626;" transform="translate(762.31292 36.159866)scale(0.16 -0.16)">
      <use transform="scale(0.996264)" xlink:href="#CMBX12-68"/>
      <use transform="translate(85.904786 0)scale(0.996264)" xlink:href="#CMBX12-105"/>
      <use transform="translate(117.038036 0)scale(0.996264)" xlink:href="#CMBX12-11"/>
      <use transform="translate(182.417862 0)scale(0.996264)" xlink:href="#CMBX12-101"/>
      <use transform="translate(233.557129 0)scale(0.996264)" xlink:href="#CMBX12-114"/>
      <use transform="translate(279.334636 0)scale(0.996264)" xlink:href="#CMBX12-101"/>
      <use transform="translate(330.473903 0)scale(0.996264)" xlink:href="#CMBX12-110"/>
      <use transform="translate(392.740404 0)scale(0.996264)" xlink:href="#CMBX12-99"/>
      <use transform="translate(442.553605 0)scale(0.996264)" xlink:href="#CMBX12-101"/>
     </g>
    </g>
   </g>
  </g>
 </g>
 <defs>
  <clipPath id="p4d149ec3ce">
   <rect height="204.138994" width="762.57503" x="87.02497" y="16.959866"/>
  </clipPath>
 </defs>
</svg>
