<?xml version="1.0" encoding="utf-8" standalone="no"?>
<!DOCTYPE svg PUBLIC "-//W3C//DTD SVG 1.1//EN"
  "http://www.w3.org/Graphics/SVG/1.1/DTD/svg11.dtd">
<!-- Created with matplotlib (https://matplotlib.org/) -->
<svg height="288pt" version="1.1" viewBox="0 0 864 288" width="864pt" xmlns="http://www.w3.org/2000/svg" xmlns:xlink="http://www.w3.org/1999/xlink">
 <defs>
  <style type="text/css">
*{stroke-linecap:butt;stroke-linejoin:round;}
  </style>
 </defs>
 <g id="figure_1">
  <g id="patch_1">
   <path d="M 0 288 
L 864 288 
L 864 0 
L 0 0 
z
" style="fill:none;"/>
  </g>
  <g id="axes_1">
   <g id="patch_2">
    <path d="M 172.8 230.4 
L 777.6 230.4 
L 777.6 43.2 
L 172.8 43.2 
z
" style="fill:none;"/>
   </g>
   <g id="matplotlib.axis_1">
    <g id="xtick_1">
     <g id="line2d_1">
      <defs>
       <path d="M 0 0 
L 0 6 
" id="m4ed44122d7" style="stroke:#262626;stroke-width:1.25;"/>
      </defs>
      <g>
       <use style="fill:#262626;stroke:#262626;stroke-width:1.25;" x="199.904358" xlink:href="#m4ed44122d7" y="230.4"/>
      </g>
     </g>
     <g id="text_1">
      <!-- $1000$ -->
      <defs>
       <path d="M 34.59375 62.109375 
C 34.59375 65 34.40625 65 31.203125 65 
C 23.796875 59 12.703125 59 10.5 59 
L 8.59375 59 
L 8.59375 54.734375 
L 10.5 54.734375 
C 14 54.734375 19.296875 55.328125 23.296875 56.625 
L 23.296875 4.171875 
L 9.40625 4.171875 
L 9.40625 0 
C 13.59375 0 24.09375 0 28.796875 0 
C 33.5 0 44.09375 0 48.296875 0 
L 48.296875 4.171875 
L 34.59375 4.171875 
z
" id="CMBX12-49"/>
       <path d="M 51.703125 31.84375 
C 51.703125 41.375 51.703125 65.28125 28.09375 65.28125 
C 4.40625 65.28125 4.40625 41.46875 4.40625 31.84375 
C 4.40625 22.3125 4.40625 -1 28 -1 
C 51.59375 -1 51.703125 22.015625 51.703125 31.84375 
z
M 28.09375 2.28125 
C 24.90625 2.28125 22.5 3.5625 20.5 5.65625 
C 18 8.140625 16.40625 9.703125 16.40625 33.03125 
C 16.40625 39.984375 16.40625 46.3125 17.203125 51.484375 
C 18.59375 61.3125 25.796875 62 28 62 
C 31.203125 62 37.40625 60.515625 38.796875 52.1875 
C 39.703125 47.109375 39.703125 39.078125 39.703125 33.03125 
C 39.703125 9.609375 38.203125 8.234375 35.203125 5.25 
C 33.203125 3.265625 30.5 2.28125 28.09375 2.28125 
z
" id="CMBX12-48"/>
      </defs>
      <g style="fill:#262626;" transform="translate(179.654358 252.4)scale(0.18 -0.18)">
       <use transform="scale(0.996264)" xlink:href="#CMBX12-49"/>
       <use transform="translate(56.039851 0)scale(0.996264)" xlink:href="#CMBX12-48"/>
       <use transform="translate(112.079701 0)scale(0.996264)" xlink:href="#CMBX12-48"/>
       <use transform="translate(168.119552 0)scale(0.996264)" xlink:href="#CMBX12-48"/>
      </g>
     </g>
    </g>
    <g id="xtick_2">
     <g id="line2d_2">
      <g>
       <use style="fill:#262626;stroke:#262626;stroke-width:1.25;" x="282.594748" xlink:href="#m4ed44122d7" y="230.4"/>
      </g>
     </g>
     <g id="text_2">
      <!-- $1050$ -->
      <defs>
       <path d="M 15.40625 51.796875 
C 18.796875 51 21.5 51 23 51 
C 25.40625 51 31.09375 51 37.796875 55.109375 
C 40.90625 56.984375 46.09375 61.5 46.09375 63.796875 
C 46.09375 64.296875 46.09375 65.5 44.90625 65.5 
C 44.796875 65.5 44.59375 65.5 43.59375 64.984375 
C 39 63.34375 34.09375 62.21875 28.5 62.21875 
C 22.796875 62.21875 18 63.3125 13.296875 65 
C 12.59375 65.203125 12.296875 65.40625 12 65.40625 
C 10.796875 65.40625 10.796875 64.40625 10.796875 62.71875 
L 10.796875 33.796875 
C 10.796875 31.90625 10.796875 30.8125 12.796875 30.8125 
C 13.796875 30.8125 14 30.921875 14.796875 31.90625 
C 16 33.3125 19.59375 37.71875 28.09375 37.71875 
C 37.296875 37.71875 37.296875 28.359375 37.296875 20.5 
C 37.296875 13.3125 37.296875 2.96875 25 2.96875 
C 21.296875 2.96875 15 4.359375 11.59375 10 
C 16.90625 10 18.203125 13.984375 18.203125 16.171875 
C 18.203125 19.75 15.59375 22.421875 11.90625 22.421875 
C 8.90625 22.421875 5.59375 20.640625 5.59375 15.96875 
C 5.59375 7.34375 13.5 -1 25.40625 -1 
C 40.796875 -1 50.5 7.859375 50.5 20.203125 
C 50.5 32.34375 42.203125 41 28.5 41 
C 24.5 41 19.703125 40.203125 15.40625 37.015625 
z
" id="CMBX12-53"/>
      </defs>
      <g style="fill:#262626;" transform="translate(262.344748 252.4)scale(0.18 -0.18)">
       <use transform="scale(0.996264)" xlink:href="#CMBX12-49"/>
       <use transform="translate(56.039851 0)scale(0.996264)" xlink:href="#CMBX12-48"/>
       <use transform="translate(112.079701 0)scale(0.996264)" xlink:href="#CMBX12-53"/>
       <use transform="translate(168.119552 0)scale(0.996264)" xlink:href="#CMBX12-48"/>
      </g>
     </g>
    </g>
    <g id="xtick_3">
     <g id="line2d_3">
      <g>
       <use style="fill:#262626;stroke:#262626;stroke-width:1.25;" x="365.285138" xlink:href="#m4ed44122d7" y="230.4"/>
      </g>
     </g>
     <g id="text_3">
      <!-- $1100$ -->
      <g style="fill:#262626;" transform="translate(345.035138 252.4)scale(0.18 -0.18)">
       <use transform="scale(0.996264)" xlink:href="#CMBX12-49"/>
       <use transform="translate(56.039851 0)scale(0.996264)" xlink:href="#CMBX12-49"/>
       <use transform="translate(112.079701 0)scale(0.996264)" xlink:href="#CMBX12-48"/>
       <use transform="translate(168.119552 0)scale(0.996264)" xlink:href="#CMBX12-48"/>
      </g>
     </g>
    </g>
    <g id="xtick_4">
     <g id="line2d_4">
      <g>
       <use style="fill:#262626;stroke:#262626;stroke-width:1.25;" x="447.975528" xlink:href="#m4ed44122d7" y="230.4"/>
      </g>
     </g>
     <g id="text_4">
      <!-- $1150$ -->
      <g style="fill:#262626;" transform="translate(427.725528 252.4)scale(0.18 -0.18)">
       <use transform="scale(0.996264)" xlink:href="#CMBX12-49"/>
       <use transform="translate(56.039851 0)scale(0.996264)" xlink:href="#CMBX12-49"/>
       <use transform="translate(112.079701 0)scale(0.996264)" xlink:href="#CMBX12-53"/>
       <use transform="translate(168.119552 0)scale(0.996264)" xlink:href="#CMBX12-48"/>
      </g>
     </g>
    </g>
    <g id="xtick_5">
     <g id="line2d_5">
      <g>
       <use style="fill:#262626;stroke:#262626;stroke-width:1.25;" x="530.665919" xlink:href="#m4ed44122d7" y="230.4"/>
      </g>
     </g>
     <g id="text_5">
      <!-- $1200$ -->
      <defs>
       <path d="M 50.5 21.375 
L 46.296875 21.375 
C 46 19.28125 45.296875 13.40625 43.796875 12.421875 
C 43 11.71875 35.203125 11.71875 33.703125 11.71875 
L 18.203125 11.71875 
C 22 14.90625 31.09375 22.46875 32.59375 23.578125 
C 43.703125 31.84375 50.5 36.90625 50.5 46.46875 
C 50.5 58.203125 39.796875 65.28125 26.59375 65.28125 
C 15.296875 65.28125 5.59375 58.90625 5.59375 49.453125 
C 5.59375 44.171875 9.90625 42.6875 12.203125 42.6875 
C 15.296875 42.6875 18.90625 44.765625 18.90625 49.359375 
C 18.90625 53.546875 15.796875 55.625 12.703125 56.03125 
C 16.703125 60.609375 22 61 24.09375 61 
C 33.296875 61 37.703125 53.546875 37.703125 46.375 
C 37.703125 38.609375 32.40625 31.453125 28.296875 27.171875 
L 6.59375 4.578125 
C 5.59375 3.671875 5.59375 3.484375 5.59375 1.6875 
L 5.59375 0 
L 47.59375 0 
z
" id="CMBX12-50"/>
      </defs>
      <g style="fill:#262626;" transform="translate(510.415919 252.4)scale(0.18 -0.18)">
       <use transform="scale(0.996264)" xlink:href="#CMBX12-49"/>
       <use transform="translate(56.039851 0)scale(0.996264)" xlink:href="#CMBX12-50"/>
       <use transform="translate(112.079701 0)scale(0.996264)" xlink:href="#CMBX12-48"/>
       <use transform="translate(168.119552 0)scale(0.996264)" xlink:href="#CMBX12-48"/>
      </g>
     </g>
    </g>
    <g id="xtick_6">
     <g id="line2d_6">
      <g>
       <use style="fill:#262626;stroke:#262626;stroke-width:1.25;" x="613.356309" xlink:href="#m4ed44122d7" y="230.4"/>
      </g>
     </g>
     <g id="text_6">
      <!-- $1250$ -->
      <g style="fill:#262626;" transform="translate(593.106309 252.4)scale(0.18 -0.18)">
       <use transform="scale(0.996264)" xlink:href="#CMBX12-49"/>
       <use transform="translate(56.039851 0)scale(0.996264)" xlink:href="#CMBX12-50"/>
       <use transform="translate(112.079701 0)scale(0.996264)" xlink:href="#CMBX12-53"/>
       <use transform="translate(168.119552 0)scale(0.996264)" xlink:href="#CMBX12-48"/>
      </g>
     </g>
    </g>
    <g id="xtick_7">
     <g id="line2d_7">
      <g>
       <use style="fill:#262626;stroke:#262626;stroke-width:1.25;" x="696.046699" xlink:href="#m4ed44122d7" y="230.4"/>
      </g>
     </g>
     <g id="text_7">
      <!-- $1300$ -->
      <defs>
       <path d="M 26.09375 33 
C 37.296875 33 37.296875 22.71875 37.296875 17.984375 
C 37.296875 13.53125 37.296875 3.0625 26.5 3.0625 
C 24.40625 3.0625 17.796875 3.0625 13 6.625 
C 17.296875 7.515625 18.796875 10.59375 18.796875 13.5625 
C 18.796875 17.625 15.90625 20.5 11.796875 20.5 
C 7.59375 20.5 4.703125 17.625 4.703125 13.46875 
C 4.703125 4.34375 14.703125 -1 27 -1 
C 43.5 -1 51.40625 8.015625 51.40625 17.921875 
C 51.40625 22.796875 48.90625 32.203125 33.40625 34.875 
C 42.203125 37.59375 48.296875 43.8125 48.296875 51.71875 
C 48.296875 59.25 41.09375 65.578125 27.203125 65.578125 
C 16 65.578125 7.796875 59.65625 7.796875 51.53125 
C 7.796875 46.515625 11.703125 44.90625 14.296875 44.90625 
C 17.203125 44.90625 20.703125 46.8125 20.703125 51.4375 
C 20.703125 53.765625 19.703125 57.171875 15 57.875 
C 19.203125 62 26 62 26.59375 62 
C 35.5 62 35.5 55.03125 35.5 52.015625 
C 35.5 48.984375 35.09375 44.328125 31.90625 40.203125 
C 29.296875 36.75 26.703125 36.5625 22.90625 36.5625 
C 21.703125 36.265625 19.703125 36.265625 19.296875 36.078125 
C 18.703125 35.78125 18.703125 35.078125 18.703125 34.6875 
C 18.703125 33 19.296875 33 21.296875 33 
z
" id="CMBX12-51"/>
      </defs>
      <g style="fill:#262626;" transform="translate(675.796699 252.4)scale(0.18 -0.18)">
       <use transform="scale(0.996264)" xlink:href="#CMBX12-49"/>
       <use transform="translate(56.039851 0)scale(0.996264)" xlink:href="#CMBX12-51"/>
       <use transform="translate(112.079701 0)scale(0.996264)" xlink:href="#CMBX12-48"/>
       <use transform="translate(168.119552 0)scale(0.996264)" xlink:href="#CMBX12-48"/>
      </g>
     </g>
    </g>
    <g id="text_8">
     <!-- \textbf{Spindle Power (W)} -->
     <defs>
      <path d="M 25.40625 43.46875 
C 15.5 45.625 15.203125 52.75 15.203125 54.140625 
C 15.203125 59.171875 18.5 65.03125 28.203125 65.03125 
C 37.90625 65.03125 46.59375 60.359375 48.703125 47.34375 
C 49 45.25 49 45.25 50.90625 45.25 
C 53 45.25 53 45.546875 53 47.8125 
L 53 66.4375 
C 53 68.3125 53 69.015625 51.5 69.015625 
C 50.796875 69.015625 50.5 68.921875 49.59375 67.921875 
L 45.296875 63.046875 
C 42.796875 65.140625 37.796875 69 28.09375 69 
C 13.796875 69 6.203125 60.09375 6.203125 49.3125 
C 6.203125 42.6875 9.796875 38.03125 11.203125 36.640625 
C 16.40625 31.5 19.203125 30.90625 29.59375 28.625 
C 39.59375 26.453125 40.796875 26.25 43 24.1875 
C 44.296875 22.890625 47.203125 20.125 47.203125 15.078125 
C 47.203125 10.8125 45.09375 3 33.90625 3 
C 25.09375 3 11.203125 5.96875 10.40625 20.421875 
C 10.296875 22.203125 10.296875 22.5 8.296875 22.5 
C 6.203125 22.5 6.203125 22.203125 6.203125 19.921875 
L 6.203125 1.296875 
C 6.203125 -0.59375 6.203125 -1.28125 7.703125 -1.28125 
C 8.40625 -1.28125 8.5 -1.1875 9.5 -0.296875 
C 10.59375 0.796875 11.5 2.09375 14 4.578125 
C 19.796875 0.015625 28 -1.265625 34 -1.265625 
C 49.59375 -1.265625 56.203125 9.21875 56.203125 19.71875 
C 56.203125 29 50 37.90625 39.09375 40.375 
z
" id="CMBX12-83"/>
      <path d="M 28.203125 -14.921875 
L 21.296875 -14.921875 
L 21.296875 4.1875 
C 23.796875 2 28.203125 -0.5 34.203125 -0.5 
C 47.90625 -0.5 58.59375 7.703125 58.59375 22.140625 
C 58.59375 35.78125 49.296875 44.578125 35.796875 44.578125 
C 29.90625 44.578125 24.796875 42.78125 20.796875 39.90625 
L 20.796875 44.671875 
L 3.5 44.671875 
L 3.5 40 
C 9.703125 40 10.40625 40 10.40625 36.09375 
L 10.40625 -14.921875 
L 3.5 -14.921875 
L 3.5 -19.1875 
C 5.796875 -19 13 -19 15.796875 -19 
C 18.59375 -19 25.90625 -19 28.203125 -19.1875 
z
M 21.296875 35.09375 
C 25 39.53125 30.296875 41 34.203125 41 
C 40.703125 41 46.59375 35.171875 46.59375 22.140625 
C 46.59375 7.8125 39.40625 2.78125 33 2.78125 
C 28.703125 2.78125 24.40625 4.984375 21.296875 9.6875 
z
" id="CMBX12-112"/>
      <path d="M 22.296875 61.84375 
C 22.296875 65.921875 19 69 15.09375 69 
C 11 69 7.90625 65.625 7.90625 61.84375 
C 7.90625 58.0625 11 54.6875 15.09375 54.6875 
C 19 54.6875 22.296875 57.765625 22.296875 61.84375 
z
M 4.703125 44 
L 4.703125 39.328125 
C 10.59375 39.328125 11.296875 39.328125 11.296875 35.46875 
L 11.296875 4.0625 
L 4.40625 4.0625 
L 4.40625 -0.203125 
C 6.703125 0 13.59375 0 16.296875 0 
C 19.09375 0 25.5 0 27.90625 -0.203125 
L 27.90625 4.0625 
L 21.703125 4.0625 
L 21.703125 44 
z
" id="CMBX12-105"/>
      <path d="M 53.09375 30.0625 
C 53.09375 39.453125 49 44.28125 38 44.28125 
C 30.796875 44.28125 24.59375 40.859375 21.203125 33.484375 
L 21.09375 33.484375 
L 21.09375 44 
L 4.203125 44 
L 4.203125 39.328125 
C 10.40625 39.328125 11.09375 39.328125 11.09375 35.46875 
L 11.09375 4.0625 
L 4.203125 4.0625 
L 4.203125 -0.203125 
C 6.5 0 13.703125 0 16.5 0 
C 19.296875 0 26.59375 0 28.90625 -0.203125 
L 28.90625 4.0625 
L 22 4.0625 
L 22 25.109375 
C 22 35.765625 30 41 36.40625 41 
C 40.09375 41 42.203125 38.640625 42.203125 31.140625 
L 42.203125 4.0625 
L 35.296875 4.0625 
L 35.296875 -0.203125 
C 37.59375 0 44.796875 0 47.59375 0 
C 50.40625 0 57.703125 0 60 -0.203125 
L 60 4.0625 
L 53.09375 4.0625 
z
" id="CMBX12-110"/>
      <path d="M 34.703125 69 
L 34.703125 64.328125 
C 40.90625 64.328125 41.59375 64.328125 41.59375 60.421875 
L 41.59375 40.234375 
C 39.40625 42.125 35 45 28.09375 45 
C 13.90625 45 3.796875 36.21875 3.796875 22.25 
C 3.796875 7.96875 13.703125 -0.5 27 -0.5 
C 32.5 -0.5 37.203125 1.46875 41.09375 4.859375 
L 41.09375 0 
L 58.90625 0 
L 58.90625 4.5625 
C 52.703125 4.5625 52 4.5625 52 8.4375 
L 52 69 
z
M 41.09375 10.328125 
C 36.90625 4.09375 31.796875 2.78125 28.203125 2.78125 
C 15.796875 2.78125 15.796875 15.453125 15.796875 22.046875 
C 15.796875 26.75 15.796875 31.75 18 35.53125 
C 21.09375 41.125 27 41.71875 29.296875 41.71875 
C 33.40625 41.71875 37.796875 39.9375 41.09375 35.5625 
z
" id="CMBX12-100"/>
      <path d="M 21.703125 69 
L 4.40625 69 
L 4.40625 64.328125 
C 10.59375 64.328125 11.296875 64.328125 11.296875 60.40625 
L 11.296875 4.0625 
L 4.40625 4.0625 
L 4.40625 -0.203125 
C 6.703125 0 13.796875 0 16.5 0 
C 19.203125 0 26.296875 0 28.59375 -0.203125 
L 28.59375 4.0625 
L 21.703125 4.0625 
z
" id="CMBX12-108"/>
      <path d="M 45.203125 22 
C 47.5 22 48.09375 22 48.09375 24.484375 
C 48.09375 27.46875 47.40625 34.890625 42.796875 39.5625 
C 38.59375 43.71875 33 45 27.203125 45 
C 11.59375 45 3.09375 34.890625 3.09375 22.40625 
C 3.09375 8.515625 13.40625 -0.5 28.5 -0.5 
C 43.59375 -0.5 48.09375 10 48.09375 11.6875 
C 48.09375 13.171875 46.59375 13.171875 46 13.171875 
C 44.40625 13.171875 44.296875 12.875 43.703125 11.59375 
C 41.09375 5.15625 34.5 3.078125 29.703125 3.078125 
C 15.203125 3.078125 15.09375 16.453125 15.09375 22 
z
M 15.09375 24.890625 
C 15.296875 28.9375 15.40625 32.8125 17.5 36.375 
C 19.40625 39.546875 22.90625 41.71875 27.203125 41.71875 
C 37.90625 41.71875 38.796875 29.828125 38.90625 24.890625 
z
" id="CMBX12-101"/>
      <path d="M 27.59375 30.21875 
L 44.59375 30.21875 
C 61.296875 30.21875 70.59375 38.65625 70.59375 48.875 
C 70.59375 59.5625 61.09375 68 44.59375 68 
L 3.796875 68 
L 3.796875 63.71875 
L 14.40625 63.71875 
L 14.40625 4.171875 
L 3.796875 4.171875 
L 3.796875 0 
C 6.703125 0 17.40625 0 21 0 
C 24.59375 0 35.296875 0 38.203125 0 
L 38.203125 4.171875 
L 27.59375 4.171875 
z
M 41 63.71875 
C 56.5 63.71875 56.5 55.59375 56.5 48.859375 
C 56.5 42.328125 56.5 34 41 34 
L 27.09375 34 
L 27.09375 63.71875 
z
" id="CMBX12-80"/>
      <path d="M 53 21.796875 
C 53 35.1875 43.796875 45 28.09375 45 
C 11.796875 45 3.09375 34.6875 3.09375 21.796875 
C 3.09375 8.828125 12.296875 -0.5 28 -0.5 
C 44.296875 -0.5 53 9.3125 53 21.796875 
z
M 28.09375 3.078125 
C 15.09375 3.078125 15.09375 14.671875 15.09375 22.796875 
C 15.09375 27.453125 15.09375 32.40625 17 35.984375 
C 19.203125 39.9375 23.703125 41.71875 28 41.71875 
C 33.703125 41.71875 37.296875 39.046875 39 36.28125 
C 41 32.703125 41 27.546875 41 22.796875 
C 41 14.5625 41 3.078125 28.09375 3.078125 
z
" id="CMBX12-111"/>
      <path d="M 72 37.4375 
C 72.703125 39.125 73 39.828125 78.796875 39.828125 
L 78.796875 44 
C 75.90625 44 74.59375 44 71 44 
C 66.90625 44 65.59375 44 62 44 
L 62 39.828125 
C 62.90625 39.828125 67.796875 39.828125 67.796875 38.53125 
C 67.796875 38.4375 67.796875 38.328125 67.40625 37.34375 
L 56.90625 11.515625 
L 45.40625 39.828125 
L 51.09375 39.828125 
L 51.09375 44.09375 
C 48.703125 44 42.796875 44 40.09375 44 
C 35 44 34.796875 44 29.796875 44 
L 29.796875 39.828125 
L 35.703125 39.828125 
C 36 39.03125 36.5 37.734375 36.90625 36.84375 
C 37.203125 36.25 38.203125 33.859375 38.203125 33.359375 
C 38.203125 33.171875 37.90625 32.46875 37.796875 32.171875 
L 30.203125 13.40625 
L 19.40625 39.828125 
L 25.09375 39.828125 
L 25.09375 44.09375 
C 22.796875 44 16 44 13.296875 44 
C 10.09375 44 5.296875 44 2.296875 44 
L 2.296875 39.828125 
L 8.203125 39.828125 
L 23.5 1.984375 
C 24.203125 0.203125 24.59375 -0.5 26.796875 -0.5 
C 27.90625 -0.5 29.09375 -0.5 29.90625 1.484375 
L 40.5 27.8125 
L 51.09375 1.6875 
C 52 -0.5 53.09375 -0.5 54.296875 -0.5 
C 56.5 -0.5 56.796875 0.09375 57.5 1.890625 
z
" id="CMBX12-119"/>
      <path d="M 20.796875 22.046875 
C 20.796875 25.296875 21.5 41 33.203125 41 
C 31.796875 39.921875 31.09375 38.25 31.09375 36.5 
C 31.09375 32.484375 34.40625 30.8125 36.90625 30.8125 
C 39.40625 30.8125 42.703125 32.484375 42.703125 36.515625 
C 42.703125 41.53125 37.5 44.28125 32.703125 44.28125 
C 24.796875 44.28125 21.40625 37.515625 20 33.390625 
L 19.90625 33.390625 
L 19.90625 44 
L 3.5 44 
L 3.5 39.328125 
C 9.703125 39.328125 10.40625 39.328125 10.40625 35.46875 
L 10.40625 4.0625 
L 3.5 4.0625 
L 3.5 -0.203125 
C 5.796875 0 13.296875 0 16.09375 0 
C 19 0 27.09375 0 29.5 -0.203125 
L 29.5 4.0625 
L 20.796875 4.0625 
z
" id="CMBX12-114"/>
      <path d="M 37.40625 -23.8125 
C 37.40625 -23.40625 37.40625 -23.203125 35.5 -21.421875 
C 24.296875 -10.296875 20 7.203125 20 24.6875 
C 20 44.28125 24.90625 60.390625 36.09375 71.609375 
C 37.296875 72.796875 37.40625 72.90625 37.40625 73.296875 
C 37.40625 74.5 36.203125 74.5 35.703125 74.5 
C 34.796875 74.5 34.59375 74.5 32 72.40625 
C 17.59375 60.984375 10.796875 42.6875 10.796875 24.8125 
C 10.796875 6.515625 17.703125 -11.28125 31.90625 -22.8125 
C 34.5 -25 34.703125 -25 35.703125 -25 
C 36.203125 -25 37.40625 -25 37.40625 -23.8125 
z
" id="CMBX12-40"/>
      <path d="M 104.59375 61.921875 
C 105.296875 63.703125 105.5 63.703125 113.90625 63.703125 
L 113.90625 68.171875 
C 108.90625 68.171875 108.703125 68.171875 103 68.171875 
C 100.09375 68.171875 92.796875 68.171875 90.40625 68.28125 
L 90.40625 64 
C 91.59375 64 100.40625 64 100.40625 62.609375 
C 100.40625 62.515625 100.40625 62.3125 100 61.421875 
L 83.203125 17.3125 
L 65.296875 64 
L 74.796875 64 
L 74.796875 68.171875 
C 71.59375 68.171875 62.296875 68.171875 58.5 68.171875 
C 55.40625 68.171875 45.703125 68.171875 43.296875 68.28125 
L 43.296875 64 
L 51.703125 64 
L 55.796875 53.328125 
L 42.09375 17.3125 
L 24.296875 64 
L 33.703125 64 
L 33.703125 68.171875 
C 30.796875 68.171875 21 68.171875 17.40625 68.171875 
C 14.203125 68.171875 4.703125 68.171875 2.203125 68.28125 
L 2.203125 64 
L 10.59375 64 
L 34.40625 1.859375 
C 35 0.1875 35.296875 -0.5 37.5 -0.5 
C 39.703125 -0.5 40 0.1875 40.59375 1.765625 
L 58 47.375 
L 75.5 1.765625 
C 76.09375 0.1875 76.40625 -0.5 78.59375 -0.5 
C 80.5 -0.5 81 -0.109375 81.703125 1.78125 
z
" id="CMBX12-87"/>
      <path d="M 32.796875 24.703125 
C 32.796875 42.984375 25.90625 60.78125 11.703125 72.3125 
C 9.09375 74.5 8.90625 74.5 7.90625 74.5 
C 7.40625 74.5 6.203125 74.5 6.203125 73.3125 
C 6.203125 72.921875 6.203125 72.71875 8.09375 70.9375 
C 19.296875 59.796875 23.59375 42.3125 23.59375 24.8125 
C 23.59375 5.21875 18.703125 -10.875 7.5 -22.109375 
C 6.296875 -23.3125 6.203125 -23.40625 6.203125 -23.8125 
C 6.203125 -25 7.40625 -25 7.90625 -25 
C 8.796875 -25 9 -25 11.59375 -22.90625 
C 26 -11.484375 32.796875 6.8125 32.796875 24.703125 
z
" id="CMBX12-41"/>
     </defs>
     <g style="fill:#262626;" transform="translate(371.272905 276.40114)scale(0.22 -0.22)">
      <use transform="translate(0 -0.0934)scale(0.996264)" xlink:href="#CMBX12-83"/>
      <use transform="translate(62.266501 -0.0934)scale(0.996264)" xlink:href="#CMBX12-112"/>
      <use transform="translate(124.533001 -0.0934)scale(0.996264)" xlink:href="#CMBX12-105"/>
      <use transform="translate(155.666252 -0.0934)scale(0.996264)" xlink:href="#CMBX12-110"/>
      <use transform="translate(217.932752 -0.0934)scale(0.996264)" xlink:href="#CMBX12-100"/>
      <use transform="translate(280.199253 -0.0934)scale(0.996264)" xlink:href="#CMBX12-108"/>
      <use transform="translate(311.332503 -0.0934)scale(0.996264)" xlink:href="#CMBX12-101"/>
      <use transform="translate(399.831671 -0.0934)scale(0.996264)" xlink:href="#CMBX12-80"/>
      <use transform="translate(473.283156 -0.0934)scale(0.996264)" xlink:href="#CMBX12-111"/>
      <use transform="translate(526.209682 -0.0934)scale(0.996264)" xlink:href="#CMBX12-119"/>
      <use transform="translate(604.042808 -0.0934)scale(0.996264)" xlink:href="#CMBX12-101"/>
      <use transform="translate(655.182075 -0.0934)scale(0.996264)" xlink:href="#CMBX12-114"/>
      <use transform="translate(738.319482 -0.0934)scale(0.996264)" xlink:href="#CMBX12-40"/>
      <use transform="translate(781.906033 -0.0934)scale(0.996264)" xlink:href="#CMBX12-87"/>
      <use transform="translate(897.675678 -0.0934)scale(0.996264)" xlink:href="#CMBX12-41"/>
     </g>
    </g>
   </g>
   <g id="matplotlib.axis_2">
    <g id="ytick_1">
     <g id="line2d_8">
      <defs>
       <path d="M 0 0 
L -6 0 
" id="mc0a644812c" style="stroke:#262626;stroke-width:1.25;"/>
      </defs>
      <g>
       <use style="fill:#262626;stroke:#262626;stroke-width:1.25;" x="172.8" xlink:href="#mc0a644812c" y="230.4"/>
      </g>
     </g>
     <g id="text_9">
      <!-- $0.000$ -->
      <defs>
       <path d="M 23.703125 7.765625 
C 23.703125 12.046875 20.203125 15.53125 15.90625 15.53125 
C 11.59375 15.53125 8.09375 12.046875 8.09375 7.765625 
C 8.09375 3.484375 11.59375 0 15.90625 0 
C 20.203125 0 23.703125 3.484375 23.703125 7.765625 
z
" id="CMMIB10-58"/>
      </defs>
      <g style="fill:#262626;" transform="translate(117.05003 236.65)scale(0.18 -0.18)">
       <use transform="scale(0.996264)" xlink:href="#CMBX12-48"/>
       <use transform="translate(56.039851 0)scale(0.996264)" xlink:href="#CMMIB10-58"/>
       <use transform="translate(87.864782 0)scale(0.996264)" xlink:href="#CMBX12-48"/>
       <use transform="translate(143.904633 0)scale(0.996264)" xlink:href="#CMBX12-48"/>
       <use transform="translate(199.944483 0)scale(0.996264)" xlink:href="#CMBX12-48"/>
      </g>
     </g>
    </g>
    <g id="ytick_2">
     <g id="line2d_9">
      <g>
       <use style="fill:#262626;stroke:#262626;stroke-width:1.25;" x="172.8" xlink:href="#mc0a644812c" y="171.937694"/>
      </g>
     </g>
     <g id="text_10">
      <!-- $0.002$ -->
      <g style="fill:#262626;" transform="translate(117.05003 178.187694)scale(0.18 -0.18)">
       <use transform="scale(0.996264)" xlink:href="#CMBX12-48"/>
       <use transform="translate(56.039851 0)scale(0.996264)" xlink:href="#CMMIB10-58"/>
       <use transform="translate(87.864782 0)scale(0.996264)" xlink:href="#CMBX12-48"/>
       <use transform="translate(143.904633 0)scale(0.996264)" xlink:href="#CMBX12-48"/>
       <use transform="translate(199.944483 0)scale(0.996264)" xlink:href="#CMBX12-50"/>
      </g>
     </g>
    </g>
    <g id="ytick_3">
     <g id="line2d_10">
      <g>
       <use style="fill:#262626;stroke:#262626;stroke-width:1.25;" x="172.8" xlink:href="#mc0a644812c" y="113.475389"/>
      </g>
     </g>
     <g id="text_11">
      <!-- $0.004$ -->
      <defs>
       <path d="M 43.296875 15.71875 
L 53 15.71875 
L 53 20 
L 43.296875 20 
L 43.296875 62.609375 
C 43.296875 65.09375 43.203125 65.5 40.703125 65.5 
C 38.90625 65.5 38.703125 65.5 37.5 64 
L 3.09375 20 
L 3.09375 15.71875 
L 31.5 15.71875 
L 31.5 4.171875 
L 20.59375 4.171875 
L 20.59375 0 
C 23.5 0 33.40625 0 37 0 
C 40.40625 0 50.296875 0 53 -0.09375 
L 53 4.171875 
L 43.296875 4.171875 
z
M 32.40625 51.59375 
L 32.40625 20 
L 7.703125 20 
z
" id="CMBX12-52"/>
      </defs>
      <g style="fill:#262626;" transform="translate(117.05003 119.725389)scale(0.18 -0.18)">
       <use transform="scale(0.996264)" xlink:href="#CMBX12-48"/>
       <use transform="translate(56.039851 0)scale(0.996264)" xlink:href="#CMMIB10-58"/>
       <use transform="translate(87.864782 0)scale(0.996264)" xlink:href="#CMBX12-48"/>
       <use transform="translate(143.904633 0)scale(0.996264)" xlink:href="#CMBX12-48"/>
       <use transform="translate(199.944483 0)scale(0.996264)" xlink:href="#CMBX12-52"/>
      </g>
     </g>
    </g>
    <g id="ytick_4">
     <g id="line2d_11">
      <g>
       <use style="fill:#262626;stroke:#262626;stroke-width:1.25;" x="172.8" xlink:href="#mc0a644812c" y="55.013083"/>
      </g>
     </g>
     <g id="text_12">
      <!-- $0.006$ -->
      <defs>
       <path d="M 17.40625 36.25 
C 17.40625 42.328125 17.703125 48.53125 20.5 53.90625 
C 22.703125 58.109375 27.796875 62 34.296875 62 
C 36.203125 62 39.796875 61.703125 42.203125 59.203125 
C 38.40625 58.8125 36.796875 56.015625 36.796875 53.3125 
C 36.796875 49.703125 39.5 47.40625 42.703125 47.40625 
C 45.296875 47.40625 48.59375 49.109375 48.59375 53.5 
C 48.59375 59.484375 44.59375 65.578125 34.09375 65.578125 
C 21.59375 65.578125 4.703125 57.796875 4.703125 31.796875 
C 4.703125 25.109375 4.703125 -1 28.40625 -1 
C 41.59375 -1 51.40625 6.765625 51.40625 20.703125 
C 51.40625 34.640625 41.703125 42 29.796875 42 
C 27.796875 42 21.40625 42 17.40625 33.546875 
z
M 28.296875 2.96875 
C 21.90625 2.96875 19.40625 8.34375 19 9.140625 
C 17.59375 12.4375 17.59375 20.40625 17.59375 21.296875 
C 17.59375 33.546875 22.90625 38.734375 28.796875 38.734375 
C 38.703125 38.734375 38.703125 30.765625 38.703125 20.796875 
C 38.703125 10.9375 38.703125 2.96875 28.296875 2.96875 
z
" id="CMBX12-54"/>
      </defs>
      <g style="fill:#262626;" transform="translate(117.05003 61.263083)scale(0.18 -0.18)">
       <use transform="scale(0.996264)" xlink:href="#CMBX12-48"/>
       <use transform="translate(56.039851 0)scale(0.996264)" xlink:href="#CMMIB10-58"/>
       <use transform="translate(87.864782 0)scale(0.996264)" xlink:href="#CMBX12-48"/>
       <use transform="translate(143.904633 0)scale(0.996264)" xlink:href="#CMBX12-48"/>
       <use transform="translate(199.944483 0)scale(0.996264)" xlink:href="#CMBX12-54"/>
      </g>
     </g>
    </g>
    <g id="text_13">
     <!-- \textbf{Probability} -->
     <defs>
      <path d="M 20.796875 69 
L 3.5 69 
L 3.5 64.328125 
C 9.703125 64.328125 10.40625 64.328125 10.40625 60.421875 
L 10.40625 0 
L 14.59375 0 
C 16.296875 1.921875 18 3.859375 19.59375 5.875 
C 24.703125 0.59375 30.203125 -0.5 34.203125 -0.5 
C 48 -0.5 58.59375 7.875 58.59375 22.359375 
C 58.59375 36.015625 49.203125 45 35.5 45 
C 29.59375 45 24.90625 43.109375 20.796875 39.921875 
z
M 21.296875 35.125 
C 24.796875 39.921875 30 41.71875 34.203125 41.71875 
C 46.59375 41.71875 46.59375 29.046875 46.59375 22.453125 
C 46.59375 17.953125 46.59375 12.265625 44.203125 8.5625 
C 41.09375 3.765625 36.40625 2.78125 33.203125 2.78125 
C 26.40625 2.78125 22.703125 7.5625 21.296875 9.765625 
z
" id="CMBX12-98"/>
      <path d="M 46 29.65625 
C 46 38.8125 38.703125 44.984375 24.59375 44.984375 
C 19 44.984375 7.203125 44.984375 7.203125 36.46875 
C 7.203125 32.203125 10.40625 30.390625 13.09375 30.390625 
C 16.09375 30.390625 19 32.484375 19 36.296875 
C 19 38.203125 18.296875 39.984375 16.59375 41.09375 
C 19.90625 42 22.296875 42 24.203125 42 
C 31 42 35.09375 38.203125 35.09375 29.984375 
L 35.09375 25.984375 
C 19.296875 25.984375 3.40625 21.59375 3.40625 10.5625 
C 3.40625 1.484375 15 -0.5 21.90625 -0.5 
C 29.59375 -0.5 34.5 3.640625 36.5 7.96875 
C 36.5 4.28125 36.5 0 46.59375 0 
L 51.703125 0 
C 53.796875 0 54.59375 0 54.59375 2.265625 
C 54.59375 4.265625 53.703125 4.265625 52.296875 4.265625 
C 46 4.265625 46 5.84375 46 8.15625 
z
M 35.09375 13.78125 
C 35.09375 4.546875 26.703125 2.78125 23.5 2.78125 
C 18.59375 2.78125 14.5 6.09375 14.5 10.71875 
C 14.5 19.890625 25.296875 23 35.09375 23 
z
" id="CMBX12-97"/>
      <path d="M 21.09375 40 
L 35.5 40 
L 35.5 44.265625 
L 21.09375 44.265625 
L 21.09375 63 
L 16.90625 63 
C 16.796875 53.203125 12 43.375 2.09375 43.375 
L 2.09375 40 
L 10.203125 40 
L 10.203125 12.328125 
C 10.203125 1.78125 18.40625 -0.5 25.59375 -0.5 
C 33 -0.5 37.40625 5.078125 37.40625 12.421875 
L 37.40625 17.703125 
L 33.203125 17.703125 
L 33.203125 12.53125 
C 33.203125 5.953125 30.203125 3.078125 27.09375 3.078125 
C 21.09375 3.078125 21.09375 9.75 21.09375 12.03125 
z
" id="CMBX12-116"/>
      <path d="M 49.5 37.828125 
C 50.09375 39.203125 50.5 40 56.90625 40 
L 56.90625 44.171875 
C 53.5 44.171875 53.09375 44.171875 49 44.171875 
C 46.296875 44.171875 46.09375 44.171875 40.40625 44.171875 
L 40.40625 40 
C 40.5 40 45.203125 40 45.203125 38.71875 
C 45.203125 38.421875 44.90625 37.828125 44.796875 37.53125 
L 33.09375 12.578125 
L 20.296875 40 
L 25.796875 40 
L 25.796875 44.265625 
C 23.40625 44.171875 16.59375 44.171875 13.796875 44.171875 
C 10.90625 44.171875 5 44.171875 2.40625 44.265625 
L 2.40625 40 
L 8.796875 40 
L 27.296875 0.3125 
C 26.796875 -0.875 25.40625 -3.75 24.90625 -4.9375 
C 22.796875 -9.390625 19.59375 -16.21875 12.59375 -16.21875 
C 12.203125 -16.21875 11 -16.21875 9.90625 -15.625 
C 10.09375 -15.515625 13.09375 -14.328125 13.09375 -10.5625 
C 13.09375 -7.3125 10.703125 -5.234375 7.703125 -5.234375 
C 4.59375 -5.234375 2.203125 -7.328125 2.203125 -10.6875 
C 2.203125 -15.34375 6.59375 -19.5 12.59375 -19.5 
C 20.796875 -19.5 26.203125 -12.171875 28.203125 -7.8125 
z
" id="CMBX12-121"/>
     </defs>
     <g style="fill:#262626;" transform="translate(108.77086 197.74562)rotate(-90)scale(0.22 -0.22)">
      <use transform="translate(0 -0.072648)scale(0.996264)" xlink:href="#CMBX12-80"/>
      <use transform="translate(76.564811 -0.072648)scale(0.996264)" xlink:href="#CMBX12-114"/>
      <use transform="translate(122.342318 -0.072648)scale(0.996264)" xlink:href="#CMBX12-111"/>
      <use transform="translate(178.382169 -0.072648)scale(0.996264)" xlink:href="#CMBX12-98"/>
      <use transform="translate(240.648669 -0.072648)scale(0.996264)" xlink:href="#CMBX12-97"/>
      <use transform="translate(295.131857 -0.072648)scale(0.996264)" xlink:href="#CMBX12-98"/>
      <use transform="translate(357.398358 -0.072648)scale(0.996264)" xlink:href="#CMBX12-105"/>
      <use transform="translate(388.531608 -0.072648)scale(0.996264)" xlink:href="#CMBX12-108"/>
      <use transform="translate(419.664858 -0.072648)scale(0.996264)" xlink:href="#CMBX12-105"/>
      <use transform="translate(450.798109 -0.072648)scale(0.996264)" xlink:href="#CMBX12-116"/>
      <use transform="translate(491.271334 -0.072648)scale(0.996264)" xlink:href="#CMBX12-121"/>
     </g>
    </g>
   </g>
   <g id="patch_3">
    <path clip-path="url(#pf752ac493e)" d="M 200.290909 230.4 
L 238.209404 230.4 
L 238.209404 109.30027 
L 200.290909 109.30027 
z
" style="fill:#4c72b0;opacity:0.5;stroke:#ffffff;stroke-linejoin:miter;"/>
   </g>
   <g id="patch_4">
    <path clip-path="url(#pf752ac493e)" d="M 238.209404 230.4 
L 276.1279 230.4 
L 276.1279 116.028032 
L 238.209404 116.028032 
z
" style="fill:#4c72b0;opacity:0.5;stroke:#ffffff;stroke-linejoin:miter;"/>
   </g>
   <g id="patch_5">
    <path clip-path="url(#pf752ac493e)" d="M 276.1279 230.4 
L 314.046395 230.4 
L 314.046395 52.114286 
L 276.1279 52.114286 
z
" style="fill:#4c72b0;opacity:0.5;stroke:#ffffff;stroke-linejoin:miter;"/>
   </g>
   <g id="patch_6">
    <path clip-path="url(#pf752ac493e)" d="M 314.046395 230.4 
L 351.96489 230.4 
L 351.96489 85.7531 
L 314.046395 85.7531 
z
" style="fill:#4c72b0;opacity:0.5;stroke:#ffffff;stroke-linejoin:miter;"/>
   </g>
   <g id="patch_7">
    <path clip-path="url(#pf752ac493e)" d="M 351.96489 230.4 
L 389.883386 230.4 
L 389.883386 62.20593 
L 351.96489 62.20593 
z
" style="fill:#4c72b0;opacity:0.5;stroke:#ffffff;stroke-linejoin:miter;"/>
   </g>
   <g id="patch_8">
    <path clip-path="url(#pf752ac493e)" d="M 389.883386 230.4 
L 427.801881 230.4 
L 427.801881 119.391914 
L 389.883386 119.391914 
z
" style="fill:#4c72b0;opacity:0.5;stroke:#ffffff;stroke-linejoin:miter;"/>
   </g>
   <g id="patch_9">
    <path clip-path="url(#pf752ac493e)" d="M 427.801881 230.4 
L 465.720376 230.4 
L 465.720376 75.661456 
L 427.801881 75.661456 
z
" style="fill:#4c72b0;opacity:0.5;stroke:#ffffff;stroke-linejoin:miter;"/>
   </g>
   <g id="patch_10">
    <path clip-path="url(#pf752ac493e)" d="M 465.720376 230.4 
L 503.638871 230.4 
L 503.638871 132.847439 
L 465.720376 132.847439 
z
" style="fill:#4c72b0;opacity:0.5;stroke:#ffffff;stroke-linejoin:miter;"/>
   </g>
   <g id="patch_11">
    <path clip-path="url(#pf752ac493e)" d="M 503.638871 230.4 
L 541.557367 230.4 
L 541.557367 105.936388 
L 503.638871 105.936388 
z
" style="fill:#4c72b0;opacity:0.5;stroke:#ffffff;stroke-linejoin:miter;"/>
   </g>
   <g id="patch_12">
    <path clip-path="url(#pf752ac493e)" d="M 541.557367 230.4 
L 579.475862 230.4 
L 579.475862 169.850135 
L 541.557367 169.850135 
z
" style="fill:#4c72b0;opacity:0.5;stroke:#ffffff;stroke-linejoin:miter;"/>
   </g>
   <g id="patch_13">
    <path clip-path="url(#pf752ac493e)" d="M 214.510345 230.4 
L 268.070219 230.4 
L 268.070219 200.001827 
L 214.510345 200.001827 
z
" style="fill:#c44e52;opacity:0.5;stroke:#ffffff;stroke-linejoin:miter;"/>
   </g>
   <g id="patch_14">
    <path clip-path="url(#pf752ac493e)" d="M 268.070219 230.4 
L 321.630094 230.4 
L 321.630094 185.971902 
L 268.070219 185.971902 
z
" style="fill:#c44e52;opacity:0.5;stroke:#ffffff;stroke-linejoin:miter;"/>
   </g>
   <g id="patch_15">
    <path clip-path="url(#pf752ac493e)" d="M 321.630094 230.4 
L 375.189969 230.4 
L 375.189969 148.558766 
L 321.630094 148.558766 
z
" style="fill:#c44e52;opacity:0.5;stroke:#ffffff;stroke-linejoin:miter;"/>
   </g>
   <g id="patch_16">
    <path clip-path="url(#pf752ac493e)" d="M 375.189969 230.4 
L 428.749843 230.4 
L 428.749843 122.837235 
L 375.189969 122.837235 
z
" style="fill:#c44e52;opacity:0.5;stroke:#ffffff;stroke-linejoin:miter;"/>
   </g>
   <g id="patch_17">
    <path clip-path="url(#pf752ac493e)" d="M 428.749843 230.4 
L 482.309718 230.4 
L 482.309718 148.558766 
L 428.749843 148.558766 
z
" style="fill:#c44e52;opacity:0.5;stroke:#ffffff;stroke-linejoin:miter;"/>
   </g>
   <g id="patch_18">
    <path clip-path="url(#pf752ac493e)" d="M 482.309718 230.4 
L 535.869592 230.4 
L 535.869592 90.100742 
L 482.309718 90.100742 
z
" style="fill:#c44e52;opacity:0.5;stroke:#ffffff;stroke-linejoin:miter;"/>
   </g>
   <g id="patch_19">
    <path clip-path="url(#pf752ac493e)" d="M 535.869592 230.4 
L 589.429467 230.4 
L 589.429467 97.115705 
L 535.869592 97.115705 
z
" style="fill:#c44e52;opacity:0.5;stroke:#ffffff;stroke-linejoin:miter;"/>
   </g>
   <g id="patch_20">
    <path clip-path="url(#pf752ac493e)" d="M 589.429467 230.4 
L 642.989342 230.4 
L 642.989342 76.070816 
L 589.429467 76.070816 
z
" style="fill:#c44e52;opacity:0.5;stroke:#ffffff;stroke-linejoin:miter;"/>
   </g>
   <g id="patch_21">
    <path clip-path="url(#pf752ac493e)" d="M 642.989342 230.4 
L 696.549216 230.4 
L 696.549216 134.52884 
L 642.989342 134.52884 
z
" style="fill:#c44e52;opacity:0.5;stroke:#ffffff;stroke-linejoin:miter;"/>
   </g>
   <g id="patch_22">
    <path clip-path="url(#pf752ac493e)" d="M 696.549216 230.4 
L 750.109091 230.4 
L 750.109091 197.663506 
L 696.549216 197.663506 
z
" style="fill:#c44e52;opacity:0.5;stroke:#ffffff;stroke-linejoin:miter;"/>
   </g>
   <g id="patch_23">
    <path d="M 172.8 230.4 
L 172.8 43.2 
" style="fill:none;stroke:#262626;stroke-linecap:square;stroke-linejoin:miter;stroke-width:1.25;"/>
   </g>
   <g id="patch_24">
    <path d="M 777.6 230.4 
L 777.6 43.2 
" style="fill:none;"/>
   </g>
   <g id="patch_25">
    <path d="M 172.8 230.4 
L 777.6 230.4 
" style="fill:none;stroke:#262626;stroke-linecap:square;stroke-linejoin:miter;stroke-width:1.25;"/>
   </g>
   <g id="patch_26">
    <path d="M 172.8 43.2 
L 777.6 43.2 
" style="fill:none;"/>
   </g>
   <g id="legend_1">
    <g id="patch_27">
     <path d="M 510.6884 71.9111 
L 772.8 71.9111 
Q 776 71.9111 776 68.7111 
L 776 48 
Q 776 44.8 772.8 44.8 
L 510.6884 44.8 
Q 507.4884 44.8 507.4884 48 
L 507.4884 68.7111 
Q 507.4884 71.9111 510.6884 71.9111 
z
" style="fill:#ffffff;stroke:#1a1a1a;stroke-linejoin:miter;"/>
    </g>
    <g id="patch_28">
     <path d="M 513.8884 62.4 
L 545.8884 62.4 
L 545.8884 51.2 
L 513.8884 51.2 
z
" style="fill:#4c72b0;opacity:0.5;stroke:#ffffff;stroke-linejoin:miter;"/>
    </g>
    <g id="text_14">
     <!-- Nominal -->
     <defs>
      <path d="M 20.5 66.40625 
C 19.796875 67.5 19.703125 67.5 17.796875 67.5 
L 5.09375 67.5 
L 5.09375 65 
L 7 65 
C 11 65 12.796875 64.515625 13.09375 64.40625 
L 13.09375 9.53125 
C 13.09375 7.046875 13.09375 2.390625 5.09375 2.390625 
L 5.09375 -0.203125 
C 7.40625 0 11.59375 0 14.09375 0 
C 16.59375 0 20.796875 0 23.09375 -0.203125 
L 23.09375 2.390625 
C 15.09375 2.390625 15.09375 7.046875 15.09375 9.53125 
L 15.09375 63.015625 
C 15.796875 62.421875 15.796875 62.21875 16.5 61.234375 
L 53.59375 1.1875 
C 54.296875 0 54.59375 0 55.09375 0 
C 56.09375 0 56.09375 0.296875 56.09375 2.171875 
L 56.09375 57.890625 
C 56.09375 60.359375 56.09375 65 64.09375 65 
L 64.09375 67.59375 
C 61.796875 67.5 57.59375 67.5 55.09375 67.5 
C 52.59375 67.5 48.40625 67.5 46.09375 67.59375 
L 46.09375 65 
C 54.09375 65 54.09375 60.34375 54.09375 57.859375 
L 54.09375 11.921875 
z
" id="CMR17-78"/>
      <path d="M 43.09375 21.1875 
C 43.09375 34 33.796875 44 22.90625 44 
C 12 44 2.703125 34 2.703125 21.1875 
C 2.703125 8.609375 12 -1 22.90625 -1 
C 33.796875 -1 43.09375 8.609375 43.09375 21.1875 
z
M 22.90625 0.796875 
C 18.203125 0.796875 14.203125 3.59375 11.90625 7.5 
C 9.40625 11.984375 9.09375 17.59375 9.09375 22 
C 9.09375 26.203125 9.296875 31.40625 11.90625 35.90625 
C 13.90625 39.203125 17.796875 42.40625 22.90625 42.40625 
C 27.40625 42.40625 31.203125 39.90625 33.59375 36.40625 
C 36.703125 31.703125 36.703125 25.109375 36.703125 22 
C 36.703125 18.09375 36.5 12.109375 33.796875 7.296875 
C 31 2.703125 26.703125 0.796875 22.90625 0.796875 
z
" id="CMR17-111"/>
      <path d="M 67.59375 30.203125 
C 67.59375 35.1875 66.703125 43.59375 54.796875 43.59375 
C 48 43.59375 43.296875 39 41.5 33.609375 
L 41.40625 33.609375 
C 40.203125 41.8125 34.296875 43.59375 28.703125 43.59375 
C 20.796875 43.59375 16.703125 37.5 15.203125 33.5 
L 15.09375 33.5 
L 15.09375 43.59375 
L 3.296875 42.5 
L 3.296875 39.90625 
C 9.203125 39.90625 10.09375 39.296875 10.09375 34.5 
L 10.09375 6.6875 
C 10.09375 2.875 9.703125 2.390625 3.296875 2.390625 
L 3.296875 -0.203125 
C 5.703125 0 10.09375 0 12.703125 0 
C 15.296875 0 19.796875 0 22.203125 -0.203125 
L 22.203125 2.390625 
C 15.796875 2.390625 15.40625 2.78125 15.40625 6.6875 
L 15.40625 25.90625 
C 15.40625 35.109375 21 42 28 42 
C 35.40625 42 36.203125 35.40625 36.203125 30.59375 
L 36.203125 6.6875 
C 36.203125 2.875 35.796875 2.390625 29.40625 2.390625 
L 29.40625 -0.203125 
C 31.796875 0 36.203125 0 38.796875 0 
C 41.40625 0 45.90625 0 48.296875 -0.203125 
L 48.296875 2.390625 
C 41.90625 2.390625 41.5 2.78125 41.5 6.6875 
L 41.5 25.90625 
C 41.5 35.109375 47.09375 42 54.09375 42 
C 61.5 42 62.296875 35.40625 62.296875 30.59375 
L 62.296875 6.6875 
C 62.296875 2.875 61.90625 2.390625 55.5 2.390625 
L 55.5 -0.203125 
C 57.90625 0 62.296875 0 64.90625 0 
C 67.5 0 72 0 74.40625 -0.203125 
L 74.40625 2.390625 
C 68 2.390625 67.59375 2.78125 67.59375 6.6875 
z
" id="CMR17-109"/>
      <path d="M 15.5 61.078125 
C 15.5 63.265625 13.703125 65.15625 11.40625 65.15625 
C 9.203125 65.15625 7.296875 63.375 7.296875 61.078125 
C 7.296875 58.890625 9.09375 57 11.40625 57 
C 13.59375 57 15.5 58.796875 15.5 61.078125 
z
M 3.796875 42.28125 
L 3.796875 39.703125 
C 9.40625 39.703125 10.203125 39.09375 10.203125 34.328125 
L 10.203125 6.671875 
C 10.203125 2.875 9.796875 2.390625 3.40625 2.390625 
L 3.40625 -0.203125 
C 5.796875 0 10.09375 0 12.59375 0 
C 15 0 19.09375 0 21.40625 -0.203125 
L 21.40625 2.390625 
C 15.5 2.390625 15.296875 2.984375 15.296875 6.5625 
L 15.296875 43.375 
z
" id="CMR17-105"/>
      <path d="M 41.5 30.203125 
C 41.5 35.296875 40.5 43.59375 28.703125 43.59375 
C 20.796875 43.59375 16.703125 37.5 15.203125 33.5 
L 15.09375 33.5 
L 15.09375 43.59375 
L 3.296875 42.5 
L 3.296875 39.90625 
C 9.203125 39.90625 10.09375 39.296875 10.09375 34.5 
L 10.09375 6.6875 
C 10.09375 2.875 9.703125 2.390625 3.296875 2.390625 
L 3.296875 -0.203125 
C 5.703125 0 10.09375 0 12.703125 0 
C 15.296875 0 19.796875 0 22.203125 -0.203125 
L 22.203125 2.390625 
C 15.796875 2.390625 15.40625 2.78125 15.40625 6.6875 
L 15.40625 25.90625 
C 15.40625 35.109375 21 42 28 42 
C 35.40625 42 36.203125 35.40625 36.203125 30.59375 
L 36.203125 6.6875 
C 36.203125 2.875 35.796875 2.390625 29.40625 2.390625 
L 29.40625 -0.203125 
C 31.796875 0 36.203125 0 38.796875 0 
C 41.40625 0 45.90625 0 48.296875 -0.203125 
L 48.296875 2.390625 
C 41.90625 2.390625 41.5 2.78125 41.5 6.6875 
z
" id="CMR17-110"/>
      <path d="M 36 25.828125 
C 36 32.375 36 35.84375 31.796875 39.734375 
C 28.09375 43 23.796875 44 20.40625 44 
C 12.5 44 6.796875 37.609375 6.796875 30.796875 
C 6.796875 27 9.796875 27 10.40625 27 
C 11.703125 27 14 27.78125 14 30.53125 
C 14 33 12.09375 34.078125 10.40625 34.078125 
C 10 34.078125 9.5 33.96875 9.203125 33.875 
C 11.296875 40.5 16.703125 42.40625 20.203125 42.40625 
C 25.203125 42.40625 30.703125 37.953125 30.703125 29.453125 
L 30.703125 25 
C 24.796875 25 17.703125 24.203125 12.09375 21.203125 
C 5.796875 17.703125 4 12.703125 4 8.90625 
C 4 1.203125 13 -1 18.296875 -1 
C 23.796875 -1 28.90625 2.171875 31.09375 7.984375 
C 31.296875 3.640625 34.09375 -0.28125 38.5 -0.28125 
C 40.59375 -0.28125 45.90625 1.09375 45.90625 8.859375 
L 45.90625 14.375 
L 44.09375 14.375 
L 44.09375 8.78125 
C 44.09375 2.78125 41.40625 2 40.09375 2 
C 36 2 36 7.15625 36 11.53125 
z
M 30.703125 13.59375 
C 30.703125 4.953125 24.5 0.59375 19 0.59375 
C 14 0.59375 10.09375 4.296875 10.09375 8.90625 
C 10.09375 11.890625 11.40625 17.1875 17.203125 20.390625 
C 22 23.09375 27.5 23.5 30.703125 23.5 
z
" id="CMR17-97"/>
      <path d="M 15.296875 68.6875 
L 3.40625 67.59375 
L 3.40625 65 
C 9.296875 65 10.203125 64.40625 10.203125 59.640625 
L 10.203125 6.65625 
C 10.203125 2.875 9.796875 2.390625 3.40625 2.390625 
L 3.40625 -0.203125 
C 5.796875 0 10.203125 0 12.703125 0 
C 15.296875 0 19.703125 0 22.09375 -0.203125 
L 22.09375 2.390625 
C 15.703125 2.390625 15.296875 2.78125 15.296875 6.65625 
z
" id="CMR17-108"/>
     </defs>
     <g style="fill:#262626;" transform="translate(558.6884 62.4)scale(0.16 -0.16)">
      <use transform="scale(0.996264)" xlink:href="#CMR17-78"/>
      <use transform="translate(69.07243 0)scale(0.996264)" xlink:href="#CMR17-111"/>
      <use transform="translate(114.762907 0)scale(0.996264)" xlink:href="#CMR17-109"/>
      <use transform="translate(191.682497 0)scale(0.996264)" xlink:href="#CMR17-105"/>
      <use transform="translate(216.553555 0)scale(0.996264)" xlink:href="#CMR17-110"/>
      <use transform="translate(267.448925 0)scale(0.996264)" xlink:href="#CMR17-97"/>
      <use transform="translate(313.139402 0)scale(0.996264)" xlink:href="#CMR17-108"/>
     </g>
    </g>
    <g id="patch_29">
     <path d="M 648.56189 62.4 
L 680.56189 62.4 
L 680.56189 51.2 
L 648.56189 51.2 
z
" style="fill:#c44e52;opacity:0.5;stroke:#ffffff;stroke-linejoin:miter;"/>
    </g>
    <g id="text_15">
     <!-- Anomalous -->
     <defs>
      <path d="M 36.296875 68.40625 
C 35.796875 69.703125 35.59375 70 34.59375 70 
C 33.59375 70 33.40625 69.703125 32.90625 68.40625 
L 11.703125 8.84375 
C 9.796875 3.484375 5.796875 2.390625 2.296875 2.390625 
L 2.296875 -0.203125 
C 4.09375 0 8.09375 0 10 0 
C 12.5 0 16.5 0 18.90625 -0.203125 
L 18.90625 2.390625 
C 14.203125 2.390625 13.5 5.640625 13.5 6.859375 
C 13.5 7.765625 13.703125 8.28125 13.90625 8.890625 
L 19.203125 24 
L 45.40625 24 
L 51.40625 6.90625 
C 51.90625 5.703125 51.90625 5.5 51.90625 5.109375 
C 51.90625 2.390625 47.59375 2.390625 45.703125 2.390625 
L 45.703125 0 
C 48.59375 0 53.796875 0 56.90625 0 
C 59.5 0 64.5 0 66.90625 -0.203125 
L 66.90625 2.390625 
C 61.59375 2.390625 59.796875 2.390625 58.5 6.046875 
z
M 32.296875 60.828125 
L 44.5 26.59375 
L 20.09375 26.59375 
z
" id="CMR17-65"/>
      <path d="M 29.40625 42.078125 
L 29.40625 39.5 
C 35.296875 39.5 36.203125 38.890625 36.203125 34.15625 
L 36.203125 16.125 
C 36.203125 7.8125 31.703125 0.59375 24.296875 0.59375 
C 16.09375 0.59375 15.40625 5.4375 15.40625 10.59375 
L 15.40625 43.171875 
L 3.296875 42.078125 
L 3.296875 39.5 
C 7.296875 39.5 10 39.5 10.09375 35.53125 
L 10.09375 16.53125 
C 10.09375 9.890625 10.09375 5.640625 12.703125 2.859375 
C 14 1.578125 16.5 -1 23.703125 -1 
C 32.203125 -1 35.5 5.890625 36.296875 7.90625 
L 36.40625 7.90625 
L 36.40625 -0.984375 
L 48.296875 -0.984375 
L 48.296875 2 
C 42.40625 2 41.5 2.59375 41.5 7.390625 
L 41.5 43.171875 
z
" id="CMR17-117"/>
      <path d="M 30.90625 42.140625 
C 30.90625 43.953125 30.796875 44.046875 30.203125 44.046875 
C 29.796875 44.046875 29.703125 43.953125 28.5 42.453125 
C 28.203125 42.046875 27.296875 41.03125 27 40.640625 
C 23.796875 44.046875 19.296875 44.046875 17.59375 44.046875 
C 6.5 44.046875 2.5 38.234375 2.5 32.4375 
C 2.5 23.40625 12.703125 21.328125 15.59375 20.703125 
C 21.90625 19.421875 24.09375 19.015625 26.203125 17.203125 
C 27.5 16.015625 29.703125 13.8125 29.703125 10.21875 
C 29.703125 6 27.296875 0.59375 18.09375 0.59375 
C 9.40625 0.59375 6.296875 7.1875 4.5 15.953125 
C 4.203125 17.34375 4.203125 17.453125 3.40625 17.453125 
C 2.59375 17.453125 2.5 17.34375 2.5 15.359375 
L 2.5 0.984375 
C 2.5 -0.796875 2.59375 -0.90625 3.203125 -0.90625 
C 3.703125 -0.90625 3.796875 -0.796875 4.296875 0 
C 4.90625 0.890625 6.40625 3.296875 7 4.3125 
C 9 1.609375 12.5 -1 18.09375 -1 
C 28 -1 33.296875 4.421875 33.296875 12.25 
C 33.296875 17.375 30.59375 20.078125 29.296875 21.28125 
C 26.296875 24.390625 22.796875 25.09375 18.59375 25.890625 
C 13.09375 27.109375 6.09375 28.515625 6.09375 34.640625 
C 6.09375 37.234375 7.5 42.765625 17.59375 42.765625 
C 28.296875 42.765625 28.90625 32.71875 29.09375 29.5 
C 29.203125 29 29.703125 28.890625 30 28.890625 
C 30.90625 28.890625 30.90625 29.203125 30.90625 30.90625 
z
" id="CMR17-115"/>
     </defs>
     <g style="fill:#262626;" transform="translate(693.36189 62.4)scale(0.16 -0.16)">
      <use transform="scale(0.996264)" xlink:href="#CMR17-65"/>
      <use transform="translate(69.07243 0)scale(0.996264)" xlink:href="#CMR17-110"/>
      <use transform="translate(119.9678 0)scale(0.996264)" xlink:href="#CMR17-111"/>
      <use transform="translate(165.658277 0)scale(0.996264)" xlink:href="#CMR17-109"/>
      <use transform="translate(242.577867 0)scale(0.996264)" xlink:href="#CMR17-97"/>
      <use transform="translate(288.268344 0)scale(0.996264)" xlink:href="#CMR17-108"/>
      <use transform="translate(313.139402 0)scale(0.996264)" xlink:href="#CMR17-111"/>
      <use transform="translate(358.829879 0)scale(0.996264)" xlink:href="#CMR17-117"/>
      <use transform="translate(409.725249 0)scale(0.996264)" xlink:href="#CMR17-115"/>
     </g>
    </g>
   </g>
  </g>
 </g>
 <defs>
  <clipPath id="pf752ac493e">
   <rect height="187.2" width="604.8" x="172.8" y="43.2"/>
  </clipPath>
 </defs>
</svg>
