<?xml version="1.0" encoding="utf-8" standalone="no"?>
<!DOCTYPE svg PUBLIC "-//W3C//DTD SVG 1.1//EN"
  "http://www.w3.org/Graphics/SVG/1.1/DTD/svg11.dtd">
<!-- Created with matplotlib (https://matplotlib.org/) -->
<svg height="432pt" version="1.1" viewBox="0 0 648 432" width="648pt" xmlns="http://www.w3.org/2000/svg" xmlns:xlink="http://www.w3.org/1999/xlink">
 <defs>
  <style type="text/css">
*{stroke-linecap:butt;stroke-linejoin:round;}
  </style>
 </defs>
 <g id="figure_1">
  <g id="patch_1">
   <path d="M 0 432 
L 648 432 
L 648 0 
L 0 0 
z
" style="fill:none;"/>
  </g>
  <g id="axes_1">
   <g id="patch_2">
    <path d="M 129.6 378 
L 583.2 378 
L 583.2 64.8 
L 129.6 64.8 
z
" style="fill:none;"/>
   </g>
   <g id="matplotlib.axis_1">
    <g id="xtick_1">
     <g id="line2d_1">
      <defs>
       <path d="M 0 0 
L 0 6 
" id="m9846d1dec6" style="stroke:#262626;stroke-width:1.25;"/>
      </defs>
      <g>
       <use style="fill:#262626;stroke:#262626;stroke-width:1.25;" x="147.263603" xlink:href="#m9846d1dec6" y="378"/>
      </g>
     </g>
     <g id="text_1">
      <!-- $0.0$ -->
      <defs>
       <path d="M 51.703125 32.1875 
C 51.703125 41.828125 51.703125 66 28.09375 66 
C 4.40625 66 4.40625 41.921875 4.40625 32.1875 
C 4.40625 22.5625 4.40625 -1 28 -1 
C 51.59375 -1 51.703125 22.25 51.703125 32.1875 
z
M 28.09375 2.296875 
C 24.90625 2.296875 22.5 3.59375 20.5 5.703125 
C 18 8.21875 16.40625 9.8125 16.40625 33.390625 
C 16.40625 40.421875 16.40625 46.84375 17.203125 52.046875 
C 18.59375 61.984375 25.796875 62.6875 28 62.6875 
C 31.203125 62.6875 37.40625 61.1875 38.796875 52.75 
C 39.703125 47.640625 39.703125 39.515625 39.703125 33.390625 
C 39.703125 9.71875 38.203125 8.3125 35.203125 5.296875 
C 33.203125 3.296875 30.5 2.296875 28.09375 2.296875 
z
" id="CMBX12-48"/>
       <path d="M 23.703125 7.796875 
C 23.703125 12.09375 20.203125 15.59375 15.90625 15.59375 
C 11.59375 15.59375 8.09375 12.09375 8.09375 7.796875 
C 8.09375 3.5 11.59375 0 15.90625 0 
C 20.203125 0 23.703125 3.5 23.703125 7.796875 
z
" id="CMMIB10-58"/>
      </defs>
      <g style="fill:#262626;" transform="translate(139.181703 395.13889)scale(0.11 -0.11)">
       <use transform="scale(0.996264)" xlink:href="#CMBX12-48"/>
       <use transform="translate(56.039851 0)scale(0.996264)" xlink:href="#CMMIB10-58"/>
       <use transform="translate(87.864782 0)scale(0.996264)" xlink:href="#CMBX12-48"/>
      </g>
     </g>
    </g>
    <g id="xtick_2">
     <g id="line2d_2">
      <g>
       <use style="fill:#262626;stroke:#262626;stroke-width:1.25;" x="230.407238" xlink:href="#m9846d1dec6" y="378"/>
      </g>
     </g>
     <g id="text_2">
      <!-- $0.2$ -->
      <defs>
       <path d="M 50.5 21.53125 
L 46.296875 21.53125 
C 46 19.421875 45.296875 13.5 43.796875 12.5 
C 43 11.796875 35.203125 11.796875 33.703125 11.796875 
L 18.203125 11.796875 
C 22 15 31.09375 22.625 32.59375 23.734375 
C 43.703125 32.0625 50.5 37.171875 50.5 46.796875 
C 50.5 58.734375 39.796875 66 26.59375 66 
C 15.296875 66 5.59375 59.46875 5.59375 49.796875 
C 5.59375 44.5 9.90625 43 12.203125 43 
C 15.296875 43 18.90625 45.09375 18.90625 49.6875 
C 18.90625 53.890625 15.796875 56 12.703125 56.40625 
C 16.703125 61.265625 22 61.6875 24.09375 61.6875 
C 33.296875 61.6875 37.703125 53.890625 37.703125 46.6875 
C 37.703125 38.875 32.40625 31.65625 28.296875 27.34375 
L 6.59375 4.59375 
C 5.59375 3.6875 5.59375 3.5 5.59375 1.6875 
L 5.59375 0 
L 47.59375 0 
z
" id="CMBX12-50"/>
      </defs>
      <g style="fill:#262626;" transform="translate(222.325338 395.13889)scale(0.11 -0.11)">
       <use transform="scale(0.996264)" xlink:href="#CMBX12-48"/>
       <use transform="translate(56.039851 0)scale(0.996264)" xlink:href="#CMMIB10-58"/>
       <use transform="translate(87.864782 0)scale(0.996264)" xlink:href="#CMBX12-50"/>
      </g>
     </g>
    </g>
    <g id="xtick_3">
     <g id="line2d_3">
      <g>
       <use style="fill:#262626;stroke:#262626;stroke-width:1.25;" x="313.550873" xlink:href="#m9846d1dec6" y="378"/>
      </g>
     </g>
     <g id="text_3">
      <!-- $0.4$ -->
      <defs>
       <path d="M 43.296875 15.6875 
L 53 15.6875 
L 53 20 
L 43.296875 20 
L 43.296875 63.09375 
C 43.296875 65.59375 43.203125 66 40.703125 66 
C 38.90625 66 38.703125 66 37.5 64.484375 
L 3.09375 20 
L 3.09375 15.6875 
L 31.5 15.6875 
L 31.5 4.296875 
L 20.59375 4.296875 
L 20.59375 0 
C 23.5 0.1875 33.40625 0.1875 37 0.1875 
C 40.40625 0.1875 50.296875 0.1875 53 0 
L 53 4.296875 
L 43.296875 4.296875 
z
M 32.40625 51.9375 
L 32.40625 20 
L 7.703125 20 
z
" id="CMBX12-52"/>
      </defs>
      <g style="fill:#262626;" transform="translate(305.468973 395.13889)scale(0.11 -0.11)">
       <use transform="scale(0.996264)" xlink:href="#CMBX12-48"/>
       <use transform="translate(56.039851 0)scale(0.996264)" xlink:href="#CMMIB10-58"/>
       <use transform="translate(87.864782 0)scale(0.996264)" xlink:href="#CMBX12-52"/>
      </g>
     </g>
    </g>
    <g id="xtick_4">
     <g id="line2d_4">
      <g>
       <use style="fill:#262626;stroke:#262626;stroke-width:1.25;" x="396.694508" xlink:href="#m9846d1dec6" y="378"/>
      </g>
     </g>
     <g id="text_4">
      <!-- $0.6$ -->
      <defs>
       <path d="M 17.40625 36.484375 
C 17.40625 42.609375 17.703125 49.09375 20.5 54.5 
C 22.703125 58.6875 27.796875 62.390625 34.296875 62.390625 
C 36.203125 62.390625 39.796875 62.109375 42.203125 59.796875 
C 38.40625 59.390625 36.796875 56.59375 36.796875 53.890625 
C 36.796875 50.296875 39.5 48 42.703125 48 
C 45.296875 48 48.59375 49.6875 48.59375 54.09375 
C 48.59375 60.078125 44.59375 66 34.09375 66 
C 21.59375 66 4.703125 58.390625 4.703125 31.96875 
C 4.703125 25.25 4.703125 -1 28.40625 -1 
C 41.59375 -1 51.40625 6.796875 51.40625 20.84375 
C 51.40625 34.875 41.703125 42.296875 29.796875 42.296875 
C 27.796875 42.296875 21.40625 42.296875 17.40625 33.78125 
z
M 28.296875 3 
C 21.90625 3 19.40625 8.40625 19 9.203125 
C 17.59375 12.515625 17.59375 20.546875 17.59375 21.4375 
C 17.59375 33.78125 22.90625 39 28.796875 39 
C 38.703125 39 38.703125 30.96875 38.703125 20.9375 
C 38.703125 11.015625 38.703125 3 28.296875 3 
z
" id="CMBX12-54"/>
      </defs>
      <g style="fill:#262626;" transform="translate(388.612608 395.13889)scale(0.11 -0.11)">
       <use transform="scale(0.996264)" xlink:href="#CMBX12-48"/>
       <use transform="translate(56.039851 0)scale(0.996264)" xlink:href="#CMMIB10-58"/>
       <use transform="translate(87.864782 0)scale(0.996264)" xlink:href="#CMBX12-54"/>
      </g>
     </g>
    </g>
    <g id="xtick_5">
     <g id="line2d_5">
      <g>
       <use style="fill:#262626;stroke:#262626;stroke-width:1.25;" x="479.838143" xlink:href="#m9846d1dec6" y="378"/>
      </g>
     </g>
     <g id="text_5">
      <!-- $0.8$ -->
      <defs>
       <path d="M 37.703125 37.109375 
C 42.703125 39.71875 48.296875 43.4375 48.296875 51.25 
C 48.296875 61.59375 39.09375 66 28.203125 66 
C 14.90625 66 7.796875 58.375 7.796875 48.640625 
C 7.796875 43.234375 10.5 37.203125 17.90625 33.296875 
C 6.59375 28.28125 4.703125 21.359375 4.703125 16.140625 
C 4.703125 4.59375 14.703125 -1 27.90625 -1 
C 42.703125 -1 51.40625 7 51.40625 18.640625 
C 51.40625 29.578125 42.796875 34.296875 37.703125 37.109375 
z
M 19.703125 47.4375 
C 17.703125 48.546875 14.90625 50.859375 14.90625 54.171875 
C 14.90625 62.1875 25.59375 62.390625 27.90625 62.390625 
C 36.40625 62.390625 41.203125 57.875 41.203125 51.25 
C 41.203125 47.140625 39.40625 42.828125 33.703125 39.515625 
z
M 22 30.890625 
L 35.796875 22.953125 
C 39.09375 21.046875 43.40625 18.640625 43.40625 13.53125 
C 43.40625 5.5 35.40625 3 28.203125 3 
C 18.296875 3 12.703125 8.3125 12.703125 16.234375 
C 12.703125 23.5625 17.203125 28.171875 22 30.890625 
z
" id="CMBX12-56"/>
      </defs>
      <g style="fill:#262626;" transform="translate(471.756243 395.13889)scale(0.11 -0.11)">
       <use transform="scale(0.996264)" xlink:href="#CMBX12-48"/>
       <use transform="translate(56.039851 0)scale(0.996264)" xlink:href="#CMMIB10-58"/>
       <use transform="translate(87.864782 0)scale(0.996264)" xlink:href="#CMBX12-56"/>
      </g>
     </g>
    </g>
    <g id="xtick_6">
     <g id="line2d_6">
      <g>
       <use style="fill:#262626;stroke:#262626;stroke-width:1.25;" x="562.981778" xlink:href="#m9846d1dec6" y="378"/>
      </g>
     </g>
     <g id="text_6">
      <!-- $1.0$ -->
      <defs>
       <path d="M 34.59375 63.03125 
C 34.59375 66 34.40625 66 31.203125 66 
C 23.796875 59.296875 12.703125 59.296875 10.5 59.296875 
L 8.59375 59.296875 
L 8.59375 55 
L 10.5 55 
C 14 55 19.296875 55.59375 23.296875 56.890625 
L 23.296875 4.296875 
L 9.40625 4.296875 
L 9.40625 0 
C 13.59375 0.1875 24.09375 0.1875 28.796875 0.1875 
C 33.5 0.1875 44.09375 0.1875 48.296875 0 
L 48.296875 4.296875 
L 34.59375 4.296875 
z
" id="CMBX12-49"/>
      </defs>
      <g style="fill:#262626;" transform="translate(554.899878 395.13889)scale(0.11 -0.11)">
       <use transform="scale(0.996264)" xlink:href="#CMBX12-49"/>
       <use transform="translate(56.039851 0)scale(0.996264)" xlink:href="#CMMIB10-58"/>
       <use transform="translate(87.864782 0)scale(0.996264)" xlink:href="#CMBX12-48"/>
      </g>
     </g>
    </g>
    <g id="text_7">
     <!-- \textbf{``Bad Tool" Score} -->
     <defs>
      <path d="M 29.296875 66.375 
C 29.40625 66.6875 29.59375 67.296875 29.59375 67.6875 
C 29.59375 69 28.59375 69 27 69 
L 25.796875 69 
C 23.796875 69 23.703125 68.890625 22.90625 67.6875 
L 16.59375 57.1875 
L 16.59375 47.6875 
C 16.59375 45.09375 16.703125 45 19.296875 45 
L 27 45 
C 29.59375 45 29.703125 45.09375 29.703125 47.6875 
L 29.703125 55.390625 
C 29.703125 58 29.59375 58.09375 26.296875 58.09375 
z
M 51.59375 66.375 
C 51.703125 66.6875 51.90625 67.296875 51.90625 67.6875 
C 51.90625 69 50.90625 69 49.296875 69 
L 48.09375 69 
C 46.09375 69 46 68.890625 45.203125 67.6875 
L 38.90625 57.1875 
L 38.90625 47.6875 
C 38.90625 45.09375 39 45 41.59375 45 
L 49.296875 45 
C 51.90625 45 52 45.09375 52 47.6875 
L 52 55.390625 
C 52 58 51.90625 58.09375 48.59375 58.09375 
z
" id="CMSSBX10-92"/>
      <path d="M 13.90625 69 
C 10.296875 69 9.09375 67.890625 9.09375 64.1875 
L 9.09375 4.796875 
C 9.09375 1.1875 10.203125 0 13.90625 0 
L 41.296875 0 
C 48.703125 0 67.09375 1.296875 67.09375 19.171875 
C 67.09375 33 53.203125 35.1875 49.5 35.796875 
C 58.703125 37.890625 64 43.109375 64 50.953125 
C 64 69 42.703125 69 38.5 69 
z
M 23.203125 39.1875 
L 23.203125 60.390625 
L 34.90625 60.390625 
C 38.796875 60.390625 50.40625 60.09375 50.40625 50.640625 
C 50.40625 39.1875 37.296875 39.1875 34.796875 39.1875 
z
M 23.203125 8.59375 
L 23.203125 32 
L 35.796875 32 
C 39.296875 32 53.203125 32 53.203125 19.359375 
C 53.203125 9.28125 42.5 8.59375 37.703125 8.59375 
z
" id="CMSSBX10-66"/>
      <path d="M 46.40625 31.984375 
C 46.40625 47.890625 31.203125 48 26.203125 48 
C 21.5 48 16.5 47.59375 9.796875 44.796875 
C 7.703125 43.890625 7.203125 43.59375 7.203125 42.484375 
C 7.203125 41.796875 7.796875 35.9375 7.90625 35.125 
C 8 34.515625 8.5 34.015625 9.203125 34.015625 
C 9.703125 34.015625 10 34.3125 10.296875 34.609375 
C 14.59375 39.171875 19.59375 41.390625 25.796875 41.390625 
C 31.203125 41.390625 32.796875 38.0625 32.796875 32.09375 
L 32.796875 28.546875 
C 29.296875 28.546875 3.09375 28.34375 3.09375 13.46875 
C 3.09375 6.390625 8.703125 -1 17.5 -1 
C 20.90625 -1 28.40625 0 33.09375 6.90625 
L 33.09375 4.890625 
C 33.09375 1.6875 33.796875 0.09375 37.90625 0.09375 
L 41.59375 0.09375 
C 45.40625 0.09375 46.40625 1.390625 46.40625 4.890625 
z
M 32.796875 15.59375 
C 32.796875 6.1875 23.296875 6.1875 23 6.1875 
C 18.796875 6.1875 16.09375 9.828125 16.09375 13.671875 
C 16.09375 23.59375 30 24.296875 32.796875 24.40625 
z
" id="CMSSBX10-97"/>
      <path d="M 49.90625 64.265625 
C 49.90625 67.390625 49.203125 69 45.09375 69 
L 41.40625 69 
C 37.59375 69 36.59375 67.6875 36.59375 64.265625 
L 36.59375 41.984375 
C 32.09375 46.296875 27.09375 47 24 47 
C 3.703125 47 3.703125 27.796875 3.703125 22.890625 
C 3.703125 18.296875 3.703125 -1 23.5 -1 
C 27.703125 -1 32 0.1875 36.296875 4.796875 
C 36.296875 1.09375 37.703125 0.09375 41.09375 0.09375 
L 45.09375 0.09375 
C 48.90625 0.09375 49.90625 1.390625 49.90625 4.890625 
z
M 36.296875 12.59375 
C 36.296875 10.890625 36.296875 10 33.40625 8 
C 30.90625 6.390625 28.59375 6.1875 27.40625 6.1875 
C 17.296875 6.1875 17.296875 15.390625 17.296875 22.890625 
C 17.296875 30.390625 17.296875 39.796875 28.5 39.796875 
C 31.40625 39.796875 34.09375 38.796875 36.296875 36.6875 
z
" id="CMSSBX10-100"/>
      <path d="M 29.296875 58.296875 
L 29.296875 4.765625 
C 29.296875 1.1875 30.40625 0 34.09375 0 
L 39.203125 0 
C 43 0 44 1.296875 44 4.765625 
L 44 58.296875 
C 48.40625 58.296875 59.59375 57.984375 64 57.984375 
C 66.796875 57.984375 69.203125 57.984375 69.203125 62.796875 
L 69.203125 63.59375 
C 69.203125 66.796875 68.5 68.390625 64.40625 68.390625 
L 8.796875 68.390625 
C 5.203125 68.390625 4 67.296875 4 63.59375 
L 4 62.796875 
C 4 57.984375 6.40625 57.984375 9.203125 57.984375 
z
" id="CMSSBX10-84"/>
      <path d="M 51.796875 22.78125 
C 51.796875 39.375 43.796875 48 27.5 48 
C 10.796875 48 3.09375 39.0625 3.09375 22.78125 
C 3.09375 6.296875 11.703125 -1 27.40625 -1 
C 43.09375 -1 51.796875 6.1875 51.796875 22.78125 
z
M 27.5 6.796875 
C 16.703125 6.796875 16.703125 15.90625 16.703125 24 
C 16.703125 31.78125 16.703125 40.796875 27.40625 40.796875 
C 38.203125 40.796875 38.203125 31.890625 38.203125 24 
C 38.203125 16 38.203125 6.796875 27.5 6.796875 
z
" id="CMSSBX10-111"/>
      <path d="M 19.40625 64.203125 
C 19.40625 67.390625 18.703125 69 14.59375 69 
L 10.90625 69 
C 7.296875 69 6.09375 67.890625 6.09375 64.203125 
L 6.09375 4.78125 
C 6.09375 1.1875 7.203125 0 10.90625 0 
L 14.59375 0 
C 18.40625 0 19.40625 1.296875 19.40625 4.78125 
z
" id="CMSSBX10-108"/>
      <path d="M 16.796875 56.796875 
L 16.796875 66.296875 
C 16.796875 68.890625 16.703125 69 14.09375 69 
L 6.40625 69 
C 3.796875 69 3.703125 68.890625 3.703125 66.296875 
L 3.703125 58.59375 
C 3.703125 55.984375 3.796875 55.890625 7.09375 55.890625 
L 4.09375 47.609375 
C 4 47.296875 3.796875 46.6875 3.796875 46.296875 
C 3.796875 45 4.796875 45 6.40625 45 
L 7.59375 45 
C 9.59375 45 9.703125 45.09375 10.5 46.296875 
z
M 39.09375 56.796875 
L 39.09375 66.296875 
C 39.09375 68.890625 39 69 36.40625 69 
L 28.703125 69 
C 26.09375 69 26 68.890625 26 66.296875 
L 26 58.59375 
C 26 55.984375 26.09375 55.890625 29.40625 55.890625 
L 26.40625 47.609375 
C 26.296875 47.296875 26.09375 46.6875 26.09375 46.296875 
C 26.09375 45 27.09375 45 28.703125 45 
L 29.90625 45 
C 31.90625 45 32 45.09375 32.796875 46.296875 
z
" id="CMSSBX10-34"/>
      <path d="M 27 44.421875 
C 24.796875 44.921875 18.59375 47.234375 18.59375 52.953125 
C 18.59375 61.484375 27.09375 61.6875 30.5 61.6875 
C 36.09375 61.6875 41.09375 60.390625 46 55.5625 
C 47.59375 54.0625 47.703125 53.953125 48.09375 53.953125 
C 48.703125 53.953125 49.203125 54.265625 49.5 55.765625 
L 51 64.484375 
C 51.203125 65.296875 51.203125 65.484375 51.203125 65.796875 
C 51.203125 66.59375 51.09375 66.6875 48.59375 67.984375 
C 41.5 71.484375 35.59375 72 30.5 72 
C 21.59375 72 6.09375 69.890625 6.09375 51.15625 
C 6.09375 44.015625 9.796875 39.40625 11.703125 37.40625 
C 16.796875 32.171875 21.5 31.171875 29.296875 29.375 
C 34.90625 28.0625 37.09375 27.5625 39.296875 25.546875 
C 40.296875 24.546875 42.40625 22.4375 42.40625 18.625 
C 42.40625 9.1875 33.796875 8.890625 30.5 8.890625 
C 22.09375 8.890625 14.796875 12.3125 9.796875 16.828125 
C 8.59375 18.03125 8.40625 18.03125 8 18.03125 
C 7.40625 18.03125 6.90625 17.71875 6.59375 16.21875 
L 5.09375 7.5 
C 4.90625 6.6875 4.90625 6.5 4.90625 6.1875 
C 4.90625 4.09375 15.296875 0.5 15.796875 0.296875 
C 22.5 -1.8125 27.90625 -2 30.5 -2 
C 45.5 -2 54.90625 4.6875 54.90625 20.234375 
C 54.90625 31.484375 46.59375 39.90625 36.59375 42.21875 
z
" id="CMSSBX10-83"/>
      <path d="M 45.703125 5.09375 
C 45.703125 6.1875 45.296875 10.84375 45.09375 12.15625 
C 45.09375 12.453125 44.90625 13.46875 43.90625 13.46875 
C 43.5 13.46875 43.296875 13.46875 42.296875 12.453125 
C 40.59375 10.9375 35.90625 6.796875 27.703125 6.796875 
C 17.296875 6.796875 17.296875 17.015625 17.296875 23.5 
C 17.296875 31.6875 17.796875 40.1875 28 40.1875 
C 34.5 40.1875 37.203125 38.578125 40.796875 35.53125 
C 42 34.421875 42.203125 34.421875 42.59375 34.421875 
C 43.59375 34.421875 43.796875 35.328125 43.90625 35.734375 
C 44.09375 36.546875 45.09375 42.1875 45.09375 42.6875 
C 45.09375 43.59375 44.40625 43.984375 42.703125 44.796875 
C 37.90625 46.984375 34.90625 48 27.90625 48 
C 13 48 3.703125 40.984375 3.703125 23.296875 
C 3.703125 6.5 12.296875 -1 27.40625 -1 
C 30.09375 -1 36.09375 -0.90625 42.796875 2.5 
C 45.59375 4 45.703125 4.09375 45.703125 5.09375 
z
" id="CMSSBX10-99"/>
      <path d="M 19.40625 22.75 
C 19.40625 32.140625 27.296875 36 33.59375 36.390625 
C 35.40625 36.484375 35.59375 36.484375 35.59375 39.09375 
L 35.59375 43.796875 
C 35.59375 45.796875 35.59375 46.5 33.796875 46.5 
C 31 46.5 23.703125 45.484375 19 34.71875 
L 18.90625 34.71875 
L 18.90625 41.1875 
C 18.90625 44.390625 18.203125 46 14.09375 46 
L 10.90625 46 
C 7.296875 46 6.09375 44.890625 6.09375 41.1875 
L 6.09375 4.765625 
C 6.09375 1.1875 7.203125 0 10.90625 0 
L 14.59375 0 
C 18.40625 0 19.40625 1.296875 19.40625 4.765625 
z
" id="CMSSBX10-114"/>
      <path d="M 43.09375 21.6875 
C 45.40625 21.6875 47.90625 21.796875 47.90625 26.296875 
C 47.90625 39.375 41.90625 48 27 48 
C 11 48 3.09375 38.96875 3.09375 23.59375 
C 3.09375 7 12.59375 -1 28.296875 -1 
C 32.09375 -1 37.796875 -0.5 44.40625 2.796875 
C 46.59375 3.890625 47.296875 4.1875 47.296875 5.390625 
C 47.296875 6.09375 47 9.03125 46.90625 9.84375 
C 46.5 12.984375 46.40625 13.078125 45.5 13.078125 
C 45.09375 13.078125 44.90625 13.078125 43.796875 12.0625 
C 37.90625 6.90625 31.90625 6.1875 28.703125 6.1875 
C 17.40625 6.1875 16.203125 15.203125 15.90625 21.6875 
z
M 16 27 
C 16.296875 33.1875 18.296875 40.796875 27 40.796875 
C 35 40.796875 36.5 34.90625 36.796875 27 
z
" id="CMSSBX10-101"/>
     </defs>
     <g style="fill:#262626;" transform="translate(307.199745 409.61109)scale(0.12 -0.12)">
      <use transform="scale(0.996264)" xlink:href="#CMSSBX10-92"/>
      <use transform="translate(55.625024 0)scale(0.996264)" xlink:href="#CMSSBX10-66"/>
      <use transform="translate(128.68479 0)scale(0.996264)" xlink:href="#CMSSBX10-97"/>
      <use transform="translate(180.988985 0)scale(0.996264)" xlink:href="#CMSSBX10-100"/>
      <use transform="translate(273.420656 0)scale(0.996264)" xlink:href="#CMSSBX10-84"/>
      <use transform="translate(337.347952 0)scale(0.996264)" xlink:href="#CMSSBX10-111"/>
      <use transform="translate(395.186933 0)scale(0.996264)" xlink:href="#CMSSBX10-111"/>
      <use transform="translate(449.981758 0)scale(0.996264)" xlink:href="#CMSSBX10-108"/>
      <use transform="translate(475.441977 0)scale(0.996264)" xlink:href="#CMSSBX10-34"/>
      <use transform="translate(567.596884 0)scale(0.996264)" xlink:href="#CMSSBX10-83"/>
      <use transform="translate(628.480022 0)scale(0.996264)" xlink:href="#CMSSBX10-99"/>
      <use transform="translate(677.186533 0)scale(0.996264)" xlink:href="#CMSSBX10-111"/>
      <use transform="translate(728.937201 0)scale(0.996264)" xlink:href="#CMSSBX10-114"/>
      <use transform="translate(766.020611 0)scale(0.996264)" xlink:href="#CMSSBX10-101"/>
     </g>
    </g>
   </g>
   <g id="matplotlib.axis_2">
    <g id="ytick_1">
     <g id="line2d_7">
      <defs>
       <path d="M 0 0 
L -6 0 
" id="m408ffe773a" style="stroke:#262626;stroke-width:1.25;"/>
      </defs>
      <g>
       <use style="fill:#262626;stroke:#262626;stroke-width:1.25;" x="129.6" xlink:href="#m408ffe773a" y="378"/>
      </g>
     </g>
     <g id="text_8">
      <!-- $0$ -->
      <g style="fill:#262626;" transform="translate(113.77503 381.819445)scale(0.11 -0.11)">
       <use transform="scale(0.996264)" xlink:href="#CMBX12-48"/>
      </g>
     </g>
    </g>
    <g id="ytick_2">
     <g id="line2d_8">
      <g>
       <use style="fill:#262626;stroke:#262626;stroke-width:1.25;" x="129.6" xlink:href="#m408ffe773a" y="313.585737"/>
      </g>
     </g>
     <g id="text_9">
      <!-- $2$ -->
      <g style="fill:#262626;" transform="translate(113.77503 317.405182)scale(0.11 -0.11)">
       <use transform="scale(0.996264)" xlink:href="#CMBX12-50"/>
      </g>
     </g>
    </g>
    <g id="ytick_3">
     <g id="line2d_9">
      <g>
       <use style="fill:#262626;stroke:#262626;stroke-width:1.25;" x="129.6" xlink:href="#m408ffe773a" y="249.171474"/>
      </g>
     </g>
     <g id="text_10">
      <!-- $4$ -->
      <g style="fill:#262626;" transform="translate(113.77503 252.990919)scale(0.11 -0.11)">
       <use transform="scale(0.996264)" xlink:href="#CMBX12-52"/>
      </g>
     </g>
    </g>
    <g id="ytick_4">
     <g id="line2d_10">
      <g>
       <use style="fill:#262626;stroke:#262626;stroke-width:1.25;" x="129.6" xlink:href="#m408ffe773a" y="184.757211"/>
      </g>
     </g>
     <g id="text_11">
      <!-- $6$ -->
      <g style="fill:#262626;" transform="translate(113.77503 188.576656)scale(0.11 -0.11)">
       <use transform="scale(0.996264)" xlink:href="#CMBX12-54"/>
      </g>
     </g>
    </g>
    <g id="ytick_5">
     <g id="line2d_11">
      <g>
       <use style="fill:#262626;stroke:#262626;stroke-width:1.25;" x="129.6" xlink:href="#m408ffe773a" y="120.342948"/>
      </g>
     </g>
     <g id="text_12">
      <!-- $8$ -->
      <g style="fill:#262626;" transform="translate(113.77503 124.162393)scale(0.11 -0.11)">
       <use transform="scale(0.996264)" xlink:href="#CMBX12-56"/>
      </g>
     </g>
    </g>
    <g id="text_13">
     <!-- \textbf{Probability} -->
     <defs>
      <path d="M 23.796875 27 
L 39 27 
C 54.703125 27 64.09375 33.59375 64.09375 47.6875 
C 64.09375 62.484375 54.296875 69 38.90625 69 
L 13.90625 69 
C 10.296875 69 9.09375 67.890625 9.09375 64.1875 
L 9.09375 4.8125 
C 9.09375 1.1875 10.203125 0 13.90625 0 
L 19 0 
C 22.796875 0 23.796875 1.296875 23.796875 4.8125 
z
M 35.796875 60.390625 
C 48.90625 60.390625 50.203125 54.53125 50.203125 47.6875 
C 50.203125 41.140625 49.09375 34.890625 35.703125 34.890625 
L 23.5 34.890625 
L 23.5 60.390625 
z
" id="CMSSBX10-80"/>
      <path d="M 19.40625 64.265625 
C 19.40625 67.390625 18.703125 69 14.59375 69 
L 10.90625 69 
C 7.296875 69 6.09375 67.890625 6.09375 64.265625 
L 6.09375 4.890625 
C 6.09375 1.296875 7.203125 0.09375 10.90625 0.09375 
L 14.90625 0.09375 
C 16.59375 0.09375 19.59375 0.09375 19.703125 4 
C 24.296875 -1 29.40625 -1 31 -1 
C 52.296875 -1 52.296875 18.1875 52.296875 23.1875 
C 52.296875 27.984375 52.296875 47 33.5 47 
C 25.296875 47 20.296875 42.390625 19.40625 41.390625 
z
M 19.703125 36.296875 
C 21 37.484375 24 39.796875 28.59375 39.796875 
C 38.703125 39.796875 38.703125 30.59375 38.703125 23.09375 
C 38.703125 15.6875 38.703125 6.1875 27.5 6.1875 
C 23.296875 6.1875 20.796875 8.6875 19.703125 10.09375 
z
" id="CMSSBX10-98"/>
      <path d="M 10.203125 70 
C 7 70 5.40625 69.390625 5.40625 65.390625 
L 5.40625 60.796875 
C 5.40625 57.59375 6.40625 56.296875 10.09375 56.296875 
L 15.296875 56.296875 
C 20.09375 56.296875 20.09375 58.390625 20.09375 63.09375 
C 20.09375 67.890625 20.09375 70 15.296875 70 
z
M 19.40625 41.171875 
C 19.40625 44.390625 18.703125 46 14.59375 46 
L 10.90625 46 
C 7.296875 46 6.09375 44.890625 6.09375 41.171875 
L 6.09375 4.8125 
C 6.09375 1.1875 7.203125 0 10.90625 0 
L 14.59375 0 
C 18.40625 0 19.40625 1.296875 19.40625 4.8125 
z
" id="CMSSBX10-105"/>
      <path d="M 21.796875 38.796875 
L 30.703125 38.796875 
C 31.90625 38.796875 35.5 38.796875 35.5 42.390625 
C 35.5 46 31.90625 46 30.703125 46 
L 21.796875 46 
L 21.796875 54.21875 
C 21.796875 57.390625 21.09375 59 17 59 
L 13.90625 59 
C 10.296875 59 9.09375 57.890625 9.09375 54.21875 
L 9.09375 46 
L 6.796875 46 
C 5.703125 46 2 46 2 42.390625 
C 2 38.796875 5.59375 38.796875 6.796875 38.796875 
L 8.796875 38.796875 
L 8.796875 13.40625 
C 8.796875 3.296875 12.40625 -1 19.296875 -1 
C 20.203125 -1 24.59375 -1 29.796875 0.59375 
C 31.5 1.09375 37.296875 2.890625 37.296875 4.796875 
C 37.296875 5.09375 37.09375 5.796875 36.5 7.890625 
C 36 9.90625 35.796875 10.5 34.90625 10.5 
C 34.40625 10.5 34.296875 10.40625 33.703125 9.796875 
C 32.59375 9 29.90625 6.796875 25.703125 6.796875 
C 23.296875 6.796875 21.796875 8.5 21.796875 15.125 
z
" id="CMSSBX10-116"/>
      <path d="M 46.796875 41.265625 
C 47.296875 42.578125 47.296875 42.78125 47.296875 43.28125 
C 47.296875 46 44.59375 46 43.296875 46 
L 41.09375 46 
C 39.5 46 37.296875 46 35.796875 43.6875 
C 35.5 43.1875 27.40625 20.8125 26.90625 14.015625 
L 26.796875 14.015625 
C 26.296875 18.984375 22.203125 28.40625 17.90625 38.125 
C 15.09375 44.484375 14.40625 46 9.40625 46 
L 6.796875 46 
C 5.40625 46 2.90625 46 2.90625 43.390625 
C 2.90625 42.984375 3.203125 42.265625 3.40625 41.765625 
L 22.296875 -0.359375 
C 21.5 -2.484375 21.203125 -3.59375 20.90625 -4.609375 
C 19.703125 -7.953125 18 -12.5 12.59375 -12.5 
C 9.296875 -12.5 7 -11.09375 5.90625 -10.375 
C 5.40625 -10.078125 5.203125 -9.96875 4.90625 -9.96875 
C 4.40625 -9.96875 3.59375 -10.28125 3.59375 -11.5 
C 3.59375 -12.3125 4.203125 -19.203125 4.5 -19.609375 
C 5.40625 -20.8125 10.796875 -21 12.40625 -21 
C 24.796875 -21 29.703125 -9.171875 30.5 -6.734375 
z
" id="CMSSBX10-121"/>
     </defs>
     <g style="fill:#262626;" transform="translate(107.4417 250.96682)rotate(-90)scale(0.12 -0.12)">
      <use transform="translate(0 -0.072646)scale(0.996264)" xlink:href="#CMSSBX10-80"/>
      <use transform="translate(70.015609 -0.072646)scale(0.996264)" xlink:href="#CMSSBX10-114"/>
      <use transform="translate(107.09902 -0.072646)scale(0.996264)" xlink:href="#CMSSBX10-111"/>
      <use transform="translate(161.893844 -0.072646)scale(0.996264)" xlink:href="#CMSSBX10-98"/>
      <use transform="translate(217.795632 -0.072646)scale(0.996264)" xlink:href="#CMSSBX10-97"/>
      <use transform="translate(270.099827 -0.072646)scale(0.996264)" xlink:href="#CMSSBX10-98"/>
      <use transform="translate(326.001615 -0.072646)scale(0.996264)" xlink:href="#CMSSBX10-105"/>
      <use transform="translate(351.461834 -0.072646)scale(0.996264)" xlink:href="#CMSSBX10-108"/>
      <use transform="translate(376.922053 -0.072646)scale(0.996264)" xlink:href="#CMSSBX10-105"/>
      <use transform="translate(402.382271 -0.072646)scale(0.996264)" xlink:href="#CMSSBX10-116"/>
      <use transform="translate(439.604018 -0.072646)scale(0.996264)" xlink:href="#CMSSBX10-121"/>
     </g>
    </g>
   </g>
   <g id="patch_3">
    <path clip-path="url(#p8040eb0257)" d="M 151.177586 378 
L 159.135351 378 
L 159.135351 367.955111 
L 151.177586 367.955111 
z
" style="fill:#4c72b0;opacity:0.5;stroke:#ffffff;stroke-linejoin:miter;"/>
   </g>
   <g id="patch_4">
    <path clip-path="url(#p8040eb0257)" d="M 159.135351 378 
L 167.093116 378 
L 167.093116 347.865334 
L 159.135351 347.865334 
z
" style="fill:#4c72b0;opacity:0.5;stroke:#ffffff;stroke-linejoin:miter;"/>
   </g>
   <g id="patch_5">
    <path clip-path="url(#p8040eb0257)" d="M 167.093116 378 
L 175.050881 378 
L 175.050881 332.798001 
L 167.093116 332.798001 
z
" style="fill:#4c72b0;opacity:0.5;stroke:#ffffff;stroke-linejoin:miter;"/>
   </g>
   <g id="patch_6">
    <path clip-path="url(#p8040eb0257)" d="M 175.050881 378 
L 183.008647 378 
L 183.008647 342.84289 
L 175.050881 342.84289 
z
" style="fill:#4c72b0;opacity:0.5;stroke:#ffffff;stroke-linejoin:miter;"/>
   </g>
   <g id="patch_7">
    <path clip-path="url(#p8040eb0257)" d="M 183.008647 378 
L 190.966412 378 
L 190.966412 317.730669 
L 183.008647 317.730669 
z
" style="fill:#4c72b0;opacity:0.5;stroke:#ffffff;stroke-linejoin:miter;"/>
   </g>
   <g id="patch_8">
    <path clip-path="url(#p8040eb0257)" d="M 190.966412 378 
L 198.924177 378 
L 198.924177 327.775557 
L 190.966412 327.775557 
z
" style="fill:#4c72b0;opacity:0.5;stroke:#ffffff;stroke-linejoin:miter;"/>
   </g>
   <g id="patch_9">
    <path clip-path="url(#p8040eb0257)" d="M 198.924177 378 
L 206.881942 378 
L 206.881942 342.84289 
L 198.924177 342.84289 
z
" style="fill:#4c72b0;opacity:0.5;stroke:#ffffff;stroke-linejoin:miter;"/>
   </g>
   <g id="patch_10">
    <path clip-path="url(#p8040eb0257)" d="M 206.881942 378 
L 214.839708 378 
L 214.839708 367.955111 
L 206.881942 367.955111 
z
" style="fill:#4c72b0;opacity:0.5;stroke:#ffffff;stroke-linejoin:miter;"/>
   </g>
   <g id="patch_11">
    <path clip-path="url(#p8040eb0257)" d="M 214.839708 378 
L 222.797473 378 
L 222.797473 312.708224 
L 214.839708 312.708224 
z
" style="fill:#4c72b0;opacity:0.5;stroke:#ffffff;stroke-linejoin:miter;"/>
   </g>
   <g id="patch_12">
    <path clip-path="url(#p8040eb0257)" d="M 222.797473 378 
L 230.755238 378 
L 230.755238 327.775557 
L 222.797473 327.775557 
z
" style="fill:#4c72b0;opacity:0.5;stroke:#ffffff;stroke-linejoin:miter;"/>
   </g>
   <g id="patch_13">
    <path clip-path="url(#p8040eb0257)" d="M 230.755238 378 
L 238.713004 378 
L 238.713004 292.618447 
L 230.755238 292.618447 
z
" style="fill:#4c72b0;opacity:0.5;stroke:#ffffff;stroke-linejoin:miter;"/>
   </g>
   <g id="patch_14">
    <path clip-path="url(#p8040eb0257)" d="M 238.713004 378 
L 246.670769 378 
L 246.670769 337.820446 
L 238.713004 337.820446 
z
" style="fill:#4c72b0;opacity:0.5;stroke:#ffffff;stroke-linejoin:miter;"/>
   </g>
   <g id="patch_15">
    <path clip-path="url(#p8040eb0257)" d="M 246.670769 378 
L 254.628534 378 
L 254.628534 337.820446 
L 246.670769 337.820446 
z
" style="fill:#4c72b0;opacity:0.5;stroke:#ffffff;stroke-linejoin:miter;"/>
   </g>
   <g id="patch_16">
    <path clip-path="url(#p8040eb0257)" d="M 254.628534 378 
L 262.586299 378 
L 262.586299 307.68578 
L 254.628534 307.68578 
z
" style="fill:#4c72b0;opacity:0.5;stroke:#ffffff;stroke-linejoin:miter;"/>
   </g>
   <g id="patch_17">
    <path clip-path="url(#p8040eb0257)" d="M 262.586299 378 
L 270.544065 378 
L 270.544065 292.618447 
L 262.586299 292.618447 
z
" style="fill:#4c72b0;opacity:0.5;stroke:#ffffff;stroke-linejoin:miter;"/>
   </g>
   <g id="patch_18">
    <path clip-path="url(#p8040eb0257)" d="M 270.544065 378 
L 278.50183 378 
L 278.50183 347.865334 
L 270.544065 347.865334 
z
" style="fill:#4c72b0;opacity:0.5;stroke:#ffffff;stroke-linejoin:miter;"/>
   </g>
   <g id="patch_19">
    <path clip-path="url(#p8040eb0257)" d="M 278.50183 378 
L 286.459595 378 
L 286.459595 307.68578 
L 278.50183 307.68578 
z
" style="fill:#4c72b0;opacity:0.5;stroke:#ffffff;stroke-linejoin:miter;"/>
   </g>
   <g id="patch_20">
    <path clip-path="url(#p8040eb0257)" d="M 286.459595 378 
L 294.417361 378 
L 294.417361 327.775557 
L 286.459595 327.775557 
z
" style="fill:#4c72b0;opacity:0.5;stroke:#ffffff;stroke-linejoin:miter;"/>
   </g>
   <g id="patch_21">
    <path clip-path="url(#p8040eb0257)" d="M 294.417361 378 
L 302.375126 378 
L 302.375126 312.708224 
L 294.417361 312.708224 
z
" style="fill:#4c72b0;opacity:0.5;stroke:#ffffff;stroke-linejoin:miter;"/>
   </g>
   <g id="patch_22">
    <path clip-path="url(#p8040eb0257)" d="M 302.375126 378 
L 310.332891 378 
L 310.332891 347.865334 
L 302.375126 347.865334 
z
" style="fill:#4c72b0;opacity:0.5;stroke:#ffffff;stroke-linejoin:miter;"/>
   </g>
   <g id="patch_23">
    <path clip-path="url(#p8040eb0257)" d="M 310.332891 378 
L 318.290656 378 
L 318.290656 332.798001 
L 310.332891 332.798001 
z
" style="fill:#4c72b0;opacity:0.5;stroke:#ffffff;stroke-linejoin:miter;"/>
   </g>
   <g id="patch_24">
    <path clip-path="url(#p8040eb0257)" d="M 318.290656 378 
L 326.248422 378 
L 326.248422 312.708224 
L 318.290656 312.708224 
z
" style="fill:#4c72b0;opacity:0.5;stroke:#ffffff;stroke-linejoin:miter;"/>
   </g>
   <g id="patch_25">
    <path clip-path="url(#p8040eb0257)" d="M 326.248422 378 
L 334.206187 378 
L 334.206187 332.798001 
L 326.248422 332.798001 
z
" style="fill:#4c72b0;opacity:0.5;stroke:#ffffff;stroke-linejoin:miter;"/>
   </g>
   <g id="patch_26">
    <path clip-path="url(#p8040eb0257)" d="M 334.206187 378 
L 342.163952 378 
L 342.163952 362.932667 
L 334.206187 362.932667 
z
" style="fill:#4c72b0;opacity:0.5;stroke:#ffffff;stroke-linejoin:miter;"/>
   </g>
   <g id="patch_27">
    <path clip-path="url(#p8040eb0257)" d="M 342.163952 378 
L 350.121718 378 
L 350.121718 347.865334 
L 342.163952 347.865334 
z
" style="fill:#4c72b0;opacity:0.5;stroke:#ffffff;stroke-linejoin:miter;"/>
   </g>
   <g id="patch_28">
    <path clip-path="url(#p8040eb0257)" d="M 350.121718 378 
L 358.079483 378 
L 358.079483 352.887779 
L 350.121718 352.887779 
z
" style="fill:#4c72b0;opacity:0.5;stroke:#ffffff;stroke-linejoin:miter;"/>
   </g>
   <g id="patch_29">
    <path clip-path="url(#p8040eb0257)" d="M 358.079483 378 
L 366.037248 378 
L 366.037248 352.887779 
L 358.079483 352.887779 
z
" style="fill:#4c72b0;opacity:0.5;stroke:#ffffff;stroke-linejoin:miter;"/>
   </g>
   <g id="patch_30">
    <path clip-path="url(#p8040eb0257)" d="M 366.037248 378 
L 373.995013 378 
L 373.995013 337.820446 
L 366.037248 337.820446 
z
" style="fill:#4c72b0;opacity:0.5;stroke:#ffffff;stroke-linejoin:miter;"/>
   </g>
   <g id="patch_31">
    <path clip-path="url(#p8040eb0257)" d="M 373.995013 378 
L 381.952779 378 
L 381.952779 352.887779 
L 373.995013 352.887779 
z
" style="fill:#4c72b0;opacity:0.5;stroke:#ffffff;stroke-linejoin:miter;"/>
   </g>
   <g id="patch_32">
    <path clip-path="url(#p8040eb0257)" d="M 381.952779 378 
L 389.910544 378 
L 389.910544 367.955111 
L 381.952779 367.955111 
z
" style="fill:#4c72b0;opacity:0.5;stroke:#ffffff;stroke-linejoin:miter;"/>
   </g>
   <g id="patch_33">
    <path clip-path="url(#p8040eb0257)" d="M 389.910544 378 
L 397.868309 378 
L 397.868309 332.798001 
L 389.910544 332.798001 
z
" style="fill:#4c72b0;opacity:0.5;stroke:#ffffff;stroke-linejoin:miter;"/>
   </g>
   <g id="patch_34">
    <path clip-path="url(#p8040eb0257)" d="M 397.868309 378 
L 405.826074 378 
L 405.826074 352.887779 
L 397.868309 352.887779 
z
" style="fill:#4c72b0;opacity:0.5;stroke:#ffffff;stroke-linejoin:miter;"/>
   </g>
   <g id="patch_35">
    <path clip-path="url(#p8040eb0257)" d="M 405.826074 378 
L 413.78384 378 
L 413.78384 327.775557 
L 405.826074 327.775557 
z
" style="fill:#4c72b0;opacity:0.5;stroke:#ffffff;stroke-linejoin:miter;"/>
   </g>
   <g id="patch_36">
    <path clip-path="url(#p8040eb0257)" d="M 413.78384 378 
L 421.741605 378 
L 421.741605 357.910223 
L 413.78384 357.910223 
z
" style="fill:#4c72b0;opacity:0.5;stroke:#ffffff;stroke-linejoin:miter;"/>
   </g>
   <g id="patch_37">
    <path clip-path="url(#p8040eb0257)" d="M 421.741605 378 
L 429.69937 378 
L 429.69937 337.820446 
L 421.741605 337.820446 
z
" style="fill:#4c72b0;opacity:0.5;stroke:#ffffff;stroke-linejoin:miter;"/>
   </g>
   <g id="patch_38">
    <path clip-path="url(#p8040eb0257)" d="M 429.69937 378 
L 437.657136 378 
L 437.657136 352.887779 
L 429.69937 352.887779 
z
" style="fill:#4c72b0;opacity:0.5;stroke:#ffffff;stroke-linejoin:miter;"/>
   </g>
   <g id="patch_39">
    <path clip-path="url(#p8040eb0257)" d="M 437.657136 378 
L 445.614901 378 
L 445.614901 367.955111 
L 437.657136 367.955111 
z
" style="fill:#4c72b0;opacity:0.5;stroke:#ffffff;stroke-linejoin:miter;"/>
   </g>
   <g id="patch_40">
    <path clip-path="url(#p8040eb0257)" d="M 445.614901 378 
L 453.572666 378 
L 453.572666 342.84289 
L 445.614901 342.84289 
z
" style="fill:#4c72b0;opacity:0.5;stroke:#ffffff;stroke-linejoin:miter;"/>
   </g>
   <g id="patch_41">
    <path clip-path="url(#p8040eb0257)" d="M 453.572666 378 
L 461.530431 378 
L 461.530431 367.955111 
L 453.572666 367.955111 
z
" style="fill:#4c72b0;opacity:0.5;stroke:#ffffff;stroke-linejoin:miter;"/>
   </g>
   <g id="patch_42">
    <path clip-path="url(#p8040eb0257)" d="M 461.530431 378 
L 469.488197 378 
L 469.488197 357.910223 
L 461.530431 357.910223 
z
" style="fill:#4c72b0;opacity:0.5;stroke:#ffffff;stroke-linejoin:miter;"/>
   </g>
   <g id="patch_43">
    <path clip-path="url(#p8040eb0257)" d="M 469.488197 378 
L 477.445962 378 
L 477.445962 357.910223 
L 469.488197 357.910223 
z
" style="fill:#4c72b0;opacity:0.5;stroke:#ffffff;stroke-linejoin:miter;"/>
   </g>
   <g id="patch_44">
    <path clip-path="url(#p8040eb0257)" d="M 477.445962 378 
L 485.403727 378 
L 485.403727 347.865334 
L 477.445962 347.865334 
z
" style="fill:#4c72b0;opacity:0.5;stroke:#ffffff;stroke-linejoin:miter;"/>
   </g>
   <g id="patch_45">
    <path clip-path="url(#p8040eb0257)" d="M 485.403727 378 
L 493.361493 378 
L 493.361493 367.955111 
L 485.403727 367.955111 
z
" style="fill:#4c72b0;opacity:0.5;stroke:#ffffff;stroke-linejoin:miter;"/>
   </g>
   <g id="patch_46">
    <path clip-path="url(#p8040eb0257)" d="M 493.361493 378 
L 501.319258 378 
L 501.319258 362.932667 
L 493.361493 362.932667 
z
" style="fill:#4c72b0;opacity:0.5;stroke:#ffffff;stroke-linejoin:miter;"/>
   </g>
   <g id="patch_47">
    <path clip-path="url(#p8040eb0257)" d="M 501.319258 378 
L 509.277023 378 
L 509.277023 357.910223 
L 501.319258 357.910223 
z
" style="fill:#4c72b0;opacity:0.5;stroke:#ffffff;stroke-linejoin:miter;"/>
   </g>
   <g id="patch_48">
    <path clip-path="url(#p8040eb0257)" d="M 509.277023 378 
L 517.234788 378 
L 517.234788 372.977556 
L 509.277023 372.977556 
z
" style="fill:#4c72b0;opacity:0.5;stroke:#ffffff;stroke-linejoin:miter;"/>
   </g>
   <g id="patch_49">
    <path clip-path="url(#p8040eb0257)" d="M 517.234788 378 
L 525.192554 378 
L 525.192554 372.977556 
L 517.234788 372.977556 
z
" style="fill:#4c72b0;opacity:0.5;stroke:#ffffff;stroke-linejoin:miter;"/>
   </g>
   <g id="patch_50">
    <path clip-path="url(#p8040eb0257)" d="M 525.192554 378 
L 533.150319 378 
L 533.150319 372.977556 
L 525.192554 372.977556 
z
" style="fill:#4c72b0;opacity:0.5;stroke:#ffffff;stroke-linejoin:miter;"/>
   </g>
   <g id="patch_51">
    <path clip-path="url(#p8040eb0257)" d="M 533.150319 378 
L 541.108084 378 
L 541.108084 378 
L 533.150319 378 
z
" style="fill:#4c72b0;opacity:0.5;stroke:#ffffff;stroke-linejoin:miter;"/>
   </g>
   <g id="patch_52">
    <path clip-path="url(#p8040eb0257)" d="M 541.108084 378 
L 549.06585 378 
L 549.06585 372.977556 
L 541.108084 372.977556 
z
" style="fill:#4c72b0;opacity:0.5;stroke:#ffffff;stroke-linejoin:miter;"/>
   </g>
   <g id="patch_53">
    <path clip-path="url(#p8040eb0257)" d="M 150.218182 378 
L 158.465455 378 
L 158.465455 368.220141 
L 150.218182 368.220141 
z
" style="fill:#c44e52;opacity:0.5;stroke:#ffffff;stroke-linejoin:miter;"/>
   </g>
   <g id="patch_54">
    <path clip-path="url(#p8040eb0257)" d="M 158.465455 378 
L 166.712727 378 
L 166.712727 378 
L 158.465455 378 
z
" style="fill:#c44e52;opacity:0.5;stroke:#ffffff;stroke-linejoin:miter;"/>
   </g>
   <g id="patch_55">
    <path clip-path="url(#p8040eb0257)" d="M 166.712727 378 
L 174.96 378 
L 174.96 373.11007 
L 166.712727 373.11007 
z
" style="fill:#c44e52;opacity:0.5;stroke:#ffffff;stroke-linejoin:miter;"/>
   </g>
   <g id="patch_56">
    <path clip-path="url(#p8040eb0257)" d="M 174.96 378 
L 183.207273 378 
L 183.207273 378 
L 174.96 378 
z
" style="fill:#c44e52;opacity:0.5;stroke:#ffffff;stroke-linejoin:miter;"/>
   </g>
   <g id="patch_57">
    <path clip-path="url(#p8040eb0257)" d="M 183.207273 378 
L 191.454545 378 
L 191.454545 378 
L 183.207273 378 
z
" style="fill:#c44e52;opacity:0.5;stroke:#ffffff;stroke-linejoin:miter;"/>
   </g>
   <g id="patch_58">
    <path clip-path="url(#p8040eb0257)" d="M 191.454545 378 
L 199.701818 378 
L 199.701818 378 
L 191.454545 378 
z
" style="fill:#c44e52;opacity:0.5;stroke:#ffffff;stroke-linejoin:miter;"/>
   </g>
   <g id="patch_59">
    <path clip-path="url(#p8040eb0257)" d="M 199.701818 378 
L 207.949091 378 
L 207.949091 378 
L 199.701818 378 
z
" style="fill:#c44e52;opacity:0.5;stroke:#ffffff;stroke-linejoin:miter;"/>
   </g>
   <g id="patch_60">
    <path clip-path="url(#p8040eb0257)" d="M 207.949091 378 
L 216.196364 378 
L 216.196364 378 
L 207.949091 378 
z
" style="fill:#c44e52;opacity:0.5;stroke:#ffffff;stroke-linejoin:miter;"/>
   </g>
   <g id="patch_61">
    <path clip-path="url(#p8040eb0257)" d="M 216.196364 378 
L 224.443636 378 
L 224.443636 378 
L 216.196364 378 
z
" style="fill:#c44e52;opacity:0.5;stroke:#ffffff;stroke-linejoin:miter;"/>
   </g>
   <g id="patch_62">
    <path clip-path="url(#p8040eb0257)" d="M 224.443636 378 
L 232.690909 378 
L 232.690909 378 
L 224.443636 378 
z
" style="fill:#c44e52;opacity:0.5;stroke:#ffffff;stroke-linejoin:miter;"/>
   </g>
   <g id="patch_63">
    <path clip-path="url(#p8040eb0257)" d="M 232.690909 378 
L 240.938182 378 
L 240.938182 378 
L 232.690909 378 
z
" style="fill:#c44e52;opacity:0.5;stroke:#ffffff;stroke-linejoin:miter;"/>
   </g>
   <g id="patch_64">
    <path clip-path="url(#p8040eb0257)" d="M 240.938182 378 
L 249.185455 378 
L 249.185455 378 
L 240.938182 378 
z
" style="fill:#c44e52;opacity:0.5;stroke:#ffffff;stroke-linejoin:miter;"/>
   </g>
   <g id="patch_65">
    <path clip-path="url(#p8040eb0257)" d="M 249.185455 378 
L 257.432727 378 
L 257.432727 378 
L 249.185455 378 
z
" style="fill:#c44e52;opacity:0.5;stroke:#ffffff;stroke-linejoin:miter;"/>
   </g>
   <g id="patch_66">
    <path clip-path="url(#p8040eb0257)" d="M 257.432727 378 
L 265.68 378 
L 265.68 373.11007 
L 257.432727 373.11007 
z
" style="fill:#c44e52;opacity:0.5;stroke:#ffffff;stroke-linejoin:miter;"/>
   </g>
   <g id="patch_67">
    <path clip-path="url(#p8040eb0257)" d="M 265.68 378 
L 273.927273 378 
L 273.927273 378 
L 265.68 378 
z
" style="fill:#c44e52;opacity:0.5;stroke:#ffffff;stroke-linejoin:miter;"/>
   </g>
   <g id="patch_68">
    <path clip-path="url(#p8040eb0257)" d="M 273.927273 378 
L 282.174545 378 
L 282.174545 378 
L 273.927273 378 
z
" style="fill:#c44e52;opacity:0.5;stroke:#ffffff;stroke-linejoin:miter;"/>
   </g>
   <g id="patch_69">
    <path clip-path="url(#p8040eb0257)" d="M 282.174545 378 
L 290.421818 378 
L 290.421818 373.11007 
L 282.174545 373.11007 
z
" style="fill:#c44e52;opacity:0.5;stroke:#ffffff;stroke-linejoin:miter;"/>
   </g>
   <g id="patch_70">
    <path clip-path="url(#p8040eb0257)" d="M 290.421818 378 
L 298.669091 378 
L 298.669091 378 
L 290.421818 378 
z
" style="fill:#c44e52;opacity:0.5;stroke:#ffffff;stroke-linejoin:miter;"/>
   </g>
   <g id="patch_71">
    <path clip-path="url(#p8040eb0257)" d="M 298.669091 378 
L 306.916364 378 
L 306.916364 378 
L 298.669091 378 
z
" style="fill:#c44e52;opacity:0.5;stroke:#ffffff;stroke-linejoin:miter;"/>
   </g>
   <g id="patch_72">
    <path clip-path="url(#p8040eb0257)" d="M 306.916364 378 
L 315.163636 378 
L 315.163636 378 
L 306.916364 378 
z
" style="fill:#c44e52;opacity:0.5;stroke:#ffffff;stroke-linejoin:miter;"/>
   </g>
   <g id="patch_73">
    <path clip-path="url(#p8040eb0257)" d="M 315.163636 378 
L 323.410909 378 
L 323.410909 378 
L 315.163636 378 
z
" style="fill:#c44e52;opacity:0.5;stroke:#ffffff;stroke-linejoin:miter;"/>
   </g>
   <g id="patch_74">
    <path clip-path="url(#p8040eb0257)" d="M 323.410909 378 
L 331.658182 378 
L 331.658182 378 
L 323.410909 378 
z
" style="fill:#c44e52;opacity:0.5;stroke:#ffffff;stroke-linejoin:miter;"/>
   </g>
   <g id="patch_75">
    <path clip-path="url(#p8040eb0257)" d="M 331.658182 378 
L 339.905455 378 
L 339.905455 363.330211 
L 331.658182 363.330211 
z
" style="fill:#c44e52;opacity:0.5;stroke:#ffffff;stroke-linejoin:miter;"/>
   </g>
   <g id="patch_76">
    <path clip-path="url(#p8040eb0257)" d="M 339.905455 378 
L 348.152727 378 
L 348.152727 348.660422 
L 339.905455 348.660422 
z
" style="fill:#c44e52;opacity:0.5;stroke:#ffffff;stroke-linejoin:miter;"/>
   </g>
   <g id="patch_77">
    <path clip-path="url(#p8040eb0257)" d="M 348.152727 378 
L 356.4 378 
L 356.4 368.220141 
L 348.152727 368.220141 
z
" style="fill:#c44e52;opacity:0.5;stroke:#ffffff;stroke-linejoin:miter;"/>
   </g>
   <g id="patch_78">
    <path clip-path="url(#p8040eb0257)" d="M 356.4 378 
L 364.647273 378 
L 364.647273 373.11007 
L 356.4 373.11007 
z
" style="fill:#c44e52;opacity:0.5;stroke:#ffffff;stroke-linejoin:miter;"/>
   </g>
   <g id="patch_79">
    <path clip-path="url(#p8040eb0257)" d="M 364.647273 378 
L 372.894545 378 
L 372.894545 363.330211 
L 364.647273 363.330211 
z
" style="fill:#c44e52;opacity:0.5;stroke:#ffffff;stroke-linejoin:miter;"/>
   </g>
   <g id="patch_80">
    <path clip-path="url(#p8040eb0257)" d="M 372.894545 378 
L 381.141818 378 
L 381.141818 373.11007 
L 372.894545 373.11007 
z
" style="fill:#c44e52;opacity:0.5;stroke:#ffffff;stroke-linejoin:miter;"/>
   </g>
   <g id="patch_81">
    <path clip-path="url(#p8040eb0257)" d="M 381.141818 378 
L 389.389091 378 
L 389.389091 368.220141 
L 381.141818 368.220141 
z
" style="fill:#c44e52;opacity:0.5;stroke:#ffffff;stroke-linejoin:miter;"/>
   </g>
   <g id="patch_82">
    <path clip-path="url(#p8040eb0257)" d="M 389.389091 378 
L 397.636364 378 
L 397.636364 363.330211 
L 389.389091 363.330211 
z
" style="fill:#c44e52;opacity:0.5;stroke:#ffffff;stroke-linejoin:miter;"/>
   </g>
   <g id="patch_83">
    <path clip-path="url(#p8040eb0257)" d="M 397.636364 378 
L 405.883636 378 
L 405.883636 368.220141 
L 397.636364 368.220141 
z
" style="fill:#c44e52;opacity:0.5;stroke:#ffffff;stroke-linejoin:miter;"/>
   </g>
   <g id="patch_84">
    <path clip-path="url(#p8040eb0257)" d="M 405.883636 378 
L 414.130909 378 
L 414.130909 378 
L 405.883636 378 
z
" style="fill:#c44e52;opacity:0.5;stroke:#ffffff;stroke-linejoin:miter;"/>
   </g>
   <g id="patch_85">
    <path clip-path="url(#p8040eb0257)" d="M 414.130909 378 
L 422.378182 378 
L 422.378182 353.550351 
L 414.130909 353.550351 
z
" style="fill:#c44e52;opacity:0.5;stroke:#ffffff;stroke-linejoin:miter;"/>
   </g>
   <g id="patch_86">
    <path clip-path="url(#p8040eb0257)" d="M 422.378182 378 
L 430.625455 378 
L 430.625455 368.220141 
L 422.378182 368.220141 
z
" style="fill:#c44e52;opacity:0.5;stroke:#ffffff;stroke-linejoin:miter;"/>
   </g>
   <g id="patch_87">
    <path clip-path="url(#p8040eb0257)" d="M 430.625455 378 
L 438.872727 378 
L 438.872727 363.330211 
L 430.625455 363.330211 
z
" style="fill:#c44e52;opacity:0.5;stroke:#ffffff;stroke-linejoin:miter;"/>
   </g>
   <g id="patch_88">
    <path clip-path="url(#p8040eb0257)" d="M 438.872727 378 
L 447.12 378 
L 447.12 363.330211 
L 438.872727 363.330211 
z
" style="fill:#c44e52;opacity:0.5;stroke:#ffffff;stroke-linejoin:miter;"/>
   </g>
   <g id="patch_89">
    <path clip-path="url(#p8040eb0257)" d="M 447.12 378 
L 455.367273 378 
L 455.367273 373.11007 
L 447.12 373.11007 
z
" style="fill:#c44e52;opacity:0.5;stroke:#ffffff;stroke-linejoin:miter;"/>
   </g>
   <g id="patch_90">
    <path clip-path="url(#p8040eb0257)" d="M 455.367273 378 
L 463.614545 378 
L 463.614545 358.440281 
L 455.367273 358.440281 
z
" style="fill:#c44e52;opacity:0.5;stroke:#ffffff;stroke-linejoin:miter;"/>
   </g>
   <g id="patch_91">
    <path clip-path="url(#p8040eb0257)" d="M 463.614545 378 
L 471.861818 378 
L 471.861818 343.770492 
L 463.614545 343.770492 
z
" style="fill:#c44e52;opacity:0.5;stroke:#ffffff;stroke-linejoin:miter;"/>
   </g>
   <g id="patch_92">
    <path clip-path="url(#p8040eb0257)" d="M 471.861818 378 
L 480.109091 378 
L 480.109091 333.990632 
L 471.861818 333.990632 
z
" style="fill:#c44e52;opacity:0.5;stroke:#ffffff;stroke-linejoin:miter;"/>
   </g>
   <g id="patch_93">
    <path clip-path="url(#p8040eb0257)" d="M 480.109091 378 
L 488.356364 378 
L 488.356364 348.660422 
L 480.109091 348.660422 
z
" style="fill:#c44e52;opacity:0.5;stroke:#ffffff;stroke-linejoin:miter;"/>
   </g>
   <g id="patch_94">
    <path clip-path="url(#p8040eb0257)" d="M 488.356364 378 
L 496.603636 378 
L 496.603636 343.770492 
L 488.356364 343.770492 
z
" style="fill:#c44e52;opacity:0.5;stroke:#ffffff;stroke-linejoin:miter;"/>
   </g>
   <g id="patch_95">
    <path clip-path="url(#p8040eb0257)" d="M 496.603636 378 
L 504.850909 378 
L 504.850909 314.430913 
L 496.603636 314.430913 
z
" style="fill:#c44e52;opacity:0.5;stroke:#ffffff;stroke-linejoin:miter;"/>
   </g>
   <g id="patch_96">
    <path clip-path="url(#p8040eb0257)" d="M 504.850909 378 
L 513.098182 378 
L 513.098182 294.871194 
L 504.850909 294.871194 
z
" style="fill:#c44e52;opacity:0.5;stroke:#ffffff;stroke-linejoin:miter;"/>
   </g>
   <g id="patch_97">
    <path clip-path="url(#p8040eb0257)" d="M 513.098182 378 
L 521.345455 378 
L 521.345455 270.421546 
L 513.098182 270.421546 
z
" style="fill:#c44e52;opacity:0.5;stroke:#ffffff;stroke-linejoin:miter;"/>
   </g>
   <g id="patch_98">
    <path clip-path="url(#p8040eb0257)" d="M 521.345455 378 
L 529.592727 378 
L 529.592727 250.861827 
L 521.345455 250.861827 
z
" style="fill:#c44e52;opacity:0.5;stroke:#ffffff;stroke-linejoin:miter;"/>
   </g>
   <g id="patch_99">
    <path clip-path="url(#p8040eb0257)" d="M 529.592727 378 
L 537.84 378 
L 537.84 206.852459 
L 529.592727 206.852459 
z
" style="fill:#c44e52;opacity:0.5;stroke:#ffffff;stroke-linejoin:miter;"/>
   </g>
   <g id="patch_100">
    <path clip-path="url(#p8040eb0257)" d="M 537.84 378 
L 546.087273 378 
L 546.087273 153.063232 
L 537.84 153.063232 
z
" style="fill:#c44e52;opacity:0.5;stroke:#ffffff;stroke-linejoin:miter;"/>
   </g>
   <g id="patch_101">
    <path clip-path="url(#p8040eb0257)" d="M 546.087273 378 
L 554.334545 378 
L 554.334545 79.714286 
L 546.087273 79.714286 
z
" style="fill:#c44e52;opacity:0.5;stroke:#ffffff;stroke-linejoin:miter;"/>
   </g>
   <g id="patch_102">
    <path clip-path="url(#p8040eb0257)" d="M 554.334545 378 
L 562.581818 378 
L 562.581818 197.0726 
L 554.334545 197.0726 
z
" style="fill:#c44e52;opacity:0.5;stroke:#ffffff;stroke-linejoin:miter;"/>
   </g>
   <g id="patch_103">
    <path d="M 129.6 378 
L 129.6 64.8 
" style="fill:none;stroke:#262626;stroke-linecap:square;stroke-linejoin:miter;stroke-width:1.25;"/>
   </g>
   <g id="patch_104">
    <path d="M 583.2 378 
L 583.2 64.8 
" style="fill:none;"/>
   </g>
   <g id="patch_105">
    <path d="M 129.6 378 
L 583.2 378 
" style="fill:none;stroke:#262626;stroke-linecap:square;stroke-linejoin:miter;stroke-width:1.25;"/>
   </g>
   <g id="patch_106">
    <path d="M 129.6 64.8 
L 583.2 64.8 
" style="fill:none;"/>
   </g>
   <g id="legend_1">
    <g id="patch_107">
     <path d="M 132.9 99.87778 
L 216.89732 99.87778 
Q 219.09732 99.87778 219.09732 97.67778 
L 219.09732 68.1 
Q 219.09732 65.9 216.89732 65.9 
L 132.9 65.9 
Q 130.7 65.9 130.7 68.1 
L 130.7 97.67778 
Q 130.7 99.87778 132.9 99.87778 
z
" style="fill:none;opacity:0;"/>
    </g>
    <g id="patch_108">
     <path d="M 135.1 78 
L 157.1 78 
L 157.1 70.3 
L 135.1 70.3 
z
" style="fill:#4c72b0;opacity:0.5;stroke:#ffffff;stroke-linejoin:miter;"/>
    </g>
    <g id="text_14">
     <!-- Good Tool -->
     <defs>
      <path d="M 56.40625 29.1875 
L 36.5 29.1875 
L 36.5 23 
L 48.796875 23 
L 48.796875 7.390625 
C 44.90625 6.296875 40.90625 5.5 36.90625 5.5 
C 22.90625 5.5 14.59375 20.484375 14.59375 34.6875 
C 14.59375 48.796875 23.296875 63.59375 36.90625 63.59375 
C 44.59375 63.59375 48.90625 61.1875 54.203125 57.1875 
L 55.5 65.1875 
C 48.90625 68.59375 44.796875 70 37.296875 70 
C 17.90625 70 6.203125 52.390625 6.203125 34.390625 
C 6.203125 17.1875 18 -1 36.703125 -1 
C 43.703125 -1 50.203125 0.796875 56.40625 3.890625 
z
" id="CMSS17-71"/>
      <path d="M 44.203125 21.1875 
C 44.203125 33.984375 34.703125 44 23.5 44 
C 12 44 2.703125 33.6875 2.703125 21.1875 
C 2.703125 8.5 12.296875 -1 23.40625 -1 
C 34.796875 -1 44.203125 8.796875 44.203125 21.1875 
z
M 23.5 5.296875 
C 16.40625 5.296875 10.296875 11.09375 10.296875 21.984375 
C 10.296875 33.59375 17.40625 37.890625 23.40625 37.890625 
C 29.90625 37.890625 36.59375 33.1875 36.59375 21.984375 
C 36.59375 10.6875 30.09375 5.296875 23.5 5.296875 
z
" id="CMSS17-111"/>
      <path d="M 40.796875 69 
L 33.40625 69 
L 33.40625 38.984375 
C 30.296875 41.59375 25.203125 44 19.59375 44 
C 10.5 44 3.296875 34.046875 3.296875 21.484375 
C 3.296875 8.9375 10.40625 -1 19.296875 -1 
C 26.203125 -1 30.796875 2.6875 33.203125 4.796875 
L 33.203125 -0.203125 
L 40.796875 -0.203125 
z
M 33.203125 13.296875 
C 33.203125 11.875 33.203125 10.359375 30.09375 7.625 
C 28.09375 5.90625 25.703125 5.09375 23.40625 5.09375 
C 18 5.09375 10.90625 9.140625 10.90625 21.390625 
C 10.90625 34.140625 18.90625 37.890625 24.40625 37.890625 
C 28.09375 37.890625 31.09375 36.0625 33.203125 33.03125 
z
" id="CMSS17-100"/>
      <path d="M 36.203125 62.296875 
L 44.5 62.296875 
C 45.703125 62.296875 46.90625 62.1875 48.09375 62.1875 
L 60.59375 62.1875 
L 60.59375 68.6875 
L 3.40625 68.6875 
L 3.40625 62.1875 
L 15.90625 62.1875 
C 17.09375 62.1875 18.296875 62.296875 19.5 62.296875 
L 27.796875 62.296875 
L 27.796875 0 
L 36.203125 0 
z
" id="CMSS17-84"/>
      <path d="M 14.796875 69 
L 7.40625 69 
L 7.40625 0 
L 14.796875 0 
z
" id="CMSS17-108"/>
     </defs>
     <g style="fill:#262626;" transform="translate(165.9 78)scale(0.11 -0.11)">
      <use transform="scale(0.996264)" xlink:href="#CMSS17-71"/>
      <use transform="translate(62.458226 0)scale(0.996264)" xlink:href="#CMSS17-111"/>
      <use transform="translate(111.904288 0)scale(0.996264)" xlink:href="#CMSS17-111"/>
      <use transform="translate(161.35035 0)scale(0.996264)" xlink:href="#CMSS17-100"/>
      <use transform="translate(240.784406 0)scale(0.996264)" xlink:href="#CMSS17-84"/>
      <use transform="translate(296.796604 0)scale(0.996264)" xlink:href="#CMSS17-111"/>
      <use transform="translate(346.242667 0)scale(0.996264)" xlink:href="#CMSS17-111"/>
      <use transform="translate(393.08629 0)scale(0.996264)" xlink:href="#CMSS17-108"/>
     </g>
    </g>
    <g id="patch_109">
     <path d="M 135.1 93.33889 
L 157.1 93.33889 
L 157.1 85.63889 
L 135.1 85.63889 
z
" style="fill:#c44e52;opacity:0.5;stroke:#ffffff;stroke-linejoin:miter;"/>
    </g>
    <g id="text_15">
     <!-- Bad Tool -->
     <defs>
      <path d="M 8.90625 69 
L 8.90625 0 
L 33.796875 0 
C 47.40625 0 57.296875 8.984375 57.296875 18.75 
C 57.296875 26.3125 50.796875 33.984375 39.09375 36.1875 
C 52.09375 39.984375 54.703125 47.484375 54.703125 51.734375 
C 54.703125 60.625 44.90625 69 31.203125 69 
z
M 17 39 
L 17 63.390625 
L 28.5 63.390625 
C 38.796875 63.390625 46.90625 58.15625 46.90625 51.640625 
C 46.90625 45.703125 40.5 39 27.59375 39 
z
M 17 5.59375 
L 17 32.890625 
L 30.296875 32.890625 
C 41.09375 32.890625 49.40625 26.21875 49.40625 18.84375 
C 49.40625 12.0625 42.09375 5.59375 31 5.59375 
z
" id="CMSS17-66"/>
      <path d="M 37.59375 27.953125 
C 37.59375 37.484375 30.90625 44 21.90625 44 
C 17.5 44 12.703125 43.1875 7.203125 39.984375 
L 7.796875 33.328125 
C 10.296875 35.15625 14.59375 38.09375 21.796875 38.09375 
C 26.90625 38.09375 30 34.140625 30 27.84375 
L 30 24 
C 14 23.5 4 18.890625 4 11.109375 
C 4 7.0625 6.5 -1 14.796875 -1 
C 16.296875 -1 24.40625 -0.8125 30.203125 3.5 
L 30.203125 -0.203125 
L 37.59375 -0.203125 
z
M 30 12.875 
C 30 11.109375 30 8.734375 27 6.96875 
C 24.40625 5.296875 21.09375 5.09375 19.703125 5.09375 
C 14.703125 5.09375 11.296875 7.859375 11.296875 11.296875 
C 11.296875 18.203125 26.90625 18.890625 30 19 
z
" id="CMSS17-97"/>
     </defs>
     <g style="fill:#262626;" transform="translate(165.9 93.33889)scale(0.11 -0.11)">
      <use transform="scale(0.996264)" xlink:href="#CMSS17-66"/>
      <use transform="translate(62.33804 0)scale(0.996264)" xlink:href="#CMSS17-97"/>
      <use transform="translate(107.259961 0)scale(0.996264)" xlink:href="#CMSS17-100"/>
      <use transform="translate(186.694017 0)scale(0.996264)" xlink:href="#CMSS17-84"/>
      <use transform="translate(242.706215 0)scale(0.996264)" xlink:href="#CMSS17-111"/>
      <use transform="translate(292.152277 0)scale(0.996264)" xlink:href="#CMSS17-111"/>
      <use transform="translate(338.995901 0)scale(0.996264)" xlink:href="#CMSS17-108"/>
     </g>
    </g>
   </g>
  </g>
 </g>
 <defs>
  <clipPath id="p8040eb0257">
   <rect height="313.2" width="453.6" x="129.6" y="64.8"/>
  </clipPath>
 </defs>
</svg>
