<?xml version="1.0" encoding="utf-8" standalone="no"?>
<!DOCTYPE svg PUBLIC "-//W3C//DTD SVG 1.1//EN"
  "http://www.w3.org/Graphics/SVG/1.1/DTD/svg11.dtd">
<!-- Created with matplotlib (https://matplotlib.org/) -->
<svg height="432pt" version="1.1" viewBox="0 0 648 432" width="648pt" xmlns="http://www.w3.org/2000/svg" xmlns:xlink="http://www.w3.org/1999/xlink">
 <defs>
  <style type="text/css">
*{stroke-linecap:butt;stroke-linejoin:round;}
  </style>
 </defs>
 <g id="figure_1">
  <g id="patch_1">
   <path d="M 0 432 
L 648 432 
L 648 0 
L 0 0 
z
" style="fill:none;"/>
  </g>
  <g id="axes_1">
   <g id="patch_2">
    <path d="M 129.6 378 
L 583.2 378 
L 583.2 64.8 
L 129.6 64.8 
z
" style="fill:none;"/>
   </g>
   <g id="matplotlib.axis_1">
    <g id="xtick_1">
     <g id="line2d_1">
      <defs>
       <path d="M 0 0 
L 0 6 
" id="mdacbfa7207" style="stroke:#262626;stroke-width:1.25;"/>
      </defs>
      <g>
       <use style="fill:#262626;stroke:#262626;stroke-width:1.25;" x="147.266442" xlink:href="#mdacbfa7207" y="378"/>
      </g>
     </g>
     <g id="text_1">
      <!-- $0.0$ -->
      <defs>
       <path d="M 51.703125 32.1875 
C 51.703125 41.828125 51.703125 66 28.09375 66 
C 4.40625 66 4.40625 41.921875 4.40625 32.1875 
C 4.40625 22.5625 4.40625 -1 28 -1 
C 51.59375 -1 51.703125 22.25 51.703125 32.1875 
z
M 28.09375 2.296875 
C 24.90625 2.296875 22.5 3.59375 20.5 5.703125 
C 18 8.21875 16.40625 9.8125 16.40625 33.390625 
C 16.40625 40.421875 16.40625 46.84375 17.203125 52.046875 
C 18.59375 61.984375 25.796875 62.6875 28 62.6875 
C 31.203125 62.6875 37.40625 61.1875 38.796875 52.75 
C 39.703125 47.640625 39.703125 39.515625 39.703125 33.390625 
C 39.703125 9.71875 38.203125 8.3125 35.203125 5.296875 
C 33.203125 3.296875 30.5 2.296875 28.09375 2.296875 
z
" id="CMBX12-48"/>
       <path d="M 23.703125 7.796875 
C 23.703125 12.09375 20.203125 15.59375 15.90625 15.59375 
C 11.59375 15.59375 8.09375 12.09375 8.09375 7.796875 
C 8.09375 3.5 11.59375 0 15.90625 0 
C 20.203125 0 23.703125 3.5 23.703125 7.796875 
z
" id="CMMIB10-58"/>
      </defs>
      <g style="fill:#262626;" transform="translate(139.184542 395.13889)scale(0.11 -0.11)">
       <use transform="scale(0.996264)" xlink:href="#CMBX12-48"/>
       <use transform="translate(56.039851 0)scale(0.996264)" xlink:href="#CMMIB10-58"/>
       <use transform="translate(87.864782 0)scale(0.996264)" xlink:href="#CMBX12-48"/>
      </g>
     </g>
    </g>
    <g id="xtick_2">
     <g id="line2d_2">
      <g>
       <use style="fill:#262626;stroke:#262626;stroke-width:1.25;" x="230.330202" xlink:href="#mdacbfa7207" y="378"/>
      </g>
     </g>
     <g id="text_2">
      <!-- $0.2$ -->
      <defs>
       <path d="M 50.5 21.53125 
L 46.296875 21.53125 
C 46 19.421875 45.296875 13.5 43.796875 12.5 
C 43 11.796875 35.203125 11.796875 33.703125 11.796875 
L 18.203125 11.796875 
C 22 15 31.09375 22.625 32.59375 23.734375 
C 43.703125 32.0625 50.5 37.171875 50.5 46.796875 
C 50.5 58.734375 39.796875 66 26.59375 66 
C 15.296875 66 5.59375 59.46875 5.59375 49.796875 
C 5.59375 44.5 9.90625 43 12.203125 43 
C 15.296875 43 18.90625 45.09375 18.90625 49.6875 
C 18.90625 53.890625 15.796875 56 12.703125 56.40625 
C 16.703125 61.265625 22 61.6875 24.09375 61.6875 
C 33.296875 61.6875 37.703125 53.890625 37.703125 46.6875 
C 37.703125 38.875 32.40625 31.65625 28.296875 27.34375 
L 6.59375 4.59375 
C 5.59375 3.6875 5.59375 3.5 5.59375 1.6875 
L 5.59375 0 
L 47.59375 0 
z
" id="CMBX12-50"/>
      </defs>
      <g style="fill:#262626;" transform="translate(222.248302 395.13889)scale(0.11 -0.11)">
       <use transform="scale(0.996264)" xlink:href="#CMBX12-48"/>
       <use transform="translate(56.039851 0)scale(0.996264)" xlink:href="#CMMIB10-58"/>
       <use transform="translate(87.864782 0)scale(0.996264)" xlink:href="#CMBX12-50"/>
      </g>
     </g>
    </g>
    <g id="xtick_3">
     <g id="line2d_3">
      <g>
       <use style="fill:#262626;stroke:#262626;stroke-width:1.25;" x="313.393962" xlink:href="#mdacbfa7207" y="378"/>
      </g>
     </g>
     <g id="text_3">
      <!-- $0.4$ -->
      <defs>
       <path d="M 43.296875 15.6875 
L 53 15.6875 
L 53 20 
L 43.296875 20 
L 43.296875 63.09375 
C 43.296875 65.59375 43.203125 66 40.703125 66 
C 38.90625 66 38.703125 66 37.5 64.484375 
L 3.09375 20 
L 3.09375 15.6875 
L 31.5 15.6875 
L 31.5 4.296875 
L 20.59375 4.296875 
L 20.59375 0 
C 23.5 0.1875 33.40625 0.1875 37 0.1875 
C 40.40625 0.1875 50.296875 0.1875 53 0 
L 53 4.296875 
L 43.296875 4.296875 
z
M 32.40625 51.9375 
L 32.40625 20 
L 7.703125 20 
z
" id="CMBX12-52"/>
      </defs>
      <g style="fill:#262626;" transform="translate(305.312062 395.13889)scale(0.11 -0.11)">
       <use transform="scale(0.996264)" xlink:href="#CMBX12-48"/>
       <use transform="translate(56.039851 0)scale(0.996264)" xlink:href="#CMMIB10-58"/>
       <use transform="translate(87.864782 0)scale(0.996264)" xlink:href="#CMBX12-52"/>
      </g>
     </g>
    </g>
    <g id="xtick_4">
     <g id="line2d_4">
      <g>
       <use style="fill:#262626;stroke:#262626;stroke-width:1.25;" x="396.457722" xlink:href="#mdacbfa7207" y="378"/>
      </g>
     </g>
     <g id="text_4">
      <!-- $0.6$ -->
      <defs>
       <path d="M 17.40625 36.484375 
C 17.40625 42.609375 17.703125 49.09375 20.5 54.5 
C 22.703125 58.6875 27.796875 62.390625 34.296875 62.390625 
C 36.203125 62.390625 39.796875 62.109375 42.203125 59.796875 
C 38.40625 59.390625 36.796875 56.59375 36.796875 53.890625 
C 36.796875 50.296875 39.5 48 42.703125 48 
C 45.296875 48 48.59375 49.6875 48.59375 54.09375 
C 48.59375 60.078125 44.59375 66 34.09375 66 
C 21.59375 66 4.703125 58.390625 4.703125 31.96875 
C 4.703125 25.25 4.703125 -1 28.40625 -1 
C 41.59375 -1 51.40625 6.796875 51.40625 20.84375 
C 51.40625 34.875 41.703125 42.296875 29.796875 42.296875 
C 27.796875 42.296875 21.40625 42.296875 17.40625 33.78125 
z
M 28.296875 3 
C 21.90625 3 19.40625 8.40625 19 9.203125 
C 17.59375 12.515625 17.59375 20.546875 17.59375 21.4375 
C 17.59375 33.78125 22.90625 39 28.796875 39 
C 38.703125 39 38.703125 30.96875 38.703125 20.9375 
C 38.703125 11.015625 38.703125 3 28.296875 3 
z
" id="CMBX12-54"/>
      </defs>
      <g style="fill:#262626;" transform="translate(388.375822 395.13889)scale(0.11 -0.11)">
       <use transform="scale(0.996264)" xlink:href="#CMBX12-48"/>
       <use transform="translate(56.039851 0)scale(0.996264)" xlink:href="#CMMIB10-58"/>
       <use transform="translate(87.864782 0)scale(0.996264)" xlink:href="#CMBX12-54"/>
      </g>
     </g>
    </g>
    <g id="xtick_5">
     <g id="line2d_5">
      <g>
       <use style="fill:#262626;stroke:#262626;stroke-width:1.25;" x="479.521482" xlink:href="#mdacbfa7207" y="378"/>
      </g>
     </g>
     <g id="text_5">
      <!-- $0.8$ -->
      <defs>
       <path d="M 37.703125 37.109375 
C 42.703125 39.71875 48.296875 43.4375 48.296875 51.25 
C 48.296875 61.59375 39.09375 66 28.203125 66 
C 14.90625 66 7.796875 58.375 7.796875 48.640625 
C 7.796875 43.234375 10.5 37.203125 17.90625 33.296875 
C 6.59375 28.28125 4.703125 21.359375 4.703125 16.140625 
C 4.703125 4.59375 14.703125 -1 27.90625 -1 
C 42.703125 -1 51.40625 7 51.40625 18.640625 
C 51.40625 29.578125 42.796875 34.296875 37.703125 37.109375 
z
M 19.703125 47.4375 
C 17.703125 48.546875 14.90625 50.859375 14.90625 54.171875 
C 14.90625 62.1875 25.59375 62.390625 27.90625 62.390625 
C 36.40625 62.390625 41.203125 57.875 41.203125 51.25 
C 41.203125 47.140625 39.40625 42.828125 33.703125 39.515625 
z
M 22 30.890625 
L 35.796875 22.953125 
C 39.09375 21.046875 43.40625 18.640625 43.40625 13.53125 
C 43.40625 5.5 35.40625 3 28.203125 3 
C 18.296875 3 12.703125 8.3125 12.703125 16.234375 
C 12.703125 23.5625 17.203125 28.171875 22 30.890625 
z
" id="CMBX12-56"/>
      </defs>
      <g style="fill:#262626;" transform="translate(471.439582 395.13889)scale(0.11 -0.11)">
       <use transform="scale(0.996264)" xlink:href="#CMBX12-48"/>
       <use transform="translate(56.039851 0)scale(0.996264)" xlink:href="#CMMIB10-58"/>
       <use transform="translate(87.864782 0)scale(0.996264)" xlink:href="#CMBX12-56"/>
      </g>
     </g>
    </g>
    <g id="xtick_6">
     <g id="line2d_6">
      <g>
       <use style="fill:#262626;stroke:#262626;stroke-width:1.25;" x="562.585242" xlink:href="#mdacbfa7207" y="378"/>
      </g>
     </g>
     <g id="text_6">
      <!-- $1.0$ -->
      <defs>
       <path d="M 34.59375 63.03125 
C 34.59375 66 34.40625 66 31.203125 66 
C 23.796875 59.296875 12.703125 59.296875 10.5 59.296875 
L 8.59375 59.296875 
L 8.59375 55 
L 10.5 55 
C 14 55 19.296875 55.59375 23.296875 56.890625 
L 23.296875 4.296875 
L 9.40625 4.296875 
L 9.40625 0 
C 13.59375 0.1875 24.09375 0.1875 28.796875 0.1875 
C 33.5 0.1875 44.09375 0.1875 48.296875 0 
L 48.296875 4.296875 
L 34.59375 4.296875 
z
" id="CMBX12-49"/>
      </defs>
      <g style="fill:#262626;" transform="translate(554.503342 395.13889)scale(0.11 -0.11)">
       <use transform="scale(0.996264)" xlink:href="#CMBX12-49"/>
       <use transform="translate(56.039851 0)scale(0.996264)" xlink:href="#CMMIB10-58"/>
       <use transform="translate(87.864782 0)scale(0.996264)" xlink:href="#CMBX12-48"/>
      </g>
     </g>
    </g>
    <g id="text_7">
     <!-- \textbf{``Bad Tool" Score} -->
     <defs>
      <path d="M 29.296875 66.375 
C 29.40625 66.6875 29.59375 67.296875 29.59375 67.6875 
C 29.59375 69 28.59375 69 27 69 
L 25.796875 69 
C 23.796875 69 23.703125 68.890625 22.90625 67.6875 
L 16.59375 57.1875 
L 16.59375 47.6875 
C 16.59375 45.09375 16.703125 45 19.296875 45 
L 27 45 
C 29.59375 45 29.703125 45.09375 29.703125 47.6875 
L 29.703125 55.390625 
C 29.703125 58 29.59375 58.09375 26.296875 58.09375 
z
M 51.59375 66.375 
C 51.703125 66.6875 51.90625 67.296875 51.90625 67.6875 
C 51.90625 69 50.90625 69 49.296875 69 
L 48.09375 69 
C 46.09375 69 46 68.890625 45.203125 67.6875 
L 38.90625 57.1875 
L 38.90625 47.6875 
C 38.90625 45.09375 39 45 41.59375 45 
L 49.296875 45 
C 51.90625 45 52 45.09375 52 47.6875 
L 52 55.390625 
C 52 58 51.90625 58.09375 48.59375 58.09375 
z
" id="CMSSBX10-92"/>
      <path d="M 13.90625 69 
C 10.296875 69 9.09375 67.890625 9.09375 64.1875 
L 9.09375 4.796875 
C 9.09375 1.1875 10.203125 0 13.90625 0 
L 41.296875 0 
C 48.703125 0 67.09375 1.296875 67.09375 19.171875 
C 67.09375 33 53.203125 35.1875 49.5 35.796875 
C 58.703125 37.890625 64 43.109375 64 50.953125 
C 64 69 42.703125 69 38.5 69 
z
M 23.203125 39.1875 
L 23.203125 60.390625 
L 34.90625 60.390625 
C 38.796875 60.390625 50.40625 60.09375 50.40625 50.640625 
C 50.40625 39.1875 37.296875 39.1875 34.796875 39.1875 
z
M 23.203125 8.59375 
L 23.203125 32 
L 35.796875 32 
C 39.296875 32 53.203125 32 53.203125 19.359375 
C 53.203125 9.28125 42.5 8.59375 37.703125 8.59375 
z
" id="CMSSBX10-66"/>
      <path d="M 46.40625 31.984375 
C 46.40625 47.890625 31.203125 48 26.203125 48 
C 21.5 48 16.5 47.59375 9.796875 44.796875 
C 7.703125 43.890625 7.203125 43.59375 7.203125 42.484375 
C 7.203125 41.796875 7.796875 35.9375 7.90625 35.125 
C 8 34.515625 8.5 34.015625 9.203125 34.015625 
C 9.703125 34.015625 10 34.3125 10.296875 34.609375 
C 14.59375 39.171875 19.59375 41.390625 25.796875 41.390625 
C 31.203125 41.390625 32.796875 38.0625 32.796875 32.09375 
L 32.796875 28.546875 
C 29.296875 28.546875 3.09375 28.34375 3.09375 13.46875 
C 3.09375 6.390625 8.703125 -1 17.5 -1 
C 20.90625 -1 28.40625 0 33.09375 6.90625 
L 33.09375 4.890625 
C 33.09375 1.6875 33.796875 0.09375 37.90625 0.09375 
L 41.59375 0.09375 
C 45.40625 0.09375 46.40625 1.390625 46.40625 4.890625 
z
M 32.796875 15.59375 
C 32.796875 6.1875 23.296875 6.1875 23 6.1875 
C 18.796875 6.1875 16.09375 9.828125 16.09375 13.671875 
C 16.09375 23.59375 30 24.296875 32.796875 24.40625 
z
" id="CMSSBX10-97"/>
      <path d="M 49.90625 64.265625 
C 49.90625 67.390625 49.203125 69 45.09375 69 
L 41.40625 69 
C 37.59375 69 36.59375 67.6875 36.59375 64.265625 
L 36.59375 41.984375 
C 32.09375 46.296875 27.09375 47 24 47 
C 3.703125 47 3.703125 27.796875 3.703125 22.890625 
C 3.703125 18.296875 3.703125 -1 23.5 -1 
C 27.703125 -1 32 0.1875 36.296875 4.796875 
C 36.296875 1.09375 37.703125 0.09375 41.09375 0.09375 
L 45.09375 0.09375 
C 48.90625 0.09375 49.90625 1.390625 49.90625 4.890625 
z
M 36.296875 12.59375 
C 36.296875 10.890625 36.296875 10 33.40625 8 
C 30.90625 6.390625 28.59375 6.1875 27.40625 6.1875 
C 17.296875 6.1875 17.296875 15.390625 17.296875 22.890625 
C 17.296875 30.390625 17.296875 39.796875 28.5 39.796875 
C 31.40625 39.796875 34.09375 38.796875 36.296875 36.6875 
z
" id="CMSSBX10-100"/>
      <path d="M 29.296875 58.296875 
L 29.296875 4.765625 
C 29.296875 1.1875 30.40625 0 34.09375 0 
L 39.203125 0 
C 43 0 44 1.296875 44 4.765625 
L 44 58.296875 
C 48.40625 58.296875 59.59375 57.984375 64 57.984375 
C 66.796875 57.984375 69.203125 57.984375 69.203125 62.796875 
L 69.203125 63.59375 
C 69.203125 66.796875 68.5 68.390625 64.40625 68.390625 
L 8.796875 68.390625 
C 5.203125 68.390625 4 67.296875 4 63.59375 
L 4 62.796875 
C 4 57.984375 6.40625 57.984375 9.203125 57.984375 
z
" id="CMSSBX10-84"/>
      <path d="M 51.796875 22.78125 
C 51.796875 39.375 43.796875 48 27.5 48 
C 10.796875 48 3.09375 39.0625 3.09375 22.78125 
C 3.09375 6.296875 11.703125 -1 27.40625 -1 
C 43.09375 -1 51.796875 6.1875 51.796875 22.78125 
z
M 27.5 6.796875 
C 16.703125 6.796875 16.703125 15.90625 16.703125 24 
C 16.703125 31.78125 16.703125 40.796875 27.40625 40.796875 
C 38.203125 40.796875 38.203125 31.890625 38.203125 24 
C 38.203125 16 38.203125 6.796875 27.5 6.796875 
z
" id="CMSSBX10-111"/>
      <path d="M 19.40625 64.203125 
C 19.40625 67.390625 18.703125 69 14.59375 69 
L 10.90625 69 
C 7.296875 69 6.09375 67.890625 6.09375 64.203125 
L 6.09375 4.78125 
C 6.09375 1.1875 7.203125 0 10.90625 0 
L 14.59375 0 
C 18.40625 0 19.40625 1.296875 19.40625 4.78125 
z
" id="CMSSBX10-108"/>
      <path d="M 16.796875 56.796875 
L 16.796875 66.296875 
C 16.796875 68.890625 16.703125 69 14.09375 69 
L 6.40625 69 
C 3.796875 69 3.703125 68.890625 3.703125 66.296875 
L 3.703125 58.59375 
C 3.703125 55.984375 3.796875 55.890625 7.09375 55.890625 
L 4.09375 47.609375 
C 4 47.296875 3.796875 46.6875 3.796875 46.296875 
C 3.796875 45 4.796875 45 6.40625 45 
L 7.59375 45 
C 9.59375 45 9.703125 45.09375 10.5 46.296875 
z
M 39.09375 56.796875 
L 39.09375 66.296875 
C 39.09375 68.890625 39 69 36.40625 69 
L 28.703125 69 
C 26.09375 69 26 68.890625 26 66.296875 
L 26 58.59375 
C 26 55.984375 26.09375 55.890625 29.40625 55.890625 
L 26.40625 47.609375 
C 26.296875 47.296875 26.09375 46.6875 26.09375 46.296875 
C 26.09375 45 27.09375 45 28.703125 45 
L 29.90625 45 
C 31.90625 45 32 45.09375 32.796875 46.296875 
z
" id="CMSSBX10-34"/>
      <path d="M 27 44.421875 
C 24.796875 44.921875 18.59375 47.234375 18.59375 52.953125 
C 18.59375 61.484375 27.09375 61.6875 30.5 61.6875 
C 36.09375 61.6875 41.09375 60.390625 46 55.5625 
C 47.59375 54.0625 47.703125 53.953125 48.09375 53.953125 
C 48.703125 53.953125 49.203125 54.265625 49.5 55.765625 
L 51 64.484375 
C 51.203125 65.296875 51.203125 65.484375 51.203125 65.796875 
C 51.203125 66.59375 51.09375 66.6875 48.59375 67.984375 
C 41.5 71.484375 35.59375 72 30.5 72 
C 21.59375 72 6.09375 69.890625 6.09375 51.15625 
C 6.09375 44.015625 9.796875 39.40625 11.703125 37.40625 
C 16.796875 32.171875 21.5 31.171875 29.296875 29.375 
C 34.90625 28.0625 37.09375 27.5625 39.296875 25.546875 
C 40.296875 24.546875 42.40625 22.4375 42.40625 18.625 
C 42.40625 9.1875 33.796875 8.890625 30.5 8.890625 
C 22.09375 8.890625 14.796875 12.3125 9.796875 16.828125 
C 8.59375 18.03125 8.40625 18.03125 8 18.03125 
C 7.40625 18.03125 6.90625 17.71875 6.59375 16.21875 
L 5.09375 7.5 
C 4.90625 6.6875 4.90625 6.5 4.90625 6.1875 
C 4.90625 4.09375 15.296875 0.5 15.796875 0.296875 
C 22.5 -1.8125 27.90625 -2 30.5 -2 
C 45.5 -2 54.90625 4.6875 54.90625 20.234375 
C 54.90625 31.484375 46.59375 39.90625 36.59375 42.21875 
z
" id="CMSSBX10-83"/>
      <path d="M 45.703125 5.09375 
C 45.703125 6.1875 45.296875 10.84375 45.09375 12.15625 
C 45.09375 12.453125 44.90625 13.46875 43.90625 13.46875 
C 43.5 13.46875 43.296875 13.46875 42.296875 12.453125 
C 40.59375 10.9375 35.90625 6.796875 27.703125 6.796875 
C 17.296875 6.796875 17.296875 17.015625 17.296875 23.5 
C 17.296875 31.6875 17.796875 40.1875 28 40.1875 
C 34.5 40.1875 37.203125 38.578125 40.796875 35.53125 
C 42 34.421875 42.203125 34.421875 42.59375 34.421875 
C 43.59375 34.421875 43.796875 35.328125 43.90625 35.734375 
C 44.09375 36.546875 45.09375 42.1875 45.09375 42.6875 
C 45.09375 43.59375 44.40625 43.984375 42.703125 44.796875 
C 37.90625 46.984375 34.90625 48 27.90625 48 
C 13 48 3.703125 40.984375 3.703125 23.296875 
C 3.703125 6.5 12.296875 -1 27.40625 -1 
C 30.09375 -1 36.09375 -0.90625 42.796875 2.5 
C 45.59375 4 45.703125 4.09375 45.703125 5.09375 
z
" id="CMSSBX10-99"/>
      <path d="M 19.40625 22.75 
C 19.40625 32.140625 27.296875 36 33.59375 36.390625 
C 35.40625 36.484375 35.59375 36.484375 35.59375 39.09375 
L 35.59375 43.796875 
C 35.59375 45.796875 35.59375 46.5 33.796875 46.5 
C 31 46.5 23.703125 45.484375 19 34.71875 
L 18.90625 34.71875 
L 18.90625 41.1875 
C 18.90625 44.390625 18.203125 46 14.09375 46 
L 10.90625 46 
C 7.296875 46 6.09375 44.890625 6.09375 41.1875 
L 6.09375 4.765625 
C 6.09375 1.1875 7.203125 0 10.90625 0 
L 14.59375 0 
C 18.40625 0 19.40625 1.296875 19.40625 4.765625 
z
" id="CMSSBX10-114"/>
      <path d="M 43.09375 21.6875 
C 45.40625 21.6875 47.90625 21.796875 47.90625 26.296875 
C 47.90625 39.375 41.90625 48 27 48 
C 11 48 3.09375 38.96875 3.09375 23.59375 
C 3.09375 7 12.59375 -1 28.296875 -1 
C 32.09375 -1 37.796875 -0.5 44.40625 2.796875 
C 46.59375 3.890625 47.296875 4.1875 47.296875 5.390625 
C 47.296875 6.09375 47 9.03125 46.90625 9.84375 
C 46.5 12.984375 46.40625 13.078125 45.5 13.078125 
C 45.09375 13.078125 44.90625 13.078125 43.796875 12.0625 
C 37.90625 6.90625 31.90625 6.1875 28.703125 6.1875 
C 17.40625 6.1875 16.203125 15.203125 15.90625 21.6875 
z
M 16 27 
C 16.296875 33.1875 18.296875 40.796875 27 40.796875 
C 35 40.796875 36.5 34.90625 36.796875 27 
z
" id="CMSSBX10-101"/>
     </defs>
     <g style="fill:#262626;" transform="translate(307.199745 409.61109)scale(0.12 -0.12)">
      <use transform="scale(0.996264)" xlink:href="#CMSSBX10-92"/>
      <use transform="translate(55.625024 0)scale(0.996264)" xlink:href="#CMSSBX10-66"/>
      <use transform="translate(128.68479 0)scale(0.996264)" xlink:href="#CMSSBX10-97"/>
      <use transform="translate(180.988985 0)scale(0.996264)" xlink:href="#CMSSBX10-100"/>
      <use transform="translate(273.420656 0)scale(0.996264)" xlink:href="#CMSSBX10-84"/>
      <use transform="translate(337.347952 0)scale(0.996264)" xlink:href="#CMSSBX10-111"/>
      <use transform="translate(395.186933 0)scale(0.996264)" xlink:href="#CMSSBX10-111"/>
      <use transform="translate(449.981758 0)scale(0.996264)" xlink:href="#CMSSBX10-108"/>
      <use transform="translate(475.441977 0)scale(0.996264)" xlink:href="#CMSSBX10-34"/>
      <use transform="translate(567.596884 0)scale(0.996264)" xlink:href="#CMSSBX10-83"/>
      <use transform="translate(628.480022 0)scale(0.996264)" xlink:href="#CMSSBX10-99"/>
      <use transform="translate(677.186533 0)scale(0.996264)" xlink:href="#CMSSBX10-111"/>
      <use transform="translate(728.937201 0)scale(0.996264)" xlink:href="#CMSSBX10-114"/>
      <use transform="translate(766.020611 0)scale(0.996264)" xlink:href="#CMSSBX10-101"/>
     </g>
    </g>
   </g>
   <g id="matplotlib.axis_2">
    <g id="ytick_1">
     <g id="line2d_7">
      <defs>
       <path d="M 0 0 
L -6 0 
" id="m3e2d83e698" style="stroke:#262626;stroke-width:1.25;"/>
      </defs>
      <g>
       <use style="fill:#262626;stroke:#262626;stroke-width:1.25;" x="129.6" xlink:href="#m3e2d83e698" y="378"/>
      </g>
     </g>
     <g id="text_8">
      <!-- $0$ -->
      <g style="fill:#262626;" transform="translate(113.77503 381.819445)scale(0.11 -0.11)">
       <use transform="scale(0.996264)" xlink:href="#CMBX12-48"/>
      </g>
     </g>
    </g>
    <g id="ytick_2">
     <g id="line2d_8">
      <g>
       <use style="fill:#262626;stroke:#262626;stroke-width:1.25;" x="129.6" xlink:href="#m3e2d83e698" y="328.823274"/>
      </g>
     </g>
     <g id="text_9">
      <!-- $5$ -->
      <defs>
       <path d="M 15.40625 52.484375 
C 18.796875 51.6875 21.5 51.6875 23 51.6875 
C 25.40625 51.6875 31.09375 51.6875 37.796875 55.796875 
C 40.90625 57.6875 46.09375 62.1875 46.09375 64.296875 
C 46.09375 64.796875 46.09375 66 44.90625 66 
C 44.796875 66 44.59375 66 43.59375 65.484375 
C 39 63.90625 34.09375 63 28.5 63 
C 22.796875 63 18 63.90625 13.296875 65.59375 
C 12.59375 65.796875 12.296875 66 12 66 
C 10.796875 66 10.796875 64.984375 10.796875 63.40625 
L 10.796875 34.046875 
C 10.796875 32.109375 10.796875 31 12.796875 31 
C 13.796875 31 14 31.109375 14.796875 32.109375 
C 16 33.53125 19.59375 38 28.09375 38 
C 37.296875 38 37.296875 28.46875 37.296875 20.5 
C 37.296875 13.296875 37.296875 3 25 3 
C 21.296875 3 15 4.375 11.59375 10 
C 16.90625 10 18.203125 14 18.203125 16.1875 
C 18.203125 19.796875 15.59375 22.5 11.90625 22.5 
C 8.90625 22.5 5.59375 20.6875 5.59375 16 
C 5.59375 7.328125 13.5 -1 25.40625 -1 
C 40.796875 -1 50.5 7.828125 50.5 20.1875 
C 50.5 32.515625 42.203125 41.296875 28.5 41.296875 
C 24.5 41.296875 19.703125 40.5 15.40625 37.28125 
z
" id="CMBX12-53"/>
      </defs>
      <g style="fill:#262626;" transform="translate(113.77503 332.642719)scale(0.11 -0.11)">
       <use transform="scale(0.996264)" xlink:href="#CMBX12-53"/>
      </g>
     </g>
    </g>
    <g id="ytick_3">
     <g id="line2d_9">
      <g>
       <use style="fill:#262626;stroke:#262626;stroke-width:1.25;" x="129.6" xlink:href="#m3e2d83e698" y="279.646548"/>
      </g>
     </g>
     <g id="text_10">
      <!-- $10$ -->
      <g style="fill:#262626;" transform="translate(107.45007 283.465993)scale(0.11 -0.11)">
       <use transform="scale(0.996264)" xlink:href="#CMBX12-49"/>
       <use transform="translate(56.039851 0)scale(0.996264)" xlink:href="#CMBX12-48"/>
      </g>
     </g>
    </g>
    <g id="ytick_4">
     <g id="line2d_10">
      <g>
       <use style="fill:#262626;stroke:#262626;stroke-width:1.25;" x="129.6" xlink:href="#m3e2d83e698" y="230.469821"/>
      </g>
     </g>
     <g id="text_11">
      <!-- $15$ -->
      <g style="fill:#262626;" transform="translate(107.45007 234.289266)scale(0.11 -0.11)">
       <use transform="scale(0.996264)" xlink:href="#CMBX12-49"/>
       <use transform="translate(56.039851 0)scale(0.996264)" xlink:href="#CMBX12-53"/>
      </g>
     </g>
    </g>
    <g id="ytick_5">
     <g id="line2d_11">
      <g>
       <use style="fill:#262626;stroke:#262626;stroke-width:1.25;" x="129.6" xlink:href="#m3e2d83e698" y="181.293095"/>
      </g>
     </g>
     <g id="text_12">
      <!-- $20$ -->
      <g style="fill:#262626;" transform="translate(107.45007 185.11254)scale(0.11 -0.11)">
       <use transform="scale(0.996264)" xlink:href="#CMBX12-50"/>
       <use transform="translate(56.039851 0)scale(0.996264)" xlink:href="#CMBX12-48"/>
      </g>
     </g>
    </g>
    <g id="ytick_6">
     <g id="line2d_12">
      <g>
       <use style="fill:#262626;stroke:#262626;stroke-width:1.25;" x="129.6" xlink:href="#m3e2d83e698" y="132.116369"/>
      </g>
     </g>
     <g id="text_13">
      <!-- $25$ -->
      <g style="fill:#262626;" transform="translate(107.45007 135.935814)scale(0.11 -0.11)">
       <use transform="scale(0.996264)" xlink:href="#CMBX12-50"/>
       <use transform="translate(56.039851 0)scale(0.996264)" xlink:href="#CMBX12-53"/>
      </g>
     </g>
    </g>
    <g id="ytick_7">
     <g id="line2d_13">
      <g>
       <use style="fill:#262626;stroke:#262626;stroke-width:1.25;" x="129.6" xlink:href="#m3e2d83e698" y="82.939643"/>
      </g>
     </g>
     <g id="text_14">
      <!-- $30$ -->
      <defs>
       <path d="M 26.09375 33.484375 
C 37.296875 33.484375 37.296875 23.015625 37.296875 18.1875 
C 37.296875 13.6875 37.296875 3 26.5 3 
C 24.40625 3 17.796875 3.296875 13 6.78125 
C 17.296875 7.6875 18.796875 10.796875 18.796875 13.796875 
C 18.796875 17.890625 15.90625 20.796875 11.796875 20.796875 
C 7.59375 20.796875 4.703125 17.890625 4.703125 13.6875 
C 4.703125 4.421875 14.703125 -1 27 -1 
C 43.5 -1 51.40625 8.1875 51.40625 18.1875 
C 51.40625 23.109375 48.90625 32.6875 33.40625 35.390625 
C 42.203125 38.0625 48.296875 44.125 48.296875 51.984375 
C 48.296875 59.5625 41.09375 66 27.203125 66 
C 16 66 7.796875 59.984375 7.796875 51.796875 
C 7.796875 46.796875 11.703125 45.1875 14.296875 45.1875 
C 17.203125 45.1875 20.703125 47.09375 20.703125 51.6875 
C 20.703125 53.984375 19.703125 57.390625 15 58.09375 
C 19.203125 62.390625 26 62.390625 26.59375 62.390625 
C 35.5 62.390625 35.5 55.296875 35.5 52.296875 
C 35.5 49.296875 35.09375 44.703125 31.90625 40.703125 
C 29.296875 37.375 26.703125 37.1875 22.90625 37 
C 21.703125 36.890625 19.703125 36.796875 19.296875 36.59375 
C 18.703125 36.296875 18.703125 35.59375 18.703125 35.1875 
C 18.703125 33.484375 19.296875 33.484375 21.296875 33.484375 
z
" id="CMBX12-51"/>
      </defs>
      <g style="fill:#262626;" transform="translate(107.45007 86.759088)scale(0.11 -0.11)">
       <use transform="scale(0.996264)" xlink:href="#CMBX12-51"/>
       <use transform="translate(56.039851 0)scale(0.996264)" xlink:href="#CMBX12-48"/>
      </g>
     </g>
    </g>
    <g id="text_15">
     <!-- \textbf{Probability} -->
     <defs>
      <path d="M 23.796875 27 
L 39 27 
C 54.703125 27 64.09375 33.59375 64.09375 47.6875 
C 64.09375 62.484375 54.296875 69 38.90625 69 
L 13.90625 69 
C 10.296875 69 9.09375 67.890625 9.09375 64.1875 
L 9.09375 4.8125 
C 9.09375 1.1875 10.203125 0 13.90625 0 
L 19 0 
C 22.796875 0 23.796875 1.296875 23.796875 4.8125 
z
M 35.796875 60.390625 
C 48.90625 60.390625 50.203125 54.53125 50.203125 47.6875 
C 50.203125 41.140625 49.09375 34.890625 35.703125 34.890625 
L 23.5 34.890625 
L 23.5 60.390625 
z
" id="CMSSBX10-80"/>
      <path d="M 19.40625 64.265625 
C 19.40625 67.390625 18.703125 69 14.59375 69 
L 10.90625 69 
C 7.296875 69 6.09375 67.890625 6.09375 64.265625 
L 6.09375 4.890625 
C 6.09375 1.296875 7.203125 0.09375 10.90625 0.09375 
L 14.90625 0.09375 
C 16.59375 0.09375 19.59375 0.09375 19.703125 4 
C 24.296875 -1 29.40625 -1 31 -1 
C 52.296875 -1 52.296875 18.1875 52.296875 23.1875 
C 52.296875 27.984375 52.296875 47 33.5 47 
C 25.296875 47 20.296875 42.390625 19.40625 41.390625 
z
M 19.703125 36.296875 
C 21 37.484375 24 39.796875 28.59375 39.796875 
C 38.703125 39.796875 38.703125 30.59375 38.703125 23.09375 
C 38.703125 15.6875 38.703125 6.1875 27.5 6.1875 
C 23.296875 6.1875 20.796875 8.6875 19.703125 10.09375 
z
" id="CMSSBX10-98"/>
      <path d="M 10.203125 70 
C 7 70 5.40625 69.390625 5.40625 65.390625 
L 5.40625 60.796875 
C 5.40625 57.59375 6.40625 56.296875 10.09375 56.296875 
L 15.296875 56.296875 
C 20.09375 56.296875 20.09375 58.390625 20.09375 63.09375 
C 20.09375 67.890625 20.09375 70 15.296875 70 
z
M 19.40625 41.171875 
C 19.40625 44.390625 18.703125 46 14.59375 46 
L 10.90625 46 
C 7.296875 46 6.09375 44.890625 6.09375 41.171875 
L 6.09375 4.8125 
C 6.09375 1.1875 7.203125 0 10.90625 0 
L 14.59375 0 
C 18.40625 0 19.40625 1.296875 19.40625 4.8125 
z
" id="CMSSBX10-105"/>
      <path d="M 21.796875 38.796875 
L 30.703125 38.796875 
C 31.90625 38.796875 35.5 38.796875 35.5 42.390625 
C 35.5 46 31.90625 46 30.703125 46 
L 21.796875 46 
L 21.796875 54.21875 
C 21.796875 57.390625 21.09375 59 17 59 
L 13.90625 59 
C 10.296875 59 9.09375 57.890625 9.09375 54.21875 
L 9.09375 46 
L 6.796875 46 
C 5.703125 46 2 46 2 42.390625 
C 2 38.796875 5.59375 38.796875 6.796875 38.796875 
L 8.796875 38.796875 
L 8.796875 13.40625 
C 8.796875 3.296875 12.40625 -1 19.296875 -1 
C 20.203125 -1 24.59375 -1 29.796875 0.59375 
C 31.5 1.09375 37.296875 2.890625 37.296875 4.796875 
C 37.296875 5.09375 37.09375 5.796875 36.5 7.890625 
C 36 9.90625 35.796875 10.5 34.90625 10.5 
C 34.40625 10.5 34.296875 10.40625 33.703125 9.796875 
C 32.59375 9 29.90625 6.796875 25.703125 6.796875 
C 23.296875 6.796875 21.796875 8.5 21.796875 15.125 
z
" id="CMSSBX10-116"/>
      <path d="M 46.796875 41.265625 
C 47.296875 42.578125 47.296875 42.78125 47.296875 43.28125 
C 47.296875 46 44.59375 46 43.296875 46 
L 41.09375 46 
C 39.5 46 37.296875 46 35.796875 43.6875 
C 35.5 43.1875 27.40625 20.8125 26.90625 14.015625 
L 26.796875 14.015625 
C 26.296875 18.984375 22.203125 28.40625 17.90625 38.125 
C 15.09375 44.484375 14.40625 46 9.40625 46 
L 6.796875 46 
C 5.40625 46 2.90625 46 2.90625 43.390625 
C 2.90625 42.984375 3.203125 42.265625 3.40625 41.765625 
L 22.296875 -0.359375 
C 21.5 -2.484375 21.203125 -3.59375 20.90625 -4.609375 
C 19.703125 -7.953125 18 -12.5 12.59375 -12.5 
C 9.296875 -12.5 7 -11.09375 5.90625 -10.375 
C 5.40625 -10.078125 5.203125 -9.96875 4.90625 -9.96875 
C 4.40625 -9.96875 3.59375 -10.28125 3.59375 -11.5 
C 3.59375 -12.3125 4.203125 -19.203125 4.5 -19.609375 
C 5.40625 -20.8125 10.796875 -21 12.40625 -21 
C 24.796875 -21 29.703125 -9.171875 30.5 -6.734375 
z
" id="CMSSBX10-121"/>
     </defs>
     <g style="fill:#262626;" transform="translate(101.11674 250.96682)rotate(-90)scale(0.12 -0.12)">
      <use transform="translate(0 -0.072646)scale(0.996264)" xlink:href="#CMSSBX10-80"/>
      <use transform="translate(70.015609 -0.072646)scale(0.996264)" xlink:href="#CMSSBX10-114"/>
      <use transform="translate(107.09902 -0.072646)scale(0.996264)" xlink:href="#CMSSBX10-111"/>
      <use transform="translate(161.893844 -0.072646)scale(0.996264)" xlink:href="#CMSSBX10-98"/>
      <use transform="translate(217.795632 -0.072646)scale(0.996264)" xlink:href="#CMSSBX10-97"/>
      <use transform="translate(270.099827 -0.072646)scale(0.996264)" xlink:href="#CMSSBX10-98"/>
      <use transform="translate(326.001615 -0.072646)scale(0.996264)" xlink:href="#CMSSBX10-105"/>
      <use transform="translate(351.461834 -0.072646)scale(0.996264)" xlink:href="#CMSSBX10-108"/>
      <use transform="translate(376.922053 -0.072646)scale(0.996264)" xlink:href="#CMSSBX10-105"/>
      <use transform="translate(402.382271 -0.072646)scale(0.996264)" xlink:href="#CMSSBX10-116"/>
      <use transform="translate(439.604018 -0.072646)scale(0.996264)" xlink:href="#CMSSBX10-121"/>
     </g>
    </g>
   </g>
   <g id="patch_3">
    <path clip-path="url(#p33454c4dcd)" d="M 150.218182 378 
L 158.457532 378 
L 158.457532 375.013447 
L 150.218182 375.013447 
z
" style="fill:#4c72b0;opacity:0.5;stroke:#ffffff;stroke-linejoin:miter;"/>
   </g>
   <g id="patch_4">
    <path clip-path="url(#p33454c4dcd)" d="M 158.457532 378 
L 166.696881 378 
L 166.696881 378 
L 158.457532 378 
z
" style="fill:#4c72b0;opacity:0.5;stroke:#ffffff;stroke-linejoin:miter;"/>
   </g>
   <g id="patch_5">
    <path clip-path="url(#p33454c4dcd)" d="M 166.696881 378 
L 174.936231 378 
L 174.936231 376.506724 
L 166.696881 376.506724 
z
" style="fill:#4c72b0;opacity:0.5;stroke:#ffffff;stroke-linejoin:miter;"/>
   </g>
   <g id="patch_6">
    <path clip-path="url(#p33454c4dcd)" d="M 174.936231 378 
L 183.175581 378 
L 183.175581 378 
L 174.936231 378 
z
" style="fill:#4c72b0;opacity:0.5;stroke:#ffffff;stroke-linejoin:miter;"/>
   </g>
   <g id="patch_7">
    <path clip-path="url(#p33454c4dcd)" d="M 183.175581 378 
L 191.41493 378 
L 191.41493 378 
L 183.175581 378 
z
" style="fill:#4c72b0;opacity:0.5;stroke:#ffffff;stroke-linejoin:miter;"/>
   </g>
   <g id="patch_8">
    <path clip-path="url(#p33454c4dcd)" d="M 191.41493 378 
L 199.65428 378 
L 199.65428 378 
L 191.41493 378 
z
" style="fill:#4c72b0;opacity:0.5;stroke:#ffffff;stroke-linejoin:miter;"/>
   </g>
   <g id="patch_9">
    <path clip-path="url(#p33454c4dcd)" d="M 199.65428 378 
L 207.89363 378 
L 207.89363 378 
L 199.65428 378 
z
" style="fill:#4c72b0;opacity:0.5;stroke:#ffffff;stroke-linejoin:miter;"/>
   </g>
   <g id="patch_10">
    <path clip-path="url(#p33454c4dcd)" d="M 207.89363 378 
L 216.132979 378 
L 216.132979 378 
L 207.89363 378 
z
" style="fill:#4c72b0;opacity:0.5;stroke:#ffffff;stroke-linejoin:miter;"/>
   </g>
   <g id="patch_11">
    <path clip-path="url(#p33454c4dcd)" d="M 216.132979 378 
L 224.372329 378 
L 224.372329 378 
L 216.132979 378 
z
" style="fill:#4c72b0;opacity:0.5;stroke:#ffffff;stroke-linejoin:miter;"/>
   </g>
   <g id="patch_12">
    <path clip-path="url(#p33454c4dcd)" d="M 224.372329 378 
L 232.611679 378 
L 232.611679 378 
L 224.372329 378 
z
" style="fill:#4c72b0;opacity:0.5;stroke:#ffffff;stroke-linejoin:miter;"/>
   </g>
   <g id="patch_13">
    <path clip-path="url(#p33454c4dcd)" d="M 232.611679 378 
L 240.851028 378 
L 240.851028 378 
L 232.611679 378 
z
" style="fill:#4c72b0;opacity:0.5;stroke:#ffffff;stroke-linejoin:miter;"/>
   </g>
   <g id="patch_14">
    <path clip-path="url(#p33454c4dcd)" d="M 240.851028 378 
L 249.090378 378 
L 249.090378 378 
L 240.851028 378 
z
" style="fill:#4c72b0;opacity:0.5;stroke:#ffffff;stroke-linejoin:miter;"/>
   </g>
   <g id="patch_15">
    <path clip-path="url(#p33454c4dcd)" d="M 249.090378 378 
L 257.329728 378 
L 257.329728 378 
L 249.090378 378 
z
" style="fill:#4c72b0;opacity:0.5;stroke:#ffffff;stroke-linejoin:miter;"/>
   </g>
   <g id="patch_16">
    <path clip-path="url(#p33454c4dcd)" d="M 257.329728 378 
L 265.569077 378 
L 265.569077 376.506724 
L 257.329728 376.506724 
z
" style="fill:#4c72b0;opacity:0.5;stroke:#ffffff;stroke-linejoin:miter;"/>
   </g>
   <g id="patch_17">
    <path clip-path="url(#p33454c4dcd)" d="M 265.569077 378 
L 273.808427 378 
L 273.808427 378 
L 265.569077 378 
z
" style="fill:#4c72b0;opacity:0.5;stroke:#ffffff;stroke-linejoin:miter;"/>
   </g>
   <g id="patch_18">
    <path clip-path="url(#p33454c4dcd)" d="M 273.808427 378 
L 282.047777 378 
L 282.047777 378 
L 273.808427 378 
z
" style="fill:#4c72b0;opacity:0.5;stroke:#ffffff;stroke-linejoin:miter;"/>
   </g>
   <g id="patch_19">
    <path clip-path="url(#p33454c4dcd)" d="M 282.047777 378 
L 290.287127 378 
L 290.287127 376.506724 
L 282.047777 376.506724 
z
" style="fill:#4c72b0;opacity:0.5;stroke:#ffffff;stroke-linejoin:miter;"/>
   </g>
   <g id="patch_20">
    <path clip-path="url(#p33454c4dcd)" d="M 290.287127 378 
L 298.526476 378 
L 298.526476 378 
L 290.287127 378 
z
" style="fill:#4c72b0;opacity:0.5;stroke:#ffffff;stroke-linejoin:miter;"/>
   </g>
   <g id="patch_21">
    <path clip-path="url(#p33454c4dcd)" d="M 298.526476 378 
L 306.765826 378 
L 306.765826 378 
L 298.526476 378 
z
" style="fill:#4c72b0;opacity:0.5;stroke:#ffffff;stroke-linejoin:miter;"/>
   </g>
   <g id="patch_22">
    <path clip-path="url(#p33454c4dcd)" d="M 306.765826 378 
L 315.005176 378 
L 315.005176 378 
L 306.765826 378 
z
" style="fill:#4c72b0;opacity:0.5;stroke:#ffffff;stroke-linejoin:miter;"/>
   </g>
   <g id="patch_23">
    <path clip-path="url(#p33454c4dcd)" d="M 315.005176 378 
L 323.244525 378 
L 323.244525 378 
L 315.005176 378 
z
" style="fill:#4c72b0;opacity:0.5;stroke:#ffffff;stroke-linejoin:miter;"/>
   </g>
   <g id="patch_24">
    <path clip-path="url(#p33454c4dcd)" d="M 323.244525 378 
L 331.483875 378 
L 331.483875 378 
L 323.244525 378 
z
" style="fill:#4c72b0;opacity:0.5;stroke:#ffffff;stroke-linejoin:miter;"/>
   </g>
   <g id="patch_25">
    <path clip-path="url(#p33454c4dcd)" d="M 331.483875 378 
L 339.723225 378 
L 339.723225 373.520171 
L 331.483875 373.520171 
z
" style="fill:#4c72b0;opacity:0.5;stroke:#ffffff;stroke-linejoin:miter;"/>
   </g>
   <g id="patch_26">
    <path clip-path="url(#p33454c4dcd)" d="M 339.723225 378 
L 347.962574 378 
L 347.962574 369.040342 
L 339.723225 369.040342 
z
" style="fill:#4c72b0;opacity:0.5;stroke:#ffffff;stroke-linejoin:miter;"/>
   </g>
   <g id="patch_27">
    <path clip-path="url(#p33454c4dcd)" d="M 347.962574 378 
L 356.201924 378 
L 356.201924 375.013447 
L 347.962574 375.013447 
z
" style="fill:#4c72b0;opacity:0.5;stroke:#ffffff;stroke-linejoin:miter;"/>
   </g>
   <g id="patch_28">
    <path clip-path="url(#p33454c4dcd)" d="M 356.201924 378 
L 364.441274 378 
L 364.441274 376.506724 
L 356.201924 376.506724 
z
" style="fill:#4c72b0;opacity:0.5;stroke:#ffffff;stroke-linejoin:miter;"/>
   </g>
   <g id="patch_29">
    <path clip-path="url(#p33454c4dcd)" d="M 364.441274 378 
L 372.680623 378 
L 372.680623 373.520171 
L 364.441274 373.520171 
z
" style="fill:#4c72b0;opacity:0.5;stroke:#ffffff;stroke-linejoin:miter;"/>
   </g>
   <g id="patch_30">
    <path clip-path="url(#p33454c4dcd)" d="M 372.680623 378 
L 380.919973 378 
L 380.919973 376.506724 
L 372.680623 376.506724 
z
" style="fill:#4c72b0;opacity:0.5;stroke:#ffffff;stroke-linejoin:miter;"/>
   </g>
   <g id="patch_31">
    <path clip-path="url(#p33454c4dcd)" d="M 380.919973 378 
L 389.159323 378 
L 389.159323 375.013447 
L 380.919973 375.013447 
z
" style="fill:#4c72b0;opacity:0.5;stroke:#ffffff;stroke-linejoin:miter;"/>
   </g>
   <g id="patch_32">
    <path clip-path="url(#p33454c4dcd)" d="M 389.159323 378 
L 397.398673 378 
L 397.398673 373.520171 
L 389.159323 373.520171 
z
" style="fill:#4c72b0;opacity:0.5;stroke:#ffffff;stroke-linejoin:miter;"/>
   </g>
   <g id="patch_33">
    <path clip-path="url(#p33454c4dcd)" d="M 397.398673 378 
L 405.638022 378 
L 405.638022 375.013447 
L 397.398673 375.013447 
z
" style="fill:#4c72b0;opacity:0.5;stroke:#ffffff;stroke-linejoin:miter;"/>
   </g>
   <g id="patch_34">
    <path clip-path="url(#p33454c4dcd)" d="M 405.638022 378 
L 413.877372 378 
L 413.877372 378 
L 405.638022 378 
z
" style="fill:#4c72b0;opacity:0.5;stroke:#ffffff;stroke-linejoin:miter;"/>
   </g>
   <g id="patch_35">
    <path clip-path="url(#p33454c4dcd)" d="M 413.877372 378 
L 422.116722 378 
L 422.116722 370.533618 
L 413.877372 370.533618 
z
" style="fill:#4c72b0;opacity:0.5;stroke:#ffffff;stroke-linejoin:miter;"/>
   </g>
   <g id="patch_36">
    <path clip-path="url(#p33454c4dcd)" d="M 422.116722 378 
L 430.356071 378 
L 430.356071 375.013447 
L 422.116722 375.013447 
z
" style="fill:#4c72b0;opacity:0.5;stroke:#ffffff;stroke-linejoin:miter;"/>
   </g>
   <g id="patch_37">
    <path clip-path="url(#p33454c4dcd)" d="M 430.356071 378 
L 438.595421 378 
L 438.595421 373.520171 
L 430.356071 373.520171 
z
" style="fill:#4c72b0;opacity:0.5;stroke:#ffffff;stroke-linejoin:miter;"/>
   </g>
   <g id="patch_38">
    <path clip-path="url(#p33454c4dcd)" d="M 438.595421 378 
L 446.834771 378 
L 446.834771 373.520171 
L 438.595421 373.520171 
z
" style="fill:#4c72b0;opacity:0.5;stroke:#ffffff;stroke-linejoin:miter;"/>
   </g>
   <g id="patch_39">
    <path clip-path="url(#p33454c4dcd)" d="M 446.834771 378 
L 455.07412 378 
L 455.07412 376.506724 
L 446.834771 376.506724 
z
" style="fill:#4c72b0;opacity:0.5;stroke:#ffffff;stroke-linejoin:miter;"/>
   </g>
   <g id="patch_40">
    <path clip-path="url(#p33454c4dcd)" d="M 455.07412 378 
L 463.31347 378 
L 463.31347 372.026895 
L 455.07412 372.026895 
z
" style="fill:#4c72b0;opacity:0.5;stroke:#ffffff;stroke-linejoin:miter;"/>
   </g>
   <g id="patch_41">
    <path clip-path="url(#p33454c4dcd)" d="M 463.31347 378 
L 471.55282 378 
L 471.55282 367.547066 
L 463.31347 367.547066 
z
" style="fill:#4c72b0;opacity:0.5;stroke:#ffffff;stroke-linejoin:miter;"/>
   </g>
   <g id="patch_42">
    <path clip-path="url(#p33454c4dcd)" d="M 471.55282 378 
L 479.792169 378 
L 479.792169 364.560513 
L 471.55282 364.560513 
z
" style="fill:#4c72b0;opacity:0.5;stroke:#ffffff;stroke-linejoin:miter;"/>
   </g>
   <g id="patch_43">
    <path clip-path="url(#p33454c4dcd)" d="M 479.792169 378 
L 488.031519 378 
L 488.031519 369.040342 
L 479.792169 369.040342 
z
" style="fill:#4c72b0;opacity:0.5;stroke:#ffffff;stroke-linejoin:miter;"/>
   </g>
   <g id="patch_44">
    <path clip-path="url(#p33454c4dcd)" d="M 488.031519 378 
L 496.270869 378 
L 496.270869 367.547066 
L 488.031519 367.547066 
z
" style="fill:#4c72b0;opacity:0.5;stroke:#ffffff;stroke-linejoin:miter;"/>
   </g>
   <g id="patch_45">
    <path clip-path="url(#p33454c4dcd)" d="M 496.270869 378 
L 504.510219 378 
L 504.510219 358.587408 
L 496.270869 358.587408 
z
" style="fill:#4c72b0;opacity:0.5;stroke:#ffffff;stroke-linejoin:miter;"/>
   </g>
   <g id="patch_46">
    <path clip-path="url(#p33454c4dcd)" d="M 504.510219 378 
L 512.749568 378 
L 512.749568 352.614302 
L 504.510219 352.614302 
z
" style="fill:#4c72b0;opacity:0.5;stroke:#ffffff;stroke-linejoin:miter;"/>
   </g>
   <g id="patch_47">
    <path clip-path="url(#p33454c4dcd)" d="M 512.749568 378 
L 520.988918 378 
L 520.988918 345.147921 
L 512.749568 345.147921 
z
" style="fill:#4c72b0;opacity:0.5;stroke:#ffffff;stroke-linejoin:miter;"/>
   </g>
   <g id="patch_48">
    <path clip-path="url(#p33454c4dcd)" d="M 520.988918 378 
L 529.228268 378 
L 529.228268 339.174815 
L 520.988918 339.174815 
z
" style="fill:#4c72b0;opacity:0.5;stroke:#ffffff;stroke-linejoin:miter;"/>
   </g>
   <g id="patch_49">
    <path clip-path="url(#p33454c4dcd)" d="M 529.228268 378 
L 537.467617 378 
L 537.467617 325.735328 
L 529.228268 325.735328 
z
" style="fill:#4c72b0;opacity:0.5;stroke:#ffffff;stroke-linejoin:miter;"/>
   </g>
   <g id="patch_50">
    <path clip-path="url(#p33454c4dcd)" d="M 537.467617 378 
L 545.706967 378 
L 545.706967 309.309289 
L 537.467617 309.309289 
z
" style="fill:#4c72b0;opacity:0.5;stroke:#ffffff;stroke-linejoin:miter;"/>
   </g>
   <g id="patch_51">
    <path clip-path="url(#p33454c4dcd)" d="M 545.706967 378 
L 553.946317 378 
L 553.946317 286.910144 
L 545.706967 286.910144 
z
" style="fill:#4c72b0;opacity:0.5;stroke:#ffffff;stroke-linejoin:miter;"/>
   </g>
   <g id="patch_52">
    <path clip-path="url(#p33454c4dcd)" d="M 553.946317 378 
L 562.185666 378 
L 562.185666 322.748776 
L 553.946317 322.748776 
z
" style="fill:#4c72b0;opacity:0.5;stroke:#ffffff;stroke-linejoin:miter;"/>
   </g>
   <g id="patch_53">
    <path clip-path="url(#p33454c4dcd)" d="M 209.322101 378 
L 216.387295 378 
L 216.387295 374.31746 
L 209.322101 374.31746 
z
" style="fill:#c44e52;opacity:0.5;stroke:#ffffff;stroke-linejoin:miter;"/>
   </g>
   <g id="patch_54">
    <path clip-path="url(#p33454c4dcd)" d="M 216.387295 378 
L 223.45249 378 
L 223.45249 378 
L 216.387295 378 
z
" style="fill:#c44e52;opacity:0.5;stroke:#ffffff;stroke-linejoin:miter;"/>
   </g>
   <g id="patch_55">
    <path clip-path="url(#p33454c4dcd)" d="M 223.45249 378 
L 230.517684 378 
L 230.517684 378 
L 223.45249 378 
z
" style="fill:#c44e52;opacity:0.5;stroke:#ffffff;stroke-linejoin:miter;"/>
   </g>
   <g id="patch_56">
    <path clip-path="url(#p33454c4dcd)" d="M 230.517684 378 
L 237.582878 378 
L 237.582878 378 
L 230.517684 378 
z
" style="fill:#c44e52;opacity:0.5;stroke:#ffffff;stroke-linejoin:miter;"/>
   </g>
   <g id="patch_57">
    <path clip-path="url(#p33454c4dcd)" d="M 237.582878 378 
L 244.648073 378 
L 244.648073 374.31746 
L 237.582878 374.31746 
z
" style="fill:#c44e52;opacity:0.5;stroke:#ffffff;stroke-linejoin:miter;"/>
   </g>
   <g id="patch_58">
    <path clip-path="url(#p33454c4dcd)" d="M 244.648073 378 
L 251.713267 378 
L 251.713267 378 
L 244.648073 378 
z
" style="fill:#c44e52;opacity:0.5;stroke:#ffffff;stroke-linejoin:miter;"/>
   </g>
   <g id="patch_59">
    <path clip-path="url(#p33454c4dcd)" d="M 251.713267 378 
L 258.778461 378 
L 258.778461 374.31746 
L 251.713267 374.31746 
z
" style="fill:#c44e52;opacity:0.5;stroke:#ffffff;stroke-linejoin:miter;"/>
   </g>
   <g id="patch_60">
    <path clip-path="url(#p33454c4dcd)" d="M 258.778461 378 
L 265.843656 378 
L 265.843656 370.634921 
L 258.778461 370.634921 
z
" style="fill:#c44e52;opacity:0.5;stroke:#ffffff;stroke-linejoin:miter;"/>
   </g>
   <g id="patch_61">
    <path clip-path="url(#p33454c4dcd)" d="M 265.843656 378 
L 272.90885 378 
L 272.90885 378 
L 265.843656 378 
z
" style="fill:#c44e52;opacity:0.5;stroke:#ffffff;stroke-linejoin:miter;"/>
   </g>
   <g id="patch_62">
    <path clip-path="url(#p33454c4dcd)" d="M 272.90885 378 
L 279.974044 378 
L 279.974044 370.634921 
L 272.90885 370.634921 
z
" style="fill:#c44e52;opacity:0.5;stroke:#ffffff;stroke-linejoin:miter;"/>
   </g>
   <g id="patch_63">
    <path clip-path="url(#p33454c4dcd)" d="M 279.974044 378 
L 287.039239 378 
L 287.039239 378 
L 279.974044 378 
z
" style="fill:#c44e52;opacity:0.5;stroke:#ffffff;stroke-linejoin:miter;"/>
   </g>
   <g id="patch_64">
    <path clip-path="url(#p33454c4dcd)" d="M 287.039239 378 
L 294.104433 378 
L 294.104433 378 
L 287.039239 378 
z
" style="fill:#c44e52;opacity:0.5;stroke:#ffffff;stroke-linejoin:miter;"/>
   </g>
   <g id="patch_65">
    <path clip-path="url(#p33454c4dcd)" d="M 294.104433 378 
L 301.169627 378 
L 301.169627 374.31746 
L 294.104433 374.31746 
z
" style="fill:#c44e52;opacity:0.5;stroke:#ffffff;stroke-linejoin:miter;"/>
   </g>
   <g id="patch_66">
    <path clip-path="url(#p33454c4dcd)" d="M 301.169627 378 
L 308.234822 378 
L 308.234822 378 
L 301.169627 378 
z
" style="fill:#c44e52;opacity:0.5;stroke:#ffffff;stroke-linejoin:miter;"/>
   </g>
   <g id="patch_67">
    <path clip-path="url(#p33454c4dcd)" d="M 308.234822 378 
L 315.300016 378 
L 315.300016 374.31746 
L 308.234822 374.31746 
z
" style="fill:#c44e52;opacity:0.5;stroke:#ffffff;stroke-linejoin:miter;"/>
   </g>
   <g id="patch_68">
    <path clip-path="url(#p33454c4dcd)" d="M 315.300016 378 
L 322.36521 378 
L 322.36521 378 
L 315.300016 378 
z
" style="fill:#c44e52;opacity:0.5;stroke:#ffffff;stroke-linejoin:miter;"/>
   </g>
   <g id="patch_69">
    <path clip-path="url(#p33454c4dcd)" d="M 322.36521 378 
L 329.430405 378 
L 329.430405 374.31746 
L 322.36521 374.31746 
z
" style="fill:#c44e52;opacity:0.5;stroke:#ffffff;stroke-linejoin:miter;"/>
   </g>
   <g id="patch_70">
    <path clip-path="url(#p33454c4dcd)" d="M 329.430405 378 
L 336.495599 378 
L 336.495599 374.31746 
L 329.430405 374.31746 
z
" style="fill:#c44e52;opacity:0.5;stroke:#ffffff;stroke-linejoin:miter;"/>
   </g>
   <g id="patch_71">
    <path clip-path="url(#p33454c4dcd)" d="M 336.495599 378 
L 343.560793 378 
L 343.560793 378 
L 336.495599 378 
z
" style="fill:#c44e52;opacity:0.5;stroke:#ffffff;stroke-linejoin:miter;"/>
   </g>
   <g id="patch_72">
    <path clip-path="url(#p33454c4dcd)" d="M 343.560793 378 
L 350.625988 378 
L 350.625988 378 
L 343.560793 378 
z
" style="fill:#c44e52;opacity:0.5;stroke:#ffffff;stroke-linejoin:miter;"/>
   </g>
   <g id="patch_73">
    <path clip-path="url(#p33454c4dcd)" d="M 350.625988 378 
L 357.691182 378 
L 357.691182 374.31746 
L 350.625988 374.31746 
z
" style="fill:#c44e52;opacity:0.5;stroke:#ffffff;stroke-linejoin:miter;"/>
   </g>
   <g id="patch_74">
    <path clip-path="url(#p33454c4dcd)" d="M 357.691182 378 
L 364.756377 378 
L 364.756377 378 
L 357.691182 378 
z
" style="fill:#c44e52;opacity:0.5;stroke:#ffffff;stroke-linejoin:miter;"/>
   </g>
   <g id="patch_75">
    <path clip-path="url(#p33454c4dcd)" d="M 364.756377 378 
L 371.821571 378 
L 371.821571 378 
L 364.756377 378 
z
" style="fill:#c44e52;opacity:0.5;stroke:#ffffff;stroke-linejoin:miter;"/>
   </g>
   <g id="patch_76">
    <path clip-path="url(#p33454c4dcd)" d="M 371.821571 378 
L 378.886765 378 
L 378.886765 374.31746 
L 371.821571 374.31746 
z
" style="fill:#c44e52;opacity:0.5;stroke:#ffffff;stroke-linejoin:miter;"/>
   </g>
   <g id="patch_77">
    <path clip-path="url(#p33454c4dcd)" d="M 378.886765 378 
L 385.95196 378 
L 385.95196 378 
L 378.886765 378 
z
" style="fill:#c44e52;opacity:0.5;stroke:#ffffff;stroke-linejoin:miter;"/>
   </g>
   <g id="patch_78">
    <path clip-path="url(#p33454c4dcd)" d="M 385.95196 378 
L 393.017154 378 
L 393.017154 370.634921 
L 385.95196 370.634921 
z
" style="fill:#c44e52;opacity:0.5;stroke:#ffffff;stroke-linejoin:miter;"/>
   </g>
   <g id="patch_79">
    <path clip-path="url(#p33454c4dcd)" d="M 393.017154 378 
L 400.082348 378 
L 400.082348 363.269841 
L 393.017154 363.269841 
z
" style="fill:#c44e52;opacity:0.5;stroke:#ffffff;stroke-linejoin:miter;"/>
   </g>
   <g id="patch_80">
    <path clip-path="url(#p33454c4dcd)" d="M 400.082348 378 
L 407.147543 378 
L 407.147543 374.31746 
L 400.082348 374.31746 
z
" style="fill:#c44e52;opacity:0.5;stroke:#ffffff;stroke-linejoin:miter;"/>
   </g>
   <g id="patch_81">
    <path clip-path="url(#p33454c4dcd)" d="M 407.147543 378 
L 414.212737 378 
L 414.212737 374.31746 
L 407.147543 374.31746 
z
" style="fill:#c44e52;opacity:0.5;stroke:#ffffff;stroke-linejoin:miter;"/>
   </g>
   <g id="patch_82">
    <path clip-path="url(#p33454c4dcd)" d="M 414.212737 378 
L 421.277931 378 
L 421.277931 378 
L 414.212737 378 
z
" style="fill:#c44e52;opacity:0.5;stroke:#ffffff;stroke-linejoin:miter;"/>
   </g>
   <g id="patch_83">
    <path clip-path="url(#p33454c4dcd)" d="M 421.277931 378 
L 428.343126 378 
L 428.343126 378 
L 421.277931 378 
z
" style="fill:#c44e52;opacity:0.5;stroke:#ffffff;stroke-linejoin:miter;"/>
   </g>
   <g id="patch_84">
    <path clip-path="url(#p33454c4dcd)" d="M 428.343126 378 
L 435.40832 378 
L 435.40832 370.634921 
L 428.343126 370.634921 
z
" style="fill:#c44e52;opacity:0.5;stroke:#ffffff;stroke-linejoin:miter;"/>
   </g>
   <g id="patch_85">
    <path clip-path="url(#p33454c4dcd)" d="M 435.40832 378 
L 442.473514 378 
L 442.473514 374.31746 
L 435.40832 374.31746 
z
" style="fill:#c44e52;opacity:0.5;stroke:#ffffff;stroke-linejoin:miter;"/>
   </g>
   <g id="patch_86">
    <path clip-path="url(#p33454c4dcd)" d="M 442.473514 378 
L 449.538709 378 
L 449.538709 378 
L 442.473514 378 
z
" style="fill:#c44e52;opacity:0.5;stroke:#ffffff;stroke-linejoin:miter;"/>
   </g>
   <g id="patch_87">
    <path clip-path="url(#p33454c4dcd)" d="M 449.538709 378 
L 456.603903 378 
L 456.603903 374.31746 
L 449.538709 374.31746 
z
" style="fill:#c44e52;opacity:0.5;stroke:#ffffff;stroke-linejoin:miter;"/>
   </g>
   <g id="patch_88">
    <path clip-path="url(#p33454c4dcd)" d="M 456.603903 378 
L 463.669097 378 
L 463.669097 370.634921 
L 456.603903 370.634921 
z
" style="fill:#c44e52;opacity:0.5;stroke:#ffffff;stroke-linejoin:miter;"/>
   </g>
   <g id="patch_89">
    <path clip-path="url(#p33454c4dcd)" d="M 463.669097 378 
L 470.734292 378 
L 470.734292 370.634921 
L 463.669097 370.634921 
z
" style="fill:#c44e52;opacity:0.5;stroke:#ffffff;stroke-linejoin:miter;"/>
   </g>
   <g id="patch_90">
    <path clip-path="url(#p33454c4dcd)" d="M 470.734292 378 
L 477.799486 378 
L 477.799486 374.31746 
L 470.734292 374.31746 
z
" style="fill:#c44e52;opacity:0.5;stroke:#ffffff;stroke-linejoin:miter;"/>
   </g>
   <g id="patch_91">
    <path clip-path="url(#p33454c4dcd)" d="M 477.799486 378 
L 484.86468 378 
L 484.86468 378 
L 477.799486 378 
z
" style="fill:#c44e52;opacity:0.5;stroke:#ffffff;stroke-linejoin:miter;"/>
   </g>
   <g id="patch_92">
    <path clip-path="url(#p33454c4dcd)" d="M 484.86468 378 
L 491.929875 378 
L 491.929875 374.31746 
L 484.86468 374.31746 
z
" style="fill:#c44e52;opacity:0.5;stroke:#ffffff;stroke-linejoin:miter;"/>
   </g>
   <g id="patch_93">
    <path clip-path="url(#p33454c4dcd)" d="M 491.929875 378 
L 498.995069 378 
L 498.995069 378 
L 491.929875 378 
z
" style="fill:#c44e52;opacity:0.5;stroke:#ffffff;stroke-linejoin:miter;"/>
   </g>
   <g id="patch_94">
    <path clip-path="url(#p33454c4dcd)" d="M 498.995069 378 
L 506.060263 378 
L 506.060263 378 
L 498.995069 378 
z
" style="fill:#c44e52;opacity:0.5;stroke:#ffffff;stroke-linejoin:miter;"/>
   </g>
   <g id="patch_95">
    <path clip-path="url(#p33454c4dcd)" d="M 506.060263 378 
L 513.125458 378 
L 513.125458 370.634921 
L 506.060263 370.634921 
z
" style="fill:#c44e52;opacity:0.5;stroke:#ffffff;stroke-linejoin:miter;"/>
   </g>
   <g id="patch_96">
    <path clip-path="url(#p33454c4dcd)" d="M 513.125458 378 
L 520.190652 378 
L 520.190652 366.952381 
L 513.125458 366.952381 
z
" style="fill:#c44e52;opacity:0.5;stroke:#ffffff;stroke-linejoin:miter;"/>
   </g>
   <g id="patch_97">
    <path clip-path="url(#p33454c4dcd)" d="M 520.190652 378 
L 527.255846 378 
L 527.255846 363.269841 
L 520.190652 363.269841 
z
" style="fill:#c44e52;opacity:0.5;stroke:#ffffff;stroke-linejoin:miter;"/>
   </g>
   <g id="patch_98">
    <path clip-path="url(#p33454c4dcd)" d="M 527.255846 378 
L 534.321041 378 
L 534.321041 355.904762 
L 527.255846 355.904762 
z
" style="fill:#c44e52;opacity:0.5;stroke:#ffffff;stroke-linejoin:miter;"/>
   </g>
   <g id="patch_99">
    <path clip-path="url(#p33454c4dcd)" d="M 534.321041 378 
L 541.386235 378 
L 541.386235 355.904762 
L 534.321041 355.904762 
z
" style="fill:#c44e52;opacity:0.5;stroke:#ffffff;stroke-linejoin:miter;"/>
   </g>
   <g id="patch_100">
    <path clip-path="url(#p33454c4dcd)" d="M 541.386235 378 
L 548.451429 378 
L 548.451429 344.857143 
L 541.386235 344.857143 
z
" style="fill:#c44e52;opacity:0.5;stroke:#ffffff;stroke-linejoin:miter;"/>
   </g>
   <g id="patch_101">
    <path clip-path="url(#p33454c4dcd)" d="M 548.451429 378 
L 555.516624 378 
L 555.516624 322.761905 
L 548.451429 322.761905 
z
" style="fill:#c44e52;opacity:0.5;stroke:#ffffff;stroke-linejoin:miter;"/>
   </g>
   <g id="patch_102">
    <path clip-path="url(#p33454c4dcd)" d="M 555.516624 378 
L 562.581818 378 
L 562.581818 79.714286 
L 555.516624 79.714286 
z
" style="fill:#c44e52;opacity:0.5;stroke:#ffffff;stroke-linejoin:miter;"/>
   </g>
   <g id="patch_103">
    <path d="M 129.6 378 
L 129.6 64.8 
" style="fill:none;stroke:#262626;stroke-linecap:square;stroke-linejoin:miter;stroke-width:1.25;"/>
   </g>
   <g id="patch_104">
    <path d="M 583.2 378 
L 583.2 64.8 
" style="fill:none;"/>
   </g>
   <g id="patch_105">
    <path d="M 129.6 378 
L 583.2 378 
" style="fill:none;stroke:#262626;stroke-linecap:square;stroke-linejoin:miter;stroke-width:1.25;"/>
   </g>
   <g id="patch_106">
    <path d="M 129.6 64.8 
L 583.2 64.8 
" style="fill:none;"/>
   </g>
   <g id="legend_1">
    <g id="patch_107">
     <path d="M 132.9 99.87778 
L 178.67225 99.87778 
Q 180.87225 99.87778 180.87225 97.67778 
L 180.87225 68.1 
Q 180.87225 65.9 178.67225 65.9 
L 132.9 65.9 
Q 130.7 65.9 130.7 68.1 
L 130.7 97.67778 
Q 130.7 99.87778 132.9 99.87778 
z
" style="fill:none;opacity:0;"/>
    </g>
    <g id="patch_108">
     <path d="M 135.1 78 
L 157.1 78 
L 157.1 70.3 
L 135.1 70.3 
z
" style="fill:#4c72b0;opacity:0.5;stroke:#ffffff;stroke-linejoin:miter;"/>
    </g>
    <g id="text_16">
     <!-- v1 -->
     <defs>
      <path d="M 41.796875 43 
L 34 43 
L 27.296875 24.296875 
C 25.203125 18.1875 22.203125 9.796875 21.703125 5.5 
L 21.59375 5.5 
C 21.40625 7.296875 20.59375 9.890625 20.09375 11.6875 
C 19.5 13.890625 18.703125 16.5 18.09375 18.296875 
L 9.296875 43 
L 1.296875 43 
L 17.09375 0 
L 26 0 
z
" id="CMSS17-118"/>
      <path d="M 28.40625 67 
L 26.5 67 
C 21.09375 61.703125 14.796875 60.96875 8.40625 60.796875 
L 8.40625 55 
C 11.296875 55.09375 16 55.296875 20.703125 57.390625 
L 20.703125 5.796875 
L 8.90625 5.796875 
L 8.90625 0 
L 40.203125 0 
L 40.203125 5.796875 
L 28.40625 5.796875 
z
" id="CMSS17-49"/>
     </defs>
     <g style="fill:#262626;" transform="translate(165.9 78)scale(0.11 -0.11)">
      <use transform="scale(0.996264)" xlink:href="#CMSS17-118"/>
      <use transform="translate(43.000142 0)scale(0.996264)" xlink:href="#CMSS17-49"/>
     </g>
    </g>
    <g id="patch_109">
     <path d="M 135.1 93.33889 
L 157.1 93.33889 
L 157.1 85.63889 
L 135.1 85.63889 
z
" style="fill:#c44e52;opacity:0.5;stroke:#ffffff;stroke-linejoin:miter;"/>
    </g>
    <g id="text_17">
     <!-- v2 -->
     <defs>
      <path d="M 25.796875 21.140625 
C 28.59375 24.03125 32.796875 27.515625 35.703125 31 
C 38.5 34.390625 42.203125 39.171875 42.203125 46.140625 
C 42.203125 57.109375 34.796875 67 22.203125 67 
C 12.296875 67 6.59375 60.796875 3.90625 51.125 
L 7.796875 45.75 
C 10 54.8125 13.09375 60.59375 20.90625 60.59375 
C 29.5 60.59375 34.296875 53.609375 34.296875 45.9375 
C 34.296875 36.78125 27.296875 29.703125 22 24.421875 
C 16.09375 18.546875 10.296875 12.578125 4.703125 6.390625 
L 4.703125 0 
L 42.203125 0 
L 42.203125 6.796875 
L 25.203125 6.796875 
C 24 6.796875 22.796875 6.6875 21.59375 6.6875 
L 11.59375 6.6875 
L 11.59375 6.796875 
z
" id="CMSS17-50"/>
     </defs>
     <g style="fill:#262626;" transform="translate(165.9 93.33889)scale(0.11 -0.11)">
      <use transform="scale(0.996264)" xlink:href="#CMSS17-118"/>
      <use transform="translate(43.000142 0)scale(0.996264)" xlink:href="#CMSS17-50"/>
     </g>
    </g>
   </g>
  </g>
 </g>
 <defs>
  <clipPath id="p33454c4dcd">
   <rect height="313.2" width="453.6" x="129.6" y="64.8"/>
  </clipPath>
 </defs>
</svg>
