<?xml version="1.0" encoding="utf-8" standalone="no"?>
<!DOCTYPE svg PUBLIC "-//W3C//DTD SVG 1.1//EN"
  "http://www.w3.org/Graphics/SVG/1.1/DTD/svg11.dtd">
<!-- Created with matplotlib (https://matplotlib.org/) -->
<svg height="432pt" version="1.1" viewBox="0 0 648 432" width="648pt" xmlns="http://www.w3.org/2000/svg" xmlns:xlink="http://www.w3.org/1999/xlink">
 <defs>
  <style type="text/css">
*{stroke-linecap:butt;stroke-linejoin:round;}
  </style>
 </defs>
 <g id="figure_1">
  <g id="patch_1">
   <path d="M 0 432 
L 648 432 
L 648 0 
L 0 0 
z
" style="fill:none;"/>
  </g>
  <g id="axes_1">
   <g id="patch_2">
    <path d="M 129.6 345.6 
L 583.2 345.6 
L 583.2 64.8 
L 129.6 64.8 
z
" style="fill:none;"/>
   </g>
   <g id="matplotlib.axis_1">
    <g id="xtick_1">
     <g id="line2d_1">
      <defs>
       <path d="M 0 0 
L 0 6 
" id="mc04bb1971e" style="stroke:#262626;stroke-width:1.25;"/>
      </defs>
      <g>
       <use style="fill:#262626;stroke:#262626;stroke-width:1.25;" x="149.965496" xlink:href="#mc04bb1971e" y="345.6"/>
      </g>
     </g>
     <g id="text_1">
      <!-- $0.0$ -->
      <defs>
       <path d="M 51.703125 31.84375 
C 51.703125 41.375 51.703125 65.28125 28.09375 65.28125 
C 4.40625 65.28125 4.40625 41.46875 4.40625 31.84375 
C 4.40625 22.3125 4.40625 -1 28 -1 
C 51.59375 -1 51.703125 22.015625 51.703125 31.84375 
z
M 28.09375 2.28125 
C 24.90625 2.28125 22.5 3.5625 20.5 5.65625 
C 18 8.140625 16.40625 9.703125 16.40625 33.03125 
C 16.40625 39.984375 16.40625 46.3125 17.203125 51.484375 
C 18.59375 61.3125 25.796875 62 28 62 
C 31.203125 62 37.40625 60.515625 38.796875 52.1875 
C 39.703125 47.109375 39.703125 39.078125 39.703125 33.03125 
C 39.703125 9.609375 38.203125 8.234375 35.203125 5.25 
C 33.203125 3.265625 30.5 2.28125 28.09375 2.28125 
z
" id="CMBX12-48"/>
       <path d="M 23.703125 7.765625 
C 23.703125 12.046875 20.203125 15.53125 15.90625 15.53125 
C 11.59375 15.53125 8.09375 12.046875 8.09375 7.765625 
C 8.09375 3.484375 11.59375 0 15.90625 0 
C 20.203125 0 23.703125 3.484375 23.703125 7.765625 
z
" id="CMMIB10-58"/>
      </defs>
      <g style="fill:#262626;" transform="translate(136.965511 367.6)scale(0.18 -0.18)">
       <use transform="scale(0.996264)" xlink:href="#CMBX12-48"/>
       <use transform="translate(56.039851 0)scale(0.996264)" xlink:href="#CMMIB10-58"/>
       <use transform="translate(87.864782 0)scale(0.996264)" xlink:href="#CMBX12-48"/>
      </g>
     </g>
    </g>
    <g id="xtick_2">
     <g id="line2d_2">
      <g>
       <use style="fill:#262626;stroke:#262626;stroke-width:1.25;" x="232.489441" xlink:href="#mc04bb1971e" y="345.6"/>
      </g>
     </g>
     <g id="text_2">
      <!-- $0.2$ -->
      <defs>
       <path d="M 50.5 21.375 
L 46.296875 21.375 
C 46 19.28125 45.296875 13.40625 43.796875 12.421875 
C 43 11.71875 35.203125 11.71875 33.703125 11.71875 
L 18.203125 11.71875 
C 22 14.90625 31.09375 22.46875 32.59375 23.578125 
C 43.703125 31.84375 50.5 36.90625 50.5 46.46875 
C 50.5 58.203125 39.796875 65.28125 26.59375 65.28125 
C 15.296875 65.28125 5.59375 58.90625 5.59375 49.453125 
C 5.59375 44.171875 9.90625 42.6875 12.203125 42.6875 
C 15.296875 42.6875 18.90625 44.765625 18.90625 49.359375 
C 18.90625 53.546875 15.796875 55.625 12.703125 56.03125 
C 16.703125 60.609375 22 61 24.09375 61 
C 33.296875 61 37.703125 53.546875 37.703125 46.375 
C 37.703125 38.609375 32.40625 31.453125 28.296875 27.171875 
L 6.59375 4.578125 
C 5.59375 3.671875 5.59375 3.484375 5.59375 1.6875 
L 5.59375 0 
L 47.59375 0 
z
" id="CMBX12-50"/>
      </defs>
      <g style="fill:#262626;" transform="translate(219.489456 367.6)scale(0.18 -0.18)">
       <use transform="scale(0.996264)" xlink:href="#CMBX12-48"/>
       <use transform="translate(56.039851 0)scale(0.996264)" xlink:href="#CMMIB10-58"/>
       <use transform="translate(87.864782 0)scale(0.996264)" xlink:href="#CMBX12-50"/>
      </g>
     </g>
    </g>
    <g id="xtick_3">
     <g id="line2d_3">
      <g>
       <use style="fill:#262626;stroke:#262626;stroke-width:1.25;" x="315.013386" xlink:href="#mc04bb1971e" y="345.6"/>
      </g>
     </g>
     <g id="text_3">
      <!-- $0.4$ -->
      <defs>
       <path d="M 43.296875 15.71875 
L 53 15.71875 
L 53 20 
L 43.296875 20 
L 43.296875 62.609375 
C 43.296875 65.09375 43.203125 65.5 40.703125 65.5 
C 38.90625 65.5 38.703125 65.5 37.5 64 
L 3.09375 20 
L 3.09375 15.71875 
L 31.5 15.71875 
L 31.5 4.171875 
L 20.59375 4.171875 
L 20.59375 0 
C 23.5 0 33.40625 0 37 0 
C 40.40625 0 50.296875 0 53 -0.09375 
L 53 4.171875 
L 43.296875 4.171875 
z
M 32.40625 51.59375 
L 32.40625 20 
L 7.703125 20 
z
" id="CMBX12-52"/>
      </defs>
      <g style="fill:#262626;" transform="translate(302.013401 367.6)scale(0.18 -0.18)">
       <use transform="scale(0.996264)" xlink:href="#CMBX12-48"/>
       <use transform="translate(56.039851 0)scale(0.996264)" xlink:href="#CMMIB10-58"/>
       <use transform="translate(87.864782 0)scale(0.996264)" xlink:href="#CMBX12-52"/>
      </g>
     </g>
    </g>
    <g id="xtick_4">
     <g id="line2d_4">
      <g>
       <use style="fill:#262626;stroke:#262626;stroke-width:1.25;" x="397.53733" xlink:href="#mc04bb1971e" y="345.6"/>
      </g>
     </g>
     <g id="text_4">
      <!-- $0.6$ -->
      <defs>
       <path d="M 17.40625 36.25 
C 17.40625 42.328125 17.703125 48.53125 20.5 53.90625 
C 22.703125 58.109375 27.796875 62 34.296875 62 
C 36.203125 62 39.796875 61.703125 42.203125 59.203125 
C 38.40625 58.8125 36.796875 56.015625 36.796875 53.3125 
C 36.796875 49.703125 39.5 47.40625 42.703125 47.40625 
C 45.296875 47.40625 48.59375 49.109375 48.59375 53.5 
C 48.59375 59.484375 44.59375 65.578125 34.09375 65.578125 
C 21.59375 65.578125 4.703125 57.796875 4.703125 31.796875 
C 4.703125 25.109375 4.703125 -1 28.40625 -1 
C 41.59375 -1 51.40625 6.765625 51.40625 20.703125 
C 51.40625 34.640625 41.703125 42 29.796875 42 
C 27.796875 42 21.40625 42 17.40625 33.546875 
z
M 28.296875 2.96875 
C 21.90625 2.96875 19.40625 8.34375 19 9.140625 
C 17.59375 12.4375 17.59375 20.40625 17.59375 21.296875 
C 17.59375 33.546875 22.90625 38.734375 28.796875 38.734375 
C 38.703125 38.734375 38.703125 30.765625 38.703125 20.796875 
C 38.703125 10.9375 38.703125 2.96875 28.296875 2.96875 
z
" id="CMBX12-54"/>
      </defs>
      <g style="fill:#262626;" transform="translate(384.537345 367.6)scale(0.18 -0.18)">
       <use transform="scale(0.996264)" xlink:href="#CMBX12-48"/>
       <use transform="translate(56.039851 0)scale(0.996264)" xlink:href="#CMMIB10-58"/>
       <use transform="translate(87.864782 0)scale(0.996264)" xlink:href="#CMBX12-54"/>
      </g>
     </g>
    </g>
    <g id="xtick_5">
     <g id="line2d_5">
      <g>
       <use style="fill:#262626;stroke:#262626;stroke-width:1.25;" x="480.061275" xlink:href="#mc04bb1971e" y="345.6"/>
      </g>
     </g>
     <g id="text_5">
      <!-- $0.8$ -->
      <defs>
       <path d="M 37.703125 36.921875 
C 42.703125 39.515625 48.296875 43.203125 48.296875 51 
C 48.296875 61.28125 39.09375 65.671875 28.203125 65.671875 
C 14.90625 65.671875 7.796875 58.09375 7.796875 48.40625 
C 7.796875 43.03125 10.5 37.03125 17.90625 33.140625 
C 6.59375 28.140625 4.703125 21.265625 4.703125 16.078125 
C 4.703125 4.59375 14.703125 -1 27.90625 -1 
C 42.703125 -1 51.40625 6.96875 51.40625 18.5625 
C 51.40625 29.4375 42.796875 34.140625 37.703125 36.921875 
z
M 19.703125 47.265625 
C 17.703125 48.375 14.90625 50.671875 14.90625 53.984375 
C 14.90625 62 25.59375 62 27.90625 62 
C 36.40625 62 41.203125 57.53125 41.203125 50.96875 
C 41.203125 46.890625 39.40625 42.609375 33.703125 39.328125 
z
M 22 30.59375 
L 35.796875 22.734375 
C 39.09375 20.84375 43.40625 18.46875 43.40625 13.40625 
C 43.40625 5.453125 35.40625 2.96875 28.203125 2.96875 
C 18.296875 2.96875 12.703125 8.234375 12.703125 16.078125 
C 12.703125 23.328125 17.203125 27.90625 22 30.59375 
z
" id="CMBX12-56"/>
      </defs>
      <g style="fill:#262626;" transform="translate(467.06129 367.6)scale(0.18 -0.18)">
       <use transform="scale(0.996264)" xlink:href="#CMBX12-48"/>
       <use transform="translate(56.039851 0)scale(0.996264)" xlink:href="#CMMIB10-58"/>
       <use transform="translate(87.864782 0)scale(0.996264)" xlink:href="#CMBX12-56"/>
      </g>
     </g>
    </g>
    <g id="xtick_6">
     <g id="line2d_6">
      <g>
       <use style="fill:#262626;stroke:#262626;stroke-width:1.25;" x="562.58522" xlink:href="#mc04bb1971e" y="345.6"/>
      </g>
     </g>
     <g id="text_6">
      <!-- $1.0$ -->
      <defs>
       <path d="M 34.59375 62.109375 
C 34.59375 65 34.40625 65 31.203125 65 
C 23.796875 59 12.703125 59 10.5 59 
L 8.59375 59 
L 8.59375 54.734375 
L 10.5 54.734375 
C 14 54.734375 19.296875 55.328125 23.296875 56.625 
L 23.296875 4.171875 
L 9.40625 4.171875 
L 9.40625 0 
C 13.59375 0 24.09375 0 28.796875 0 
C 33.5 0 44.09375 0 48.296875 0 
L 48.296875 4.171875 
L 34.59375 4.171875 
z
" id="CMBX12-49"/>
      </defs>
      <g style="fill:#262626;" transform="translate(549.585235 367.6)scale(0.18 -0.18)">
       <use transform="scale(0.996264)" xlink:href="#CMBX12-49"/>
       <use transform="translate(56.039851 0)scale(0.996264)" xlink:href="#CMMIB10-58"/>
       <use transform="translate(87.864782 0)scale(0.996264)" xlink:href="#CMBX12-48"/>
      </g>
     </g>
    </g>
    <g id="text_7">
     <!-- \textbf{``Bad Tool" Score} -->
     <defs>
      <path d="M 17.703125 47.71875 
C 17.90625 55.375 21.203125 61.453125 26.796875 65.875 
C 27.703125 66.65625 27.796875 66.75 27.796875 67.140625 
C 27.796875 68.03125 26.59375 69 26 69 
C 24.59375 69 14.40625 60.71875 14.40625 47.625 
C 14.40625 41.109375 17.703125 35.6875 23.296875 35.6875 
C 27.703125 35.6875 30.40625 38.96875 30.40625 42.84375 
C 30.40625 46.421875 27.90625 50 23.203125 50 
C 20.296875 50 18.5 48.515625 17.703125 47.71875 
z
M 41.5 47.71875 
C 41.703125 55.375 45 61.453125 50.59375 65.875 
C 51.5 66.65625 51.59375 66.75 51.59375 67.140625 
C 51.59375 68.03125 50.40625 69 49.796875 69 
C 48.40625 69 38.203125 60.71875 38.203125 47.625 
C 38.203125 41.109375 41.5 35.6875 47.09375 35.6875 
C 51.5 35.6875 54.203125 38.96875 54.203125 42.84375 
C 54.203125 46.421875 51.703125 50 47 50 
C 44.09375 50 42.296875 48.515625 41.5 47.71875 
z
" id="CMBX12-92"/>
      <path d="M 3.90625 68.28125 
L 3.90625 64 
L 14.5 64 
L 14.5 4.265625 
L 3.90625 4.265625 
L 3.90625 0 
L 49.09375 0 
C 65.59375 0 73.703125 8.828125 73.703125 18.34375 
C 73.703125 27.78125 65.40625 34.625 53.296875 35.515625 
C 67.703125 38.21875 70.5 46.40625 70.5 51.09375 
C 70.5 60.28125 62.09375 68.28125 46.09375 68.28125 
z
M 26.796875 37 
L 26.796875 64 
L 44.90625 64 
C 55.203125 64 57.296875 56.203125 57.296875 51.1875 
C 57.296875 44.1875 53.40625 37 41.703125 37 
z
M 26.796875 4.265625 
L 26.796875 33.71875 
L 46.703125 33.71875 
C 58.40625 33.71875 60.09375 23 60.09375 18.546875 
C 60.09375 12.296875 56.703125 4.265625 45.203125 4.265625 
z
" id="CMBX12-66"/>
      <path d="M 46 29.65625 
C 46 38.8125 38.703125 44.984375 24.59375 44.984375 
C 19 44.984375 7.203125 44.984375 7.203125 36.46875 
C 7.203125 32.203125 10.40625 30.390625 13.09375 30.390625 
C 16.09375 30.390625 19 32.484375 19 36.296875 
C 19 38.203125 18.296875 39.984375 16.59375 41.09375 
C 19.90625 42 22.296875 42 24.203125 42 
C 31 42 35.09375 38.203125 35.09375 29.984375 
L 35.09375 25.984375 
C 19.296875 25.984375 3.40625 21.59375 3.40625 10.5625 
C 3.40625 1.484375 15 -0.5 21.90625 -0.5 
C 29.59375 -0.5 34.5 3.640625 36.5 7.96875 
C 36.5 4.28125 36.5 0 46.59375 0 
L 51.703125 0 
C 53.796875 0 54.59375 0 54.59375 2.265625 
C 54.59375 4.265625 53.703125 4.265625 52.296875 4.265625 
C 46 4.265625 46 5.84375 46 8.15625 
z
M 35.09375 13.78125 
C 35.09375 4.546875 26.703125 2.78125 23.5 2.78125 
C 18.59375 2.78125 14.5 6.09375 14.5 10.71875 
C 14.5 19.890625 25.296875 23 35.09375 23 
z
" id="CMBX12-97"/>
      <path d="M 34.703125 69 
L 34.703125 64.328125 
C 40.90625 64.328125 41.59375 64.328125 41.59375 60.421875 
L 41.59375 40.234375 
C 39.40625 42.125 35 45 28.09375 45 
C 13.90625 45 3.796875 36.21875 3.796875 22.25 
C 3.796875 7.96875 13.703125 -0.5 27 -0.5 
C 32.5 -0.5 37.203125 1.46875 41.09375 4.859375 
L 41.09375 0 
L 58.90625 0 
L 58.90625 4.5625 
C 52.703125 4.5625 52 4.5625 52 8.4375 
L 52 69 
z
M 41.09375 10.328125 
C 36.90625 4.09375 31.796875 2.78125 28.203125 2.78125 
C 15.796875 2.78125 15.796875 15.453125 15.796875 22.046875 
C 15.796875 26.75 15.796875 31.75 18 35.53125 
C 21.09375 41.125 27 41.71875 29.296875 41.71875 
C 33.40625 41.71875 37.796875 39.9375 41.09375 35.5625 
z
" id="CMBX12-100"/>
      <path d="M 72 67.265625 
L 6.09375 67.265625 
L 4.09375 43.703125 
L 8.296875 43.703125 
C 9.203125 54.546875 10 63 24.40625 63 
L 32.5 63 
L 32.5 4.171875 
L 17.40625 4.171875 
L 17.40625 0 
C 25.40625 0 35.703125 0 39.09375 0 
C 45.203125 0 52.796875 0 60.796875 0 
L 60.796875 4.171875 
L 45.703125 4.171875 
L 45.703125 63 
L 53.703125 63 
C 68.09375 63 68.90625 54.640625 69.796875 43.703125 
L 74 43.703125 
z
" id="CMBX12-84"/>
      <path d="M 53 21.796875 
C 53 35.1875 43.796875 45 28.09375 45 
C 11.796875 45 3.09375 34.6875 3.09375 21.796875 
C 3.09375 8.828125 12.296875 -0.5 28 -0.5 
C 44.296875 -0.5 53 9.3125 53 21.796875 
z
M 28.09375 3.078125 
C 15.09375 3.078125 15.09375 14.671875 15.09375 22.796875 
C 15.09375 27.453125 15.09375 32.40625 17 35.984375 
C 19.203125 39.9375 23.703125 41.71875 28 41.71875 
C 33.703125 41.71875 37.296875 39.046875 39 36.28125 
C 41 32.703125 41 27.546875 41 22.796875 
C 41 14.5625 41 3.078125 28.09375 3.078125 
z
" id="CMBX12-111"/>
      <path d="M 21.703125 69 
L 4.40625 69 
L 4.40625 64.328125 
C 10.59375 64.328125 11.296875 64.328125 11.296875 60.40625 
L 11.296875 4.0625 
L 4.40625 4.0625 
L 4.40625 -0.203125 
C 6.703125 0 13.796875 0 16.5 0 
C 19.203125 0 26.296875 0 28.59375 -0.203125 
L 28.59375 4.0625 
L 21.703125 4.0625 
z
" id="CMBX12-108"/>
      <path d="M 16.5 56.984375 
C 16.296875 49.15625 13 42.9375 7.40625 38.421875 
C 6.5 37.625 6.40625 37.515625 6.40625 37.109375 
C 6.40625 36.21875 7.59375 35.203125 8.203125 35.203125 
C 9.59375 35.203125 19.796875 43.609375 19.796875 56.90625 
C 19.796875 63.515625 16.5 69 10.90625 69 
C 6.5 69 3.796875 65.734375 3.796875 61.859375 
C 3.796875 58.28125 6.296875 54.703125 11 54.703125 
C 13.90625 54.703125 15.703125 56.1875 16.5 56.984375 
z
M 40.296875 56.984375 
C 40.09375 49.15625 36.796875 42.9375 31.203125 38.421875 
C 30.296875 37.625 30.203125 37.515625 30.203125 37.109375 
C 30.203125 36.21875 31.40625 35.203125 32 35.203125 
C 33.40625 35.203125 43.59375 43.609375 43.59375 56.90625 
C 43.59375 63.515625 40.296875 69 34.703125 69 
C 30.296875 69 27.59375 65.734375 27.59375 61.859375 
C 27.59375 58.28125 30.09375 54.703125 34.796875 54.703125 
C 37.703125 54.703125 39.5 56.1875 40.296875 56.984375 
z
" id="CMBX12-34"/>
      <path d="M 25.40625 43.46875 
C 15.5 45.625 15.203125 52.75 15.203125 54.140625 
C 15.203125 59.171875 18.5 65.03125 28.203125 65.03125 
C 37.90625 65.03125 46.59375 60.359375 48.703125 47.34375 
C 49 45.25 49 45.25 50.90625 45.25 
C 53 45.25 53 45.546875 53 47.8125 
L 53 66.4375 
C 53 68.3125 53 69.015625 51.5 69.015625 
C 50.796875 69.015625 50.5 68.921875 49.59375 67.921875 
L 45.296875 63.046875 
C 42.796875 65.140625 37.796875 69 28.09375 69 
C 13.796875 69 6.203125 60.09375 6.203125 49.3125 
C 6.203125 42.6875 9.796875 38.03125 11.203125 36.640625 
C 16.40625 31.5 19.203125 30.90625 29.59375 28.625 
C 39.59375 26.453125 40.796875 26.25 43 24.1875 
C 44.296875 22.890625 47.203125 20.125 47.203125 15.078125 
C 47.203125 10.8125 45.09375 3 33.90625 3 
C 25.09375 3 11.203125 5.96875 10.40625 20.421875 
C 10.296875 22.203125 10.296875 22.5 8.296875 22.5 
C 6.203125 22.5 6.203125 22.203125 6.203125 19.921875 
L 6.203125 1.296875 
C 6.203125 -0.59375 6.203125 -1.28125 7.703125 -1.28125 
C 8.40625 -1.28125 8.5 -1.1875 9.5 -0.296875 
C 10.59375 0.796875 11.5 2.09375 14 4.578125 
C 19.796875 0.015625 28 -1.265625 34 -1.265625 
C 49.59375 -1.265625 56.203125 9.21875 56.203125 19.71875 
C 56.203125 29 50 37.90625 39.09375 40.375 
z
" id="CMBX12-83"/>
      <path d="M 46.796875 11.765625 
C 46.796875 12.953125 45.703125 12.953125 44.703125 12.953125 
C 43.09375 12.953125 43 12.859375 42.5 11.671875 
C 41.796875 9.765625 39.09375 3.078125 29.90625 3.078125 
C 15.796875 3.078125 15.796875 18.21875 15.796875 22.703125 
C 15.796875 28.578125 15.90625 41.625 29 41.625 
C 29.703125 41.625 35.59375 41.625 35.59375 41.125 
C 35.59375 41 35.5 40.90625 35.296875 40.8125 
C 35 40.515625 33.703125 39 33.703125 36.46875 
C 33.703125 32.25 37.09375 30.53125 39.59375 30.53125 
C 41.703125 30.53125 45.5 31.859375 45.5 36.65625 
C 45.5 45 34 45 28.59375 45 
C 10.796875 45 3.796875 33.515625 3.796875 22.09375 
C 3.796875 8.625 13.296875 -0.5 28 -0.5 
C 43.703125 -0.5 46.796875 11.0625 46.796875 11.765625 
z
" id="CMBX12-99"/>
      <path d="M 20.796875 22.046875 
C 20.796875 25.296875 21.5 41 33.203125 41 
C 31.796875 39.921875 31.09375 38.25 31.09375 36.5 
C 31.09375 32.484375 34.40625 30.8125 36.90625 30.8125 
C 39.40625 30.8125 42.703125 32.484375 42.703125 36.515625 
C 42.703125 41.53125 37.5 44.28125 32.703125 44.28125 
C 24.796875 44.28125 21.40625 37.515625 20 33.390625 
L 19.90625 33.390625 
L 19.90625 44 
L 3.5 44 
L 3.5 39.328125 
C 9.703125 39.328125 10.40625 39.328125 10.40625 35.46875 
L 10.40625 4.0625 
L 3.5 4.0625 
L 3.5 -0.203125 
C 5.796875 0 13.296875 0 16.09375 0 
C 19 0 27.09375 0 29.5 -0.203125 
L 29.5 4.0625 
L 20.796875 4.0625 
z
" id="CMBX12-114"/>
      <path d="M 45.203125 22 
C 47.5 22 48.09375 22 48.09375 24.484375 
C 48.09375 27.46875 47.40625 34.890625 42.796875 39.5625 
C 38.59375 43.71875 33 45 27.203125 45 
C 11.59375 45 3.09375 34.890625 3.09375 22.40625 
C 3.09375 8.515625 13.40625 -0.5 28.5 -0.5 
C 43.59375 -0.5 48.09375 10 48.09375 11.6875 
C 48.09375 13.171875 46.59375 13.171875 46 13.171875 
C 44.40625 13.171875 44.296875 12.875 43.703125 11.59375 
C 41.09375 5.15625 34.5 3.078125 29.703125 3.078125 
C 15.203125 3.078125 15.09375 16.453125 15.09375 22 
z
M 15.09375 24.890625 
C 15.296875 28.9375 15.40625 32.8125 17.5 36.375 
C 19.40625 39.546875 22.90625 41.71875 27.203125 41.71875 
C 37.90625 41.71875 38.796875 29.828125 38.90625 24.890625 
z
" id="CMBX12-101"/>
     </defs>
     <g style="fill:#262626;" transform="translate(260.684705 390.37891)scale(0.22 -0.22)">
      <use transform="scale(0.996264)" xlink:href="#CMBX12-92"/>
      <use transform="translate(57.88486 0)scale(0.996264)" xlink:href="#CMBX12-66"/>
      <use transform="translate(137.562996 0)scale(0.996264)" xlink:href="#CMBX12-97"/>
      <use transform="translate(192.046184 0)scale(0.996264)" xlink:href="#CMBX12-100"/>
      <use transform="translate(291.672585 0)scale(0.996264)" xlink:href="#CMBX12-84"/>
      <use transform="translate(360.280981 0)scale(0.996264)" xlink:href="#CMBX12-111"/>
      <use transform="translate(419.434156 0)scale(0.996264)" xlink:href="#CMBX12-111"/>
      <use transform="translate(475.474007 0)scale(0.996264)" xlink:href="#CMBX12-108"/>
      <use transform="translate(506.607257 0)scale(0.996264)" xlink:href="#CMBX12-34"/>
      <use transform="translate(601.852018 0)scale(0.996264)" xlink:href="#CMBX12-83"/>
      <use transform="translate(664.118519 0)scale(0.996264)" xlink:href="#CMBX12-99"/>
      <use transform="translate(713.931719 0)scale(0.996264)" xlink:href="#CMBX12-111"/>
      <use transform="translate(769.97157 0)scale(0.996264)" xlink:href="#CMBX12-114"/>
      <use transform="translate(815.749077 0)scale(0.996264)" xlink:href="#CMBX12-101"/>
     </g>
    </g>
   </g>
   <g id="matplotlib.axis_2">
    <g id="ytick_1">
     <g id="line2d_7">
      <defs>
       <path d="M 0 0 
L -6 0 
" id="m2db1f263e5" style="stroke:#262626;stroke-width:1.25;"/>
      </defs>
      <g>
       <use style="fill:#262626;stroke:#262626;stroke-width:1.25;" x="129.6" xlink:href="#m2db1f263e5" y="345.6"/>
      </g>
     </g>
     <g id="text_8">
      <!-- $0$ -->
      <g style="fill:#262626;" transform="translate(109.975 351.85)scale(0.18 -0.18)">
       <use transform="scale(0.996264)" xlink:href="#CMBX12-48"/>
      </g>
     </g>
    </g>
    <g id="ytick_2">
     <g id="line2d_8">
      <g>
       <use style="fill:#262626;stroke:#262626;stroke-width:1.25;" x="129.6" xlink:href="#m2db1f263e5" y="301.510521"/>
      </g>
     </g>
     <g id="text_9">
      <!-- $5$ -->
      <defs>
       <path d="M 15.40625 51.796875 
C 18.796875 51 21.5 51 23 51 
C 25.40625 51 31.09375 51 37.796875 55.109375 
C 40.90625 56.984375 46.09375 61.5 46.09375 63.796875 
C 46.09375 64.296875 46.09375 65.5 44.90625 65.5 
C 44.796875 65.5 44.59375 65.5 43.59375 64.984375 
C 39 63.34375 34.09375 62.21875 28.5 62.21875 
C 22.796875 62.21875 18 63.3125 13.296875 65 
C 12.59375 65.203125 12.296875 65.40625 12 65.40625 
C 10.796875 65.40625 10.796875 64.40625 10.796875 62.71875 
L 10.796875 33.796875 
C 10.796875 31.90625 10.796875 30.8125 12.796875 30.8125 
C 13.796875 30.8125 14 30.921875 14.796875 31.90625 
C 16 33.3125 19.59375 37.71875 28.09375 37.71875 
C 37.296875 37.71875 37.296875 28.359375 37.296875 20.5 
C 37.296875 13.3125 37.296875 2.96875 25 2.96875 
C 21.296875 2.96875 15 4.359375 11.59375 10 
C 16.90625 10 18.203125 13.984375 18.203125 16.171875 
C 18.203125 19.75 15.59375 22.421875 11.90625 22.421875 
C 8.90625 22.421875 5.59375 20.640625 5.59375 15.96875 
C 5.59375 7.34375 13.5 -1 25.40625 -1 
C 40.796875 -1 50.5 7.859375 50.5 20.203125 
C 50.5 32.34375 42.203125 41 28.5 41 
C 24.5 41 19.703125 40.203125 15.40625 37.015625 
z
" id="CMBX12-53"/>
      </defs>
      <g style="fill:#262626;" transform="translate(109.975 307.760521)scale(0.18 -0.18)">
       <use transform="scale(0.996264)" xlink:href="#CMBX12-53"/>
      </g>
     </g>
    </g>
    <g id="ytick_3">
     <g id="line2d_9">
      <g>
       <use style="fill:#262626;stroke:#262626;stroke-width:1.25;" x="129.6" xlink:href="#m2db1f263e5" y="257.421043"/>
      </g>
     </g>
     <g id="text_10">
      <!-- $10$ -->
      <g style="fill:#262626;" transform="translate(99.85 263.671043)scale(0.18 -0.18)">
       <use transform="scale(0.996264)" xlink:href="#CMBX12-49"/>
       <use transform="translate(56.039851 0)scale(0.996264)" xlink:href="#CMBX12-48"/>
      </g>
     </g>
    </g>
    <g id="ytick_4">
     <g id="line2d_10">
      <g>
       <use style="fill:#262626;stroke:#262626;stroke-width:1.25;" x="129.6" xlink:href="#m2db1f263e5" y="213.331564"/>
      </g>
     </g>
     <g id="text_11">
      <!-- $15$ -->
      <g style="fill:#262626;" transform="translate(99.85 219.581564)scale(0.18 -0.18)">
       <use transform="scale(0.996264)" xlink:href="#CMBX12-49"/>
       <use transform="translate(56.039851 0)scale(0.996264)" xlink:href="#CMBX12-53"/>
      </g>
     </g>
    </g>
    <g id="ytick_5">
     <g id="line2d_11">
      <g>
       <use style="fill:#262626;stroke:#262626;stroke-width:1.25;" x="129.6" xlink:href="#m2db1f263e5" y="169.242085"/>
      </g>
     </g>
     <g id="text_12">
      <!-- $20$ -->
      <g style="fill:#262626;" transform="translate(99.85 175.492085)scale(0.18 -0.18)">
       <use transform="scale(0.996264)" xlink:href="#CMBX12-50"/>
       <use transform="translate(56.039851 0)scale(0.996264)" xlink:href="#CMBX12-48"/>
      </g>
     </g>
    </g>
    <g id="ytick_6">
     <g id="line2d_12">
      <g>
       <use style="fill:#262626;stroke:#262626;stroke-width:1.25;" x="129.6" xlink:href="#m2db1f263e5" y="125.152607"/>
      </g>
     </g>
     <g id="text_13">
      <!-- $25$ -->
      <g style="fill:#262626;" transform="translate(99.85 131.402607)scale(0.18 -0.18)">
       <use transform="scale(0.996264)" xlink:href="#CMBX12-50"/>
       <use transform="translate(56.039851 0)scale(0.996264)" xlink:href="#CMBX12-53"/>
      </g>
     </g>
    </g>
    <g id="ytick_7">
     <g id="line2d_13">
      <g>
       <use style="fill:#262626;stroke:#262626;stroke-width:1.25;" x="129.6" xlink:href="#m2db1f263e5" y="81.063128"/>
      </g>
     </g>
     <g id="text_14">
      <!-- $30$ -->
      <defs>
       <path d="M 26.09375 33 
C 37.296875 33 37.296875 22.71875 37.296875 17.984375 
C 37.296875 13.53125 37.296875 3.0625 26.5 3.0625 
C 24.40625 3.0625 17.796875 3.0625 13 6.625 
C 17.296875 7.515625 18.796875 10.59375 18.796875 13.5625 
C 18.796875 17.625 15.90625 20.5 11.796875 20.5 
C 7.59375 20.5 4.703125 17.625 4.703125 13.46875 
C 4.703125 4.34375 14.703125 -1 27 -1 
C 43.5 -1 51.40625 8.015625 51.40625 17.921875 
C 51.40625 22.796875 48.90625 32.203125 33.40625 34.875 
C 42.203125 37.59375 48.296875 43.8125 48.296875 51.71875 
C 48.296875 59.25 41.09375 65.578125 27.203125 65.578125 
C 16 65.578125 7.796875 59.65625 7.796875 51.53125 
C 7.796875 46.515625 11.703125 44.90625 14.296875 44.90625 
C 17.203125 44.90625 20.703125 46.8125 20.703125 51.4375 
C 20.703125 53.765625 19.703125 57.171875 15 57.875 
C 19.203125 62 26 62 26.59375 62 
C 35.5 62 35.5 55.03125 35.5 52.015625 
C 35.5 48.984375 35.09375 44.328125 31.90625 40.203125 
C 29.296875 36.75 26.703125 36.5625 22.90625 36.5625 
C 21.703125 36.265625 19.703125 36.265625 19.296875 36.078125 
C 18.703125 35.78125 18.703125 35.078125 18.703125 34.6875 
C 18.703125 33 19.296875 33 21.296875 33 
z
" id="CMBX12-51"/>
      </defs>
      <g style="fill:#262626;" transform="translate(99.85 87.313128)scale(0.18 -0.18)">
       <use transform="scale(0.996264)" xlink:href="#CMBX12-51"/>
       <use transform="translate(56.039851 0)scale(0.996264)" xlink:href="#CMBX12-48"/>
      </g>
     </g>
    </g>
    <g id="text_15">
     <!-- \textbf{Probability} -->
     <defs>
      <path d="M 27.59375 30.21875 
L 44.59375 30.21875 
C 61.296875 30.21875 70.59375 38.65625 70.59375 48.875 
C 70.59375 59.5625 61.09375 68 44.59375 68 
L 3.796875 68 
L 3.796875 63.71875 
L 14.40625 63.71875 
L 14.40625 4.171875 
L 3.796875 4.171875 
L 3.796875 0 
C 6.703125 0 17.40625 0 21 0 
C 24.59375 0 35.296875 0 38.203125 0 
L 38.203125 4.171875 
L 27.59375 4.171875 
z
M 41 63.71875 
C 56.5 63.71875 56.5 55.59375 56.5 48.859375 
C 56.5 42.328125 56.5 34 41 34 
L 27.09375 34 
L 27.09375 63.71875 
z
" id="CMBX12-80"/>
      <path d="M 20.796875 69 
L 3.5 69 
L 3.5 64.328125 
C 9.703125 64.328125 10.40625 64.328125 10.40625 60.421875 
L 10.40625 0 
L 14.59375 0 
C 16.296875 1.921875 18 3.859375 19.59375 5.875 
C 24.703125 0.59375 30.203125 -0.5 34.203125 -0.5 
C 48 -0.5 58.59375 7.875 58.59375 22.359375 
C 58.59375 36.015625 49.203125 45 35.5 45 
C 29.59375 45 24.90625 43.109375 20.796875 39.921875 
z
M 21.296875 35.125 
C 24.796875 39.921875 30 41.71875 34.203125 41.71875 
C 46.59375 41.71875 46.59375 29.046875 46.59375 22.453125 
C 46.59375 17.953125 46.59375 12.265625 44.203125 8.5625 
C 41.09375 3.765625 36.40625 2.78125 33.203125 2.78125 
C 26.40625 2.78125 22.703125 7.5625 21.296875 9.765625 
z
" id="CMBX12-98"/>
      <path d="M 22.296875 61.84375 
C 22.296875 65.921875 19 69 15.09375 69 
C 11 69 7.90625 65.625 7.90625 61.84375 
C 7.90625 58.0625 11 54.6875 15.09375 54.6875 
C 19 54.6875 22.296875 57.765625 22.296875 61.84375 
z
M 4.703125 44 
L 4.703125 39.328125 
C 10.59375 39.328125 11.296875 39.328125 11.296875 35.46875 
L 11.296875 4.0625 
L 4.40625 4.0625 
L 4.40625 -0.203125 
C 6.703125 0 13.59375 0 16.296875 0 
C 19.09375 0 25.5 0 27.90625 -0.203125 
L 27.90625 4.0625 
L 21.703125 4.0625 
L 21.703125 44 
z
" id="CMBX12-105"/>
      <path d="M 21.09375 40 
L 35.5 40 
L 35.5 44.265625 
L 21.09375 44.265625 
L 21.09375 63 
L 16.90625 63 
C 16.796875 53.203125 12 43.375 2.09375 43.375 
L 2.09375 40 
L 10.203125 40 
L 10.203125 12.328125 
C 10.203125 1.78125 18.40625 -0.5 25.59375 -0.5 
C 33 -0.5 37.40625 5.078125 37.40625 12.421875 
L 37.40625 17.703125 
L 33.203125 17.703125 
L 33.203125 12.53125 
C 33.203125 5.953125 30.203125 3.078125 27.09375 3.078125 
C 21.09375 3.078125 21.09375 9.75 21.09375 12.03125 
z
" id="CMBX12-116"/>
      <path d="M 49.5 37.828125 
C 50.09375 39.203125 50.5 40 56.90625 40 
L 56.90625 44.171875 
C 53.5 44.171875 53.09375 44.171875 49 44.171875 
C 46.296875 44.171875 46.09375 44.171875 40.40625 44.171875 
L 40.40625 40 
C 40.5 40 45.203125 40 45.203125 38.71875 
C 45.203125 38.421875 44.90625 37.828125 44.796875 37.53125 
L 33.09375 12.578125 
L 20.296875 40 
L 25.796875 40 
L 25.796875 44.265625 
C 23.40625 44.171875 16.59375 44.171875 13.796875 44.171875 
C 10.90625 44.171875 5 44.171875 2.40625 44.265625 
L 2.40625 40 
L 8.796875 40 
L 27.296875 0.3125 
C 26.796875 -0.875 25.40625 -3.75 24.90625 -4.9375 
C 22.796875 -9.390625 19.59375 -16.21875 12.59375 -16.21875 
C 12.203125 -16.21875 11 -16.21875 9.90625 -15.625 
C 10.09375 -15.515625 13.09375 -14.328125 13.09375 -10.5625 
C 13.09375 -7.3125 10.703125 -5.234375 7.703125 -5.234375 
C 4.59375 -5.234375 2.203125 -7.328125 2.203125 -10.6875 
C 2.203125 -15.34375 6.59375 -19.5 12.59375 -19.5 
C 20.796875 -19.5 26.203125 -12.171875 28.203125 -7.8125 
z
" id="CMBX12-121"/>
     </defs>
     <g style="fill:#262626;" transform="translate(91.57083 266.14562)rotate(-90)scale(0.22 -0.22)">
      <use transform="translate(0 -0.072648)scale(0.996264)" xlink:href="#CMBX12-80"/>
      <use transform="translate(76.564811 -0.072648)scale(0.996264)" xlink:href="#CMBX12-114"/>
      <use transform="translate(122.342318 -0.072648)scale(0.996264)" xlink:href="#CMBX12-111"/>
      <use transform="translate(178.382169 -0.072648)scale(0.996264)" xlink:href="#CMBX12-98"/>
      <use transform="translate(240.648669 -0.072648)scale(0.996264)" xlink:href="#CMBX12-97"/>
      <use transform="translate(295.131857 -0.072648)scale(0.996264)" xlink:href="#CMBX12-98"/>
      <use transform="translate(357.398358 -0.072648)scale(0.996264)" xlink:href="#CMBX12-105"/>
      <use transform="translate(388.531608 -0.072648)scale(0.996264)" xlink:href="#CMBX12-108"/>
      <use transform="translate(419.664858 -0.072648)scale(0.996264)" xlink:href="#CMBX12-105"/>
      <use transform="translate(450.798109 -0.072648)scale(0.996264)" xlink:href="#CMBX12-116"/>
      <use transform="translate(491.271334 -0.072648)scale(0.996264)" xlink:href="#CMBX12-121"/>
     </g>
    </g>
   </g>
   <g id="patch_3">
    <path clip-path="url(#pa96d07f36c)" d="M 150.218182 345.6 
L 158.252633 345.6 
L 158.252633 219.488614 
L 150.218182 219.488614 
z
" style="fill:#4c72b0;opacity:0.5;stroke:#ffffff;stroke-linejoin:miter;"/>
   </g>
   <g id="patch_4">
    <path clip-path="url(#pa96d07f36c)" d="M 158.252633 345.6 
L 166.287085 345.6 
L 166.287085 282.544307 
L 158.252633 282.544307 
z
" style="fill:#4c72b0;opacity:0.5;stroke:#ffffff;stroke-linejoin:miter;"/>
   </g>
   <g id="patch_5">
    <path clip-path="url(#pa96d07f36c)" d="M 166.287085 345.6 
L 174.321536 345.6 
L 174.321536 305.47365 
L 166.287085 305.47365 
z
" style="fill:#4c72b0;opacity:0.5;stroke:#ffffff;stroke-linejoin:miter;"/>
   </g>
   <g id="patch_6">
    <path clip-path="url(#pa96d07f36c)" d="M 174.321536 345.6 
L 182.355988 345.6 
L 182.355988 331.269161 
L 174.321536 331.269161 
z
" style="fill:#4c72b0;opacity:0.5;stroke:#ffffff;stroke-linejoin:miter;"/>
   </g>
   <g id="patch_7">
    <path clip-path="url(#pa96d07f36c)" d="M 182.355988 345.6 
L 190.390439 345.6 
L 190.390439 331.269161 
L 182.355988 331.269161 
z
" style="fill:#4c72b0;opacity:0.5;stroke:#ffffff;stroke-linejoin:miter;"/>
   </g>
   <g id="patch_8">
    <path clip-path="url(#pa96d07f36c)" d="M 190.390439 345.6 
L 198.424891 345.6 
L 198.424891 342.733832 
L 190.390439 342.733832 
z
" style="fill:#4c72b0;opacity:0.5;stroke:#ffffff;stroke-linejoin:miter;"/>
   </g>
   <g id="patch_9">
    <path clip-path="url(#pa96d07f36c)" d="M 198.424891 345.6 
L 206.459342 345.6 
L 206.459342 331.269161 
L 198.424891 331.269161 
z
" style="fill:#4c72b0;opacity:0.5;stroke:#ffffff;stroke-linejoin:miter;"/>
   </g>
   <g id="patch_10">
    <path clip-path="url(#pa96d07f36c)" d="M 206.459342 345.6 
L 214.493794 345.6 
L 214.493794 337.001496 
L 206.459342 337.001496 
z
" style="fill:#4c72b0;opacity:0.5;stroke:#ffffff;stroke-linejoin:miter;"/>
   </g>
   <g id="patch_11">
    <path clip-path="url(#pa96d07f36c)" d="M 214.493794 345.6 
L 222.528246 345.6 
L 222.528246 342.733832 
L 214.493794 342.733832 
z
" style="fill:#4c72b0;opacity:0.5;stroke:#ffffff;stroke-linejoin:miter;"/>
   </g>
   <g id="patch_12">
    <path clip-path="url(#pa96d07f36c)" d="M 222.528246 345.6 
L 230.562697 345.6 
L 230.562697 342.733832 
L 222.528246 342.733832 
z
" style="fill:#4c72b0;opacity:0.5;stroke:#ffffff;stroke-linejoin:miter;"/>
   </g>
   <g id="patch_13">
    <path clip-path="url(#pa96d07f36c)" d="M 230.562697 345.6 
L 238.597149 345.6 
L 238.597149 339.867664 
L 230.562697 339.867664 
z
" style="fill:#4c72b0;opacity:0.5;stroke:#ffffff;stroke-linejoin:miter;"/>
   </g>
   <g id="patch_14">
    <path clip-path="url(#pa96d07f36c)" d="M 238.597149 345.6 
L 246.6316 345.6 
L 246.6316 339.867664 
L 238.597149 339.867664 
z
" style="fill:#4c72b0;opacity:0.5;stroke:#ffffff;stroke-linejoin:miter;"/>
   </g>
   <g id="patch_15">
    <path clip-path="url(#pa96d07f36c)" d="M 246.6316 345.6 
L 254.666052 345.6 
L 254.666052 337.001496 
L 246.6316 337.001496 
z
" style="fill:#4c72b0;opacity:0.5;stroke:#ffffff;stroke-linejoin:miter;"/>
   </g>
   <g id="patch_16">
    <path clip-path="url(#pa96d07f36c)" d="M 254.666052 345.6 
L 262.700503 345.6 
L 262.700503 339.867664 
L 254.666052 339.867664 
z
" style="fill:#4c72b0;opacity:0.5;stroke:#ffffff;stroke-linejoin:miter;"/>
   </g>
   <g id="patch_17">
    <path clip-path="url(#pa96d07f36c)" d="M 262.700503 345.6 
L 270.734955 345.6 
L 270.734955 342.733832 
L 262.700503 342.733832 
z
" style="fill:#4c72b0;opacity:0.5;stroke:#ffffff;stroke-linejoin:miter;"/>
   </g>
   <g id="patch_18">
    <path clip-path="url(#pa96d07f36c)" d="M 270.734955 345.6 
L 278.769406 345.6 
L 278.769406 339.867664 
L 270.734955 339.867664 
z
" style="fill:#4c72b0;opacity:0.5;stroke:#ffffff;stroke-linejoin:miter;"/>
   </g>
   <g id="patch_19">
    <path clip-path="url(#pa96d07f36c)" d="M 278.769406 345.6 
L 286.803858 345.6 
L 286.803858 339.867664 
L 278.769406 339.867664 
z
" style="fill:#4c72b0;opacity:0.5;stroke:#ffffff;stroke-linejoin:miter;"/>
   </g>
   <g id="patch_20">
    <path clip-path="url(#pa96d07f36c)" d="M 286.803858 345.6 
L 294.838309 345.6 
L 294.838309 342.733832 
L 286.803858 342.733832 
z
" style="fill:#4c72b0;opacity:0.5;stroke:#ffffff;stroke-linejoin:miter;"/>
   </g>
   <g id="patch_21">
    <path clip-path="url(#pa96d07f36c)" d="M 294.838309 345.6 
L 302.872761 345.6 
L 302.872761 339.867664 
L 294.838309 339.867664 
z
" style="fill:#4c72b0;opacity:0.5;stroke:#ffffff;stroke-linejoin:miter;"/>
   </g>
   <g id="patch_22">
    <path clip-path="url(#pa96d07f36c)" d="M 302.872761 345.6 
L 310.907212 345.6 
L 310.907212 345.6 
L 302.872761 345.6 
z
" style="fill:#4c72b0;opacity:0.5;stroke:#ffffff;stroke-linejoin:miter;"/>
   </g>
   <g id="patch_23">
    <path clip-path="url(#pa96d07f36c)" d="M 310.907212 345.6 
L 318.941664 345.6 
L 318.941664 345.6 
L 310.907212 345.6 
z
" style="fill:#4c72b0;opacity:0.5;stroke:#ffffff;stroke-linejoin:miter;"/>
   </g>
   <g id="patch_24">
    <path clip-path="url(#pa96d07f36c)" d="M 318.941664 345.6 
L 326.976115 345.6 
L 326.976115 342.733832 
L 318.941664 342.733832 
z
" style="fill:#4c72b0;opacity:0.5;stroke:#ffffff;stroke-linejoin:miter;"/>
   </g>
   <g id="patch_25">
    <path clip-path="url(#pa96d07f36c)" d="M 326.976115 345.6 
L 335.010567 345.6 
L 335.010567 334.135329 
L 326.976115 334.135329 
z
" style="fill:#4c72b0;opacity:0.5;stroke:#ffffff;stroke-linejoin:miter;"/>
   </g>
   <g id="patch_26">
    <path clip-path="url(#pa96d07f36c)" d="M 335.010567 345.6 
L 343.045018 345.6 
L 343.045018 337.001496 
L 335.010567 337.001496 
z
" style="fill:#4c72b0;opacity:0.5;stroke:#ffffff;stroke-linejoin:miter;"/>
   </g>
   <g id="patch_27">
    <path clip-path="url(#pa96d07f36c)" d="M 343.045018 345.6 
L 351.07947 345.6 
L 351.07947 337.001496 
L 343.045018 337.001496 
z
" style="fill:#4c72b0;opacity:0.5;stroke:#ffffff;stroke-linejoin:miter;"/>
   </g>
   <g id="patch_28">
    <path clip-path="url(#pa96d07f36c)" d="M 351.07947 345.6 
L 359.113921 345.6 
L 359.113921 339.867664 
L 351.07947 339.867664 
z
" style="fill:#4c72b0;opacity:0.5;stroke:#ffffff;stroke-linejoin:miter;"/>
   </g>
   <g id="patch_29">
    <path clip-path="url(#pa96d07f36c)" d="M 359.113921 345.6 
L 367.148373 345.6 
L 367.148373 339.867664 
L 359.113921 339.867664 
z
" style="fill:#4c72b0;opacity:0.5;stroke:#ffffff;stroke-linejoin:miter;"/>
   </g>
   <g id="patch_30">
    <path clip-path="url(#pa96d07f36c)" d="M 367.148373 345.6 
L 375.182825 345.6 
L 375.182825 337.001496 
L 367.148373 337.001496 
z
" style="fill:#4c72b0;opacity:0.5;stroke:#ffffff;stroke-linejoin:miter;"/>
   </g>
   <g id="patch_31">
    <path clip-path="url(#pa96d07f36c)" d="M 375.182825 345.6 
L 383.217276 345.6 
L 383.217276 337.001496 
L 375.182825 337.001496 
z
" style="fill:#4c72b0;opacity:0.5;stroke:#ffffff;stroke-linejoin:miter;"/>
   </g>
   <g id="patch_32">
    <path clip-path="url(#pa96d07f36c)" d="M 383.217276 345.6 
L 391.251728 345.6 
L 391.251728 345.6 
L 383.217276 345.6 
z
" style="fill:#4c72b0;opacity:0.5;stroke:#ffffff;stroke-linejoin:miter;"/>
   </g>
   <g id="patch_33">
    <path clip-path="url(#pa96d07f36c)" d="M 391.251728 345.6 
L 399.286179 345.6 
L 399.286179 345.6 
L 391.251728 345.6 
z
" style="fill:#4c72b0;opacity:0.5;stroke:#ffffff;stroke-linejoin:miter;"/>
   </g>
   <g id="patch_34">
    <path clip-path="url(#pa96d07f36c)" d="M 399.286179 345.6 
L 407.320631 345.6 
L 407.320631 334.135329 
L 399.286179 334.135329 
z
" style="fill:#4c72b0;opacity:0.5;stroke:#ffffff;stroke-linejoin:miter;"/>
   </g>
   <g id="patch_35">
    <path clip-path="url(#pa96d07f36c)" d="M 407.320631 345.6 
L 415.355082 345.6 
L 415.355082 342.733832 
L 407.320631 342.733832 
z
" style="fill:#4c72b0;opacity:0.5;stroke:#ffffff;stroke-linejoin:miter;"/>
   </g>
   <g id="patch_36">
    <path clip-path="url(#pa96d07f36c)" d="M 415.355082 345.6 
L 423.389534 345.6 
L 423.389534 345.6 
L 415.355082 345.6 
z
" style="fill:#4c72b0;opacity:0.5;stroke:#ffffff;stroke-linejoin:miter;"/>
   </g>
   <g id="patch_37">
    <path clip-path="url(#pa96d07f36c)" d="M 423.389534 345.6 
L 431.423985 345.6 
L 431.423985 345.6 
L 423.389534 345.6 
z
" style="fill:#4c72b0;opacity:0.5;stroke:#ffffff;stroke-linejoin:miter;"/>
   </g>
   <g id="patch_38">
    <path clip-path="url(#pa96d07f36c)" d="M 431.423985 345.6 
L 439.458437 345.6 
L 439.458437 339.867664 
L 431.423985 339.867664 
z
" style="fill:#4c72b0;opacity:0.5;stroke:#ffffff;stroke-linejoin:miter;"/>
   </g>
   <g id="patch_39">
    <path clip-path="url(#pa96d07f36c)" d="M 439.458437 345.6 
L 447.492888 345.6 
L 447.492888 342.733832 
L 439.458437 342.733832 
z
" style="fill:#4c72b0;opacity:0.5;stroke:#ffffff;stroke-linejoin:miter;"/>
   </g>
   <g id="patch_40">
    <path clip-path="url(#pa96d07f36c)" d="M 447.492888 345.6 
L 455.52734 345.6 
L 455.52734 342.733832 
L 447.492888 342.733832 
z
" style="fill:#4c72b0;opacity:0.5;stroke:#ffffff;stroke-linejoin:miter;"/>
   </g>
   <g id="patch_41">
    <path clip-path="url(#pa96d07f36c)" d="M 455.52734 345.6 
L 463.561791 345.6 
L 463.561791 345.6 
L 455.52734 345.6 
z
" style="fill:#4c72b0;opacity:0.5;stroke:#ffffff;stroke-linejoin:miter;"/>
   </g>
   <g id="patch_42">
    <path clip-path="url(#pa96d07f36c)" d="M 463.561791 345.6 
L 471.596243 345.6 
L 471.596243 331.269161 
L 463.561791 331.269161 
z
" style="fill:#4c72b0;opacity:0.5;stroke:#ffffff;stroke-linejoin:miter;"/>
   </g>
   <g id="patch_43">
    <path clip-path="url(#pa96d07f36c)" d="M 471.596243 345.6 
L 479.630694 345.6 
L 479.630694 342.733832 
L 471.596243 342.733832 
z
" style="fill:#4c72b0;opacity:0.5;stroke:#ffffff;stroke-linejoin:miter;"/>
   </g>
   <g id="patch_44">
    <path clip-path="url(#pa96d07f36c)" d="M 479.630694 345.6 
L 487.665146 345.6 
L 487.665146 345.6 
L 479.630694 345.6 
z
" style="fill:#4c72b0;opacity:0.5;stroke:#ffffff;stroke-linejoin:miter;"/>
   </g>
   <g id="patch_45">
    <path clip-path="url(#pa96d07f36c)" d="M 487.665146 345.6 
L 495.699597 345.6 
L 495.699597 342.733832 
L 487.665146 342.733832 
z
" style="fill:#4c72b0;opacity:0.5;stroke:#ffffff;stroke-linejoin:miter;"/>
   </g>
   <g id="patch_46">
    <path clip-path="url(#pa96d07f36c)" d="M 495.699597 345.6 
L 503.734049 345.6 
L 503.734049 345.6 
L 495.699597 345.6 
z
" style="fill:#4c72b0;opacity:0.5;stroke:#ffffff;stroke-linejoin:miter;"/>
   </g>
   <g id="patch_47">
    <path clip-path="url(#pa96d07f36c)" d="M 503.734049 345.6 
L 511.7685 345.6 
L 511.7685 345.6 
L 503.734049 345.6 
z
" style="fill:#4c72b0;opacity:0.5;stroke:#ffffff;stroke-linejoin:miter;"/>
   </g>
   <g id="patch_48">
    <path clip-path="url(#pa96d07f36c)" d="M 511.7685 345.6 
L 519.802952 345.6 
L 519.802952 342.733832 
L 511.7685 342.733832 
z
" style="fill:#4c72b0;opacity:0.5;stroke:#ffffff;stroke-linejoin:miter;"/>
   </g>
   <g id="patch_49">
    <path clip-path="url(#pa96d07f36c)" d="M 519.802952 345.6 
L 527.837404 345.6 
L 527.837404 345.6 
L 519.802952 345.6 
z
" style="fill:#4c72b0;opacity:0.5;stroke:#ffffff;stroke-linejoin:miter;"/>
   </g>
   <g id="patch_50">
    <path clip-path="url(#pa96d07f36c)" d="M 527.837404 345.6 
L 535.871855 345.6 
L 535.871855 345.6 
L 527.837404 345.6 
z
" style="fill:#4c72b0;opacity:0.5;stroke:#ffffff;stroke-linejoin:miter;"/>
   </g>
   <g id="patch_51">
    <path clip-path="url(#pa96d07f36c)" d="M 535.871855 345.6 
L 543.906307 345.6 
L 543.906307 342.733832 
L 535.871855 342.733832 
z
" style="fill:#4c72b0;opacity:0.5;stroke:#ffffff;stroke-linejoin:miter;"/>
   </g>
   <g id="patch_52">
    <path clip-path="url(#pa96d07f36c)" d="M 543.906307 345.6 
L 551.940758 345.6 
L 551.940758 342.733832 
L 543.906307 342.733832 
z
" style="fill:#4c72b0;opacity:0.5;stroke:#ffffff;stroke-linejoin:miter;"/>
   </g>
   <g id="patch_53">
    <path clip-path="url(#pa96d07f36c)" d="M 211.617867 345.6 
L 218.637146 345.6 
L 218.637146 342.298413 
L 211.617867 342.298413 
z
" style="fill:#c44e52;opacity:0.5;stroke:#ffffff;stroke-linejoin:miter;"/>
   </g>
   <g id="patch_54">
    <path clip-path="url(#pa96d07f36c)" d="M 218.637146 345.6 
L 225.656425 345.6 
L 225.656425 345.6 
L 218.637146 345.6 
z
" style="fill:#c44e52;opacity:0.5;stroke:#ffffff;stroke-linejoin:miter;"/>
   </g>
   <g id="patch_55">
    <path clip-path="url(#pa96d07f36c)" d="M 225.656425 345.6 
L 232.675704 345.6 
L 232.675704 345.6 
L 225.656425 345.6 
z
" style="fill:#c44e52;opacity:0.5;stroke:#ffffff;stroke-linejoin:miter;"/>
   </g>
   <g id="patch_56">
    <path clip-path="url(#pa96d07f36c)" d="M 232.675704 345.6 
L 239.694983 345.6 
L 239.694983 345.6 
L 232.675704 345.6 
z
" style="fill:#c44e52;opacity:0.5;stroke:#ffffff;stroke-linejoin:miter;"/>
   </g>
   <g id="patch_57">
    <path clip-path="url(#pa96d07f36c)" d="M 239.694983 345.6 
L 246.714262 345.6 
L 246.714262 342.298413 
L 239.694983 342.298413 
z
" style="fill:#c44e52;opacity:0.5;stroke:#ffffff;stroke-linejoin:miter;"/>
   </g>
   <g id="patch_58">
    <path clip-path="url(#pa96d07f36c)" d="M 246.714262 345.6 
L 253.733541 345.6 
L 253.733541 345.6 
L 246.714262 345.6 
z
" style="fill:#c44e52;opacity:0.5;stroke:#ffffff;stroke-linejoin:miter;"/>
   </g>
   <g id="patch_59">
    <path clip-path="url(#pa96d07f36c)" d="M 253.733541 345.6 
L 260.75282 345.6 
L 260.75282 342.298413 
L 253.733541 342.298413 
z
" style="fill:#c44e52;opacity:0.5;stroke:#ffffff;stroke-linejoin:miter;"/>
   </g>
   <g id="patch_60">
    <path clip-path="url(#pa96d07f36c)" d="M 260.75282 345.6 
L 267.772099 345.6 
L 267.772099 338.996825 
L 260.75282 338.996825 
z
" style="fill:#c44e52;opacity:0.5;stroke:#ffffff;stroke-linejoin:miter;"/>
   </g>
   <g id="patch_61">
    <path clip-path="url(#pa96d07f36c)" d="M 267.772099 345.6 
L 274.791378 345.6 
L 274.791378 345.6 
L 267.772099 345.6 
z
" style="fill:#c44e52;opacity:0.5;stroke:#ffffff;stroke-linejoin:miter;"/>
   </g>
   <g id="patch_62">
    <path clip-path="url(#pa96d07f36c)" d="M 274.791378 345.6 
L 281.810657 345.6 
L 281.810657 338.996825 
L 274.791378 338.996825 
z
" style="fill:#c44e52;opacity:0.5;stroke:#ffffff;stroke-linejoin:miter;"/>
   </g>
   <g id="patch_63">
    <path clip-path="url(#pa96d07f36c)" d="M 281.810657 345.6 
L 288.829936 345.6 
L 288.829936 345.6 
L 281.810657 345.6 
z
" style="fill:#c44e52;opacity:0.5;stroke:#ffffff;stroke-linejoin:miter;"/>
   </g>
   <g id="patch_64">
    <path clip-path="url(#pa96d07f36c)" d="M 288.829936 345.6 
L 295.849216 345.6 
L 295.849216 345.6 
L 288.829936 345.6 
z
" style="fill:#c44e52;opacity:0.5;stroke:#ffffff;stroke-linejoin:miter;"/>
   </g>
   <g id="patch_65">
    <path clip-path="url(#pa96d07f36c)" d="M 295.849216 345.6 
L 302.868495 345.6 
L 302.868495 342.298413 
L 295.849216 342.298413 
z
" style="fill:#c44e52;opacity:0.5;stroke:#ffffff;stroke-linejoin:miter;"/>
   </g>
   <g id="patch_66">
    <path clip-path="url(#pa96d07f36c)" d="M 302.868495 345.6 
L 309.887774 345.6 
L 309.887774 345.6 
L 302.868495 345.6 
z
" style="fill:#c44e52;opacity:0.5;stroke:#ffffff;stroke-linejoin:miter;"/>
   </g>
   <g id="patch_67">
    <path clip-path="url(#pa96d07f36c)" d="M 309.887774 345.6 
L 316.907053 345.6 
L 316.907053 342.298413 
L 309.887774 342.298413 
z
" style="fill:#c44e52;opacity:0.5;stroke:#ffffff;stroke-linejoin:miter;"/>
   </g>
   <g id="patch_68">
    <path clip-path="url(#pa96d07f36c)" d="M 316.907053 345.6 
L 323.926332 345.6 
L 323.926332 345.6 
L 316.907053 345.6 
z
" style="fill:#c44e52;opacity:0.5;stroke:#ffffff;stroke-linejoin:miter;"/>
   </g>
   <g id="patch_69">
    <path clip-path="url(#pa96d07f36c)" d="M 323.926332 345.6 
L 330.945611 345.6 
L 330.945611 342.298413 
L 323.926332 342.298413 
z
" style="fill:#c44e52;opacity:0.5;stroke:#ffffff;stroke-linejoin:miter;"/>
   </g>
   <g id="patch_70">
    <path clip-path="url(#pa96d07f36c)" d="M 330.945611 345.6 
L 337.96489 345.6 
L 337.96489 342.298413 
L 330.945611 342.298413 
z
" style="fill:#c44e52;opacity:0.5;stroke:#ffffff;stroke-linejoin:miter;"/>
   </g>
   <g id="patch_71">
    <path clip-path="url(#pa96d07f36c)" d="M 337.96489 345.6 
L 344.984169 345.6 
L 344.984169 345.6 
L 337.96489 345.6 
z
" style="fill:#c44e52;opacity:0.5;stroke:#ffffff;stroke-linejoin:miter;"/>
   </g>
   <g id="patch_72">
    <path clip-path="url(#pa96d07f36c)" d="M 344.984169 345.6 
L 352.003448 345.6 
L 352.003448 345.6 
L 344.984169 345.6 
z
" style="fill:#c44e52;opacity:0.5;stroke:#ffffff;stroke-linejoin:miter;"/>
   </g>
   <g id="patch_73">
    <path clip-path="url(#pa96d07f36c)" d="M 352.003448 345.6 
L 359.022727 345.6 
L 359.022727 342.298413 
L 352.003448 342.298413 
z
" style="fill:#c44e52;opacity:0.5;stroke:#ffffff;stroke-linejoin:miter;"/>
   </g>
   <g id="patch_74">
    <path clip-path="url(#pa96d07f36c)" d="M 359.022727 345.6 
L 366.042006 345.6 
L 366.042006 345.6 
L 359.022727 345.6 
z
" style="fill:#c44e52;opacity:0.5;stroke:#ffffff;stroke-linejoin:miter;"/>
   </g>
   <g id="patch_75">
    <path clip-path="url(#pa96d07f36c)" d="M 366.042006 345.6 
L 373.061285 345.6 
L 373.061285 345.6 
L 366.042006 345.6 
z
" style="fill:#c44e52;opacity:0.5;stroke:#ffffff;stroke-linejoin:miter;"/>
   </g>
   <g id="patch_76">
    <path clip-path="url(#pa96d07f36c)" d="M 373.061285 345.6 
L 380.080564 345.6 
L 380.080564 342.298413 
L 373.061285 342.298413 
z
" style="fill:#c44e52;opacity:0.5;stroke:#ffffff;stroke-linejoin:miter;"/>
   </g>
   <g id="patch_77">
    <path clip-path="url(#pa96d07f36c)" d="M 380.080564 345.6 
L 387.099843 345.6 
L 387.099843 345.6 
L 380.080564 345.6 
z
" style="fill:#c44e52;opacity:0.5;stroke:#ffffff;stroke-linejoin:miter;"/>
   </g>
   <g id="patch_78">
    <path clip-path="url(#pa96d07f36c)" d="M 387.099843 345.6 
L 394.119122 345.6 
L 394.119122 338.996825 
L 387.099843 338.996825 
z
" style="fill:#c44e52;opacity:0.5;stroke:#ffffff;stroke-linejoin:miter;"/>
   </g>
   <g id="patch_79">
    <path clip-path="url(#pa96d07f36c)" d="M 394.119122 345.6 
L 401.138401 345.6 
L 401.138401 332.393651 
L 394.119122 332.393651 
z
" style="fill:#c44e52;opacity:0.5;stroke:#ffffff;stroke-linejoin:miter;"/>
   </g>
   <g id="patch_80">
    <path clip-path="url(#pa96d07f36c)" d="M 401.138401 345.6 
L 408.15768 345.6 
L 408.15768 342.298413 
L 401.138401 342.298413 
z
" style="fill:#c44e52;opacity:0.5;stroke:#ffffff;stroke-linejoin:miter;"/>
   </g>
   <g id="patch_81">
    <path clip-path="url(#pa96d07f36c)" d="M 408.15768 345.6 
L 415.176959 345.6 
L 415.176959 342.298413 
L 408.15768 342.298413 
z
" style="fill:#c44e52;opacity:0.5;stroke:#ffffff;stroke-linejoin:miter;"/>
   </g>
   <g id="patch_82">
    <path clip-path="url(#pa96d07f36c)" d="M 415.176959 345.6 
L 422.196238 345.6 
L 422.196238 345.6 
L 415.176959 345.6 
z
" style="fill:#c44e52;opacity:0.5;stroke:#ffffff;stroke-linejoin:miter;"/>
   </g>
   <g id="patch_83">
    <path clip-path="url(#pa96d07f36c)" d="M 422.196238 345.6 
L 429.215517 345.6 
L 429.215517 345.6 
L 422.196238 345.6 
z
" style="fill:#c44e52;opacity:0.5;stroke:#ffffff;stroke-linejoin:miter;"/>
   </g>
   <g id="patch_84">
    <path clip-path="url(#pa96d07f36c)" d="M 429.215517 345.6 
L 436.234796 345.6 
L 436.234796 338.996825 
L 429.215517 338.996825 
z
" style="fill:#c44e52;opacity:0.5;stroke:#ffffff;stroke-linejoin:miter;"/>
   </g>
   <g id="patch_85">
    <path clip-path="url(#pa96d07f36c)" d="M 436.234796 345.6 
L 443.254075 345.6 
L 443.254075 342.298413 
L 436.234796 342.298413 
z
" style="fill:#c44e52;opacity:0.5;stroke:#ffffff;stroke-linejoin:miter;"/>
   </g>
   <g id="patch_86">
    <path clip-path="url(#pa96d07f36c)" d="M 443.254075 345.6 
L 450.273354 345.6 
L 450.273354 345.6 
L 443.254075 345.6 
z
" style="fill:#c44e52;opacity:0.5;stroke:#ffffff;stroke-linejoin:miter;"/>
   </g>
   <g id="patch_87">
    <path clip-path="url(#pa96d07f36c)" d="M 450.273354 345.6 
L 457.292633 345.6 
L 457.292633 342.298413 
L 450.273354 342.298413 
z
" style="fill:#c44e52;opacity:0.5;stroke:#ffffff;stroke-linejoin:miter;"/>
   </g>
   <g id="patch_88">
    <path clip-path="url(#pa96d07f36c)" d="M 457.292633 345.6 
L 464.311912 345.6 
L 464.311912 338.996825 
L 457.292633 338.996825 
z
" style="fill:#c44e52;opacity:0.5;stroke:#ffffff;stroke-linejoin:miter;"/>
   </g>
   <g id="patch_89">
    <path clip-path="url(#pa96d07f36c)" d="M 464.311912 345.6 
L 471.331191 345.6 
L 471.331191 338.996825 
L 464.311912 338.996825 
z
" style="fill:#c44e52;opacity:0.5;stroke:#ffffff;stroke-linejoin:miter;"/>
   </g>
   <g id="patch_90">
    <path clip-path="url(#pa96d07f36c)" d="M 471.331191 345.6 
L 478.35047 345.6 
L 478.35047 342.298413 
L 471.331191 342.298413 
z
" style="fill:#c44e52;opacity:0.5;stroke:#ffffff;stroke-linejoin:miter;"/>
   </g>
   <g id="patch_91">
    <path clip-path="url(#pa96d07f36c)" d="M 478.35047 345.6 
L 485.369749 345.6 
L 485.369749 345.6 
L 478.35047 345.6 
z
" style="fill:#c44e52;opacity:0.5;stroke:#ffffff;stroke-linejoin:miter;"/>
   </g>
   <g id="patch_92">
    <path clip-path="url(#pa96d07f36c)" d="M 485.369749 345.6 
L 492.389028 345.6 
L 492.389028 342.298413 
L 485.369749 342.298413 
z
" style="fill:#c44e52;opacity:0.5;stroke:#ffffff;stroke-linejoin:miter;"/>
   </g>
   <g id="patch_93">
    <path clip-path="url(#pa96d07f36c)" d="M 492.389028 345.6 
L 499.408307 345.6 
L 499.408307 345.6 
L 492.389028 345.6 
z
" style="fill:#c44e52;opacity:0.5;stroke:#ffffff;stroke-linejoin:miter;"/>
   </g>
   <g id="patch_94">
    <path clip-path="url(#pa96d07f36c)" d="M 499.408307 345.6 
L 506.427586 345.6 
L 506.427586 345.6 
L 499.408307 345.6 
z
" style="fill:#c44e52;opacity:0.5;stroke:#ffffff;stroke-linejoin:miter;"/>
   </g>
   <g id="patch_95">
    <path clip-path="url(#pa96d07f36c)" d="M 506.427586 345.6 
L 513.446865 345.6 
L 513.446865 338.996825 
L 506.427586 338.996825 
z
" style="fill:#c44e52;opacity:0.5;stroke:#ffffff;stroke-linejoin:miter;"/>
   </g>
   <g id="patch_96">
    <path clip-path="url(#pa96d07f36c)" d="M 513.446865 345.6 
L 520.466144 345.6 
L 520.466144 335.695238 
L 513.446865 335.695238 
z
" style="fill:#c44e52;opacity:0.5;stroke:#ffffff;stroke-linejoin:miter;"/>
   </g>
   <g id="patch_97">
    <path clip-path="url(#pa96d07f36c)" d="M 520.466144 345.6 
L 527.485423 345.6 
L 527.485423 332.393651 
L 520.466144 332.393651 
z
" style="fill:#c44e52;opacity:0.5;stroke:#ffffff;stroke-linejoin:miter;"/>
   </g>
   <g id="patch_98">
    <path clip-path="url(#pa96d07f36c)" d="M 527.485423 345.6 
L 534.504702 345.6 
L 534.504702 325.790476 
L 527.485423 325.790476 
z
" style="fill:#c44e52;opacity:0.5;stroke:#ffffff;stroke-linejoin:miter;"/>
   </g>
   <g id="patch_99">
    <path clip-path="url(#pa96d07f36c)" d="M 534.504702 345.6 
L 541.523981 345.6 
L 541.523981 325.790476 
L 534.504702 325.790476 
z
" style="fill:#c44e52;opacity:0.5;stroke:#ffffff;stroke-linejoin:miter;"/>
   </g>
   <g id="patch_100">
    <path clip-path="url(#pa96d07f36c)" d="M 541.523981 345.6 
L 548.54326 345.6 
L 548.54326 315.885714 
L 541.523981 315.885714 
z
" style="fill:#c44e52;opacity:0.5;stroke:#ffffff;stroke-linejoin:miter;"/>
   </g>
   <g id="patch_101">
    <path clip-path="url(#pa96d07f36c)" d="M 548.54326 345.6 
L 555.562539 345.6 
L 555.562539 296.07619 
L 548.54326 296.07619 
z
" style="fill:#c44e52;opacity:0.5;stroke:#ffffff;stroke-linejoin:miter;"/>
   </g>
   <g id="patch_102">
    <path clip-path="url(#pa96d07f36c)" d="M 555.562539 345.6 
L 562.581818 345.6 
L 562.581818 78.171429 
L 555.562539 78.171429 
z
" style="fill:#c44e52;opacity:0.5;stroke:#ffffff;stroke-linejoin:miter;"/>
   </g>
   <g id="patch_103">
    <path d="M 129.6 345.6 
L 129.6 64.8 
" style="fill:none;stroke:#262626;stroke-linecap:square;stroke-linejoin:miter;stroke-width:1.25;"/>
   </g>
   <g id="patch_104">
    <path d="M 583.2 345.6 
L 583.2 64.8 
" style="fill:none;"/>
   </g>
   <g id="patch_105">
    <path d="M 129.6 345.6 
L 583.2 345.6 
" style="fill:none;stroke:#262626;stroke-linecap:square;stroke-linejoin:miter;stroke-width:1.25;"/>
   </g>
   <g id="patch_106">
    <path d="M 129.6 64.8 
L 583.2 64.8 
" style="fill:none;"/>
   </g>
   <g id="legend_1">
    <g id="patch_107">
     <path d="M 134.4 115.8222 
L 269.26666 115.8222 
Q 272.46666 115.8222 272.46666 112.6222 
L 272.46666 69.6 
Q 272.46666 66.4 269.26666 66.4 
L 134.4 66.4 
Q 131.2 66.4 131.2 69.6 
L 131.2 112.6222 
Q 131.2 115.8222 134.4 115.8222 
z
" style="fill:none;opacity:0;"/>
    </g>
    <g id="patch_108">
     <path d="M 137.6 84 
L 169.6 84 
L 169.6 72.8 
L 137.6 72.8 
z
" style="fill:#4c72b0;opacity:0.5;stroke:#ffffff;stroke-linejoin:miter;"/>
    </g>
    <g id="text_16">
     <!-- \textbf{Good Tool} -->
     <defs>
      <path d="M 74.90625 22.828125 
L 82.703125 22.828125 
L 82.703125 27.09375 
C 80.296875 27 69.59375 27 66.40625 27 
C 60.296875 27 53.703125 27 47.59375 27 
L 47.59375 22.828125 
L 61.703125 22.828125 
L 61.703125 12.671875 
C 61.703125 10.578125 61.703125 7.78125 57.703125 5.28125 
C 55.703125 4 52.59375 3 48.40625 3 
C 42.703125 3 32.796875 4.390625 26.59375 11.609375 
C 22.703125 16.046875 20.296875 22.09375 20.296875 33.953125 
C 20.296875 44.15625 22 51.078125 26.5 56.3125 
C 32.90625 63.734375 42.90625 64.734375 47.703125 64.734375 
C 55.203125 64.734375 67.296875 60.578125 70.296875 43.25 
C 70.5 42.359375 71.40625 42.359375 72.59375 42.359375 
C 74.90625 42.359375 74.90625 42.5625 74.90625 44.9375 
L 74.90625 66.453125 
C 74.90625 68.734375 74.90625 69.03125 72.703125 69.03125 
L 65.203125 61.875 
C 59.59375 66.625 52.90625 69 45.5 69 
C 21.59375 69 6.203125 54.640625 6.203125 33.859375 
C 6.203125 13.46875 21.09375 -1.265625 45.59375 -1.265625 
C 52.296875 -1.265625 60.203125 0.21875 64.296875 5.484375 
C 67.703125 2.359375 73.40625 0 73.703125 0 
C 74.90625 0 74.90625 1 74.90625 2.578125 
z
" id="CMBX12-71"/>
     </defs>
     <g style="fill:#262626;" transform="translate(182.4 84)scale(0.16 -0.16)">
      <use transform="scale(0.996264)" xlink:href="#CMBX12-71"/>
      <use transform="translate(88.09556 0)scale(0.996264)" xlink:href="#CMBX12-111"/>
      <use transform="translate(147.248736 0)scale(0.996264)" xlink:href="#CMBX12-111"/>
      <use transform="translate(206.401911 0)scale(0.996264)" xlink:href="#CMBX12-100"/>
      <use transform="translate(306.028312 0)scale(0.996264)" xlink:href="#CMBX12-84"/>
      <use transform="translate(374.636708 0)scale(0.996264)" xlink:href="#CMBX12-111"/>
      <use transform="translate(433.789883 0)scale(0.996264)" xlink:href="#CMBX12-111"/>
      <use transform="translate(489.829734 0)scale(0.996264)" xlink:href="#CMBX12-108"/>
     </g>
    </g>
    <g id="patch_109">
     <path d="M 137.6 106.3111 
L 169.6 106.3111 
L 169.6 95.1111 
L 137.6 95.1111 
z
" style="fill:#c44e52;opacity:0.5;stroke:#ffffff;stroke-linejoin:miter;"/>
    </g>
    <g id="text_17">
     <!-- \textbf{Bad Tool} -->
     <g style="fill:#262626;" transform="translate(182.4 106.3111)scale(0.16 -0.16)">
      <use transform="scale(0.996264)" xlink:href="#CMBX12-66"/>
      <use transform="translate(79.678136 0)scale(0.996264)" xlink:href="#CMBX12-97"/>
      <use transform="translate(134.161324 0)scale(0.996264)" xlink:href="#CMBX12-100"/>
      <use transform="translate(233.787725 0)scale(0.996264)" xlink:href="#CMBX12-84"/>
      <use transform="translate(302.39612 0)scale(0.996264)" xlink:href="#CMBX12-111"/>
      <use transform="translate(361.549296 0)scale(0.996264)" xlink:href="#CMBX12-111"/>
      <use transform="translate(417.589146 0)scale(0.996264)" xlink:href="#CMBX12-108"/>
     </g>
    </g>
   </g>
  </g>
 </g>
 <defs>
  <clipPath id="pa96d07f36c">
   <rect height="280.8" width="453.6" x="129.6" y="64.8"/>
  </clipPath>
 </defs>
</svg>
