<?xml version="1.0" encoding="utf-8" standalone="no"?>
<!DOCTYPE svg PUBLIC "-//W3C//DTD SVG 1.1//EN"
  "http://www.w3.org/Graphics/SVG/1.1/DTD/svg11.dtd">
<!-- Created with matplotlib (https://matplotlib.org/) -->
<svg height="288pt" version="1.1" viewBox="0 0 864 288" width="864pt" xmlns="http://www.w3.org/2000/svg" xmlns:xlink="http://www.w3.org/1999/xlink">
 <defs>
  <style type="text/css">
*{stroke-linecap:butt;stroke-linejoin:round;}
  </style>
 </defs>
 <g id="figure_1">
  <g id="patch_1">
   <path d="M 0 288 
L 864 288 
L 864 0 
L 0 0 
z
" style="fill:none;"/>
  </g>
  <g id="axes_1">
   <g id="patch_2">
    <path d="M 172.8 230.4 
L 777.6 230.4 
L 777.6 43.2 
L 172.8 43.2 
z
" style="fill:none;"/>
   </g>
   <g id="matplotlib.axis_1">
    <g id="xtick_1">
     <g id="line2d_1">
      <defs>
       <path d="M 0 0 
L 0 6 
" id="mb0e0bc8e43" style="stroke:#262626;stroke-width:1.25;"/>
      </defs>
      <g>
       <use style="fill:#262626;stroke:#262626;stroke-width:1.25;" x="196.351471" xlink:href="#mb0e0bc8e43" y="230.4"/>
      </g>
     </g>
     <g id="text_1">
      <!-- $0.0$ -->
      <defs>
       <path d="M 51.703125 31.84375 
C 51.703125 41.375 51.703125 65.28125 28.09375 65.28125 
C 4.40625 65.28125 4.40625 41.46875 4.40625 31.84375 
C 4.40625 22.3125 4.40625 -1 28 -1 
C 51.59375 -1 51.703125 22.015625 51.703125 31.84375 
z
M 28.09375 2.28125 
C 24.90625 2.28125 22.5 3.5625 20.5 5.65625 
C 18 8.140625 16.40625 9.703125 16.40625 33.03125 
C 16.40625 39.984375 16.40625 46.3125 17.203125 51.484375 
C 18.59375 61.3125 25.796875 62 28 62 
C 31.203125 62 37.40625 60.515625 38.796875 52.1875 
C 39.703125 47.109375 39.703125 39.078125 39.703125 33.03125 
C 39.703125 9.609375 38.203125 8.234375 35.203125 5.25 
C 33.203125 3.265625 30.5 2.28125 28.09375 2.28125 
z
" id="CMBX12-48"/>
       <path d="M 23.703125 7.765625 
C 23.703125 12.046875 20.203125 15.53125 15.90625 15.53125 
C 11.59375 15.53125 8.09375 12.046875 8.09375 7.765625 
C 8.09375 3.484375 11.59375 0 15.90625 0 
C 20.203125 0 23.703125 3.484375 23.703125 7.765625 
z
" id="CMMIB10-58"/>
      </defs>
      <g style="fill:#262626;" transform="translate(183.351486 252.4)scale(0.18 -0.18)">
       <use transform="scale(0.996264)" xlink:href="#CMBX12-48"/>
       <use transform="translate(56.039851 0)scale(0.996264)" xlink:href="#CMMIB10-58"/>
       <use transform="translate(87.864782 0)scale(0.996264)" xlink:href="#CMBX12-48"/>
      </g>
     </g>
    </g>
    <g id="xtick_2">
     <g id="line2d_2">
      <g>
       <use style="fill:#262626;stroke:#262626;stroke-width:1.25;" x="307.209651" xlink:href="#mb0e0bc8e43" y="230.4"/>
      </g>
     </g>
     <g id="text_2">
      <!-- $0.2$ -->
      <defs>
       <path d="M 50.5 21.375 
L 46.296875 21.375 
C 46 19.28125 45.296875 13.40625 43.796875 12.421875 
C 43 11.71875 35.203125 11.71875 33.703125 11.71875 
L 18.203125 11.71875 
C 22 14.90625 31.09375 22.46875 32.59375 23.578125 
C 43.703125 31.84375 50.5 36.90625 50.5 46.46875 
C 50.5 58.203125 39.796875 65.28125 26.59375 65.28125 
C 15.296875 65.28125 5.59375 58.90625 5.59375 49.453125 
C 5.59375 44.171875 9.90625 42.6875 12.203125 42.6875 
C 15.296875 42.6875 18.90625 44.765625 18.90625 49.359375 
C 18.90625 53.546875 15.796875 55.625 12.703125 56.03125 
C 16.703125 60.609375 22 61 24.09375 61 
C 33.296875 61 37.703125 53.546875 37.703125 46.375 
C 37.703125 38.609375 32.40625 31.453125 28.296875 27.171875 
L 6.59375 4.578125 
C 5.59375 3.671875 5.59375 3.484375 5.59375 1.6875 
L 5.59375 0 
L 47.59375 0 
z
" id="CMBX12-50"/>
      </defs>
      <g style="fill:#262626;" transform="translate(294.209666 252.4)scale(0.18 -0.18)">
       <use transform="scale(0.996264)" xlink:href="#CMBX12-48"/>
       <use transform="translate(56.039851 0)scale(0.996264)" xlink:href="#CMMIB10-58"/>
       <use transform="translate(87.864782 0)scale(0.996264)" xlink:href="#CMBX12-50"/>
      </g>
     </g>
    </g>
    <g id="xtick_3">
     <g id="line2d_3">
      <g>
       <use style="fill:#262626;stroke:#262626;stroke-width:1.25;" x="418.067831" xlink:href="#mb0e0bc8e43" y="230.4"/>
      </g>
     </g>
     <g id="text_3">
      <!-- $0.4$ -->
      <defs>
       <path d="M 43.296875 15.71875 
L 53 15.71875 
L 53 20 
L 43.296875 20 
L 43.296875 62.609375 
C 43.296875 65.09375 43.203125 65.5 40.703125 65.5 
C 38.90625 65.5 38.703125 65.5 37.5 64 
L 3.09375 20 
L 3.09375 15.71875 
L 31.5 15.71875 
L 31.5 4.171875 
L 20.59375 4.171875 
L 20.59375 0 
C 23.5 0 33.40625 0 37 0 
C 40.40625 0 50.296875 0 53 -0.09375 
L 53 4.171875 
L 43.296875 4.171875 
z
M 32.40625 51.59375 
L 32.40625 20 
L 7.703125 20 
z
" id="CMBX12-52"/>
      </defs>
      <g style="fill:#262626;" transform="translate(405.067846 252.4)scale(0.18 -0.18)">
       <use transform="scale(0.996264)" xlink:href="#CMBX12-48"/>
       <use transform="translate(56.039851 0)scale(0.996264)" xlink:href="#CMMIB10-58"/>
       <use transform="translate(87.864782 0)scale(0.996264)" xlink:href="#CMBX12-52"/>
      </g>
     </g>
    </g>
    <g id="xtick_4">
     <g id="line2d_4">
      <g>
       <use style="fill:#262626;stroke:#262626;stroke-width:1.25;" x="528.926011" xlink:href="#mb0e0bc8e43" y="230.4"/>
      </g>
     </g>
     <g id="text_4">
      <!-- $0.6$ -->
      <defs>
       <path d="M 17.40625 36.25 
C 17.40625 42.328125 17.703125 48.53125 20.5 53.90625 
C 22.703125 58.109375 27.796875 62 34.296875 62 
C 36.203125 62 39.796875 61.703125 42.203125 59.203125 
C 38.40625 58.8125 36.796875 56.015625 36.796875 53.3125 
C 36.796875 49.703125 39.5 47.40625 42.703125 47.40625 
C 45.296875 47.40625 48.59375 49.109375 48.59375 53.5 
C 48.59375 59.484375 44.59375 65.578125 34.09375 65.578125 
C 21.59375 65.578125 4.703125 57.796875 4.703125 31.796875 
C 4.703125 25.109375 4.703125 -1 28.40625 -1 
C 41.59375 -1 51.40625 6.765625 51.40625 20.703125 
C 51.40625 34.640625 41.703125 42 29.796875 42 
C 27.796875 42 21.40625 42 17.40625 33.546875 
z
M 28.296875 2.96875 
C 21.90625 2.96875 19.40625 8.34375 19 9.140625 
C 17.59375 12.4375 17.59375 20.40625 17.59375 21.296875 
C 17.59375 33.546875 22.90625 38.734375 28.796875 38.734375 
C 38.703125 38.734375 38.703125 30.765625 38.703125 20.796875 
C 38.703125 10.9375 38.703125 2.96875 28.296875 2.96875 
z
" id="CMBX12-54"/>
      </defs>
      <g style="fill:#262626;" transform="translate(515.926026 252.4)scale(0.18 -0.18)">
       <use transform="scale(0.996264)" xlink:href="#CMBX12-48"/>
       <use transform="translate(56.039851 0)scale(0.996264)" xlink:href="#CMMIB10-58"/>
       <use transform="translate(87.864782 0)scale(0.996264)" xlink:href="#CMBX12-54"/>
      </g>
     </g>
    </g>
    <g id="xtick_5">
     <g id="line2d_5">
      <g>
       <use style="fill:#262626;stroke:#262626;stroke-width:1.25;" x="639.784191" xlink:href="#mb0e0bc8e43" y="230.4"/>
      </g>
     </g>
     <g id="text_5">
      <!-- $0.8$ -->
      <defs>
       <path d="M 37.703125 36.921875 
C 42.703125 39.515625 48.296875 43.203125 48.296875 51 
C 48.296875 61.28125 39.09375 65.671875 28.203125 65.671875 
C 14.90625 65.671875 7.796875 58.09375 7.796875 48.40625 
C 7.796875 43.03125 10.5 37.03125 17.90625 33.140625 
C 6.59375 28.140625 4.703125 21.265625 4.703125 16.078125 
C 4.703125 4.59375 14.703125 -1 27.90625 -1 
C 42.703125 -1 51.40625 6.96875 51.40625 18.5625 
C 51.40625 29.4375 42.796875 34.140625 37.703125 36.921875 
z
M 19.703125 47.265625 
C 17.703125 48.375 14.90625 50.671875 14.90625 53.984375 
C 14.90625 62 25.59375 62 27.90625 62 
C 36.40625 62 41.203125 57.53125 41.203125 50.96875 
C 41.203125 46.890625 39.40625 42.609375 33.703125 39.328125 
z
M 22 30.59375 
L 35.796875 22.734375 
C 39.09375 20.84375 43.40625 18.46875 43.40625 13.40625 
C 43.40625 5.453125 35.40625 2.96875 28.203125 2.96875 
C 18.296875 2.96875 12.703125 8.234375 12.703125 16.078125 
C 12.703125 23.328125 17.203125 27.90625 22 30.59375 
z
" id="CMBX12-56"/>
      </defs>
      <g style="fill:#262626;" transform="translate(626.784206 252.4)scale(0.18 -0.18)">
       <use transform="scale(0.996264)" xlink:href="#CMBX12-48"/>
       <use transform="translate(56.039851 0)scale(0.996264)" xlink:href="#CMMIB10-58"/>
       <use transform="translate(87.864782 0)scale(0.996264)" xlink:href="#CMBX12-56"/>
      </g>
     </g>
    </g>
    <g id="xtick_6">
     <g id="line2d_6">
      <g>
       <use style="fill:#262626;stroke:#262626;stroke-width:1.25;" x="750.642371" xlink:href="#mb0e0bc8e43" y="230.4"/>
      </g>
     </g>
     <g id="text_6">
      <!-- $1.0$ -->
      <defs>
       <path d="M 34.59375 62.109375 
C 34.59375 65 34.40625 65 31.203125 65 
C 23.796875 59 12.703125 59 10.5 59 
L 8.59375 59 
L 8.59375 54.734375 
L 10.5 54.734375 
C 14 54.734375 19.296875 55.328125 23.296875 56.625 
L 23.296875 4.171875 
L 9.40625 4.171875 
L 9.40625 0 
C 13.59375 0 24.09375 0 28.796875 0 
C 33.5 0 44.09375 0 48.296875 0 
L 48.296875 4.171875 
L 34.59375 4.171875 
z
" id="CMBX12-49"/>
      </defs>
      <g style="fill:#262626;" transform="translate(737.642386 252.4)scale(0.18 -0.18)">
       <use transform="scale(0.996264)" xlink:href="#CMBX12-49"/>
       <use transform="translate(56.039851 0)scale(0.996264)" xlink:href="#CMMIB10-58"/>
       <use transform="translate(87.864782 0)scale(0.996264)" xlink:href="#CMBX12-48"/>
      </g>
     </g>
    </g>
    <g id="text_7">
     <!-- \textbf{``Bad Tool" Score} -->
     <defs>
      <path d="M 17.703125 47.71875 
C 17.90625 55.375 21.203125 61.453125 26.796875 65.875 
C 27.703125 66.65625 27.796875 66.75 27.796875 67.140625 
C 27.796875 68.03125 26.59375 69 26 69 
C 24.59375 69 14.40625 60.71875 14.40625 47.625 
C 14.40625 41.109375 17.703125 35.6875 23.296875 35.6875 
C 27.703125 35.6875 30.40625 38.96875 30.40625 42.84375 
C 30.40625 46.421875 27.90625 50 23.203125 50 
C 20.296875 50 18.5 48.515625 17.703125 47.71875 
z
M 41.5 47.71875 
C 41.703125 55.375 45 61.453125 50.59375 65.875 
C 51.5 66.65625 51.59375 66.75 51.59375 67.140625 
C 51.59375 68.03125 50.40625 69 49.796875 69 
C 48.40625 69 38.203125 60.71875 38.203125 47.625 
C 38.203125 41.109375 41.5 35.6875 47.09375 35.6875 
C 51.5 35.6875 54.203125 38.96875 54.203125 42.84375 
C 54.203125 46.421875 51.703125 50 47 50 
C 44.09375 50 42.296875 48.515625 41.5 47.71875 
z
" id="CMBX12-92"/>
      <path d="M 3.90625 68.28125 
L 3.90625 64 
L 14.5 64 
L 14.5 4.265625 
L 3.90625 4.265625 
L 3.90625 0 
L 49.09375 0 
C 65.59375 0 73.703125 8.828125 73.703125 18.34375 
C 73.703125 27.78125 65.40625 34.625 53.296875 35.515625 
C 67.703125 38.21875 70.5 46.40625 70.5 51.09375 
C 70.5 60.28125 62.09375 68.28125 46.09375 68.28125 
z
M 26.796875 37 
L 26.796875 64 
L 44.90625 64 
C 55.203125 64 57.296875 56.203125 57.296875 51.1875 
C 57.296875 44.1875 53.40625 37 41.703125 37 
z
M 26.796875 4.265625 
L 26.796875 33.71875 
L 46.703125 33.71875 
C 58.40625 33.71875 60.09375 23 60.09375 18.546875 
C 60.09375 12.296875 56.703125 4.265625 45.203125 4.265625 
z
" id="CMBX12-66"/>
      <path d="M 46 29.65625 
C 46 38.8125 38.703125 44.984375 24.59375 44.984375 
C 19 44.984375 7.203125 44.984375 7.203125 36.46875 
C 7.203125 32.203125 10.40625 30.390625 13.09375 30.390625 
C 16.09375 30.390625 19 32.484375 19 36.296875 
C 19 38.203125 18.296875 39.984375 16.59375 41.09375 
C 19.90625 42 22.296875 42 24.203125 42 
C 31 42 35.09375 38.203125 35.09375 29.984375 
L 35.09375 25.984375 
C 19.296875 25.984375 3.40625 21.59375 3.40625 10.5625 
C 3.40625 1.484375 15 -0.5 21.90625 -0.5 
C 29.59375 -0.5 34.5 3.640625 36.5 7.96875 
C 36.5 4.28125 36.5 0 46.59375 0 
L 51.703125 0 
C 53.796875 0 54.59375 0 54.59375 2.265625 
C 54.59375 4.265625 53.703125 4.265625 52.296875 4.265625 
C 46 4.265625 46 5.84375 46 8.15625 
z
M 35.09375 13.78125 
C 35.09375 4.546875 26.703125 2.78125 23.5 2.78125 
C 18.59375 2.78125 14.5 6.09375 14.5 10.71875 
C 14.5 19.890625 25.296875 23 35.09375 23 
z
" id="CMBX12-97"/>
      <path d="M 34.703125 69 
L 34.703125 64.328125 
C 40.90625 64.328125 41.59375 64.328125 41.59375 60.421875 
L 41.59375 40.234375 
C 39.40625 42.125 35 45 28.09375 45 
C 13.90625 45 3.796875 36.21875 3.796875 22.25 
C 3.796875 7.96875 13.703125 -0.5 27 -0.5 
C 32.5 -0.5 37.203125 1.46875 41.09375 4.859375 
L 41.09375 0 
L 58.90625 0 
L 58.90625 4.5625 
C 52.703125 4.5625 52 4.5625 52 8.4375 
L 52 69 
z
M 41.09375 10.328125 
C 36.90625 4.09375 31.796875 2.78125 28.203125 2.78125 
C 15.796875 2.78125 15.796875 15.453125 15.796875 22.046875 
C 15.796875 26.75 15.796875 31.75 18 35.53125 
C 21.09375 41.125 27 41.71875 29.296875 41.71875 
C 33.40625 41.71875 37.796875 39.9375 41.09375 35.5625 
z
" id="CMBX12-100"/>
      <path d="M 72 67.265625 
L 6.09375 67.265625 
L 4.09375 43.703125 
L 8.296875 43.703125 
C 9.203125 54.546875 10 63 24.40625 63 
L 32.5 63 
L 32.5 4.171875 
L 17.40625 4.171875 
L 17.40625 0 
C 25.40625 0 35.703125 0 39.09375 0 
C 45.203125 0 52.796875 0 60.796875 0 
L 60.796875 4.171875 
L 45.703125 4.171875 
L 45.703125 63 
L 53.703125 63 
C 68.09375 63 68.90625 54.640625 69.796875 43.703125 
L 74 43.703125 
z
" id="CMBX12-84"/>
      <path d="M 53 21.796875 
C 53 35.1875 43.796875 45 28.09375 45 
C 11.796875 45 3.09375 34.6875 3.09375 21.796875 
C 3.09375 8.828125 12.296875 -0.5 28 -0.5 
C 44.296875 -0.5 53 9.3125 53 21.796875 
z
M 28.09375 3.078125 
C 15.09375 3.078125 15.09375 14.671875 15.09375 22.796875 
C 15.09375 27.453125 15.09375 32.40625 17 35.984375 
C 19.203125 39.9375 23.703125 41.71875 28 41.71875 
C 33.703125 41.71875 37.296875 39.046875 39 36.28125 
C 41 32.703125 41 27.546875 41 22.796875 
C 41 14.5625 41 3.078125 28.09375 3.078125 
z
" id="CMBX12-111"/>
      <path d="M 21.703125 69 
L 4.40625 69 
L 4.40625 64.328125 
C 10.59375 64.328125 11.296875 64.328125 11.296875 60.40625 
L 11.296875 4.0625 
L 4.40625 4.0625 
L 4.40625 -0.203125 
C 6.703125 0 13.796875 0 16.5 0 
C 19.203125 0 26.296875 0 28.59375 -0.203125 
L 28.59375 4.0625 
L 21.703125 4.0625 
z
" id="CMBX12-108"/>
      <path d="M 16.5 56.984375 
C 16.296875 49.15625 13 42.9375 7.40625 38.421875 
C 6.5 37.625 6.40625 37.515625 6.40625 37.109375 
C 6.40625 36.21875 7.59375 35.203125 8.203125 35.203125 
C 9.59375 35.203125 19.796875 43.609375 19.796875 56.90625 
C 19.796875 63.515625 16.5 69 10.90625 69 
C 6.5 69 3.796875 65.734375 3.796875 61.859375 
C 3.796875 58.28125 6.296875 54.703125 11 54.703125 
C 13.90625 54.703125 15.703125 56.1875 16.5 56.984375 
z
M 40.296875 56.984375 
C 40.09375 49.15625 36.796875 42.9375 31.203125 38.421875 
C 30.296875 37.625 30.203125 37.515625 30.203125 37.109375 
C 30.203125 36.21875 31.40625 35.203125 32 35.203125 
C 33.40625 35.203125 43.59375 43.609375 43.59375 56.90625 
C 43.59375 63.515625 40.296875 69 34.703125 69 
C 30.296875 69 27.59375 65.734375 27.59375 61.859375 
C 27.59375 58.28125 30.09375 54.703125 34.796875 54.703125 
C 37.703125 54.703125 39.5 56.1875 40.296875 56.984375 
z
" id="CMBX12-34"/>
      <path d="M 25.40625 43.46875 
C 15.5 45.625 15.203125 52.75 15.203125 54.140625 
C 15.203125 59.171875 18.5 65.03125 28.203125 65.03125 
C 37.90625 65.03125 46.59375 60.359375 48.703125 47.34375 
C 49 45.25 49 45.25 50.90625 45.25 
C 53 45.25 53 45.546875 53 47.8125 
L 53 66.4375 
C 53 68.3125 53 69.015625 51.5 69.015625 
C 50.796875 69.015625 50.5 68.921875 49.59375 67.921875 
L 45.296875 63.046875 
C 42.796875 65.140625 37.796875 69 28.09375 69 
C 13.796875 69 6.203125 60.09375 6.203125 49.3125 
C 6.203125 42.6875 9.796875 38.03125 11.203125 36.640625 
C 16.40625 31.5 19.203125 30.90625 29.59375 28.625 
C 39.59375 26.453125 40.796875 26.25 43 24.1875 
C 44.296875 22.890625 47.203125 20.125 47.203125 15.078125 
C 47.203125 10.8125 45.09375 3 33.90625 3 
C 25.09375 3 11.203125 5.96875 10.40625 20.421875 
C 10.296875 22.203125 10.296875 22.5 8.296875 22.5 
C 6.203125 22.5 6.203125 22.203125 6.203125 19.921875 
L 6.203125 1.296875 
C 6.203125 -0.59375 6.203125 -1.28125 7.703125 -1.28125 
C 8.40625 -1.28125 8.5 -1.1875 9.5 -0.296875 
C 10.59375 0.796875 11.5 2.09375 14 4.578125 
C 19.796875 0.015625 28 -1.265625 34 -1.265625 
C 49.59375 -1.265625 56.203125 9.21875 56.203125 19.71875 
C 56.203125 29 50 37.90625 39.09375 40.375 
z
" id="CMBX12-83"/>
      <path d="M 46.796875 11.765625 
C 46.796875 12.953125 45.703125 12.953125 44.703125 12.953125 
C 43.09375 12.953125 43 12.859375 42.5 11.671875 
C 41.796875 9.765625 39.09375 3.078125 29.90625 3.078125 
C 15.796875 3.078125 15.796875 18.21875 15.796875 22.703125 
C 15.796875 28.578125 15.90625 41.625 29 41.625 
C 29.703125 41.625 35.59375 41.625 35.59375 41.125 
C 35.59375 41 35.5 40.90625 35.296875 40.8125 
C 35 40.515625 33.703125 39 33.703125 36.46875 
C 33.703125 32.25 37.09375 30.53125 39.59375 30.53125 
C 41.703125 30.53125 45.5 31.859375 45.5 36.65625 
C 45.5 45 34 45 28.59375 45 
C 10.796875 45 3.796875 33.515625 3.796875 22.09375 
C 3.796875 8.625 13.296875 -0.5 28 -0.5 
C 43.703125 -0.5 46.796875 11.0625 46.796875 11.765625 
z
" id="CMBX12-99"/>
      <path d="M 20.796875 22.046875 
C 20.796875 25.296875 21.5 41 33.203125 41 
C 31.796875 39.921875 31.09375 38.25 31.09375 36.5 
C 31.09375 32.484375 34.40625 30.8125 36.90625 30.8125 
C 39.40625 30.8125 42.703125 32.484375 42.703125 36.515625 
C 42.703125 41.53125 37.5 44.28125 32.703125 44.28125 
C 24.796875 44.28125 21.40625 37.515625 20 33.390625 
L 19.90625 33.390625 
L 19.90625 44 
L 3.5 44 
L 3.5 39.328125 
C 9.703125 39.328125 10.40625 39.328125 10.40625 35.46875 
L 10.40625 4.0625 
L 3.5 4.0625 
L 3.5 -0.203125 
C 5.796875 0 13.296875 0 16.09375 0 
C 19 0 27.09375 0 29.5 -0.203125 
L 29.5 4.0625 
L 20.796875 4.0625 
z
" id="CMBX12-114"/>
      <path d="M 45.203125 22 
C 47.5 22 48.09375 22 48.09375 24.484375 
C 48.09375 27.46875 47.40625 34.890625 42.796875 39.5625 
C 38.59375 43.71875 33 45 27.203125 45 
C 11.59375 45 3.09375 34.890625 3.09375 22.40625 
C 3.09375 8.515625 13.40625 -0.5 28.5 -0.5 
C 43.59375 -0.5 48.09375 10 48.09375 11.6875 
C 48.09375 13.171875 46.59375 13.171875 46 13.171875 
C 44.40625 13.171875 44.296875 12.875 43.703125 11.59375 
C 41.09375 5.15625 34.5 3.078125 29.703125 3.078125 
C 15.203125 3.078125 15.09375 16.453125 15.09375 22 
z
M 15.09375 24.890625 
C 15.296875 28.9375 15.40625 32.8125 17.5 36.375 
C 19.40625 39.546875 22.90625 41.71875 27.203125 41.71875 
C 37.90625 41.71875 38.796875 29.828125 38.90625 24.890625 
z
" id="CMBX12-101"/>
     </defs>
     <g style="fill:#262626;" transform="translate(379.484705 275.17891)scale(0.22 -0.22)">
      <use transform="scale(0.996264)" xlink:href="#CMBX12-92"/>
      <use transform="translate(57.88486 0)scale(0.996264)" xlink:href="#CMBX12-66"/>
      <use transform="translate(137.562996 0)scale(0.996264)" xlink:href="#CMBX12-97"/>
      <use transform="translate(192.046184 0)scale(0.996264)" xlink:href="#CMBX12-100"/>
      <use transform="translate(291.672585 0)scale(0.996264)" xlink:href="#CMBX12-84"/>
      <use transform="translate(360.280981 0)scale(0.996264)" xlink:href="#CMBX12-111"/>
      <use transform="translate(419.434156 0)scale(0.996264)" xlink:href="#CMBX12-111"/>
      <use transform="translate(475.474007 0)scale(0.996264)" xlink:href="#CMBX12-108"/>
      <use transform="translate(506.607257 0)scale(0.996264)" xlink:href="#CMBX12-34"/>
      <use transform="translate(601.852018 0)scale(0.996264)" xlink:href="#CMBX12-83"/>
      <use transform="translate(664.118519 0)scale(0.996264)" xlink:href="#CMBX12-99"/>
      <use transform="translate(713.931719 0)scale(0.996264)" xlink:href="#CMBX12-111"/>
      <use transform="translate(769.97157 0)scale(0.996264)" xlink:href="#CMBX12-114"/>
      <use transform="translate(815.749077 0)scale(0.996264)" xlink:href="#CMBX12-101"/>
     </g>
    </g>
   </g>
   <g id="matplotlib.axis_2">
    <g id="ytick_1">
     <g id="line2d_7">
      <defs>
       <path d="M 0 0 
L -6 0 
" id="mf8fcd2e3e2" style="stroke:#262626;stroke-width:1.25;"/>
      </defs>
      <g>
       <use style="fill:#262626;stroke:#262626;stroke-width:1.25;" x="172.8" xlink:href="#mf8fcd2e3e2" y="230.4"/>
      </g>
     </g>
     <g id="text_8">
      <!-- $0$ -->
      <g style="fill:#262626;" transform="translate(153.175 236.65)scale(0.18 -0.18)">
       <use transform="scale(0.996264)" xlink:href="#CMBX12-48"/>
      </g>
     </g>
    </g>
    <g id="ytick_2">
     <g id="line2d_8">
      <g>
       <use style="fill:#262626;stroke:#262626;stroke-width:1.25;" x="172.8" xlink:href="#mf8fcd2e3e2" y="191.899521"/>
      </g>
     </g>
     <g id="text_9">
      <!-- $2$ -->
      <g style="fill:#262626;" transform="translate(153.175 198.149521)scale(0.18 -0.18)">
       <use transform="scale(0.996264)" xlink:href="#CMBX12-50"/>
      </g>
     </g>
    </g>
    <g id="ytick_3">
     <g id="line2d_9">
      <g>
       <use style="fill:#262626;stroke:#262626;stroke-width:1.25;" x="172.8" xlink:href="#mf8fcd2e3e2" y="153.399042"/>
      </g>
     </g>
     <g id="text_10">
      <!-- $4$ -->
      <g style="fill:#262626;" transform="translate(153.175 159.649042)scale(0.18 -0.18)">
       <use transform="scale(0.996264)" xlink:href="#CMBX12-52"/>
      </g>
     </g>
    </g>
    <g id="ytick_4">
     <g id="line2d_10">
      <g>
       <use style="fill:#262626;stroke:#262626;stroke-width:1.25;" x="172.8" xlink:href="#mf8fcd2e3e2" y="114.898563"/>
      </g>
     </g>
     <g id="text_11">
      <!-- $6$ -->
      <g style="fill:#262626;" transform="translate(153.175 121.148563)scale(0.18 -0.18)">
       <use transform="scale(0.996264)" xlink:href="#CMBX12-54"/>
      </g>
     </g>
    </g>
    <g id="ytick_5">
     <g id="line2d_11">
      <g>
       <use style="fill:#262626;stroke:#262626;stroke-width:1.25;" x="172.8" xlink:href="#mf8fcd2e3e2" y="76.398084"/>
      </g>
     </g>
     <g id="text_12">
      <!-- $8$ -->
      <g style="fill:#262626;" transform="translate(153.175 82.648084)scale(0.18 -0.18)">
       <use transform="scale(0.996264)" xlink:href="#CMBX12-56"/>
      </g>
     </g>
    </g>
    <g id="text_13">
     <!-- \textbf{Probability} -->
     <defs>
      <path d="M 27.59375 30.21875 
L 44.59375 30.21875 
C 61.296875 30.21875 70.59375 38.65625 70.59375 48.875 
C 70.59375 59.5625 61.09375 68 44.59375 68 
L 3.796875 68 
L 3.796875 63.71875 
L 14.40625 63.71875 
L 14.40625 4.171875 
L 3.796875 4.171875 
L 3.796875 0 
C 6.703125 0 17.40625 0 21 0 
C 24.59375 0 35.296875 0 38.203125 0 
L 38.203125 4.171875 
L 27.59375 4.171875 
z
M 41 63.71875 
C 56.5 63.71875 56.5 55.59375 56.5 48.859375 
C 56.5 42.328125 56.5 34 41 34 
L 27.09375 34 
L 27.09375 63.71875 
z
" id="CMBX12-80"/>
      <path d="M 20.796875 69 
L 3.5 69 
L 3.5 64.328125 
C 9.703125 64.328125 10.40625 64.328125 10.40625 60.421875 
L 10.40625 0 
L 14.59375 0 
C 16.296875 1.921875 18 3.859375 19.59375 5.875 
C 24.703125 0.59375 30.203125 -0.5 34.203125 -0.5 
C 48 -0.5 58.59375 7.875 58.59375 22.359375 
C 58.59375 36.015625 49.203125 45 35.5 45 
C 29.59375 45 24.90625 43.109375 20.796875 39.921875 
z
M 21.296875 35.125 
C 24.796875 39.921875 30 41.71875 34.203125 41.71875 
C 46.59375 41.71875 46.59375 29.046875 46.59375 22.453125 
C 46.59375 17.953125 46.59375 12.265625 44.203125 8.5625 
C 41.09375 3.765625 36.40625 2.78125 33.203125 2.78125 
C 26.40625 2.78125 22.703125 7.5625 21.296875 9.765625 
z
" id="CMBX12-98"/>
      <path d="M 22.296875 61.84375 
C 22.296875 65.921875 19 69 15.09375 69 
C 11 69 7.90625 65.625 7.90625 61.84375 
C 7.90625 58.0625 11 54.6875 15.09375 54.6875 
C 19 54.6875 22.296875 57.765625 22.296875 61.84375 
z
M 4.703125 44 
L 4.703125 39.328125 
C 10.59375 39.328125 11.296875 39.328125 11.296875 35.46875 
L 11.296875 4.0625 
L 4.40625 4.0625 
L 4.40625 -0.203125 
C 6.703125 0 13.59375 0 16.296875 0 
C 19.09375 0 25.5 0 27.90625 -0.203125 
L 27.90625 4.0625 
L 21.703125 4.0625 
L 21.703125 44 
z
" id="CMBX12-105"/>
      <path d="M 21.09375 40 
L 35.5 40 
L 35.5 44.265625 
L 21.09375 44.265625 
L 21.09375 63 
L 16.90625 63 
C 16.796875 53.203125 12 43.375 2.09375 43.375 
L 2.09375 40 
L 10.203125 40 
L 10.203125 12.328125 
C 10.203125 1.78125 18.40625 -0.5 25.59375 -0.5 
C 33 -0.5 37.40625 5.078125 37.40625 12.421875 
L 37.40625 17.703125 
L 33.203125 17.703125 
L 33.203125 12.53125 
C 33.203125 5.953125 30.203125 3.078125 27.09375 3.078125 
C 21.09375 3.078125 21.09375 9.75 21.09375 12.03125 
z
" id="CMBX12-116"/>
      <path d="M 49.5 37.828125 
C 50.09375 39.203125 50.5 40 56.90625 40 
L 56.90625 44.171875 
C 53.5 44.171875 53.09375 44.171875 49 44.171875 
C 46.296875 44.171875 46.09375 44.171875 40.40625 44.171875 
L 40.40625 40 
C 40.5 40 45.203125 40 45.203125 38.71875 
C 45.203125 38.421875 44.90625 37.828125 44.796875 37.53125 
L 33.09375 12.578125 
L 20.296875 40 
L 25.796875 40 
L 25.796875 44.265625 
C 23.40625 44.171875 16.59375 44.171875 13.796875 44.171875 
C 10.90625 44.171875 5 44.171875 2.40625 44.265625 
L 2.40625 40 
L 8.796875 40 
L 27.296875 0.3125 
C 26.796875 -0.875 25.40625 -3.75 24.90625 -4.9375 
C 22.796875 -9.390625 19.59375 -16.21875 12.59375 -16.21875 
C 12.203125 -16.21875 11 -16.21875 9.90625 -15.625 
C 10.09375 -15.515625 13.09375 -14.328125 13.09375 -10.5625 
C 13.09375 -7.3125 10.703125 -5.234375 7.703125 -5.234375 
C 4.59375 -5.234375 2.203125 -7.328125 2.203125 -10.6875 
C 2.203125 -15.34375 6.59375 -19.5 12.59375 -19.5 
C 20.796875 -19.5 26.203125 -12.171875 28.203125 -7.8125 
z
" id="CMBX12-121"/>
     </defs>
     <g style="fill:#262626;" transform="translate(144.89583 197.74562)rotate(-90)scale(0.22 -0.22)">
      <use transform="translate(0 -0.072648)scale(0.996264)" xlink:href="#CMBX12-80"/>
      <use transform="translate(76.564811 -0.072648)scale(0.996264)" xlink:href="#CMBX12-114"/>
      <use transform="translate(122.342318 -0.072648)scale(0.996264)" xlink:href="#CMBX12-111"/>
      <use transform="translate(178.382169 -0.072648)scale(0.996264)" xlink:href="#CMBX12-98"/>
      <use transform="translate(240.648669 -0.072648)scale(0.996264)" xlink:href="#CMBX12-97"/>
      <use transform="translate(295.131857 -0.072648)scale(0.996264)" xlink:href="#CMBX12-98"/>
      <use transform="translate(357.398358 -0.072648)scale(0.996264)" xlink:href="#CMBX12-105"/>
      <use transform="translate(388.531608 -0.072648)scale(0.996264)" xlink:href="#CMBX12-108"/>
      <use transform="translate(419.664858 -0.072648)scale(0.996264)" xlink:href="#CMBX12-105"/>
      <use transform="translate(450.798109 -0.072648)scale(0.996264)" xlink:href="#CMBX12-116"/>
      <use transform="translate(491.271334 -0.072648)scale(0.996264)" xlink:href="#CMBX12-121"/>
     </g>
    </g>
   </g>
   <g id="patch_3">
    <path clip-path="url(#p72d1a25c0a)" d="M 201.570114 230.4 
L 212.180468 230.4 
L 212.180468 224.396159 
L 201.570114 224.396159 
z
" style="fill:#4c72b0;opacity:0.5;stroke:#ffffff;stroke-linejoin:miter;"/>
   </g>
   <g id="patch_4">
    <path clip-path="url(#p72d1a25c0a)" d="M 212.180468 230.4 
L 222.790821 230.4 
L 222.790821 212.388476 
L 212.180468 212.388476 
z
" style="fill:#4c72b0;opacity:0.5;stroke:#ffffff;stroke-linejoin:miter;"/>
   </g>
   <g id="patch_5">
    <path clip-path="url(#p72d1a25c0a)" d="M 222.790821 230.4 
L 233.401175 230.4 
L 233.401175 203.382714 
L 222.790821 203.382714 
z
" style="fill:#4c72b0;opacity:0.5;stroke:#ffffff;stroke-linejoin:miter;"/>
   </g>
   <g id="patch_6">
    <path clip-path="url(#p72d1a25c0a)" d="M 233.401175 230.4 
L 244.011529 230.4 
L 244.011529 209.386555 
L 233.401175 209.386555 
z
" style="fill:#4c72b0;opacity:0.5;stroke:#ffffff;stroke-linejoin:miter;"/>
   </g>
   <g id="patch_7">
    <path clip-path="url(#p72d1a25c0a)" d="M 244.011529 230.4 
L 254.621883 230.4 
L 254.621883 194.376951 
L 244.011529 194.376951 
z
" style="fill:#4c72b0;opacity:0.5;stroke:#ffffff;stroke-linejoin:miter;"/>
   </g>
   <g id="patch_8">
    <path clip-path="url(#p72d1a25c0a)" d="M 254.621883 230.4 
L 265.232236 230.4 
L 265.232236 200.380793 
L 254.621883 200.380793 
z
" style="fill:#4c72b0;opacity:0.5;stroke:#ffffff;stroke-linejoin:miter;"/>
   </g>
   <g id="patch_9">
    <path clip-path="url(#p72d1a25c0a)" d="M 265.232236 230.4 
L 275.84259 230.4 
L 275.84259 209.386555 
L 265.232236 209.386555 
z
" style="fill:#4c72b0;opacity:0.5;stroke:#ffffff;stroke-linejoin:miter;"/>
   </g>
   <g id="patch_10">
    <path clip-path="url(#p72d1a25c0a)" d="M 275.84259 230.4 
L 286.452944 230.4 
L 286.452944 224.396159 
L 275.84259 224.396159 
z
" style="fill:#4c72b0;opacity:0.5;stroke:#ffffff;stroke-linejoin:miter;"/>
   </g>
   <g id="patch_11">
    <path clip-path="url(#p72d1a25c0a)" d="M 286.452944 230.4 
L 297.063297 230.4 
L 297.063297 191.375031 
L 286.452944 191.375031 
z
" style="fill:#4c72b0;opacity:0.5;stroke:#ffffff;stroke-linejoin:miter;"/>
   </g>
   <g id="patch_12">
    <path clip-path="url(#p72d1a25c0a)" d="M 297.063297 230.4 
L 307.673651 230.4 
L 307.673651 200.380793 
L 297.063297 200.380793 
z
" style="fill:#4c72b0;opacity:0.5;stroke:#ffffff;stroke-linejoin:miter;"/>
   </g>
   <g id="patch_13">
    <path clip-path="url(#p72d1a25c0a)" d="M 307.673651 230.4 
L 318.284005 230.4 
L 318.284005 179.367348 
L 307.673651 179.367348 
z
" style="fill:#4c72b0;opacity:0.5;stroke:#ffffff;stroke-linejoin:miter;"/>
   </g>
   <g id="patch_14">
    <path clip-path="url(#p72d1a25c0a)" d="M 318.284005 230.4 
L 328.894359 230.4 
L 328.894359 206.384634 
L 318.284005 206.384634 
z
" style="fill:#4c72b0;opacity:0.5;stroke:#ffffff;stroke-linejoin:miter;"/>
   </g>
   <g id="patch_15">
    <path clip-path="url(#p72d1a25c0a)" d="M 328.894359 230.4 
L 339.504712 230.4 
L 339.504712 206.384634 
L 328.894359 206.384634 
z
" style="fill:#4c72b0;opacity:0.5;stroke:#ffffff;stroke-linejoin:miter;"/>
   </g>
   <g id="patch_16">
    <path clip-path="url(#p72d1a25c0a)" d="M 339.504712 230.4 
L 350.115066 230.4 
L 350.115066 188.37311 
L 339.504712 188.37311 
z
" style="fill:#4c72b0;opacity:0.5;stroke:#ffffff;stroke-linejoin:miter;"/>
   </g>
   <g id="patch_17">
    <path clip-path="url(#p72d1a25c0a)" d="M 350.115066 230.4 
L 360.72542 230.4 
L 360.72542 179.367348 
L 350.115066 179.367348 
z
" style="fill:#4c72b0;opacity:0.5;stroke:#ffffff;stroke-linejoin:miter;"/>
   </g>
   <g id="patch_18">
    <path clip-path="url(#p72d1a25c0a)" d="M 360.72542 230.4 
L 371.335773 230.4 
L 371.335773 212.388476 
L 360.72542 212.388476 
z
" style="fill:#4c72b0;opacity:0.5;stroke:#ffffff;stroke-linejoin:miter;"/>
   </g>
   <g id="patch_19">
    <path clip-path="url(#p72d1a25c0a)" d="M 371.335773 230.4 
L 381.946127 230.4 
L 381.946127 188.37311 
L 371.335773 188.37311 
z
" style="fill:#4c72b0;opacity:0.5;stroke:#ffffff;stroke-linejoin:miter;"/>
   </g>
   <g id="patch_20">
    <path clip-path="url(#p72d1a25c0a)" d="M 381.946127 230.4 
L 392.556481 230.4 
L 392.556481 200.380793 
L 381.946127 200.380793 
z
" style="fill:#4c72b0;opacity:0.5;stroke:#ffffff;stroke-linejoin:miter;"/>
   </g>
   <g id="patch_21">
    <path clip-path="url(#p72d1a25c0a)" d="M 392.556481 230.4 
L 403.166834 230.4 
L 403.166834 191.375031 
L 392.556481 191.375031 
z
" style="fill:#4c72b0;opacity:0.5;stroke:#ffffff;stroke-linejoin:miter;"/>
   </g>
   <g id="patch_22">
    <path clip-path="url(#p72d1a25c0a)" d="M 403.166834 230.4 
L 413.777188 230.4 
L 413.777188 212.388476 
L 403.166834 212.388476 
z
" style="fill:#4c72b0;opacity:0.5;stroke:#ffffff;stroke-linejoin:miter;"/>
   </g>
   <g id="patch_23">
    <path clip-path="url(#p72d1a25c0a)" d="M 413.777188 230.4 
L 424.387542 230.4 
L 424.387542 203.382714 
L 413.777188 203.382714 
z
" style="fill:#4c72b0;opacity:0.5;stroke:#ffffff;stroke-linejoin:miter;"/>
   </g>
   <g id="patch_24">
    <path clip-path="url(#p72d1a25c0a)" d="M 424.387542 230.4 
L 434.997896 230.4 
L 434.997896 191.375031 
L 424.387542 191.375031 
z
" style="fill:#4c72b0;opacity:0.5;stroke:#ffffff;stroke-linejoin:miter;"/>
   </g>
   <g id="patch_25">
    <path clip-path="url(#p72d1a25c0a)" d="M 434.997896 230.4 
L 445.608249 230.4 
L 445.608249 203.382714 
L 434.997896 203.382714 
z
" style="fill:#4c72b0;opacity:0.5;stroke:#ffffff;stroke-linejoin:miter;"/>
   </g>
   <g id="patch_26">
    <path clip-path="url(#p72d1a25c0a)" d="M 445.608249 230.4 
L 456.218603 230.4 
L 456.218603 221.394238 
L 445.608249 221.394238 
z
" style="fill:#4c72b0;opacity:0.5;stroke:#ffffff;stroke-linejoin:miter;"/>
   </g>
   <g id="patch_27">
    <path clip-path="url(#p72d1a25c0a)" d="M 456.218603 230.4 
L 466.828957 230.4 
L 466.828957 212.388476 
L 456.218603 212.388476 
z
" style="fill:#4c72b0;opacity:0.5;stroke:#ffffff;stroke-linejoin:miter;"/>
   </g>
   <g id="patch_28">
    <path clip-path="url(#p72d1a25c0a)" d="M 466.828957 230.4 
L 477.43931 230.4 
L 477.43931 215.390396 
L 466.828957 215.390396 
z
" style="fill:#4c72b0;opacity:0.5;stroke:#ffffff;stroke-linejoin:miter;"/>
   </g>
   <g id="patch_29">
    <path clip-path="url(#p72d1a25c0a)" d="M 477.43931 230.4 
L 488.049664 230.4 
L 488.049664 215.390396 
L 477.43931 215.390396 
z
" style="fill:#4c72b0;opacity:0.5;stroke:#ffffff;stroke-linejoin:miter;"/>
   </g>
   <g id="patch_30">
    <path clip-path="url(#p72d1a25c0a)" d="M 488.049664 230.4 
L 498.660018 230.4 
L 498.660018 206.384634 
L 488.049664 206.384634 
z
" style="fill:#4c72b0;opacity:0.5;stroke:#ffffff;stroke-linejoin:miter;"/>
   </g>
   <g id="patch_31">
    <path clip-path="url(#p72d1a25c0a)" d="M 498.660018 230.4 
L 509.270372 230.4 
L 509.270372 215.390396 
L 498.660018 215.390396 
z
" style="fill:#4c72b0;opacity:0.5;stroke:#ffffff;stroke-linejoin:miter;"/>
   </g>
   <g id="patch_32">
    <path clip-path="url(#p72d1a25c0a)" d="M 509.270372 230.4 
L 519.880725 230.4 
L 519.880725 224.396159 
L 509.270372 224.396159 
z
" style="fill:#4c72b0;opacity:0.5;stroke:#ffffff;stroke-linejoin:miter;"/>
   </g>
   <g id="patch_33">
    <path clip-path="url(#p72d1a25c0a)" d="M 519.880725 230.4 
L 530.491079 230.4 
L 530.491079 203.382714 
L 519.880725 203.382714 
z
" style="fill:#4c72b0;opacity:0.5;stroke:#ffffff;stroke-linejoin:miter;"/>
   </g>
   <g id="patch_34">
    <path clip-path="url(#p72d1a25c0a)" d="M 530.491079 230.4 
L 541.101433 230.4 
L 541.101433 215.390396 
L 530.491079 215.390396 
z
" style="fill:#4c72b0;opacity:0.5;stroke:#ffffff;stroke-linejoin:miter;"/>
   </g>
   <g id="patch_35">
    <path clip-path="url(#p72d1a25c0a)" d="M 541.101433 230.4 
L 551.711786 230.4 
L 551.711786 200.380793 
L 541.101433 200.380793 
z
" style="fill:#4c72b0;opacity:0.5;stroke:#ffffff;stroke-linejoin:miter;"/>
   </g>
   <g id="patch_36">
    <path clip-path="url(#p72d1a25c0a)" d="M 551.711786 230.4 
L 562.32214 230.4 
L 562.32214 218.392317 
L 551.711786 218.392317 
z
" style="fill:#4c72b0;opacity:0.5;stroke:#ffffff;stroke-linejoin:miter;"/>
   </g>
   <g id="patch_37">
    <path clip-path="url(#p72d1a25c0a)" d="M 562.32214 230.4 
L 572.932494 230.4 
L 572.932494 206.384634 
L 562.32214 206.384634 
z
" style="fill:#4c72b0;opacity:0.5;stroke:#ffffff;stroke-linejoin:miter;"/>
   </g>
   <g id="patch_38">
    <path clip-path="url(#p72d1a25c0a)" d="M 572.932494 230.4 
L 583.542847 230.4 
L 583.542847 215.390396 
L 572.932494 215.390396 
z
" style="fill:#4c72b0;opacity:0.5;stroke:#ffffff;stroke-linejoin:miter;"/>
   </g>
   <g id="patch_39">
    <path clip-path="url(#p72d1a25c0a)" d="M 583.542847 230.4 
L 594.153201 230.4 
L 594.153201 224.396159 
L 583.542847 224.396159 
z
" style="fill:#4c72b0;opacity:0.5;stroke:#ffffff;stroke-linejoin:miter;"/>
   </g>
   <g id="patch_40">
    <path clip-path="url(#p72d1a25c0a)" d="M 594.153201 230.4 
L 604.763555 230.4 
L 604.763555 209.386555 
L 594.153201 209.386555 
z
" style="fill:#4c72b0;opacity:0.5;stroke:#ffffff;stroke-linejoin:miter;"/>
   </g>
   <g id="patch_41">
    <path clip-path="url(#p72d1a25c0a)" d="M 604.763555 230.4 
L 615.373909 230.4 
L 615.373909 224.396159 
L 604.763555 224.396159 
z
" style="fill:#4c72b0;opacity:0.5;stroke:#ffffff;stroke-linejoin:miter;"/>
   </g>
   <g id="patch_42">
    <path clip-path="url(#p72d1a25c0a)" d="M 615.373909 230.4 
L 625.984262 230.4 
L 625.984262 218.392317 
L 615.373909 218.392317 
z
" style="fill:#4c72b0;opacity:0.5;stroke:#ffffff;stroke-linejoin:miter;"/>
   </g>
   <g id="patch_43">
    <path clip-path="url(#p72d1a25c0a)" d="M 625.984262 230.4 
L 636.594616 230.4 
L 636.594616 218.392317 
L 625.984262 218.392317 
z
" style="fill:#4c72b0;opacity:0.5;stroke:#ffffff;stroke-linejoin:miter;"/>
   </g>
   <g id="patch_44">
    <path clip-path="url(#p72d1a25c0a)" d="M 636.594616 230.4 
L 647.20497 230.4 
L 647.20497 212.388476 
L 636.594616 212.388476 
z
" style="fill:#4c72b0;opacity:0.5;stroke:#ffffff;stroke-linejoin:miter;"/>
   </g>
   <g id="patch_45">
    <path clip-path="url(#p72d1a25c0a)" d="M 647.20497 230.4 
L 657.815323 230.4 
L 657.815323 224.396159 
L 647.20497 224.396159 
z
" style="fill:#4c72b0;opacity:0.5;stroke:#ffffff;stroke-linejoin:miter;"/>
   </g>
   <g id="patch_46">
    <path clip-path="url(#p72d1a25c0a)" d="M 657.815323 230.4 
L 668.425677 230.4 
L 668.425677 221.394238 
L 657.815323 221.394238 
z
" style="fill:#4c72b0;opacity:0.5;stroke:#ffffff;stroke-linejoin:miter;"/>
   </g>
   <g id="patch_47">
    <path clip-path="url(#p72d1a25c0a)" d="M 668.425677 230.4 
L 679.036031 230.4 
L 679.036031 218.392317 
L 668.425677 218.392317 
z
" style="fill:#4c72b0;opacity:0.5;stroke:#ffffff;stroke-linejoin:miter;"/>
   </g>
   <g id="patch_48">
    <path clip-path="url(#p72d1a25c0a)" d="M 679.036031 230.4 
L 689.646385 230.4 
L 689.646385 227.398079 
L 679.036031 227.398079 
z
" style="fill:#4c72b0;opacity:0.5;stroke:#ffffff;stroke-linejoin:miter;"/>
   </g>
   <g id="patch_49">
    <path clip-path="url(#p72d1a25c0a)" d="M 689.646385 230.4 
L 700.256738 230.4 
L 700.256738 227.398079 
L 689.646385 227.398079 
z
" style="fill:#4c72b0;opacity:0.5;stroke:#ffffff;stroke-linejoin:miter;"/>
   </g>
   <g id="patch_50">
    <path clip-path="url(#p72d1a25c0a)" d="M 700.256738 230.4 
L 710.867092 230.4 
L 710.867092 227.398079 
L 700.256738 227.398079 
z
" style="fill:#4c72b0;opacity:0.5;stroke:#ffffff;stroke-linejoin:miter;"/>
   </g>
   <g id="patch_51">
    <path clip-path="url(#p72d1a25c0a)" d="M 710.867092 230.4 
L 721.477446 230.4 
L 721.477446 230.4 
L 710.867092 230.4 
z
" style="fill:#4c72b0;opacity:0.5;stroke:#ffffff;stroke-linejoin:miter;"/>
   </g>
   <g id="patch_52">
    <path clip-path="url(#p72d1a25c0a)" d="M 721.477446 230.4 
L 732.087799 230.4 
L 732.087799 227.398079 
L 721.477446 227.398079 
z
" style="fill:#4c72b0;opacity:0.5;stroke:#ffffff;stroke-linejoin:miter;"/>
   </g>
   <g id="patch_53">
    <path clip-path="url(#p72d1a25c0a)" d="M 200.290909 230.4 
L 211.287273 230.4 
L 211.287273 224.554567 
L 200.290909 224.554567 
z
" style="fill:#c44e52;opacity:0.5;stroke:#ffffff;stroke-linejoin:miter;"/>
   </g>
   <g id="patch_54">
    <path clip-path="url(#p72d1a25c0a)" d="M 211.287273 230.4 
L 222.283636 230.4 
L 222.283636 230.4 
L 211.287273 230.4 
z
" style="fill:#c44e52;opacity:0.5;stroke:#ffffff;stroke-linejoin:miter;"/>
   </g>
   <g id="patch_55">
    <path clip-path="url(#p72d1a25c0a)" d="M 222.283636 230.4 
L 233.28 230.4 
L 233.28 227.477283 
L 222.283636 227.477283 
z
" style="fill:#c44e52;opacity:0.5;stroke:#ffffff;stroke-linejoin:miter;"/>
   </g>
   <g id="patch_56">
    <path clip-path="url(#p72d1a25c0a)" d="M 233.28 230.4 
L 244.276364 230.4 
L 244.276364 230.4 
L 233.28 230.4 
z
" style="fill:#c44e52;opacity:0.5;stroke:#ffffff;stroke-linejoin:miter;"/>
   </g>
   <g id="patch_57">
    <path clip-path="url(#p72d1a25c0a)" d="M 244.276364 230.4 
L 255.272727 230.4 
L 255.272727 230.4 
L 244.276364 230.4 
z
" style="fill:#c44e52;opacity:0.5;stroke:#ffffff;stroke-linejoin:miter;"/>
   </g>
   <g id="patch_58">
    <path clip-path="url(#p72d1a25c0a)" d="M 255.272727 230.4 
L 266.269091 230.4 
L 266.269091 230.4 
L 255.272727 230.4 
z
" style="fill:#c44e52;opacity:0.5;stroke:#ffffff;stroke-linejoin:miter;"/>
   </g>
   <g id="patch_59">
    <path clip-path="url(#p72d1a25c0a)" d="M 266.269091 230.4 
L 277.265455 230.4 
L 277.265455 230.4 
L 266.269091 230.4 
z
" style="fill:#c44e52;opacity:0.5;stroke:#ffffff;stroke-linejoin:miter;"/>
   </g>
   <g id="patch_60">
    <path clip-path="url(#p72d1a25c0a)" d="M 277.265455 230.4 
L 288.261818 230.4 
L 288.261818 230.4 
L 277.265455 230.4 
z
" style="fill:#c44e52;opacity:0.5;stroke:#ffffff;stroke-linejoin:miter;"/>
   </g>
   <g id="patch_61">
    <path clip-path="url(#p72d1a25c0a)" d="M 288.261818 230.4 
L 299.258182 230.4 
L 299.258182 230.4 
L 288.261818 230.4 
z
" style="fill:#c44e52;opacity:0.5;stroke:#ffffff;stroke-linejoin:miter;"/>
   </g>
   <g id="patch_62">
    <path clip-path="url(#p72d1a25c0a)" d="M 299.258182 230.4 
L 310.254545 230.4 
L 310.254545 230.4 
L 299.258182 230.4 
z
" style="fill:#c44e52;opacity:0.5;stroke:#ffffff;stroke-linejoin:miter;"/>
   </g>
   <g id="patch_63">
    <path clip-path="url(#p72d1a25c0a)" d="M 310.254545 230.4 
L 321.250909 230.4 
L 321.250909 230.4 
L 310.254545 230.4 
z
" style="fill:#c44e52;opacity:0.5;stroke:#ffffff;stroke-linejoin:miter;"/>
   </g>
   <g id="patch_64">
    <path clip-path="url(#p72d1a25c0a)" d="M 321.250909 230.4 
L 332.247273 230.4 
L 332.247273 230.4 
L 321.250909 230.4 
z
" style="fill:#c44e52;opacity:0.5;stroke:#ffffff;stroke-linejoin:miter;"/>
   </g>
   <g id="patch_65">
    <path clip-path="url(#p72d1a25c0a)" d="M 332.247273 230.4 
L 343.243636 230.4 
L 343.243636 230.4 
L 332.247273 230.4 
z
" style="fill:#c44e52;opacity:0.5;stroke:#ffffff;stroke-linejoin:miter;"/>
   </g>
   <g id="patch_66">
    <path clip-path="url(#p72d1a25c0a)" d="M 343.243636 230.4 
L 354.24 230.4 
L 354.24 227.477283 
L 343.243636 227.477283 
z
" style="fill:#c44e52;opacity:0.5;stroke:#ffffff;stroke-linejoin:miter;"/>
   </g>
   <g id="patch_67">
    <path clip-path="url(#p72d1a25c0a)" d="M 354.24 230.4 
L 365.236364 230.4 
L 365.236364 230.4 
L 354.24 230.4 
z
" style="fill:#c44e52;opacity:0.5;stroke:#ffffff;stroke-linejoin:miter;"/>
   </g>
   <g id="patch_68">
    <path clip-path="url(#p72d1a25c0a)" d="M 365.236364 230.4 
L 376.232727 230.4 
L 376.232727 230.4 
L 365.236364 230.4 
z
" style="fill:#c44e52;opacity:0.5;stroke:#ffffff;stroke-linejoin:miter;"/>
   </g>
   <g id="patch_69">
    <path clip-path="url(#p72d1a25c0a)" d="M 376.232727 230.4 
L 387.229091 230.4 
L 387.229091 227.477283 
L 376.232727 227.477283 
z
" style="fill:#c44e52;opacity:0.5;stroke:#ffffff;stroke-linejoin:miter;"/>
   </g>
   <g id="patch_70">
    <path clip-path="url(#p72d1a25c0a)" d="M 387.229091 230.4 
L 398.225455 230.4 
L 398.225455 230.4 
L 387.229091 230.4 
z
" style="fill:#c44e52;opacity:0.5;stroke:#ffffff;stroke-linejoin:miter;"/>
   </g>
   <g id="patch_71">
    <path clip-path="url(#p72d1a25c0a)" d="M 398.225455 230.4 
L 409.221818 230.4 
L 409.221818 230.4 
L 398.225455 230.4 
z
" style="fill:#c44e52;opacity:0.5;stroke:#ffffff;stroke-linejoin:miter;"/>
   </g>
   <g id="patch_72">
    <path clip-path="url(#p72d1a25c0a)" d="M 409.221818 230.4 
L 420.218182 230.4 
L 420.218182 230.4 
L 409.221818 230.4 
z
" style="fill:#c44e52;opacity:0.5;stroke:#ffffff;stroke-linejoin:miter;"/>
   </g>
   <g id="patch_73">
    <path clip-path="url(#p72d1a25c0a)" d="M 420.218182 230.4 
L 431.214545 230.4 
L 431.214545 230.4 
L 420.218182 230.4 
z
" style="fill:#c44e52;opacity:0.5;stroke:#ffffff;stroke-linejoin:miter;"/>
   </g>
   <g id="patch_74">
    <path clip-path="url(#p72d1a25c0a)" d="M 431.214545 230.4 
L 442.210909 230.4 
L 442.210909 230.4 
L 431.214545 230.4 
z
" style="fill:#c44e52;opacity:0.5;stroke:#ffffff;stroke-linejoin:miter;"/>
   </g>
   <g id="patch_75">
    <path clip-path="url(#p72d1a25c0a)" d="M 442.210909 230.4 
L 453.207273 230.4 
L 453.207273 221.63185 
L 442.210909 221.63185 
z
" style="fill:#c44e52;opacity:0.5;stroke:#ffffff;stroke-linejoin:miter;"/>
   </g>
   <g id="patch_76">
    <path clip-path="url(#p72d1a25c0a)" d="M 453.207273 230.4 
L 464.203636 230.4 
L 464.203636 212.8637 
L 453.207273 212.8637 
z
" style="fill:#c44e52;opacity:0.5;stroke:#ffffff;stroke-linejoin:miter;"/>
   </g>
   <g id="patch_77">
    <path clip-path="url(#p72d1a25c0a)" d="M 464.203636 230.4 
L 475.2 230.4 
L 475.2 224.554567 
L 464.203636 224.554567 
z
" style="fill:#c44e52;opacity:0.5;stroke:#ffffff;stroke-linejoin:miter;"/>
   </g>
   <g id="patch_78">
    <path clip-path="url(#p72d1a25c0a)" d="M 475.2 230.4 
L 486.196364 230.4 
L 486.196364 227.477283 
L 475.2 227.477283 
z
" style="fill:#c44e52;opacity:0.5;stroke:#ffffff;stroke-linejoin:miter;"/>
   </g>
   <g id="patch_79">
    <path clip-path="url(#p72d1a25c0a)" d="M 486.196364 230.4 
L 497.192727 230.4 
L 497.192727 221.63185 
L 486.196364 221.63185 
z
" style="fill:#c44e52;opacity:0.5;stroke:#ffffff;stroke-linejoin:miter;"/>
   </g>
   <g id="patch_80">
    <path clip-path="url(#p72d1a25c0a)" d="M 497.192727 230.4 
L 508.189091 230.4 
L 508.189091 227.477283 
L 497.192727 227.477283 
z
" style="fill:#c44e52;opacity:0.5;stroke:#ffffff;stroke-linejoin:miter;"/>
   </g>
   <g id="patch_81">
    <path clip-path="url(#p72d1a25c0a)" d="M 508.189091 230.4 
L 519.185455 230.4 
L 519.185455 224.554567 
L 508.189091 224.554567 
z
" style="fill:#c44e52;opacity:0.5;stroke:#ffffff;stroke-linejoin:miter;"/>
   </g>
   <g id="patch_82">
    <path clip-path="url(#p72d1a25c0a)" d="M 519.185455 230.4 
L 530.181818 230.4 
L 530.181818 221.63185 
L 519.185455 221.63185 
z
" style="fill:#c44e52;opacity:0.5;stroke:#ffffff;stroke-linejoin:miter;"/>
   </g>
   <g id="patch_83">
    <path clip-path="url(#p72d1a25c0a)" d="M 530.181818 230.4 
L 541.178182 230.4 
L 541.178182 224.554567 
L 530.181818 224.554567 
z
" style="fill:#c44e52;opacity:0.5;stroke:#ffffff;stroke-linejoin:miter;"/>
   </g>
   <g id="patch_84">
    <path clip-path="url(#p72d1a25c0a)" d="M 541.178182 230.4 
L 552.174545 230.4 
L 552.174545 230.4 
L 541.178182 230.4 
z
" style="fill:#c44e52;opacity:0.5;stroke:#ffffff;stroke-linejoin:miter;"/>
   </g>
   <g id="patch_85">
    <path clip-path="url(#p72d1a25c0a)" d="M 552.174545 230.4 
L 563.170909 230.4 
L 563.170909 215.786417 
L 552.174545 215.786417 
z
" style="fill:#c44e52;opacity:0.5;stroke:#ffffff;stroke-linejoin:miter;"/>
   </g>
   <g id="patch_86">
    <path clip-path="url(#p72d1a25c0a)" d="M 563.170909 230.4 
L 574.167273 230.4 
L 574.167273 224.554567 
L 563.170909 224.554567 
z
" style="fill:#c44e52;opacity:0.5;stroke:#ffffff;stroke-linejoin:miter;"/>
   </g>
   <g id="patch_87">
    <path clip-path="url(#p72d1a25c0a)" d="M 574.167273 230.4 
L 585.163636 230.4 
L 585.163636 221.63185 
L 574.167273 221.63185 
z
" style="fill:#c44e52;opacity:0.5;stroke:#ffffff;stroke-linejoin:miter;"/>
   </g>
   <g id="patch_88">
    <path clip-path="url(#p72d1a25c0a)" d="M 585.163636 230.4 
L 596.16 230.4 
L 596.16 221.63185 
L 585.163636 221.63185 
z
" style="fill:#c44e52;opacity:0.5;stroke:#ffffff;stroke-linejoin:miter;"/>
   </g>
   <g id="patch_89">
    <path clip-path="url(#p72d1a25c0a)" d="M 596.16 230.4 
L 607.156364 230.4 
L 607.156364 227.477283 
L 596.16 227.477283 
z
" style="fill:#c44e52;opacity:0.5;stroke:#ffffff;stroke-linejoin:miter;"/>
   </g>
   <g id="patch_90">
    <path clip-path="url(#p72d1a25c0a)" d="M 607.156364 230.4 
L 618.152727 230.4 
L 618.152727 218.709133 
L 607.156364 218.709133 
z
" style="fill:#c44e52;opacity:0.5;stroke:#ffffff;stroke-linejoin:miter;"/>
   </g>
   <g id="patch_91">
    <path clip-path="url(#p72d1a25c0a)" d="M 618.152727 230.4 
L 629.149091 230.4 
L 629.149091 209.940984 
L 618.152727 209.940984 
z
" style="fill:#c44e52;opacity:0.5;stroke:#ffffff;stroke-linejoin:miter;"/>
   </g>
   <g id="patch_92">
    <path clip-path="url(#p72d1a25c0a)" d="M 629.149091 230.4 
L 640.145455 230.4 
L 640.145455 204.09555 
L 629.149091 204.09555 
z
" style="fill:#c44e52;opacity:0.5;stroke:#ffffff;stroke-linejoin:miter;"/>
   </g>
   <g id="patch_93">
    <path clip-path="url(#p72d1a25c0a)" d="M 640.145455 230.4 
L 651.141818 230.4 
L 651.141818 212.8637 
L 640.145455 212.8637 
z
" style="fill:#c44e52;opacity:0.5;stroke:#ffffff;stroke-linejoin:miter;"/>
   </g>
   <g id="patch_94">
    <path clip-path="url(#p72d1a25c0a)" d="M 651.141818 230.4 
L 662.138182 230.4 
L 662.138182 209.940984 
L 651.141818 209.940984 
z
" style="fill:#c44e52;opacity:0.5;stroke:#ffffff;stroke-linejoin:miter;"/>
   </g>
   <g id="patch_95">
    <path clip-path="url(#p72d1a25c0a)" d="M 662.138182 230.4 
L 673.134545 230.4 
L 673.134545 192.404684 
L 662.138182 192.404684 
z
" style="fill:#c44e52;opacity:0.5;stroke:#ffffff;stroke-linejoin:miter;"/>
   </g>
   <g id="patch_96">
    <path clip-path="url(#p72d1a25c0a)" d="M 673.134545 230.4 
L 684.130909 230.4 
L 684.130909 180.713817 
L 673.134545 180.713817 
z
" style="fill:#c44e52;opacity:0.5;stroke:#ffffff;stroke-linejoin:miter;"/>
   </g>
   <g id="patch_97">
    <path clip-path="url(#p72d1a25c0a)" d="M 684.130909 230.4 
L 695.127273 230.4 
L 695.127273 166.100234 
L 684.130909 166.100234 
z
" style="fill:#c44e52;opacity:0.5;stroke:#ffffff;stroke-linejoin:miter;"/>
   </g>
   <g id="patch_98">
    <path clip-path="url(#p72d1a25c0a)" d="M 695.127273 230.4 
L 706.123636 230.4 
L 706.123636 154.409368 
L 695.127273 154.409368 
z
" style="fill:#c44e52;opacity:0.5;stroke:#ffffff;stroke-linejoin:miter;"/>
   </g>
   <g id="patch_99">
    <path clip-path="url(#p72d1a25c0a)" d="M 706.123636 230.4 
L 717.12 230.4 
L 717.12 128.104918 
L 706.123636 128.104918 
z
" style="fill:#c44e52;opacity:0.5;stroke:#ffffff;stroke-linejoin:miter;"/>
   </g>
   <g id="patch_100">
    <path clip-path="url(#p72d1a25c0a)" d="M 717.12 230.4 
L 728.116364 230.4 
L 728.116364 95.955035 
L 717.12 95.955035 
z
" style="fill:#c44e52;opacity:0.5;stroke:#ffffff;stroke-linejoin:miter;"/>
   </g>
   <g id="patch_101">
    <path clip-path="url(#p72d1a25c0a)" d="M 728.116364 230.4 
L 739.112727 230.4 
L 739.112727 52.114286 
L 728.116364 52.114286 
z
" style="fill:#c44e52;opacity:0.5;stroke:#ffffff;stroke-linejoin:miter;"/>
   </g>
   <g id="patch_102">
    <path clip-path="url(#p72d1a25c0a)" d="M 739.112727 230.4 
L 750.109091 230.4 
L 750.109091 122.259485 
L 739.112727 122.259485 
z
" style="fill:#c44e52;opacity:0.5;stroke:#ffffff;stroke-linejoin:miter;"/>
   </g>
   <g id="patch_103">
    <path d="M 172.8 230.4 
L 172.8 43.2 
" style="fill:none;stroke:#262626;stroke-linecap:square;stroke-linejoin:miter;stroke-width:1.25;"/>
   </g>
   <g id="patch_104">
    <path d="M 777.6 230.4 
L 777.6 43.2 
" style="fill:none;"/>
   </g>
   <g id="patch_105">
    <path d="M 172.8 230.4 
L 777.6 230.4 
" style="fill:none;stroke:#262626;stroke-linecap:square;stroke-linejoin:miter;stroke-width:1.25;"/>
   </g>
   <g id="patch_106">
    <path d="M 172.8 43.2 
L 777.6 43.2 
" style="fill:none;"/>
   </g>
   <g id="legend_1">
    <g id="patch_107">
     <path d="M 177.6 94.2222 
L 312.46666 94.2222 
Q 315.66666 94.2222 315.66666 91.0222 
L 315.66666 48 
Q 315.66666 44.8 312.46666 44.8 
L 177.6 44.8 
Q 174.4 44.8 174.4 48 
L 174.4 91.0222 
Q 174.4 94.2222 177.6 94.2222 
z
" style="fill:none;opacity:0;"/>
    </g>
    <g id="patch_108">
     <path d="M 180.8 62.4 
L 212.8 62.4 
L 212.8 51.2 
L 180.8 51.2 
z
" style="fill:#4c72b0;opacity:0.5;stroke:#ffffff;stroke-linejoin:miter;"/>
    </g>
    <g id="text_14">
     <!-- \textbf{Good Tool} -->
     <defs>
      <path d="M 74.90625 22.828125 
L 82.703125 22.828125 
L 82.703125 27.09375 
C 80.296875 27 69.59375 27 66.40625 27 
C 60.296875 27 53.703125 27 47.59375 27 
L 47.59375 22.828125 
L 61.703125 22.828125 
L 61.703125 12.671875 
C 61.703125 10.578125 61.703125 7.78125 57.703125 5.28125 
C 55.703125 4 52.59375 3 48.40625 3 
C 42.703125 3 32.796875 4.390625 26.59375 11.609375 
C 22.703125 16.046875 20.296875 22.09375 20.296875 33.953125 
C 20.296875 44.15625 22 51.078125 26.5 56.3125 
C 32.90625 63.734375 42.90625 64.734375 47.703125 64.734375 
C 55.203125 64.734375 67.296875 60.578125 70.296875 43.25 
C 70.5 42.359375 71.40625 42.359375 72.59375 42.359375 
C 74.90625 42.359375 74.90625 42.5625 74.90625 44.9375 
L 74.90625 66.453125 
C 74.90625 68.734375 74.90625 69.03125 72.703125 69.03125 
L 65.203125 61.875 
C 59.59375 66.625 52.90625 69 45.5 69 
C 21.59375 69 6.203125 54.640625 6.203125 33.859375 
C 6.203125 13.46875 21.09375 -1.265625 45.59375 -1.265625 
C 52.296875 -1.265625 60.203125 0.21875 64.296875 5.484375 
C 67.703125 2.359375 73.40625 0 73.703125 0 
C 74.90625 0 74.90625 1 74.90625 2.578125 
z
" id="CMBX12-71"/>
     </defs>
     <g style="fill:#262626;" transform="translate(225.6 62.4)scale(0.16 -0.16)">
      <use transform="scale(0.996264)" xlink:href="#CMBX12-71"/>
      <use transform="translate(88.09556 0)scale(0.996264)" xlink:href="#CMBX12-111"/>
      <use transform="translate(147.248736 0)scale(0.996264)" xlink:href="#CMBX12-111"/>
      <use transform="translate(206.401911 0)scale(0.996264)" xlink:href="#CMBX12-100"/>
      <use transform="translate(306.028312 0)scale(0.996264)" xlink:href="#CMBX12-84"/>
      <use transform="translate(374.636708 0)scale(0.996264)" xlink:href="#CMBX12-111"/>
      <use transform="translate(433.789883 0)scale(0.996264)" xlink:href="#CMBX12-111"/>
      <use transform="translate(489.829734 0)scale(0.996264)" xlink:href="#CMBX12-108"/>
     </g>
    </g>
    <g id="patch_109">
     <path d="M 180.8 84.7111 
L 212.8 84.7111 
L 212.8 73.5111 
L 180.8 73.5111 
z
" style="fill:#c44e52;opacity:0.5;stroke:#ffffff;stroke-linejoin:miter;"/>
    </g>
    <g id="text_15">
     <!-- \textbf{Bad Tool} -->
     <g style="fill:#262626;" transform="translate(225.6 84.7111)scale(0.16 -0.16)">
      <use transform="scale(0.996264)" xlink:href="#CMBX12-66"/>
      <use transform="translate(79.678136 0)scale(0.996264)" xlink:href="#CMBX12-97"/>
      <use transform="translate(134.161324 0)scale(0.996264)" xlink:href="#CMBX12-100"/>
      <use transform="translate(233.787725 0)scale(0.996264)" xlink:href="#CMBX12-84"/>
      <use transform="translate(302.39612 0)scale(0.996264)" xlink:href="#CMBX12-111"/>
      <use transform="translate(361.549296 0)scale(0.996264)" xlink:href="#CMBX12-111"/>
      <use transform="translate(417.589146 0)scale(0.996264)" xlink:href="#CMBX12-108"/>
     </g>
    </g>
   </g>
  </g>
 </g>
 <defs>
  <clipPath id="p72d1a25c0a">
   <rect height="187.2" width="604.8" x="172.8" y="43.2"/>
  </clipPath>
 </defs>
</svg>
