<?xml version="1.0" encoding="utf-8" standalone="no"?>
<!DOCTYPE svg PUBLIC "-//W3C//DTD SVG 1.1//EN"
  "http://www.w3.org/Graphics/SVG/1.1/DTD/svg11.dtd">
<!-- Created with matplotlib (https://matplotlib.org/) -->
<svg height="288pt" version="1.1" viewBox="0 0 864 288" width="864pt" xmlns="http://www.w3.org/2000/svg" xmlns:xlink="http://www.w3.org/1999/xlink">
 <defs>
  <style type="text/css">
*{stroke-linecap:butt;stroke-linejoin:round;}
  </style>
 </defs>
 <g id="figure_1">
  <g id="patch_1">
   <path d="M 0 288 
L 864 288 
L 864 0 
L 0 0 
z
" style="fill:none;"/>
  </g>
  <g id="axes_1">
   <g id="patch_2">
    <path d="M 71.78185 224.94192 
L 849 224.94192 
L 849 15 
L 71.78185 15 
z
" style="fill:none;"/>
   </g>
   <g id="matplotlib.axis_1">
    <g id="xtick_1">
     <g id="line2d_1">
      <defs>
       <path d="M 0 0 
L 0 3.5 
" id="m22a1ca2874" style="stroke:#000000;stroke-width:0.8;"/>
      </defs>
      <g>
       <use style="stroke:#000000;stroke-width:0.8;" x="146.429921" xlink:href="#m22a1ca2874" y="224.94192"/>
      </g>
     </g>
     <g id="text_1">
      <!-- \textbf{1} -->
      <defs>
       <path d="M 34.59375 62.109375 
C 34.59375 65 34.40625 65 31.203125 65 
C 23.796875 59 12.703125 59 10.5 59 
L 8.59375 59 
L 8.59375 54.734375 
L 10.5 54.734375 
C 14 54.734375 19.296875 55.328125 23.296875 56.625 
L 23.296875 4.171875 
L 9.40625 4.171875 
L 9.40625 0 
C 13.59375 0 24.09375 0 28.796875 0 
C 33.5 0 44.09375 0 48.296875 0 
L 48.296875 4.171875 
L 34.59375 4.171875 
z
" id="CMBX12-49"/>
      </defs>
      <g transform="translate(141.367421 245.94192)scale(0.18 -0.18)">
       <use transform="scale(0.996264)" xlink:href="#CMBX12-49"/>
      </g>
     </g>
    </g>
    <g id="xtick_2">
     <g id="line2d_2">
      <g>
       <use style="stroke:#000000;stroke-width:0.8;" x="221.705287" xlink:href="#m22a1ca2874" y="224.94192"/>
      </g>
     </g>
     <g id="text_2">
      <!-- \textbf{2} -->
      <defs>
       <path d="M 50.5 21.375 
L 46.296875 21.375 
C 46 19.28125 45.296875 13.40625 43.796875 12.421875 
C 43 11.71875 35.203125 11.71875 33.703125 11.71875 
L 18.203125 11.71875 
C 22 14.90625 31.09375 22.46875 32.59375 23.578125 
C 43.703125 31.84375 50.5 36.90625 50.5 46.46875 
C 50.5 58.203125 39.796875 65.28125 26.59375 65.28125 
C 15.296875 65.28125 5.59375 58.90625 5.59375 49.453125 
C 5.59375 44.171875 9.90625 42.6875 12.203125 42.6875 
C 15.296875 42.6875 18.90625 44.765625 18.90625 49.359375 
C 18.90625 53.546875 15.796875 55.625 12.703125 56.03125 
C 16.703125 60.609375 22 61 24.09375 61 
C 33.296875 61 37.703125 53.546875 37.703125 46.375 
C 37.703125 38.609375 32.40625 31.453125 28.296875 27.171875 
L 6.59375 4.578125 
C 5.59375 3.671875 5.59375 3.484375 5.59375 1.6875 
L 5.59375 0 
L 47.59375 0 
z
" id="CMBX12-50"/>
      </defs>
      <g transform="translate(216.642787 245.94192)scale(0.18 -0.18)">
       <use transform="scale(0.996264)" xlink:href="#CMBX12-50"/>
      </g>
     </g>
    </g>
    <g id="xtick_3">
     <g id="line2d_3">
      <g>
       <use style="stroke:#000000;stroke-width:0.8;" x="296.980652" xlink:href="#m22a1ca2874" y="224.94192"/>
      </g>
     </g>
     <g id="text_3">
      <!-- \textbf{3} -->
      <defs>
       <path d="M 26.09375 33 
C 37.296875 33 37.296875 22.71875 37.296875 17.984375 
C 37.296875 13.53125 37.296875 3.0625 26.5 3.0625 
C 24.40625 3.0625 17.796875 3.0625 13 6.625 
C 17.296875 7.515625 18.796875 10.59375 18.796875 13.5625 
C 18.796875 17.625 15.90625 20.5 11.796875 20.5 
C 7.59375 20.5 4.703125 17.625 4.703125 13.46875 
C 4.703125 4.34375 14.703125 -1 27 -1 
C 43.5 -1 51.40625 8.015625 51.40625 17.921875 
C 51.40625 22.796875 48.90625 32.203125 33.40625 34.875 
C 42.203125 37.59375 48.296875 43.8125 48.296875 51.71875 
C 48.296875 59.25 41.09375 65.578125 27.203125 65.578125 
C 16 65.578125 7.796875 59.65625 7.796875 51.53125 
C 7.796875 46.515625 11.703125 44.90625 14.296875 44.90625 
C 17.203125 44.90625 20.703125 46.8125 20.703125 51.4375 
C 20.703125 53.765625 19.703125 57.171875 15 57.875 
C 19.203125 62 26 62 26.59375 62 
C 35.5 62 35.5 55.03125 35.5 52.015625 
C 35.5 48.984375 35.09375 44.328125 31.90625 40.203125 
C 29.296875 36.75 26.703125 36.5625 22.90625 36.5625 
C 21.703125 36.265625 19.703125 36.265625 19.296875 36.078125 
C 18.703125 35.78125 18.703125 35.078125 18.703125 34.6875 
C 18.703125 33 19.296875 33 21.296875 33 
z
" id="CMBX12-51"/>
      </defs>
      <g transform="translate(291.918152 245.94192)scale(0.18 -0.18)">
       <use transform="scale(0.996264)" xlink:href="#CMBX12-51"/>
      </g>
     </g>
    </g>
    <g id="xtick_4">
     <g id="line2d_4">
      <g>
       <use style="stroke:#000000;stroke-width:0.8;" x="372.256018" xlink:href="#m22a1ca2874" y="224.94192"/>
      </g>
     </g>
     <g id="text_4">
      <!-- \textbf{4} -->
      <defs>
       <path d="M 43.296875 15.71875 
L 53 15.71875 
L 53 20 
L 43.296875 20 
L 43.296875 62.609375 
C 43.296875 65.09375 43.203125 65.5 40.703125 65.5 
C 38.90625 65.5 38.703125 65.5 37.5 64 
L 3.09375 20 
L 3.09375 15.71875 
L 31.5 15.71875 
L 31.5 4.171875 
L 20.59375 4.171875 
L 20.59375 0 
C 23.5 0 33.40625 0 37 0 
C 40.40625 0 50.296875 0 53 -0.09375 
L 53 4.171875 
L 43.296875 4.171875 
z
M 32.40625 51.59375 
L 32.40625 20 
L 7.703125 20 
z
" id="CMBX12-52"/>
      </defs>
      <g transform="translate(367.193518 245.94192)scale(0.18 -0.18)">
       <use transform="scale(0.996264)" xlink:href="#CMBX12-52"/>
      </g>
     </g>
    </g>
    <g id="xtick_5">
     <g id="line2d_5">
      <g>
       <use style="stroke:#000000;stroke-width:0.8;" x="447.531383" xlink:href="#m22a1ca2874" y="224.94192"/>
      </g>
     </g>
     <g id="text_5">
      <!-- \textbf{5} -->
      <defs>
       <path d="M 15.40625 51.796875 
C 18.796875 51 21.5 51 23 51 
C 25.40625 51 31.09375 51 37.796875 55.109375 
C 40.90625 56.984375 46.09375 61.5 46.09375 63.796875 
C 46.09375 64.296875 46.09375 65.5 44.90625 65.5 
C 44.796875 65.5 44.59375 65.5 43.59375 64.984375 
C 39 63.34375 34.09375 62.21875 28.5 62.21875 
C 22.796875 62.21875 18 63.3125 13.296875 65 
C 12.59375 65.203125 12.296875 65.40625 12 65.40625 
C 10.796875 65.40625 10.796875 64.40625 10.796875 62.71875 
L 10.796875 33.796875 
C 10.796875 31.90625 10.796875 30.8125 12.796875 30.8125 
C 13.796875 30.8125 14 30.921875 14.796875 31.90625 
C 16 33.3125 19.59375 37.71875 28.09375 37.71875 
C 37.296875 37.71875 37.296875 28.359375 37.296875 20.5 
C 37.296875 13.3125 37.296875 2.96875 25 2.96875 
C 21.296875 2.96875 15 4.359375 11.59375 10 
C 16.90625 10 18.203125 13.984375 18.203125 16.171875 
C 18.203125 19.75 15.59375 22.421875 11.90625 22.421875 
C 8.90625 22.421875 5.59375 20.640625 5.59375 15.96875 
C 5.59375 7.34375 13.5 -1 25.40625 -1 
C 40.796875 -1 50.5 7.859375 50.5 20.203125 
C 50.5 32.34375 42.203125 41 28.5 41 
C 24.5 41 19.703125 40.203125 15.40625 37.015625 
z
" id="CMBX12-53"/>
      </defs>
      <g transform="translate(442.468883 245.94192)scale(0.18 -0.18)">
       <use transform="scale(0.996264)" xlink:href="#CMBX12-53"/>
      </g>
     </g>
    </g>
    <g id="xtick_6">
     <g id="line2d_6">
      <g>
       <use style="stroke:#000000;stroke-width:0.8;" x="522.806749" xlink:href="#m22a1ca2874" y="224.94192"/>
      </g>
     </g>
     <g id="text_6">
      <!-- \textbf{6} -->
      <defs>
       <path d="M 17.40625 36.25 
C 17.40625 42.328125 17.703125 48.53125 20.5 53.90625 
C 22.703125 58.109375 27.796875 62 34.296875 62 
C 36.203125 62 39.796875 61.703125 42.203125 59.203125 
C 38.40625 58.8125 36.796875 56.015625 36.796875 53.3125 
C 36.796875 49.703125 39.5 47.40625 42.703125 47.40625 
C 45.296875 47.40625 48.59375 49.109375 48.59375 53.5 
C 48.59375 59.484375 44.59375 65.578125 34.09375 65.578125 
C 21.59375 65.578125 4.703125 57.796875 4.703125 31.796875 
C 4.703125 25.109375 4.703125 -1 28.40625 -1 
C 41.59375 -1 51.40625 6.765625 51.40625 20.703125 
C 51.40625 34.640625 41.703125 42 29.796875 42 
C 27.796875 42 21.40625 42 17.40625 33.546875 
z
M 28.296875 2.96875 
C 21.90625 2.96875 19.40625 8.34375 19 9.140625 
C 17.59375 12.4375 17.59375 20.40625 17.59375 21.296875 
C 17.59375 33.546875 22.90625 38.734375 28.796875 38.734375 
C 38.703125 38.734375 38.703125 30.765625 38.703125 20.796875 
C 38.703125 10.9375 38.703125 2.96875 28.296875 2.96875 
z
" id="CMBX12-54"/>
      </defs>
      <g transform="translate(517.744249 245.94192)scale(0.18 -0.18)">
       <use transform="scale(0.996264)" xlink:href="#CMBX12-54"/>
      </g>
     </g>
    </g>
    <g id="xtick_7">
     <g id="line2d_7">
      <g>
       <use style="stroke:#000000;stroke-width:0.8;" x="598.082115" xlink:href="#m22a1ca2874" y="224.94192"/>
      </g>
     </g>
     <g id="text_7">
      <!-- \textbf{7} -->
      <defs>
       <path d="M 53.59375 60.390625 
C 54.5 61.390625 54.5 61.609375 54.5 64.921875 
L 33.40625 64.921875 
C 32.703125 64.921875 17.796875 64.921875 16.59375 65.125 
C 14.09375 65.515625 13.90625 66.5625 13.703125 67.53125 
L 9.5 67.53125 
L 6.203125 43 
L 10.40625 43 
C 10.5 44.015625 11.296875 51.25 13 52.390625 
C 13.90625 53 22.203125 53 23.796875 53 
L 41.90625 53 
C 30.296875 38.859375 29 37.25 25.90625 31.328125 
C 20 19.671875 19.09375 10.640625 19.09375 5.71875 
C 19.09375 -1 24.203125 -1 25 -1 
C 27.5 -1 28.90625 0.296875 29.59375 1 
C 30.90625 2.625 30.90625 3.828125 30.90625 8.25 
C 30.90625 23.609375 32.296875 34.875 38.59375 42.40625 
z
" id="CMBX12-55"/>
      </defs>
      <g transform="translate(593.019615 245.94192)scale(0.18 -0.18)">
       <use transform="scale(0.996264)" xlink:href="#CMBX12-55"/>
      </g>
     </g>
    </g>
    <g id="xtick_8">
     <g id="line2d_8">
      <g>
       <use style="stroke:#000000;stroke-width:0.8;" x="673.35748" xlink:href="#m22a1ca2874" y="224.94192"/>
      </g>
     </g>
     <g id="text_8">
      <!-- \textbf{8} -->
      <defs>
       <path d="M 37.703125 36.921875 
C 42.703125 39.515625 48.296875 43.203125 48.296875 51 
C 48.296875 61.28125 39.09375 65.671875 28.203125 65.671875 
C 14.90625 65.671875 7.796875 58.09375 7.796875 48.40625 
C 7.796875 43.03125 10.5 37.03125 17.90625 33.140625 
C 6.59375 28.140625 4.703125 21.265625 4.703125 16.078125 
C 4.703125 4.59375 14.703125 -1 27.90625 -1 
C 42.703125 -1 51.40625 6.96875 51.40625 18.5625 
C 51.40625 29.4375 42.796875 34.140625 37.703125 36.921875 
z
M 19.703125 47.265625 
C 17.703125 48.375 14.90625 50.671875 14.90625 53.984375 
C 14.90625 62 25.59375 62 27.90625 62 
C 36.40625 62 41.203125 57.53125 41.203125 50.96875 
C 41.203125 46.890625 39.40625 42.609375 33.703125 39.328125 
z
M 22 30.59375 
L 35.796875 22.734375 
C 39.09375 20.84375 43.40625 18.46875 43.40625 13.40625 
C 43.40625 5.453125 35.40625 2.96875 28.203125 2.96875 
C 18.296875 2.96875 12.703125 8.234375 12.703125 16.078125 
C 12.703125 23.328125 17.203125 27.90625 22 30.59375 
z
" id="CMBX12-56"/>
      </defs>
      <g transform="translate(668.29498 245.94192)scale(0.18 -0.18)">
       <use transform="scale(0.996264)" xlink:href="#CMBX12-56"/>
      </g>
     </g>
    </g>
    <g id="xtick_9">
     <g id="line2d_9">
      <g>
       <use style="stroke:#000000;stroke-width:0.8;" x="748.632846" xlink:href="#m22a1ca2874" y="224.94192"/>
      </g>
     </g>
     <g id="text_9">
      <!-- \textbf{9} -->
      <defs>
       <path d="M 38.703125 28.375 
C 38.703125 21.375 38.703125 2.96875 23.09375 2.96875 
C 20 2.96875 16.40625 3.765625 14.296875 5.375 
C 17.203125 5.96875 19.296875 8.078125 19.296875 11.296875 
C 19.296875 14.90625 16.59375 17.21875 13.40625 17.21875 
C 10.796875 17.21875 7.5 15.515625 7.5 11.109375 
C 7.5 4.109375 13 -1 23.296875 -1 
C 36 -1 51.40625 7.265625 51.40625 32.984375 
C 51.40625 39.671875 51.40625 65.578125 28.296875 65.578125 
C 14.5 65.578125 4.703125 57.625 4.703125 44 
C 4.703125 30.171875 14.296875 22.734375 26.296875 22.734375 
C 30.5 22.734375 35.5 24.21875 38.703125 31.265625 
z
M 27.296875 26 
C 17.40625 26 17.40625 34.046875 17.40625 43.796875 
C 17.40625 53.359375 17.40625 62 28.296875 62 
C 34.703125 62 37 56.34375 37.40625 55.25 
C 38.40625 52.25 38.59375 46.09375 38.59375 42.8125 
C 38.59375 35.859375 35.703125 26 27.296875 26 
z
" id="CMBX12-57"/>
      </defs>
      <g transform="translate(743.570346 245.94192)scale(0.18 -0.18)">
       <use transform="scale(0.996264)" xlink:href="#CMBX12-57"/>
      </g>
     </g>
    </g>
    <g id="xtick_10">
     <g id="line2d_10">
      <g>
       <use style="stroke:#000000;stroke-width:0.8;" x="823.908211" xlink:href="#m22a1ca2874" y="224.94192"/>
      </g>
     </g>
     <g id="text_10">
      <!-- \textbf{10} -->
      <defs>
       <path d="M 51.703125 31.84375 
C 51.703125 41.375 51.703125 65.28125 28.09375 65.28125 
C 4.40625 65.28125 4.40625 41.46875 4.40625 31.84375 
C 4.40625 22.3125 4.40625 -1 28 -1 
C 51.59375 -1 51.703125 22.015625 51.703125 31.84375 
z
M 28.09375 2.28125 
C 24.90625 2.28125 22.5 3.5625 20.5 5.65625 
C 18 8.140625 16.40625 9.703125 16.40625 33.03125 
C 16.40625 39.984375 16.40625 46.3125 17.203125 51.484375 
C 18.59375 61.3125 25.796875 62 28 62 
C 31.203125 62 37.40625 60.515625 38.796875 52.1875 
C 39.703125 47.109375 39.703125 39.078125 39.703125 33.03125 
C 39.703125 9.609375 38.203125 8.234375 35.203125 5.25 
C 33.203125 3.265625 30.5 2.28125 28.09375 2.28125 
z
" id="CMBX12-48"/>
      </defs>
      <g transform="translate(813.783211 245.94192)scale(0.18 -0.18)">
       <use transform="scale(0.996264)" xlink:href="#CMBX12-49"/>
       <use transform="translate(56.039851 0)scale(0.996264)" xlink:href="#CMBX12-48"/>
      </g>
     </g>
    </g>
    <g id="text_11">
     <!-- \textbf{PCA Dimension} -->
     <defs>
      <path d="M 27.59375 30.21875 
L 44.59375 30.21875 
C 61.296875 30.21875 70.59375 38.65625 70.59375 48.875 
C 70.59375 59.5625 61.09375 68 44.59375 68 
L 3.796875 68 
L 3.796875 63.71875 
L 14.40625 63.71875 
L 14.40625 4.171875 
L 3.796875 4.171875 
L 3.796875 0 
C 6.703125 0 17.40625 0 21 0 
C 24.59375 0 35.296875 0 38.203125 0 
L 38.203125 4.171875 
L 27.59375 4.171875 
z
M 41 63.71875 
C 56.5 63.71875 56.5 55.59375 56.5 48.859375 
C 56.5 42.328125 56.5 34 41 34 
L 27.09375 34 
L 27.09375 63.71875 
z
" id="CMBX12-80"/>
      <path d="M 74.90625 66.4375 
C 74.90625 68.71875 74.90625 69.015625 72.703125 69.015625 
L 65.203125 61.859375 
C 59.59375 66.609375 52.90625 69 45.5 69 
C 21.59375 69 6.203125 54.640625 6.203125 33.859375 
C 6.203125 13.46875 21.09375 -1.265625 45.59375 -1.265625 
C 63.40625 -1.265625 74.90625 10.796875 74.90625 22.484375 
C 74.90625 24.171875 74.296875 24.171875 72.796875 24.171875 
C 71.796875 24.171875 70.796875 24.171875 70.703125 23.1875 
C 69.796875 8.15625 56.90625 3 47.90625 3 
C 41.40625 3 32.59375 4.796875 27 11.015625 
C 23.5 14.78125 20.296875 20.203125 20.296875 33.859375 
C 20.296875 43.5625 21.796875 50.78125 26.5 56.3125 
C 32.90625 63.734375 42.90625 64.734375 47.703125 64.734375 
C 55.203125 64.734375 67.296875 60.5625 70.296875 43.15625 
C 70.5 42.265625 71.40625 42.265625 72.59375 42.265625 
C 74.90625 42.265625 74.90625 42.46875 74.90625 44.84375 
z
" id="CMBX12-67"/>
      <path d="M 45.796875 67.203125 
C 45.09375 69 44.90625 69.5 42.5 69.5 
C 40 69.5 39.796875 69 39.09375 67.203125 
L 14.296875 6.453125 
C 13.59375 4.859375 13.59375 4.671875 10.796875 4.359375 
C 8.296875 4.0625 7.90625 4.0625 5.703125 4.0625 
L 3.90625 4.0625 
L 3.90625 -0.203125 
C 6.5 0 12.5 0 15.40625 0 
C 18.09375 0 25.40625 0 27.703125 -0.203125 
L 27.703125 4.0625 
C 25.5 4.0625 21.703125 4.0625 18.90625 5.171875 
C 19.203125 6.09375 19.203125 6.28125 19.40625 6.6875 
L 24.703125 19.71875 
L 51.5 19.71875 
L 57.796875 4.0625 
L 48.40625 4.0625 
L 48.40625 0 
C 51.59375 0 61.296875 0 65.09375 0 
C 68.296875 0 78.5 0 81 -0.203125 
L 81 4.0625 
L 71.5 4.0625 
z
M 38.09375 52.609375 
L 49.703125 24 
L 26.40625 24 
z
" id="CMBX12-65"/>
      <path d="M 3.796875 68.28125 
L 3.796875 64 
L 14.40625 64 
L 14.40625 4.265625 
L 3.796875 4.265625 
L 3.796875 0 
L 45.90625 0 
C 65.09375 0 79.90625 12.234375 79.90625 33.546875 
C 79.90625 56.046875 64.703125 68.28125 45.90625 68.28125 
z
M 27.09375 4.265625 
L 27.09375 64 
L 42.09375 64 
C 50.796875 64 57.796875 60.625 61.5 55.4375 
C 64.40625 51.359375 66.296875 46.484375 66.296875 33.640625 
C 66.296875 21.984375 64.796875 16.828125 61.296875 12.140625 
C 57.796875 7.546875 51.09375 4.265625 42.09375 4.265625 
z
" id="CMBX12-68"/>
      <path d="M 22.296875 61.84375 
C 22.296875 65.921875 19 69 15.09375 69 
C 11 69 7.90625 65.625 7.90625 61.84375 
C 7.90625 58.0625 11 54.6875 15.09375 54.6875 
C 19 54.6875 22.296875 57.765625 22.296875 61.84375 
z
M 4.703125 44 
L 4.703125 39.328125 
C 10.59375 39.328125 11.296875 39.328125 11.296875 35.46875 
L 11.296875 4.0625 
L 4.40625 4.0625 
L 4.40625 -0.203125 
C 6.703125 0 13.59375 0 16.296875 0 
C 19.09375 0 25.5 0 27.90625 -0.203125 
L 27.90625 4.0625 
L 21.703125 4.0625 
L 21.703125 44 
z
" id="CMBX12-105"/>
      <path d="M 84.40625 30.0625 
C 84.40625 39.15625 80.5 44.28125 69.296875 44.28125 
C 59.203125 44.28125 54.5 37.609375 52.90625 34.46875 
C 51.296875 42.8125 44.5 44.28125 38.09375 44.28125 
C 28.5 44.28125 23.296875 38.203125 21.203125 33.484375 
L 21.09375 33.484375 
L 21.09375 44 
L 4.203125 44 
L 4.203125 39.328125 
C 10.40625 39.328125 11.09375 39.328125 11.09375 35.46875 
L 11.09375 4.0625 
L 4.203125 4.0625 
L 4.203125 -0.203125 
C 6.5 0 13.703125 0 16.5 0 
C 19.296875 0 26.59375 0 28.90625 -0.203125 
L 28.90625 4.0625 
L 22 4.0625 
L 22 25.109375 
C 22 35.875 30.09375 41 36.40625 41 
C 40.09375 41 42.296875 38.828125 42.296875 31.140625 
L 42.296875 4.0625 
L 35.40625 4.0625 
L 35.40625 -0.203125 
C 37.703125 0 44.90625 0 47.703125 0 
C 50.5 0 57.796875 0 60.09375 -0.203125 
L 60.09375 4.0625 
L 53.203125 4.0625 
L 53.203125 25.109375 
C 53.203125 35.875 61.296875 41 67.59375 41 
C 71.296875 41 73.5 38.828125 73.5 31.140625 
L 73.5 4.0625 
L 66.59375 4.0625 
L 66.59375 -0.203125 
C 68.90625 0 76.09375 0 78.90625 0 
C 81.703125 0 89 0 91.296875 -0.203125 
L 91.296875 4.0625 
L 84.40625 4.0625 
z
" id="CMBX12-109"/>
      <path d="M 45.203125 22 
C 47.5 22 48.09375 22 48.09375 24.484375 
C 48.09375 27.46875 47.40625 34.890625 42.796875 39.5625 
C 38.59375 43.71875 33 45 27.203125 45 
C 11.59375 45 3.09375 34.890625 3.09375 22.40625 
C 3.09375 8.515625 13.40625 -0.5 28.5 -0.5 
C 43.59375 -0.5 48.09375 10 48.09375 11.6875 
C 48.09375 13.171875 46.59375 13.171875 46 13.171875 
C 44.40625 13.171875 44.296875 12.875 43.703125 11.59375 
C 41.09375 5.15625 34.5 3.078125 29.703125 3.078125 
C 15.203125 3.078125 15.09375 16.453125 15.09375 22 
z
M 15.09375 24.890625 
C 15.296875 28.9375 15.40625 32.8125 17.5 36.375 
C 19.40625 39.546875 22.90625 41.71875 27.203125 41.71875 
C 37.90625 41.71875 38.796875 29.828125 38.90625 24.890625 
z
" id="CMBX12-101"/>
      <path d="M 53.09375 30.0625 
C 53.09375 39.453125 49 44.28125 38 44.28125 
C 30.796875 44.28125 24.59375 40.859375 21.203125 33.484375 
L 21.09375 33.484375 
L 21.09375 44 
L 4.203125 44 
L 4.203125 39.328125 
C 10.40625 39.328125 11.09375 39.328125 11.09375 35.46875 
L 11.09375 4.0625 
L 4.203125 4.0625 
L 4.203125 -0.203125 
C 6.5 0 13.703125 0 16.5 0 
C 19.296875 0 26.59375 0 28.90625 -0.203125 
L 28.90625 4.0625 
L 22 4.0625 
L 22 25.109375 
C 22 35.765625 30 41 36.40625 41 
C 40.09375 41 42.203125 38.640625 42.203125 31.140625 
L 42.203125 4.0625 
L 35.296875 4.0625 
L 35.296875 -0.203125 
C 37.59375 0 44.796875 0 47.59375 0 
C 50.40625 0 57.703125 0 60 -0.203125 
L 60 4.0625 
L 53.09375 4.0625 
z
" id="CMBX12-110"/>
      <path d="M 37.703125 42.421875 
C 37.703125 44.3125 37.703125 45 36.203125 45 
C 35.59375 45 35.40625 45 33.90625 44.109375 
C 33.5 43.8125 32.40625 43.109375 31.90625 42.8125 
C 29.09375 44.40625 25.40625 45 21.796875 45 
C 18.796875 45 3.796875 45 3.796875 32.125 
C 3.796875 21.703125 16.203125 19.53125 19.296875 19.03125 
C 22 18.546875 25.296875 17.9375 25.703125 17.9375 
C 29.703125 17.046875 33.703125 14.5625 33.703125 10.40625 
C 33.703125 2.78125 24.59375 2.78125 22.5 2.78125 
C 17.40625 2.78125 11.09375 4.359375 8.296875 14 
C 7.703125 15.984375 7.59375 15.984375 5.90625 15.984375 
C 3.796875 15.984375 3.796875 15.6875 3.796875 13.40625 
L 3.796875 2.0625 
C 3.796875 0.1875 3.796875 -0.5 5.296875 -0.5 
C 6 -0.5 6.203125 -0.5 8.203125 1.09375 
L 10.796875 2.984375 
C 15.296875 -0.5 20.703125 -0.5 22.5 -0.5 
C 28 -0.5 40.5 0.6875 40.5 13.875 
C 40.5 18.625 37.90625 21.90625 35.90625 23.6875 
C 31.796875 27.046875 28.40625 27.65625 23 28.640625 
C 16.59375 29.734375 10.59375 30.828125 10.59375 35.578125 
C 10.59375 42.015625 19.5 42.015625 21.59375 42.015625 
C 32.703125 42.015625 33.296875 35.078125 33.5 32.609375 
C 33.59375 31.328125 34.40625 31.328125 35.59375 31.328125 
C 37.703125 31.328125 37.703125 31.625 37.703125 33.90625 
z
" id="CMBX12-115"/>
      <path d="M 53 21.796875 
C 53 35.1875 43.796875 45 28.09375 45 
C 11.796875 45 3.09375 34.6875 3.09375 21.796875 
C 3.09375 8.828125 12.296875 -0.5 28 -0.5 
C 44.296875 -0.5 53 9.3125 53 21.796875 
z
M 28.09375 3.078125 
C 15.09375 3.078125 15.09375 14.671875 15.09375 22.796875 
C 15.09375 27.453125 15.09375 32.40625 17 35.984375 
C 19.203125 39.9375 23.703125 41.71875 28 41.71875 
C 33.703125 41.71875 37.296875 39.046875 39 36.28125 
C 41 32.703125 41 27.546875 41 22.796875 
C 41 14.5625 41 3.078125 28.09375 3.078125 
z
" id="CMBX12-111"/>
     </defs>
     <g transform="translate(372.39217 268.72083)scale(0.22 -0.22)">
      <use transform="scale(0.996264)" xlink:href="#CMBX12-80"/>
      <use transform="translate(76.564811 0)scale(0.996264)" xlink:href="#CMBX12-67"/>
      <use transform="translate(157.511261 0)scale(0.996264)" xlink:href="#CMBX12-65"/>
      <use transform="translate(279.507557 0)scale(0.996264)" xlink:href="#CMBX12-68"/>
      <use transform="translate(365.412342 0)scale(0.996264)" xlink:href="#CMBX12-105"/>
      <use transform="translate(396.545593 0)scale(0.996264)" xlink:href="#CMBX12-109"/>
      <use transform="translate(489.945344 0)scale(0.996264)" xlink:href="#CMBX12-101"/>
      <use transform="translate(541.084611 0)scale(0.996264)" xlink:href="#CMBX12-110"/>
      <use transform="translate(603.351111 0)scale(0.996264)" xlink:href="#CMBX12-115"/>
      <use transform="translate(647.560448 0)scale(0.996264)" xlink:href="#CMBX12-105"/>
      <use transform="translate(678.693699 0)scale(0.996264)" xlink:href="#CMBX12-111"/>
      <use transform="translate(734.733549 0)scale(0.996264)" xlink:href="#CMBX12-110"/>
     </g>
    </g>
   </g>
   <g id="matplotlib.axis_2">
    <g id="ytick_1">
     <g id="line2d_11">
      <defs>
       <path d="M 0 0 
L -3.5 0 
" id="m52b5792ab9" style="stroke:#000000;stroke-width:0.8;"/>
      </defs>
      <g>
       <use style="stroke:#000000;stroke-width:0.8;" x="71.78185" xlink:href="#m52b5792ab9" y="198.716339"/>
      </g>
     </g>
     <g id="text_12">
      <!-- $-1$ -->
      <defs>
       <path d="M 75.203125 22 
C 76.703125 22 79.703125 22 79.703125 25 
C 79.703125 28.09375 76.796875 28.09375 75.203125 28.09375 
L 14.09375 28.09375 
C 12.59375 28.09375 9.59375 28.09375 9.59375 25.09375 
C 9.59375 22 12.5 22 14.09375 22 
z
" id="CMBSY10-0"/>
      </defs>
      <g transform="translate(38.55694 204.966339)scale(0.18 -0.18)">
       <use transform="translate(0 -0.049813)scale(0.996264)" xlink:href="#CMBSY10-0"/>
       <use transform="translate(89.109808 -0.049813)scale(0.996264)" xlink:href="#CMBX12-49"/>
      </g>
     </g>
    </g>
    <g id="ytick_2">
     <g id="line2d_12">
      <g>
       <use style="stroke:#000000;stroke-width:0.8;" x="71.78185" xlink:href="#m52b5792ab9" y="123.155164"/>
      </g>
     </g>
     <g id="text_13">
      <!-- $0$ -->
      <g transform="translate(54.65685 129.405164)scale(0.18 -0.18)">
       <use transform="scale(0.996264)" xlink:href="#CMBX12-48"/>
      </g>
     </g>
    </g>
    <g id="ytick_3">
     <g id="line2d_13">
      <g>
       <use style="stroke:#000000;stroke-width:0.8;" x="71.78185" xlink:href="#m52b5792ab9" y="47.593989"/>
      </g>
     </g>
     <g id="text_14">
      <!-- $1$ -->
      <g transform="translate(54.65685 53.843989)scale(0.18 -0.18)">
       <use transform="scale(0.996264)" xlink:href="#CMBX12-49"/>
      </g>
     </g>
    </g>
    <g id="text_15">
     <!-- \textbf{PCA Amplitude} -->
     <defs>
      <path d="M 28.203125 -14.921875 
L 21.296875 -14.921875 
L 21.296875 4.1875 
C 23.796875 2 28.203125 -0.5 34.203125 -0.5 
C 47.90625 -0.5 58.59375 7.703125 58.59375 22.140625 
C 58.59375 35.78125 49.296875 44.578125 35.796875 44.578125 
C 29.90625 44.578125 24.796875 42.78125 20.796875 39.90625 
L 20.796875 44.671875 
L 3.5 44.671875 
L 3.5 40 
C 9.703125 40 10.40625 40 10.40625 36.09375 
L 10.40625 -14.921875 
L 3.5 -14.921875 
L 3.5 -19.1875 
C 5.796875 -19 13 -19 15.796875 -19 
C 18.59375 -19 25.90625 -19 28.203125 -19.1875 
z
M 21.296875 35.09375 
C 25 39.53125 30.296875 41 34.203125 41 
C 40.703125 41 46.59375 35.171875 46.59375 22.140625 
C 46.59375 7.8125 39.40625 2.78125 33 2.78125 
C 28.703125 2.78125 24.40625 4.984375 21.296875 9.6875 
z
" id="CMBX12-112"/>
      <path d="M 21.703125 69 
L 4.40625 69 
L 4.40625 64.328125 
C 10.59375 64.328125 11.296875 64.328125 11.296875 60.40625 
L 11.296875 4.0625 
L 4.40625 4.0625 
L 4.40625 -0.203125 
C 6.703125 0 13.796875 0 16.5 0 
C 19.203125 0 26.296875 0 28.59375 -0.203125 
L 28.59375 4.0625 
L 21.703125 4.0625 
z
" id="CMBX12-108"/>
      <path d="M 21.09375 40 
L 35.5 40 
L 35.5 44.265625 
L 21.09375 44.265625 
L 21.09375 63 
L 16.90625 63 
C 16.796875 53.203125 12 43.375 2.09375 43.375 
L 2.09375 40 
L 10.203125 40 
L 10.203125 12.328125 
C 10.203125 1.78125 18.40625 -0.5 25.59375 -0.5 
C 33 -0.5 37.40625 5.078125 37.40625 12.421875 
L 37.40625 17.703125 
L 33.203125 17.703125 
L 33.203125 12.53125 
C 33.203125 5.953125 30.203125 3.078125 27.09375 3.078125 
C 21.09375 3.078125 21.09375 9.75 21.09375 12.03125 
z
" id="CMBX12-116"/>
      <path d="M 35.296875 44.671875 
L 35.296875 40 
C 41.5 40 42.203125 40 42.203125 36.125 
L 42.203125 16.5 
C 42.203125 8.890625 37.703125 2.78125 29.90625 2.78125 
C 22.40625 2.78125 22 5.265625 22 10.6875 
L 22 44.671875 
L 4.203125 44.671875 
L 4.203125 40 
C 10.40625 40 11.09375 40 11.09375 36.125 
L 11.09375 12.40625 
C 11.09375 2.390625 17.796875 -0.5 28.5 -0.5 
C 30.90625 -0.5 38.296875 -0.5 42.59375 7.75 
L 42.703125 7.75 
L 42.703125 0 
L 60 0 
L 60 4.5625 
C 53.796875 4.5625 53.09375 4.5625 53.09375 8.4375 
L 53.09375 44.671875 
z
" id="CMBX12-117"/>
      <path d="M 34.703125 69 
L 34.703125 64.328125 
C 40.90625 64.328125 41.59375 64.328125 41.59375 60.421875 
L 41.59375 40.234375 
C 39.40625 42.125 35 45 28.09375 45 
C 13.90625 45 3.796875 36.21875 3.796875 22.25 
C 3.796875 7.96875 13.703125 -0.5 27 -0.5 
C 32.5 -0.5 37.203125 1.46875 41.09375 4.859375 
L 41.09375 0 
L 58.90625 0 
L 58.90625 4.5625 
C 52.703125 4.5625 52 4.5625 52 8.4375 
L 52 69 
z
M 41.09375 10.328125 
C 36.90625 4.09375 31.796875 2.78125 28.203125 2.78125 
C 15.796875 2.78125 15.796875 15.453125 15.796875 22.046875 
C 15.796875 26.75 15.796875 31.75 18 35.53125 
C 21.09375 41.125 27 41.71875 29.296875 41.71875 
C 33.40625 41.71875 37.796875 39.9375 41.09375 35.5625 
z
" id="CMBX12-100"/>
     </defs>
     <g transform="translate(30.27777 208.4484)rotate(-90)scale(0.22 -0.22)">
      <use transform="translate(0 -0.072648)scale(0.996264)" xlink:href="#CMBX12-80"/>
      <use transform="translate(76.564811 -0.072648)scale(0.996264)" xlink:href="#CMBX12-67"/>
      <use transform="translate(157.511261 -0.072648)scale(0.996264)" xlink:href="#CMBX12-65"/>
      <use transform="translate(279.507557 -0.072648)scale(0.996264)" xlink:href="#CMBX12-65"/>
      <use transform="translate(364.143951 -0.072648)scale(0.996264)" xlink:href="#CMBX12-109"/>
      <use transform="translate(457.543702 -0.072648)scale(0.996264)" xlink:href="#CMBX12-112"/>
      <use transform="translate(519.810203 -0.072648)scale(0.996264)" xlink:href="#CMBX12-108"/>
      <use transform="translate(550.943453 -0.072648)scale(0.996264)" xlink:href="#CMBX12-105"/>
      <use transform="translate(582.076703 -0.072648)scale(0.996264)" xlink:href="#CMBX12-116"/>
      <use transform="translate(625.663254 -0.072648)scale(0.996264)" xlink:href="#CMBX12-117"/>
      <use transform="translate(687.929754 -0.072648)scale(0.996264)" xlink:href="#CMBX12-100"/>
      <use transform="translate(750.196255 -0.072648)scale(0.996264)" xlink:href="#CMBX12-101"/>
     </g>
    </g>
   </g>
   <g id="line2d_14">
    <path clip-path="url(#p389f46fa0f)" d="M 133.884027 151.395191 
L 133.884027 215.399105 
" style="fill:none;stroke:#000000;stroke-linecap:square;stroke-width:2;"/>
   </g>
   <g id="line2d_15">
    <path clip-path="url(#p389f46fa0f)" d="M 133.884027 94.333902 
L 133.884027 24.542815 
" style="fill:none;stroke:#000000;stroke-linecap:square;stroke-width:2;"/>
   </g>
   <g id="line2d_16">
    <path clip-path="url(#p389f46fa0f)" d="M 129.179316 215.399105 
L 138.588737 215.399105 
" style="fill:none;stroke:#000000;stroke-linecap:square;stroke-width:2;"/>
   </g>
   <g id="line2d_17">
    <path clip-path="url(#p389f46fa0f)" d="M 129.179316 24.542815 
L 138.588737 24.542815 
" style="fill:none;stroke:#000000;stroke-linecap:square;stroke-width:2;"/>
   </g>
   <g id="line2d_18">
    <path clip-path="url(#p389f46fa0f)" d="M 158.975815 148.808088 
L 158.975815 197.629603 
" style="fill:none;stroke:#000000;stroke-linecap:square;stroke-width:2;"/>
   </g>
   <g id="line2d_19">
    <path clip-path="url(#p389f46fa0f)" d="M 158.975815 95.957732 
L 158.975815 74.886107 
" style="fill:none;stroke:#000000;stroke-linecap:square;stroke-width:2;"/>
   </g>
   <g id="line2d_20">
    <path clip-path="url(#p389f46fa0f)" d="M 154.271105 197.629603 
L 163.680526 197.629603 
" style="fill:none;stroke:#000000;stroke-linecap:square;stroke-width:2;"/>
   </g>
   <g id="line2d_21">
    <path clip-path="url(#p389f46fa0f)" d="M 154.271105 74.886107 
L 163.680526 74.886107 
" style="fill:none;stroke:#000000;stroke-linecap:square;stroke-width:2;"/>
   </g>
   <g id="line2d_22">
    <path clip-path="url(#p389f46fa0f)" d="M 209.159392 152.637185 
L 209.159392 179.551145 
" style="fill:none;stroke:#000000;stroke-linecap:square;stroke-width:2;"/>
   </g>
   <g id="line2d_23">
    <path clip-path="url(#p389f46fa0f)" d="M 209.159392 110.699992 
L 209.159392 54.461822 
" style="fill:none;stroke:#000000;stroke-linecap:square;stroke-width:2;"/>
   </g>
   <g id="line2d_24">
    <path clip-path="url(#p389f46fa0f)" d="M 204.454682 179.551145 
L 213.864103 179.551145 
" style="fill:none;stroke:#000000;stroke-linecap:square;stroke-width:2;"/>
   </g>
   <g id="line2d_25">
    <path clip-path="url(#p389f46fa0f)" d="M 204.454682 54.461822 
L 213.864103 54.461822 
" style="fill:none;stroke:#000000;stroke-linecap:square;stroke-width:2;"/>
   </g>
   <g id="line2d_26">
    <path clip-path="url(#p389f46fa0f)" d="M 234.251181 151.097222 
L 234.251181 170.071976 
" style="fill:none;stroke:#000000;stroke-linecap:square;stroke-width:2;"/>
   </g>
   <g id="line2d_27">
    <path clip-path="url(#p389f46fa0f)" d="M 234.251181 90.745578 
L 234.251181 55.164169 
" style="fill:none;stroke:#000000;stroke-linecap:square;stroke-width:2;"/>
   </g>
   <g id="line2d_28">
    <path clip-path="url(#p389f46fa0f)" d="M 229.54647 170.071976 
L 238.955891 170.071976 
" style="fill:none;stroke:#000000;stroke-linecap:square;stroke-width:2;"/>
   </g>
   <g id="line2d_29">
    <path clip-path="url(#p389f46fa0f)" d="M 229.54647 55.164169 
L 238.955891 55.164169 
" style="fill:none;stroke:#000000;stroke-linecap:square;stroke-width:2;"/>
   </g>
   <g id="line2d_30">
    <path clip-path="url(#p389f46fa0f)" d="M 284.434758 151.101402 
L 284.434758 183.181765 
" style="fill:none;stroke:#000000;stroke-linecap:square;stroke-width:2;"/>
   </g>
   <g id="line2d_31">
    <path clip-path="url(#p389f46fa0f)" d="M 284.434758 107.21433 
L 284.434758 59.863269 
" style="fill:none;stroke:#000000;stroke-linecap:square;stroke-width:2;"/>
   </g>
   <g id="line2d_32">
    <path clip-path="url(#p389f46fa0f)" d="M 279.730048 183.181765 
L 289.139468 183.181765 
" style="fill:none;stroke:#000000;stroke-linecap:square;stroke-width:2;"/>
   </g>
   <g id="line2d_33">
    <path clip-path="url(#p389f46fa0f)" d="M 279.730048 59.863269 
L 289.139468 59.863269 
" style="fill:none;stroke:#000000;stroke-linecap:square;stroke-width:2;"/>
   </g>
   <g id="line2d_34">
    <path clip-path="url(#p389f46fa0f)" d="M 309.526546 138.484747 
L 309.526546 182.741339 
" style="fill:none;stroke:#000000;stroke-linecap:square;stroke-width:2;"/>
   </g>
   <g id="line2d_35">
    <path clip-path="url(#p389f46fa0f)" d="M 309.526546 107.636008 
L 309.526546 71.780781 
" style="fill:none;stroke:#000000;stroke-linecap:square;stroke-width:2;"/>
   </g>
   <g id="line2d_36">
    <path clip-path="url(#p389f46fa0f)" d="M 304.821836 182.741339 
L 314.231257 182.741339 
" style="fill:none;stroke:#000000;stroke-linecap:square;stroke-width:2;"/>
   </g>
   <g id="line2d_37">
    <path clip-path="url(#p389f46fa0f)" d="M 304.821836 71.780781 
L 314.231257 71.780781 
" style="fill:none;stroke:#000000;stroke-linecap:square;stroke-width:2;"/>
   </g>
   <g id="line2d_38">
    <path clip-path="url(#p389f46fa0f)" d="M 359.710123 141.189197 
L 359.710123 161.549522 
" style="fill:none;stroke:#000000;stroke-linecap:square;stroke-width:2;"/>
   </g>
   <g id="line2d_39">
    <path clip-path="url(#p389f46fa0f)" d="M 359.710123 123.351785 
L 359.710123 99.417038 
" style="fill:none;stroke:#000000;stroke-linecap:square;stroke-width:2;"/>
   </g>
   <g id="line2d_40">
    <path clip-path="url(#p389f46fa0f)" d="M 355.005413 161.549522 
L 364.414834 161.549522 
" style="fill:none;stroke:#000000;stroke-linecap:square;stroke-width:2;"/>
   </g>
   <g id="line2d_41">
    <path clip-path="url(#p389f46fa0f)" d="M 355.005413 99.417038 
L 364.414834 99.417038 
" style="fill:none;stroke:#000000;stroke-linecap:square;stroke-width:2;"/>
   </g>
   <g id="line2d_42">
    <path clip-path="url(#p389f46fa0f)" d="M 384.801912 121.010033 
L 384.801912 138.371232 
" style="fill:none;stroke:#000000;stroke-linecap:square;stroke-width:2;"/>
   </g>
   <g id="line2d_43">
    <path clip-path="url(#p389f46fa0f)" d="M 384.801912 109.220337 
L 384.801912 91.999729 
" style="fill:none;stroke:#000000;stroke-linecap:square;stroke-width:2;"/>
   </g>
   <g id="line2d_44">
    <path clip-path="url(#p389f46fa0f)" d="M 380.097202 138.371232 
L 389.506622 138.371232 
" style="fill:none;stroke:#000000;stroke-linecap:square;stroke-width:2;"/>
   </g>
   <g id="line2d_45">
    <path clip-path="url(#p389f46fa0f)" d="M 380.097202 91.999729 
L 389.506622 91.999729 
" style="fill:none;stroke:#000000;stroke-linecap:square;stroke-width:2;"/>
   </g>
   <g id="line2d_46">
    <path clip-path="url(#p389f46fa0f)" d="M 434.985489 128.535255 
L 434.985489 147.512245 
" style="fill:none;stroke:#000000;stroke-linecap:square;stroke-width:2;"/>
   </g>
   <g id="line2d_47">
    <path clip-path="url(#p389f46fa0f)" d="M 434.985489 108.508677 
L 434.985489 98.145451 
" style="fill:none;stroke:#000000;stroke-linecap:square;stroke-width:2;"/>
   </g>
   <g id="line2d_48">
    <path clip-path="url(#p389f46fa0f)" d="M 430.280779 147.512245 
L 439.690199 147.512245 
" style="fill:none;stroke:#000000;stroke-linecap:square;stroke-width:2;"/>
   </g>
   <g id="line2d_49">
    <path clip-path="url(#p389f46fa0f)" d="M 430.280779 98.145451 
L 439.690199 98.145451 
" style="fill:none;stroke:#000000;stroke-linecap:square;stroke-width:2;"/>
   </g>
   <g id="line2d_50">
    <path clip-path="url(#p389f46fa0f)" d="M 460.077278 137.626997 
L 460.077278 148.438283 
" style="fill:none;stroke:#000000;stroke-linecap:square;stroke-width:2;"/>
   </g>
   <g id="line2d_51">
    <path clip-path="url(#p389f46fa0f)" d="M 460.077278 121.940096 
L 460.077278 106.09186 
" style="fill:none;stroke:#000000;stroke-linecap:square;stroke-width:2;"/>
   </g>
   <g id="line2d_52">
    <path clip-path="url(#p389f46fa0f)" d="M 455.372567 148.438283 
L 464.781988 148.438283 
" style="fill:none;stroke:#000000;stroke-linecap:square;stroke-width:2;"/>
   </g>
   <g id="line2d_53">
    <path clip-path="url(#p389f46fa0f)" d="M 455.372567 106.09186 
L 464.781988 106.09186 
" style="fill:none;stroke:#000000;stroke-linecap:square;stroke-width:2;"/>
   </g>
   <g id="line2d_54">
    <path clip-path="url(#p389f46fa0f)" d="M 510.260855 129.633545 
L 510.260855 149.0113 
" style="fill:none;stroke:#000000;stroke-linecap:square;stroke-width:2;"/>
   </g>
   <g id="line2d_55">
    <path clip-path="url(#p389f46fa0f)" d="M 510.260855 116.434823 
L 510.260855 98.807147 
" style="fill:none;stroke:#000000;stroke-linecap:square;stroke-width:2;"/>
   </g>
   <g id="line2d_56">
    <path clip-path="url(#p389f46fa0f)" d="M 505.556144 149.0113 
L 514.965565 149.0113 
" style="fill:none;stroke:#000000;stroke-linecap:square;stroke-width:2;"/>
   </g>
   <g id="line2d_57">
    <path clip-path="url(#p389f46fa0f)" d="M 505.556144 98.807147 
L 514.965565 98.807147 
" style="fill:none;stroke:#000000;stroke-linecap:square;stroke-width:2;"/>
   </g>
   <g id="line2d_58">
    <path clip-path="url(#p389f46fa0f)" d="M 535.352643 130.908042 
L 535.352643 139.156947 
" style="fill:none;stroke:#000000;stroke-linecap:square;stroke-width:2;"/>
   </g>
   <g id="line2d_59">
    <path clip-path="url(#p389f46fa0f)" d="M 535.352643 120.554226 
L 535.352643 105.294984 
" style="fill:none;stroke:#000000;stroke-linecap:square;stroke-width:2;"/>
   </g>
   <g id="line2d_60">
    <path clip-path="url(#p389f46fa0f)" d="M 530.647933 139.156947 
L 540.057354 139.156947 
" style="fill:none;stroke:#000000;stroke-linecap:square;stroke-width:2;"/>
   </g>
   <g id="line2d_61">
    <path clip-path="url(#p389f46fa0f)" d="M 530.647933 105.294984 
L 540.057354 105.294984 
" style="fill:none;stroke:#000000;stroke-linecap:square;stroke-width:2;"/>
   </g>
   <g id="line2d_62">
    <path clip-path="url(#p389f46fa0f)" d="M 585.53622 126.205756 
L 585.53622 139.513318 
" style="fill:none;stroke:#000000;stroke-linecap:square;stroke-width:2;"/>
   </g>
   <g id="line2d_63">
    <path clip-path="url(#p389f46fa0f)" d="M 585.53622 114.698858 
L 585.53622 98.816276 
" style="fill:none;stroke:#000000;stroke-linecap:square;stroke-width:2;"/>
   </g>
   <g id="line2d_64">
    <path clip-path="url(#p389f46fa0f)" d="M 580.83151 139.513318 
L 590.240931 139.513318 
" style="fill:none;stroke:#000000;stroke-linecap:square;stroke-width:2;"/>
   </g>
   <g id="line2d_65">
    <path clip-path="url(#p389f46fa0f)" d="M 580.83151 98.816276 
L 590.240931 98.816276 
" style="fill:none;stroke:#000000;stroke-linecap:square;stroke-width:2;"/>
   </g>
   <g id="line2d_66">
    <path clip-path="url(#p389f46fa0f)" d="M 610.628009 135.445999 
L 610.628009 147.14241 
" style="fill:none;stroke:#000000;stroke-linecap:square;stroke-width:2;"/>
   </g>
   <g id="line2d_67">
    <path clip-path="url(#p389f46fa0f)" d="M 610.628009 121.316957 
L 610.628009 101.574292 
" style="fill:none;stroke:#000000;stroke-linecap:square;stroke-width:2;"/>
   </g>
   <g id="line2d_68">
    <path clip-path="url(#p389f46fa0f)" d="M 605.923299 147.14241 
L 615.332719 147.14241 
" style="fill:none;stroke:#000000;stroke-linecap:square;stroke-width:2;"/>
   </g>
   <g id="line2d_69">
    <path clip-path="url(#p389f46fa0f)" d="M 605.923299 101.574292 
L 615.332719 101.574292 
" style="fill:none;stroke:#000000;stroke-linecap:square;stroke-width:2;"/>
   </g>
   <g id="line2d_70">
    <path clip-path="url(#p389f46fa0f)" d="M 660.811586 126.936684 
L 660.811586 141.505723 
" style="fill:none;stroke:#000000;stroke-linecap:square;stroke-width:2;"/>
   </g>
   <g id="line2d_71">
    <path clip-path="url(#p389f46fa0f)" d="M 660.811586 116.016043 
L 660.811586 102.657508 
" style="fill:none;stroke:#000000;stroke-linecap:square;stroke-width:2;"/>
   </g>
   <g id="line2d_72">
    <path clip-path="url(#p389f46fa0f)" d="M 656.106876 141.505723 
L 665.516296 141.505723 
" style="fill:none;stroke:#000000;stroke-linecap:square;stroke-width:2;"/>
   </g>
   <g id="line2d_73">
    <path clip-path="url(#p389f46fa0f)" d="M 656.106876 102.657508 
L 665.516296 102.657508 
" style="fill:none;stroke:#000000;stroke-linecap:square;stroke-width:2;"/>
   </g>
   <g id="line2d_74">
    <path clip-path="url(#p389f46fa0f)" d="M 685.903374 131.641969 
L 685.903374 147.854625 
" style="fill:none;stroke:#000000;stroke-linecap:square;stroke-width:2;"/>
   </g>
   <g id="line2d_75">
    <path clip-path="url(#p389f46fa0f)" d="M 685.903374 119.083878 
L 685.903374 112.522971 
" style="fill:none;stroke:#000000;stroke-linecap:square;stroke-width:2;"/>
   </g>
   <g id="line2d_76">
    <path clip-path="url(#p389f46fa0f)" d="M 681.198664 147.854625 
L 690.608085 147.854625 
" style="fill:none;stroke:#000000;stroke-linecap:square;stroke-width:2;"/>
   </g>
   <g id="line2d_77">
    <path clip-path="url(#p389f46fa0f)" d="M 681.198664 112.522971 
L 690.608085 112.522971 
" style="fill:none;stroke:#000000;stroke-linecap:square;stroke-width:2;"/>
   </g>
   <g id="line2d_78">
    <path clip-path="url(#p389f46fa0f)" d="M 736.086952 130.180409 
L 736.086952 142.479085 
" style="fill:none;stroke:#000000;stroke-linecap:square;stroke-width:2;"/>
   </g>
   <g id="line2d_79">
    <path clip-path="url(#p389f46fa0f)" d="M 736.086952 118.971964 
L 736.086952 103.764919 
" style="fill:none;stroke:#000000;stroke-linecap:square;stroke-width:2;"/>
   </g>
   <g id="line2d_80">
    <path clip-path="url(#p389f46fa0f)" d="M 731.382241 142.479085 
L 740.791662 142.479085 
" style="fill:none;stroke:#000000;stroke-linecap:square;stroke-width:2;"/>
   </g>
   <g id="line2d_81">
    <path clip-path="url(#p389f46fa0f)" d="M 731.382241 103.764919 
L 740.791662 103.764919 
" style="fill:none;stroke:#000000;stroke-linecap:square;stroke-width:2;"/>
   </g>
   <g id="line2d_82">
    <path clip-path="url(#p389f46fa0f)" d="M 761.17874 129.503402 
L 761.17874 142.840795 
" style="fill:none;stroke:#000000;stroke-linecap:square;stroke-width:2;"/>
   </g>
   <g id="line2d_83">
    <path clip-path="url(#p389f46fa0f)" d="M 761.17874 115.726912 
L 761.17874 102.852035 
" style="fill:none;stroke:#000000;stroke-linecap:square;stroke-width:2;"/>
   </g>
   <g id="line2d_84">
    <path clip-path="url(#p389f46fa0f)" d="M 756.47403 142.840795 
L 765.88345 142.840795 
" style="fill:none;stroke:#000000;stroke-linecap:square;stroke-width:2;"/>
   </g>
   <g id="line2d_85">
    <path clip-path="url(#p389f46fa0f)" d="M 756.47403 102.852035 
L 765.88345 102.852035 
" style="fill:none;stroke:#000000;stroke-linecap:square;stroke-width:2;"/>
   </g>
   <g id="line2d_86">
    <path clip-path="url(#p389f46fa0f)" d="M 811.362317 127.080733 
L 811.362317 139.862632 
" style="fill:none;stroke:#000000;stroke-linecap:square;stroke-width:2;"/>
   </g>
   <g id="line2d_87">
    <path clip-path="url(#p389f46fa0f)" d="M 811.362317 116.693106 
L 811.362317 104.171753 
" style="fill:none;stroke:#000000;stroke-linecap:square;stroke-width:2;"/>
   </g>
   <g id="line2d_88">
    <path clip-path="url(#p389f46fa0f)" d="M 806.657607 139.862632 
L 816.067028 139.862632 
" style="fill:none;stroke:#000000;stroke-linecap:square;stroke-width:2;"/>
   </g>
   <g id="line2d_89">
    <path clip-path="url(#p389f46fa0f)" d="M 806.657607 104.171753 
L 816.067028 104.171753 
" style="fill:none;stroke:#000000;stroke-linecap:square;stroke-width:2;"/>
   </g>
   <g id="line2d_90">
    <path clip-path="url(#p389f46fa0f)" d="M 836.454106 131.259293 
L 836.454106 145.686641 
" style="fill:none;stroke:#000000;stroke-linecap:square;stroke-width:2;"/>
   </g>
   <g id="line2d_91">
    <path clip-path="url(#p389f46fa0f)" d="M 836.454106 120.4733 
L 836.454106 104.531273 
" style="fill:none;stroke:#000000;stroke-linecap:square;stroke-width:2;"/>
   </g>
   <g id="line2d_92">
    <path clip-path="url(#p389f46fa0f)" d="M 831.749395 145.686641 
L 841.158816 145.686641 
" style="fill:none;stroke:#000000;stroke-linecap:square;stroke-width:2;"/>
   </g>
   <g id="line2d_93">
    <path clip-path="url(#p389f46fa0f)" d="M 831.749395 104.531273 
L 841.158816 104.531273 
" style="fill:none;stroke:#000000;stroke-linecap:square;stroke-width:2;"/>
   </g>
   <g id="patch_3">
    <path clip-path="url(#p389f46fa0f)" d="M 124.474606 151.395191 
L 143.293447 151.395191 
L 143.293447 94.333902 
L 124.474606 94.333902 
L 124.474606 151.395191 
z
" style="fill:#e41a1c;stroke:#e41a1c;stroke-linejoin:miter;stroke-width:2;"/>
   </g>
   <g id="patch_4">
    <path clip-path="url(#p389f46fa0f)" d="M 149.566394 148.808088 
L 168.385236 148.808088 
L 168.385236 95.957732 
L 149.566394 95.957732 
L 149.566394 148.808088 
z
" style="fill:#377eb8;stroke:#377eb8;stroke-linejoin:miter;stroke-width:2;"/>
   </g>
   <g id="patch_5">
    <path clip-path="url(#p389f46fa0f)" d="M 199.749972 152.637185 
L 218.568813 152.637185 
L 218.568813 110.699992 
L 199.749972 110.699992 
L 199.749972 152.637185 
z
" style="fill:#e41a1c;stroke:#e41a1c;stroke-linejoin:miter;stroke-width:2;"/>
   </g>
   <g id="patch_6">
    <path clip-path="url(#p389f46fa0f)" d="M 224.84176 151.097222 
L 243.660601 151.097222 
L 243.660601 90.745578 
L 224.84176 90.745578 
L 224.84176 151.097222 
z
" style="fill:#377eb8;stroke:#377eb8;stroke-linejoin:miter;stroke-width:2;"/>
   </g>
   <g id="patch_7">
    <path clip-path="url(#p389f46fa0f)" d="M 275.025337 151.101402 
L 293.844179 151.101402 
L 293.844179 107.21433 
L 275.025337 107.21433 
L 275.025337 151.101402 
z
" style="fill:#e41a1c;stroke:#e41a1c;stroke-linejoin:miter;stroke-width:2;"/>
   </g>
   <g id="patch_8">
    <path clip-path="url(#p389f46fa0f)" d="M 300.117126 138.484747 
L 318.935967 138.484747 
L 318.935967 107.636008 
L 300.117126 107.636008 
L 300.117126 138.484747 
z
" style="fill:#377eb8;stroke:#377eb8;stroke-linejoin:miter;stroke-width:2;"/>
   </g>
   <g id="patch_9">
    <path clip-path="url(#p389f46fa0f)" d="M 350.300703 141.189197 
L 369.119544 141.189197 
L 369.119544 123.351785 
L 350.300703 123.351785 
L 350.300703 141.189197 
z
" style="fill:#e41a1c;stroke:#e41a1c;stroke-linejoin:miter;stroke-width:2;"/>
   </g>
   <g id="patch_10">
    <path clip-path="url(#p389f46fa0f)" d="M 375.392491 121.010033 
L 394.211333 121.010033 
L 394.211333 109.220337 
L 375.392491 109.220337 
L 375.392491 121.010033 
z
" style="fill:#377eb8;stroke:#377eb8;stroke-linejoin:miter;stroke-width:2;"/>
   </g>
   <g id="patch_11">
    <path clip-path="url(#p389f46fa0f)" d="M 425.576068 128.535255 
L 444.39491 128.535255 
L 444.39491 108.508677 
L 425.576068 108.508677 
L 425.576068 128.535255 
z
" style="fill:#e41a1c;stroke:#e41a1c;stroke-linejoin:miter;stroke-width:2;"/>
   </g>
   <g id="patch_12">
    <path clip-path="url(#p389f46fa0f)" d="M 450.667857 137.626997 
L 469.486698 137.626997 
L 469.486698 121.940096 
L 450.667857 121.940096 
L 450.667857 137.626997 
z
" style="fill:#377eb8;stroke:#377eb8;stroke-linejoin:miter;stroke-width:2;"/>
   </g>
   <g id="patch_13">
    <path clip-path="url(#p389f46fa0f)" d="M 500.851434 129.633545 
L 519.670275 129.633545 
L 519.670275 116.434823 
L 500.851434 116.434823 
L 500.851434 129.633545 
z
" style="fill:#e41a1c;stroke:#e41a1c;stroke-linejoin:miter;stroke-width:2;"/>
   </g>
   <g id="patch_14">
    <path clip-path="url(#p389f46fa0f)" d="M 525.943223 130.908042 
L 544.762064 130.908042 
L 544.762064 120.554226 
L 525.943223 120.554226 
L 525.943223 130.908042 
z
" style="fill:#377eb8;stroke:#377eb8;stroke-linejoin:miter;stroke-width:2;"/>
   </g>
   <g id="patch_15">
    <path clip-path="url(#p389f46fa0f)" d="M 576.1268 126.205756 
L 594.945641 126.205756 
L 594.945641 114.698858 
L 576.1268 114.698858 
L 576.1268 126.205756 
z
" style="fill:#e41a1c;stroke:#e41a1c;stroke-linejoin:miter;stroke-width:2;"/>
   </g>
   <g id="patch_16">
    <path clip-path="url(#p389f46fa0f)" d="M 601.218588 135.445999 
L 620.03743 135.445999 
L 620.03743 121.316957 
L 601.218588 121.316957 
L 601.218588 135.445999 
z
" style="fill:#377eb8;stroke:#377eb8;stroke-linejoin:miter;stroke-width:2;"/>
   </g>
   <g id="patch_17">
    <path clip-path="url(#p389f46fa0f)" d="M 651.402165 126.936684 
L 670.221007 126.936684 
L 670.221007 116.016043 
L 651.402165 116.016043 
L 651.402165 126.936684 
z
" style="fill:#e41a1c;stroke:#e41a1c;stroke-linejoin:miter;stroke-width:2;"/>
   </g>
   <g id="patch_18">
    <path clip-path="url(#p389f46fa0f)" d="M 676.493954 131.641969 
L 695.312795 131.641969 
L 695.312795 119.083878 
L 676.493954 119.083878 
L 676.493954 131.641969 
z
" style="fill:#377eb8;stroke:#377eb8;stroke-linejoin:miter;stroke-width:2;"/>
   </g>
   <g id="patch_19">
    <path clip-path="url(#p389f46fa0f)" d="M 726.677531 130.180409 
L 745.496372 130.180409 
L 745.496372 118.971964 
L 726.677531 118.971964 
L 726.677531 130.180409 
z
" style="fill:#e41a1c;stroke:#e41a1c;stroke-linejoin:miter;stroke-width:2;"/>
   </g>
   <g id="patch_20">
    <path clip-path="url(#p389f46fa0f)" d="M 751.769319 129.503402 
L 770.588161 129.503402 
L 770.588161 115.726912 
L 751.769319 115.726912 
L 751.769319 129.503402 
z
" style="fill:#377eb8;stroke:#377eb8;stroke-linejoin:miter;stroke-width:2;"/>
   </g>
   <g id="patch_21">
    <path clip-path="url(#p389f46fa0f)" d="M 801.952896 127.080733 
L 820.771738 127.080733 
L 820.771738 116.693106 
L 801.952896 116.693106 
L 801.952896 127.080733 
z
" style="fill:#e41a1c;stroke:#e41a1c;stroke-linejoin:miter;stroke-width:2;"/>
   </g>
   <g id="patch_22">
    <path clip-path="url(#p389f46fa0f)" d="M 827.044685 131.259293 
L 845.863526 131.259293 
L 845.863526 120.4733 
L 827.044685 120.4733 
L 827.044685 131.259293 
z
" style="fill:#377eb8;stroke:#377eb8;stroke-linejoin:miter;stroke-width:2;"/>
   </g>
   <g id="line2d_94">
    <path clip-path="url(#p389f46fa0f)" d="M 124.474606 110.450039 
L 143.293447 110.450039 
" style="fill:none;stroke:#000000;stroke-linecap:square;stroke-width:2;"/>
   </g>
   <g id="line2d_95">
    <path clip-path="url(#p389f46fa0f)" d="M 149.566394 113.07393 
L 168.385236 113.07393 
" style="fill:none;stroke:#000000;stroke-linecap:square;stroke-width:2;"/>
   </g>
   <g id="line2d_96">
    <path clip-path="url(#p389f46fa0f)" d="M 199.749972 142.824661 
L 218.568813 142.824661 
" style="fill:none;stroke:#000000;stroke-linecap:square;stroke-width:2;"/>
   </g>
   <g id="line2d_97">
    <path clip-path="url(#p389f46fa0f)" d="M 224.84176 130.879632 
L 243.660601 130.879632 
" style="fill:none;stroke:#000000;stroke-linecap:square;stroke-width:2;"/>
   </g>
   <g id="line2d_98">
    <path clip-path="url(#p389f46fa0f)" d="M 275.025337 117.787405 
L 293.844179 117.787405 
" style="fill:none;stroke:#000000;stroke-linecap:square;stroke-width:2;"/>
   </g>
   <g id="line2d_99">
    <path clip-path="url(#p389f46fa0f)" d="M 300.117126 116.272141 
L 318.935967 116.272141 
" style="fill:none;stroke:#000000;stroke-linecap:square;stroke-width:2;"/>
   </g>
   <g id="line2d_100">
    <path clip-path="url(#p389f46fa0f)" d="M 350.300703 132.343439 
L 369.119544 132.343439 
" style="fill:none;stroke:#000000;stroke-linecap:square;stroke-width:2;"/>
   </g>
   <g id="line2d_101">
    <path clip-path="url(#p389f46fa0f)" d="M 375.392491 115.742088 
L 394.211333 115.742088 
" style="fill:none;stroke:#000000;stroke-linecap:square;stroke-width:2;"/>
   </g>
   <g id="line2d_102">
    <path clip-path="url(#p389f46fa0f)" d="M 425.576068 116.505056 
L 444.39491 116.505056 
" style="fill:none;stroke:#000000;stroke-linecap:square;stroke-width:2;"/>
   </g>
   <g id="line2d_103">
    <path clip-path="url(#p389f46fa0f)" d="M 450.667857 129.681278 
L 469.486698 129.681278 
" style="fill:none;stroke:#000000;stroke-linecap:square;stroke-width:2;"/>
   </g>
   <g id="line2d_104">
    <path clip-path="url(#p389f46fa0f)" d="M 500.851434 122.894851 
L 519.670275 122.894851 
" style="fill:none;stroke:#000000;stroke-linecap:square;stroke-width:2;"/>
   </g>
   <g id="line2d_105">
    <path clip-path="url(#p389f46fa0f)" d="M 525.943223 126.075255 
L 544.762064 126.075255 
" style="fill:none;stroke:#000000;stroke-linecap:square;stroke-width:2;"/>
   </g>
   <g id="line2d_106">
    <path clip-path="url(#p389f46fa0f)" d="M 576.1268 120.622259 
L 594.945641 120.622259 
" style="fill:none;stroke:#000000;stroke-linecap:square;stroke-width:2;"/>
   </g>
   <g id="line2d_107">
    <path clip-path="url(#p389f46fa0f)" d="M 601.218588 128.694379 
L 620.03743 128.694379 
" style="fill:none;stroke:#000000;stroke-linecap:square;stroke-width:2;"/>
   </g>
   <g id="line2d_108">
    <path clip-path="url(#p389f46fa0f)" d="M 651.402165 121.06168 
L 670.221007 121.06168 
" style="fill:none;stroke:#000000;stroke-linecap:square;stroke-width:2;"/>
   </g>
   <g id="line2d_109">
    <path clip-path="url(#p389f46fa0f)" d="M 676.493954 124.939463 
L 695.312795 124.939463 
" style="fill:none;stroke:#000000;stroke-linecap:square;stroke-width:2;"/>
   </g>
   <g id="line2d_110">
    <path clip-path="url(#p389f46fa0f)" d="M 726.677531 124.74096 
L 745.496372 124.74096 
" style="fill:none;stroke:#000000;stroke-linecap:square;stroke-width:2;"/>
   </g>
   <g id="line2d_111">
    <path clip-path="url(#p389f46fa0f)" d="M 751.769319 122.148498 
L 770.588161 122.148498 
" style="fill:none;stroke:#000000;stroke-linecap:square;stroke-width:2;"/>
   </g>
   <g id="line2d_112">
    <path clip-path="url(#p389f46fa0f)" d="M 801.952896 121.550972 
L 820.771738 121.550972 
" style="fill:none;stroke:#000000;stroke-linecap:square;stroke-width:2;"/>
   </g>
   <g id="line2d_113">
    <path clip-path="url(#p389f46fa0f)" d="M 827.044685 125.06174 
L 845.863526 125.06174 
" style="fill:none;stroke:#000000;stroke-linecap:square;stroke-width:2;"/>
   </g>
   <g id="patch_23">
    <path d="M 71.78185 224.94192 
L 71.78185 15 
" style="fill:none;stroke:#000000;stroke-linecap:square;stroke-linejoin:miter;stroke-width:0.8;"/>
   </g>
   <g id="patch_24">
    <path d="M 849 224.94192 
L 849 15 
" style="fill:none;"/>
   </g>
   <g id="patch_25">
    <path d="M 71.78185 224.94192 
L 849 224.94192 
" style="fill:none;stroke:#000000;stroke-linecap:square;stroke-linejoin:miter;stroke-width:0.8;"/>
   </g>
   <g id="patch_26">
    <path d="M 71.78185 15 
L 849 15 
" style="fill:none;"/>
   </g>
   <g id="legend_1">
    <g id="patch_27">
     <path d="M 710.95367 66.0222 
L 844.2 66.0222 
Q 847.4 66.0222 847.4 62.8222 
L 847.4 19.8 
Q 847.4 16.6 844.2 16.6 
L 710.95367 16.6 
Q 707.75367 16.6 707.75367 19.8 
L 707.75367 62.8222 
Q 707.75367 66.0222 710.95367 66.0222 
z
" style="fill:none;opacity:0;"/>
    </g>
    <g id="line2d_114">
     <path d="M 714.15367 28.6 
L 746.15367 28.6 
" style="fill:none;stroke:#e41a1c;stroke-linecap:square;stroke-width:2;"/>
    </g>
    <g id="line2d_115"/>
    <g id="text_16">
     <!-- \textbf{Healthy} -->
     <defs>
      <path d="M 73.5 63.828125 
L 84.09375 63.828125 
L 84.09375 68 
C 81.203125 68 70.5 68 66.90625 68 
C 63.296875 68 52.59375 68 49.703125 68 
L 49.703125 63.828125 
L 60.296875 63.828125 
L 60.296875 37.265625 
L 27.59375 37.265625 
L 27.59375 63.828125 
L 38.203125 63.828125 
L 38.203125 68 
C 35.296875 68 24.59375 68 21 68 
C 17.40625 68 6.703125 68 3.796875 68 
L 3.796875 63.828125 
L 14.40625 63.828125 
L 14.40625 4.171875 
L 3.796875 4.171875 
L 3.796875 0 
C 6.703125 0 17.40625 0 21 0 
C 24.59375 0 35.296875 0 38.203125 0 
L 38.203125 4.171875 
L 27.59375 4.171875 
L 27.59375 33 
L 60.296875 33 
L 60.296875 4.171875 
L 49.703125 4.171875 
L 49.703125 0 
C 52.59375 0 63.296875 0 66.90625 0 
C 70.5 0 81.203125 0 84.09375 0 
L 84.09375 4.171875 
L 73.5 4.171875 
z
" id="CMBX12-72"/>
      <path d="M 46 29.65625 
C 46 38.8125 38.703125 44.984375 24.59375 44.984375 
C 19 44.984375 7.203125 44.984375 7.203125 36.46875 
C 7.203125 32.203125 10.40625 30.390625 13.09375 30.390625 
C 16.09375 30.390625 19 32.484375 19 36.296875 
C 19 38.203125 18.296875 39.984375 16.59375 41.09375 
C 19.90625 42 22.296875 42 24.203125 42 
C 31 42 35.09375 38.203125 35.09375 29.984375 
L 35.09375 25.984375 
C 19.296875 25.984375 3.40625 21.59375 3.40625 10.5625 
C 3.40625 1.484375 15 -0.5 21.90625 -0.5 
C 29.59375 -0.5 34.5 3.640625 36.5 7.96875 
C 36.5 4.28125 36.5 0 46.59375 0 
L 51.703125 0 
C 53.796875 0 54.59375 0 54.59375 2.265625 
C 54.59375 4.265625 53.703125 4.265625 52.296875 4.265625 
C 46 4.265625 46 5.84375 46 8.15625 
z
M 35.09375 13.78125 
C 35.09375 4.546875 26.703125 2.78125 23.5 2.78125 
C 18.59375 2.78125 14.5 6.09375 14.5 10.71875 
C 14.5 19.890625 25.296875 23 35.09375 23 
z
" id="CMBX12-97"/>
      <path d="M 53.09375 30.0625 
C 53.09375 39.453125 49 44.28125 38 44.28125 
C 27.90625 44.28125 23 37.25 21.59375 34.28125 
L 21.5 34.28125 
L 21.5 69 
L 4.203125 69 
L 4.203125 64.328125 
C 10.40625 64.328125 11.09375 64.328125 11.09375 60.28125 
L 11.09375 4.0625 
L 4.203125 4.0625 
L 4.203125 -0.203125 
C 6.5 0 13.703125 0 16.5 0 
C 19.296875 0 26.59375 0 28.90625 -0.203125 
L 28.90625 4.0625 
L 22 4.0625 
L 22 25.109375 
C 22 35.765625 30 41 36.40625 41 
C 40.09375 41 42.203125 38.640625 42.203125 31.140625 
L 42.203125 4.0625 
L 35.296875 4.0625 
L 35.296875 -0.203125 
C 37.59375 0 44.796875 0 47.59375 0 
C 50.40625 0 57.703125 0 60 -0.203125 
L 60 4.0625 
L 53.09375 4.0625 
z
" id="CMBX12-104"/>
      <path d="M 49.5 37.828125 
C 50.09375 39.203125 50.5 40 56.90625 40 
L 56.90625 44.171875 
C 53.5 44.171875 53.09375 44.171875 49 44.171875 
C 46.296875 44.171875 46.09375 44.171875 40.40625 44.171875 
L 40.40625 40 
C 40.5 40 45.203125 40 45.203125 38.71875 
C 45.203125 38.421875 44.90625 37.828125 44.796875 37.53125 
L 33.09375 12.578125 
L 20.296875 40 
L 25.796875 40 
L 25.796875 44.265625 
C 23.40625 44.171875 16.59375 44.171875 13.796875 44.171875 
C 10.90625 44.171875 5 44.171875 2.40625 44.265625 
L 2.40625 40 
L 8.796875 40 
L 27.296875 0.3125 
C 26.796875 -0.875 25.40625 -3.75 24.90625 -4.9375 
C 22.796875 -9.390625 19.59375 -16.21875 12.59375 -16.21875 
C 12.203125 -16.21875 11 -16.21875 9.90625 -15.625 
C 10.09375 -15.515625 13.09375 -14.328125 13.09375 -10.5625 
C 13.09375 -7.3125 10.703125 -5.234375 7.703125 -5.234375 
C 4.59375 -5.234375 2.203125 -7.328125 2.203125 -10.6875 
C 2.203125 -15.34375 6.59375 -19.5 12.59375 -19.5 
C 20.796875 -19.5 26.203125 -12.171875 28.203125 -7.8125 
z
" id="CMBX12-121"/>
     </defs>
     <g transform="translate(758.95367 34.2)scale(0.16 -0.16)">
      <use transform="translate(0 -0.072648)scale(0.996264)" xlink:href="#CMBX12-72"/>
      <use transform="translate(87.634475 -0.072648)scale(0.996264)" xlink:href="#CMBX12-101"/>
      <use transform="translate(138.773742 -0.072648)scale(0.996264)" xlink:href="#CMBX12-97"/>
      <use transform="translate(193.25693 -0.072648)scale(0.996264)" xlink:href="#CMBX12-108"/>
      <use transform="translate(224.39018 -0.072648)scale(0.996264)" xlink:href="#CMBX12-116"/>
      <use transform="translate(267.976731 -0.072648)scale(0.996264)" xlink:href="#CMBX12-104"/>
      <use transform="translate(327.129907 -0.072648)scale(0.996264)" xlink:href="#CMBX12-121"/>
     </g>
    </g>
    <g id="line2d_116">
     <path d="M 714.15367 50.9111 
L 746.15367 50.9111 
" style="fill:none;stroke:#377eb8;stroke-linecap:square;stroke-width:2;"/>
    </g>
    <g id="line2d_117"/>
    <g id="text_17">
     <!-- \textbf{Unhealthy} -->
     <defs>
      <path d="M 72 61.109375 
C 72 63.296875 72.09375 63.40625 74.703125 63.796875 
C 76.5 64 78.5 64 80.296875 64 
L 82.59375 64 
L 82.59375 68.375 
C 80.296875 68.171875 72.5 68.171875 69.703125 68.171875 
C 66.90625 68.171875 59.09375 68.171875 56.796875 68.375 
L 56.796875 64 
L 59.09375 64 
C 61.796875 64 62 64 64.40625 63.703125 
C 67.296875 63.3125 67.40625 63.203125 67.40625 61.015625 
L 67.40625 23.21875 
C 67.40625 9.03125 57.296875 3.265625 45.5 3.265625 
C 28 3.265625 27.59375 16.5625 27.59375 22.328125 
L 27.59375 64 
L 38.203125 64 
L 38.203125 68.171875 
C 35.296875 68.171875 24.59375 68.171875 21 68.171875 
C 17.40625 68.171875 6.703125 68.171875 3.796875 68.171875 
L 3.796875 64 
L 14.40625 64 
L 14.40625 23.015625 
C 14.40625 9.90625 25 -1 45.09375 -1 
C 63.59375 -1 72 10.421875 72 22.953125 
z
" id="CMBX12-85"/>
     </defs>
     <g transform="translate(758.95367 56.5111)scale(0.16 -0.16)">
      <use transform="translate(0 -0.072648)scale(0.996264)" xlink:href="#CMBX12-85"/>
      <use transform="translate(86.135473 -0.072648)scale(0.996264)" xlink:href="#CMBX12-110"/>
      <use transform="translate(148.401973 -0.072648)scale(0.996264)" xlink:href="#CMBX12-104"/>
      <use transform="translate(210.668474 -0.072648)scale(0.996264)" xlink:href="#CMBX12-101"/>
      <use transform="translate(261.807741 -0.072648)scale(0.996264)" xlink:href="#CMBX12-97"/>
      <use transform="translate(316.290929 -0.072648)scale(0.996264)" xlink:href="#CMBX12-108"/>
      <use transform="translate(347.42418 -0.072648)scale(0.996264)" xlink:href="#CMBX12-116"/>
      <use transform="translate(391.01073 -0.072648)scale(0.996264)" xlink:href="#CMBX12-104"/>
      <use transform="translate(450.163906 -0.072648)scale(0.996264)" xlink:href="#CMBX12-121"/>
     </g>
    </g>
   </g>
  </g>
 </g>
 <defs>
  <clipPath id="p389f46fa0f">
   <rect height="209.94192" width="777.21815" x="71.78185" y="15"/>
  </clipPath>
 </defs>
</svg>
