<?xml version="1.0" encoding="utf-8" standalone="no"?>
<!DOCTYPE svg PUBLIC "-//W3C//DTD SVG 1.1//EN"
  "http://www.w3.org/Graphics/SVG/1.1/DTD/svg11.dtd">
<!-- Created with matplotlib (https://matplotlib.org/) -->
<svg height="288pt" version="1.1" viewBox="0 0 864 288" width="864pt" xmlns="http://www.w3.org/2000/svg" xmlns:xlink="http://www.w3.org/1999/xlink">
 <defs>
  <style type="text/css">
*{stroke-linecap:butt;stroke-linejoin:round;}
  </style>
 </defs>
 <g id="figure_1">
  <g id="patch_1">
   <path d="M 0 288 
L 864 288 
L 864 0 
L 0 0 
z
" style="fill:#ffffff;"/>
  </g>
  <g id="axes_1">
   <g id="patch_2">
    <path d="M 85.10735 225.99886 
L 852 225.99886 
L 852 22.600845 
L 85.10735 22.600845 
z
" style="fill:#ffffff;"/>
   </g>
   <g id="matplotlib.axis_1">
    <g id="xtick_1">
     <g id="line2d_1">
      <defs>
       <path d="M 0 0 
L 0 3.5 
" id="m29a576e7ba" style="stroke:#000000;stroke-width:0.8;"/>
      </defs>
      <g>
       <use style="stroke:#000000;stroke-width:0.8;" x="85.10735" xlink:href="#m29a576e7ba" y="225.99886"/>
      </g>
     </g>
     <g id="text_1">
      <!-- $0$ -->
      <defs>
       <path d="M 51.703125 31.84375 
C 51.703125 41.375 51.703125 65.28125 28.09375 65.28125 
C 4.40625 65.28125 4.40625 41.46875 4.40625 31.84375 
C 4.40625 22.3125 4.40625 -1 28 -1 
C 51.59375 -1 51.703125 22.015625 51.703125 31.84375 
z
M 28.09375 2.28125 
C 24.90625 2.28125 22.5 3.5625 20.5 5.65625 
C 18 8.140625 16.40625 9.703125 16.40625 33.03125 
C 16.40625 39.984375 16.40625 46.3125 17.203125 51.484375 
C 18.59375 61.3125 25.796875 62 28 62 
C 31.203125 62 37.40625 60.515625 38.796875 52.1875 
C 39.703125 47.109375 39.703125 39.078125 39.703125 33.03125 
C 39.703125 9.609375 38.203125 8.234375 35.203125 5.25 
C 33.203125 3.265625 30.5 2.28125 28.09375 2.28125 
z
" id="CMBX12-48"/>
      </defs>
      <g transform="translate(80.04485 245.49886)scale(0.18 -0.18)">
       <use transform="scale(0.996264)" xlink:href="#CMBX12-48"/>
      </g>
     </g>
    </g>
    <g id="xtick_2">
     <g id="line2d_2">
      <g>
       <use style="stroke:#000000;stroke-width:0.8;" x="238.63581" xlink:href="#m29a576e7ba" y="225.99886"/>
      </g>
     </g>
     <g id="text_2">
      <!-- $1000$ -->
      <defs>
       <path d="M 34.59375 62.109375 
C 34.59375 65 34.40625 65 31.203125 65 
C 23.796875 59 12.703125 59 10.5 59 
L 8.59375 59 
L 8.59375 54.734375 
L 10.5 54.734375 
C 14 54.734375 19.296875 55.328125 23.296875 56.625 
L 23.296875 4.171875 
L 9.40625 4.171875 
L 9.40625 0 
C 13.59375 0 24.09375 0 28.796875 0 
C 33.5 0 44.09375 0 48.296875 0 
L 48.296875 4.171875 
L 34.59375 4.171875 
z
" id="CMBX12-49"/>
      </defs>
      <g transform="translate(218.38581 245.49886)scale(0.18 -0.18)">
       <use transform="scale(0.996264)" xlink:href="#CMBX12-49"/>
       <use transform="translate(56.039851 0)scale(0.996264)" xlink:href="#CMBX12-48"/>
       <use transform="translate(112.079701 0)scale(0.996264)" xlink:href="#CMBX12-48"/>
       <use transform="translate(168.119552 0)scale(0.996264)" xlink:href="#CMBX12-48"/>
      </g>
     </g>
    </g>
    <g id="xtick_3">
     <g id="line2d_3">
      <g>
       <use style="stroke:#000000;stroke-width:0.8;" x="392.16427" xlink:href="#m29a576e7ba" y="225.99886"/>
      </g>
     </g>
     <g id="text_3">
      <!-- $2000$ -->
      <defs>
       <path d="M 50.5 21.375 
L 46.296875 21.375 
C 46 19.28125 45.296875 13.40625 43.796875 12.421875 
C 43 11.71875 35.203125 11.71875 33.703125 11.71875 
L 18.203125 11.71875 
C 22 14.90625 31.09375 22.46875 32.59375 23.578125 
C 43.703125 31.84375 50.5 36.90625 50.5 46.46875 
C 50.5 58.203125 39.796875 65.28125 26.59375 65.28125 
C 15.296875 65.28125 5.59375 58.90625 5.59375 49.453125 
C 5.59375 44.171875 9.90625 42.6875 12.203125 42.6875 
C 15.296875 42.6875 18.90625 44.765625 18.90625 49.359375 
C 18.90625 53.546875 15.796875 55.625 12.703125 56.03125 
C 16.703125 60.609375 22 61 24.09375 61 
C 33.296875 61 37.703125 53.546875 37.703125 46.375 
C 37.703125 38.609375 32.40625 31.453125 28.296875 27.171875 
L 6.59375 4.578125 
C 5.59375 3.671875 5.59375 3.484375 5.59375 1.6875 
L 5.59375 0 
L 47.59375 0 
z
" id="CMBX12-50"/>
      </defs>
      <g transform="translate(371.91427 245.49886)scale(0.18 -0.18)">
       <use transform="scale(0.996264)" xlink:href="#CMBX12-50"/>
       <use transform="translate(56.039851 0)scale(0.996264)" xlink:href="#CMBX12-48"/>
       <use transform="translate(112.079701 0)scale(0.996264)" xlink:href="#CMBX12-48"/>
       <use transform="translate(168.119552 0)scale(0.996264)" xlink:href="#CMBX12-48"/>
      </g>
     </g>
    </g>
    <g id="xtick_4">
     <g id="line2d_4">
      <g>
       <use style="stroke:#000000;stroke-width:0.8;" x="545.69273" xlink:href="#m29a576e7ba" y="225.99886"/>
      </g>
     </g>
     <g id="text_4">
      <!-- $3000$ -->
      <defs>
       <path d="M 26.09375 33 
C 37.296875 33 37.296875 22.71875 37.296875 17.984375 
C 37.296875 13.53125 37.296875 3.0625 26.5 3.0625 
C 24.40625 3.0625 17.796875 3.0625 13 6.625 
C 17.296875 7.515625 18.796875 10.59375 18.796875 13.5625 
C 18.796875 17.625 15.90625 20.5 11.796875 20.5 
C 7.59375 20.5 4.703125 17.625 4.703125 13.46875 
C 4.703125 4.34375 14.703125 -1 27 -1 
C 43.5 -1 51.40625 8.015625 51.40625 17.921875 
C 51.40625 22.796875 48.90625 32.203125 33.40625 34.875 
C 42.203125 37.59375 48.296875 43.8125 48.296875 51.71875 
C 48.296875 59.25 41.09375 65.578125 27.203125 65.578125 
C 16 65.578125 7.796875 59.65625 7.796875 51.53125 
C 7.796875 46.515625 11.703125 44.90625 14.296875 44.90625 
C 17.203125 44.90625 20.703125 46.8125 20.703125 51.4375 
C 20.703125 53.765625 19.703125 57.171875 15 57.875 
C 19.203125 62 26 62 26.59375 62 
C 35.5 62 35.5 55.03125 35.5 52.015625 
C 35.5 48.984375 35.09375 44.328125 31.90625 40.203125 
C 29.296875 36.75 26.703125 36.5625 22.90625 36.5625 
C 21.703125 36.265625 19.703125 36.265625 19.296875 36.078125 
C 18.703125 35.78125 18.703125 35.078125 18.703125 34.6875 
C 18.703125 33 19.296875 33 21.296875 33 
z
" id="CMBX12-51"/>
      </defs>
      <g transform="translate(525.44273 245.49886)scale(0.18 -0.18)">
       <use transform="scale(0.996264)" xlink:href="#CMBX12-51"/>
       <use transform="translate(56.039851 0)scale(0.996264)" xlink:href="#CMBX12-48"/>
       <use transform="translate(112.079701 0)scale(0.996264)" xlink:href="#CMBX12-48"/>
       <use transform="translate(168.119552 0)scale(0.996264)" xlink:href="#CMBX12-48"/>
      </g>
     </g>
    </g>
    <g id="xtick_5">
     <g id="line2d_5">
      <g>
       <use style="stroke:#000000;stroke-width:0.8;" x="699.221191" xlink:href="#m29a576e7ba" y="225.99886"/>
      </g>
     </g>
     <g id="text_5">
      <!-- $4000$ -->
      <defs>
       <path d="M 43.296875 15.71875 
L 53 15.71875 
L 53 20 
L 43.296875 20 
L 43.296875 62.609375 
C 43.296875 65.09375 43.203125 65.5 40.703125 65.5 
C 38.90625 65.5 38.703125 65.5 37.5 64 
L 3.09375 20 
L 3.09375 15.71875 
L 31.5 15.71875 
L 31.5 4.171875 
L 20.59375 4.171875 
L 20.59375 0 
C 23.5 0 33.40625 0 37 0 
C 40.40625 0 50.296875 0 53 -0.09375 
L 53 4.171875 
L 43.296875 4.171875 
z
M 32.40625 51.59375 
L 32.40625 20 
L 7.703125 20 
z
" id="CMBX12-52"/>
      </defs>
      <g transform="translate(678.971191 245.49886)scale(0.18 -0.18)">
       <use transform="scale(0.996264)" xlink:href="#CMBX12-52"/>
       <use transform="translate(56.039851 0)scale(0.996264)" xlink:href="#CMBX12-48"/>
       <use transform="translate(112.079701 0)scale(0.996264)" xlink:href="#CMBX12-48"/>
       <use transform="translate(168.119552 0)scale(0.996264)" xlink:href="#CMBX12-48"/>
      </g>
     </g>
    </g>
    <g id="text_6">
     <!-- \textbf{Frequency (Hz)} -->
     <defs>
      <path d="M 63 67.28125 
L 3.796875 67.28125 
L 3.796875 63 
L 14.40625 63 
L 14.40625 4.171875 
L 3.796875 4.171875 
L 3.796875 0 
C 6.703125 0 18.09375 0 21.796875 0 
C 27.09375 0 36 0 40.90625 0 
L 40.90625 4.171875 
L 27.59375 4.171875 
L 27.59375 31.71875 
L 33.09375 31.71875 
C 42.703125 31.71875 43.5 27.3125 43.5 20 
L 47.703125 20 
L 47.703125 47.53125 
L 43.5 47.53125 
C 43.5 40.328125 42.703125 36 33.09375 36 
L 27.59375 36 
L 27.59375 63 
L 41.90625 63 
C 57.796875 63 60.296875 55.875 61.703125 44.078125 
L 65.90625 44.078125 
z
" id="CMBX12-70"/>
      <path d="M 20.796875 22.046875 
C 20.796875 25.296875 21.5 41 33.203125 41 
C 31.796875 39.921875 31.09375 38.25 31.09375 36.5 
C 31.09375 32.484375 34.40625 30.8125 36.90625 30.8125 
C 39.40625 30.8125 42.703125 32.484375 42.703125 36.515625 
C 42.703125 41.53125 37.5 44.28125 32.703125 44.28125 
C 24.796875 44.28125 21.40625 37.515625 20 33.390625 
L 19.90625 33.390625 
L 19.90625 44 
L 3.5 44 
L 3.5 39.328125 
C 9.703125 39.328125 10.40625 39.328125 10.40625 35.46875 
L 10.40625 4.0625 
L 3.5 4.0625 
L 3.5 -0.203125 
C 5.796875 0 13.296875 0 16.09375 0 
C 19 0 27.09375 0 29.5 -0.203125 
L 29.5 4.0625 
L 20.796875 4.0625 
z
" id="CMBX12-114"/>
      <path d="M 45.203125 22 
C 47.5 22 48.09375 22 48.09375 24.484375 
C 48.09375 27.46875 47.40625 34.890625 42.796875 39.5625 
C 38.59375 43.71875 33 45 27.203125 45 
C 11.59375 45 3.09375 34.890625 3.09375 22.40625 
C 3.09375 8.515625 13.40625 -0.5 28.5 -0.5 
C 43.59375 -0.5 48.09375 10 48.09375 11.6875 
C 48.09375 13.171875 46.59375 13.171875 46 13.171875 
C 44.40625 13.171875 44.296875 12.875 43.703125 11.59375 
C 41.09375 5.15625 34.5 3.078125 29.703125 3.078125 
C 15.203125 3.078125 15.09375 16.453125 15.09375 22 
z
M 15.09375 24.890625 
C 15.296875 28.9375 15.40625 32.8125 17.5 36.375 
C 19.40625 39.546875 22.90625 41.71875 27.203125 41.71875 
C 37.90625 41.71875 38.796875 29.828125 38.90625 24.890625 
z
" id="CMBX12-101"/>
      <path d="M 52 44.578125 
L 48.296875 44.578125 
L 43 36.359375 
C 39.5 41.421875 34.59375 44.578125 28 44.578125 
C 14.203125 44.578125 3.796875 36.078125 3.796875 22.03125 
C 3.796875 7.890625 13.796875 -0.5 27 -0.5 
C 30.796875 -0.5 35.90625 0.296875 41.09375 5.15625 
L 41.09375 -14.921875 
L 34.203125 -14.921875 
L 34.203125 -19.1875 
C 36.5 -19 43.703125 -19 46.5 -19 
C 49.296875 -19 56.59375 -19 58.90625 -19.1875 
L 58.90625 -14.921875 
L 52 -14.921875 
z
M 41.59375 11.859375 
C 37.40625 4.046875 31.5 2.78125 28.203125 2.78125 
C 21.796875 2.78125 15.796875 8.609375 15.796875 21.9375 
C 15.796875 36.359375 23.40625 41 29.296875 41 
C 37.09375 41 41.59375 33 41.59375 28.453125 
z
" id="CMBX12-113"/>
      <path d="M 35.296875 44.671875 
L 35.296875 40 
C 41.5 40 42.203125 40 42.203125 36.125 
L 42.203125 16.5 
C 42.203125 8.890625 37.703125 2.78125 29.90625 2.78125 
C 22.40625 2.78125 22 5.265625 22 10.6875 
L 22 44.671875 
L 4.203125 44.671875 
L 4.203125 40 
C 10.40625 40 11.09375 40 11.09375 36.125 
L 11.09375 12.40625 
C 11.09375 2.390625 17.796875 -0.5 28.5 -0.5 
C 30.90625 -0.5 38.296875 -0.5 42.59375 7.75 
L 42.703125 7.75 
L 42.703125 0 
L 60 0 
L 60 4.5625 
C 53.796875 4.5625 53.09375 4.5625 53.09375 8.4375 
L 53.09375 44.671875 
z
" id="CMBX12-117"/>
      <path d="M 53.09375 30.0625 
C 53.09375 39.453125 49 44.28125 38 44.28125 
C 30.796875 44.28125 24.59375 40.859375 21.203125 33.484375 
L 21.09375 33.484375 
L 21.09375 44 
L 4.203125 44 
L 4.203125 39.328125 
C 10.40625 39.328125 11.09375 39.328125 11.09375 35.46875 
L 11.09375 4.0625 
L 4.203125 4.0625 
L 4.203125 -0.203125 
C 6.5 0 13.703125 0 16.5 0 
C 19.296875 0 26.59375 0 28.90625 -0.203125 
L 28.90625 4.0625 
L 22 4.0625 
L 22 25.109375 
C 22 35.765625 30 41 36.40625 41 
C 40.09375 41 42.203125 38.640625 42.203125 31.140625 
L 42.203125 4.0625 
L 35.296875 4.0625 
L 35.296875 -0.203125 
C 37.59375 0 44.796875 0 47.59375 0 
C 50.40625 0 57.703125 0 60 -0.203125 
L 60 4.0625 
L 53.09375 4.0625 
z
" id="CMBX12-110"/>
      <path d="M 46.796875 11.765625 
C 46.796875 12.953125 45.703125 12.953125 44.703125 12.953125 
C 43.09375 12.953125 43 12.859375 42.5 11.671875 
C 41.796875 9.765625 39.09375 3.078125 29.90625 3.078125 
C 15.796875 3.078125 15.796875 18.21875 15.796875 22.703125 
C 15.796875 28.578125 15.90625 41.625 29 41.625 
C 29.703125 41.625 35.59375 41.625 35.59375 41.125 
C 35.59375 41 35.5 40.90625 35.296875 40.8125 
C 35 40.515625 33.703125 39 33.703125 36.46875 
C 33.703125 32.25 37.09375 30.53125 39.59375 30.53125 
C 41.703125 30.53125 45.5 31.859375 45.5 36.65625 
C 45.5 45 34 45 28.59375 45 
C 10.796875 45 3.796875 33.515625 3.796875 22.09375 
C 3.796875 8.625 13.296875 -0.5 28 -0.5 
C 43.703125 -0.5 46.796875 11.0625 46.796875 11.765625 
z
" id="CMBX12-99"/>
      <path d="M 49.5 37.828125 
C 50.09375 39.203125 50.5 40 56.90625 40 
L 56.90625 44.171875 
C 53.5 44.171875 53.09375 44.171875 49 44.171875 
C 46.296875 44.171875 46.09375 44.171875 40.40625 44.171875 
L 40.40625 40 
C 40.5 40 45.203125 40 45.203125 38.71875 
C 45.203125 38.421875 44.90625 37.828125 44.796875 37.53125 
L 33.09375 12.578125 
L 20.296875 40 
L 25.796875 40 
L 25.796875 44.265625 
C 23.40625 44.171875 16.59375 44.171875 13.796875 44.171875 
C 10.90625 44.171875 5 44.171875 2.40625 44.265625 
L 2.40625 40 
L 8.796875 40 
L 27.296875 0.3125 
C 26.796875 -0.875 25.40625 -3.75 24.90625 -4.9375 
C 22.796875 -9.390625 19.59375 -16.21875 12.59375 -16.21875 
C 12.203125 -16.21875 11 -16.21875 9.90625 -15.625 
C 10.09375 -15.515625 13.09375 -14.328125 13.09375 -10.5625 
C 13.09375 -7.3125 10.703125 -5.234375 7.703125 -5.234375 
C 4.59375 -5.234375 2.203125 -7.328125 2.203125 -10.6875 
C 2.203125 -15.34375 6.59375 -19.5 12.59375 -19.5 
C 20.796875 -19.5 26.203125 -12.171875 28.203125 -7.8125 
z
" id="CMBX12-121"/>
      <path d="M 37.40625 -23.8125 
C 37.40625 -23.40625 37.40625 -23.203125 35.5 -21.421875 
C 24.296875 -10.296875 20 7.203125 20 24.6875 
C 20 44.28125 24.90625 60.390625 36.09375 71.609375 
C 37.296875 72.796875 37.40625 72.90625 37.40625 73.296875 
C 37.40625 74.5 36.203125 74.5 35.703125 74.5 
C 34.796875 74.5 34.59375 74.5 32 72.40625 
C 17.59375 60.984375 10.796875 42.6875 10.796875 24.8125 
C 10.796875 6.515625 17.703125 -11.28125 31.90625 -22.8125 
C 34.5 -25 34.703125 -25 35.703125 -25 
C 36.203125 -25 37.40625 -25 37.40625 -23.8125 
z
" id="CMBX12-40"/>
      <path d="M 73.5 63.828125 
L 84.09375 63.828125 
L 84.09375 68 
C 81.203125 68 70.5 68 66.90625 68 
C 63.296875 68 52.59375 68 49.703125 68 
L 49.703125 63.828125 
L 60.296875 63.828125 
L 60.296875 37.265625 
L 27.59375 37.265625 
L 27.59375 63.828125 
L 38.203125 63.828125 
L 38.203125 68 
C 35.296875 68 24.59375 68 21 68 
C 17.40625 68 6.703125 68 3.796875 68 
L 3.796875 63.828125 
L 14.40625 63.828125 
L 14.40625 4.171875 
L 3.796875 4.171875 
L 3.796875 0 
C 6.703125 0 17.40625 0 21 0 
C 24.59375 0 35.296875 0 38.203125 0 
L 38.203125 4.171875 
L 27.59375 4.171875 
L 27.59375 33 
L 60.296875 33 
L 60.296875 4.171875 
L 49.703125 4.171875 
L 49.703125 0 
C 52.59375 0 63.296875 0 66.90625 0 
C 70.5 0 81.203125 0 84.09375 0 
L 84.09375 4.171875 
L 73.5 4.171875 
z
" id="CMBX12-72"/>
      <path d="M 44 40.234375 
C 44.90625 41.3125 44.90625 41.515625 44.90625 42.109375 
C 44.90625 44 43.90625 44 42 44 
L 5.796875 44 
L 4.703125 26.953125 
L 8.90625 26.953125 
C 9.5 36.359375 11.703125 40.71875 22.796875 40.71875 
L 31.796875 40.71875 
L 4 3.953125 
C 3.09375 2.875 3.09375 2.6875 3.09375 1.984375 
C 3.09375 0 4 0 6 0 
L 43.5 0 
L 45.203125 19.625 
L 41 19.625 
C 40.203125 9.125 38 3.578125 25.40625 3.578125 
L 16.296875 3.578125 
z
" id="CMBX12-122"/>
      <path d="M 32.796875 24.703125 
C 32.796875 42.984375 25.90625 60.78125 11.703125 72.3125 
C 9.09375 74.5 8.90625 74.5 7.90625 74.5 
C 7.40625 74.5 6.203125 74.5 6.203125 73.3125 
C 6.203125 72.921875 6.203125 72.71875 8.09375 70.9375 
C 19.296875 59.796875 23.59375 42.3125 23.59375 24.8125 
C 23.59375 5.21875 18.703125 -10.875 7.5 -22.109375 
C 6.296875 -23.3125 6.203125 -23.40625 6.203125 -23.8125 
C 6.203125 -25 7.40625 -25 7.90625 -25 
C 8.796875 -25 9 -25 11.59375 -22.90625 
C 26 -11.484375 32.796875 6.8125 32.796875 24.703125 
z
" id="CMBX12-41"/>
     </defs>
     <g transform="translate(384.220325 270.5)scale(0.22 -0.22)">
      <use transform="translate(0 -0.0934)scale(0.996264)" xlink:href="#CMBX12-70"/>
      <use transform="translate(61.113445 -0.0934)scale(0.996264)" xlink:href="#CMBX12-114"/>
      <use transform="translate(106.890953 -0.0934)scale(0.996264)" xlink:href="#CMBX12-101"/>
      <use transform="translate(158.03022 -0.0934)scale(0.996264)" xlink:href="#CMBX12-113"/>
      <use transform="translate(217.183396 -0.0934)scale(0.996264)" xlink:href="#CMBX12-117"/>
      <use transform="translate(279.449896 -0.0934)scale(0.996264)" xlink:href="#CMBX12-101"/>
      <use transform="translate(330.589163 -0.0934)scale(0.996264)" xlink:href="#CMBX12-110"/>
      <use transform="translate(392.855664 -0.0934)scale(0.996264)" xlink:href="#CMBX12-99"/>
      <use transform="translate(442.668864 -0.0934)scale(0.996264)" xlink:href="#CMBX12-121"/>
      <use transform="translate(539.18194 -0.0934)scale(0.996264)" xlink:href="#CMBX12-40"/>
      <use transform="translate(582.768491 -0.0934)scale(0.996264)" xlink:href="#CMBX12-72"/>
      <use transform="translate(670.402966 -0.0934)scale(0.996264)" xlink:href="#CMBX12-122"/>
      <use transform="translate(720.216166 -0.0934)scale(0.996264)" xlink:href="#CMBX12-41"/>
     </g>
    </g>
   </g>
   <g id="matplotlib.axis_2">
    <g id="ytick_1">
     <g id="line2d_6">
      <defs>
       <path d="M 0 0 
L -3.5 0 
" id="m6d88f773ec" style="stroke:#000000;stroke-width:0.8;"/>
      </defs>
      <g>
       <use style="stroke:#000000;stroke-width:0.8;" x="85.10735" xlink:href="#m6d88f773ec" y="174.989545"/>
      </g>
     </g>
     <g id="text_7">
      <!-- $10^{-6}$ -->
      <defs>
       <path d="M 75.203125 22 
C 76.703125 22 79.703125 22 79.703125 25 
C 79.703125 28.09375 76.796875 28.09375 75.203125 28.09375 
L 14.09375 28.09375 
C 12.59375 28.09375 9.59375 28.09375 9.59375 25.09375 
C 9.59375 22 12.5 22 14.09375 22 
z
" id="CMBSY10-0"/>
       <path d="M 17.40625 36.25 
C 17.40625 42.328125 17.703125 48.53125 20.5 53.90625 
C 22.703125 58.109375 27.796875 62 34.296875 62 
C 36.203125 62 39.796875 61.703125 42.203125 59.203125 
C 38.40625 58.8125 36.796875 56.015625 36.796875 53.3125 
C 36.796875 49.703125 39.5 47.40625 42.703125 47.40625 
C 45.296875 47.40625 48.59375 49.109375 48.59375 53.5 
C 48.59375 59.484375 44.59375 65.578125 34.09375 65.578125 
C 21.59375 65.578125 4.703125 57.796875 4.703125 31.796875 
C 4.703125 25.109375 4.703125 -1 28.40625 -1 
C 41.59375 -1 51.40625 6.765625 51.40625 20.703125 
C 51.40625 34.640625 41.703125 42 29.796875 42 
C 27.796875 42 21.40625 42 17.40625 33.546875 
z
M 28.296875 2.96875 
C 21.90625 2.96875 19.40625 8.34375 19 9.140625 
C 17.59375 12.4375 17.59375 20.40625 17.59375 21.296875 
C 17.59375 33.546875 22.90625 38.734375 28.796875 38.734375 
C 38.703125 38.734375 38.703125 30.765625 38.703125 20.796875 
C 38.703125 10.9375 38.703125 2.96875 28.296875 2.96875 
z
" id="CMBX12-54"/>
      </defs>
      <g transform="translate(39 181.239545)scale(0.18 -0.18)">
       <use transform="scale(0.996264)" xlink:href="#CMBX12-49"/>
       <use transform="translate(56.039851 0)scale(0.996264)" xlink:href="#CMBX12-48"/>
       <use transform="translate(112.079701 36.153639)scale(0.697382)" xlink:href="#CMBSY10-0"/>
       <use transform="translate(174.456293 36.153639)scale(0.697382)" xlink:href="#CMBX12-54"/>
      </g>
     </g>
    </g>
    <g id="ytick_2">
     <g id="line2d_7">
      <g>
       <use style="stroke:#000000;stroke-width:0.8;" x="85.10735" xlink:href="#m6d88f773ec" y="88.134301"/>
      </g>
     </g>
     <g id="text_8">
      <!-- $10^{-4}$ -->
      <g transform="translate(39 94.384301)scale(0.18 -0.18)">
       <use transform="scale(0.996264)" xlink:href="#CMBX12-49"/>
       <use transform="translate(56.039851 0)scale(0.996264)" xlink:href="#CMBX12-48"/>
       <use transform="translate(112.079701 36.153639)scale(0.697382)" xlink:href="#CMBSY10-0"/>
       <use transform="translate(174.456293 36.153639)scale(0.697382)" xlink:href="#CMBX12-52"/>
      </g>
     </g>
    </g>
    <g id="text_9">
     <!-- \textbf{Spectrum (g RMS)} -->
     <defs>
      <path d="M 25.40625 43.46875 
C 15.5 45.625 15.203125 52.75 15.203125 54.140625 
C 15.203125 59.171875 18.5 65.03125 28.203125 65.03125 
C 37.90625 65.03125 46.59375 60.359375 48.703125 47.34375 
C 49 45.25 49 45.25 50.90625 45.25 
C 53 45.25 53 45.546875 53 47.8125 
L 53 66.4375 
C 53 68.3125 53 69.015625 51.5 69.015625 
C 50.796875 69.015625 50.5 68.921875 49.59375 67.921875 
L 45.296875 63.046875 
C 42.796875 65.140625 37.796875 69 28.09375 69 
C 13.796875 69 6.203125 60.09375 6.203125 49.3125 
C 6.203125 42.6875 9.796875 38.03125 11.203125 36.640625 
C 16.40625 31.5 19.203125 30.90625 29.59375 28.625 
C 39.59375 26.453125 40.796875 26.25 43 24.1875 
C 44.296875 22.890625 47.203125 20.125 47.203125 15.078125 
C 47.203125 10.8125 45.09375 3 33.90625 3 
C 25.09375 3 11.203125 5.96875 10.40625 20.421875 
C 10.296875 22.203125 10.296875 22.5 8.296875 22.5 
C 6.203125 22.5 6.203125 22.203125 6.203125 19.921875 
L 6.203125 1.296875 
C 6.203125 -0.59375 6.203125 -1.28125 7.703125 -1.28125 
C 8.40625 -1.28125 8.5 -1.1875 9.5 -0.296875 
C 10.59375 0.796875 11.5 2.09375 14 4.578125 
C 19.796875 0.015625 28 -1.265625 34 -1.265625 
C 49.59375 -1.265625 56.203125 9.21875 56.203125 19.71875 
C 56.203125 29 50 37.90625 39.09375 40.375 
z
" id="CMBX12-83"/>
      <path d="M 28.203125 -14.921875 
L 21.296875 -14.921875 
L 21.296875 4.1875 
C 23.796875 2 28.203125 -0.5 34.203125 -0.5 
C 47.90625 -0.5 58.59375 7.703125 58.59375 22.140625 
C 58.59375 35.78125 49.296875 44.578125 35.796875 44.578125 
C 29.90625 44.578125 24.796875 42.78125 20.796875 39.90625 
L 20.796875 44.671875 
L 3.5 44.671875 
L 3.5 40 
C 9.703125 40 10.40625 40 10.40625 36.09375 
L 10.40625 -14.921875 
L 3.5 -14.921875 
L 3.5 -19.1875 
C 5.796875 -19 13 -19 15.796875 -19 
C 18.59375 -19 25.90625 -19 28.203125 -19.1875 
z
M 21.296875 35.09375 
C 25 39.53125 30.296875 41 34.203125 41 
C 40.703125 41 46.59375 35.171875 46.59375 22.140625 
C 46.59375 7.8125 39.40625 2.78125 33 2.78125 
C 28.703125 2.78125 24.40625 4.984375 21.296875 9.6875 
z
" id="CMBX12-112"/>
      <path d="M 21.09375 40 
L 35.5 40 
L 35.5 44.265625 
L 21.09375 44.265625 
L 21.09375 63 
L 16.90625 63 
C 16.796875 53.203125 12 43.375 2.09375 43.375 
L 2.09375 40 
L 10.203125 40 
L 10.203125 12.328125 
C 10.203125 1.78125 18.40625 -0.5 25.59375 -0.5 
C 33 -0.5 37.40625 5.078125 37.40625 12.421875 
L 37.40625 17.703125 
L 33.203125 17.703125 
L 33.203125 12.53125 
C 33.203125 5.953125 30.203125 3.078125 27.09375 3.078125 
C 21.09375 3.078125 21.09375 9.75 21.09375 12.03125 
z
" id="CMBX12-116"/>
      <path d="M 84.40625 30.0625 
C 84.40625 39.15625 80.5 44.28125 69.296875 44.28125 
C 59.203125 44.28125 54.5 37.609375 52.90625 34.46875 
C 51.296875 42.8125 44.5 44.28125 38.09375 44.28125 
C 28.5 44.28125 23.296875 38.203125 21.203125 33.484375 
L 21.09375 33.484375 
L 21.09375 44 
L 4.203125 44 
L 4.203125 39.328125 
C 10.40625 39.328125 11.09375 39.328125 11.09375 35.46875 
L 11.09375 4.0625 
L 4.203125 4.0625 
L 4.203125 -0.203125 
C 6.5 0 13.703125 0 16.5 0 
C 19.296875 0 26.59375 0 28.90625 -0.203125 
L 28.90625 4.0625 
L 22 4.0625 
L 22 25.109375 
C 22 35.875 30.09375 41 36.40625 41 
C 40.09375 41 42.296875 38.828125 42.296875 31.140625 
L 42.296875 4.0625 
L 35.40625 4.0625 
L 35.40625 -0.203125 
C 37.703125 0 44.90625 0 47.703125 0 
C 50.5 0 57.796875 0 60.09375 -0.203125 
L 60.09375 4.0625 
L 53.203125 4.0625 
L 53.203125 25.109375 
C 53.203125 35.875 61.296875 41 67.59375 41 
C 71.296875 41 73.5 38.828125 73.5 31.140625 
L 73.5 4.0625 
L 66.59375 4.0625 
L 66.59375 -0.203125 
C 68.90625 0 76.09375 0 78.90625 0 
C 81.703125 0 89 0 91.296875 -0.203125 
L 91.296875 4.0625 
L 84.40625 4.0625 
z
" id="CMBX12-109"/>
      <path d="M 13 18.578125 
C 17.796875 16 23.40625 16 24.90625 16 
C 38.703125 16 44.203125 23.65625 44.203125 30.625 
C 44.203125 35.703125 41.296875 39.296875 40.09375 40.28125 
C 43 41.8125 45.40625 42.1875 47.09375 42.390625 
C 46.796875 41.90625 46.5 41.53125 46.5 40.28125 
C 46.5 38.28125 47.90625 36.46875 50.5 36.46875 
C 53.09375 36.46875 54.5 38.359375 54.5 40.4375 
C 54.5 42.828125 52.703125 46 48.5 46 
C 44.203125 46 40.09375 43.796875 38 41.90625 
C 33.90625 44.28125 30 45.171875 24.90625 45.171875 
C 11.09375 45.171875 5.59375 37.546875 5.59375 30.578125 
C 5.59375 27.5 6.59375 23.453125 10.796875 20.078125 
C 9.09375 18.140625 7.296875 14.578125 7.296875 10.921875 
C 7.296875 6.5625 9.59375 2.8125 11.703125 1.1875 
C 9.296875 0.609375 3.09375 -1.640625 3.09375 -7.203125 
C 3.09375 -12.96875 9.59375 -19.5 28 -19.5 
C 44.59375 -19.5 53 -14.21875 53 -6.859375 
C 53 1.78125 47.203125 4.609375 44.703125 5.78125 
C 39.90625 8.140625 33.5 8.140625 24.703125 8.140625 
C 22.203125 8.140625 17.796875 8.140625 17.296875 8.234375 
C 13 8.984375 11.796875 12.953125 11.796875 14.953125 
C 11.796875 15.78125 11.90625 17.296875 13 18.578125 
z
M 24.90625 19.171875 
C 16.203125 19.171875 16.203125 26.015625 16.203125 30.578125 
C 16.203125 35.15625 16.203125 42 24.90625 42 
C 33.59375 42 33.59375 35.15625 33.59375 30.578125 
C 33.59375 26.015625 33.59375 19.171875 24.90625 19.171875 
z
M 30.5 -1 
C 37.796875 -1 44.796875 -2.265625 44.796875 -7.296875 
C 44.796875 -10.703125 41.296875 -16.328125 28.09375 -16.328125 
C 14.90625 -16.328125 11.296875 -10.890625 11.296875 -7.203125 
C 11.296875 -1 17.59375 -1 19.09375 -1 
z
" id="CMBX12-103"/>
      <path d="M 52.90625 33.65625 
C 66.40625 37.234375 69.703125 44.359375 69.703125 49.734375 
C 69.703125 59.671875 59.203125 68 40.703125 68 
L 3.796875 68 
L 3.796875 63.71875 
L 14.40625 63.71875 
L 14.40625 4.171875 
L 3.796875 4.171875 
L 3.796875 0 
C 6.703125 0 17.09375 0 20.703125 0 
C 24.296875 0 34.796875 0 37.703125 0 
L 37.703125 4.171875 
L 27.09375 4.171875 
L 27.09375 32.71875 
L 39 32.71875 
C 43 32.71875 46.203125 31.515625 48.40625 28.890625 
C 51.40625 25.46875 51.40625 23.25 51.40625 16.515625 
C 51.40625 9.78125 51.40625 5.671875 56.5 2.25 
C 61.703125 -1.28125 69.90625 -1.28125 72.09375 -1.28125 
C 82.296875 -1.28125 83.5 7.71875 83.5 9.109375 
C 83.5 10.8125 82.703125 11.109375 81.40625 11.109375 
C 79.5 11.109375 79.40625 10.421875 79.296875 9.109375 
C 78.796875 4.09375 75.703125 2 72.90625 2 
C 66.5 2 65.796875 8.65625 65 17.765625 
C 64.40625 23.03125 63.703125 30.375 52.90625 33.65625 
z
M 38.796875 36 
L 27.09375 36 
L 27.09375 63.71875 
L 39 63.71875 
C 55.296875 63.71875 55.59375 55.6875 55.59375 49.90625 
C 55.59375 44.515625 55.5 36 38.796875 36 
z
" id="CMBX12-82"/>
      <path d="M 53.296875 12.453125 
L 29.296875 65.90625 
C 28.40625 68 27.5 68 25.40625 68 
L 4.09375 68 
L 4.09375 63.71875 
L 14.703125 63.71875 
L 14.703125 6.9375 
C 14.703125 4.75 14.59375 4.65625 12 4.25 
C 10.203125 4.0625 8.203125 4.0625 6.40625 4.0625 
L 4.09375 4.0625 
L 4.09375 -0.203125 
C 6.40625 0 14.203125 0 17 0 
C 19.796875 0 27.703125 0 30 -0.203125 
L 30 4.0625 
L 27.703125 4.0625 
C 25 4.0625 24.796875 4.0625 22.40625 4.359375 
C 19.5 4.765625 19.40625 4.859375 19.40625 7.046875 
L 19.40625 62.53125 
L 19.5 62.53125 
L 46.703125 2.09375 
C 47.203125 1 47.796875 0 49.5 0 
C 51.203125 0 51.796875 1 52.296875 2.09375 
L 80 63.71875 
L 80.09375 63.71875 
L 80.09375 4.0625 
L 69.5 4.0625 
L 69.5 -0.203125 
C 72.203125 0 82.59375 0 86 0 
C 89.40625 0 99.796875 0 102.5 -0.203125 
L 102.5 4.0625 
L 91.90625 4.0625 
L 91.90625 63.71875 
L 102.5 63.71875 
L 102.5 68 
L 81.203125 68 
C 79.09375 68 78.203125 68 77.296875 65.90625 
z
" id="CMBX12-77"/>
     </defs>
     <g transform="translate(28.5 228.500698)rotate(-90)scale(0.22 -0.22)">
      <use transform="translate(0 -0.0934)scale(0.996264)" xlink:href="#CMBX12-83"/>
      <use transform="translate(62.266501 -0.0934)scale(0.996264)" xlink:href="#CMBX12-112"/>
      <use transform="translate(127.646326 -0.0934)scale(0.996264)" xlink:href="#CMBX12-101"/>
      <use transform="translate(178.785593 -0.0934)scale(0.996264)" xlink:href="#CMBX12-99"/>
      <use transform="translate(228.598794 -0.0934)scale(0.996264)" xlink:href="#CMBX12-116"/>
      <use transform="translate(272.185344 -0.0934)scale(0.996264)" xlink:href="#CMBX12-114"/>
      <use transform="translate(317.962852 -0.0934)scale(0.996264)" xlink:href="#CMBX12-117"/>
      <use transform="translate(380.229352 -0.0934)scale(0.996264)" xlink:href="#CMBX12-109"/>
      <use transform="translate(510.989004 -0.0934)scale(0.996264)" xlink:href="#CMBX12-40"/>
      <use transform="translate(554.575554 -0.0934)scale(0.996264)" xlink:href="#CMBX12-103"/>
      <use transform="translate(647.975305 -0.0934)scale(0.996264)" xlink:href="#CMBX12-82"/>
      <use transform="translate(731.57398 -0.0934)scale(0.996264)" xlink:href="#CMBX12-77"/>
      <use transform="translate(837.888406 -0.0934)scale(0.996264)" xlink:href="#CMBX12-83"/>
      <use transform="translate(900.154906 -0.0934)scale(0.996264)" xlink:href="#CMBX12-41"/>
     </g>
    </g>
   </g>
   <g id="line2d_8">
    <path clip-path="url(#p878bf6152e)" d="M 85.10735 222.098227 
L 85.857001 214.327248 
L 86.606651 215.319313 
L 87.356302 225.031449 
L 88.855603 149.523182 
L 89.605254 161.258451 
L 90.354905 199.802254 
L 91.104555 218.703518 
L 91.854206 216.069139 
L 92.603857 177.908273 
L 93.353508 180.652734 
L 94.103158 205.536394 
L 94.852809 203.158786 
L 95.60246 172.581021 
L 96.35211 108.88678 
L 97.101761 101.963892 
L 98.601062 201.636835 
L 99.350713 160.771835 
L 100.100364 73.824409 
L 100.850014 56.105629 
L 101.599665 91.013497 
L 102.349316 178.705346 
L 103.098966 193.711847 
L 103.848617 116.606322 
L 104.598268 85.739162 
L 105.347918 105.998623 
L 106.097569 180.51722 
L 106.84722 168.849063 
L 108.346521 88.378845 
L 109.096172 98.908287 
L 109.845823 159.814535 
L 110.595473 178.632234 
L 111.345124 181.332404 
L 112.094775 146.878537 
L 112.844425 140.613264 
L 113.594076 172.383199 
L 115.093377 152.016168 
L 115.843028 84.670959 
L 116.592679 73.230324 
L 117.342329 111.549235 
L 118.09198 138.591241 
L 118.841631 134.159381 
L 119.591281 91.8437 
L 120.340932 69.709593 
L 121.840234 136.158443 
L 122.589884 144.730974 
L 123.339535 143.494272 
L 124.089186 114.592961 
L 124.838836 110.281068 
L 125.588487 137.472792 
L 126.338138 145.661249 
L 127.087788 133.801868 
L 127.837439 101.299161 
L 128.58709 104.383732 
L 129.33674 142.550103 
L 130.086391 152.968079 
L 130.836042 149.661667 
L 131.585692 79.29272 
L 132.335343 72.539105 
L 133.834644 166.915048 
L 134.584295 186.876384 
L 135.333946 136.480645 
L 136.083597 119.84633 
L 136.833247 152.178869 
L 137.582898 178.945333 
L 138.332549 158.510491 
L 139.082199 107.943237 
L 139.83185 83.458079 
L 140.581501 111.185988 
L 141.331151 118.967951 
L 142.080802 108.143843 
L 142.830453 116.093874 
L 143.580103 94.734103 
L 144.329754 105.720781 
L 145.079405 134.791909 
L 145.829055 103.000111 
L 146.578706 97.132688 
L 147.328357 112.395839 
L 148.078007 117.500135 
L 148.827658 120.312096 
L 149.577309 116.82057 
L 150.32696 134.700351 
L 151.07661 106.005577 
L 151.826261 101.595114 
L 152.575912 118.83982 
L 153.325562 140.862735 
L 154.075213 125.451677 
L 154.824864 82.859252 
L 155.574514 70.419502 
L 156.324165 112.628586 
L 157.073816 135.303141 
L 157.823466 132.250134 
L 159.322768 97.340632 
L 160.822069 119.003646 
L 161.57172 137.429635 
L 162.32137 133.696982 
L 163.071021 101.276609 
L 163.820672 108.969577 
L 164.570323 159.014529 
L 165.319973 154.004783 
L 166.069624 165.678772 
L 167.568925 140.71849 
L 168.318576 162.573 
L 169.068227 157.057616 
L 169.817877 150.183425 
L 170.567528 141.217462 
L 171.317179 127.742156 
L 172.066829 143.078542 
L 172.81648 150.459189 
L 173.566131 144.80621 
L 174.315781 132.656854 
L 175.065432 112.57023 
L 175.815083 122.382482 
L 176.564733 123.489248 
L 177.314384 115.57895 
L 178.064035 111.718076 
L 178.813686 101.664122 
L 179.563336 117.859704 
L 180.312987 148.155194 
L 181.062638 155.310658 
L 181.812288 147.80843 
L 182.561939 122.241327 
L 183.31159 123.474306 
L 184.06124 153.150582 
L 184.810891 144.890351 
L 185.560542 128.854332 
L 186.310192 141.216688 
L 187.059843 115.375918 
L 187.809494 111.345238 
L 188.559144 112.74877 
L 189.308795 112.507608 
L 190.058446 96.164318 
L 190.808096 82.85859 
L 191.557747 87.465127 
L 192.307398 110.1272 
L 193.057049 122.232978 
L 193.806699 114.493261 
L 194.55635 104.314406 
L 196.055651 116.811287 
L 197.554953 143.047225 
L 198.304603 123.509124 
L 199.054254 126.458611 
L 199.803905 161.010214 
L 200.553555 158.561324 
L 201.303206 159.700812 
L 202.052857 114.743909 
L 202.802507 105.453149 
L 203.552158 123.966293 
L 204.301809 105.479027 
L 205.051459 94.269005 
L 205.80111 86.142954 
L 206.550761 68.406147 
L 207.300412 74.103755 
L 208.799713 100.992393 
L 209.549364 94.661364 
L 210.299014 85.947825 
L 211.048665 104.092844 
L 211.798316 111.069202 
L 212.547966 123.625286 
L 213.297617 107.20444 
L 214.047268 96.527356 
L 214.796918 115.069128 
L 215.546569 94.617124 
L 216.29622 89.514626 
L 217.04587 81.644741 
L 217.795521 91.453507 
L 218.545172 87.538449 
L 219.294822 71.910459 
L 220.044473 73.914072 
L 220.794124 79.912466 
L 221.543775 97.84062 
L 222.293425 81.252456 
L 223.792727 105.918588 
L 224.542377 133.37876 
L 225.292028 135.353946 
L 226.041679 116.479984 
L 226.791329 129.904075 
L 227.54098 124.26751 
L 228.290631 134.402282 
L 229.040281 148.112832 
L 229.789932 141.61125 
L 230.539583 149.459623 
L 231.289233 143.293529 
L 232.788535 124.890586 
L 233.538185 126.51579 
L 234.287836 122.283169 
L 235.037487 119.770833 
L 235.787138 109.720084 
L 236.536788 108.232917 
L 237.286439 92.96694 
L 238.03609 85.735261 
L 238.78574 92.828233 
L 239.535391 97.128587 
L 240.285042 102.158132 
L 241.034692 87.615838 
L 241.784343 80.580722 
L 242.533994 107.016034 
L 243.283644 112.791301 
L 244.033295 119.569792 
L 244.782946 108.211443 
L 245.532596 111.937182 
L 246.282247 107.223934 
L 247.031898 85.98177 
L 247.781548 71.462978 
L 248.531199 102.168248 
L 249.28085 104.33549 
L 250.030501 99.040524 
L 250.780151 81.594954 
L 251.529802 51.748214 
L 252.279453 67.487412 
L 253.029103 90.253267 
L 253.778754 92.592897 
L 254.528405 86.179557 
L 255.278055 45.315511 
L 256.027706 50.247306 
L 256.777357 108.803476 
L 257.527007 90.877838 
L 258.276658 99.145316 
L 259.026309 95.064579 
L 259.775959 83.984463 
L 260.52561 102.442699 
L 261.275261 102.436961 
L 262.024911 112.058146 
L 262.774562 86.13571 
L 263.524213 70.124065 
L 264.273864 84.827485 
L 265.023514 82.989577 
L 265.773165 82.321174 
L 266.522816 72.965091 
L 267.272466 83.200435 
L 268.022117 81.361453 
L 268.771768 83.672377 
L 269.521418 81.116615 
L 270.271069 99.643657 
L 271.02072 91.457577 
L 272.520021 89.049151 
L 273.269672 102.47858 
L 274.019322 103.621135 
L 274.768973 93.915072 
L 275.518624 104.138472 
L 276.268274 115.988052 
L 277.017925 117.958294 
L 277.767576 110.463818 
L 278.517227 97.972307 
L 279.266877 105.852263 
L 280.016528 105.576335 
L 280.766179 101.844384 
L 281.515829 85.779143 
L 282.26548 96.256293 
L 283.015131 103.588878 
L 283.764781 92.048588 
L 284.514432 83.935018 
L 285.264083 85.682076 
L 286.013733 77.399932 
L 286.763384 90.018869 
L 288.262685 65.882611 
L 289.012336 80.314677 
L 289.761987 81.380895 
L 290.511637 80.652475 
L 291.261288 86.400014 
L 292.010939 85.529956 
L 292.76059 96.015699 
L 293.51024 118.157296 
L 294.259891 100.001601 
L 295.009542 94.40712 
L 295.759192 85.913242 
L 297.258494 46.737156 
L 298.008144 53.387102 
L 298.757795 62.803226 
L 299.507446 51.522518 
L 300.257096 49.501292 
L 301.006747 55.511415 
L 301.756398 56.849241 
L 302.506048 53.935188 
L 303.255699 57.301324 
L 304.00535 54.120485 
L 304.755 62.118399 
L 305.504651 80.246857 
L 306.254302 79.209936 
L 307.003953 91.302769 
L 307.753603 109.219096 
L 308.503254 117.463763 
L 310.002555 95.731457 
L 310.752206 97.001776 
L 311.501857 98.61751 
L 312.251507 92.389505 
L 313.001158 99.178451 
L 313.750809 88.050222 
L 314.500459 106.131261 
L 315.25011 93.947998 
L 315.999761 62.557519 
L 316.749411 64.178417 
L 317.499062 77.904182 
L 318.248713 86.849842 
L 318.998363 91.435682 
L 319.748014 77.039926 
L 320.497665 82.233986 
L 321.247316 93.441997 
L 321.996966 92.169819 
L 323.496268 108.746481 
L 324.245918 98.004101 
L 324.995569 105.257309 
L 325.74522 110.220184 
L 326.49487 93.226755 
L 327.244521 79.671579 
L 327.994172 95.72061 
L 329.493473 89.692622 
L 330.243124 99.183037 
L 330.992774 101.500142 
L 331.742425 80.800743 
L 332.492076 74.710314 
L 333.241726 80.260386 
L 333.991377 88.101234 
L 334.741028 92.5962 
L 335.490679 94.175428 
L 336.240329 94.601529 
L 336.98998 96.484392 
L 337.739631 102.832572 
L 338.489281 98.114351 
L 339.238932 102.346473 
L 339.988583 120.228666 
L 340.738233 116.505001 
L 341.487884 97.509793 
L 342.237535 98.275916 
L 342.987185 104.926317 
L 343.736836 103.512493 
L 344.486487 103.225908 
L 345.236137 104.704828 
L 345.985788 86.299179 
L 346.735439 89.796132 
L 347.485089 91.655001 
L 348.23474 71.890085 
L 348.984391 76.487395 
L 349.734042 90.604731 
L 350.483692 82.027729 
L 351.233343 89.452648 
L 352.732644 75.280427 
L 353.482295 84.134688 
L 354.231946 91.184922 
L 354.981596 93.883388 
L 355.731247 84.20271 
L 356.480898 80.249466 
L 357.230548 68.370344 
L 357.980199 74.522309 
L 358.72985 72.868597 
L 359.4795 68.538924 
L 360.229151 58.576767 
L 360.978802 31.787524 
L 361.728452 28.708221 
L 362.478103 50.234108 
L 363.227754 62.721891 
L 363.977405 65.174127 
L 364.727055 47.121732 
L 365.476706 40.608484 
L 366.226357 70.8091 
L 366.976007 85.920891 
L 367.725658 97.760179 
L 368.475309 97.12591 
L 369.224959 91.776138 
L 369.97461 104.242971 
L 371.473911 90.64292 
L 372.973213 46.54792 
L 373.722863 59.459864 
L 374.472514 109.193421 
L 375.222165 106.558211 
L 375.971815 94.055595 
L 376.721466 70.13757 
L 377.471117 71.27605 
L 378.220768 84.820445 
L 378.970418 88.286411 
L 379.720069 94.093084 
L 380.46972 82.732951 
L 381.21937 88.668812 
L 381.969021 100.761713 
L 382.718672 101.259899 
L 384.217973 90.053207 
L 384.967624 92.944689 
L 385.717274 84.539577 
L 386.466925 86.200658 
L 387.216576 90.155423 
L 387.966226 96.570906 
L 388.715877 89.993639 
L 389.465528 102.953314 
L 390.215178 113.40708 
L 390.964829 93.398897 
L 391.71448 82.381083 
L 392.464131 81.582333 
L 393.213781 77.596127 
L 393.963432 79.210051 
L 394.713083 91.805884 
L 395.462733 84.917624 
L 396.212384 83.924732 
L 396.962035 80.41449 
L 397.711685 80.449589 
L 398.461336 101.307619 
L 399.210987 101.580918 
L 399.960637 115.596673 
L 400.710288 112.199553 
L 401.459939 93.664314 
L 402.209589 92.756354 
L 402.95924 98.539125 
L 403.708891 111.214302 
L 404.458541 115.011779 
L 405.208192 98.020631 
L 405.957843 88.62413 
L 406.707494 84.712705 
L 408.206795 103.261422 
L 408.956446 114.938589 
L 409.706096 109.752153 
L 410.455747 100.978086 
L 411.205398 101.118788 
L 411.955048 93.990394 
L 412.704699 90.516179 
L 413.45435 103.489978 
L 414.204 102.887613 
L 415.703302 114.917338 
L 416.452952 111.353464 
L 417.202603 118.493283 
L 417.952254 96.831934 
L 418.701904 102.887922 
L 419.451555 116.415318 
L 420.201206 113.868373 
L 420.950857 113.70141 
L 421.700507 75.36293 
L 422.450158 70.967137 
L 423.199809 95.753371 
L 424.69911 112.319747 
L 425.448761 70.914204 
L 426.198411 56.98475 
L 426.948062 92.260381 
L 427.697713 135.281091 
L 428.447363 137.03267 
L 429.946665 92.131722 
L 430.696315 105.937061 
L 431.445966 126.645115 
L 432.195617 143.322684 
L 432.945267 128.757655 
L 433.694918 100.90787 
L 434.444569 115.52827 
L 435.19422 142.904481 
L 435.94387 134.401787 
L 436.693521 142.988518 
L 437.443172 131.627648 
L 438.192822 125.331075 
L 438.942473 131.449633 
L 439.692124 150.210312 
L 440.441774 130.387245 
L 441.191425 131.412556 
L 441.941076 136.200059 
L 442.690726 145.556426 
L 443.440377 143.569801 
L 444.190028 154.860013 
L 444.939678 135.601308 
L 446.43898 137.775458 
L 447.18863 140.562681 
L 447.938281 134.659345 
L 448.687932 136.67304 
L 449.437583 121.841318 
L 450.187233 129.774654 
L 450.936884 128.703528 
L 451.686535 129.506883 
L 452.436185 124.203921 
L 453.935487 139.321191 
L 454.685137 132.015598 
L 455.434788 139.442142 
L 456.184439 130.125299 
L 456.934089 136.519455 
L 457.68374 159.33221 
L 459.183041 129.515798 
L 459.932692 132.573288 
L 460.682343 142.444027 
L 461.431993 143.149027 
L 462.931295 133.871054 
L 463.680946 130.282072 
L 464.430596 152.120788 
L 465.929898 147.381834 
L 466.679548 133.660659 
L 467.429199 130.343315 
L 468.17885 144.113745 
L 468.9285 132.946952 
L 469.678151 129.866873 
L 470.427802 134.721213 
L 471.177452 132.414634 
L 471.927103 127.069818 
L 472.676754 119.897924 
L 473.426404 135.12186 
L 474.176055 130.665857 
L 474.925706 100.517248 
L 476.425007 131.782699 
L 477.174658 127.846562 
L 477.924309 104.130539 
L 478.673959 71.345024 
L 479.42361 76.205113 
L 480.173261 121.726886 
L 480.922911 126.356281 
L 481.672562 133.863267 
L 482.422213 102.453946 
L 483.171863 97.858098 
L 483.921514 133.434492 
L 484.671165 133.522999 
L 485.420815 128.060407 
L 486.170466 86.929544 
L 486.920117 72.814936 
L 487.669767 106.06741 
L 488.419418 128.449255 
L 489.169069 134.247861 
L 489.91872 132.950714 
L 490.66837 119.167748 
L 491.418021 120.21233 
L 492.167672 131.191191 
L 492.917322 129.041121 
L 493.666973 135.663952 
L 494.416624 127.967216 
L 495.166274 127.177458 
L 495.915925 122.373687 
L 496.665576 127.575313 
L 497.415226 124.035253 
L 498.164877 117.924684 
L 498.914528 127.772167 
L 499.664178 140.317485 
L 500.413829 157.786865 
L 501.16348 155.865672 
L 501.91313 133.696721 
L 502.662781 136.290465 
L 503.412432 145.271438 
L 504.162083 144.441697 
L 504.911733 137.314689 
L 505.661384 144.228967 
L 506.411035 145.50852 
L 507.160685 147.862338 
L 507.910336 131.186692 
L 508.659987 146.370671 
L 509.409637 137.207148 
L 510.159288 125.330282 
L 510.908939 123.109522 
L 511.658589 123.247964 
L 512.40824 124.937226 
L 513.157891 135.956776 
L 513.907541 151.521325 
L 514.657192 134.205389 
L 516.156493 136.462702 
L 516.906144 146.039395 
L 517.655795 146.423 
L 518.405446 143.620631 
L 519.155096 142.997973 
L 519.904747 126.305937 
L 520.654398 121.108465 
L 521.404048 124.759907 
L 522.153699 109.469035 
L 522.90335 124.330097 
L 523.653 133.100556 
L 524.402651 138.354144 
L 525.152302 139.251451 
L 525.901952 137.033954 
L 526.651603 148.212542 
L 527.401254 128.393036 
L 528.150904 124.515791 
L 528.900555 138.220061 
L 529.650206 144.591178 
L 530.399856 134.940925 
L 531.149507 127.73311 
L 531.899158 103.048115 
L 532.648809 114.993409 
L 533.398459 116.59261 
L 534.14811 120.133248 
L 534.897761 118.585001 
L 535.647411 84.225747 
L 536.397062 97.72629 
L 537.146713 126.600159 
L 537.896363 146.374049 
L 538.646014 136.331143 
L 539.395665 123.783637 
L 540.145315 120.427844 
L 540.894966 128.695349 
L 541.644617 120.738663 
L 542.394267 107.981636 
L 543.143918 85.314155 
L 543.893569 86.230585 
L 544.643219 125.847292 
L 545.39287 133.623901 
L 546.142521 128.259413 
L 546.892172 97.906639 
L 547.641822 80.305364 
L 548.391473 111.004795 
L 549.141124 150.671412 
L 549.890774 147.696034 
L 550.640425 138.236583 
L 551.390076 118.581329 
L 552.139726 128.415276 
L 552.889377 160.340785 
L 553.639028 153.615259 
L 554.388678 152.149624 
L 555.138329 153.625822 
L 555.88798 144.714394 
L 556.63763 155.108227 
L 557.387281 150.120755 
L 558.136932 156.335072 
L 558.886582 143.113096 
L 559.636233 146.504067 
L 560.385884 159.053472 
L 561.135535 164.186528 
L 561.885185 151.198925 
L 562.634836 147.704788 
L 563.384487 144.807067 
L 564.134137 162.004456 
L 564.883788 148.995838 
L 565.633439 163.822024 
L 566.383089 169.987891 
L 567.13274 160.683169 
L 567.882391 155.150315 
L 568.632041 140.109063 
L 569.381692 155.771688 
L 570.131343 161.524226 
L 570.880993 155.506282 
L 571.630644 146.993593 
L 573.129945 133.002598 
L 573.879596 142.163655 
L 574.629247 152.893251 
L 575.378898 170.747016 
L 576.128548 165.529344 
L 576.878199 136.912569 
L 577.62785 147.966285 
L 578.3775 161.660709 
L 579.127151 158.995725 
L 579.876802 158.420603 
L 580.626452 142.13972 
L 581.376103 147.431554 
L 582.125754 148.021337 
L 582.875404 146.626821 
L 583.625055 139.499802 
L 584.374706 114.107799 
L 585.124356 111.858573 
L 585.874007 140.673076 
L 586.623658 145.113723 
L 587.373308 141.608585 
L 588.122959 139.495014 
L 588.87261 136.764775 
L 589.622261 142.334754 
L 590.371911 141.170746 
L 591.121562 143.250951 
L 592.620863 120.319175 
L 593.370514 140.282184 
L 594.120165 154.290604 
L 595.619466 132.001273 
L 596.369117 94.158283 
L 597.118767 107.685387 
L 597.868418 152.911709 
L 599.367719 168.447699 
L 600.11737 136.978173 
L 600.867021 142.475581 
L 601.616671 175.1036 
L 603.115973 153.879552 
L 603.865624 122.704003 
L 604.615274 120.087025 
L 605.364925 163.299644 
L 606.114576 158.095455 
L 606.864226 155.323602 
L 607.613877 152.057898 
L 608.363528 141.914999 
L 609.113178 149.199219 
L 609.862829 155.037656 
L 610.61248 156.791677 
L 611.36213 173.011584 
L 612.111781 166.561679 
L 612.861432 169.532583 
L 613.611082 169.289436 
L 614.360733 173.08577 
L 615.110384 195.919389 
L 615.860034 184.216954 
L 616.609685 184.282723 
L 617.359336 179.134741 
L 618.108987 166.731745 
L 618.858637 159.182762 
L 619.608288 160.59193 
L 620.357939 165.755371 
L 621.107589 173.304114 
L 621.85724 154.868699 
L 622.606891 157.932404 
L 624.106192 178.035493 
L 624.855843 162.624066 
L 625.605493 140.50903 
L 626.355144 154.287359 
L 627.104795 184.316308 
L 627.854445 187.213344 
L 628.604096 161.706355 
L 629.353747 147.593395 
L 630.103397 143.926218 
L 630.853048 150.582313 
L 631.602699 168.751238 
L 632.35235 165.131418 
L 633.102 153.930716 
L 633.851651 154.2248 
L 634.601302 186.872525 
L 635.350952 155.167102 
L 636.100603 159.864418 
L 636.850254 174.388553 
L 637.599904 162.747311 
L 638.349555 163.801019 
L 639.099206 146.787892 
L 639.848856 146.854753 
L 640.598507 150.727852 
L 641.348158 120.784376 
L 642.097808 129.404357 
L 642.847459 154.951681 
L 643.59711 138.084839 
L 644.34676 143.612742 
L 645.096411 110.965606 
L 645.846062 109.682328 
L 646.595713 147.463764 
L 647.345363 134.995176 
L 648.095014 143.631021 
L 648.844665 120.76911 
L 649.594315 110.572903 
L 650.343966 145.299066 
L 651.093617 139.590896 
L 651.843267 152.414159 
L 652.592918 153.953355 
L 653.342569 133.329881 
L 654.092219 157.14976 
L 654.84187 155.643136 
L 655.591521 143.46726 
L 656.341171 147.779175 
L 657.090822 146.926386 
L 658.590123 186.55026 
L 659.339774 165.482461 
L 660.089425 173.732179 
L 660.839076 154.82008 
L 661.588726 156.238522 
L 662.338377 170.556827 
L 663.088028 157.192013 
L 663.837678 152.782062 
L 664.587329 154.192484 
L 665.33698 164.98424 
L 666.08663 169.258046 
L 666.836281 170.049342 
L 667.585932 155.723225 
L 668.335582 165.644807 
L 669.085233 172.030923 
L 669.834884 163.194846 
L 670.584534 158.863381 
L 671.334185 156.131205 
L 672.083836 162.234113 
L 672.833486 154.423988 
L 674.332788 142.017123 
L 675.082439 143.671585 
L 675.832089 143.388413 
L 676.58174 139.984227 
L 677.331391 130.783874 
L 678.081041 127.747723 
L 678.830692 135.385369 
L 679.580343 138.556641 
L 680.329993 153.835859 
L 681.079644 149.235908 
L 681.829295 161.801193 
L 682.578945 163.719474 
L 683.328596 159.42167 
L 684.078247 157.913073 
L 684.827897 157.010676 
L 685.577548 154.632562 
L 686.327199 144.776114 
L 687.076849 150.490936 
L 687.8265 159.918136 
L 688.576151 163.35262 
L 689.325802 180.693214 
L 690.075452 192.578771 
L 690.825103 189.422283 
L 691.574754 184.849711 
L 692.324404 196.134099 
L 693.074055 185.384109 
L 693.823706 187.612266 
L 694.573356 187.924927 
L 695.323007 200.125246 
L 696.072658 201.106045 
L 696.822308 195.911245 
L 698.32161 140.888557 
L 699.820911 184.90452 
L 700.570562 169.875879 
L 701.320212 167.166278 
L 702.069863 144.37637 
L 702.819514 149.374726 
L 703.569165 185.837322 
L 704.318815 191.3975 
L 705.068466 182.677368 
L 705.818117 171.44866 
L 706.567767 166.701626 
L 707.317418 184.398477 
L 708.067069 189.687404 
L 708.816719 191.124675 
L 709.56637 168.859917 
L 710.316021 156.947887 
L 711.065671 185.802081 
L 711.815322 187.110986 
L 712.564973 193.198824 
L 713.314623 181.600753 
L 714.064274 171.910283 
L 714.813925 185.581914 
L 715.563575 185.341289 
L 716.313226 182.782906 
L 717.062877 204.876124 
L 717.812528 191.358128 
L 718.562178 195.372777 
L 719.311829 198.471631 
L 720.06148 187.66081 
L 720.81113 190.59541 
L 721.560781 185.599473 
L 723.060082 173.012936 
L 723.809733 188.21576 
L 724.559384 188.13185 
L 725.309034 184.590485 
L 726.058685 184.65226 
L 726.808336 206.227207 
L 727.557986 194.777214 
L 728.307637 187.435946 
L 729.057288 194.329611 
L 729.806938 191.482884 
L 730.556589 196.137553 
L 731.30624 197.961035 
L 732.055891 204.054791 
L 732.805541 222.24112 
L 733.555192 200.867108 
L 734.304843 219.71022 
L 735.054493 215.676475 
L 735.804144 201.074798 
L 736.553795 197.452469 
L 737.303445 195.548613 
L 738.053096 205.064541 
L 738.802747 197.718565 
L 739.552397 187.77772 
L 740.302048 206.452013 
L 741.051699 210.422453 
L 741.801349 212.322701 
L 742.551 203.023334 
L 743.300651 205.511634 
L 744.050301 197.811196 
L 744.799952 206.167132 
L 745.549603 204.218646 
L 746.299254 213.41306 
L 747.048904 188.756441 
L 748.548206 200.185151 
L 749.297856 199.523645 
L 750.047507 221.547253 
L 750.797158 199.730592 
L 751.546808 191.213729 
L 752.296459 197.335325 
L 753.04611 193.953934 
L 753.79576 194.779786 
L 754.545411 185.50706 
L 755.295062 164.187199 
L 756.794363 186.09417 
L 757.544014 195.114832 
L 758.293664 189.923128 
L 759.043315 169.686408 
L 759.792966 187.673307 
L 760.542617 182.504669 
L 761.292267 184.113631 
L 762.041918 174.65047 
L 762.791569 143.889099 
L 763.541219 154.016496 
L 764.29087 176.578834 
L 765.040521 175.30382 
L 765.790171 191.898844 
L 766.539822 185.56224 
L 767.289473 176.109248 
L 768.039123 195.455785 
L 768.788774 198.282082 
L 770.288075 163.087922 
L 771.037726 157.310959 
L 771.787377 165.096885 
L 772.537027 168.790246 
L 773.286678 176.41541 
L 774.036329 164.786916 
L 774.78598 155.305137 
L 775.53563 169.823042 
L 776.285281 194.07258 
L 777.034932 189.901377 
L 778.534233 172.586494 
L 779.283884 186.255921 
L 780.033534 192.692242 
L 780.783185 186.351698 
L 781.532836 183.464017 
L 782.282486 173.329664 
L 783.032137 181.458059 
L 783.781788 191.739243 
L 784.531438 184.982859 
L 785.281089 182.461417 
L 786.03074 194.709028 
L 786.78039 184.364145 
L 787.530041 179.255948 
L 788.279692 175.361147 
L 789.029343 174.447443 
L 789.778993 180.836609 
L 790.528644 180.498085 
L 791.278295 185.98522 
L 792.027945 168.24221 
L 792.777596 178.817599 
L 793.527247 182.042759 
L 794.276897 172.559646 
L 795.026548 168.669331 
L 795.776199 157.460928 
L 796.525849 161.191692 
L 797.2755 166.826263 
L 798.025151 166.134307 
L 798.774801 166.507968 
L 799.524452 166.02912 
L 800.274103 159.118201 
L 801.023753 172.046349 
L 801.773404 155.120867 
L 802.523055 156.388144 
L 803.272706 156.133594 
L 804.022356 143.761477 
L 804.772007 149.543733 
L 805.521658 151.88015 
L 806.271308 141.052424 
L 807.020959 149.867029 
L 807.77061 150.389266 
L 808.52026 140.288737 
L 809.269911 153.736752 
L 810.769212 164.41343 
L 811.518863 147.338727 
L 812.268514 149.900526 
L 813.018164 162.922166 
L 813.767815 147.59476 
L 814.517466 144.361571 
L 815.267116 147.718269 
L 816.016767 130.157818 
L 816.766418 128.578295 
L 817.516069 143.983967 
L 818.265719 144.017246 
L 819.01537 137.118183 
L 819.765021 109.457244 
L 820.514671 122.742211 
L 821.264322 144.195869 
L 822.013973 148.358373 
L 822.763623 148.83979 
L 823.513274 139.792933 
L 824.262925 148.674463 
L 825.012575 166.355452 
L 825.762226 153.286675 
L 826.511877 153.857282 
L 827.261527 139.84995 
L 828.011178 136.810738 
L 828.760829 162.491965 
L 829.510479 170.552249 
L 830.26013 160.638434 
L 831.009781 143.477742 
L 831.759432 134.388208 
L 832.509082 159.000234 
L 833.258733 174.823309 
L 834.008384 175.582799 
L 834.758034 161.251605 
L 835.507685 149.995057 
L 836.257336 157.771302 
L 837.756637 168.301791 
L 838.506288 177.698768 
L 839.255938 196.771368 
L 840.005589 204.597941 
L 840.75524 187.147851 
L 841.50489 191.794617 
L 842.254541 185.121116 
L 843.004192 180.787359 
L 843.753842 173.39009 
L 844.503493 175.050476 
L 845.253144 172.2457 
L 846.002795 179.937348 
L 846.752445 165.903502 
L 848.251747 186.533902 
L 849.001397 164.708932 
L 849.751048 158.112574 
L 850.500699 161.42306 
L 851.250349 159.547549 
L 852 163.585027 
L 852 163.585027 
" style="fill:none;stroke:#e41a1c;stroke-linecap:square;stroke-width:2;"/>
   </g>
   <g id="line2d_9">
    <path clip-path="url(#p878bf6152e)" d="M 85.10735 206.957883 
L 85.857001 198.605138 
L 87.356302 179.536565 
L 88.105953 161.973577 
L 88.855603 127.007354 
L 89.605254 143.814128 
L 90.354905 203.311026 
L 91.104555 189.080639 
L 91.854206 159.765588 
L 92.603857 102.600393 
L 93.353508 107.232883 
L 94.103158 178.029799 
L 94.852809 190.667403 
L 95.60246 166.71012 
L 96.35211 99.428286 
L 97.101761 92.127669 
L 98.601062 180.709929 
L 99.350713 158.644523 
L 100.100364 70.693723 
L 100.850014 53.166144 
L 101.599665 88.148683 
L 102.349316 168.968109 
L 103.098966 181.697787 
L 103.848617 147.797804 
L 104.598268 119.35395 
L 105.347918 135.398147 
L 106.097569 169.650656 
L 106.84722 172.418908 
L 107.596871 94.656515 
L 108.346521 50.540524 
L 109.096172 60.076419 
L 109.845823 132.727149 
L 110.595473 166.97475 
L 111.345124 160.643268 
L 112.094775 118.243708 
L 112.844425 116.152844 
L 113.594076 165.172692 
L 114.343727 177.244493 
L 115.093377 148.546191 
L 115.843028 84.467736 
L 116.592679 73.602968 
L 117.342329 111.201613 
L 118.09198 120.132952 
L 118.841631 126.771531 
L 119.591281 121.587136 
L 120.340932 102.505866 
L 121.090583 120.167017 
L 121.840234 141.01849 
L 122.589884 131.266502 
L 124.089186 61.836711 
L 124.838836 77.063669 
L 125.588487 120.744704 
L 126.338138 122.91347 
L 127.087788 118.561588 
L 127.837439 91.213838 
L 128.58709 98.542614 
L 129.33674 127.926411 
L 130.086391 126.406362 
L 130.836042 126.402694 
L 131.585692 80.543492 
L 132.335343 76.10494 
L 133.084994 131.370675 
L 133.834644 156.10088 
L 134.584295 169.49863 
L 135.333946 158.765509 
L 136.083597 138.04424 
L 136.833247 155.722691 
L 137.582898 162.74382 
L 138.332549 156.873225 
L 139.082199 79.120723 
L 139.83185 53.598778 
L 140.581501 79.764883 
L 141.331151 130.698478 
L 142.080802 112.512372 
L 142.830453 85.2284 
L 143.580103 49.912472 
L 144.329754 62.64935 
L 145.079405 122.708408 
L 146.578706 86.667599 
L 147.328357 46.140567 
L 148.078007 48.446857 
L 148.827658 103.254077 
L 149.577309 122.090063 
L 150.32696 134.972202 
L 151.07661 116.021097 
L 151.826261 111.637799 
L 152.575912 141.756654 
L 153.325562 141.143137 
L 154.075213 130.585725 
L 154.824864 68.012009 
L 155.574514 45.185888 
L 156.324165 76.561713 
L 157.073816 125.71279 
L 157.823466 118.690928 
L 159.322768 77.622052 
L 160.072418 93.959686 
L 160.822069 131.064341 
L 161.57172 132.713259 
L 162.32137 137.462067 
L 163.071021 120.275205 
L 163.820672 132.634518 
L 164.570323 158.626561 
L 165.319973 158.122938 
L 166.069624 141.383526 
L 166.819275 121.978016 
L 167.568925 123.435725 
L 168.318576 166.774247 
L 169.068227 174.029396 
L 169.817877 165.646992 
L 170.567528 127.758173 
L 171.317179 111.193199 
L 172.81648 161.831571 
L 173.566131 136.325834 
L 174.315781 127.065422 
L 175.065432 122.459701 
L 175.815083 129.91921 
L 176.564733 140.74609 
L 177.314384 124.641726 
L 178.064035 134.95206 
L 178.813686 107.372822 
L 179.563336 117.668339 
L 180.312987 153.298356 
L 181.062638 139.886617 
L 181.812288 142.797097 
L 182.561939 136.346618 
L 183.31159 139.371385 
L 184.06124 154.74357 
L 184.810891 140.767741 
L 185.560542 134.633164 
L 186.310192 103.719789 
L 187.059843 95.609111 
L 188.559144 130.409668 
L 189.308795 100.817542 
L 190.058446 83.460934 
L 190.808096 69.630692 
L 191.557747 81.227237 
L 192.307398 95.644706 
L 193.057049 91.169202 
L 193.806699 98.508273 
L 194.55635 69.760819 
L 195.306001 84.515621 
L 196.055651 132.49357 
L 196.805302 140.50673 
L 197.554953 153.070675 
L 198.304603 123.339056 
L 199.054254 119.267971 
L 199.803905 147.690547 
L 200.553555 144.878736 
L 201.303206 132.541059 
L 202.052857 82.075639 
L 202.802507 78.320782 
L 203.552158 111.492746 
L 204.301809 119.709632 
L 205.051459 99.643974 
L 205.80111 87.234826 
L 206.550761 77.458259 
L 207.300412 85.814799 
L 208.050062 83.866136 
L 209.549364 76.687092 
L 210.299014 56.619725 
L 211.048665 85.896948 
L 211.798316 109.294624 
L 212.547966 109.823238 
L 213.297617 121.536666 
L 214.047268 117.812583 
L 214.796918 111.050004 
L 215.546569 124.64372 
L 217.04587 100.805642 
L 217.795521 71.96166 
L 218.545172 75.680184 
L 219.294822 96.832859 
L 220.044473 90.699956 
L 220.794124 86.300727 
L 221.543775 79.211795 
L 222.293425 78.43245 
L 223.043076 99.922256 
L 224.542377 115.856166 
L 225.292028 117.221274 
L 226.041679 104.316502 
L 226.791329 135.665159 
L 227.54098 156.402813 
L 228.290631 158.615073 
L 229.040281 154.477875 
L 229.789932 128.639327 
L 230.539583 132.657312 
L 231.289233 145.904626 
L 232.038884 151.183304 
L 232.788535 150.517742 
L 233.538185 136.80112 
L 234.287836 147.487006 
L 235.037487 151.451341 
L 235.787138 144.308926 
L 236.536788 143.041342 
L 237.286439 135.275156 
L 238.03609 114.58031 
L 239.535391 103.916458 
L 240.285042 120.325041 
L 241.034692 111.944912 
L 241.784343 101.709141 
L 242.533994 137.622291 
L 243.283644 145.278223 
L 244.033295 129.696712 
L 244.782946 131.101941 
L 245.532596 128.781917 
L 246.282247 123.269139 
L 247.031898 118.677054 
L 247.781548 103.751593 
L 248.531199 105.128023 
L 249.28085 87.602011 
L 250.030501 101.768676 
L 250.780151 105.499521 
L 251.529802 71.258805 
L 252.279453 78.070184 
L 253.029103 105.036251 
L 253.778754 105.437077 
L 254.528405 113.223326 
L 255.278055 70.544744 
L 256.027706 68.064931 
L 256.777357 100.948854 
L 257.527007 94.218838 
L 258.276658 102.458951 
L 259.026309 86.732006 
L 259.775959 81.579606 
L 260.52561 94.952114 
L 261.275261 102.926379 
L 262.024911 116.418282 
L 262.774562 104.37618 
L 263.524213 89.372793 
L 264.273864 79.794265 
L 265.023514 64.888631 
L 265.773165 61.936884 
L 266.522816 72.61662 
L 267.272466 69.120963 
L 268.022117 79.648091 
L 268.771768 75.908312 
L 269.521418 82.718525 
L 270.271069 85.671508 
L 271.02072 77.434473 
L 271.77037 84.801274 
L 272.520021 79.506327 
L 273.269672 85.664493 
L 274.019322 97.639748 
L 274.768973 97.659877 
L 275.518624 100.550136 
L 276.268274 87.315649 
L 277.017925 88.821656 
L 277.767576 115.706548 
L 278.517227 120.688529 
L 279.266877 117.756092 
L 280.016528 94.003318 
L 280.766179 76.784137 
L 281.515829 94.829211 
L 282.26548 93.494216 
L 283.015131 82.006577 
L 283.764781 86.889415 
L 284.514432 74.636688 
L 285.264083 82.187059 
L 286.013733 87.13762 
L 286.763384 84.489511 
L 287.513035 79.087961 
L 289.012336 76.230094 
L 289.761987 78.534786 
L 290.511637 86.40981 
L 291.261288 88.81643 
L 292.010939 89.463438 
L 292.76059 77.448176 
L 293.51024 85.214163 
L 294.259891 80.863031 
L 295.009542 80.538099 
L 295.759192 62.212024 
L 296.508843 52.585774 
L 297.258494 63.904258 
L 298.008144 60.371399 
L 299.507446 47.2591 
L 300.257096 45.148835 
L 301.006747 47.63544 
L 301.756398 41.004948 
L 302.506048 54.614521 
L 303.255699 50.094106 
L 304.00535 54.651231 
L 304.755 66.108859 
L 305.504651 67.840575 
L 306.254302 61.236327 
L 307.003953 77.311757 
L 307.753603 75.238667 
L 308.503254 78.95328 
L 309.252905 98.684307 
L 310.002555 112.188059 
L 310.752206 100.124986 
L 311.501857 82.852773 
L 312.251507 83.45141 
L 313.001158 94.386962 
L 313.750809 95.798325 
L 314.500459 90.838445 
L 315.25011 83.367068 
L 315.999761 70.19305 
L 316.749411 74.347873 
L 317.499062 84.174254 
L 318.248713 92.427248 
L 318.998363 91.638339 
L 319.748014 81.041204 
L 320.497665 89.04261 
L 321.247316 88.756097 
L 321.996966 93.221341 
L 322.746617 101.831761 
L 323.496268 83.536331 
L 324.245918 89.168162 
L 324.995569 101.897102 
L 325.74522 101.787514 
L 326.49487 104.104604 
L 327.244521 99.887464 
L 327.994172 90.325212 
L 328.743822 103.013645 
L 329.493473 96.355524 
L 330.243124 95.363031 
L 330.992774 90.117989 
L 331.742425 77.315023 
L 332.492076 83.763677 
L 333.241726 84.242644 
L 333.991377 82.391852 
L 334.741028 80.892072 
L 335.490679 73.922428 
L 336.240329 91.772799 
L 336.98998 98.511612 
L 337.739631 94.940315 
L 338.489281 102.370739 
L 339.238932 107.960474 
L 339.988583 107.42992 
L 340.738233 110.464087 
L 341.487884 108.435285 
L 342.237535 108.654773 
L 342.987185 110.327633 
L 343.736836 116.197363 
L 344.486487 119.42496 
L 345.236137 101.752732 
L 345.985788 92.701302 
L 346.735439 88.338098 
L 347.485089 88.075848 
L 348.23474 101.395286 
L 348.984391 95.747204 
L 349.734042 83.799824 
L 350.483692 84.396724 
L 351.233343 82.194839 
L 351.982994 86.581295 
L 352.732644 88.468168 
L 353.482295 82.767909 
L 354.231946 90.318844 
L 354.981596 76.140366 
L 355.731247 79.231452 
L 356.480898 93.628566 
L 357.230548 64.593129 
L 357.980199 67.224602 
L 358.72985 91.439934 
L 359.4795 89.06069 
L 360.229151 79.415262 
L 360.978802 44.046242 
L 361.728452 34.887519 
L 362.478103 56.572055 
L 363.227754 53.022447 
L 363.977405 61.29969 
L 364.727055 45.610909 
L 365.476706 24.39839 
L 366.226357 48.052032 
L 366.976007 82.550279 
L 367.725658 91.271582 
L 368.475309 98.419787 
L 369.224959 80.175527 
L 369.97461 85.033631 
L 370.724261 95.16418 
L 371.473911 98.063657 
L 372.223562 88.541969 
L 372.973213 55.40109 
L 373.722863 57.829163 
L 374.472514 99.483553 
L 375.222165 90.941614 
L 375.971815 85.948715 
L 377.471117 73.253475 
L 378.220768 80.59494 
L 378.970418 83.444198 
L 379.720069 82.477381 
L 380.46972 87.400865 
L 381.21937 81.619345 
L 381.969021 79.13591 
L 382.718672 76.089536 
L 384.217973 71.380115 
L 384.967624 74.843371 
L 385.717274 80.939797 
L 386.466925 83.879917 
L 387.216576 73.523586 
L 387.966226 75.51113 
L 388.715877 83.293031 
L 389.465528 81.985645 
L 390.215178 71.716252 
L 390.964829 66.118585 
L 391.71448 69.827793 
L 392.464131 77.416657 
L 393.213781 74.106659 
L 393.963432 68.817399 
L 394.713083 79.97151 
L 395.462733 84.713909 
L 396.212384 87.871744 
L 396.962035 82.767054 
L 397.711685 74.642209 
L 398.461336 84.524283 
L 399.210987 86.287854 
L 399.960637 88.977356 
L 400.710288 98.588793 
L 401.459939 96.926404 
L 402.209589 96.75661 
L 402.95924 89.201242 
L 403.708891 91.168741 
L 404.458541 89.253244 
L 405.208192 84.823302 
L 405.957843 85.257434 
L 406.707494 97.029547 
L 407.457144 102.158402 
L 408.206795 97.293076 
L 408.956446 94.781394 
L 409.706096 98.421234 
L 410.455747 98.050272 
L 411.205398 104.140026 
L 411.955048 106.900481 
L 412.704699 106.725721 
L 413.45435 113.359806 
L 414.204 106.185803 
L 414.953651 100.804927 
L 415.703302 100.9121 
L 416.452952 103.688461 
L 417.202603 100.878567 
L 417.952254 79.350159 
L 418.701904 73.41604 
L 419.451555 106.962273 
L 420.201206 114.723235 
L 420.950857 119.558224 
L 421.700507 75.248323 
L 422.450158 55.319065 
L 423.199809 81.227437 
L 423.949459 125.829096 
L 424.69911 115.093153 
L 425.448761 77.055201 
L 426.198411 47.885969 
L 426.948062 67.944931 
L 427.697713 113.303738 
L 428.447363 115.377093 
L 429.197014 115.646863 
L 429.946665 106.233047 
L 430.696315 117.721524 
L 431.445966 132.48752 
L 432.195617 134.322192 
L 432.945267 127.583677 
L 433.694918 92.794578 
L 434.444569 100.012021 
L 435.19422 132.804443 
L 435.94387 140.138763 
L 436.693521 143.860822 
L 437.443172 137.801333 
L 438.192822 122.386496 
L 438.942473 127.730782 
L 439.692124 126.023098 
L 440.441774 130.946804 
L 441.191425 129.463806 
L 443.440377 118.374476 
L 444.190028 134.463765 
L 444.939678 144.32128 
L 445.689329 131.401472 
L 446.43898 136.020908 
L 447.18863 138.786847 
L 447.938281 134.354328 
L 448.687932 125.781152 
L 449.437583 132.622493 
L 450.187233 130.0126 
L 450.936884 122.257485 
L 451.686535 119.275298 
L 452.436185 126.393475 
L 453.185836 128.022554 
L 453.935487 130.357684 
L 454.685137 149.831302 
L 455.434788 138.753875 
L 456.184439 138.151481 
L 456.934089 140.437411 
L 457.68374 133.29215 
L 458.433391 146.338273 
L 459.183041 137.538886 
L 459.932692 132.928708 
L 461.431993 149.434548 
L 462.181644 151.945122 
L 462.931295 145.667191 
L 463.680946 138.373036 
L 464.430596 136.586585 
L 465.180247 137.965501 
L 465.929898 145.904267 
L 466.679548 143.141345 
L 467.429199 136.27365 
L 468.17885 134.030391 
L 468.9285 128.480569 
L 469.678151 131.862827 
L 470.427802 129.841664 
L 471.177452 116.816816 
L 471.927103 121.084278 
L 472.676754 138.305894 
L 473.426404 144.567998 
L 474.176055 125.912798 
L 474.925706 97.351268 
L 475.675357 99.646058 
L 476.425007 127.332076 
L 477.174658 126.828338 
L 477.924309 126.590929 
L 478.673959 75.01869 
L 479.42361 66.194127 
L 480.173261 102.171582 
L 480.922911 127.348266 
L 481.672562 140.38103 
L 482.422213 116.708397 
L 483.171863 98.351866 
L 483.921514 120.182595 
L 484.671165 148.125456 
L 486.170466 104.883958 
L 486.920117 74.330927 
L 487.669767 91.255802 
L 488.419418 131.246291 
L 489.169069 127.117638 
L 489.91872 120.936759 
L 490.66837 99.306232 
L 491.418021 108.236329 
L 492.167672 131.830607 
L 492.917322 138.355723 
L 493.666973 128.694604 
L 494.416624 126.455176 
L 495.166274 122.498123 
L 495.915925 129.082134 
L 496.665576 125.277786 
L 497.415226 131.604765 
L 498.164877 143.709298 
L 498.914528 121.412476 
L 499.664178 134.355826 
L 500.413829 139.934085 
L 501.16348 163.282344 
L 502.662781 129.788122 
L 503.412432 143.190606 
L 504.162083 136.412 
L 504.911733 127.124329 
L 505.661384 124.423935 
L 506.411035 126.624958 
L 507.160685 140.516211 
L 507.910336 141.130573 
L 508.659987 152.651271 
L 509.409637 136.734468 
L 510.159288 139.541945 
L 510.908939 150.02129 
L 511.658589 130.854478 
L 512.40824 118.661314 
L 513.157891 124.975048 
L 513.907541 132.329852 
L 514.657192 125.5048 
L 515.406843 130.825255 
L 516.156493 129.74518 
L 516.906144 135.602855 
L 517.655795 143.254868 
L 518.405446 128.441665 
L 519.155096 132.979516 
L 519.904747 147.105693 
L 520.654398 128.697433 
L 522.153699 140.925813 
L 522.90335 129.287526 
L 523.653 128.680105 
L 525.152302 139.859131 
L 525.901952 126.734799 
L 526.651603 124.322957 
L 527.401254 126.953652 
L 528.150904 112.013505 
L 528.900555 124.918527 
L 529.650206 141.801072 
L 530.399856 134.406059 
L 531.149507 122.992239 
L 531.899158 97.158629 
L 532.648809 109.059594 
L 533.398459 139.611012 
L 534.14811 130.897767 
L 534.897761 115.822157 
L 535.647411 74.025916 
L 536.397062 76.725605 
L 537.146713 122.94107 
L 537.896363 132.832587 
L 538.646014 127.87679 
L 539.395665 105.197832 
L 540.145315 99.267451 
L 540.894966 125.248916 
L 541.644617 124.639531 
L 542.394267 127.45813 
L 543.893569 92.124342 
L 545.39287 131.604242 
L 546.142521 136.776506 
L 546.892172 138.351765 
L 547.641822 125.499305 
L 548.391473 129.609006 
L 549.141124 146.599977 
L 549.890774 135.663048 
L 550.640425 135.925811 
L 551.390076 121.334316 
L 552.139726 120.36174 
L 552.889377 139.797872 
L 553.639028 141.609092 
L 554.388678 133.71161 
L 555.138329 134.653178 
L 555.88798 143.478319 
L 556.63763 146.454098 
L 558.136932 158.479871 
L 558.886582 152.719105 
L 559.636233 144.038608 
L 560.385884 145.937205 
L 561.135535 145.562137 
L 561.885185 135.38584 
L 562.634836 129.535499 
L 563.384487 136.944322 
L 564.134137 140.742977 
L 564.883788 143.354444 
L 565.633439 143.408301 
L 566.383089 150.217974 
L 567.13274 140.635933 
L 567.882391 140.983939 
L 568.632041 148.599266 
L 569.381692 157.742431 
L 570.131343 149.037219 
L 570.880993 148.294856 
L 571.630644 150.269576 
L 572.380295 139.289005 
L 573.129945 136.918101 
L 574.629247 146.464625 
L 575.378898 143.047359 
L 576.128548 145.981864 
L 576.878199 147.889087 
L 577.62785 161.247772 
L 578.3775 152.370099 
L 579.127151 148.736869 
L 579.876802 157.09988 
L 580.626452 154.835025 
L 581.376103 139.531208 
L 582.125754 129.843447 
L 582.875404 129.236356 
L 583.625055 138.438709 
L 584.374706 116.112262 
L 585.124356 100.229721 
L 585.874007 132.946197 
L 586.623658 117.603287 
L 587.373308 123.670965 
L 588.122959 125.905548 
L 588.87261 112.871078 
L 589.622261 129.237606 
L 590.371911 148.219585 
L 591.121562 139.794121 
L 591.871213 149.840519 
L 592.620863 137.649833 
L 593.370514 138.332105 
L 594.120165 145.51048 
L 594.869815 142.650991 
L 595.619466 131.831915 
L 596.369117 95.009635 
L 597.118767 92.639851 
L 597.868418 128.313874 
L 598.618069 149.111871 
L 599.367719 154.783595 
L 600.11737 132.013361 
L 600.867021 119.290858 
L 601.616671 143.870642 
L 602.366322 155.029849 
L 603.115973 153.984095 
L 603.865624 145.896837 
L 604.615274 124.061064 
L 605.364925 139.519383 
L 606.114576 164.266641 
L 606.864226 163.667525 
L 607.613877 151.285841 
L 608.363528 143.464119 
L 609.113178 152.60941 
L 609.862829 177.666269 
L 610.61248 173.524729 
L 611.36213 156.510219 
L 612.111781 144.541795 
L 612.861432 146.368871 
L 613.611082 178.484938 
L 614.360733 182.233494 
L 615.110384 184.554129 
L 615.860034 171.40778 
L 616.609685 167.098386 
L 617.359336 168.49228 
L 618.108987 171.017614 
L 618.858637 166.419633 
L 620.357939 143.829577 
L 621.107589 151.387757 
L 621.85724 152.327233 
L 622.606891 152.199643 
L 623.356541 170.036314 
L 624.106192 162.803379 
L 624.855843 173.965202 
L 626.355144 146.234885 
L 627.104795 155.034882 
L 627.854445 167.998944 
L 628.604096 173.781075 
L 629.353747 180.971329 
L 630.103397 157.813049 
L 630.853048 152.19579 
L 631.602699 178.651891 
L 632.35235 157.532667 
L 633.102 155.792412 
L 633.851651 151.507254 
L 634.601302 165.84652 
L 635.350952 169.024609 
L 636.100603 157.920482 
L 637.599904 168.285141 
L 638.349555 176.467865 
L 639.099206 188.890369 
L 639.848856 179.668066 
L 640.598507 169.003599 
L 641.348158 130.96202 
L 642.097808 124.561275 
L 642.847459 154.324992 
L 643.59711 154.692474 
L 644.34676 150.463123 
L 645.096411 127.200204 
L 645.846062 111.592057 
L 646.595713 140.211796 
L 647.345363 159.081601 
L 648.095014 162.764011 
L 649.594315 111.561863 
L 650.343966 126.534791 
L 651.093617 165.421405 
L 651.843267 165.758619 
L 652.592918 167.049681 
L 653.342569 139.627474 
L 654.092219 141.611737 
L 654.84187 163.466884 
L 655.591521 164.287899 
L 656.341171 170.978151 
L 657.090822 157.2116 
L 657.840473 147.698336 
L 658.590123 168.305547 
L 659.339774 160.815414 
L 660.089425 163.991088 
L 660.839076 167.937721 
L 661.588726 156.957278 
L 662.338377 166.257862 
L 663.088028 168.033782 
L 663.837678 170.656937 
L 664.587329 153.14543 
L 665.33698 149.572755 
L 666.08663 177.73068 
L 666.836281 169.459131 
L 667.585932 163.397358 
L 668.335582 160.421408 
L 669.085233 155.846957 
L 669.834884 169.028449 
L 670.584534 163.21594 
L 671.334185 169.745066 
L 672.083836 155.689549 
L 672.833486 155.817524 
L 673.583137 160.194321 
L 674.332788 160.097576 
L 675.082439 156.438504 
L 675.832089 154.09566 
L 676.58174 153.930015 
L 677.331391 138.189846 
L 678.081041 125.899337 
L 678.830692 129.682084 
L 679.580343 144.497888 
L 680.329993 143.271215 
L 681.829295 168.013781 
L 682.578945 169.140206 
L 683.328596 162.685268 
L 684.078247 166.775914 
L 684.827897 162.231403 
L 685.577548 167.160262 
L 686.327199 165.12514 
L 687.076849 158.014146 
L 687.8265 164.806925 
L 688.576151 169.368996 
L 689.325802 172.222673 
L 690.075452 160.556609 
L 690.825103 154.673479 
L 691.574754 167.225614 
L 692.324404 184.190425 
L 693.074055 186.985465 
L 693.823706 201.302442 
L 694.573356 175.111484 
L 695.323007 180.671475 
L 696.072658 197.831145 
L 696.822308 194.542455 
L 697.571959 182.937545 
L 698.32161 145.72048 
L 699.07126 139.72312 
L 699.820911 172.788914 
L 700.570562 191.874304 
L 701.320212 175.552876 
L 702.069863 150.728562 
L 702.819514 141.923024 
L 703.569165 168.189564 
L 704.318815 188.320652 
L 705.068466 184.899332 
L 706.567767 165.150932 
L 707.317418 178.837655 
L 708.067069 201.184956 
L 708.816719 187.408857 
L 709.56637 184.044376 
L 710.316021 178.015342 
L 711.065671 176.853708 
L 712.564973 200.362456 
L 713.314623 186.763035 
L 714.064274 169.836366 
L 714.813925 172.593841 
L 715.563575 194.165086 
L 717.062877 206.382089 
L 717.812528 197.854738 
L 718.562178 200.723731 
L 719.311829 206.049294 
L 720.06148 206.410121 
L 720.81113 183.988635 
L 721.560781 187.896224 
L 722.310432 184.712505 
L 723.060082 186.877359 
L 723.809733 194.125493 
L 724.559384 192.678002 
L 725.309034 205.956032 
L 726.058685 188.644784 
L 726.808336 183.999416 
L 727.557986 200.8845 
L 728.307637 210.553374 
L 729.806938 194.767854 
L 730.556589 197.708826 
L 731.30624 211.886687 
L 732.055891 198.754425 
L 732.805541 201.513836 
L 733.555192 208.472249 
L 734.304843 191.322399 
L 735.054493 198.692162 
L 735.804144 209.195123 
L 736.553795 204.419059 
L 737.303445 205.870018 
L 738.053096 195.309639 
L 739.552397 203.243808 
L 740.302048 195.13438 
L 741.051699 204.597762 
L 741.801349 195.904682 
L 742.551 191.67615 
L 743.300651 220.258988 
L 744.050301 204.98509 
L 744.799952 207.620984 
L 745.549603 205.911196 
L 746.299254 207.724649 
L 747.048904 217.965115 
L 747.798555 214.688954 
L 748.548206 197.916982 
L 749.297856 188.232618 
L 750.047507 189.92704 
L 750.797158 193.263135 
L 751.546808 198.234589 
L 752.296459 208.017477 
L 753.04611 191.280136 
L 753.79576 189.675092 
L 754.545411 180.218507 
L 755.295062 167.263672 
L 756.794363 187.876082 
L 757.544014 182.108828 
L 758.293664 177.680253 
L 759.043315 164.36145 
L 759.792966 166.090265 
L 760.542617 182.364502 
L 761.292267 179.84417 
L 762.041918 175.477867 
L 763.541219 157.7421 
L 765.040521 195.15454 
L 765.790171 197.203091 
L 766.539822 190.129055 
L 767.289473 170.930016 
L 768.039123 173.253071 
L 768.788774 178.782598 
L 769.538425 197.38981 
L 770.288075 179.672005 
L 771.037726 155.543275 
L 771.787377 167.573782 
L 772.537027 186.877029 
L 773.286678 174.754136 
L 774.036329 165.186961 
L 774.78598 149.757118 
L 775.53563 154.923277 
L 776.285281 178.823339 
L 777.034932 192.367771 
L 777.784582 203.535156 
L 778.534233 195.200042 
L 779.283884 185.26275 
L 780.033534 199.606078 
L 780.783185 182.532116 
L 781.532836 171.613252 
L 782.282486 169.036939 
L 783.032137 174.627026 
L 783.781788 179.305528 
L 784.531438 176.914763 
L 785.281089 183.771491 
L 786.03074 186.467861 
L 786.78039 169.229976 
L 787.530041 170.671223 
L 788.279692 188.589887 
L 789.778993 172.669919 
L 790.528644 166.897608 
L 791.278295 175.30202 
L 792.027945 186.27301 
L 792.777596 184.169771 
L 793.527247 178.677347 
L 794.276897 174.327323 
L 795.026548 179.131526 
L 795.776199 174.340745 
L 796.525849 166.538542 
L 797.2755 178.237724 
L 798.025151 171.786327 
L 798.774801 172.404969 
L 799.524452 178.206031 
L 800.274103 172.651611 
L 801.023753 168.41837 
L 801.773404 156.819792 
L 802.523055 154.365552 
L 803.272706 158.47184 
L 804.022356 158.137675 
L 804.772007 146.90967 
L 805.521658 146.792659 
L 806.271308 150.989594 
L 807.020959 145.98121 
L 807.77061 146.063201 
L 808.52026 150.761032 
L 809.269911 143.558165 
L 810.019562 143.507234 
L 810.769212 150.042356 
L 811.518863 148.553987 
L 812.268514 142.412108 
L 813.018164 141.270813 
L 813.767815 142.362827 
L 814.517466 139.26339 
L 815.267116 140.049834 
L 816.016767 123.415454 
L 816.766418 135.43777 
L 817.516069 129.142366 
L 818.265719 131.461634 
L 819.01537 141.603735 
L 819.765021 110.176296 
L 820.514671 96.20506 
L 821.264322 123.730087 
L 822.013973 146.721238 
L 822.763623 143.276598 
L 823.513274 123.294126 
L 824.262925 114.413261 
L 825.012575 138.681832 
L 825.762226 173.824785 
L 826.511877 153.861139 
L 827.261527 157.299853 
L 828.011178 151.774791 
L 828.760829 160.471111 
L 829.510479 165.071625 
L 830.26013 173.547687 
L 831.009781 168.120485 
L 831.759432 152.010419 
L 832.509082 156.911573 
L 833.258733 176.138265 
L 834.008384 169.438881 
L 834.758034 176.988144 
L 835.507685 162.683383 
L 836.257336 153.920371 
L 837.006986 172.613585 
L 837.756637 183.580674 
L 838.506288 181.341829 
L 839.255938 181.856215 
L 840.005589 191.733738 
L 840.75524 185.315227 
L 841.50489 185.076382 
L 842.254541 185.777039 
L 843.004192 186.010306 
L 843.753842 184.818259 
L 844.503493 193.84937 
L 845.253144 196.233382 
L 846.002795 204.132519 
L 846.752445 194.255757 
L 847.502096 182.633725 
L 848.251747 196.018982 
L 849.001397 188.895381 
L 849.751048 171.493255 
L 850.500699 172.484088 
L 851.250349 173.032323 
L 852 170.686763 
L 852 170.686763 
" style="fill:none;stroke:#377eb8;stroke-dasharray:7.4,3.2;stroke-dashoffset:0;stroke-linecap:round;stroke-width:2;"/>
   </g>
   <g id="patch_3">
    <path d="M 85.10735 225.99886 
L 85.10735 22.600845 
" style="fill:none;stroke:#000000;stroke-linecap:square;stroke-linejoin:miter;stroke-width:0.8;"/>
   </g>
   <g id="patch_4">
    <path d="M 852 225.99886 
L 852 22.600845 
" style="fill:none;"/>
   </g>
   <g id="patch_5">
    <path d="M 85.10735 225.99886 
L 852 225.99886 
" style="fill:none;stroke:#000000;stroke-linecap:square;stroke-linejoin:miter;stroke-width:0.8;"/>
   </g>
   <g id="patch_6">
    <path d="M 85.10735 22.600845 
L 852 22.600845 
" style="fill:none;"/>
   </g>
   <g id="legend_1">
    <g id="patch_7">
     <path d="M 574.86661 51.311945 
L 847.2 51.311945 
Q 850.4 51.311945 850.4 48.111945 
L 850.4 27.400845 
Q 850.4 24.200845 847.2 24.200845 
L 574.86661 24.200845 
Q 571.66661 24.200845 571.66661 27.400845 
L 571.66661 48.111945 
Q 571.66661 51.311945 574.86661 51.311945 
z
" style="fill:none;opacity:0;"/>
    </g>
    <g id="line2d_10">
     <path d="M 578.06661 36.200845 
L 610.06661 36.200845 
" style="fill:none;stroke:#e41a1c;stroke-linecap:square;stroke-width:2;"/>
    </g>
    <g id="line2d_11"/>
    <g id="text_10">
     <!-- \textbf{Healthy} -->
     <defs>
      <path d="M 46 29.65625 
C 46 38.8125 38.703125 44.984375 24.59375 44.984375 
C 19 44.984375 7.203125 44.984375 7.203125 36.46875 
C 7.203125 32.203125 10.40625 30.390625 13.09375 30.390625 
C 16.09375 30.390625 19 32.484375 19 36.296875 
C 19 38.203125 18.296875 39.984375 16.59375 41.09375 
C 19.90625 42 22.296875 42 24.203125 42 
C 31 42 35.09375 38.203125 35.09375 29.984375 
L 35.09375 25.984375 
C 19.296875 25.984375 3.40625 21.59375 3.40625 10.5625 
C 3.40625 1.484375 15 -0.5 21.90625 -0.5 
C 29.59375 -0.5 34.5 3.640625 36.5 7.96875 
C 36.5 4.28125 36.5 0 46.59375 0 
L 51.703125 0 
C 53.796875 0 54.59375 0 54.59375 2.265625 
C 54.59375 4.265625 53.703125 4.265625 52.296875 4.265625 
C 46 4.265625 46 5.84375 46 8.15625 
z
M 35.09375 13.78125 
C 35.09375 4.546875 26.703125 2.78125 23.5 2.78125 
C 18.59375 2.78125 14.5 6.09375 14.5 10.71875 
C 14.5 19.890625 25.296875 23 35.09375 23 
z
" id="CMBX12-97"/>
      <path d="M 21.703125 69 
L 4.40625 69 
L 4.40625 64.328125 
C 10.59375 64.328125 11.296875 64.328125 11.296875 60.40625 
L 11.296875 4.0625 
L 4.40625 4.0625 
L 4.40625 -0.203125 
C 6.703125 0 13.796875 0 16.5 0 
C 19.203125 0 26.296875 0 28.59375 -0.203125 
L 28.59375 4.0625 
L 21.703125 4.0625 
z
" id="CMBX12-108"/>
      <path d="M 53.09375 30.0625 
C 53.09375 39.453125 49 44.28125 38 44.28125 
C 27.90625 44.28125 23 37.25 21.59375 34.28125 
L 21.5 34.28125 
L 21.5 69 
L 4.203125 69 
L 4.203125 64.328125 
C 10.40625 64.328125 11.09375 64.328125 11.09375 60.28125 
L 11.09375 4.0625 
L 4.203125 4.0625 
L 4.203125 -0.203125 
C 6.5 0 13.703125 0 16.5 0 
C 19.296875 0 26.59375 0 28.90625 -0.203125 
L 28.90625 4.0625 
L 22 4.0625 
L 22 25.109375 
C 22 35.765625 30 41 36.40625 41 
C 40.09375 41 42.203125 38.640625 42.203125 31.140625 
L 42.203125 4.0625 
L 35.296875 4.0625 
L 35.296875 -0.203125 
C 37.59375 0 44.796875 0 47.59375 0 
C 50.40625 0 57.703125 0 60 -0.203125 
L 60 4.0625 
L 53.09375 4.0625 
z
" id="CMBX12-104"/>
     </defs>
     <g transform="translate(622.86661 41.800845)scale(0.16 -0.16)">
      <use transform="translate(0 -0.072648)scale(0.996264)" xlink:href="#CMBX12-72"/>
      <use transform="translate(87.634475 -0.072648)scale(0.996264)" xlink:href="#CMBX12-101"/>
      <use transform="translate(138.773742 -0.072648)scale(0.996264)" xlink:href="#CMBX12-97"/>
      <use transform="translate(193.25693 -0.072648)scale(0.996264)" xlink:href="#CMBX12-108"/>
      <use transform="translate(224.39018 -0.072648)scale(0.996264)" xlink:href="#CMBX12-116"/>
      <use transform="translate(267.976731 -0.072648)scale(0.996264)" xlink:href="#CMBX12-104"/>
      <use transform="translate(327.129907 -0.072648)scale(0.996264)" xlink:href="#CMBX12-121"/>
     </g>
    </g>
    <g id="line2d_12">
     <path d="M 717.15367 36.200845 
L 749.15367 36.200845 
" style="fill:none;stroke:#377eb8;stroke-dasharray:7.4,3.2;stroke-dashoffset:0;stroke-linecap:round;stroke-width:2;"/>
    </g>
    <g id="line2d_13"/>
    <g id="text_11">
     <!-- \textbf{Unhealthy} -->
     <defs>
      <path d="M 72 61.109375 
C 72 63.296875 72.09375 63.40625 74.703125 63.796875 
C 76.5 64 78.5 64 80.296875 64 
L 82.59375 64 
L 82.59375 68.375 
C 80.296875 68.171875 72.5 68.171875 69.703125 68.171875 
C 66.90625 68.171875 59.09375 68.171875 56.796875 68.375 
L 56.796875 64 
L 59.09375 64 
C 61.796875 64 62 64 64.40625 63.703125 
C 67.296875 63.3125 67.40625 63.203125 67.40625 61.015625 
L 67.40625 23.21875 
C 67.40625 9.03125 57.296875 3.265625 45.5 3.265625 
C 28 3.265625 27.59375 16.5625 27.59375 22.328125 
L 27.59375 64 
L 38.203125 64 
L 38.203125 68.171875 
C 35.296875 68.171875 24.59375 68.171875 21 68.171875 
C 17.40625 68.171875 6.703125 68.171875 3.796875 68.171875 
L 3.796875 64 
L 14.40625 64 
L 14.40625 23.015625 
C 14.40625 9.90625 25 -1 45.09375 -1 
C 63.59375 -1 72 10.421875 72 22.953125 
z
" id="CMBX12-85"/>
     </defs>
     <g transform="translate(761.95367 41.800845)scale(0.16 -0.16)">
      <use transform="translate(0 -0.072648)scale(0.996264)" xlink:href="#CMBX12-85"/>
      <use transform="translate(86.135473 -0.072648)scale(0.996264)" xlink:href="#CMBX12-110"/>
      <use transform="translate(148.401973 -0.072648)scale(0.996264)" xlink:href="#CMBX12-104"/>
      <use transform="translate(210.668474 -0.072648)scale(0.996264)" xlink:href="#CMBX12-101"/>
      <use transform="translate(261.807741 -0.072648)scale(0.996264)" xlink:href="#CMBX12-97"/>
      <use transform="translate(316.290929 -0.072648)scale(0.996264)" xlink:href="#CMBX12-108"/>
      <use transform="translate(347.42418 -0.072648)scale(0.996264)" xlink:href="#CMBX12-116"/>
      <use transform="translate(391.01073 -0.072648)scale(0.996264)" xlink:href="#CMBX12-104"/>
      <use transform="translate(450.163906 -0.072648)scale(0.996264)" xlink:href="#CMBX12-121"/>
     </g>
    </g>
   </g>
  </g>
 </g>
 <defs>
  <clipPath id="p878bf6152e">
   <rect height="203.398015" width="766.89265" x="85.10735" y="22.600845"/>
  </clipPath>
 </defs>
</svg>
