<?xml version="1.0" encoding="utf-8" standalone="no"?>
<!DOCTYPE svg PUBLIC "-//W3C//DTD SVG 1.1//EN"
  "http://www.w3.org/Graphics/SVG/1.1/DTD/svg11.dtd">
<!-- Created with matplotlib (https://matplotlib.org/) -->
<svg height="288pt" version="1.1" viewBox="0 0 864 288" width="864pt" xmlns="http://www.w3.org/2000/svg" xmlns:xlink="http://www.w3.org/1999/xlink">
 <defs>
  <style type="text/css">
*{stroke-linecap:butt;stroke-linejoin:round;}
  </style>
 </defs>
 <g id="figure_1">
  <g id="patch_1">
   <path d="M 0 288 
L 864 288 
L 864 0 
L 0 0 
z
" style="fill:#ffffff;"/>
  </g>
  <g id="axes_1">
   <g id="patch_2">
    <path d="M 69.55691 225.99886 
L 852 225.99886 
L 852 14.63729 
L 69.55691 14.63729 
z
" style="fill:#ffffff;"/>
   </g>
   <g id="matplotlib.axis_1">
    <g id="xtick_1">
     <g id="line2d_1">
      <defs>
       <path d="M 0 0 
L 0 3.5 
" id="mc87edf7d94" style="stroke:#000000;stroke-width:0.8;"/>
      </defs>
      <g>
       <use style="stroke:#000000;stroke-width:0.8;" x="226.198498" xlink:href="#mc87edf7d94" y="225.99886"/>
      </g>
     </g>
     <g id="text_1">
      <!-- $1000$ -->
      <defs>
       <path d="M 34.59375 62.109375 
C 34.59375 65 34.40625 65 31.203125 65 
C 23.796875 59 12.703125 59 10.5 59 
L 8.59375 59 
L 8.59375 54.734375 
L 10.5 54.734375 
C 14 54.734375 19.296875 55.328125 23.296875 56.625 
L 23.296875 4.171875 
L 9.40625 4.171875 
L 9.40625 0 
C 13.59375 0 24.09375 0 28.796875 0 
C 33.5 0 44.09375 0 48.296875 0 
L 48.296875 4.171875 
L 34.59375 4.171875 
z
" id="CMBX12-49"/>
       <path d="M 51.703125 31.84375 
C 51.703125 41.375 51.703125 65.28125 28.09375 65.28125 
C 4.40625 65.28125 4.40625 41.46875 4.40625 31.84375 
C 4.40625 22.3125 4.40625 -1 28 -1 
C 51.59375 -1 51.703125 22.015625 51.703125 31.84375 
z
M 28.09375 2.28125 
C 24.90625 2.28125 22.5 3.5625 20.5 5.65625 
C 18 8.140625 16.40625 9.703125 16.40625 33.03125 
C 16.40625 39.984375 16.40625 46.3125 17.203125 51.484375 
C 18.59375 61.3125 25.796875 62 28 62 
C 31.203125 62 37.40625 60.515625 38.796875 52.1875 
C 39.703125 47.109375 39.703125 39.078125 39.703125 33.03125 
C 39.703125 9.609375 38.203125 8.234375 35.203125 5.25 
C 33.203125 3.265625 30.5 2.28125 28.09375 2.28125 
z
" id="CMBX12-48"/>
      </defs>
      <g transform="translate(205.948498 245.49886)scale(0.18 -0.18)">
       <use transform="scale(0.996264)" xlink:href="#CMBX12-49"/>
       <use transform="translate(56.039851 0)scale(0.996264)" xlink:href="#CMBX12-48"/>
       <use transform="translate(112.079701 0)scale(0.996264)" xlink:href="#CMBX12-48"/>
       <use transform="translate(168.119552 0)scale(0.996264)" xlink:href="#CMBX12-48"/>
      </g>
     </g>
    </g>
    <g id="xtick_2">
     <g id="line2d_2">
      <g>
       <use style="stroke:#000000;stroke-width:0.8;" x="382.840087" xlink:href="#mc87edf7d94" y="225.99886"/>
      </g>
     </g>
     <g id="text_2">
      <!-- $2000$ -->
      <defs>
       <path d="M 50.5 21.375 
L 46.296875 21.375 
C 46 19.28125 45.296875 13.40625 43.796875 12.421875 
C 43 11.71875 35.203125 11.71875 33.703125 11.71875 
L 18.203125 11.71875 
C 22 14.90625 31.09375 22.46875 32.59375 23.578125 
C 43.703125 31.84375 50.5 36.90625 50.5 46.46875 
C 50.5 58.203125 39.796875 65.28125 26.59375 65.28125 
C 15.296875 65.28125 5.59375 58.90625 5.59375 49.453125 
C 5.59375 44.171875 9.90625 42.6875 12.203125 42.6875 
C 15.296875 42.6875 18.90625 44.765625 18.90625 49.359375 
C 18.90625 53.546875 15.796875 55.625 12.703125 56.03125 
C 16.703125 60.609375 22 61 24.09375 61 
C 33.296875 61 37.703125 53.546875 37.703125 46.375 
C 37.703125 38.609375 32.40625 31.453125 28.296875 27.171875 
L 6.59375 4.578125 
C 5.59375 3.671875 5.59375 3.484375 5.59375 1.6875 
L 5.59375 0 
L 47.59375 0 
z
" id="CMBX12-50"/>
      </defs>
      <g transform="translate(362.590087 245.49886)scale(0.18 -0.18)">
       <use transform="scale(0.996264)" xlink:href="#CMBX12-50"/>
       <use transform="translate(56.039851 0)scale(0.996264)" xlink:href="#CMBX12-48"/>
       <use transform="translate(112.079701 0)scale(0.996264)" xlink:href="#CMBX12-48"/>
       <use transform="translate(168.119552 0)scale(0.996264)" xlink:href="#CMBX12-48"/>
      </g>
     </g>
    </g>
    <g id="xtick_3">
     <g id="line2d_3">
      <g>
       <use style="stroke:#000000;stroke-width:0.8;" x="539.481675" xlink:href="#mc87edf7d94" y="225.99886"/>
      </g>
     </g>
     <g id="text_3">
      <!-- $3000$ -->
      <defs>
       <path d="M 26.09375 33 
C 37.296875 33 37.296875 22.71875 37.296875 17.984375 
C 37.296875 13.53125 37.296875 3.0625 26.5 3.0625 
C 24.40625 3.0625 17.796875 3.0625 13 6.625 
C 17.296875 7.515625 18.796875 10.59375 18.796875 13.5625 
C 18.796875 17.625 15.90625 20.5 11.796875 20.5 
C 7.59375 20.5 4.703125 17.625 4.703125 13.46875 
C 4.703125 4.34375 14.703125 -1 27 -1 
C 43.5 -1 51.40625 8.015625 51.40625 17.921875 
C 51.40625 22.796875 48.90625 32.203125 33.40625 34.875 
C 42.203125 37.59375 48.296875 43.8125 48.296875 51.71875 
C 48.296875 59.25 41.09375 65.578125 27.203125 65.578125 
C 16 65.578125 7.796875 59.65625 7.796875 51.53125 
C 7.796875 46.515625 11.703125 44.90625 14.296875 44.90625 
C 17.203125 44.90625 20.703125 46.8125 20.703125 51.4375 
C 20.703125 53.765625 19.703125 57.171875 15 57.875 
C 19.203125 62 26 62 26.59375 62 
C 35.5 62 35.5 55.03125 35.5 52.015625 
C 35.5 48.984375 35.09375 44.328125 31.90625 40.203125 
C 29.296875 36.75 26.703125 36.5625 22.90625 36.5625 
C 21.703125 36.265625 19.703125 36.265625 19.296875 36.078125 
C 18.703125 35.78125 18.703125 35.078125 18.703125 34.6875 
C 18.703125 33 19.296875 33 21.296875 33 
z
" id="CMBX12-51"/>
      </defs>
      <g transform="translate(519.231675 245.49886)scale(0.18 -0.18)">
       <use transform="scale(0.996264)" xlink:href="#CMBX12-51"/>
       <use transform="translate(56.039851 0)scale(0.996264)" xlink:href="#CMBX12-48"/>
       <use transform="translate(112.079701 0)scale(0.996264)" xlink:href="#CMBX12-48"/>
       <use transform="translate(168.119552 0)scale(0.996264)" xlink:href="#CMBX12-48"/>
      </g>
     </g>
    </g>
    <g id="xtick_4">
     <g id="line2d_4">
      <g>
       <use style="stroke:#000000;stroke-width:0.8;" x="696.123263" xlink:href="#mc87edf7d94" y="225.99886"/>
      </g>
     </g>
     <g id="text_4">
      <!-- $4000$ -->
      <defs>
       <path d="M 43.296875 15.71875 
L 53 15.71875 
L 53 20 
L 43.296875 20 
L 43.296875 62.609375 
C 43.296875 65.09375 43.203125 65.5 40.703125 65.5 
C 38.90625 65.5 38.703125 65.5 37.5 64 
L 3.09375 20 
L 3.09375 15.71875 
L 31.5 15.71875 
L 31.5 4.171875 
L 20.59375 4.171875 
L 20.59375 0 
C 23.5 0 33.40625 0 37 0 
C 40.40625 0 50.296875 0 53 -0.09375 
L 53 4.171875 
L 43.296875 4.171875 
z
M 32.40625 51.59375 
L 32.40625 20 
L 7.703125 20 
z
" id="CMBX12-52"/>
      </defs>
      <g transform="translate(675.873263 245.49886)scale(0.18 -0.18)">
       <use transform="scale(0.996264)" xlink:href="#CMBX12-52"/>
       <use transform="translate(56.039851 0)scale(0.996264)" xlink:href="#CMBX12-48"/>
       <use transform="translate(112.079701 0)scale(0.996264)" xlink:href="#CMBX12-48"/>
       <use transform="translate(168.119552 0)scale(0.996264)" xlink:href="#CMBX12-48"/>
      </g>
     </g>
    </g>
    <g id="text_5">
     <!-- \textbf{Frequency (Hz)} -->
     <defs>
      <path d="M 63 67.28125 
L 3.796875 67.28125 
L 3.796875 63 
L 14.40625 63 
L 14.40625 4.171875 
L 3.796875 4.171875 
L 3.796875 0 
C 6.703125 0 18.09375 0 21.796875 0 
C 27.09375 0 36 0 40.90625 0 
L 40.90625 4.171875 
L 27.59375 4.171875 
L 27.59375 31.71875 
L 33.09375 31.71875 
C 42.703125 31.71875 43.5 27.3125 43.5 20 
L 47.703125 20 
L 47.703125 47.53125 
L 43.5 47.53125 
C 43.5 40.328125 42.703125 36 33.09375 36 
L 27.59375 36 
L 27.59375 63 
L 41.90625 63 
C 57.796875 63 60.296875 55.875 61.703125 44.078125 
L 65.90625 44.078125 
z
" id="CMBX12-70"/>
      <path d="M 20.796875 22.046875 
C 20.796875 25.296875 21.5 41 33.203125 41 
C 31.796875 39.921875 31.09375 38.25 31.09375 36.5 
C 31.09375 32.484375 34.40625 30.8125 36.90625 30.8125 
C 39.40625 30.8125 42.703125 32.484375 42.703125 36.515625 
C 42.703125 41.53125 37.5 44.28125 32.703125 44.28125 
C 24.796875 44.28125 21.40625 37.515625 20 33.390625 
L 19.90625 33.390625 
L 19.90625 44 
L 3.5 44 
L 3.5 39.328125 
C 9.703125 39.328125 10.40625 39.328125 10.40625 35.46875 
L 10.40625 4.0625 
L 3.5 4.0625 
L 3.5 -0.203125 
C 5.796875 0 13.296875 0 16.09375 0 
C 19 0 27.09375 0 29.5 -0.203125 
L 29.5 4.0625 
L 20.796875 4.0625 
z
" id="CMBX12-114"/>
      <path d="M 45.203125 22 
C 47.5 22 48.09375 22 48.09375 24.484375 
C 48.09375 27.46875 47.40625 34.890625 42.796875 39.5625 
C 38.59375 43.71875 33 45 27.203125 45 
C 11.59375 45 3.09375 34.890625 3.09375 22.40625 
C 3.09375 8.515625 13.40625 -0.5 28.5 -0.5 
C 43.59375 -0.5 48.09375 10 48.09375 11.6875 
C 48.09375 13.171875 46.59375 13.171875 46 13.171875 
C 44.40625 13.171875 44.296875 12.875 43.703125 11.59375 
C 41.09375 5.15625 34.5 3.078125 29.703125 3.078125 
C 15.203125 3.078125 15.09375 16.453125 15.09375 22 
z
M 15.09375 24.890625 
C 15.296875 28.9375 15.40625 32.8125 17.5 36.375 
C 19.40625 39.546875 22.90625 41.71875 27.203125 41.71875 
C 37.90625 41.71875 38.796875 29.828125 38.90625 24.890625 
z
" id="CMBX12-101"/>
      <path d="M 52 44.578125 
L 48.296875 44.578125 
L 43 36.359375 
C 39.5 41.421875 34.59375 44.578125 28 44.578125 
C 14.203125 44.578125 3.796875 36.078125 3.796875 22.03125 
C 3.796875 7.890625 13.796875 -0.5 27 -0.5 
C 30.796875 -0.5 35.90625 0.296875 41.09375 5.15625 
L 41.09375 -14.921875 
L 34.203125 -14.921875 
L 34.203125 -19.1875 
C 36.5 -19 43.703125 -19 46.5 -19 
C 49.296875 -19 56.59375 -19 58.90625 -19.1875 
L 58.90625 -14.921875 
L 52 -14.921875 
z
M 41.59375 11.859375 
C 37.40625 4.046875 31.5 2.78125 28.203125 2.78125 
C 21.796875 2.78125 15.796875 8.609375 15.796875 21.9375 
C 15.796875 36.359375 23.40625 41 29.296875 41 
C 37.09375 41 41.59375 33 41.59375 28.453125 
z
" id="CMBX12-113"/>
      <path d="M 35.296875 44.671875 
L 35.296875 40 
C 41.5 40 42.203125 40 42.203125 36.125 
L 42.203125 16.5 
C 42.203125 8.890625 37.703125 2.78125 29.90625 2.78125 
C 22.40625 2.78125 22 5.265625 22 10.6875 
L 22 44.671875 
L 4.203125 44.671875 
L 4.203125 40 
C 10.40625 40 11.09375 40 11.09375 36.125 
L 11.09375 12.40625 
C 11.09375 2.390625 17.796875 -0.5 28.5 -0.5 
C 30.90625 -0.5 38.296875 -0.5 42.59375 7.75 
L 42.703125 7.75 
L 42.703125 0 
L 60 0 
L 60 4.5625 
C 53.796875 4.5625 53.09375 4.5625 53.09375 8.4375 
L 53.09375 44.671875 
z
" id="CMBX12-117"/>
      <path d="M 53.09375 30.0625 
C 53.09375 39.453125 49 44.28125 38 44.28125 
C 30.796875 44.28125 24.59375 40.859375 21.203125 33.484375 
L 21.09375 33.484375 
L 21.09375 44 
L 4.203125 44 
L 4.203125 39.328125 
C 10.40625 39.328125 11.09375 39.328125 11.09375 35.46875 
L 11.09375 4.0625 
L 4.203125 4.0625 
L 4.203125 -0.203125 
C 6.5 0 13.703125 0 16.5 0 
C 19.296875 0 26.59375 0 28.90625 -0.203125 
L 28.90625 4.0625 
L 22 4.0625 
L 22 25.109375 
C 22 35.765625 30 41 36.40625 41 
C 40.09375 41 42.203125 38.640625 42.203125 31.140625 
L 42.203125 4.0625 
L 35.296875 4.0625 
L 35.296875 -0.203125 
C 37.59375 0 44.796875 0 47.59375 0 
C 50.40625 0 57.703125 0 60 -0.203125 
L 60 4.0625 
L 53.09375 4.0625 
z
" id="CMBX12-110"/>
      <path d="M 46.796875 11.765625 
C 46.796875 12.953125 45.703125 12.953125 44.703125 12.953125 
C 43.09375 12.953125 43 12.859375 42.5 11.671875 
C 41.796875 9.765625 39.09375 3.078125 29.90625 3.078125 
C 15.796875 3.078125 15.796875 18.21875 15.796875 22.703125 
C 15.796875 28.578125 15.90625 41.625 29 41.625 
C 29.703125 41.625 35.59375 41.625 35.59375 41.125 
C 35.59375 41 35.5 40.90625 35.296875 40.8125 
C 35 40.515625 33.703125 39 33.703125 36.46875 
C 33.703125 32.25 37.09375 30.53125 39.59375 30.53125 
C 41.703125 30.53125 45.5 31.859375 45.5 36.65625 
C 45.5 45 34 45 28.59375 45 
C 10.796875 45 3.796875 33.515625 3.796875 22.09375 
C 3.796875 8.625 13.296875 -0.5 28 -0.5 
C 43.703125 -0.5 46.796875 11.0625 46.796875 11.765625 
z
" id="CMBX12-99"/>
      <path d="M 49.5 37.828125 
C 50.09375 39.203125 50.5 40 56.90625 40 
L 56.90625 44.171875 
C 53.5 44.171875 53.09375 44.171875 49 44.171875 
C 46.296875 44.171875 46.09375 44.171875 40.40625 44.171875 
L 40.40625 40 
C 40.5 40 45.203125 40 45.203125 38.71875 
C 45.203125 38.421875 44.90625 37.828125 44.796875 37.53125 
L 33.09375 12.578125 
L 20.296875 40 
L 25.796875 40 
L 25.796875 44.265625 
C 23.40625 44.171875 16.59375 44.171875 13.796875 44.171875 
C 10.90625 44.171875 5 44.171875 2.40625 44.265625 
L 2.40625 40 
L 8.796875 40 
L 27.296875 0.3125 
C 26.796875 -0.875 25.40625 -3.75 24.90625 -4.9375 
C 22.796875 -9.390625 19.59375 -16.21875 12.59375 -16.21875 
C 12.203125 -16.21875 11 -16.21875 9.90625 -15.625 
C 10.09375 -15.515625 13.09375 -14.328125 13.09375 -10.5625 
C 13.09375 -7.3125 10.703125 -5.234375 7.703125 -5.234375 
C 4.59375 -5.234375 2.203125 -7.328125 2.203125 -10.6875 
C 2.203125 -15.34375 6.59375 -19.5 12.59375 -19.5 
C 20.796875 -19.5 26.203125 -12.171875 28.203125 -7.8125 
z
" id="CMBX12-121"/>
      <path d="M 37.40625 -23.8125 
C 37.40625 -23.40625 37.40625 -23.203125 35.5 -21.421875 
C 24.296875 -10.296875 20 7.203125 20 24.6875 
C 20 44.28125 24.90625 60.390625 36.09375 71.609375 
C 37.296875 72.796875 37.40625 72.90625 37.40625 73.296875 
C 37.40625 74.5 36.203125 74.5 35.703125 74.5 
C 34.796875 74.5 34.59375 74.5 32 72.40625 
C 17.59375 60.984375 10.796875 42.6875 10.796875 24.8125 
C 10.796875 6.515625 17.703125 -11.28125 31.90625 -22.8125 
C 34.5 -25 34.703125 -25 35.703125 -25 
C 36.203125 -25 37.40625 -25 37.40625 -23.8125 
z
" id="CMBX12-40"/>
      <path d="M 73.5 63.828125 
L 84.09375 63.828125 
L 84.09375 68 
C 81.203125 68 70.5 68 66.90625 68 
C 63.296875 68 52.59375 68 49.703125 68 
L 49.703125 63.828125 
L 60.296875 63.828125 
L 60.296875 37.265625 
L 27.59375 37.265625 
L 27.59375 63.828125 
L 38.203125 63.828125 
L 38.203125 68 
C 35.296875 68 24.59375 68 21 68 
C 17.40625 68 6.703125 68 3.796875 68 
L 3.796875 63.828125 
L 14.40625 63.828125 
L 14.40625 4.171875 
L 3.796875 4.171875 
L 3.796875 0 
C 6.703125 0 17.40625 0 21 0 
C 24.59375 0 35.296875 0 38.203125 0 
L 38.203125 4.171875 
L 27.59375 4.171875 
L 27.59375 33 
L 60.296875 33 
L 60.296875 4.171875 
L 49.703125 4.171875 
L 49.703125 0 
C 52.59375 0 63.296875 0 66.90625 0 
C 70.5 0 81.203125 0 84.09375 0 
L 84.09375 4.171875 
L 73.5 4.171875 
z
" id="CMBX12-72"/>
      <path d="M 44 40.234375 
C 44.90625 41.3125 44.90625 41.515625 44.90625 42.109375 
C 44.90625 44 43.90625 44 42 44 
L 5.796875 44 
L 4.703125 26.953125 
L 8.90625 26.953125 
C 9.5 36.359375 11.703125 40.71875 22.796875 40.71875 
L 31.796875 40.71875 
L 4 3.953125 
C 3.09375 2.875 3.09375 2.6875 3.09375 1.984375 
C 3.09375 0 4 0 6 0 
L 43.5 0 
L 45.203125 19.625 
L 41 19.625 
C 40.203125 9.125 38 3.578125 25.40625 3.578125 
L 16.296875 3.578125 
z
" id="CMBX12-122"/>
      <path d="M 32.796875 24.703125 
C 32.796875 42.984375 25.90625 60.78125 11.703125 72.3125 
C 9.09375 74.5 8.90625 74.5 7.90625 74.5 
C 7.40625 74.5 6.203125 74.5 6.203125 73.3125 
C 6.203125 72.921875 6.203125 72.71875 8.09375 70.9375 
C 19.296875 59.796875 23.59375 42.3125 23.59375 24.8125 
C 23.59375 5.21875 18.703125 -10.875 7.5 -22.109375 
C 6.296875 -23.3125 6.203125 -23.40625 6.203125 -23.8125 
C 6.203125 -25 7.40625 -25 7.90625 -25 
C 8.796875 -25 9 -25 11.59375 -22.90625 
C 26 -11.484375 32.796875 6.8125 32.796875 24.703125 
z
" id="CMBX12-41"/>
     </defs>
     <g transform="translate(376.445105 270.5)scale(0.22 -0.22)">
      <use transform="translate(0 -0.0934)scale(0.996264)" xlink:href="#CMBX12-70"/>
      <use transform="translate(61.113445 -0.0934)scale(0.996264)" xlink:href="#CMBX12-114"/>
      <use transform="translate(106.890953 -0.0934)scale(0.996264)" xlink:href="#CMBX12-101"/>
      <use transform="translate(158.03022 -0.0934)scale(0.996264)" xlink:href="#CMBX12-113"/>
      <use transform="translate(217.183396 -0.0934)scale(0.996264)" xlink:href="#CMBX12-117"/>
      <use transform="translate(279.449896 -0.0934)scale(0.996264)" xlink:href="#CMBX12-101"/>
      <use transform="translate(330.589163 -0.0934)scale(0.996264)" xlink:href="#CMBX12-110"/>
      <use transform="translate(392.855664 -0.0934)scale(0.996264)" xlink:href="#CMBX12-99"/>
      <use transform="translate(442.668864 -0.0934)scale(0.996264)" xlink:href="#CMBX12-121"/>
      <use transform="translate(539.18194 -0.0934)scale(0.996264)" xlink:href="#CMBX12-40"/>
      <use transform="translate(582.768491 -0.0934)scale(0.996264)" xlink:href="#CMBX12-72"/>
      <use transform="translate(670.402966 -0.0934)scale(0.996264)" xlink:href="#CMBX12-122"/>
      <use transform="translate(720.216166 -0.0934)scale(0.996264)" xlink:href="#CMBX12-41"/>
     </g>
    </g>
   </g>
   <g id="matplotlib.axis_2">
    <g id="ytick_1">
     <g id="line2d_5">
      <defs>
       <path d="M 0 0 
L -3.5 0 
" id="mc38db662d8" style="stroke:#000000;stroke-width:0.8;"/>
      </defs>
      <g>
       <use style="stroke:#000000;stroke-width:0.8;" x="69.55691" xlink:href="#mc38db662d8" y="225.99886"/>
      </g>
     </g>
     <g id="text_6">
      <!-- $0.3$ -->
      <defs>
       <path d="M 23.703125 7.765625 
C 23.703125 12.046875 20.203125 15.53125 15.90625 15.53125 
C 11.59375 15.53125 8.09375 12.046875 8.09375 7.765625 
C 8.09375 3.484375 11.59375 0 15.90625 0 
C 20.203125 0 23.703125 3.484375 23.703125 7.765625 
z
" id="CMMIB10-58"/>
      </defs>
      <g transform="translate(36.55694 232.24886)scale(0.18 -0.18)">
       <use transform="scale(0.996264)" xlink:href="#CMBX12-48"/>
       <use transform="translate(56.039851 0)scale(0.996264)" xlink:href="#CMMIB10-58"/>
       <use transform="translate(87.864782 0)scale(0.996264)" xlink:href="#CMBX12-51"/>
      </g>
     </g>
    </g>
    <g id="ytick_2">
     <g id="line2d_6">
      <g>
       <use style="stroke:#000000;stroke-width:0.8;" x="69.55691" xlink:href="#mc38db662d8" y="185.927971"/>
      </g>
     </g>
     <g id="text_7">
      <!-- $0.4$ -->
      <g transform="translate(36.55694 192.177971)scale(0.18 -0.18)">
       <use transform="scale(0.996264)" xlink:href="#CMBX12-48"/>
       <use transform="translate(56.039851 0)scale(0.996264)" xlink:href="#CMMIB10-58"/>
       <use transform="translate(87.864782 0)scale(0.996264)" xlink:href="#CMBX12-52"/>
      </g>
     </g>
    </g>
    <g id="ytick_3">
     <g id="line2d_7">
      <g>
       <use style="stroke:#000000;stroke-width:0.8;" x="69.55691" xlink:href="#mc38db662d8" y="145.857082"/>
      </g>
     </g>
     <g id="text_8">
      <!-- $0.5$ -->
      <defs>
       <path d="M 15.40625 51.796875 
C 18.796875 51 21.5 51 23 51 
C 25.40625 51 31.09375 51 37.796875 55.109375 
C 40.90625 56.984375 46.09375 61.5 46.09375 63.796875 
C 46.09375 64.296875 46.09375 65.5 44.90625 65.5 
C 44.796875 65.5 44.59375 65.5 43.59375 64.984375 
C 39 63.34375 34.09375 62.21875 28.5 62.21875 
C 22.796875 62.21875 18 63.3125 13.296875 65 
C 12.59375 65.203125 12.296875 65.40625 12 65.40625 
C 10.796875 65.40625 10.796875 64.40625 10.796875 62.71875 
L 10.796875 33.796875 
C 10.796875 31.90625 10.796875 30.8125 12.796875 30.8125 
C 13.796875 30.8125 14 30.921875 14.796875 31.90625 
C 16 33.3125 19.59375 37.71875 28.09375 37.71875 
C 37.296875 37.71875 37.296875 28.359375 37.296875 20.5 
C 37.296875 13.3125 37.296875 2.96875 25 2.96875 
C 21.296875 2.96875 15 4.359375 11.59375 10 
C 16.90625 10 18.203125 13.984375 18.203125 16.171875 
C 18.203125 19.75 15.59375 22.421875 11.90625 22.421875 
C 8.90625 22.421875 5.59375 20.640625 5.59375 15.96875 
C 5.59375 7.34375 13.5 -1 25.40625 -1 
C 40.796875 -1 50.5 7.859375 50.5 20.203125 
C 50.5 32.34375 42.203125 41 28.5 41 
C 24.5 41 19.703125 40.203125 15.40625 37.015625 
z
" id="CMBX12-53"/>
      </defs>
      <g transform="translate(36.55694 152.107082)scale(0.18 -0.18)">
       <use transform="scale(0.996264)" xlink:href="#CMBX12-48"/>
       <use transform="translate(56.039851 0)scale(0.996264)" xlink:href="#CMMIB10-58"/>
       <use transform="translate(87.864782 0)scale(0.996264)" xlink:href="#CMBX12-53"/>
      </g>
     </g>
    </g>
    <g id="ytick_4">
     <g id="line2d_8">
      <g>
       <use style="stroke:#000000;stroke-width:0.8;" x="69.55691" xlink:href="#mc38db662d8" y="105.786192"/>
      </g>
     </g>
     <g id="text_9">
      <!-- $0.6$ -->
      <defs>
       <path d="M 17.40625 36.25 
C 17.40625 42.328125 17.703125 48.53125 20.5 53.90625 
C 22.703125 58.109375 27.796875 62 34.296875 62 
C 36.203125 62 39.796875 61.703125 42.203125 59.203125 
C 38.40625 58.8125 36.796875 56.015625 36.796875 53.3125 
C 36.796875 49.703125 39.5 47.40625 42.703125 47.40625 
C 45.296875 47.40625 48.59375 49.109375 48.59375 53.5 
C 48.59375 59.484375 44.59375 65.578125 34.09375 65.578125 
C 21.59375 65.578125 4.703125 57.796875 4.703125 31.796875 
C 4.703125 25.109375 4.703125 -1 28.40625 -1 
C 41.59375 -1 51.40625 6.765625 51.40625 20.703125 
C 51.40625 34.640625 41.703125 42 29.796875 42 
C 27.796875 42 21.40625 42 17.40625 33.546875 
z
M 28.296875 2.96875 
C 21.90625 2.96875 19.40625 8.34375 19 9.140625 
C 17.59375 12.4375 17.59375 20.40625 17.59375 21.296875 
C 17.59375 33.546875 22.90625 38.734375 28.796875 38.734375 
C 38.703125 38.734375 38.703125 30.765625 38.703125 20.796875 
C 38.703125 10.9375 38.703125 2.96875 28.296875 2.96875 
z
" id="CMBX12-54"/>
      </defs>
      <g transform="translate(36.55694 112.036192)scale(0.18 -0.18)">
       <use transform="scale(0.996264)" xlink:href="#CMBX12-48"/>
       <use transform="translate(56.039851 0)scale(0.996264)" xlink:href="#CMMIB10-58"/>
       <use transform="translate(87.864782 0)scale(0.996264)" xlink:href="#CMBX12-54"/>
      </g>
     </g>
    </g>
    <g id="ytick_5">
     <g id="line2d_9">
      <g>
       <use style="stroke:#000000;stroke-width:0.8;" x="69.55691" xlink:href="#mc38db662d8" y="65.715303"/>
      </g>
     </g>
     <g id="text_10">
      <!-- $0.7$ -->
      <defs>
       <path d="M 53.59375 60.390625 
C 54.5 61.390625 54.5 61.609375 54.5 64.921875 
L 33.40625 64.921875 
C 32.703125 64.921875 17.796875 64.921875 16.59375 65.125 
C 14.09375 65.515625 13.90625 66.5625 13.703125 67.53125 
L 9.5 67.53125 
L 6.203125 43 
L 10.40625 43 
C 10.5 44.015625 11.296875 51.25 13 52.390625 
C 13.90625 53 22.203125 53 23.796875 53 
L 41.90625 53 
C 30.296875 38.859375 29 37.25 25.90625 31.328125 
C 20 19.671875 19.09375 10.640625 19.09375 5.71875 
C 19.09375 -1 24.203125 -1 25 -1 
C 27.5 -1 28.90625 0.296875 29.59375 1 
C 30.90625 2.625 30.90625 3.828125 30.90625 8.25 
C 30.90625 23.609375 32.296875 34.875 38.59375 42.40625 
z
" id="CMBX12-55"/>
      </defs>
      <g transform="translate(36.55694 71.965303)scale(0.18 -0.18)">
       <use transform="scale(0.996264)" xlink:href="#CMBX12-48"/>
       <use transform="translate(56.039851 0)scale(0.996264)" xlink:href="#CMMIB10-58"/>
       <use transform="translate(87.864782 0)scale(0.996264)" xlink:href="#CMBX12-55"/>
      </g>
     </g>
    </g>
    <g id="ytick_6">
     <g id="line2d_10">
      <g>
       <use style="stroke:#000000;stroke-width:0.8;" x="69.55691" xlink:href="#mc38db662d8" y="25.644414"/>
      </g>
     </g>
     <g id="text_11">
      <!-- $0.8$ -->
      <defs>
       <path d="M 37.703125 36.921875 
C 42.703125 39.515625 48.296875 43.203125 48.296875 51 
C 48.296875 61.28125 39.09375 65.671875 28.203125 65.671875 
C 14.90625 65.671875 7.796875 58.09375 7.796875 48.40625 
C 7.796875 43.03125 10.5 37.03125 17.90625 33.140625 
C 6.59375 28.140625 4.703125 21.265625 4.703125 16.078125 
C 4.703125 4.59375 14.703125 -1 27.90625 -1 
C 42.703125 -1 51.40625 6.96875 51.40625 18.5625 
C 51.40625 29.4375 42.796875 34.140625 37.703125 36.921875 
z
M 19.703125 47.265625 
C 17.703125 48.375 14.90625 50.671875 14.90625 53.984375 
C 14.90625 62 25.59375 62 27.90625 62 
C 36.40625 62 41.203125 57.53125 41.203125 50.96875 
C 41.203125 46.890625 39.40625 42.609375 33.703125 39.328125 
z
M 22 30.59375 
L 35.796875 22.734375 
C 39.09375 20.84375 43.40625 18.46875 43.40625 13.40625 
C 43.40625 5.453125 35.40625 2.96875 28.203125 2.96875 
C 18.296875 2.96875 12.703125 8.234375 12.703125 16.078125 
C 12.703125 23.328125 17.203125 27.90625 22 30.59375 
z
" id="CMBX12-56"/>
      </defs>
      <g transform="translate(36.55694 31.894414)scale(0.18 -0.18)">
       <use transform="scale(0.996264)" xlink:href="#CMBX12-48"/>
       <use transform="translate(56.039851 0)scale(0.996264)" xlink:href="#CMMIB10-58"/>
       <use transform="translate(87.864782 0)scale(0.996264)" xlink:href="#CMBX12-56"/>
      </g>
     </g>
    </g>
    <g id="text_12">
     <!-- \textbf{Normalized Amp.} -->
     <defs>
      <path d="M 29 66.90625 
C 28 68 27.90625 68 25.90625 68 
L 3.796875 68 
L 3.796875 63.828125 
L 14.40625 63.828125 
L 14.40625 6.953125 
C 14.40625 4.75 14.296875 4.65625 11.703125 4.25 
C 9.90625 4.0625 7.90625 4.0625 6.09375 4.0625 
L 3.796875 4.0625 
L 3.796875 -0.203125 
C 6.09375 0 13.90625 0 16.703125 0 
C 19.5 0 27.40625 0 29.703125 -0.203125 
L 29.703125 4.0625 
L 27.40625 4.0625 
C 24.703125 4.0625 24.5 4.0625 22.09375 4.359375 
C 19.203125 4.765625 19.09375 4.859375 19.09375 7.046875 
L 19.09375 60.4375 
L 68.59375 1.296875 
C 69.703125 0.09375 69.796875 0 71.09375 0 
C 73.5 0 73.5 0.59375 73.5 2.875 
L 73.5 60.9375 
C 73.5 63.125 73.59375 63.234375 76.203125 63.625 
C 78 63.828125 80 63.828125 81.796875 63.828125 
L 84.09375 63.828125 
L 84.09375 68.109375 
C 81.796875 68 74 68 71.203125 68 
C 68.40625 68 60.5 68 58.203125 68.109375 
L 58.203125 63.828125 
L 60.5 63.828125 
C 63.203125 63.828125 63.40625 63.828125 65.796875 63.53125 
C 68.703125 63.140625 68.796875 63.03125 68.796875 60.828125 
L 68.796875 19.203125 
z
" id="CMBX12-78"/>
      <path d="M 53 21.796875 
C 53 35.1875 43.796875 45 28.09375 45 
C 11.796875 45 3.09375 34.6875 3.09375 21.796875 
C 3.09375 8.828125 12.296875 -0.5 28 -0.5 
C 44.296875 -0.5 53 9.3125 53 21.796875 
z
M 28.09375 3.078125 
C 15.09375 3.078125 15.09375 14.671875 15.09375 22.796875 
C 15.09375 27.453125 15.09375 32.40625 17 35.984375 
C 19.203125 39.9375 23.703125 41.71875 28 41.71875 
C 33.703125 41.71875 37.296875 39.046875 39 36.28125 
C 41 32.703125 41 27.546875 41 22.796875 
C 41 14.5625 41 3.078125 28.09375 3.078125 
z
" id="CMBX12-111"/>
      <path d="M 84.40625 30.0625 
C 84.40625 39.15625 80.5 44.28125 69.296875 44.28125 
C 59.203125 44.28125 54.5 37.609375 52.90625 34.46875 
C 51.296875 42.8125 44.5 44.28125 38.09375 44.28125 
C 28.5 44.28125 23.296875 38.203125 21.203125 33.484375 
L 21.09375 33.484375 
L 21.09375 44 
L 4.203125 44 
L 4.203125 39.328125 
C 10.40625 39.328125 11.09375 39.328125 11.09375 35.46875 
L 11.09375 4.0625 
L 4.203125 4.0625 
L 4.203125 -0.203125 
C 6.5 0 13.703125 0 16.5 0 
C 19.296875 0 26.59375 0 28.90625 -0.203125 
L 28.90625 4.0625 
L 22 4.0625 
L 22 25.109375 
C 22 35.875 30.09375 41 36.40625 41 
C 40.09375 41 42.296875 38.828125 42.296875 31.140625 
L 42.296875 4.0625 
L 35.40625 4.0625 
L 35.40625 -0.203125 
C 37.703125 0 44.90625 0 47.703125 0 
C 50.5 0 57.796875 0 60.09375 -0.203125 
L 60.09375 4.0625 
L 53.203125 4.0625 
L 53.203125 25.109375 
C 53.203125 35.875 61.296875 41 67.59375 41 
C 71.296875 41 73.5 38.828125 73.5 31.140625 
L 73.5 4.0625 
L 66.59375 4.0625 
L 66.59375 -0.203125 
C 68.90625 0 76.09375 0 78.90625 0 
C 81.703125 0 89 0 91.296875 -0.203125 
L 91.296875 4.0625 
L 84.40625 4.0625 
z
" id="CMBX12-109"/>
      <path d="M 46 29.65625 
C 46 38.8125 38.703125 44.984375 24.59375 44.984375 
C 19 44.984375 7.203125 44.984375 7.203125 36.46875 
C 7.203125 32.203125 10.40625 30.390625 13.09375 30.390625 
C 16.09375 30.390625 19 32.484375 19 36.296875 
C 19 38.203125 18.296875 39.984375 16.59375 41.09375 
C 19.90625 42 22.296875 42 24.203125 42 
C 31 42 35.09375 38.203125 35.09375 29.984375 
L 35.09375 25.984375 
C 19.296875 25.984375 3.40625 21.59375 3.40625 10.5625 
C 3.40625 1.484375 15 -0.5 21.90625 -0.5 
C 29.59375 -0.5 34.5 3.640625 36.5 7.96875 
C 36.5 4.28125 36.5 0 46.59375 0 
L 51.703125 0 
C 53.796875 0 54.59375 0 54.59375 2.265625 
C 54.59375 4.265625 53.703125 4.265625 52.296875 4.265625 
C 46 4.265625 46 5.84375 46 8.15625 
z
M 35.09375 13.78125 
C 35.09375 4.546875 26.703125 2.78125 23.5 2.78125 
C 18.59375 2.78125 14.5 6.09375 14.5 10.71875 
C 14.5 19.890625 25.296875 23 35.09375 23 
z
" id="CMBX12-97"/>
      <path d="M 21.703125 69 
L 4.40625 69 
L 4.40625 64.328125 
C 10.59375 64.328125 11.296875 64.328125 11.296875 60.40625 
L 11.296875 4.0625 
L 4.40625 4.0625 
L 4.40625 -0.203125 
C 6.703125 0 13.796875 0 16.5 0 
C 19.203125 0 26.296875 0 28.59375 -0.203125 
L 28.59375 4.0625 
L 21.703125 4.0625 
z
" id="CMBX12-108"/>
      <path d="M 22.296875 61.84375 
C 22.296875 65.921875 19 69 15.09375 69 
C 11 69 7.90625 65.625 7.90625 61.84375 
C 7.90625 58.0625 11 54.6875 15.09375 54.6875 
C 19 54.6875 22.296875 57.765625 22.296875 61.84375 
z
M 4.703125 44 
L 4.703125 39.328125 
C 10.59375 39.328125 11.296875 39.328125 11.296875 35.46875 
L 11.296875 4.0625 
L 4.40625 4.0625 
L 4.40625 -0.203125 
C 6.703125 0 13.59375 0 16.296875 0 
C 19.09375 0 25.5 0 27.90625 -0.203125 
L 27.90625 4.0625 
L 21.703125 4.0625 
L 21.703125 44 
z
" id="CMBX12-105"/>
      <path d="M 34.703125 69 
L 34.703125 64.328125 
C 40.90625 64.328125 41.59375 64.328125 41.59375 60.421875 
L 41.59375 40.234375 
C 39.40625 42.125 35 45 28.09375 45 
C 13.90625 45 3.796875 36.21875 3.796875 22.25 
C 3.796875 7.96875 13.703125 -0.5 27 -0.5 
C 32.5 -0.5 37.203125 1.46875 41.09375 4.859375 
L 41.09375 0 
L 58.90625 0 
L 58.90625 4.5625 
C 52.703125 4.5625 52 4.5625 52 8.4375 
L 52 69 
z
M 41.09375 10.328125 
C 36.90625 4.09375 31.796875 2.78125 28.203125 2.78125 
C 15.796875 2.78125 15.796875 15.453125 15.796875 22.046875 
C 15.796875 26.75 15.796875 31.75 18 35.53125 
C 21.09375 41.125 27 41.71875 29.296875 41.71875 
C 33.40625 41.71875 37.796875 39.9375 41.09375 35.5625 
z
" id="CMBX12-100"/>
      <path d="M 45.796875 67.203125 
C 45.09375 69 44.90625 69.5 42.5 69.5 
C 40 69.5 39.796875 69 39.09375 67.203125 
L 14.296875 6.453125 
C 13.59375 4.859375 13.59375 4.671875 10.796875 4.359375 
C 8.296875 4.0625 7.90625 4.0625 5.703125 4.0625 
L 3.90625 4.0625 
L 3.90625 -0.203125 
C 6.5 0 12.5 0 15.40625 0 
C 18.09375 0 25.40625 0 27.703125 -0.203125 
L 27.703125 4.0625 
C 25.5 4.0625 21.703125 4.0625 18.90625 5.171875 
C 19.203125 6.09375 19.203125 6.28125 19.40625 6.6875 
L 24.703125 19.71875 
L 51.5 19.71875 
L 57.796875 4.0625 
L 48.40625 4.0625 
L 48.40625 0 
C 51.59375 0 61.296875 0 65.09375 0 
C 68.296875 0 78.5 0 81 -0.203125 
L 81 4.0625 
L 71.5 4.0625 
z
M 38.09375 52.609375 
L 49.703125 24 
L 26.40625 24 
z
" id="CMBX12-65"/>
      <path d="M 28.203125 -14.921875 
L 21.296875 -14.921875 
L 21.296875 4.1875 
C 23.796875 2 28.203125 -0.5 34.203125 -0.5 
C 47.90625 -0.5 58.59375 7.703125 58.59375 22.140625 
C 58.59375 35.78125 49.296875 44.578125 35.796875 44.578125 
C 29.90625 44.578125 24.796875 42.78125 20.796875 39.90625 
L 20.796875 44.671875 
L 3.5 44.671875 
L 3.5 40 
C 9.703125 40 10.40625 40 10.40625 36.09375 
L 10.40625 -14.921875 
L 3.5 -14.921875 
L 3.5 -19.1875 
C 5.796875 -19 13 -19 15.796875 -19 
C 18.59375 -19 25.90625 -19 28.203125 -19.1875 
z
M 21.296875 35.09375 
C 25 39.53125 30.296875 41 34.203125 41 
C 40.703125 41 46.59375 35.171875 46.59375 22.140625 
C 46.59375 7.8125 39.40625 2.78125 33 2.78125 
C 28.703125 2.78125 24.40625 4.984375 21.296875 9.6875 
z
" id="CMBX12-112"/>
      <path d="M 22.796875 7.15625 
C 22.796875 11.21875 19.5 14.3125 15.59375 14.3125 
C 11.703125 14.3125 8.40625 11.21875 8.40625 7.15625 
C 8.40625 3.078125 11.703125 0 15.59375 0 
C 19.5 0 22.796875 3.078125 22.796875 7.15625 
z
" id="CMBX12-46"/>
     </defs>
     <g transform="translate(27.27777 216.555365)rotate(-90)scale(0.22 -0.22)">
      <use transform="translate(0 -0.072648)scale(0.996264)" xlink:href="#CMBX12-78"/>
      <use transform="translate(87.634475 -0.072648)scale(0.996264)" xlink:href="#CMBX12-111"/>
      <use transform="translate(143.674326 -0.072648)scale(0.996264)" xlink:href="#CMBX12-114"/>
      <use transform="translate(189.451833 -0.072648)scale(0.996264)" xlink:href="#CMBX12-109"/>
      <use transform="translate(282.851584 -0.072648)scale(0.996264)" xlink:href="#CMBX12-97"/>
      <use transform="translate(337.334772 -0.072648)scale(0.996264)" xlink:href="#CMBX12-108"/>
      <use transform="translate(368.468022 -0.072648)scale(0.996264)" xlink:href="#CMBX12-105"/>
      <use transform="translate(399.601272 -0.072648)scale(0.996264)" xlink:href="#CMBX12-122"/>
      <use transform="translate(449.414473 -0.072648)scale(0.996264)" xlink:href="#CMBX12-101"/>
      <use transform="translate(500.55374 -0.072648)scale(0.996264)" xlink:href="#CMBX12-100"/>
      <use transform="translate(600.180141 -0.072648)scale(0.996264)" xlink:href="#CMBX12-65"/>
      <use transform="translate(684.816536 -0.072648)scale(0.996264)" xlink:href="#CMBX12-109"/>
      <use transform="translate(778.216287 -0.072648)scale(0.996264)" xlink:href="#CMBX12-112"/>
      <use transform="translate(840.482787 -0.072648)scale(0.996264)" xlink:href="#CMBX12-46"/>
     </g>
    </g>
   </g>
   <g id="line2d_11">
    <path clip-path="url(#p02c82dd387)" d="M 69.55691 182.079932 
L 70.321762 176.104668 
L 71.086613 176.867479 
L 71.851465 184.335356 
L 73.381168 126.27547 
L 74.146019 135.298951 
L 74.910871 164.936092 
L 75.675722 179.469669 
L 76.440574 177.444042 
L 77.205425 148.10136 
L 77.970277 150.211633 
L 78.735128 169.345194 
L 79.49998 167.516993 
L 80.264831 144.005124 
L 81.029683 95.029289 
L 81.794534 89.706125 
L 83.324237 166.346735 
L 84.089089 134.924783 
L 84.85394 68.069095 
L 85.618792 54.444746 
L 86.383643 81.286148 
L 87.148495 148.714242 
L 87.913346 160.253054 
L 88.678198 100.965 
L 89.443049 77.230594 
L 90.207901 92.808512 
L 90.972752 150.107434 
L 91.737604 141.135543 
L 93.267307 79.260298 
L 94.032158 87.356614 
L 94.79701 134.188706 
L 95.561861 148.658019 
L 96.326713 150.734233 
L 97.091564 124.241945 
L 97.856416 119.42444 
L 98.621267 143.853014 
L 100.15097 128.192377 
L 100.915822 76.409228 
L 101.680673 67.612288 
L 102.445525 97.076507 
L 103.210376 117.869664 
L 103.975228 114.461911 
L 104.740079 81.924507 
L 105.504931 64.905119 
L 107.034634 115.999029 
L 107.799485 122.590629 
L 108.564337 121.639707 
L 109.329188 99.41688 
L 110.09404 96.101383 
L 110.858891 117.009661 
L 111.623743 123.305943 
L 112.388594 114.187021 
L 113.153446 89.195005 
L 113.918297 91.566793 
L 114.683149 120.91371 
L 115.448 128.924314 
L 116.212852 126.381946 
L 116.977703 72.273789 
L 117.742555 67.080794 
L 119.272258 139.648439 
L 120.037109 154.997117 
L 120.801961 116.246787 
L 121.566812 103.456304 
L 122.331664 128.317482 
L 123.096515 148.898771 
L 123.861367 133.185987 
L 124.626218 94.303769 
L 125.39107 75.476625 
L 126.155921 96.797191 
L 126.920773 102.780909 
L 127.685624 94.458029 
L 128.450476 100.57096 
L 129.215327 84.146987 
L 129.980179 92.594877 
L 130.74503 114.948271 
L 131.509882 90.502899 
L 132.274733 85.991318 
L 133.039585 97.727477 
L 133.804436 101.652273 
L 134.569288 103.814454 
L 135.334139 101.129737 
L 136.098991 114.877877 
L 136.863842 92.813862 
L 137.628694 89.422573 
L 138.393545 102.682379 
L 139.158397 119.616261 
L 139.923248 107.766383 
L 140.6881 75.016171 
L 141.452952 65.45099 
L 142.217803 97.906432 
L 142.982655 115.341372 
L 143.747506 112.99385 
L 145.277209 86.151214 
L 146.806912 102.80836 
L 147.571764 116.976478 
L 148.336615 114.106372 
L 149.101467 89.177666 
L 149.866318 95.092948 
L 150.63117 133.573563 
L 151.396021 129.721454 
L 152.160873 138.697835 
L 153.690576 119.505344 
L 154.455427 136.309743 
L 155.220279 132.068848 
L 155.98513 126.783135 
L 156.749982 119.889018 
L 157.514833 109.527581 
L 158.279685 121.320043 
L 159.044536 126.995178 
L 159.809388 122.648477 
L 160.574239 113.306589 
L 161.339091 97.861562 
L 162.103942 105.40641 
L 162.868794 106.257432 
L 163.633645 100.175025 
L 164.398497 97.206325 
L 165.163348 89.475628 
L 165.9282 101.928756 
L 166.693051 125.223582 
L 167.457903 130.725574 
L 168.222754 124.956956 
L 168.987606 105.29788 
L 169.752457 106.245936 
L 170.517309 129.064641 
L 171.28216 122.713187 
L 172.047012 110.382744 
L 172.811863 119.888429 
L 173.576715 100.018918 
L 174.341566 96.919636 
L 175.106418 97.998848 
L 175.871269 97.813412 
L 176.636121 85.246723 
L 177.400972 75.015661 
L 178.165824 78.557723 
L 178.930675 95.983061 
L 179.695527 105.291447 
L 180.460378 99.340227 
L 181.22523 91.513484 
L 182.754933 101.122603 
L 184.284636 121.295967 
L 185.049487 106.272702 
L 185.814339 108.540626 
L 186.57919 135.108085 
L 187.344042 133.225078 
L 188.108893 134.101258 
L 188.873745 99.532956 
L 189.638596 92.389091 
L 190.403448 106.624229 
L 191.168299 92.408995 
L 191.933151 83.789362 
L 192.698002 77.54108 
L 193.462854 63.902878 
L 194.227705 68.283885 
L 195.757408 88.959126 
L 196.52226 84.091066 
L 197.287111 77.39104 
L 198.051963 91.343126 
L 198.816814 96.707386 
L 199.581666 106.362029 
L 200.346517 93.735693 
L 201.111369 85.525865 
L 201.87622 99.783023 
L 202.641072 84.057039 
L 203.405923 80.133628 
L 204.170775 74.08231 
L 204.935626 81.624475 
L 205.700478 78.614105 
L 206.465329 66.597412 
L 207.230181 68.138033 
L 207.995032 72.750325 
L 208.759884 86.535653 
L 209.524735 73.78067 
L 211.054438 92.746971 
L 211.81929 113.861672 
L 212.584142 115.380446 
L 213.348993 100.867855 
L 214.113845 111.189915 
L 214.878696 106.855841 
L 215.643548 114.648685 
L 216.408399 125.19102 
L 217.173251 120.191805 
L 217.938102 126.226587 
L 218.702954 121.485352 
L 220.232657 107.33494 
L 220.997508 108.584589 
L 221.76236 105.330044 
L 222.527211 103.398265 
L 223.292063 95.67002 
L 224.056914 94.526512 
L 224.821766 82.788188 
L 225.586617 77.227593 
L 226.351469 82.681538 
L 227.11632 85.988165 
L 227.881172 89.855481 
L 228.646023 78.673609 
L 229.410875 73.26416 
L 230.175726 93.590828 
L 230.940578 98.031553 
L 231.705429 103.243671 
L 232.470281 94.51 
L 233.235132 97.374804 
L 233.999984 93.750693 
L 234.764835 77.417137 
L 235.529687 66.253337 
L 236.294538 89.863267 
L 237.05939 91.529693 
L 237.824241 87.458296 
L 238.589093 74.044024 
L 239.353944 51.094243 
L 240.118796 63.196442 
L 240.883647 80.701577 
L 241.648499 82.500576 
L 242.41335 77.569223 
L 243.178202 46.148003 
L 243.943053 49.940163 
L 244.707905 94.965232 
L 245.472756 81.181822 
L 246.237608 87.538865 
L 247.002459 84.401098 
L 247.767311 75.881365 
L 248.532162 90.074291 
L 249.297014 90.06988 
L 250.061865 97.467809 
L 250.826717 77.535507 
L 251.591568 65.223821 
L 252.35642 76.529588 
L 253.121271 75.116381 
L 253.886123 74.602434 
L 254.650974 67.408341 
L 255.415826 75.278514 
L 256.180677 73.864479 
L 256.945529 75.641401 
L 257.71038 73.676225 
L 258.475232 87.922046 
L 259.240083 81.627611 
L 260.769786 79.775717 
L 261.534638 90.101885 
L 262.299489 90.980422 
L 263.064341 83.517227 
L 263.829192 91.378204 
L 264.594044 100.489595 
L 265.358895 102.004564 
L 266.123747 96.241901 
L 266.888598 86.636922 
L 267.65345 92.695986 
L 268.418301 92.483816 
L 269.183153 89.614235 
L 269.948004 77.261333 
L 270.712856 85.317436 
L 271.477707 90.955615 
L 272.242559 82.082046 
L 273.00741 75.843349 
L 273.772262 77.186703 
L 274.537113 70.818387 
L 275.301965 80.521347 
L 276.831668 61.962477 
L 277.596519 73.059593 
L 278.361371 73.879431 
L 279.126222 73.319332 
L 279.891074 77.738737 
L 280.655925 77.069735 
L 281.420777 85.132445 
L 282.185628 102.157581 
L 282.95048 88.197286 
L 283.715332 83.895567 
L 284.480183 77.364449 
L 286.009886 47.241139 
L 286.774738 52.354417 
L 287.539589 59.59467 
L 288.304441 50.920701 
L 289.069292 49.366538 
L 289.834144 53.987851 
L 290.598995 55.016532 
L 291.363847 52.775852 
L 292.128698 55.364149 
L 292.89355 52.918329 
L 293.658401 59.068097 
L 294.423253 73.007446 
L 295.188104 72.210138 
L 295.952956 81.508573 
L 296.717807 95.284801 
L 297.482659 101.624297 
L 299.012362 84.913874 
L 299.777213 85.890655 
L 300.542065 87.133026 
L 301.306916 82.344182 
L 302.071768 87.564342 
L 302.836619 79.00762 
L 303.601471 92.910513 
L 304.366322 83.542544 
L 305.131174 59.405747 
L 305.896025 60.652083 
L 306.660877 71.206114 
L 307.425728 78.084618 
L 308.19058 81.610765 
L 308.955431 70.54157 
L 309.720283 74.535392 
L 310.485134 83.153472 
L 311.249986 82.175258 
L 312.779689 94.921396 
L 313.54454 86.661363 
L 314.309392 92.23851 
L 315.074243 96.05457 
L 315.839095 82.987955 
L 316.603946 72.565104 
L 317.368798 84.905531 
L 318.898501 80.270484 
L 319.663352 87.567876 
L 320.428204 89.349536 
L 321.193055 73.433339 
L 321.957907 68.750286 
L 322.722758 73.017851 
L 323.48761 79.046838 
L 324.252461 82.503107 
L 325.017313 83.717423 
L 325.782164 84.04505 
L 326.547016 85.492825 
L 327.311867 90.374068 
L 328.076719 86.746136 
L 328.84157 90.000298 
L 329.606422 103.750301 
L 330.371273 100.88709 
L 331.136125 86.281271 
L 331.900976 86.870365 
L 332.665828 91.984001 
L 333.430679 90.896876 
L 334.195531 90.676521 
L 334.960382 91.813691 
L 335.725234 77.661201 
L 336.490085 80.350082 
L 337.254937 81.779403 
L 338.019788 66.581752 
L 338.78464 70.11672 
L 339.549491 80.971833 
L 340.314343 74.376793 
L 341.079194 80.085972 
L 342.608897 69.188655 
L 343.373749 75.996876 
L 344.1386 81.417957 
L 344.903452 83.492865 
L 345.668303 76.049183 
L 346.433155 73.009452 
L 347.198006 63.875348 
L 347.962858 68.605723 
L 348.727709 67.334149 
L 349.492561 64.004975 
L 350.257412 56.344863 
L 351.022264 35.746051 
L 351.787115 33.378307 
L 352.551967 49.930012 
L 353.316818 59.532134 
L 354.08167 61.417705 
L 354.846522 47.536848 
L 355.611373 42.528669 
L 356.376225 65.750553 
L 357.141076 77.370332 
L 357.905928 86.473809 
L 358.670779 85.986111 
L 359.435631 81.872551 
L 360.200482 91.458566 
L 361.730185 81.001195 
L 363.259888 47.095629 
L 364.02474 57.023888 
L 364.789591 95.265057 
L 365.554443 93.238792 
L 366.319294 83.625278 
L 367.084146 65.234202 
L 367.848997 66.109603 
L 368.613849 76.524174 
L 369.3787 79.189235 
L 370.143552 83.654099 
L 370.908403 74.919058 
L 371.673255 79.483264 
L 372.438106 88.781747 
L 373.202958 89.164816 
L 374.732661 80.547747 
L 375.497512 82.771071 
L 376.262364 76.308206 
L 377.027215 77.585448 
L 377.792067 80.626358 
L 378.556918 85.55935 
L 379.32177 80.501953 
L 380.086621 90.466914 
L 380.851473 98.505032 
L 381.616324 83.120321 
L 382.381176 74.648499 
L 383.146027 74.034319 
L 383.910879 70.969247 
L 384.67573 72.210226 
L 385.440582 81.895416 
L 386.205433 76.598899 
L 386.970285 75.835444 
L 387.735136 73.13634 
L 388.499988 73.163329 
L 389.264839 89.201502 
L 390.029691 89.41165 
L 390.794542 100.188655 
L 391.559394 97.576545 
L 392.324245 83.324402 
L 393.089097 82.626254 
L 393.853948 87.072759 
L 394.6188 96.818957 
L 395.383651 99.738917 
L 396.148503 86.674069 
L 396.913354 79.448903 
L 397.678206 76.441328 
L 399.207909 90.703828 
L 399.97276 99.682646 
L 400.737612 95.694684 
L 401.502463 88.948123 
L 402.267315 89.056302 
L 403.032166 83.575138 
L 403.797018 80.903748 
L 404.561869 90.879568 
L 405.326721 90.416391 
L 406.856424 99.666309 
L 407.621275 96.925974 
L 408.386127 102.415928 
L 409.150978 85.760056 
L 409.91583 90.41663 
L 410.680681 100.818128 
L 411.445533 98.859727 
L 412.210384 98.731358 
L 412.975236 69.252091 
L 413.740087 65.872075 
L 414.504939 84.930736 
L 416.034642 97.668961 
L 416.799493 65.831377 
L 417.564345 55.120722 
L 418.329196 82.244888 
L 419.094048 115.324414 
L 419.858899 116.671239 
L 421.388602 82.14596 
L 422.153454 92.761174 
L 422.918305 108.684042 
L 423.683157 121.507772 
L 424.448008 110.308416 
L 425.21286 88.894129 
L 425.977712 100.136062 
L 426.742563 121.186196 
L 427.507415 114.648303 
L 428.272266 121.250826 
L 429.037118 112.515213 
L 429.801969 107.673649 
L 430.566821 112.378325 
L 431.331672 126.803803 
L 432.096524 111.561441 
L 432.861375 112.349823 
L 433.626227 116.031033 
L 434.391078 123.225342 
L 435.15593 121.697778 
L 435.920781 130.379063 
L 436.685633 115.570643 
L 438.215336 117.242388 
L 438.980187 119.385541 
L 439.745039 114.84635 
L 440.50989 116.394725 
L 441.274742 104.990301 
L 442.039593 111.090398 
L 442.804445 110.266794 
L 443.569296 110.884517 
L 444.334148 106.806958 
L 445.863851 118.430941 
L 446.628702 112.813509 
L 447.393554 118.523946 
L 448.158405 111.360018 
L 448.923257 116.276626 
L 449.688108 133.817834 
L 451.217811 110.891364 
L 451.982663 113.242341 
L 452.747514 120.832154 
L 453.512366 121.374244 
L 455.042069 114.240219 
L 455.80692 111.480569 
L 456.571772 128.272819 
L 458.101475 124.628931 
L 458.866326 114.078444 
L 459.631178 111.527652 
L 460.396029 122.116036 
L 461.160881 113.529651 
L 461.925732 111.161318 
L 462.690584 114.893911 
L 463.455435 113.120341 
L 464.220287 109.010602 
L 464.985138 103.495983 
L 465.74999 115.201984 
L 466.514841 111.775665 
L 467.279693 88.593779 
L 468.809396 112.634426 
L 469.574247 109.607848 
L 470.339099 91.372106 
L 471.10395 66.162641 
L 471.868802 69.899661 
L 472.633653 104.902312 
L 473.398505 108.461952 
L 474.163356 114.234232 
L 474.928208 90.082937 
L 475.693059 86.549092 
L 476.457911 113.904536 
L 477.222762 113.972589 
L 477.987614 109.772282 
L 478.752465 78.145905 
L 479.517317 67.292885 
L 480.282168 92.861408 
L 481.04702 110.071279 
L 481.811871 114.529949 
L 482.576723 113.532548 
L 483.341574 102.934531 
L 484.106426 103.737738 
L 484.871277 112.179609 
L 485.636129 110.526383 
L 486.40098 115.61881 
L 487.165832 109.700629 
L 487.930683 109.093368 
L 488.695535 105.399642 
L 489.460386 109.399292 
L 490.225238 106.677267 
L 490.990089 101.978721 
L 491.754941 109.550653 
L 492.519792 119.197016 
L 493.284644 132.629583 
L 494.049495 131.152335 
L 494.814347 114.106165 
L 495.579198 116.100552 
L 496.34405 123.006213 
L 497.108902 122.368205 
L 497.873753 116.888091 
L 498.638605 122.20463 
L 499.403456 123.188497 
L 500.168308 124.998403 
L 500.933159 112.176154 
L 501.698011 123.851424 
L 502.462862 116.805404 
L 503.227714 107.673028 
L 503.992565 105.965441 
L 504.757417 106.071901 
L 505.522268 107.370798 
L 506.28712 115.843973 
L 507.051971 127.811871 
L 507.816823 114.497291 
L 509.346526 116.232982 
L 510.111377 123.596708 
L 510.876229 123.891661 
L 511.64108 121.736868 
L 512.405932 121.258087 
L 513.170783 108.423243 
L 513.935635 104.426795 
L 514.700486 107.234468 
L 515.465338 95.476988 
L 516.230189 106.903975 
L 516.995041 113.647765 
L 517.759892 117.687349 
L 518.524744 118.377313 
L 519.289595 116.672226 
L 520.054447 125.267688 
L 520.819298 110.028049 
L 521.58415 107.046754 
L 522.349001 117.584249 
L 523.113853 122.483135 
L 523.878704 115.062851 
L 524.643556 109.520623 
L 525.408407 90.539808 
L 526.173259 99.724793 
L 526.93811 100.954459 
L 527.702962 103.676929 
L 528.467813 102.48645 
L 529.232665 76.066897 
L 529.997516 86.447743 
L 530.762368 108.649474 
L 531.527219 123.854035 
L 532.292071 116.131824 
L 533.056922 106.48379 
L 533.821774 103.903446 
L 534.586625 110.260505 
L 535.351477 104.142446 
L 536.116328 94.33329 
L 536.88118 76.903796 
L 537.646031 77.608457 
L 538.410883 108.070571 
L 539.175734 114.050165 
L 539.940586 109.925299 
L 540.705437 86.586415 
L 541.470289 73.052435 
L 542.23514 96.657867 
L 542.999992 127.158354 
L 543.764843 124.870527 
L 544.529695 117.596955 
L 545.294546 102.483631 
L 546.059398 110.04515 
L 546.824249 134.593351 
L 547.589101 129.421947 
L 548.353952 128.294983 
L 549.118804 129.430068 
L 549.883655 122.577891 
L 550.648507 130.569913 
L 551.413358 126.734953 
L 552.17821 131.513272 
L 552.943061 121.346618 
L 553.707913 123.953998 
L 554.472764 133.603498 
L 555.237616 137.550411 
L 556.002467 127.56397 
L 556.767319 124.877262 
L 557.53217 122.649146 
L 558.297022 135.872568 
L 559.061873 125.869982 
L 559.826725 137.270139 
L 560.591576 142.011198 
L 561.356428 134.856601 
L 562.121279 130.602284 
L 562.886131 119.036753 
L 563.650982 131.080078 
L 564.415834 135.503319 
L 565.180685 130.875996 
L 565.945537 124.330412 
L 567.47524 113.572435 
L 568.240092 120.616576 
L 569.004943 128.866785 
L 569.769795 142.59491 
L 570.534646 138.582937 
L 571.299498 116.578903 
L 572.064349 125.078335 
L 572.829201 135.608266 
L 573.594052 133.559105 
L 574.358904 133.116883 
L 575.123755 120.598169 
L 575.888607 124.667162 
L 576.653458 125.120657 
L 577.41831 124.048388 
L 578.183161 118.568274 
L 578.948013 99.043826 
L 579.712864 97.314361 
L 580.477716 119.470425 
L 581.242567 122.884929 
L 582.007419 120.189767 
L 582.77227 118.564596 
L 583.537122 116.465263 
L 584.301973 120.74813 
L 585.066825 119.853096 
L 585.831676 121.452615 
L 587.361379 103.819884 
L 588.126231 119.169867 
L 588.891082 129.941235 
L 590.420785 112.802507 
L 591.185637 83.704239 
L 591.950488 94.105499 
L 592.71534 128.880972 
L 594.245043 140.826913 
L 595.009894 116.629346 
L 595.774746 120.85642 
L 596.539597 145.944784 
L 598.0693 129.625169 
L 598.834152 105.653626 
L 599.599003 103.64139 
L 600.363855 136.868472 
L 601.128706 132.866864 
L 601.893558 130.735525 
L 602.658409 128.224461 
L 603.423261 120.425376 
L 604.188112 126.026359 
L 604.952964 130.515648 
L 605.717815 131.864368 
L 606.482667 144.336189 
L 607.247518 139.376717 
L 608.01237 141.661105 
L 608.777221 141.474156 
L 609.542073 144.393224 
L 610.306924 161.950482 
L 611.071776 152.952223 
L 611.836627 153.002794 
L 612.601479 149.044416 
L 613.36633 139.507491 
L 614.131182 133.702919 
L 614.896033 134.786462 
L 615.660885 138.756733 
L 616.425736 144.561114 
L 617.190588 130.385735 
L 617.955439 132.741488 
L 619.485142 148.199173 
L 620.249994 136.349008 
L 621.014845 119.344285 
L 621.779697 129.938735 
L 622.544548 153.02862 
L 623.3094 155.256212 
L 624.074251 135.64336 
L 624.839103 124.791614 
L 625.603954 121.97184 
L 626.368806 127.089855 
L 627.133657 141.060324 
L 627.898509 138.276965 
L 628.66336 129.664514 
L 629.428212 129.890633 
L 630.193063 154.994155 
L 630.957915 130.615197 
L 631.722766 134.227048 
L 632.487618 145.394972 
L 633.252469 136.443764 
L 634.017321 137.253993 
L 634.782172 124.172235 
L 635.547024 124.22365 
L 636.311875 127.20176 
L 637.076727 104.177588 
L 637.841578 110.805684 
L 638.60643 130.449553 
L 639.371282 117.480274 
L 640.136133 121.730801 
L 640.900985 96.627741 
L 641.665836 95.640993 
L 642.430688 124.691938 
L 643.195539 115.104569 
L 643.960391 121.744861 
L 644.725242 104.165853 
L 645.490094 96.325782 
L 646.254945 123.027454 
L 647.019797 118.638319 
L 647.784648 128.498396 
L 648.5495 129.681918 
L 649.314351 113.824094 
L 650.079203 132.139704 
L 650.844054 130.981229 
L 651.608906 121.618944 
L 652.373757 124.934457 
L 653.138609 124.278727 
L 654.668312 154.746366 
L 655.433163 138.546888 
L 656.198015 144.890269 
L 656.962866 130.348364 
L 657.727718 131.439024 
L 658.492569 142.448676 
L 659.257421 132.172186 
L 660.022272 128.78128 
L 660.787124 129.865793 
L 661.551975 138.163786 
L 662.316827 141.450017 
L 663.081678 142.058457 
L 663.84653 131.042802 
L 664.611381 138.671722 
L 665.376233 143.582136 
L 666.141084 136.787887 
L 666.905936 133.457343 
L 667.670787 131.356512 
L 668.435639 136.049167 
L 669.20049 130.043794 
L 670.730193 120.503891 
L 671.495045 121.776054 
L 672.259896 121.55831 
L 673.024748 118.940755 
L 673.789599 111.866409 
L 674.554451 109.531848 
L 675.319302 115.404601 
L 676.084154 117.843057 
L 676.849005 129.591572 
L 677.613857 126.054574 
L 678.378708 135.716286 
L 679.14356 137.191289 
L 679.908411 133.88662 
L 680.673263 132.726616 
L 681.438114 132.032751 
L 682.202966 130.204168 
L 682.967817 122.625341 
L 683.732669 127.019588 
L 684.49752 134.268368 
L 685.262372 136.909202 
L 686.027223 150.242746 
L 686.792075 159.38181 
L 687.556926 156.954722 
L 688.321778 153.438774 
L 689.086629 162.115569 
L 689.851481 153.849676 
L 690.616332 155.562947 
L 691.381184 155.803365 
L 692.146035 165.184455 
L 692.910887 165.938603 
L 693.675738 161.944209 
L 695.205441 119.636117 
L 696.735144 153.480906 
L 697.499996 141.925072 
L 698.264847 139.841613 
L 699.029699 122.317968 
L 699.79455 126.161304 
L 700.559402 154.198162 
L 701.324253 158.473497 
L 702.089105 151.768415 
L 702.853956 143.13442 
L 703.618808 139.484323 
L 704.383659 153.091802 
L 705.148511 157.158565 
L 705.913362 158.263715 
L 706.678214 141.143887 
L 707.443065 131.984473 
L 708.207917 154.171061 
L 708.972768 155.177506 
L 709.73762 159.858584 
L 710.502472 150.940576 
L 711.267323 143.48937 
L 712.032175 154.001771 
L 712.797026 153.816748 
L 713.561878 151.849557 
L 714.326729 168.837498 
L 715.091581 158.443228 
L 715.856432 161.53017 
L 716.621284 163.912944 
L 717.386135 155.600286 
L 718.150987 157.856762 
L 718.915838 154.015273 
L 720.445541 144.337224 
L 721.210393 156.027 
L 721.975244 155.962481 
L 722.740096 153.239437 
L 723.504947 153.286951 
L 724.269799 169.876377 
L 725.03465 161.072232 
L 725.799502 155.427381 
L 726.564353 160.728062 
L 727.329205 158.539162 
L 728.094056 162.118228 
L 728.858908 163.520337 
L 729.623759 168.205954 
L 730.388611 182.189798 
L 731.153462 165.754887 
L 731.918314 180.243737 
L 732.683165 177.142115 
L 733.448017 165.914576 
L 734.212868 163.129291 
L 734.97772 161.665386 
L 735.742571 168.982379 
L 736.507423 163.333898 
L 737.272274 155.69017 
L 738.037126 170.049234 
L 738.801977 173.102181 
L 739.566829 174.563331 
L 740.33168 167.412842 
L 741.096532 169.326151 
L 741.861383 163.40512 
L 742.626235 169.830185 
L 743.391086 168.331951 
L 744.155938 175.401727 
L 744.920789 156.442743 
L 746.450492 165.230503 
L 747.215344 164.721867 
L 747.980195 181.656275 
L 748.745047 164.880999 
L 749.509898 158.332199 
L 750.27475 163.039216 
L 751.039601 160.439191 
L 751.804453 161.074206 
L 752.569304 153.944226 
L 753.334156 137.550936 
L 754.863859 154.395667 
L 755.62871 161.331836 
L 756.393562 157.33983 
L 757.158413 141.779395 
L 757.923265 155.609888 
L 758.688116 151.635619 
L 759.452968 152.872784 
L 760.217819 145.596363 
L 760.982671 121.94329 
L 761.747522 129.730466 
L 762.512374 147.07912 
L 763.277225 146.098741 
L 764.042077 158.859003 
L 764.806928 153.986644 
L 765.57178 146.71804 
L 766.336631 161.594004 
L 767.101483 163.767203 
L 768.631186 136.705677 
L 769.396037 132.263647 
L 770.160889 138.250406 
L 770.92574 141.090307 
L 771.690592 146.953458 
L 772.455443 138.012059 
L 773.220295 130.721322 
L 773.985146 141.884453 
L 774.749998 160.530429 
L 775.514849 157.323095 
L 777.044552 144.009327 
L 777.809404 154.52004 
L 778.574255 159.469051 
L 779.339107 154.593682 
L 780.103958 152.373272 
L 780.86881 144.580762 
L 781.633662 150.830852 
L 782.398513 158.73627 
L 783.163365 153.541157 
L 783.928216 151.602357 
L 784.693068 161.019798 
L 785.457919 153.065402 
L 786.222771 149.137612 
L 786.987622 146.142815 
L 787.752474 145.440256 
L 788.517325 150.353011 
L 789.282177 150.092706 
L 790.047028 154.311882 
L 790.81188 140.668911 
L 791.576731 148.800559 
L 792.341583 151.280447 
L 793.106434 143.988675 
L 793.871286 140.997334 
L 794.636137 132.378959 
L 795.400989 135.247616 
L 796.16584 139.580162 
L 796.930692 139.048104 
L 797.695543 139.335414 
L 798.460395 138.967216 
L 799.225246 133.653272 
L 799.990098 143.593998 
L 800.754949 130.579642 
L 801.519801 131.554082 
L 802.284652 131.358343 
L 803.049504 121.845175 
L 803.814355 126.291265 
L 804.579207 128.087781 
L 805.344058 119.762114 
L 806.10891 126.539851 
L 806.873761 126.941407 
L 807.638613 119.174899 
L 808.403464 129.515366 
L 809.933167 137.724892 
L 810.698019 124.595796 
L 811.46287 126.565614 
L 812.227722 136.578216 
L 812.992573 124.792665 
L 813.757425 122.306584 
L 814.522276 124.887628 
L 815.287128 111.385032 
L 816.051979 110.170494 
L 816.816831 122.016248 
L 817.581682 122.041836 
L 818.346534 116.737 
L 819.111385 95.467928 
L 819.876237 105.683019 
L 820.641088 122.179186 
L 821.40594 125.379816 
L 822.170791 125.749988 
L 822.935643 118.793677 
L 823.700494 125.622861 
L 824.465346 139.218143 
L 825.230197 129.169285 
L 825.995049 129.608036 
L 826.7599 118.837512 
L 827.524752 116.500595 
L 828.289603 136.247437 
L 829.054455 142.445157 
L 829.819306 134.822208 
L 830.584158 121.627001 
L 831.349009 114.637857 
L 832.113861 133.56256 
L 832.878712 145.729254 
L 833.643564 146.313252 
L 834.408415 135.293697 
L 835.173267 126.638302 
L 835.938118 132.617609 
L 837.467821 140.714721 
L 838.232673 147.940254 
L 838.997524 162.605576 
L 839.762376 168.623592 
L 840.527227 155.205864 
L 841.292079 158.778847 
L 842.05693 153.647458 
L 842.821782 150.315146 
L 843.586633 144.627225 
L 844.351485 145.903926 
L 845.116336 143.747287 
L 845.881188 149.66155 
L 846.646039 138.870629 
L 848.175742 154.733787 
L 848.940594 137.95211 
L 849.705445 132.880032 
L 850.470297 135.425521 
L 851.235148 133.983414 
L 852 137.087903 
L 852 137.087903 
" style="fill:none;stroke:#e41a1c;stroke-linecap:square;stroke-width:2;"/>
   </g>
   <g id="line2d_12">
    <path clip-path="url(#p02c82dd387)" d="M 69.55691 170.438211 
L 70.321762 164.015598 
L 71.851465 149.353381 
L 72.616316 135.848827 
L 73.381168 108.962563 
L 74.146019 121.88565 
L 74.910871 167.634057 
L 75.675722 156.692013 
L 76.440574 134.151065 
L 77.205425 90.195543 
L 77.970277 93.757571 
L 78.735128 148.194795 
L 79.49998 157.912109 
L 80.264831 139.490851 
L 81.029683 87.756449 
L 81.794534 82.142855 
L 83.324237 150.255611 
L 84.089089 133.289055 
L 84.85394 65.661839 
L 85.618792 52.184521 
L 86.383643 79.083333 
L 87.148495 141.227067 
L 87.913346 151.01519 
L 88.678198 124.948787 
L 89.443049 103.077709 
L 90.207901 115.414425 
L 90.972752 141.751896 
L 91.737604 143.880464 
L 92.502455 84.08734 
L 93.267307 50.165621 
L 94.032158 57.497972 
L 94.79701 113.360647 
L 95.561861 139.694344 
L 96.326713 134.825934 
L 97.091564 102.224027 
L 97.856416 100.616308 
L 98.621267 138.308699 
L 99.386119 147.590957 
L 100.15097 125.524235 
L 100.915822 76.25297 
L 101.680673 67.898817 
L 102.445525 96.809212 
L 103.210376 103.676706 
L 103.975228 108.781234 
L 104.740079 104.794849 
L 105.504931 90.122871 
L 106.269782 103.702899 
L 107.034634 119.736032 
L 107.799485 112.23752 
L 109.329188 58.8515 
L 110.09404 70.559826 
L 110.858891 104.14708 
L 111.623743 105.8147 
L 112.388594 102.468441 
L 113.153446 81.440185 
L 113.918297 87.075434 
L 114.683149 109.669246 
L 115.448 108.500453 
L 116.212852 108.497635 
L 116.977703 73.235531 
L 117.742555 69.822643 
L 118.507406 112.317611 
L 119.272258 131.333185 
L 120.037109 141.635008 
L 120.801961 133.382076 
L 121.566812 117.449065 
L 122.331664 131.042388 
L 123.096515 136.441089 
L 123.861367 131.927072 
L 124.626218 72.141535 
L 125.39107 52.517179 
L 126.155921 72.636844 
L 126.920773 111.800759 
L 127.685624 97.817074 
L 128.450476 76.83786 
L 129.215327 49.6827 
L 129.980179 59.476356 
L 130.74503 105.657018 
L 132.274733 77.94449 
L 133.039585 46.782405 
L 133.804436 48.55576 
L 134.569288 90.698176 
L 135.334139 105.181565 
L 136.098991 115.08691 
L 136.863842 100.515007 
L 137.628694 97.144593 
L 138.393545 120.303614 
L 139.158397 119.831871 
L 139.923248 111.71406 
L 140.6881 63.599813 
L 141.452952 46.048335 
L 142.217803 70.173859 
L 142.982655 107.967152 
L 143.747506 102.567894 
L 145.277209 70.989174 
L 146.042061 83.551524 
L 146.806912 112.082066 
L 147.571764 113.349962 
L 148.336615 117.001413 
L 149.101467 103.78608 
L 149.866318 113.289408 
L 150.63117 133.275234 
L 151.396021 132.887993 
L 152.160873 120.016702 
L 152.925724 105.095407 
L 153.690576 106.216272 
L 154.455427 139.540164 
L 155.220279 145.118808 
L 155.98513 138.673394 
L 156.749982 109.539889 
L 157.514833 96.802732 
L 159.044536 135.739645 
L 159.809388 116.127748 
L 160.574239 109.007226 
L 161.339091 105.465785 
L 162.103942 111.201555 
L 162.868794 119.526569 
L 163.633645 107.143596 
L 164.398497 115.071418 
L 165.163348 93.865161 
L 165.9282 101.781614 
L 166.693051 129.178265 
L 167.457903 118.865711 
L 168.222754 121.103637 
L 168.987606 116.143719 
L 169.752457 118.469538 
L 170.517309 130.289529 
L 171.28216 119.543224 
L 172.047012 114.826207 
L 172.811863 91.056278 
L 173.576715 84.819802 
L 175.106418 111.578685 
L 175.871269 88.824674 
L 176.636121 75.478814 
L 177.400972 64.844453 
L 178.165824 73.761284 
L 178.930675 84.847174 
L 179.695527 81.405871 
L 180.460378 87.049034 
L 181.22523 64.944512 
L 181.990081 76.289791 
L 182.754933 113.181038 
L 183.519784 119.342518 
L 184.284636 129.003211 
L 185.049487 106.141945 
L 185.814339 103.011597 
L 186.57919 124.866308 
L 187.344042 122.704254 
L 188.108893 113.217549 
L 188.873745 74.413639 
L 189.638596 71.526448 
L 190.403448 97.03307 
L 191.168299 103.351198 
L 191.933151 87.922301 
L 192.698002 78.380638 
L 193.462854 70.863234 
L 194.227705 77.288752 
L 194.992557 75.790382 
L 196.52226 70.270271 
L 197.287111 54.840052 
L 198.051963 77.351918 
L 198.816814 95.342887 
L 199.581666 95.749347 
L 200.346517 104.756045 
L 201.111369 101.892515 
L 201.87622 96.692626 
L 202.641072 107.145125 
L 204.170775 88.815519 
L 204.935626 66.636781 
L 205.700478 69.496035 
L 206.465329 85.760773 
L 207.230181 81.045046 
L 207.995032 77.662395 
L 208.759884 72.211563 
L 209.524735 71.612311 
L 210.289587 88.136271 
L 211.81929 100.388183 
L 212.584142 101.437842 
L 213.348993 91.515092 
L 214.113845 115.619733 
L 214.878696 131.565355 
L 215.643548 133.266413 
L 216.408399 130.085225 
L 217.173251 110.217434 
L 217.938102 113.306939 
L 218.702954 123.493083 
L 219.467805 127.551964 
L 220.232657 127.040208 
L 220.997508 116.493207 
L 221.76236 124.709803 
L 222.527211 127.758068 
L 223.292063 122.266108 
L 224.056914 121.291445 
L 224.821766 115.31986 
L 225.586617 99.407151 
L 227.11632 91.207497 
L 227.881172 103.824406 
L 228.646023 97.380743 
L 229.410875 89.510244 
L 230.175726 117.124623 
L 230.940578 123.01142 
L 231.705429 111.030481 
L 232.470281 112.110982 
L 233.235132 110.327062 
L 233.999984 106.088174 
L 234.764835 102.557226 
L 235.529687 91.080736 
L 236.294538 92.139088 
L 237.05939 78.66298 
L 237.824241 89.556022 
L 238.589093 92.424742 
L 239.353944 66.096347 
L 240.118796 71.333759 
L 240.883647 92.068535 
L 241.648499 92.376735 
L 242.41335 98.363749 
L 243.178202 65.547291 
L 243.943053 63.640511 
L 244.707905 88.92564 
L 245.472756 83.750797 
L 246.237608 90.08679 
L 247.002459 77.99401 
L 247.767311 74.032225 
L 248.532162 84.314622 
L 249.297014 90.446198 
L 250.061865 100.820405 
L 250.826717 91.560981 
L 251.591568 80.024574 
L 252.35642 72.659438 
L 253.121271 61.198186 
L 253.886123 58.928526 
L 254.650974 67.140393 
L 255.415826 64.452515 
L 256.180677 72.54704 
L 256.945529 69.671448 
L 257.71038 74.90796 
L 258.475232 77.178575 
L 259.240083 70.844946 
L 260.004935 76.509429 
L 260.769786 72.43804 
L 261.534638 77.173177 
L 262.299489 86.381202 
L 263.064341 86.396679 
L 263.829192 88.619064 
L 264.594044 78.442785 
L 265.358895 79.60079 
L 266.123747 100.273141 
L 266.888598 104.103898 
L 267.65345 101.849078 
L 268.418301 83.585074 
L 269.183153 70.344885 
L 269.948004 84.22012 
L 270.712856 83.193613 
L 271.477707 74.360528 
L 272.242559 78.115047 
L 273.00741 68.693673 
L 273.772262 74.499303 
L 274.537113 78.305897 
L 275.301965 76.269713 
L 276.066816 72.116345 
L 277.596519 69.918872 
L 278.361371 71.691001 
L 279.126222 77.746268 
L 279.891074 79.596777 
L 280.655925 80.094267 
L 281.420777 70.855479 
L 282.185628 76.826913 
L 282.95048 73.481235 
L 283.715332 73.231391 
L 284.480183 59.140084 
L 285.245035 51.738262 
L 286.009886 60.441282 
L 286.774738 57.724791 
L 287.539589 52.28028 
L 288.304441 47.642472 
L 289.069292 46.019841 
L 289.834144 47.931844 
L 290.598995 42.833517 
L 291.363847 53.298205 
L 292.128698 49.822367 
L 292.89355 53.326436 
L 293.658401 62.136441 
L 294.423253 63.467996 
L 295.188104 58.389852 
L 295.952956 70.750588 
L 296.717807 69.156547 
L 297.482659 72.012784 
L 298.24751 87.184393 
L 299.012362 97.567708 
L 299.777213 88.292154 
L 300.542065 75.011187 
L 301.306916 75.471498 
L 302.071768 83.880074 
L 302.836619 84.965289 
L 303.601471 81.151537 
L 304.366322 75.406644 
L 305.131174 65.276867 
L 305.896025 68.47159 
L 306.660877 76.027305 
L 307.425728 82.37321 
L 308.19058 81.766601 
L 308.955431 73.618234 
L 309.720283 79.770685 
L 310.485134 79.550378 
L 311.249986 82.983799 
L 312.014837 89.604522 
L 312.779689 75.536789 
L 313.54454 79.867225 
L 314.309392 89.654775 
L 315.074243 89.570511 
L 315.839095 91.352171 
L 316.603946 88.10952 
L 317.368798 80.756908 
L 318.133649 90.513313 
L 318.898501 85.393738 
L 319.663352 84.630593 
L 320.428204 80.597569 
L 321.193055 70.753096 
L 321.957907 75.711605 
L 322.722758 76.07989 
L 323.48761 74.656779 
L 324.252461 73.503566 
L 325.017313 68.144457 
L 325.782164 81.869987 
L 326.547016 87.051598 
L 327.311867 84.305546 
L 328.076719 90.018959 
L 328.84157 94.317033 
L 329.606422 93.909076 
L 330.371273 96.242108 
L 331.136125 94.682125 
L 331.900976 94.85089 
L 332.665828 96.137177 
L 333.430679 100.650542 
L 334.195531 103.132308 
L 334.960382 89.543761 
L 335.725234 82.583931 
L 336.490085 79.228978 
L 337.254937 79.027324 
L 338.019788 89.268919 
L 338.78464 84.925991 
L 339.549491 75.739398 
L 340.314343 76.198363 
L 341.079194 74.50529 
L 341.844046 77.878124 
L 342.608897 79.328989 
L 343.373749 74.945936 
L 344.1386 80.752004 
L 344.903452 69.849878 
L 345.668303 72.226682 
L 346.433155 83.29692 
L 347.198006 60.970968 
L 347.962858 62.994358 
L 348.727709 81.614045 
L 349.492561 79.784586 
L 350.257412 72.368012 
L 351.022264 45.172035 
L 351.787115 38.129701 
L 352.551967 54.803398 
L 353.316818 52.074025 
L 354.08167 58.438576 
L 354.846522 46.375141 
L 355.611373 30.064387 
L 356.376225 48.252169 
L 357.141076 74.778596 
L 357.905928 81.484593 
L 358.670779 86.980996 
L 359.435631 72.9526 
L 360.200482 76.688099 
L 360.965334 84.477686 
L 361.730185 86.707157 
L 362.495037 79.385737 
L 363.259888 53.903015 
L 364.02474 55.770012 
L 364.789591 87.798947 
L 365.554443 81.230864 
L 366.319294 77.391724 
L 367.848997 67.630089 
L 368.613849 73.275091 
L 369.3787 75.465949 
L 370.143552 74.72254 
L 370.908403 78.508315 
L 371.673255 74.062781 
L 372.438106 72.153214 
L 373.202958 69.810796 
L 374.732661 66.189623 
L 375.497512 68.852589 
L 376.262364 73.54026 
L 377.027215 75.800979 
L 377.792067 67.837785 
L 378.556918 69.36605 
L 379.32177 75.349713 
L 380.086621 74.344438 
L 380.851473 66.448088 
L 381.616324 62.143925 
L 382.381176 64.996006 
L 383.146027 70.831245 
L 383.910879 68.286122 
L 384.67573 64.219096 
L 385.440582 72.795729 
L 386.205433 76.442259 
L 386.970285 78.870382 
L 387.735136 74.945275 
L 388.499988 68.697916 
L 389.264839 76.296447 
L 390.029691 77.652491 
L 390.794542 79.720513 
L 391.559394 87.110942 
L 392.324245 85.832696 
L 393.089097 85.702145 
L 393.853948 79.892654 
L 394.6188 81.405505 
L 395.383651 79.932652 
L 396.148503 76.526371 
L 396.913354 76.860184 
L 397.678206 85.912007 
L 398.443057 89.855688 
L 399.207909 86.11464 
L 399.97276 84.183355 
L 400.737612 86.982111 
L 401.502463 86.696871 
L 402.267315 91.379398 
L 403.032166 93.501979 
L 403.797018 93.367591 
L 404.561869 98.46868 
L 405.326721 92.952438 
L 406.091572 88.814977 
L 406.856424 88.897378 
L 407.621275 91.032187 
L 408.386127 88.871599 
L 409.150978 72.317959 
L 409.91583 67.755091 
L 410.680681 93.549493 
L 411.445533 99.517049 
L 412.210384 103.234771 
L 412.975236 69.163967 
L 413.740087 53.839945 
L 414.504939 73.761435 
L 415.26979 108.056591 
L 416.034642 99.801493 
L 416.799493 70.553313 
L 417.564345 48.124485 
L 418.329196 63.548239 
L 419.094048 98.425577 
L 419.858899 100.019826 
L 420.623751 100.227252 
L 421.388602 92.988774 
L 422.153454 101.822503 
L 422.918305 113.176389 
L 423.683157 114.587096 
L 424.448008 109.405724 
L 425.21286 82.655647 
L 425.977712 88.205296 
L 426.742563 113.42007 
L 427.507415 119.059587 
L 428.272266 121.921556 
L 429.037118 117.262291 
L 429.801969 105.409499 
L 430.566821 109.518824 
L 431.331672 108.205755 
L 432.096524 111.991689 
L 432.861375 110.851382 
L 435.15593 102.324563 
L 435.920781 114.695959 
L 436.685633 122.275614 
L 437.450484 112.341305 
L 438.215336 115.893286 
L 438.980187 118.02007 
L 439.745039 114.611808 
L 440.50989 108.019713 
L 441.274742 113.280173 
L 442.039593 111.273366 
L 442.804445 105.3103 
L 443.569296 103.017234 
L 444.334148 108.490549 
L 445.098999 109.743175 
L 445.863851 111.538703 
L 446.628702 126.512385 
L 447.393554 117.994721 
L 448.158405 117.531529 
L 448.923257 119.289224 
L 449.688108 113.795083 
L 450.45296 123.826521 
L 451.217811 117.060486 
L 451.982663 113.515623 
L 453.512366 126.207305 
L 454.277217 128.137746 
L 455.042069 123.310513 
L 455.80692 117.701886 
L 456.571772 116.328247 
L 457.336623 117.388527 
L 458.101475 123.492796 
L 458.866326 121.368336 
L 459.631178 116.087623 
L 460.396029 114.362728 
L 461.160881 110.095354 
L 461.925732 112.696047 
L 462.690584 111.141924 
L 463.455435 101.126855 
L 464.220287 104.408197 
L 464.985138 117.650249 
L 465.74999 122.465317 
L 466.514841 108.12095 
L 467.279693 86.159383 
L 468.044544 87.923893 
L 468.809396 109.212263 
L 469.574247 108.824926 
L 470.339099 108.642372 
L 471.10395 68.987399 
L 471.868802 62.202011 
L 472.633653 89.86583 
L 473.398505 109.224699 
L 474.163356 119.245867 
L 474.928208 101.043483 
L 475.693059 86.928769 
L 476.457911 103.714873 
L 477.222762 125.200717 
L 478.752465 91.951423 
L 479.517317 68.458565 
L 480.282168 81.47246 
L 481.04702 112.22198 
L 481.811871 109.047367 
L 482.576723 104.294763 
L 483.341574 87.662601 
L 484.106426 94.529139 
L 484.871277 112.671271 
L 485.636129 117.688575 
L 486.40098 110.259932 
L 487.165832 108.537983 
L 487.930683 105.495322 
L 488.695535 110.55791 
L 489.460386 107.632663 
L 490.225238 112.497618 
L 490.990089 121.805049 
L 491.754941 104.660557 
L 492.519792 114.61297 
L 493.284644 118.902206 
L 494.049495 136.855176 
L 495.579198 111.100764 
L 496.34405 121.406216 
L 497.108902 116.194003 
L 497.873753 109.05251 
L 498.638605 106.976121 
L 499.403456 108.668533 
L 500.168308 119.34981 
L 500.933159 119.822206 
L 501.698011 128.680712 
L 502.462862 116.441952 
L 503.227714 118.600677 
L 503.992565 126.65846 
L 504.757417 111.920705 
L 505.522268 102.545125 
L 506.28712 107.399889 
L 507.051971 113.055153 
L 507.816823 107.807224 
L 508.581674 111.898238 
L 509.346526 111.06774 
L 510.111377 115.571838 
L 510.876229 121.455625 
L 511.64108 110.065435 
L 512.405932 113.554697 
L 513.170783 124.416602 
L 513.935635 110.262113 
L 515.465338 119.664762 
L 516.230189 110.715847 
L 516.995041 110.248786 
L 518.524744 118.844566 
L 519.289595 108.753003 
L 520.054447 106.898482 
L 520.819298 108.921275 
L 521.58415 97.433479 
L 522.349001 107.356436 
L 523.113853 120.337769 
L 523.878704 114.651583 
L 524.643556 105.875271 
L 525.408407 86.011269 
L 526.173259 95.162164 
L 526.93811 118.65378 
L 527.702962 111.953984 
L 528.467813 100.362038 
L 529.232665 68.224031 
L 529.997516 70.299879 
L 530.762368 105.835925 
L 531.527219 113.441709 
L 532.292071 109.631095 
L 533.056922 92.19278 
L 533.821774 87.632778 
L 534.586625 107.610467 
L 535.351477 107.141909 
L 536.116328 109.309185 
L 537.646031 82.140292 
L 539.175734 112.49722 
L 539.940586 116.474275 
L 540.705437 117.685518 
L 541.470289 107.803005 
L 542.23514 110.963032 
L 542.999992 124.027752 
L 543.764843 115.618109 
L 544.529695 115.820153 
L 545.294546 104.600448 
L 546.059398 103.852621 
L 546.824249 118.797466 
L 547.589101 120.190149 
L 548.353952 114.117614 
L 549.118804 114.841605 
L 549.883655 121.627447 
L 550.648507 123.915577 
L 552.17821 133.162454 
L 552.943061 128.732874 
L 553.707913 122.058253 
L 554.472764 123.518129 
L 555.237616 123.229736 
L 556.002467 115.404967 
L 556.767319 110.906506 
L 557.53217 116.603313 
L 558.297022 119.52418 
L 559.061873 121.532197 
L 559.826725 121.573596 
L 560.591576 126.80971 
L 561.356428 119.441876 
L 562.121279 119.709457 
L 562.886131 125.565045 
L 563.650982 132.595413 
L 564.415834 125.901795 
L 565.180685 125.330981 
L 565.945537 126.849373 
L 566.710388 118.406197 
L 567.47524 116.583155 
L 569.004943 123.923681 
L 569.769795 121.296063 
L 570.534646 123.552474 
L 571.299498 125.018975 
L 572.064349 135.290751 
L 572.829201 128.464513 
L 573.594052 125.670852 
L 574.358904 132.101346 
L 575.123755 130.359844 
L 575.888607 118.592429 
L 576.653458 111.143309 
L 577.41831 110.676502 
L 578.183161 117.752377 
L 578.948013 100.585099 
L 579.712864 88.372691 
L 580.477716 113.529077 
L 581.242567 101.731584 
L 582.007419 106.397154 
L 582.77227 108.115361 
L 583.537122 98.092888 
L 584.301973 110.677458 
L 585.066825 125.273102 
L 585.831676 118.794584 
L 586.596528 126.51947 
L 587.361379 117.1458 
L 588.126231 117.670407 
L 588.891082 123.190009 
L 589.655934 120.991286 
L 590.420785 112.672275 
L 591.185637 84.358855 
L 591.950488 82.536673 
L 592.71534 109.967176 
L 593.480191 125.959197 
L 594.245043 130.320308 
L 595.009894 112.81179 
L 595.774746 103.029192 
L 596.539597 121.929103 
L 597.304449 130.509661 
L 598.0693 129.705547 
L 598.834152 123.487096 
L 599.599003 106.697107 
L 600.363855 118.583337 
L 601.128706 137.612016 
L 601.893558 137.151339 
L 602.658409 127.630814 
L 603.423261 121.616524 
L 604.188112 128.648532 
L 604.952964 147.915271 
L 605.717815 144.730755 
L 606.482667 131.647946 
L 607.247518 122.445175 
L 608.01237 123.850039 
L 608.777221 148.544761 
L 609.542073 151.427111 
L 610.306924 153.211493 
L 611.071776 143.102989 
L 611.836627 139.789403 
L 612.601479 140.861194 
L 613.36633 142.802973 
L 614.131182 139.267503 
L 615.660885 121.897528 
L 616.425736 127.70917 
L 617.190588 128.431553 
L 617.955439 128.333453 
L 618.720291 142.048442 
L 619.485142 136.486883 
L 620.249994 145.069447 
L 621.779697 123.747019 
L 622.544548 130.513531 
L 623.3094 140.481867 
L 624.074251 144.927862 
L 624.839103 150.456604 
L 625.603954 132.649709 
L 626.368806 128.330491 
L 627.133657 148.67313 
L 627.898509 132.434116 
L 628.66336 131.096 
L 629.428212 127.80106 
L 630.193063 138.826825 
L 630.957915 141.27052 
L 631.722766 132.732317 
L 633.252469 140.701919 
L 634.017321 146.99379 
L 634.782172 156.545715 
L 635.547024 149.45449 
L 636.311875 141.254359 
L 637.076727 112.003392 
L 637.841578 107.081737 
L 638.60643 129.967667 
L 639.371282 130.250232 
L 640.136133 126.998203 
L 640.900985 109.110851 
L 641.665836 97.10942 
L 642.430688 119.115746 
L 643.195539 133.625137 
L 643.960391 136.456614 
L 645.490094 97.086204 
L 646.254945 108.599206 
L 647.019797 138.499931 
L 647.784648 138.759233 
L 648.5495 139.751952 
L 649.314351 118.666438 
L 650.079203 120.192187 
L 650.844054 136.997064 
L 651.608906 137.628368 
L 652.373757 142.77264 
L 653.138609 132.187249 
L 653.90346 124.872295 
L 654.668312 140.717619 
L 655.433163 134.9583 
L 656.198015 137.400132 
L 656.962866 140.434783 
L 657.727718 131.991686 
L 658.492569 139.143115 
L 659.257421 140.508649 
L 660.022272 142.525646 
L 660.787124 129.060676 
L 661.551975 126.313573 
L 662.316827 147.964791 
L 663.081678 141.604627 
L 663.84653 136.943611 
L 664.611381 134.655338 
L 665.376233 131.137941 
L 666.141084 141.273466 
L 666.905936 136.804112 
L 667.670787 141.824488 
L 668.435639 131.016912 
L 669.20049 131.115315 
L 669.965342 134.480729 
L 670.730193 134.406338 
L 671.495045 131.59279 
L 672.259896 129.791339 
L 673.024748 129.663973 
L 673.789599 117.561018 
L 674.554451 108.1106 
L 675.319302 111.019223 
L 676.084154 122.411403 
L 676.849005 121.468188 
L 678.378708 140.493268 
L 679.14356 141.359401 
L 679.908411 136.39606 
L 680.673263 139.541454 
L 681.438114 136.047081 
L 682.202966 139.83698 
L 682.967817 138.272141 
L 683.732669 132.804335 
L 684.49752 138.027456 
L 685.262372 141.535331 
L 686.027223 143.729581 
L 686.792075 134.759297 
L 687.556926 130.235631 
L 688.321778 139.887232 
L 689.086629 152.931826 
L 689.851481 155.080998 
L 690.616332 166.089615 
L 691.381184 145.950835 
L 692.146035 150.226043 
L 692.910887 163.42047 
L 693.675738 160.891716 
L 694.44059 151.968468 
L 695.205441 123.351482 
L 695.970293 118.739985 
L 696.735144 144.164972 
L 697.499996 158.840134 
L 698.264847 146.290244 
L 699.029699 127.202301 
L 699.79455 120.431538 
L 700.559402 140.628436 
L 701.324253 156.107649 
L 702.089105 153.476925 
L 703.618808 138.291965 
L 704.383659 148.815973 
L 705.148511 165.999285 
L 705.913362 155.406554 
L 706.678214 152.819523 
L 707.443065 148.183681 
L 708.207917 147.290479 
L 709.73762 165.36685 
L 710.502472 154.909956 
L 711.267323 141.894692 
L 712.032175 144.01498 
L 712.797026 160.601555 
L 714.326729 169.995463 
L 715.091581 163.438606 
L 715.856432 165.644638 
L 716.621284 169.739569 
L 717.386135 170.017022 
L 718.150987 152.776675 
L 718.915838 155.781296 
L 719.68069 153.33327 
L 720.445541 154.997865 
L 721.210393 160.571111 
L 721.975244 159.458112 
L 722.740096 169.667869 
L 723.504947 156.356887 
L 724.269799 152.784955 
L 725.03465 165.768262 
L 725.799502 173.20286 
L 727.329205 161.065035 
L 728.094056 163.326414 
L 728.858908 174.228062 
L 729.623759 164.130401 
L 730.388611 166.25217 
L 731.153462 171.602641 
L 731.918314 158.415761 
L 732.683165 164.082521 
L 733.448017 172.158472 
L 734.212868 168.486051 
L 734.97772 169.601725 
L 735.742571 161.481621 
L 737.272274 167.582372 
L 738.037126 161.346867 
L 738.801977 168.623464 
L 739.566829 161.939161 
L 740.33168 158.687753 
L 741.096532 180.665706 
L 741.861383 168.921283 
L 742.626235 170.948073 
L 743.391086 169.63338 
L 744.155938 171.027782 
L 744.920789 178.901896 
L 745.685641 176.382791 
L 746.450492 163.48647 
L 747.215344 156.039961 
L 747.980195 157.342839 
L 748.745047 159.908025 
L 749.509898 163.730677 
L 750.27475 171.252946 
L 751.039601 158.383263 
L 751.804453 157.149107 
L 752.569304 149.877733 
L 753.334156 139.916498 
L 754.863859 155.765803 
L 755.62871 151.33124 
L 756.393562 147.926019 
L 757.158413 137.68491 
L 757.923265 139.014236 
L 758.688116 151.527838 
L 759.452968 149.589897 
L 760.217819 146.232556 
L 761.747522 132.595158 
L 763.277225 161.362376 
L 764.042077 162.937549 
L 764.806928 157.498166 
L 765.57178 142.735619 
L 766.336631 144.521864 
L 767.101483 148.773634 
L 767.866334 163.081108 
L 768.631186 149.457516 
L 769.396037 130.904434 
L 770.160889 140.154941 
L 770.92574 154.997611 
L 771.690592 145.676072 
L 772.455443 138.31967 
L 773.220295 126.455333 
L 773.985146 130.427707 
L 774.749998 148.80497 
L 775.514849 159.219557 
L 776.279701 167.806405 
L 777.044552 161.397358 
L 777.809404 153.756369 
L 778.574255 164.785256 
L 779.339107 151.656717 
L 780.103958 143.260974 
L 780.86881 141.279994 
L 781.633662 145.578338 
L 782.398513 149.175731 
L 783.163365 147.337419 
L 783.928216 152.609709 
L 784.693068 154.682993 
L 785.457919 141.428426 
L 786.222771 142.536633 
L 786.987622 156.314676 
L 788.517325 144.07348 
L 789.282177 139.635016 
L 790.047028 146.097356 
L 790.81188 154.533176 
L 791.576731 152.915951 
L 792.341583 148.692715 
L 793.106434 145.347888 
L 793.871286 149.041932 
L 794.636137 145.358206 
L 795.400989 139.358931 
L 796.16584 148.354675 
L 796.930692 143.394057 
L 797.695543 143.869748 
L 798.460395 148.330297 
L 799.225246 144.059388 
L 799.990098 140.804366 
L 800.754949 131.885975 
L 801.519801 129.99886 
L 802.284652 133.156276 
L 803.049504 132.89933 
L 803.814355 124.265877 
L 804.579207 124.175913 
L 805.344058 127.403023 
L 806.10891 123.551965 
L 806.873761 123.615003 
L 807.638613 127.227268 
L 808.403464 121.688829 
L 809.168316 121.649675 
L 809.933167 126.674669 
L 810.698019 125.530222 
L 811.46287 120.807601 
L 812.227722 119.930035 
L 812.992573 120.769721 
L 813.757425 118.3865 
L 814.522276 118.991214 
L 815.287128 106.200684 
L 816.051979 115.444886 
L 816.816831 110.604229 
L 817.581682 112.38756 
L 818.346534 120.186041 
L 819.111385 96.020814 
L 819.876237 85.278043 
L 820.641088 106.442614 
L 821.40594 124.120996 
L 822.170791 121.472328 
L 822.935643 106.107392 
L 823.700494 99.278702 
L 824.465346 117.939326 
L 825.230197 144.961475 
L 825.995049 129.611014 
L 826.7599 132.255112 
L 827.524752 128.006766 
L 828.289603 134.693553 
L 829.054455 138.23098 
L 829.819306 144.748413 
L 830.584158 140.575317 
L 831.349009 128.187951 
L 832.113861 131.956545 
L 832.878712 146.740364 
L 833.643564 141.589055 
L 834.408415 147.393849 
L 835.173267 136.394611 
L 835.938118 129.656553 
L 836.70297 144.030154 
L 837.467821 152.462981 
L 838.232673 150.741478 
L 838.997524 151.137015 
L 839.762376 158.732035 
L 840.527227 153.796717 
L 841.292079 153.613065 
L 842.05693 154.15181 
L 842.821782 154.33118 
L 843.586633 153.414588 
L 844.351485 160.358797 
L 845.116336 162.191919 
L 845.881188 168.265728 
L 846.646039 160.671281 
L 847.410891 151.73485 
L 848.175742 162.027055 
L 848.940594 156.549568 
L 849.705445 143.168718 
L 850.470297 143.930589 
L 851.235148 144.352128 
L 852 142.548591 
L 852 142.548591 
" style="fill:none;stroke:#377eb8;stroke-dasharray:7.4,3.2;stroke-dashoffset:0;stroke-linecap:round;stroke-width:2;"/>
   </g>
   <g id="patch_3">
    <path d="M 69.55691 225.99886 
L 69.55691 14.63729 
" style="fill:none;stroke:#000000;stroke-linecap:square;stroke-linejoin:miter;stroke-width:0.8;"/>
   </g>
   <g id="patch_4">
    <path d="M 852 225.99886 
L 852 14.63729 
" style="fill:none;"/>
   </g>
   <g id="patch_5">
    <path d="M 69.55691 225.99886 
L 852 225.99886 
" style="fill:none;stroke:#000000;stroke-linecap:square;stroke-linejoin:miter;stroke-width:0.8;"/>
   </g>
   <g id="patch_6">
    <path d="M 69.55691 14.63729 
L 852 14.63729 
" style="fill:none;"/>
   </g>
   <g id="legend_1">
    <g id="patch_7">
     <path d="M 574.86661 43.34839 
L 847.2 43.34839 
Q 850.4 43.34839 850.4 40.14839 
L 850.4 19.43729 
Q 850.4 16.23729 847.2 16.23729 
L 574.86661 16.23729 
Q 571.66661 16.23729 571.66661 19.43729 
L 571.66661 40.14839 
Q 571.66661 43.34839 574.86661 43.34839 
z
" style="fill:none;opacity:0;"/>
    </g>
    <g id="line2d_13">
     <path d="M 578.06661 28.23729 
L 610.06661 28.23729 
" style="fill:none;stroke:#e41a1c;stroke-linecap:square;stroke-width:2;"/>
    </g>
    <g id="line2d_14"/>
    <g id="text_13">
     <!-- \textbf{Healthy} -->
     <defs>
      <path d="M 21.09375 40 
L 35.5 40 
L 35.5 44.265625 
L 21.09375 44.265625 
L 21.09375 63 
L 16.90625 63 
C 16.796875 53.203125 12 43.375 2.09375 43.375 
L 2.09375 40 
L 10.203125 40 
L 10.203125 12.328125 
C 10.203125 1.78125 18.40625 -0.5 25.59375 -0.5 
C 33 -0.5 37.40625 5.078125 37.40625 12.421875 
L 37.40625 17.703125 
L 33.203125 17.703125 
L 33.203125 12.53125 
C 33.203125 5.953125 30.203125 3.078125 27.09375 3.078125 
C 21.09375 3.078125 21.09375 9.75 21.09375 12.03125 
z
" id="CMBX12-116"/>
      <path d="M 53.09375 30.0625 
C 53.09375 39.453125 49 44.28125 38 44.28125 
C 27.90625 44.28125 23 37.25 21.59375 34.28125 
L 21.5 34.28125 
L 21.5 69 
L 4.203125 69 
L 4.203125 64.328125 
C 10.40625 64.328125 11.09375 64.328125 11.09375 60.28125 
L 11.09375 4.0625 
L 4.203125 4.0625 
L 4.203125 -0.203125 
C 6.5 0 13.703125 0 16.5 0 
C 19.296875 0 26.59375 0 28.90625 -0.203125 
L 28.90625 4.0625 
L 22 4.0625 
L 22 25.109375 
C 22 35.765625 30 41 36.40625 41 
C 40.09375 41 42.203125 38.640625 42.203125 31.140625 
L 42.203125 4.0625 
L 35.296875 4.0625 
L 35.296875 -0.203125 
C 37.59375 0 44.796875 0 47.59375 0 
C 50.40625 0 57.703125 0 60 -0.203125 
L 60 4.0625 
L 53.09375 4.0625 
z
" id="CMBX12-104"/>
     </defs>
     <g transform="translate(622.86661 33.83729)scale(0.16 -0.16)">
      <use transform="translate(0 -0.072648)scale(0.996264)" xlink:href="#CMBX12-72"/>
      <use transform="translate(87.634475 -0.072648)scale(0.996264)" xlink:href="#CMBX12-101"/>
      <use transform="translate(138.773742 -0.072648)scale(0.996264)" xlink:href="#CMBX12-97"/>
      <use transform="translate(193.25693 -0.072648)scale(0.996264)" xlink:href="#CMBX12-108"/>
      <use transform="translate(224.39018 -0.072648)scale(0.996264)" xlink:href="#CMBX12-116"/>
      <use transform="translate(267.976731 -0.072648)scale(0.996264)" xlink:href="#CMBX12-104"/>
      <use transform="translate(327.129907 -0.072648)scale(0.996264)" xlink:href="#CMBX12-121"/>
     </g>
    </g>
    <g id="line2d_15">
     <path d="M 717.15367 28.23729 
L 749.15367 28.23729 
" style="fill:none;stroke:#377eb8;stroke-dasharray:7.4,3.2;stroke-dashoffset:0;stroke-linecap:round;stroke-width:2;"/>
    </g>
    <g id="line2d_16"/>
    <g id="text_14">
     <!-- \textbf{Unhealthy} -->
     <defs>
      <path d="M 72 61.109375 
C 72 63.296875 72.09375 63.40625 74.703125 63.796875 
C 76.5 64 78.5 64 80.296875 64 
L 82.59375 64 
L 82.59375 68.375 
C 80.296875 68.171875 72.5 68.171875 69.703125 68.171875 
C 66.90625 68.171875 59.09375 68.171875 56.796875 68.375 
L 56.796875 64 
L 59.09375 64 
C 61.796875 64 62 64 64.40625 63.703125 
C 67.296875 63.3125 67.40625 63.203125 67.40625 61.015625 
L 67.40625 23.21875 
C 67.40625 9.03125 57.296875 3.265625 45.5 3.265625 
C 28 3.265625 27.59375 16.5625 27.59375 22.328125 
L 27.59375 64 
L 38.203125 64 
L 38.203125 68.171875 
C 35.296875 68.171875 24.59375 68.171875 21 68.171875 
C 17.40625 68.171875 6.703125 68.171875 3.796875 68.171875 
L 3.796875 64 
L 14.40625 64 
L 14.40625 23.015625 
C 14.40625 9.90625 25 -1 45.09375 -1 
C 63.59375 -1 72 10.421875 72 22.953125 
z
" id="CMBX12-85"/>
     </defs>
     <g transform="translate(761.95367 33.83729)scale(0.16 -0.16)">
      <use transform="translate(0 -0.072648)scale(0.996264)" xlink:href="#CMBX12-85"/>
      <use transform="translate(86.135473 -0.072648)scale(0.996264)" xlink:href="#CMBX12-110"/>
      <use transform="translate(148.401973 -0.072648)scale(0.996264)" xlink:href="#CMBX12-104"/>
      <use transform="translate(210.668474 -0.072648)scale(0.996264)" xlink:href="#CMBX12-101"/>
      <use transform="translate(261.807741 -0.072648)scale(0.996264)" xlink:href="#CMBX12-97"/>
      <use transform="translate(316.290929 -0.072648)scale(0.996264)" xlink:href="#CMBX12-108"/>
      <use transform="translate(347.42418 -0.072648)scale(0.996264)" xlink:href="#CMBX12-116"/>
      <use transform="translate(391.01073 -0.072648)scale(0.996264)" xlink:href="#CMBX12-104"/>
      <use transform="translate(450.163906 -0.072648)scale(0.996264)" xlink:href="#CMBX12-121"/>
     </g>
    </g>
   </g>
  </g>
 </g>
 <defs>
  <clipPath id="p02c82dd387">
   <rect height="211.36157" width="782.44309" x="69.55691" y="14.63729"/>
  </clipPath>
 </defs>
</svg>
