<?xml version="1.0" encoding="utf-8" standalone="no"?>
<!DOCTYPE svg PUBLIC "-//W3C//DTD SVG 1.1//EN"
  "http://www.w3.org/Graphics/SVG/1.1/DTD/svg11.dtd">
<!-- Created with matplotlib (https://matplotlib.org/) -->
<svg height="288pt" version="1.1" viewBox="0 0 864 288" width="864pt" xmlns="http://www.w3.org/2000/svg" xmlns:xlink="http://www.w3.org/1999/xlink">
 <defs>
  <style type="text/css">
*{stroke-linecap:butt;stroke-linejoin:round;}
  </style>
 </defs>
 <g id="figure_1">
  <g id="patch_1">
   <path d="M 0 288 
L 864 288 
L 864 0 
L 0 0 
z
" style="fill:#ffffff;"/>
  </g>
  <g id="axes_1">
   <g id="patch_2">
    <path d="M 85.65682 228.44192 
L 852 228.44192 
L 852 12 
L 85.65682 12 
z
" style="fill:#ffffff;"/>
   </g>
   <g id="matplotlib.axis_1">
    <g id="xtick_1">
     <g id="line2d_1">
      <defs>
       <path d="M 0 0 
L 0 3.5 
" id="mc5fc7ed1d1" style="stroke:#000000;stroke-width:0.8;"/>
      </defs>
      <g>
       <use style="stroke:#000000;stroke-width:0.8;" x="213.380683" xlink:href="#mc5fc7ed1d1" y="228.44192"/>
      </g>
     </g>
     <g id="text_1">
      <!-- $5$ -->
      <defs>
       <path d="M 15.40625 51.796875 
C 18.796875 51 21.5 51 23 51 
C 25.40625 51 31.09375 51 37.796875 55.109375 
C 40.90625 56.984375 46.09375 61.5 46.09375 63.796875 
C 46.09375 64.296875 46.09375 65.5 44.90625 65.5 
C 44.796875 65.5 44.59375 65.5 43.59375 64.984375 
C 39 63.34375 34.09375 62.21875 28.5 62.21875 
C 22.796875 62.21875 18 63.3125 13.296875 65 
C 12.59375 65.203125 12.296875 65.40625 12 65.40625 
C 10.796875 65.40625 10.796875 64.40625 10.796875 62.71875 
L 10.796875 33.796875 
C 10.796875 31.90625 10.796875 30.8125 12.796875 30.8125 
C 13.796875 30.8125 14 30.921875 14.796875 31.90625 
C 16 33.3125 19.59375 37.71875 28.09375 37.71875 
C 37.296875 37.71875 37.296875 28.359375 37.296875 20.5 
C 37.296875 13.3125 37.296875 2.96875 25 2.96875 
C 21.296875 2.96875 15 4.359375 11.59375 10 
C 16.90625 10 18.203125 13.984375 18.203125 16.171875 
C 18.203125 19.75 15.59375 22.421875 11.90625 22.421875 
C 8.90625 22.421875 5.59375 20.640625 5.59375 15.96875 
C 5.59375 7.34375 13.5 -1 25.40625 -1 
C 40.796875 -1 50.5 7.859375 50.5 20.203125 
C 50.5 32.34375 42.203125 41 28.5 41 
C 24.5 41 19.703125 40.203125 15.40625 37.015625 
z
" id="CMBX12-53"/>
      </defs>
      <g transform="translate(208.318183 247.94192)scale(0.18 -0.18)">
       <use transform="scale(0.996264)" xlink:href="#CMBX12-53"/>
      </g>
     </g>
    </g>
    <g id="xtick_2">
     <g id="line2d_2">
      <g>
       <use style="stroke:#000000;stroke-width:0.8;" x="341.104547" xlink:href="#mc5fc7ed1d1" y="228.44192"/>
      </g>
     </g>
     <g id="text_2">
      <!-- $10$ -->
      <defs>
       <path d="M 34.59375 62.109375 
C 34.59375 65 34.40625 65 31.203125 65 
C 23.796875 59 12.703125 59 10.5 59 
L 8.59375 59 
L 8.59375 54.734375 
L 10.5 54.734375 
C 14 54.734375 19.296875 55.328125 23.296875 56.625 
L 23.296875 4.171875 
L 9.40625 4.171875 
L 9.40625 0 
C 13.59375 0 24.09375 0 28.796875 0 
C 33.5 0 44.09375 0 48.296875 0 
L 48.296875 4.171875 
L 34.59375 4.171875 
z
" id="CMBX12-49"/>
       <path d="M 51.703125 31.84375 
C 51.703125 41.375 51.703125 65.28125 28.09375 65.28125 
C 4.40625 65.28125 4.40625 41.46875 4.40625 31.84375 
C 4.40625 22.3125 4.40625 -1 28 -1 
C 51.59375 -1 51.703125 22.015625 51.703125 31.84375 
z
M 28.09375 2.28125 
C 24.90625 2.28125 22.5 3.5625 20.5 5.65625 
C 18 8.140625 16.40625 9.703125 16.40625 33.03125 
C 16.40625 39.984375 16.40625 46.3125 17.203125 51.484375 
C 18.59375 61.3125 25.796875 62 28 62 
C 31.203125 62 37.40625 60.515625 38.796875 52.1875 
C 39.703125 47.109375 39.703125 39.078125 39.703125 33.03125 
C 39.703125 9.609375 38.203125 8.234375 35.203125 5.25 
C 33.203125 3.265625 30.5 2.28125 28.09375 2.28125 
z
" id="CMBX12-48"/>
      </defs>
      <g transform="translate(330.979547 247.94192)scale(0.18 -0.18)">
       <use transform="scale(0.996264)" xlink:href="#CMBX12-49"/>
       <use transform="translate(56.039851 0)scale(0.996264)" xlink:href="#CMBX12-48"/>
      </g>
     </g>
    </g>
    <g id="xtick_3">
     <g id="line2d_3">
      <g>
       <use style="stroke:#000000;stroke-width:0.8;" x="468.82841" xlink:href="#mc5fc7ed1d1" y="228.44192"/>
      </g>
     </g>
     <g id="text_3">
      <!-- $15$ -->
      <g transform="translate(458.70341 247.94192)scale(0.18 -0.18)">
       <use transform="scale(0.996264)" xlink:href="#CMBX12-49"/>
       <use transform="translate(56.039851 0)scale(0.996264)" xlink:href="#CMBX12-53"/>
      </g>
     </g>
    </g>
    <g id="xtick_4">
     <g id="line2d_4">
      <g>
       <use style="stroke:#000000;stroke-width:0.8;" x="596.552273" xlink:href="#mc5fc7ed1d1" y="228.44192"/>
      </g>
     </g>
     <g id="text_4">
      <!-- $20$ -->
      <defs>
       <path d="M 50.5 21.375 
L 46.296875 21.375 
C 46 19.28125 45.296875 13.40625 43.796875 12.421875 
C 43 11.71875 35.203125 11.71875 33.703125 11.71875 
L 18.203125 11.71875 
C 22 14.90625 31.09375 22.46875 32.59375 23.578125 
C 43.703125 31.84375 50.5 36.90625 50.5 46.46875 
C 50.5 58.203125 39.796875 65.28125 26.59375 65.28125 
C 15.296875 65.28125 5.59375 58.90625 5.59375 49.453125 
C 5.59375 44.171875 9.90625 42.6875 12.203125 42.6875 
C 15.296875 42.6875 18.90625 44.765625 18.90625 49.359375 
C 18.90625 53.546875 15.796875 55.625 12.703125 56.03125 
C 16.703125 60.609375 22 61 24.09375 61 
C 33.296875 61 37.703125 53.546875 37.703125 46.375 
C 37.703125 38.609375 32.40625 31.453125 28.296875 27.171875 
L 6.59375 4.578125 
C 5.59375 3.671875 5.59375 3.484375 5.59375 1.6875 
L 5.59375 0 
L 47.59375 0 
z
" id="CMBX12-50"/>
      </defs>
      <g transform="translate(586.427273 247.94192)scale(0.18 -0.18)">
       <use transform="scale(0.996264)" xlink:href="#CMBX12-50"/>
       <use transform="translate(56.039851 0)scale(0.996264)" xlink:href="#CMBX12-48"/>
      </g>
     </g>
    </g>
    <g id="xtick_5">
     <g id="line2d_5">
      <g>
       <use style="stroke:#000000;stroke-width:0.8;" x="724.276137" xlink:href="#mc5fc7ed1d1" y="228.44192"/>
      </g>
     </g>
     <g id="text_5">
      <!-- $25$ -->
      <g transform="translate(714.151137 247.94192)scale(0.18 -0.18)">
       <use transform="scale(0.996264)" xlink:href="#CMBX12-50"/>
       <use transform="translate(56.039851 0)scale(0.996264)" xlink:href="#CMBX12-53"/>
      </g>
     </g>
    </g>
    <g id="text_6">
     <!-- \textbf{PCA Feature} -->
     <defs>
      <path d="M 27.59375 30.21875 
L 44.59375 30.21875 
C 61.296875 30.21875 70.59375 38.65625 70.59375 48.875 
C 70.59375 59.5625 61.09375 68 44.59375 68 
L 3.796875 68 
L 3.796875 63.71875 
L 14.40625 63.71875 
L 14.40625 4.171875 
L 3.796875 4.171875 
L 3.796875 0 
C 6.703125 0 17.40625 0 21 0 
C 24.59375 0 35.296875 0 38.203125 0 
L 38.203125 4.171875 
L 27.59375 4.171875 
z
M 41 63.71875 
C 56.5 63.71875 56.5 55.59375 56.5 48.859375 
C 56.5 42.328125 56.5 34 41 34 
L 27.09375 34 
L 27.09375 63.71875 
z
" id="CMBX12-80"/>
      <path d="M 74.90625 66.4375 
C 74.90625 68.71875 74.90625 69.015625 72.703125 69.015625 
L 65.203125 61.859375 
C 59.59375 66.609375 52.90625 69 45.5 69 
C 21.59375 69 6.203125 54.640625 6.203125 33.859375 
C 6.203125 13.46875 21.09375 -1.265625 45.59375 -1.265625 
C 63.40625 -1.265625 74.90625 10.796875 74.90625 22.484375 
C 74.90625 24.171875 74.296875 24.171875 72.796875 24.171875 
C 71.796875 24.171875 70.796875 24.171875 70.703125 23.1875 
C 69.796875 8.15625 56.90625 3 47.90625 3 
C 41.40625 3 32.59375 4.796875 27 11.015625 
C 23.5 14.78125 20.296875 20.203125 20.296875 33.859375 
C 20.296875 43.5625 21.796875 50.78125 26.5 56.3125 
C 32.90625 63.734375 42.90625 64.734375 47.703125 64.734375 
C 55.203125 64.734375 67.296875 60.5625 70.296875 43.15625 
C 70.5 42.265625 71.40625 42.265625 72.59375 42.265625 
C 74.90625 42.265625 74.90625 42.46875 74.90625 44.84375 
z
" id="CMBX12-67"/>
      <path d="M 45.796875 67.203125 
C 45.09375 69 44.90625 69.5 42.5 69.5 
C 40 69.5 39.796875 69 39.09375 67.203125 
L 14.296875 6.453125 
C 13.59375 4.859375 13.59375 4.671875 10.796875 4.359375 
C 8.296875 4.0625 7.90625 4.0625 5.703125 4.0625 
L 3.90625 4.0625 
L 3.90625 -0.203125 
C 6.5 0 12.5 0 15.40625 0 
C 18.09375 0 25.40625 0 27.703125 -0.203125 
L 27.703125 4.0625 
C 25.5 4.0625 21.703125 4.0625 18.90625 5.171875 
C 19.203125 6.09375 19.203125 6.28125 19.40625 6.6875 
L 24.703125 19.71875 
L 51.5 19.71875 
L 57.796875 4.0625 
L 48.40625 4.0625 
L 48.40625 0 
C 51.59375 0 61.296875 0 65.09375 0 
C 68.296875 0 78.5 0 81 -0.203125 
L 81 4.0625 
L 71.5 4.0625 
z
M 38.09375 52.609375 
L 49.703125 24 
L 26.40625 24 
z
" id="CMBX12-65"/>
      <path d="M 63 67.28125 
L 3.796875 67.28125 
L 3.796875 63 
L 14.40625 63 
L 14.40625 4.171875 
L 3.796875 4.171875 
L 3.796875 0 
C 6.703125 0 18.09375 0 21.796875 0 
C 27.09375 0 36 0 40.90625 0 
L 40.90625 4.171875 
L 27.59375 4.171875 
L 27.59375 31.71875 
L 33.09375 31.71875 
C 42.703125 31.71875 43.5 27.3125 43.5 20 
L 47.703125 20 
L 47.703125 47.53125 
L 43.5 47.53125 
C 43.5 40.328125 42.703125 36 33.09375 36 
L 27.59375 36 
L 27.59375 63 
L 41.90625 63 
C 57.796875 63 60.296875 55.875 61.703125 44.078125 
L 65.90625 44.078125 
z
" id="CMBX12-70"/>
      <path d="M 45.203125 22 
C 47.5 22 48.09375 22 48.09375 24.484375 
C 48.09375 27.46875 47.40625 34.890625 42.796875 39.5625 
C 38.59375 43.71875 33 45 27.203125 45 
C 11.59375 45 3.09375 34.890625 3.09375 22.40625 
C 3.09375 8.515625 13.40625 -0.5 28.5 -0.5 
C 43.59375 -0.5 48.09375 10 48.09375 11.6875 
C 48.09375 13.171875 46.59375 13.171875 46 13.171875 
C 44.40625 13.171875 44.296875 12.875 43.703125 11.59375 
C 41.09375 5.15625 34.5 3.078125 29.703125 3.078125 
C 15.203125 3.078125 15.09375 16.453125 15.09375 22 
z
M 15.09375 24.890625 
C 15.296875 28.9375 15.40625 32.8125 17.5 36.375 
C 19.40625 39.546875 22.90625 41.71875 27.203125 41.71875 
C 37.90625 41.71875 38.796875 29.828125 38.90625 24.890625 
z
" id="CMBX12-101"/>
      <path d="M 46 29.65625 
C 46 38.8125 38.703125 44.984375 24.59375 44.984375 
C 19 44.984375 7.203125 44.984375 7.203125 36.46875 
C 7.203125 32.203125 10.40625 30.390625 13.09375 30.390625 
C 16.09375 30.390625 19 32.484375 19 36.296875 
C 19 38.203125 18.296875 39.984375 16.59375 41.09375 
C 19.90625 42 22.296875 42 24.203125 42 
C 31 42 35.09375 38.203125 35.09375 29.984375 
L 35.09375 25.984375 
C 19.296875 25.984375 3.40625 21.59375 3.40625 10.5625 
C 3.40625 1.484375 15 -0.5 21.90625 -0.5 
C 29.59375 -0.5 34.5 3.640625 36.5 7.96875 
C 36.5 4.28125 36.5 0 46.59375 0 
L 51.703125 0 
C 53.796875 0 54.59375 0 54.59375 2.265625 
C 54.59375 4.265625 53.703125 4.265625 52.296875 4.265625 
C 46 4.265625 46 5.84375 46 8.15625 
z
M 35.09375 13.78125 
C 35.09375 4.546875 26.703125 2.78125 23.5 2.78125 
C 18.59375 2.78125 14.5 6.09375 14.5 10.71875 
C 14.5 19.890625 25.296875 23 35.09375 23 
z
" id="CMBX12-97"/>
      <path d="M 21.09375 40 
L 35.5 40 
L 35.5 44.265625 
L 21.09375 44.265625 
L 21.09375 63 
L 16.90625 63 
C 16.796875 53.203125 12 43.375 2.09375 43.375 
L 2.09375 40 
L 10.203125 40 
L 10.203125 12.328125 
C 10.203125 1.78125 18.40625 -0.5 25.59375 -0.5 
C 33 -0.5 37.40625 5.078125 37.40625 12.421875 
L 37.40625 17.703125 
L 33.203125 17.703125 
L 33.203125 12.53125 
C 33.203125 5.953125 30.203125 3.078125 27.09375 3.078125 
C 21.09375 3.078125 21.09375 9.75 21.09375 12.03125 
z
" id="CMBX12-116"/>
      <path d="M 35.296875 44.671875 
L 35.296875 40 
C 41.5 40 42.203125 40 42.203125 36.125 
L 42.203125 16.5 
C 42.203125 8.890625 37.703125 2.78125 29.90625 2.78125 
C 22.40625 2.78125 22 5.265625 22 10.6875 
L 22 44.671875 
L 4.203125 44.671875 
L 4.203125 40 
C 10.40625 40 11.09375 40 11.09375 36.125 
L 11.09375 12.40625 
C 11.09375 2.390625 17.796875 -0.5 28.5 -0.5 
C 30.90625 -0.5 38.296875 -0.5 42.59375 7.75 
L 42.703125 7.75 
L 42.703125 0 
L 60 0 
L 60 4.5625 
C 53.796875 4.5625 53.09375 4.5625 53.09375 8.4375 
L 53.09375 44.671875 
z
" id="CMBX12-117"/>
      <path d="M 20.796875 22.046875 
C 20.796875 25.296875 21.5 41 33.203125 41 
C 31.796875 39.921875 31.09375 38.25 31.09375 36.5 
C 31.09375 32.484375 34.40625 30.8125 36.90625 30.8125 
C 39.40625 30.8125 42.703125 32.484375 42.703125 36.515625 
C 42.703125 41.53125 37.5 44.28125 32.703125 44.28125 
C 24.796875 44.28125 21.40625 37.515625 20 33.390625 
L 19.90625 33.390625 
L 19.90625 44 
L 3.5 44 
L 3.5 39.328125 
C 9.703125 39.328125 10.40625 39.328125 10.40625 35.46875 
L 10.40625 4.0625 
L 3.5 4.0625 
L 3.5 -0.203125 
C 5.796875 0 13.296875 0 16.09375 0 
C 19 0 27.09375 0 29.5 -0.203125 
L 29.5 4.0625 
L 20.796875 4.0625 
z
" id="CMBX12-114"/>
     </defs>
     <g transform="translate(397.169255 271.72083)scale(0.22 -0.22)">
      <use transform="scale(0.996264)" xlink:href="#CMBX12-80"/>
      <use transform="translate(76.564811 0)scale(0.996264)" xlink:href="#CMBX12-67"/>
      <use transform="translate(157.511261 0)scale(0.996264)" xlink:href="#CMBX12-65"/>
      <use transform="translate(279.507557 0)scale(0.996264)" xlink:href="#CMBX12-70"/>
      <use transform="translate(340.621002 0)scale(0.996264)" xlink:href="#CMBX12-101"/>
      <use transform="translate(391.760269 0)scale(0.996264)" xlink:href="#CMBX12-97"/>
      <use transform="translate(446.243457 0)scale(0.996264)" xlink:href="#CMBX12-116"/>
      <use transform="translate(489.830008 0)scale(0.996264)" xlink:href="#CMBX12-117"/>
      <use transform="translate(552.096508 0)scale(0.996264)" xlink:href="#CMBX12-114"/>
      <use transform="translate(597.874016 0)scale(0.996264)" xlink:href="#CMBX12-101"/>
     </g>
    </g>
   </g>
   <g id="matplotlib.axis_2">
    <g id="ytick_1">
     <g id="line2d_6">
      <defs>
       <path d="M 0 0 
L -3.5 0 
" id="ma999946228" style="stroke:#000000;stroke-width:0.8;"/>
      </defs>
      <g>
       <use style="stroke:#000000;stroke-width:0.8;" x="85.65682" xlink:href="#ma999946228" y="228.44192"/>
      </g>
     </g>
     <g id="text_7">
      <!-- $-0.4$ -->
      <defs>
       <path d="M 75.203125 22 
C 76.703125 22 79.703125 22 79.703125 25 
C 79.703125 28.09375 76.796875 28.09375 75.203125 28.09375 
L 14.09375 28.09375 
C 12.59375 28.09375 9.59375 28.09375 9.59375 25.09375 
C 9.59375 22 12.5 22 14.09375 22 
z
" id="CMBSY10-0"/>
       <path d="M 23.703125 7.765625 
C 23.703125 12.046875 20.203125 15.53125 15.90625 15.53125 
C 11.59375 15.53125 8.09375 12.046875 8.09375 7.765625 
C 8.09375 3.484375 11.59375 0 15.90625 0 
C 20.203125 0 23.703125 3.484375 23.703125 7.765625 
z
" id="CMMIB10-58"/>
       <path d="M 43.296875 15.71875 
L 53 15.71875 
L 53 20 
L 43.296875 20 
L 43.296875 62.609375 
C 43.296875 65.09375 43.203125 65.5 40.703125 65.5 
C 38.90625 65.5 38.703125 65.5 37.5 64 
L 3.09375 20 
L 3.09375 15.71875 
L 31.5 15.71875 
L 31.5 4.171875 
L 20.59375 4.171875 
L 20.59375 0 
C 23.5 0 33.40625 0 37 0 
C 40.40625 0 50.296875 0 53 -0.09375 
L 53 4.171875 
L 43.296875 4.171875 
z
M 32.40625 51.59375 
L 32.40625 20 
L 7.703125 20 
z
" id="CMBX12-52"/>
      </defs>
      <g transform="translate(36.55694 234.69192)scale(0.18 -0.18)">
       <use transform="translate(0 -0.049813)scale(0.996264)" xlink:href="#CMBSY10-0"/>
       <use transform="translate(89.109808 -0.049813)scale(0.996264)" xlink:href="#CMBX12-48"/>
       <use transform="translate(145.149659 -0.049813)scale(0.996264)" xlink:href="#CMMIB10-58"/>
       <use transform="translate(176.97459 -0.049813)scale(0.996264)" xlink:href="#CMBX12-52"/>
      </g>
     </g>
    </g>
    <g id="ytick_2">
     <g id="line2d_7">
      <g>
       <use style="stroke:#000000;stroke-width:0.8;" x="85.65682" xlink:href="#ma999946228" y="191.633485"/>
      </g>
     </g>
     <g id="text_8">
      <!-- $-0.2$ -->
      <g transform="translate(36.55694 197.883485)scale(0.18 -0.18)">
       <use transform="translate(0 -0.049813)scale(0.996264)" xlink:href="#CMBSY10-0"/>
       <use transform="translate(89.109808 -0.049813)scale(0.996264)" xlink:href="#CMBX12-48"/>
       <use transform="translate(145.149659 -0.049813)scale(0.996264)" xlink:href="#CMMIB10-58"/>
       <use transform="translate(176.97459 -0.049813)scale(0.996264)" xlink:href="#CMBX12-50"/>
      </g>
     </g>
    </g>
    <g id="ytick_3">
     <g id="line2d_8">
      <g>
       <use style="stroke:#000000;stroke-width:0.8;" x="85.65682" xlink:href="#ma999946228" y="154.82505"/>
      </g>
     </g>
     <g id="text_9">
      <!-- $0.0$ -->
      <g transform="translate(52.65685 161.07505)scale(0.18 -0.18)">
       <use transform="scale(0.996264)" xlink:href="#CMBX12-48"/>
       <use transform="translate(56.039851 0)scale(0.996264)" xlink:href="#CMMIB10-58"/>
       <use transform="translate(87.864782 0)scale(0.996264)" xlink:href="#CMBX12-48"/>
      </g>
     </g>
    </g>
    <g id="ytick_4">
     <g id="line2d_9">
      <g>
       <use style="stroke:#000000;stroke-width:0.8;" x="85.65682" xlink:href="#ma999946228" y="118.016616"/>
      </g>
     </g>
     <g id="text_10">
      <!-- $0.2$ -->
      <g transform="translate(52.65685 124.266616)scale(0.18 -0.18)">
       <use transform="scale(0.996264)" xlink:href="#CMBX12-48"/>
       <use transform="translate(56.039851 0)scale(0.996264)" xlink:href="#CMMIB10-58"/>
       <use transform="translate(87.864782 0)scale(0.996264)" xlink:href="#CMBX12-50"/>
      </g>
     </g>
    </g>
    <g id="ytick_5">
     <g id="line2d_10">
      <g>
       <use style="stroke:#000000;stroke-width:0.8;" x="85.65682" xlink:href="#ma999946228" y="81.208181"/>
      </g>
     </g>
     <g id="text_11">
      <!-- $0.4$ -->
      <g transform="translate(52.65685 87.458181)scale(0.18 -0.18)">
       <use transform="scale(0.996264)" xlink:href="#CMBX12-48"/>
       <use transform="translate(56.039851 0)scale(0.996264)" xlink:href="#CMMIB10-58"/>
       <use transform="translate(87.864782 0)scale(0.996264)" xlink:href="#CMBX12-52"/>
      </g>
     </g>
    </g>
    <g id="ytick_6">
     <g id="line2d_11">
      <g>
       <use style="stroke:#000000;stroke-width:0.8;" x="85.65682" xlink:href="#ma999946228" y="44.399746"/>
      </g>
     </g>
     <g id="text_12">
      <!-- $0.6$ -->
      <defs>
       <path d="M 17.40625 36.25 
C 17.40625 42.328125 17.703125 48.53125 20.5 53.90625 
C 22.703125 58.109375 27.796875 62 34.296875 62 
C 36.203125 62 39.796875 61.703125 42.203125 59.203125 
C 38.40625 58.8125 36.796875 56.015625 36.796875 53.3125 
C 36.796875 49.703125 39.5 47.40625 42.703125 47.40625 
C 45.296875 47.40625 48.59375 49.109375 48.59375 53.5 
C 48.59375 59.484375 44.59375 65.578125 34.09375 65.578125 
C 21.59375 65.578125 4.703125 57.796875 4.703125 31.796875 
C 4.703125 25.109375 4.703125 -1 28.40625 -1 
C 41.59375 -1 51.40625 6.765625 51.40625 20.703125 
C 51.40625 34.640625 41.703125 42 29.796875 42 
C 27.796875 42 21.40625 42 17.40625 33.546875 
z
M 28.296875 2.96875 
C 21.90625 2.96875 19.40625 8.34375 19 9.140625 
C 17.59375 12.4375 17.59375 20.40625 17.59375 21.296875 
C 17.59375 33.546875 22.90625 38.734375 28.796875 38.734375 
C 38.703125 38.734375 38.703125 30.765625 38.703125 20.796875 
C 38.703125 10.9375 38.703125 2.96875 28.296875 2.96875 
z
" id="CMBX12-54"/>
      </defs>
      <g transform="translate(52.65685 50.649746)scale(0.18 -0.18)">
       <use transform="scale(0.996264)" xlink:href="#CMBX12-48"/>
       <use transform="translate(56.039851 0)scale(0.996264)" xlink:href="#CMMIB10-58"/>
       <use transform="translate(87.864782 0)scale(0.996264)" xlink:href="#CMBX12-54"/>
      </g>
     </g>
    </g>
    <g id="text_13">
     <!-- \textbf{PCA Amplitude} -->
     <defs>
      <path d="M 84.40625 30.0625 
C 84.40625 39.15625 80.5 44.28125 69.296875 44.28125 
C 59.203125 44.28125 54.5 37.609375 52.90625 34.46875 
C 51.296875 42.8125 44.5 44.28125 38.09375 44.28125 
C 28.5 44.28125 23.296875 38.203125 21.203125 33.484375 
L 21.09375 33.484375 
L 21.09375 44 
L 4.203125 44 
L 4.203125 39.328125 
C 10.40625 39.328125 11.09375 39.328125 11.09375 35.46875 
L 11.09375 4.0625 
L 4.203125 4.0625 
L 4.203125 -0.203125 
C 6.5 0 13.703125 0 16.5 0 
C 19.296875 0 26.59375 0 28.90625 -0.203125 
L 28.90625 4.0625 
L 22 4.0625 
L 22 25.109375 
C 22 35.875 30.09375 41 36.40625 41 
C 40.09375 41 42.296875 38.828125 42.296875 31.140625 
L 42.296875 4.0625 
L 35.40625 4.0625 
L 35.40625 -0.203125 
C 37.703125 0 44.90625 0 47.703125 0 
C 50.5 0 57.796875 0 60.09375 -0.203125 
L 60.09375 4.0625 
L 53.203125 4.0625 
L 53.203125 25.109375 
C 53.203125 35.875 61.296875 41 67.59375 41 
C 71.296875 41 73.5 38.828125 73.5 31.140625 
L 73.5 4.0625 
L 66.59375 4.0625 
L 66.59375 -0.203125 
C 68.90625 0 76.09375 0 78.90625 0 
C 81.703125 0 89 0 91.296875 -0.203125 
L 91.296875 4.0625 
L 84.40625 4.0625 
z
" id="CMBX12-109"/>
      <path d="M 28.203125 -14.921875 
L 21.296875 -14.921875 
L 21.296875 4.1875 
C 23.796875 2 28.203125 -0.5 34.203125 -0.5 
C 47.90625 -0.5 58.59375 7.703125 58.59375 22.140625 
C 58.59375 35.78125 49.296875 44.578125 35.796875 44.578125 
C 29.90625 44.578125 24.796875 42.78125 20.796875 39.90625 
L 20.796875 44.671875 
L 3.5 44.671875 
L 3.5 40 
C 9.703125 40 10.40625 40 10.40625 36.09375 
L 10.40625 -14.921875 
L 3.5 -14.921875 
L 3.5 -19.1875 
C 5.796875 -19 13 -19 15.796875 -19 
C 18.59375 -19 25.90625 -19 28.203125 -19.1875 
z
M 21.296875 35.09375 
C 25 39.53125 30.296875 41 34.203125 41 
C 40.703125 41 46.59375 35.171875 46.59375 22.140625 
C 46.59375 7.8125 39.40625 2.78125 33 2.78125 
C 28.703125 2.78125 24.40625 4.984375 21.296875 9.6875 
z
" id="CMBX12-112"/>
      <path d="M 21.703125 69 
L 4.40625 69 
L 4.40625 64.328125 
C 10.59375 64.328125 11.296875 64.328125 11.296875 60.40625 
L 11.296875 4.0625 
L 4.40625 4.0625 
L 4.40625 -0.203125 
C 6.703125 0 13.796875 0 16.5 0 
C 19.203125 0 26.296875 0 28.59375 -0.203125 
L 28.59375 4.0625 
L 21.703125 4.0625 
z
" id="CMBX12-108"/>
      <path d="M 22.296875 61.84375 
C 22.296875 65.921875 19 69 15.09375 69 
C 11 69 7.90625 65.625 7.90625 61.84375 
C 7.90625 58.0625 11 54.6875 15.09375 54.6875 
C 19 54.6875 22.296875 57.765625 22.296875 61.84375 
z
M 4.703125 44 
L 4.703125 39.328125 
C 10.59375 39.328125 11.296875 39.328125 11.296875 35.46875 
L 11.296875 4.0625 
L 4.40625 4.0625 
L 4.40625 -0.203125 
C 6.703125 0 13.59375 0 16.296875 0 
C 19.09375 0 25.5 0 27.90625 -0.203125 
L 27.90625 4.0625 
L 21.703125 4.0625 
L 21.703125 44 
z
" id="CMBX12-105"/>
      <path d="M 34.703125 69 
L 34.703125 64.328125 
C 40.90625 64.328125 41.59375 64.328125 41.59375 60.421875 
L 41.59375 40.234375 
C 39.40625 42.125 35 45 28.09375 45 
C 13.90625 45 3.796875 36.21875 3.796875 22.25 
C 3.796875 7.96875 13.703125 -0.5 27 -0.5 
C 32.5 -0.5 37.203125 1.46875 41.09375 4.859375 
L 41.09375 0 
L 58.90625 0 
L 58.90625 4.5625 
C 52.703125 4.5625 52 4.5625 52 8.4375 
L 52 69 
z
M 41.09375 10.328125 
C 36.90625 4.09375 31.796875 2.78125 28.203125 2.78125 
C 15.796875 2.78125 15.796875 15.453125 15.796875 22.046875 
C 15.796875 26.75 15.796875 31.75 18 35.53125 
C 21.09375 41.125 27 41.71875 29.296875 41.71875 
C 33.40625 41.71875 37.796875 39.9375 41.09375 35.5625 
z
" id="CMBX12-100"/>
     </defs>
     <g transform="translate(27.27777 208.6984)rotate(-90)scale(0.22 -0.22)">
      <use transform="translate(0 -0.072648)scale(0.996264)" xlink:href="#CMBX12-80"/>
      <use transform="translate(76.564811 -0.072648)scale(0.996264)" xlink:href="#CMBX12-67"/>
      <use transform="translate(157.511261 -0.072648)scale(0.996264)" xlink:href="#CMBX12-65"/>
      <use transform="translate(279.507557 -0.072648)scale(0.996264)" xlink:href="#CMBX12-65"/>
      <use transform="translate(364.143951 -0.072648)scale(0.996264)" xlink:href="#CMBX12-109"/>
      <use transform="translate(457.543702 -0.072648)scale(0.996264)" xlink:href="#CMBX12-112"/>
      <use transform="translate(519.810203 -0.072648)scale(0.996264)" xlink:href="#CMBX12-108"/>
      <use transform="translate(550.943453 -0.072648)scale(0.996264)" xlink:href="#CMBX12-105"/>
      <use transform="translate(582.076703 -0.072648)scale(0.996264)" xlink:href="#CMBX12-116"/>
      <use transform="translate(625.663254 -0.072648)scale(0.996264)" xlink:href="#CMBX12-117"/>
      <use transform="translate(687.929754 -0.072648)scale(0.996264)" xlink:href="#CMBX12-100"/>
      <use transform="translate(750.196255 -0.072648)scale(0.996264)" xlink:href="#CMBX12-101"/>
     </g>
    </g>
   </g>
   <g id="line2d_12">
    <path clip-path="url(#p1c2f109de7)" d="M 85.65682 51.34106 
L 111.201593 176.69345 
L 136.746365 181.808967 
L 162.291138 143.066566 
L 187.835911 119.589351 
L 213.380683 144.665079 
L 238.925456 111.205644 
L 264.470229 130.800801 
L 290.015001 181.914811 
L 315.559774 187.271152 
L 341.104547 150.966938 
L 366.649319 163.266307 
L 392.194092 169.510631 
L 417.738865 140.328113 
L 443.283637 185.273367 
L 468.82841 151.88057 
L 494.373183 116.41457 
L 519.917955 154.500041 
L 545.462728 132.974359 
L 571.007501 156.325247 
L 596.552273 144.057659 
L 622.097046 158.510599 
L 647.641819 137.601018 
L 673.186591 153.002083 
L 698.731364 157.693527 
L 724.276137 152.68434 
L 749.820909 155.866168 
L 775.365682 145.443077 
L 800.910455 151.707325 
L 826.455227 158.438989 
L 852 159.746697 
" style="fill:none;stroke:#e41a1c;stroke-linecap:square;stroke-width:2;"/>
   </g>
   <g id="line2d_13">
    <path clip-path="url(#p1c2f109de7)" d="M 85.65682 28.582891 
L 111.201593 174.413764 
L 136.746365 194.411803 
L 162.291138 89.641812 
L 187.835911 170.174344 
L 213.380683 144.47958 
L 238.925456 105.677504 
L 264.470229 133.91941 
L 290.015001 179.431899 
L 315.559774 174.524266 
L 341.104547 144.754279 
L 366.649319 149.613461 
L 392.194092 157.10083 
L 417.738865 141.541635 
L 443.283637 180.551917 
L 468.82841 149.224111 
L 494.373183 147.161731 
L 519.917955 158.293571 
L 545.462728 180.48124 
L 571.007501 144.954938 
L 596.552273 160.549121 
L 622.097046 150.988342 
L 647.641819 147.195102 
L 673.186591 148.895814 
L 698.731364 150.743509 
L 724.276137 156.427557 
L 749.820909 146.717868 
L 775.365682 157.369366 
L 800.910455 161.353137 
L 826.455227 151.831302 
L 852 149.923371 
" style="fill:none;stroke:#377eb8;stroke-dasharray:7.4,3.2;stroke-dashoffset:0;stroke-linecap:round;stroke-width:2;"/>
   </g>
   <g id="patch_3">
    <path d="M 85.65682 228.44192 
L 85.65682 12 
" style="fill:none;stroke:#000000;stroke-linecap:square;stroke-linejoin:miter;stroke-width:0.8;"/>
   </g>
   <g id="patch_4">
    <path d="M 852 228.44192 
L 852 12 
" style="fill:none;"/>
   </g>
   <g id="patch_5">
    <path d="M 85.65682 228.44192 
L 852 228.44192 
" style="fill:none;stroke:#000000;stroke-linecap:square;stroke-linejoin:miter;stroke-width:0.8;"/>
   </g>
   <g id="patch_6">
    <path d="M 85.65682 12 
L 852 12 
" style="fill:none;"/>
   </g>
   <g id="legend_1">
    <g id="patch_7">
     <path d="M 574.86661 40.7111 
L 847.2 40.7111 
Q 850.4 40.7111 850.4 37.5111 
L 850.4 16.8 
Q 850.4 13.6 847.2 13.6 
L 574.86661 13.6 
Q 571.66661 13.6 571.66661 16.8 
L 571.66661 37.5111 
Q 571.66661 40.7111 574.86661 40.7111 
z
" style="fill:none;opacity:0;"/>
    </g>
    <g id="line2d_14">
     <path d="M 578.06661 25.6 
L 610.06661 25.6 
" style="fill:none;stroke:#e41a1c;stroke-linecap:square;stroke-width:2;"/>
    </g>
    <g id="line2d_15"/>
    <g id="text_14">
     <!-- \textbf{Healthy} -->
     <defs>
      <path d="M 73.5 63.828125 
L 84.09375 63.828125 
L 84.09375 68 
C 81.203125 68 70.5 68 66.90625 68 
C 63.296875 68 52.59375 68 49.703125 68 
L 49.703125 63.828125 
L 60.296875 63.828125 
L 60.296875 37.265625 
L 27.59375 37.265625 
L 27.59375 63.828125 
L 38.203125 63.828125 
L 38.203125 68 
C 35.296875 68 24.59375 68 21 68 
C 17.40625 68 6.703125 68 3.796875 68 
L 3.796875 63.828125 
L 14.40625 63.828125 
L 14.40625 4.171875 
L 3.796875 4.171875 
L 3.796875 0 
C 6.703125 0 17.40625 0 21 0 
C 24.59375 0 35.296875 0 38.203125 0 
L 38.203125 4.171875 
L 27.59375 4.171875 
L 27.59375 33 
L 60.296875 33 
L 60.296875 4.171875 
L 49.703125 4.171875 
L 49.703125 0 
C 52.59375 0 63.296875 0 66.90625 0 
C 70.5 0 81.203125 0 84.09375 0 
L 84.09375 4.171875 
L 73.5 4.171875 
z
" id="CMBX12-72"/>
      <path d="M 53.09375 30.0625 
C 53.09375 39.453125 49 44.28125 38 44.28125 
C 27.90625 44.28125 23 37.25 21.59375 34.28125 
L 21.5 34.28125 
L 21.5 69 
L 4.203125 69 
L 4.203125 64.328125 
C 10.40625 64.328125 11.09375 64.328125 11.09375 60.28125 
L 11.09375 4.0625 
L 4.203125 4.0625 
L 4.203125 -0.203125 
C 6.5 0 13.703125 0 16.5 0 
C 19.296875 0 26.59375 0 28.90625 -0.203125 
L 28.90625 4.0625 
L 22 4.0625 
L 22 25.109375 
C 22 35.765625 30 41 36.40625 41 
C 40.09375 41 42.203125 38.640625 42.203125 31.140625 
L 42.203125 4.0625 
L 35.296875 4.0625 
L 35.296875 -0.203125 
C 37.59375 0 44.796875 0 47.59375 0 
C 50.40625 0 57.703125 0 60 -0.203125 
L 60 4.0625 
L 53.09375 4.0625 
z
" id="CMBX12-104"/>
      <path d="M 49.5 37.828125 
C 50.09375 39.203125 50.5 40 56.90625 40 
L 56.90625 44.171875 
C 53.5 44.171875 53.09375 44.171875 49 44.171875 
C 46.296875 44.171875 46.09375 44.171875 40.40625 44.171875 
L 40.40625 40 
C 40.5 40 45.203125 40 45.203125 38.71875 
C 45.203125 38.421875 44.90625 37.828125 44.796875 37.53125 
L 33.09375 12.578125 
L 20.296875 40 
L 25.796875 40 
L 25.796875 44.265625 
C 23.40625 44.171875 16.59375 44.171875 13.796875 44.171875 
C 10.90625 44.171875 5 44.171875 2.40625 44.265625 
L 2.40625 40 
L 8.796875 40 
L 27.296875 0.3125 
C 26.796875 -0.875 25.40625 -3.75 24.90625 -4.9375 
C 22.796875 -9.390625 19.59375 -16.21875 12.59375 -16.21875 
C 12.203125 -16.21875 11 -16.21875 9.90625 -15.625 
C 10.09375 -15.515625 13.09375 -14.328125 13.09375 -10.5625 
C 13.09375 -7.3125 10.703125 -5.234375 7.703125 -5.234375 
C 4.59375 -5.234375 2.203125 -7.328125 2.203125 -10.6875 
C 2.203125 -15.34375 6.59375 -19.5 12.59375 -19.5 
C 20.796875 -19.5 26.203125 -12.171875 28.203125 -7.8125 
z
" id="CMBX12-121"/>
     </defs>
     <g transform="translate(622.86661 31.2)scale(0.16 -0.16)">
      <use transform="translate(0 -0.072648)scale(0.996264)" xlink:href="#CMBX12-72"/>
      <use transform="translate(87.634475 -0.072648)scale(0.996264)" xlink:href="#CMBX12-101"/>
      <use transform="translate(138.773742 -0.072648)scale(0.996264)" xlink:href="#CMBX12-97"/>
      <use transform="translate(193.25693 -0.072648)scale(0.996264)" xlink:href="#CMBX12-108"/>
      <use transform="translate(224.39018 -0.072648)scale(0.996264)" xlink:href="#CMBX12-116"/>
      <use transform="translate(267.976731 -0.072648)scale(0.996264)" xlink:href="#CMBX12-104"/>
      <use transform="translate(327.129907 -0.072648)scale(0.996264)" xlink:href="#CMBX12-121"/>
     </g>
    </g>
    <g id="line2d_16">
     <path d="M 717.15367 25.6 
L 749.15367 25.6 
" style="fill:none;stroke:#377eb8;stroke-dasharray:7.4,3.2;stroke-dashoffset:0;stroke-linecap:round;stroke-width:2;"/>
    </g>
    <g id="line2d_17"/>
    <g id="text_15">
     <!-- \textbf{Unhealthy} -->
     <defs>
      <path d="M 72 61.109375 
C 72 63.296875 72.09375 63.40625 74.703125 63.796875 
C 76.5 64 78.5 64 80.296875 64 
L 82.59375 64 
L 82.59375 68.375 
C 80.296875 68.171875 72.5 68.171875 69.703125 68.171875 
C 66.90625 68.171875 59.09375 68.171875 56.796875 68.375 
L 56.796875 64 
L 59.09375 64 
C 61.796875 64 62 64 64.40625 63.703125 
C 67.296875 63.3125 67.40625 63.203125 67.40625 61.015625 
L 67.40625 23.21875 
C 67.40625 9.03125 57.296875 3.265625 45.5 3.265625 
C 28 3.265625 27.59375 16.5625 27.59375 22.328125 
L 27.59375 64 
L 38.203125 64 
L 38.203125 68.171875 
C 35.296875 68.171875 24.59375 68.171875 21 68.171875 
C 17.40625 68.171875 6.703125 68.171875 3.796875 68.171875 
L 3.796875 64 
L 14.40625 64 
L 14.40625 23.015625 
C 14.40625 9.90625 25 -1 45.09375 -1 
C 63.59375 -1 72 10.421875 72 22.953125 
z
" id="CMBX12-85"/>
      <path d="M 53.09375 30.0625 
C 53.09375 39.453125 49 44.28125 38 44.28125 
C 30.796875 44.28125 24.59375 40.859375 21.203125 33.484375 
L 21.09375 33.484375 
L 21.09375 44 
L 4.203125 44 
L 4.203125 39.328125 
C 10.40625 39.328125 11.09375 39.328125 11.09375 35.46875 
L 11.09375 4.0625 
L 4.203125 4.0625 
L 4.203125 -0.203125 
C 6.5 0 13.703125 0 16.5 0 
C 19.296875 0 26.59375 0 28.90625 -0.203125 
L 28.90625 4.0625 
L 22 4.0625 
L 22 25.109375 
C 22 35.765625 30 41 36.40625 41 
C 40.09375 41 42.203125 38.640625 42.203125 31.140625 
L 42.203125 4.0625 
L 35.296875 4.0625 
L 35.296875 -0.203125 
C 37.59375 0 44.796875 0 47.59375 0 
C 50.40625 0 57.703125 0 60 -0.203125 
L 60 4.0625 
L 53.09375 4.0625 
z
" id="CMBX12-110"/>
     </defs>
     <g transform="translate(761.95367 31.2)scale(0.16 -0.16)">
      <use transform="translate(0 -0.072648)scale(0.996264)" xlink:href="#CMBX12-85"/>
      <use transform="translate(86.135473 -0.072648)scale(0.996264)" xlink:href="#CMBX12-110"/>
      <use transform="translate(148.401973 -0.072648)scale(0.996264)" xlink:href="#CMBX12-104"/>
      <use transform="translate(210.668474 -0.072648)scale(0.996264)" xlink:href="#CMBX12-101"/>
      <use transform="translate(261.807741 -0.072648)scale(0.996264)" xlink:href="#CMBX12-97"/>
      <use transform="translate(316.290929 -0.072648)scale(0.996264)" xlink:href="#CMBX12-108"/>
      <use transform="translate(347.42418 -0.072648)scale(0.996264)" xlink:href="#CMBX12-116"/>
      <use transform="translate(391.01073 -0.072648)scale(0.996264)" xlink:href="#CMBX12-104"/>
      <use transform="translate(450.163906 -0.072648)scale(0.996264)" xlink:href="#CMBX12-121"/>
     </g>
    </g>
   </g>
  </g>
 </g>
 <defs>
  <clipPath id="p1c2f109de7">
   <rect height="216.44192" width="766.34318" x="85.65682" y="12"/>
  </clipPath>
 </defs>
</svg>
