<?xml version="1.0" encoding="utf-8" standalone="no"?>
<!DOCTYPE svg PUBLIC "-//W3C//DTD SVG 1.1//EN"
  "http://www.w3.org/Graphics/SVG/1.1/DTD/svg11.dtd">
<!-- Created with matplotlib (https://matplotlib.org/) -->
<svg height="288pt" version="1.1" viewBox="0 0 864 288" width="864pt" xmlns="http://www.w3.org/2000/svg" xmlns:xlink="http://www.w3.org/1999/xlink">
 <defs>
  <style type="text/css">
*{stroke-linecap:butt;stroke-linejoin:round;}
  </style>
 </defs>
 <g id="figure_1">
  <g id="patch_1">
   <path d="M 0 288 
L 864 288 
L 864 0 
L 0 0 
z
" style="fill:#ffffff;"/>
  </g>
  <g id="axes_1">
   <g id="patch_2">
    <path d="M 69.55691 228.44192 
L 852 228.44192 
L 852 12 
L 69.55691 12 
z
" style="fill:#ffffff;"/>
   </g>
   <g id="matplotlib.axis_1">
    <g id="xtick_1">
     <g id="line2d_1">
      <defs>
       <path d="M 0 0 
L 0 3.5 
" id="m908174dd58" style="stroke:#000000;stroke-width:0.8;"/>
      </defs>
      <g>
       <use style="stroke:#000000;stroke-width:0.8;" x="177.517323" xlink:href="#m908174dd58" y="228.44192"/>
      </g>
     </g>
     <g id="text_1">
      <!-- $0.5$ -->
      <defs>
       <path d="M 51.703125 31.84375 
C 51.703125 41.375 51.703125 65.28125 28.09375 65.28125 
C 4.40625 65.28125 4.40625 41.46875 4.40625 31.84375 
C 4.40625 22.3125 4.40625 -1 28 -1 
C 51.59375 -1 51.703125 22.015625 51.703125 31.84375 
z
M 28.09375 2.28125 
C 24.90625 2.28125 22.5 3.5625 20.5 5.65625 
C 18 8.140625 16.40625 9.703125 16.40625 33.03125 
C 16.40625 39.984375 16.40625 46.3125 17.203125 51.484375 
C 18.59375 61.3125 25.796875 62 28 62 
C 31.203125 62 37.40625 60.515625 38.796875 52.1875 
C 39.703125 47.109375 39.703125 39.078125 39.703125 33.03125 
C 39.703125 9.609375 38.203125 8.234375 35.203125 5.25 
C 33.203125 3.265625 30.5 2.28125 28.09375 2.28125 
z
" id="CMBX12-48"/>
       <path d="M 23.703125 7.765625 
C 23.703125 12.046875 20.203125 15.53125 15.90625 15.53125 
C 11.59375 15.53125 8.09375 12.046875 8.09375 7.765625 
C 8.09375 3.484375 11.59375 0 15.90625 0 
C 20.203125 0 23.703125 3.484375 23.703125 7.765625 
z
" id="CMMIB10-58"/>
       <path d="M 15.40625 51.796875 
C 18.796875 51 21.5 51 23 51 
C 25.40625 51 31.09375 51 37.796875 55.109375 
C 40.90625 56.984375 46.09375 61.5 46.09375 63.796875 
C 46.09375 64.296875 46.09375 65.5 44.90625 65.5 
C 44.796875 65.5 44.59375 65.5 43.59375 64.984375 
C 39 63.34375 34.09375 62.21875 28.5 62.21875 
C 22.796875 62.21875 18 63.3125 13.296875 65 
C 12.59375 65.203125 12.296875 65.40625 12 65.40625 
C 10.796875 65.40625 10.796875 64.40625 10.796875 62.71875 
L 10.796875 33.796875 
C 10.796875 31.90625 10.796875 30.8125 12.796875 30.8125 
C 13.796875 30.8125 14 30.921875 14.796875 31.90625 
C 16 33.3125 19.59375 37.71875 28.09375 37.71875 
C 37.296875 37.71875 37.296875 28.359375 37.296875 20.5 
C 37.296875 13.3125 37.296875 2.96875 25 2.96875 
C 21.296875 2.96875 15 4.359375 11.59375 10 
C 16.90625 10 18.203125 13.984375 18.203125 16.171875 
C 18.203125 19.75 15.59375 22.421875 11.90625 22.421875 
C 8.90625 22.421875 5.59375 20.640625 5.59375 15.96875 
C 5.59375 7.34375 13.5 -1 25.40625 -1 
C 40.796875 -1 50.5 7.859375 50.5 20.203125 
C 50.5 32.34375 42.203125 41 28.5 41 
C 24.5 41 19.703125 40.203125 15.40625 37.015625 
z
" id="CMBX12-53"/>
      </defs>
      <g transform="translate(164.517338 247.94192)scale(0.18 -0.18)">
       <use transform="scale(0.996264)" xlink:href="#CMBX12-48"/>
       <use transform="translate(56.039851 0)scale(0.996264)" xlink:href="#CMMIB10-58"/>
       <use transform="translate(87.864782 0)scale(0.996264)" xlink:href="#CMBX12-53"/>
      </g>
     </g>
    </g>
    <g id="xtick_2">
     <g id="line2d_2">
      <g>
       <use style="stroke:#000000;stroke-width:0.8;" x="312.467838" xlink:href="#m908174dd58" y="228.44192"/>
      </g>
     </g>
     <g id="text_2">
      <!-- $1.0$ -->
      <defs>
       <path d="M 34.59375 62.109375 
C 34.59375 65 34.40625 65 31.203125 65 
C 23.796875 59 12.703125 59 10.5 59 
L 8.59375 59 
L 8.59375 54.734375 
L 10.5 54.734375 
C 14 54.734375 19.296875 55.328125 23.296875 56.625 
L 23.296875 4.171875 
L 9.40625 4.171875 
L 9.40625 0 
C 13.59375 0 24.09375 0 28.796875 0 
C 33.5 0 44.09375 0 48.296875 0 
L 48.296875 4.171875 
L 34.59375 4.171875 
z
" id="CMBX12-49"/>
      </defs>
      <g transform="translate(299.467853 247.94192)scale(0.18 -0.18)">
       <use transform="scale(0.996264)" xlink:href="#CMBX12-49"/>
       <use transform="translate(56.039851 0)scale(0.996264)" xlink:href="#CMMIB10-58"/>
       <use transform="translate(87.864782 0)scale(0.996264)" xlink:href="#CMBX12-48"/>
      </g>
     </g>
    </g>
    <g id="xtick_3">
     <g id="line2d_3">
      <g>
       <use style="stroke:#000000;stroke-width:0.8;" x="447.418354" xlink:href="#m908174dd58" y="228.44192"/>
      </g>
     </g>
     <g id="text_3">
      <!-- $1.5$ -->
      <g transform="translate(434.418369 247.94192)scale(0.18 -0.18)">
       <use transform="scale(0.996264)" xlink:href="#CMBX12-49"/>
       <use transform="translate(56.039851 0)scale(0.996264)" xlink:href="#CMMIB10-58"/>
       <use transform="translate(87.864782 0)scale(0.996264)" xlink:href="#CMBX12-53"/>
      </g>
     </g>
    </g>
    <g id="xtick_4">
     <g id="line2d_4">
      <g>
       <use style="stroke:#000000;stroke-width:0.8;" x="582.36887" xlink:href="#m908174dd58" y="228.44192"/>
      </g>
     </g>
     <g id="text_4">
      <!-- $2.0$ -->
      <defs>
       <path d="M 50.5 21.375 
L 46.296875 21.375 
C 46 19.28125 45.296875 13.40625 43.796875 12.421875 
C 43 11.71875 35.203125 11.71875 33.703125 11.71875 
L 18.203125 11.71875 
C 22 14.90625 31.09375 22.46875 32.59375 23.578125 
C 43.703125 31.84375 50.5 36.90625 50.5 46.46875 
C 50.5 58.203125 39.796875 65.28125 26.59375 65.28125 
C 15.296875 65.28125 5.59375 58.90625 5.59375 49.453125 
C 5.59375 44.171875 9.90625 42.6875 12.203125 42.6875 
C 15.296875 42.6875 18.90625 44.765625 18.90625 49.359375 
C 18.90625 53.546875 15.796875 55.625 12.703125 56.03125 
C 16.703125 60.609375 22 61 24.09375 61 
C 33.296875 61 37.703125 53.546875 37.703125 46.375 
C 37.703125 38.609375 32.40625 31.453125 28.296875 27.171875 
L 6.59375 4.578125 
C 5.59375 3.671875 5.59375 3.484375 5.59375 1.6875 
L 5.59375 0 
L 47.59375 0 
z
" id="CMBX12-50"/>
      </defs>
      <g transform="translate(569.368885 247.94192)scale(0.18 -0.18)">
       <use transform="scale(0.996264)" xlink:href="#CMBX12-50"/>
       <use transform="translate(56.039851 0)scale(0.996264)" xlink:href="#CMMIB10-58"/>
       <use transform="translate(87.864782 0)scale(0.996264)" xlink:href="#CMBX12-48"/>
      </g>
     </g>
    </g>
    <g id="xtick_5">
     <g id="line2d_5">
      <g>
       <use style="stroke:#000000;stroke-width:0.8;" x="717.319385" xlink:href="#m908174dd58" y="228.44192"/>
      </g>
     </g>
     <g id="text_5">
      <!-- $2.5$ -->
      <g transform="translate(704.3194 247.94192)scale(0.18 -0.18)">
       <use transform="scale(0.996264)" xlink:href="#CMBX12-50"/>
       <use transform="translate(56.039851 0)scale(0.996264)" xlink:href="#CMMIB10-58"/>
       <use transform="translate(87.864782 0)scale(0.996264)" xlink:href="#CMBX12-53"/>
      </g>
     </g>
    </g>
    <g id="text_6">
     <!-- \textbf{Z Statistic} -->
     <defs>
      <path d="M 61.59375 63.6875 
C 62.40625 64.890625 62.40625 65.390625 62.40625 66.09375 
C 62.40625 68.28125 61.59375 68.28125 59.5 68.28125 
L 8.90625 68.28125 
L 7.796875 44.6875 
L 12 44.6875 
C 12.796875 58.828125 20.40625 64 33.40625 64 
L 47 64 
L 7 4.78125 
C 6.203125 3.578125 6.203125 3.171875 6.203125 2.28125 
C 6.203125 0 6.90625 0 9.09375 0 
L 61.296875 0 
L 63 27.765625 
L 58.796875 27.765625 
C 58 16.109375 56.09375 4.5625 36.203125 4.5625 
L 21.59375 4.5625 
z
" id="CMBX12-90"/>
      <path d="M 25.40625 43.46875 
C 15.5 45.625 15.203125 52.75 15.203125 54.140625 
C 15.203125 59.171875 18.5 65.03125 28.203125 65.03125 
C 37.90625 65.03125 46.59375 60.359375 48.703125 47.34375 
C 49 45.25 49 45.25 50.90625 45.25 
C 53 45.25 53 45.546875 53 47.8125 
L 53 66.4375 
C 53 68.3125 53 69.015625 51.5 69.015625 
C 50.796875 69.015625 50.5 68.921875 49.59375 67.921875 
L 45.296875 63.046875 
C 42.796875 65.140625 37.796875 69 28.09375 69 
C 13.796875 69 6.203125 60.09375 6.203125 49.3125 
C 6.203125 42.6875 9.796875 38.03125 11.203125 36.640625 
C 16.40625 31.5 19.203125 30.90625 29.59375 28.625 
C 39.59375 26.453125 40.796875 26.25 43 24.1875 
C 44.296875 22.890625 47.203125 20.125 47.203125 15.078125 
C 47.203125 10.8125 45.09375 3 33.90625 3 
C 25.09375 3 11.203125 5.96875 10.40625 20.421875 
C 10.296875 22.203125 10.296875 22.5 8.296875 22.5 
C 6.203125 22.5 6.203125 22.203125 6.203125 19.921875 
L 6.203125 1.296875 
C 6.203125 -0.59375 6.203125 -1.28125 7.703125 -1.28125 
C 8.40625 -1.28125 8.5 -1.1875 9.5 -0.296875 
C 10.59375 0.796875 11.5 2.09375 14 4.578125 
C 19.796875 0.015625 28 -1.265625 34 -1.265625 
C 49.59375 -1.265625 56.203125 9.21875 56.203125 19.71875 
C 56.203125 29 50 37.90625 39.09375 40.375 
z
" id="CMBX12-83"/>
      <path d="M 21.09375 40 
L 35.5 40 
L 35.5 44.265625 
L 21.09375 44.265625 
L 21.09375 63 
L 16.90625 63 
C 16.796875 53.203125 12 43.375 2.09375 43.375 
L 2.09375 40 
L 10.203125 40 
L 10.203125 12.328125 
C 10.203125 1.78125 18.40625 -0.5 25.59375 -0.5 
C 33 -0.5 37.40625 5.078125 37.40625 12.421875 
L 37.40625 17.703125 
L 33.203125 17.703125 
L 33.203125 12.53125 
C 33.203125 5.953125 30.203125 3.078125 27.09375 3.078125 
C 21.09375 3.078125 21.09375 9.75 21.09375 12.03125 
z
" id="CMBX12-116"/>
      <path d="M 46 29.65625 
C 46 38.8125 38.703125 44.984375 24.59375 44.984375 
C 19 44.984375 7.203125 44.984375 7.203125 36.46875 
C 7.203125 32.203125 10.40625 30.390625 13.09375 30.390625 
C 16.09375 30.390625 19 32.484375 19 36.296875 
C 19 38.203125 18.296875 39.984375 16.59375 41.09375 
C 19.90625 42 22.296875 42 24.203125 42 
C 31 42 35.09375 38.203125 35.09375 29.984375 
L 35.09375 25.984375 
C 19.296875 25.984375 3.40625 21.59375 3.40625 10.5625 
C 3.40625 1.484375 15 -0.5 21.90625 -0.5 
C 29.59375 -0.5 34.5 3.640625 36.5 7.96875 
C 36.5 4.28125 36.5 0 46.59375 0 
L 51.703125 0 
C 53.796875 0 54.59375 0 54.59375 2.265625 
C 54.59375 4.265625 53.703125 4.265625 52.296875 4.265625 
C 46 4.265625 46 5.84375 46 8.15625 
z
M 35.09375 13.78125 
C 35.09375 4.546875 26.703125 2.78125 23.5 2.78125 
C 18.59375 2.78125 14.5 6.09375 14.5 10.71875 
C 14.5 19.890625 25.296875 23 35.09375 23 
z
" id="CMBX12-97"/>
      <path d="M 22.296875 61.84375 
C 22.296875 65.921875 19 69 15.09375 69 
C 11 69 7.90625 65.625 7.90625 61.84375 
C 7.90625 58.0625 11 54.6875 15.09375 54.6875 
C 19 54.6875 22.296875 57.765625 22.296875 61.84375 
z
M 4.703125 44 
L 4.703125 39.328125 
C 10.59375 39.328125 11.296875 39.328125 11.296875 35.46875 
L 11.296875 4.0625 
L 4.40625 4.0625 
L 4.40625 -0.203125 
C 6.703125 0 13.59375 0 16.296875 0 
C 19.09375 0 25.5 0 27.90625 -0.203125 
L 27.90625 4.0625 
L 21.703125 4.0625 
L 21.703125 44 
z
" id="CMBX12-105"/>
      <path d="M 37.703125 42.421875 
C 37.703125 44.3125 37.703125 45 36.203125 45 
C 35.59375 45 35.40625 45 33.90625 44.109375 
C 33.5 43.8125 32.40625 43.109375 31.90625 42.8125 
C 29.09375 44.40625 25.40625 45 21.796875 45 
C 18.796875 45 3.796875 45 3.796875 32.125 
C 3.796875 21.703125 16.203125 19.53125 19.296875 19.03125 
C 22 18.546875 25.296875 17.9375 25.703125 17.9375 
C 29.703125 17.046875 33.703125 14.5625 33.703125 10.40625 
C 33.703125 2.78125 24.59375 2.78125 22.5 2.78125 
C 17.40625 2.78125 11.09375 4.359375 8.296875 14 
C 7.703125 15.984375 7.59375 15.984375 5.90625 15.984375 
C 3.796875 15.984375 3.796875 15.6875 3.796875 13.40625 
L 3.796875 2.0625 
C 3.796875 0.1875 3.796875 -0.5 5.296875 -0.5 
C 6 -0.5 6.203125 -0.5 8.203125 1.09375 
L 10.796875 2.984375 
C 15.296875 -0.5 20.703125 -0.5 22.5 -0.5 
C 28 -0.5 40.5 0.6875 40.5 13.875 
C 40.5 18.625 37.90625 21.90625 35.90625 23.6875 
C 31.796875 27.046875 28.40625 27.65625 23 28.640625 
C 16.59375 29.734375 10.59375 30.828125 10.59375 35.578125 
C 10.59375 42.015625 19.5 42.015625 21.59375 42.015625 
C 32.703125 42.015625 33.296875 35.078125 33.5 32.609375 
C 33.59375 31.328125 34.40625 31.328125 35.59375 31.328125 
C 37.703125 31.328125 37.703125 31.625 37.703125 33.90625 
z
" id="CMBX12-115"/>
      <path d="M 46.796875 11.765625 
C 46.796875 12.953125 45.703125 12.953125 44.703125 12.953125 
C 43.09375 12.953125 43 12.859375 42.5 11.671875 
C 41.796875 9.765625 39.09375 3.078125 29.90625 3.078125 
C 15.796875 3.078125 15.796875 18.21875 15.796875 22.703125 
C 15.796875 28.578125 15.90625 41.625 29 41.625 
C 29.703125 41.625 35.59375 41.625 35.59375 41.125 
C 35.59375 41 35.5 40.90625 35.296875 40.8125 
C 35 40.515625 33.703125 39 33.703125 36.46875 
C 33.703125 32.25 37.09375 30.53125 39.59375 30.53125 
C 41.703125 30.53125 45.5 31.859375 45.5 36.65625 
C 45.5 45 34 45 28.59375 45 
C 10.796875 45 3.796875 33.515625 3.796875 22.09375 
C 3.796875 8.625 13.296875 -0.5 28 -0.5 
C 43.703125 -0.5 46.796875 11.0625 46.796875 11.765625 
z
" id="CMBX12-99"/>
     </defs>
     <g transform="translate(404.506565 271.72083)scale(0.22 -0.22)">
      <use transform="scale(0.996264)" xlink:href="#CMBX12-90"/>
      <use transform="translate(105.853051 0)scale(0.996264)" xlink:href="#CMBX12-83"/>
      <use transform="translate(168.119552 0)scale(0.996264)" xlink:href="#CMBX12-116"/>
      <use transform="translate(211.706102 0)scale(0.996264)" xlink:href="#CMBX12-97"/>
      <use transform="translate(266.18929 0)scale(0.996264)" xlink:href="#CMBX12-116"/>
      <use transform="translate(309.775841 0)scale(0.996264)" xlink:href="#CMBX12-105"/>
      <use transform="translate(340.909091 0)scale(0.996264)" xlink:href="#CMBX12-115"/>
      <use transform="translate(385.118428 0)scale(0.996264)" xlink:href="#CMBX12-116"/>
      <use transform="translate(428.704978 0)scale(0.996264)" xlink:href="#CMBX12-105"/>
      <use transform="translate(459.838229 0)scale(0.996264)" xlink:href="#CMBX12-99"/>
     </g>
    </g>
   </g>
   <g id="matplotlib.axis_2">
    <g id="ytick_1">
     <g id="line2d_6">
      <defs>
       <path d="M 0 0 
L -3.5 0 
" id="m9b89487d1c" style="stroke:#000000;stroke-width:0.8;"/>
      </defs>
      <g>
       <use style="stroke:#000000;stroke-width:0.8;" x="69.55691" xlink:href="#m9b89487d1c" y="228.44192"/>
      </g>
     </g>
     <g id="text_7">
      <!-- $0.4$ -->
      <defs>
       <path d="M 43.296875 15.71875 
L 53 15.71875 
L 53 20 
L 43.296875 20 
L 43.296875 62.609375 
C 43.296875 65.09375 43.203125 65.5 40.703125 65.5 
C 38.90625 65.5 38.703125 65.5 37.5 64 
L 3.09375 20 
L 3.09375 15.71875 
L 31.5 15.71875 
L 31.5 4.171875 
L 20.59375 4.171875 
L 20.59375 0 
C 23.5 0 33.40625 0 37 0 
C 40.40625 0 50.296875 0 53 -0.09375 
L 53 4.171875 
L 43.296875 4.171875 
z
M 32.40625 51.59375 
L 32.40625 20 
L 7.703125 20 
z
" id="CMBX12-52"/>
      </defs>
      <g transform="translate(36.55694 234.69192)scale(0.18 -0.18)">
       <use transform="scale(0.996264)" xlink:href="#CMBX12-48"/>
       <use transform="translate(56.039851 0)scale(0.996264)" xlink:href="#CMMIB10-58"/>
       <use transform="translate(87.864782 0)scale(0.996264)" xlink:href="#CMBX12-52"/>
      </g>
     </g>
    </g>
    <g id="ytick_2">
     <g id="line2d_7">
      <g>
       <use style="stroke:#000000;stroke-width:0.8;" x="69.55691" xlink:href="#m9b89487d1c" y="195.089714"/>
      </g>
     </g>
     <g id="text_8">
      <!-- $0.5$ -->
      <g transform="translate(36.55694 201.339714)scale(0.18 -0.18)">
       <use transform="scale(0.996264)" xlink:href="#CMBX12-48"/>
       <use transform="translate(56.039851 0)scale(0.996264)" xlink:href="#CMMIB10-58"/>
       <use transform="translate(87.864782 0)scale(0.996264)" xlink:href="#CMBX12-53"/>
      </g>
     </g>
    </g>
    <g id="ytick_3">
     <g id="line2d_8">
      <g>
       <use style="stroke:#000000;stroke-width:0.8;" x="69.55691" xlink:href="#m9b89487d1c" y="161.737508"/>
      </g>
     </g>
     <g id="text_9">
      <!-- $0.6$ -->
      <defs>
       <path d="M 17.40625 36.25 
C 17.40625 42.328125 17.703125 48.53125 20.5 53.90625 
C 22.703125 58.109375 27.796875 62 34.296875 62 
C 36.203125 62 39.796875 61.703125 42.203125 59.203125 
C 38.40625 58.8125 36.796875 56.015625 36.796875 53.3125 
C 36.796875 49.703125 39.5 47.40625 42.703125 47.40625 
C 45.296875 47.40625 48.59375 49.109375 48.59375 53.5 
C 48.59375 59.484375 44.59375 65.578125 34.09375 65.578125 
C 21.59375 65.578125 4.703125 57.796875 4.703125 31.796875 
C 4.703125 25.109375 4.703125 -1 28.40625 -1 
C 41.59375 -1 51.40625 6.765625 51.40625 20.703125 
C 51.40625 34.640625 41.703125 42 29.796875 42 
C 27.796875 42 21.40625 42 17.40625 33.546875 
z
M 28.296875 2.96875 
C 21.90625 2.96875 19.40625 8.34375 19 9.140625 
C 17.59375 12.4375 17.59375 20.40625 17.59375 21.296875 
C 17.59375 33.546875 22.90625 38.734375 28.796875 38.734375 
C 38.703125 38.734375 38.703125 30.765625 38.703125 20.796875 
C 38.703125 10.9375 38.703125 2.96875 28.296875 2.96875 
z
" id="CMBX12-54"/>
      </defs>
      <g transform="translate(36.55694 167.987508)scale(0.18 -0.18)">
       <use transform="scale(0.996264)" xlink:href="#CMBX12-48"/>
       <use transform="translate(56.039851 0)scale(0.996264)" xlink:href="#CMMIB10-58"/>
       <use transform="translate(87.864782 0)scale(0.996264)" xlink:href="#CMBX12-54"/>
      </g>
     </g>
    </g>
    <g id="ytick_4">
     <g id="line2d_9">
      <g>
       <use style="stroke:#000000;stroke-width:0.8;" x="69.55691" xlink:href="#m9b89487d1c" y="128.385302"/>
      </g>
     </g>
     <g id="text_10">
      <!-- $0.7$ -->
      <defs>
       <path d="M 53.59375 60.390625 
C 54.5 61.390625 54.5 61.609375 54.5 64.921875 
L 33.40625 64.921875 
C 32.703125 64.921875 17.796875 64.921875 16.59375 65.125 
C 14.09375 65.515625 13.90625 66.5625 13.703125 67.53125 
L 9.5 67.53125 
L 6.203125 43 
L 10.40625 43 
C 10.5 44.015625 11.296875 51.25 13 52.390625 
C 13.90625 53 22.203125 53 23.796875 53 
L 41.90625 53 
C 30.296875 38.859375 29 37.25 25.90625 31.328125 
C 20 19.671875 19.09375 10.640625 19.09375 5.71875 
C 19.09375 -1 24.203125 -1 25 -1 
C 27.5 -1 28.90625 0.296875 29.59375 1 
C 30.90625 2.625 30.90625 3.828125 30.90625 8.25 
C 30.90625 23.609375 32.296875 34.875 38.59375 42.40625 
z
" id="CMBX12-55"/>
      </defs>
      <g transform="translate(36.55694 134.635302)scale(0.18 -0.18)">
       <use transform="scale(0.996264)" xlink:href="#CMBX12-48"/>
       <use transform="translate(56.039851 0)scale(0.996264)" xlink:href="#CMMIB10-58"/>
       <use transform="translate(87.864782 0)scale(0.996264)" xlink:href="#CMBX12-55"/>
      </g>
     </g>
    </g>
    <g id="ytick_5">
     <g id="line2d_10">
      <g>
       <use style="stroke:#000000;stroke-width:0.8;" x="69.55691" xlink:href="#m9b89487d1c" y="95.033096"/>
      </g>
     </g>
     <g id="text_11">
      <!-- $0.8$ -->
      <defs>
       <path d="M 37.703125 36.921875 
C 42.703125 39.515625 48.296875 43.203125 48.296875 51 
C 48.296875 61.28125 39.09375 65.671875 28.203125 65.671875 
C 14.90625 65.671875 7.796875 58.09375 7.796875 48.40625 
C 7.796875 43.03125 10.5 37.03125 17.90625 33.140625 
C 6.59375 28.140625 4.703125 21.265625 4.703125 16.078125 
C 4.703125 4.59375 14.703125 -1 27.90625 -1 
C 42.703125 -1 51.40625 6.96875 51.40625 18.5625 
C 51.40625 29.4375 42.796875 34.140625 37.703125 36.921875 
z
M 19.703125 47.265625 
C 17.703125 48.375 14.90625 50.671875 14.90625 53.984375 
C 14.90625 62 25.59375 62 27.90625 62 
C 36.40625 62 41.203125 57.53125 41.203125 50.96875 
C 41.203125 46.890625 39.40625 42.609375 33.703125 39.328125 
z
M 22 30.59375 
L 35.796875 22.734375 
C 39.09375 20.84375 43.40625 18.46875 43.40625 13.40625 
C 43.40625 5.453125 35.40625 2.96875 28.203125 2.96875 
C 18.296875 2.96875 12.703125 8.234375 12.703125 16.078125 
C 12.703125 23.328125 17.203125 27.90625 22 30.59375 
z
" id="CMBX12-56"/>
      </defs>
      <g transform="translate(36.55694 101.283096)scale(0.18 -0.18)">
       <use transform="scale(0.996264)" xlink:href="#CMBX12-48"/>
       <use transform="translate(56.039851 0)scale(0.996264)" xlink:href="#CMMIB10-58"/>
       <use transform="translate(87.864782 0)scale(0.996264)" xlink:href="#CMBX12-56"/>
      </g>
     </g>
    </g>
    <g id="ytick_6">
     <g id="line2d_11">
      <g>
       <use style="stroke:#000000;stroke-width:0.8;" x="69.55691" xlink:href="#m9b89487d1c" y="61.68089"/>
      </g>
     </g>
     <g id="text_12">
      <!-- $0.9$ -->
      <defs>
       <path d="M 38.703125 28.375 
C 38.703125 21.375 38.703125 2.96875 23.09375 2.96875 
C 20 2.96875 16.40625 3.765625 14.296875 5.375 
C 17.203125 5.96875 19.296875 8.078125 19.296875 11.296875 
C 19.296875 14.90625 16.59375 17.21875 13.40625 17.21875 
C 10.796875 17.21875 7.5 15.515625 7.5 11.109375 
C 7.5 4.109375 13 -1 23.296875 -1 
C 36 -1 51.40625 7.265625 51.40625 32.984375 
C 51.40625 39.671875 51.40625 65.578125 28.296875 65.578125 
C 14.5 65.578125 4.703125 57.625 4.703125 44 
C 4.703125 30.171875 14.296875 22.734375 26.296875 22.734375 
C 30.5 22.734375 35.5 24.21875 38.703125 31.265625 
z
M 27.296875 26 
C 17.40625 26 17.40625 34.046875 17.40625 43.796875 
C 17.40625 53.359375 17.40625 62 28.296875 62 
C 34.703125 62 37 56.34375 37.40625 55.25 
C 38.40625 52.25 38.59375 46.09375 38.59375 42.8125 
C 38.59375 35.859375 35.703125 26 27.296875 26 
z
" id="CMBX12-57"/>
      </defs>
      <g transform="translate(36.55694 67.93089)scale(0.18 -0.18)">
       <use transform="scale(0.996264)" xlink:href="#CMBX12-48"/>
       <use transform="translate(56.039851 0)scale(0.996264)" xlink:href="#CMMIB10-58"/>
       <use transform="translate(87.864782 0)scale(0.996264)" xlink:href="#CMBX12-57"/>
      </g>
     </g>
    </g>
    <g id="ytick_7">
     <g id="line2d_12">
      <g>
       <use style="stroke:#000000;stroke-width:0.8;" x="69.55691" xlink:href="#m9b89487d1c" y="28.328684"/>
      </g>
     </g>
     <g id="text_13">
      <!-- $1.0$ -->
      <g transform="translate(36.55694 34.578684)scale(0.18 -0.18)">
       <use transform="scale(0.996264)" xlink:href="#CMBX12-49"/>
       <use transform="translate(56.039851 0)scale(0.996264)" xlink:href="#CMMIB10-58"/>
       <use transform="translate(87.864782 0)scale(0.996264)" xlink:href="#CMBX12-48"/>
      </g>
     </g>
    </g>
    <g id="text_14">
     <!-- \textbf{Precision} -->
     <defs>
      <path d="M 27.59375 30.21875 
L 44.59375 30.21875 
C 61.296875 30.21875 70.59375 38.65625 70.59375 48.875 
C 70.59375 59.5625 61.09375 68 44.59375 68 
L 3.796875 68 
L 3.796875 63.71875 
L 14.40625 63.71875 
L 14.40625 4.171875 
L 3.796875 4.171875 
L 3.796875 0 
C 6.703125 0 17.40625 0 21 0 
C 24.59375 0 35.296875 0 38.203125 0 
L 38.203125 4.171875 
L 27.59375 4.171875 
z
M 41 63.71875 
C 56.5 63.71875 56.5 55.59375 56.5 48.859375 
C 56.5 42.328125 56.5 34 41 34 
L 27.09375 34 
L 27.09375 63.71875 
z
" id="CMBX12-80"/>
      <path d="M 20.796875 22.046875 
C 20.796875 25.296875 21.5 41 33.203125 41 
C 31.796875 39.921875 31.09375 38.25 31.09375 36.5 
C 31.09375 32.484375 34.40625 30.8125 36.90625 30.8125 
C 39.40625 30.8125 42.703125 32.484375 42.703125 36.515625 
C 42.703125 41.53125 37.5 44.28125 32.703125 44.28125 
C 24.796875 44.28125 21.40625 37.515625 20 33.390625 
L 19.90625 33.390625 
L 19.90625 44 
L 3.5 44 
L 3.5 39.328125 
C 9.703125 39.328125 10.40625 39.328125 10.40625 35.46875 
L 10.40625 4.0625 
L 3.5 4.0625 
L 3.5 -0.203125 
C 5.796875 0 13.296875 0 16.09375 0 
C 19 0 27.09375 0 29.5 -0.203125 
L 29.5 4.0625 
L 20.796875 4.0625 
z
" id="CMBX12-114"/>
      <path d="M 45.203125 22 
C 47.5 22 48.09375 22 48.09375 24.484375 
C 48.09375 27.46875 47.40625 34.890625 42.796875 39.5625 
C 38.59375 43.71875 33 45 27.203125 45 
C 11.59375 45 3.09375 34.890625 3.09375 22.40625 
C 3.09375 8.515625 13.40625 -0.5 28.5 -0.5 
C 43.59375 -0.5 48.09375 10 48.09375 11.6875 
C 48.09375 13.171875 46.59375 13.171875 46 13.171875 
C 44.40625 13.171875 44.296875 12.875 43.703125 11.59375 
C 41.09375 5.15625 34.5 3.078125 29.703125 3.078125 
C 15.203125 3.078125 15.09375 16.453125 15.09375 22 
z
M 15.09375 24.890625 
C 15.296875 28.9375 15.40625 32.8125 17.5 36.375 
C 19.40625 39.546875 22.90625 41.71875 27.203125 41.71875 
C 37.90625 41.71875 38.796875 29.828125 38.90625 24.890625 
z
" id="CMBX12-101"/>
      <path d="M 53 21.796875 
C 53 35.1875 43.796875 45 28.09375 45 
C 11.796875 45 3.09375 34.6875 3.09375 21.796875 
C 3.09375 8.828125 12.296875 -0.5 28 -0.5 
C 44.296875 -0.5 53 9.3125 53 21.796875 
z
M 28.09375 3.078125 
C 15.09375 3.078125 15.09375 14.671875 15.09375 22.796875 
C 15.09375 27.453125 15.09375 32.40625 17 35.984375 
C 19.203125 39.9375 23.703125 41.71875 28 41.71875 
C 33.703125 41.71875 37.296875 39.046875 39 36.28125 
C 41 32.703125 41 27.546875 41 22.796875 
C 41 14.5625 41 3.078125 28.09375 3.078125 
z
" id="CMBX12-111"/>
      <path d="M 53.09375 30.0625 
C 53.09375 39.453125 49 44.28125 38 44.28125 
C 30.796875 44.28125 24.59375 40.859375 21.203125 33.484375 
L 21.09375 33.484375 
L 21.09375 44 
L 4.203125 44 
L 4.203125 39.328125 
C 10.40625 39.328125 11.09375 39.328125 11.09375 35.46875 
L 11.09375 4.0625 
L 4.203125 4.0625 
L 4.203125 -0.203125 
C 6.5 0 13.703125 0 16.5 0 
C 19.296875 0 26.59375 0 28.90625 -0.203125 
L 28.90625 4.0625 
L 22 4.0625 
L 22 25.109375 
C 22 35.765625 30 41 36.40625 41 
C 40.09375 41 42.203125 38.640625 42.203125 31.140625 
L 42.203125 4.0625 
L 35.296875 4.0625 
L 35.296875 -0.203125 
C 37.59375 0 44.796875 0 47.59375 0 
C 50.40625 0 57.703125 0 60 -0.203125 
L 60 4.0625 
L 53.09375 4.0625 
z
" id="CMBX12-110"/>
     </defs>
     <g transform="translate(27.27777 169.69425)rotate(-90)scale(0.22 -0.22)">
      <use transform="scale(0.996264)" xlink:href="#CMBX12-80"/>
      <use transform="translate(76.564811 0)scale(0.996264)" xlink:href="#CMBX12-114"/>
      <use transform="translate(122.342318 0)scale(0.996264)" xlink:href="#CMBX12-101"/>
      <use transform="translate(173.481585 0)scale(0.996264)" xlink:href="#CMBX12-99"/>
      <use transform="translate(223.294786 0)scale(0.996264)" xlink:href="#CMBX12-105"/>
      <use transform="translate(254.428036 0)scale(0.996264)" xlink:href="#CMBX12-115"/>
      <use transform="translate(298.637373 0)scale(0.996264)" xlink:href="#CMBX12-105"/>
      <use transform="translate(329.770623 0)scale(0.996264)" xlink:href="#CMBX12-111"/>
      <use transform="translate(385.810474 0)scale(0.996264)" xlink:href="#CMBX12-110"/>
     </g>
    </g>
   </g>
   <g id="line2d_13">
    <path clip-path="url(#p0dea1b175c)" d="M 69.55691 191.615526 
L 71.716118 191.615526 
L 71.986019 191.022372 
L 74.145228 191.022372 
L 74.415129 191.591231 
L 81.162654 191.591231 
L 81.432555 190.993829 
L 82.242258 190.993829 
L 82.51216 190.39222 
L 86.560675 190.39222 
L 86.830576 189.78636 
L 87.100477 190.358905 
L 87.370378 189.748613 
L 90.069388 189.748613 
L 90.339289 190.325113 
L 94.117904 190.325113 
L 94.387805 190.905746 
L 95.73731 190.905746 
L 96.007211 190.290835 
L 96.547013 190.290835 
L 96.816914 189.671486 
L 97.086815 189.671486 
L 97.356716 189.047648 
L 97.626617 189.047648 
L 97.896518 188.419273 
L 98.976122 188.419273 
L 99.246023 187.786311 
L 109.502263 187.786311 
L 109.772164 187.148713 
L 110.042065 187.73261 
L 110.851768 187.73261 
L 111.121669 187.090107 
L 114.360481 187.090107 
L 114.630382 187.678113 
L 115.440085 187.678113 
L 115.709986 187.030631 
L 117.329393 187.030631 
L 117.599294 186.378317 
L 117.869195 186.378317 
L 118.139096 185.058975 
L 119.758502 185.058975 
L 120.028403 183.719644 
L 120.298304 183.719644 
L 120.568205 183.042339 
L 121.377908 183.042339 
L 121.647809 182.359864 
L 124.076918 182.359864 
L 124.346819 181.67216 
L 125.696325 181.67216 
L 125.966226 180.979165 
L 134.603059 180.979165 
L 134.87296 181.568549 
L 137.57197 181.568549 
L 137.841871 180.869781 
L 140.27098 180.869781 
L 140.540881 180.165575 
L 144.319496 180.165575 
L 144.589397 180.758688 
L 146.208803 180.758688 
L 146.478704 180.048523 
L 148.907813 180.048523 
L 149.177714 179.332766 
L 155.385438 179.332766 
L 155.655339 178.611351 
L 155.92524 179.207711 
L 156.734943 179.207711 
L 157.004844 179.808823 
L 158.62425 179.808823 
L 158.894151 179.080655 
L 163.75237 179.080655 
L 164.022271 177.606703 
L 164.292172 177.606703 
L 164.562073 176.860776 
L 166.721281 176.860776 
L 166.991182 176.108784 
L 167.530984 176.108784 
L 167.800885 175.350653 
L 169.960094 175.350653 
L 170.229995 174.586309 
L 171.039698 174.586309 
L 171.309599 173.815673 
L 172.659104 173.815673 
L 172.929005 173.038669 
L 183.994947 173.038669 
L 184.264848 172.255216 
L 184.80465 172.255216 
L 185.074551 172.85491 
L 185.344452 172.064133 
L 187.23376 172.064133 
L 187.503661 172.668063 
L 188.043463 172.668063 
L 188.313364 173.27709 
L 189.392968 173.27709 
L 189.662869 172.478049 
L 190.202671 172.478049 
L 190.472572 170.859479 
L 195.330791 170.859479 
L 195.600692 170.039774 
L 197.220098 170.039774 
L 197.489999 169.213002 
L 200.998712 169.213002 
L 201.268613 168.379073 
L 202.078316 168.379073 
L 202.348217 167.537892 
L 204.507426 167.537892 
L 204.777327 166.689364 
L 205.047228 166.689364 
L 205.317129 165.833393 
L 205.58703 165.833393 
L 205.856931 166.439141 
L 207.206436 166.439141 
L 207.476337 167.050249 
L 209.095743 167.050249 
L 209.365644 166.184469 
L 209.905446 166.184469 
L 210.175347 165.310959 
L 211.254951 165.310959 
L 211.524853 165.925229 
L 212.874358 165.925229 
L 213.144259 166.545033 
L 213.41416 166.545033 
L 213.684061 165.661297 
L 215.573368 165.661297 
L 216.11317 163.869613 
L 216.652972 163.869613 
L 216.922873 164.49136 
L 218.81218 164.49136 
L 219.082081 163.58187 
L 222.860696 163.58187 
L 223.130597 162.663958 
L 226.369409 162.663958 
L 226.909211 160.802399 
L 229.878123 160.802399 
L 230.148024 162.052152 
L 230.417925 162.052152 
L 230.687826 162.685912 
L 231.227628 162.685912 
L 231.497529 161.737508 
L 234.196539 161.737508 
L 234.46644 160.780028 
L 235.006242 160.780028 
L 235.276143 159.813342 
L 236.085846 159.813342 
L 236.355747 160.448534 
L 236.895549 160.448534 
L 237.16545 161.089892 
L 240.944065 161.089892 
L 241.213966 160.110571 
L 241.753768 160.110571 
L 242.023669 160.756561 
L 242.833372 160.756561 
L 243.103273 159.765949 
L 244.99258 159.765949 
L 245.262481 158.765529 
L 247.691591 158.765529 
L 247.961492 157.755155 
L 249.850799 157.755155 
L 250.1207 156.734677 
L 250.390601 156.734677 
L 250.660502 157.379933 
L 255.788622 157.379933 
L 256.058523 158.031707 
L 256.328424 156.997093 
L 257.408028 156.997093 
L 257.677929 155.951921 
L 257.94783 155.548439 
L 262.266246 155.548439 
L 262.536147 154.479515 
L 263.615752 154.479515 
L 263.885653 155.136551 
L 264.155554 155.136551 
L 264.425455 154.054277 
L 264.965257 154.054277 
L 265.235158 152.960612 
L 266.314762 152.960612 
L 266.584663 151.855373 
L 267.664267 151.855373 
L 267.934168 150.738376 
L 268.47397 150.738376 
L 268.743871 149.609433 
L 271.982684 149.609433 
L 272.252585 148.468351 
L 272.792387 148.468351 
L 273.062288 147.314933 
L 275.761298 147.314933 
L 276.031199 147.961597 
L 281.42922 147.961597 
L 281.699121 148.615329 
L 282.238923 148.615329 
L 282.508824 149.276244 
L 286.82724 149.276244 
L 287.367042 146.914305 
L 289.796152 146.914305 
L 290.066053 145.713543 
L 291.145657 145.713543 
L 291.415558 144.499289 
L 294.114568 144.499289 
L 294.384469 145.15562 
L 296.273776 145.15562 
L 296.543677 143.924398 
L 296.813578 143.924398 
L 297.35338 141.419498 
L 300.592193 141.419498 
L 300.862094 140.145328 
L 301.131995 140.795425 
L 304.370807 140.795425 
L 304.640708 139.502704 
L 304.910609 139.502704 
L 305.18051 140.156669 
L 305.450411 140.156669 
L 305.720312 140.818373 
L 306.260115 140.818373 
L 306.530016 140.168417 
L 307.339719 140.168417 
L 307.60962 140.84215 
L 308.959125 140.84215 
L 309.229026 139.502704 
L 312.467838 139.502704 
L 312.737739 138.146923 
L 314.627047 138.146923 
L 314.896948 136.774507 
L 316.516354 136.774507 
L 316.786255 135.385148 
L 318.13576 135.385148 
L 318.405661 133.978529 
L 318.675562 133.978529 
L 318.945463 132.554328 
L 320.025067 132.554328 
L 320.294968 133.209835 
L 322.454176 133.209835 
L 322.724077 132.421556 
L 322.993978 130.950856 
L 326.232791 130.950856 
L 326.502692 129.46118 
L 328.122098 129.46118 
L 328.391999 127.952157 
L 331.36091 127.952157 
L 331.630811 128.60329 
L 332.440515 128.60329 
L 332.710416 129.262992 
L 335.679327 129.262992 
L 335.949228 127.722675 
L 336.219129 127.722675 
L 336.48903 126.161822 
L 339.997743 126.161822 
L 340.267644 126.81842 
L 340.537546 126.81842 
L 340.807447 125.230364 
L 341.887051 125.230364 
L 342.156952 123.620701 
L 345.665665 123.620701 
L 345.935566 124.273386 
L 346.205467 122.634922 
L 346.475368 123.289826 
L 348.364675 123.289826 
L 348.634576 123.95389 
L 348.904477 122.27856 
L 351.333587 122.27856 
L 351.603488 122.944871 
L 353.762696 122.944871 
L 354.032597 123.620701 
L 354.8423 123.620701 
L 355.112201 124.306255 
L 355.921904 124.306255 
L 356.191805 125.001745 
L 359.160717 125.001745 
L 359.430618 123.27292 
L 361.050024 123.27292 
L 361.589826 124.679501 
L 364.288836 124.679501 
L 364.558737 125.398537 
L 364.828638 123.620701 
L 365.098539 123.620701 
L 365.36844 121.815928 
L 366.987847 121.815928 
L 367.257748 119.983601 
L 372.385867 119.983601 
L 372.655768 120.688639 
L 373.19557 120.688639 
L 373.465471 121.404608 
L 374.005273 121.404608 
L 374.275174 122.131763 
L 376.974185 122.131763 
L 377.783888 124.383037 
L 378.053789 122.467975 
L 378.32369 122.467975 
L 378.593591 120.521774 
L 378.863492 120.521774 
L 379.133393 118.543668 
L 379.403294 119.289246 
L 379.673195 119.289246 
L 379.943096 120.047251 
L 380.752799 120.047251 
L 381.0227 120.817995 
L 381.292601 116.697777 
L 386.690622 116.697777 
L 387.230424 112.434247 
L 389.389632 112.434247 
L 389.659533 110.246383 
L 391.54884 110.246383 
L 391.818741 108.019796 
L 392.898346 108.019796 
L 393.168247 108.731324 
L 402.614783 108.731324 
L 402.884684 109.455672 
L 403.154585 109.455672 
L 403.424486 107.161171 
L 405.313793 107.161171 
L 405.583694 104.824569 
L 408.282704 104.824569 
L 408.552605 102.444697 
L 411.251616 102.444697 
L 411.521517 103.13737 
L 419.348647 103.13737 
L 419.618548 103.843113 
L 421.237954 103.843113 
L 421.507855 104.562298 
L 422.85736 104.562298 
L 423.127261 102.08837 
L 423.667063 102.08837 
L 423.936964 99.566406 
L 425.826271 99.566406 
L 426.096172 96.994991 
L 426.366073 96.994991 
L 426.635975 97.674855 
L 432.573797 97.674855 
L 432.843698 98.368317 
L 433.3835 98.368317 
L 433.653401 95.706878 
L 436.082511 95.706878 
L 436.352412 96.394411 
L 436.892214 96.394411 
L 437.162115 97.096119 
L 441.750432 97.096119 
L 442.020333 94.338258 
L 452.546474 94.338258 
L 452.816375 91.522338 
L 453.086276 92.194611 
L 454.975583 92.194611 
L 455.245484 92.881341 
L 455.515385 92.881341 
L 455.785286 93.583 
L 456.055187 93.583 
L 456.325088 91.327295 
L 456.594989 91.327295 
L 456.86489 88.287706 
L 457.404692 88.287706 
L 457.674593 85.179035 
L 469.010436 85.179035 
L 469.280337 85.832488 
L 470.629843 85.832488 
L 471.439546 87.886195 
L 472.249249 87.886195 
L 472.51915 84.585417 
L 474.138556 84.585417 
L 474.408457 85.271475 
L 479.806478 85.271475 
L 480.076379 81.856916 
L 481.155983 81.856916 
L 481.425884 82.526019 
L 487.633608 82.526019 
L 487.903509 83.212061 
L 488.17341 85.37851 
L 488.443311 85.37851 
L 488.713212 86.139175 
L 493.57143 86.139175 
L 493.841331 86.920397 
L 498.969451 86.920397 
L 499.239352 87.723024 
L 500.858758 87.723024 
L 501.128659 88.547945 
L 502.748065 88.547945 
L 503.017966 89.396104 
L 504.097571 89.396104 
L 504.367472 85.503894 
L 506.256779 85.503894 
L 506.52668 86.332521 
L 506.796581 86.332521 
L 507.336383 88.063978 
L 508.685888 88.063978 
L 508.955789 88.969059 
L 509.765492 88.969059 
L 510.035393 89.901988 
L 511.384898 89.901988 
L 511.654799 91.856696 
L 515.163513 91.856696 
L 515.433414 92.881341 
L 515.703315 88.472006 
L 517.322721 88.472006 
L 517.592622 89.474395 
L 521.371237 89.474395 
L 521.641138 90.510763 
L 527.039158 90.510763 
L 527.309059 91.582868 
L 528.658564 91.582868 
L 528.928465 92.69259 
L 532.70708 92.69259 
L 532.976981 87.886195 
L 536.215793 87.886195 
L 536.485694 82.905021 
L 540.804111 82.905021 
L 541.074012 83.915694 
L 544.312824 83.915694 
L 544.582725 84.964506 
L 547.551637 84.964506 
L 547.821538 86.053656 
L 551.330251 86.053656 
L 551.600152 87.185518 
L 555.108865 87.185518 
L 555.378767 88.362655 
L 556.998173 88.362655 
L 557.268074 89.587838 
L 558.617579 89.587838 
L 558.88748 90.86407 
L 567.524313 90.86407 
L 567.794214 85.098396 
L 569.41362 85.098396 
L 569.683521 86.332521 
L 572.11263 86.332521 
L 572.382531 87.621495 
L 575.081542 87.621495 
L 575.351443 88.969059 
L 582.098969 88.969059 
L 582.36887 90.3793 
L 582.638771 83.915694 
L 583.718375 83.915694 
L 583.988276 77.13679 
L 591.815406 77.13679 
L 592.085307 78.356993 
L 593.164911 78.356993 
L 593.434812 79.63977 
L 598.562932 79.63977 
L 598.832833 72.213166 
L 602.881348 72.213166 
L 603.151249 73.399233 
L 604.770655 73.399233 
L 605.040556 74.651192 
L 606.659962 74.651192 
L 606.929863 75.974693 
L 610.708478 75.974693 
L 610.978379 77.376046 
L 611.788082 77.376046 
L 612.057983 78.86233 
L 615.296795 78.86233 
L 615.566697 70.018942 
L 615.836598 70.018942 
L 616.106499 71.363789 
L 626.362738 71.363789 
L 626.632639 61.68089 
L 631.220956 61.68089 
L 631.490857 51.330206 
L 650.923732 51.330206 
L 651.193633 52.151688 
L 654.432445 52.151688 
L 654.702346 53.034022 
L 665.228486 53.034022 
L 665.498387 41.156456 
L 665.768288 41.156456 
L 666.038189 41.669567 
L 666.30809 41.669567 
L 666.577991 42.225437 
L 674.944923 42.225437 
L 675.214824 42.829643 
L 679.26334 42.829643 
L 679.533241 43.488778 
L 686.280767 43.488778 
L 686.550668 44.210687 
L 689.78948 44.210687 
L 690.329282 45.882477 
L 700.585521 45.882477 
L 700.855422 46.857687 
L 701.125323 46.857687 
L 701.395224 47.947629 
L 711.381563 47.947629 
L 711.651464 49.173813 
L 712.731068 49.173813 
L 713.000969 50.563488 
L 730.004734 50.563488 
L 730.274635 52.151688 
L 734.053249 52.151688 
L 734.32315 53.984227 
L 743.229884 53.984227 
L 743.499785 56.122189 
L 747.818202 56.122189 
L 748.088103 58.648871 
L 752.136618 58.648871 
L 752.406519 61.68089 
L 759.423946 61.68089 
L 759.693847 65.386691 
L 766.171472 65.386691 
L 766.441373 70.018942 
L 767.790878 70.018942 
L 768.060779 75.974693 
L 788.303357 75.974693 
L 788.573258 83.915694 
L 806.116825 83.915694 
L 806.386726 28.328684 
L 852 28.328684 
L 852 28.328684 
" style="fill:none;stroke:#e41a1c;stroke-linecap:square;stroke-width:2;"/>
   </g>
   <g id="line2d_14">
    <path clip-path="url(#p0dea1b175c)" d="M 69.55691 164.556004 
L 78.193743 164.556004 
L 78.463644 163.156751 
L 92.768399 163.156751 
L 93.0383 164.119808 
L 100.595529 164.119808 
L 100.86543 162.697284 
L 106.26345 162.697284 
L 106.533351 163.670969 
L 106.803252 163.670969 
L 107.073153 162.224402 
L 108.152757 162.224402 
L 108.422659 160.756561 
L 118.948799 160.756561 
L 119.2187 159.266974 
L 129.74484 159.266974 
L 130.014741 160.244126 
L 134.063257 160.244126 
L 134.333158 161.235971 
L 140.27098 161.235971 
L 140.540881 159.716162 
L 140.810782 159.716162 
L 141.080683 160.71912 
L 141.350584 160.71912 
L 141.620485 159.171954 
L 141.890386 159.171954 
L 142.160287 157.6008 
L 143.779694 157.6008 
L 144.049595 156.005098 
L 153.496131 156.005098 
L 153.766032 157.010424 
L 154.305834 157.010424 
L 154.845636 153.732979 
L 157.544646 153.732979 
L 157.814547 152.05461 
L 161.323261 152.05461 
L 161.593162 150.34895 
L 167.800885 150.34895 
L 168.070786 148.615329 
L 170.769797 148.615329 
L 171.039698 146.853053 
L 179.676531 146.853053 
L 180.216333 143.239646 
L 187.773562 143.239646 
L 188.043463 141.387009 
L 190.202671 141.387009 
L 190.472572 139.502704 
L 191.822077 139.502704 
L 192.091978 137.585911 
L 193.441483 137.585911 
L 193.711384 138.535973 
L 196.680296 138.535973 
L 196.950197 136.577072 
L 202.078316 136.577072 
L 202.348217 134.5835 
L 208.28604 134.5835 
L 208.555941 132.554328 
L 213.144259 132.554328 
L 213.41416 130.488594 
L 216.652972 130.488594 
L 216.922873 128.385302 
L 223.9403 128.385302 
L 224.210201 126.243417 
L 230.417925 126.243417 
L 230.687826 124.061868 
L 239.864461 124.061868 
L 240.134362 121.839542 
L 242.563471 121.839542 
L 242.833372 119.575285 
L 244.722679 119.575285 
L 244.99258 117.2679 
L 252.549809 117.2679 
L 252.81971 114.916142 
L 253.089611 114.916142 
L 253.359512 112.518719 
L 260.107038 112.518719 
L 260.376939 113.344111 
L 262.536147 113.344111 
L 262.806048 114.185848 
L 263.345851 114.185848 
L 263.615752 115.04442 
L 290.605855 115.04442 
L 290.875756 112.551427 
L 301.671797 112.551427 
L 301.941698 113.410842 
L 304.370807 113.410842 
L 304.640708 114.287978 
L 306.530016 114.287978 
L 306.799917 111.709199 
L 307.339719 111.709199 
L 307.60962 109.07613 
L 308.959125 109.07613 
L 309.229026 106.387039 
L 310.848432 106.387039 
L 311.118333 103.640117 
L 315.166849 103.640117 
L 315.43675 100.83348 
L 318.13576 100.83348 
L 318.405661 101.630236 
L 322.184275 101.630236 
L 322.454176 98.738897 
L 323.803682 98.738897 
L 324.073583 95.782584 
L 326.502692 95.782584 
L 326.772593 92.759082 
L 337.568634 92.759082 
L 337.838535 89.666074 
L 350.253983 89.666074 
L 350.523884 90.3793 
L 367.257748 90.3793 
L 367.527649 91.109307 
L 368.607253 91.109307 
L 368.877154 91.856696 
L 373.19557 91.856696 
L 373.465471 88.603755 
L 373.735372 88.603755 
L 374.005273 89.338817 
L 376.974185 89.338817 
L 377.244086 85.974472 
L 378.053789 85.974472 
L 378.32369 86.695045 
L 380.482898 86.695045 
L 380.752799 87.433859 
L 389.929434 87.433859 
L 390.199335 83.915694 
L 397.486663 83.915694 
L 397.756564 80.306148 
L 403.964288 80.306148 
L 404.234189 76.601614 
L 410.172012 76.601614 
L 410.441913 72.798292 
L 417.459339 72.798292 
L 417.72924 68.892178 
L 418.269043 68.892178 
L 418.538944 64.879047 
L 420.428251 64.879047 
L 420.698152 65.908635 
L 424.206865 65.908635 
L 424.476766 66.445491 
L 431.764094 66.445491 
L 432.033995 66.997908 
L 441.21063 66.997908 
L 441.480531 67.566574 
L 450.657166 67.566574 
L 450.927067 68.152214 
L 461.453208 68.152214 
L 461.723109 63.702236 
L 461.99301 63.702236 
L 462.262911 64.246444 
L 462.532812 64.246444 
L 462.802713 64.807659 
L 479.536577 64.807659 
L 479.806478 65.386691 
L 482.235587 65.386691 
L 482.505488 65.984401 
L 483.04529 65.984401 
L 483.315191 61.134133 
L 485.7443 61.134133 
L 486.014201 56.122189 
L 491.952024 56.122189 
L 492.221925 56.593266 
L 494.111232 56.593266 
L 494.381133 57.080586 
L 503.287867 57.080586 
L 503.557768 51.733741 
L 506.52668 51.733741 
L 506.796581 52.151688 
L 515.433414 52.151688 
L 515.703315 52.584834 
L 519.481929 52.584834 
L 519.75183 46.857687 
L 527.039158 46.857687 
L 527.309059 40.914422 
L 530.547872 40.914422 
L 530.817773 41.156456 
L 534.326486 41.156456 
L 534.596387 41.407981 
L 538.1051 41.407981 
L 538.375002 41.669567 
L 544.582725 41.669567 
L 544.852626 41.941829 
L 548.631241 41.941829 
L 548.901142 42.225437 
L 567.794214 42.225437 
L 568.064115 42.521112 
L 581.289266 42.521112 
L 581.559167 42.829643 
L 586.147484 42.829643 
L 586.417385 43.151887 
L 586.687286 43.151887 
L 586.957187 43.488778 
L 588.036791 43.488778 
L 588.306692 36.085011 
L 593.434812 36.085011 
L 593.704713 36.269686 
L 607.199765 36.269686 
L 607.469666 28.328684 
L 852 28.328684 
L 852 28.328684 
" style="fill:none;stroke:#377eb8;stroke-dasharray:7.4,3.2;stroke-dashoffset:0;stroke-linecap:round;stroke-width:2;"/>
   </g>
   <g id="patch_3">
    <path d="M 69.55691 228.44192 
L 69.55691 12 
" style="fill:none;stroke:#000000;stroke-linecap:square;stroke-linejoin:miter;stroke-width:0.8;"/>
   </g>
   <g id="patch_4">
    <path d="M 852 228.44192 
L 852 12 
" style="fill:none;"/>
   </g>
   <g id="patch_5">
    <path d="M 69.55691 228.44192 
L 852 228.44192 
" style="fill:none;stroke:#000000;stroke-linecap:square;stroke-linejoin:miter;stroke-width:0.8;"/>
   </g>
   <g id="patch_6">
    <path d="M 69.55691 12 
L 852 12 
" style="fill:none;"/>
   </g>
   <g id="legend_1">
    <g id="patch_7">
     <path d="M 74.35691 40.7111 
L 302.05879 40.7111 
Q 305.25879 40.7111 305.25879 37.5111 
L 305.25879 16.8 
Q 305.25879 13.6 302.05879 13.6 
L 74.35691 13.6 
Q 71.15691 13.6 71.15691 16.8 
L 71.15691 37.5111 
Q 71.15691 40.7111 74.35691 40.7111 
z
" style="fill:none;opacity:0;"/>
    </g>
    <g id="line2d_15">
     <path d="M 77.55691 25.6 
L 109.55691 25.6 
" style="fill:none;stroke:#e41a1c;stroke-linecap:square;stroke-width:2;"/>
    </g>
    <g id="line2d_16"/>
    <g id="text_15">
     <!-- \textbf{Train} -->
     <defs>
      <path d="M 72 67.265625 
L 6.09375 67.265625 
L 4.09375 43.703125 
L 8.296875 43.703125 
C 9.203125 54.546875 10 63 24.40625 63 
L 32.5 63 
L 32.5 4.171875 
L 17.40625 4.171875 
L 17.40625 0 
C 25.40625 0 35.703125 0 39.09375 0 
C 45.203125 0 52.796875 0 60.796875 0 
L 60.796875 4.171875 
L 45.703125 4.171875 
L 45.703125 63 
L 53.703125 63 
C 68.09375 63 68.90625 54.640625 69.796875 43.703125 
L 74 43.703125 
z
" id="CMBX12-84"/>
     </defs>
     <g transform="translate(122.35691 31.2)scale(0.16 -0.16)">
      <use transform="scale(0.996264)" xlink:href="#CMBX12-84"/>
      <use transform="translate(68.608395 0)scale(0.996264)" xlink:href="#CMBX12-114"/>
      <use transform="translate(114.385903 0)scale(0.996264)" xlink:href="#CMBX12-97"/>
      <use transform="translate(168.869091 0)scale(0.996264)" xlink:href="#CMBX12-105"/>
      <use transform="translate(200.002341 0)scale(0.996264)" xlink:href="#CMBX12-110"/>
     </g>
    </g>
    <g id="line2d_17">
     <path d="M 196.47729 25.6 
L 228.47729 25.6 
" style="fill:none;stroke:#377eb8;stroke-dasharray:7.4,3.2;stroke-dashoffset:0;stroke-linecap:round;stroke-width:2;"/>
    </g>
    <g id="line2d_18"/>
    <g id="text_16">
     <!-- \textbf{Testing} -->
     <defs>
      <path d="M 13 18.578125 
C 17.796875 16 23.40625 16 24.90625 16 
C 38.703125 16 44.203125 23.65625 44.203125 30.625 
C 44.203125 35.703125 41.296875 39.296875 40.09375 40.28125 
C 43 41.8125 45.40625 42.1875 47.09375 42.390625 
C 46.796875 41.90625 46.5 41.53125 46.5 40.28125 
C 46.5 38.28125 47.90625 36.46875 50.5 36.46875 
C 53.09375 36.46875 54.5 38.359375 54.5 40.4375 
C 54.5 42.828125 52.703125 46 48.5 46 
C 44.203125 46 40.09375 43.796875 38 41.90625 
C 33.90625 44.28125 30 45.171875 24.90625 45.171875 
C 11.09375 45.171875 5.59375 37.546875 5.59375 30.578125 
C 5.59375 27.5 6.59375 23.453125 10.796875 20.078125 
C 9.09375 18.140625 7.296875 14.578125 7.296875 10.921875 
C 7.296875 6.5625 9.59375 2.8125 11.703125 1.1875 
C 9.296875 0.609375 3.09375 -1.640625 3.09375 -7.203125 
C 3.09375 -12.96875 9.59375 -19.5 28 -19.5 
C 44.59375 -19.5 53 -14.21875 53 -6.859375 
C 53 1.78125 47.203125 4.609375 44.703125 5.78125 
C 39.90625 8.140625 33.5 8.140625 24.703125 8.140625 
C 22.203125 8.140625 17.796875 8.140625 17.296875 8.234375 
C 13 8.984375 11.796875 12.953125 11.796875 14.953125 
C 11.796875 15.78125 11.90625 17.296875 13 18.578125 
z
M 24.90625 19.171875 
C 16.203125 19.171875 16.203125 26.015625 16.203125 30.578125 
C 16.203125 35.15625 16.203125 42 24.90625 42 
C 33.59375 42 33.59375 35.15625 33.59375 30.578125 
C 33.59375 26.015625 33.59375 19.171875 24.90625 19.171875 
z
M 30.5 -1 
C 37.796875 -1 44.796875 -2.265625 44.796875 -7.296875 
C 44.796875 -10.703125 41.296875 -16.328125 28.09375 -16.328125 
C 14.90625 -16.328125 11.296875 -10.890625 11.296875 -7.203125 
C 11.296875 -1 17.59375 -1 19.09375 -1 
z
" id="CMBX12-103"/>
     </defs>
     <g transform="translate(241.27729 31.2)scale(0.16 -0.16)">
      <use transform="translate(0 -0.072648)scale(0.996264)" xlink:href="#CMBX12-84"/>
      <use transform="translate(68.608395 -0.072648)scale(0.996264)" xlink:href="#CMBX12-101"/>
      <use transform="translate(119.747663 -0.072648)scale(0.996264)" xlink:href="#CMBX12-115"/>
      <use transform="translate(163.957 -0.072648)scale(0.996264)" xlink:href="#CMBX12-116"/>
      <use transform="translate(207.54355 -0.072648)scale(0.996264)" xlink:href="#CMBX12-105"/>
      <use transform="translate(238.6768 -0.072648)scale(0.996264)" xlink:href="#CMBX12-110"/>
      <use transform="translate(300.943301 -0.072648)scale(0.996264)" xlink:href="#CMBX12-103"/>
     </g>
    </g>
   </g>
  </g>
 </g>
 <defs>
  <clipPath id="p0dea1b175c">
   <rect height="216.44192" width="782.44309" x="69.55691" y="12"/>
  </clipPath>
 </defs>
</svg>
