<?xml version="1.0" encoding="utf-8" standalone="no"?>
<!DOCTYPE svg PUBLIC "-//W3C//DTD SVG 1.1//EN"
  "http://www.w3.org/Graphics/SVG/1.1/DTD/svg11.dtd">
<!-- Created with matplotlib (https://matplotlib.org/) -->
<svg height="288pt" version="1.1" viewBox="0 0 864 288" width="864pt" xmlns="http://www.w3.org/2000/svg" xmlns:xlink="http://www.w3.org/1999/xlink">
 <defs>
  <style type="text/css">
*{stroke-linecap:butt;stroke-linejoin:round;}
  </style>
 </defs>
 <g id="figure_1">
  <g id="patch_1">
   <path d="M 0 288 
L 864 288 
L 864 0 
L 0 0 
z
" style="fill:#ffffff;"/>
  </g>
  <g id="axes_1">
   <g id="patch_2">
    <path d="M 69.55691 228.44192 
L 852 228.44192 
L 852 12 
L 69.55691 12 
z
" style="fill:#ffffff;"/>
   </g>
   <g id="matplotlib.axis_1">
    <g id="xtick_1">
     <g id="line2d_1">
      <defs>
       <path d="M 0 0 
L 0 3.5 
" id="m8a3e31f12e" style="stroke:#000000;stroke-width:0.8;"/>
      </defs>
      <g>
       <use style="stroke:#000000;stroke-width:0.8;" x="177.517323" xlink:href="#m8a3e31f12e" y="228.44192"/>
      </g>
     </g>
     <g id="text_1">
      <!-- $0.5$ -->
      <defs>
       <path d="M 51.703125 31.84375 
C 51.703125 41.375 51.703125 65.28125 28.09375 65.28125 
C 4.40625 65.28125 4.40625 41.46875 4.40625 31.84375 
C 4.40625 22.3125 4.40625 -1 28 -1 
C 51.59375 -1 51.703125 22.015625 51.703125 31.84375 
z
M 28.09375 2.28125 
C 24.90625 2.28125 22.5 3.5625 20.5 5.65625 
C 18 8.140625 16.40625 9.703125 16.40625 33.03125 
C 16.40625 39.984375 16.40625 46.3125 17.203125 51.484375 
C 18.59375 61.3125 25.796875 62 28 62 
C 31.203125 62 37.40625 60.515625 38.796875 52.1875 
C 39.703125 47.109375 39.703125 39.078125 39.703125 33.03125 
C 39.703125 9.609375 38.203125 8.234375 35.203125 5.25 
C 33.203125 3.265625 30.5 2.28125 28.09375 2.28125 
z
" id="CMBX12-48"/>
       <path d="M 23.703125 7.765625 
C 23.703125 12.046875 20.203125 15.53125 15.90625 15.53125 
C 11.59375 15.53125 8.09375 12.046875 8.09375 7.765625 
C 8.09375 3.484375 11.59375 0 15.90625 0 
C 20.203125 0 23.703125 3.484375 23.703125 7.765625 
z
" id="CMMIB10-58"/>
       <path d="M 15.40625 51.796875 
C 18.796875 51 21.5 51 23 51 
C 25.40625 51 31.09375 51 37.796875 55.109375 
C 40.90625 56.984375 46.09375 61.5 46.09375 63.796875 
C 46.09375 64.296875 46.09375 65.5 44.90625 65.5 
C 44.796875 65.5 44.59375 65.5 43.59375 64.984375 
C 39 63.34375 34.09375 62.21875 28.5 62.21875 
C 22.796875 62.21875 18 63.3125 13.296875 65 
C 12.59375 65.203125 12.296875 65.40625 12 65.40625 
C 10.796875 65.40625 10.796875 64.40625 10.796875 62.71875 
L 10.796875 33.796875 
C 10.796875 31.90625 10.796875 30.8125 12.796875 30.8125 
C 13.796875 30.8125 14 30.921875 14.796875 31.90625 
C 16 33.3125 19.59375 37.71875 28.09375 37.71875 
C 37.296875 37.71875 37.296875 28.359375 37.296875 20.5 
C 37.296875 13.3125 37.296875 2.96875 25 2.96875 
C 21.296875 2.96875 15 4.359375 11.59375 10 
C 16.90625 10 18.203125 13.984375 18.203125 16.171875 
C 18.203125 19.75 15.59375 22.421875 11.90625 22.421875 
C 8.90625 22.421875 5.59375 20.640625 5.59375 15.96875 
C 5.59375 7.34375 13.5 -1 25.40625 -1 
C 40.796875 -1 50.5 7.859375 50.5 20.203125 
C 50.5 32.34375 42.203125 41 28.5 41 
C 24.5 41 19.703125 40.203125 15.40625 37.015625 
z
" id="CMBX12-53"/>
      </defs>
      <g transform="translate(164.517338 247.94192)scale(0.18 -0.18)">
       <use transform="scale(0.996264)" xlink:href="#CMBX12-48"/>
       <use transform="translate(56.039851 0)scale(0.996264)" xlink:href="#CMMIB10-58"/>
       <use transform="translate(87.864782 0)scale(0.996264)" xlink:href="#CMBX12-53"/>
      </g>
     </g>
    </g>
    <g id="xtick_2">
     <g id="line2d_2">
      <g>
       <use style="stroke:#000000;stroke-width:0.8;" x="312.467838" xlink:href="#m8a3e31f12e" y="228.44192"/>
      </g>
     </g>
     <g id="text_2">
      <!-- $1.0$ -->
      <defs>
       <path d="M 34.59375 62.109375 
C 34.59375 65 34.40625 65 31.203125 65 
C 23.796875 59 12.703125 59 10.5 59 
L 8.59375 59 
L 8.59375 54.734375 
L 10.5 54.734375 
C 14 54.734375 19.296875 55.328125 23.296875 56.625 
L 23.296875 4.171875 
L 9.40625 4.171875 
L 9.40625 0 
C 13.59375 0 24.09375 0 28.796875 0 
C 33.5 0 44.09375 0 48.296875 0 
L 48.296875 4.171875 
L 34.59375 4.171875 
z
" id="CMBX12-49"/>
      </defs>
      <g transform="translate(299.467853 247.94192)scale(0.18 -0.18)">
       <use transform="scale(0.996264)" xlink:href="#CMBX12-49"/>
       <use transform="translate(56.039851 0)scale(0.996264)" xlink:href="#CMMIB10-58"/>
       <use transform="translate(87.864782 0)scale(0.996264)" xlink:href="#CMBX12-48"/>
      </g>
     </g>
    </g>
    <g id="xtick_3">
     <g id="line2d_3">
      <g>
       <use style="stroke:#000000;stroke-width:0.8;" x="447.418354" xlink:href="#m8a3e31f12e" y="228.44192"/>
      </g>
     </g>
     <g id="text_3">
      <!-- $1.5$ -->
      <g transform="translate(434.418369 247.94192)scale(0.18 -0.18)">
       <use transform="scale(0.996264)" xlink:href="#CMBX12-49"/>
       <use transform="translate(56.039851 0)scale(0.996264)" xlink:href="#CMMIB10-58"/>
       <use transform="translate(87.864782 0)scale(0.996264)" xlink:href="#CMBX12-53"/>
      </g>
     </g>
    </g>
    <g id="xtick_4">
     <g id="line2d_4">
      <g>
       <use style="stroke:#000000;stroke-width:0.8;" x="582.36887" xlink:href="#m8a3e31f12e" y="228.44192"/>
      </g>
     </g>
     <g id="text_4">
      <!-- $2.0$ -->
      <defs>
       <path d="M 50.5 21.375 
L 46.296875 21.375 
C 46 19.28125 45.296875 13.40625 43.796875 12.421875 
C 43 11.71875 35.203125 11.71875 33.703125 11.71875 
L 18.203125 11.71875 
C 22 14.90625 31.09375 22.46875 32.59375 23.578125 
C 43.703125 31.84375 50.5 36.90625 50.5 46.46875 
C 50.5 58.203125 39.796875 65.28125 26.59375 65.28125 
C 15.296875 65.28125 5.59375 58.90625 5.59375 49.453125 
C 5.59375 44.171875 9.90625 42.6875 12.203125 42.6875 
C 15.296875 42.6875 18.90625 44.765625 18.90625 49.359375 
C 18.90625 53.546875 15.796875 55.625 12.703125 56.03125 
C 16.703125 60.609375 22 61 24.09375 61 
C 33.296875 61 37.703125 53.546875 37.703125 46.375 
C 37.703125 38.609375 32.40625 31.453125 28.296875 27.171875 
L 6.59375 4.578125 
C 5.59375 3.671875 5.59375 3.484375 5.59375 1.6875 
L 5.59375 0 
L 47.59375 0 
z
" id="CMBX12-50"/>
      </defs>
      <g transform="translate(569.368885 247.94192)scale(0.18 -0.18)">
       <use transform="scale(0.996264)" xlink:href="#CMBX12-50"/>
       <use transform="translate(56.039851 0)scale(0.996264)" xlink:href="#CMMIB10-58"/>
       <use transform="translate(87.864782 0)scale(0.996264)" xlink:href="#CMBX12-48"/>
      </g>
     </g>
    </g>
    <g id="xtick_5">
     <g id="line2d_5">
      <g>
       <use style="stroke:#000000;stroke-width:0.8;" x="717.319385" xlink:href="#m8a3e31f12e" y="228.44192"/>
      </g>
     </g>
     <g id="text_5">
      <!-- $2.5$ -->
      <g transform="translate(704.3194 247.94192)scale(0.18 -0.18)">
       <use transform="scale(0.996264)" xlink:href="#CMBX12-50"/>
       <use transform="translate(56.039851 0)scale(0.996264)" xlink:href="#CMMIB10-58"/>
       <use transform="translate(87.864782 0)scale(0.996264)" xlink:href="#CMBX12-53"/>
      </g>
     </g>
    </g>
    <g id="text_6">
     <!-- \textbf{Z Statistic} -->
     <defs>
      <path d="M 61.59375 63.6875 
C 62.40625 64.890625 62.40625 65.390625 62.40625 66.09375 
C 62.40625 68.28125 61.59375 68.28125 59.5 68.28125 
L 8.90625 68.28125 
L 7.796875 44.6875 
L 12 44.6875 
C 12.796875 58.828125 20.40625 64 33.40625 64 
L 47 64 
L 7 4.78125 
C 6.203125 3.578125 6.203125 3.171875 6.203125 2.28125 
C 6.203125 0 6.90625 0 9.09375 0 
L 61.296875 0 
L 63 27.765625 
L 58.796875 27.765625 
C 58 16.109375 56.09375 4.5625 36.203125 4.5625 
L 21.59375 4.5625 
z
" id="CMBX12-90"/>
      <path d="M 25.40625 43.46875 
C 15.5 45.625 15.203125 52.75 15.203125 54.140625 
C 15.203125 59.171875 18.5 65.03125 28.203125 65.03125 
C 37.90625 65.03125 46.59375 60.359375 48.703125 47.34375 
C 49 45.25 49 45.25 50.90625 45.25 
C 53 45.25 53 45.546875 53 47.8125 
L 53 66.4375 
C 53 68.3125 53 69.015625 51.5 69.015625 
C 50.796875 69.015625 50.5 68.921875 49.59375 67.921875 
L 45.296875 63.046875 
C 42.796875 65.140625 37.796875 69 28.09375 69 
C 13.796875 69 6.203125 60.09375 6.203125 49.3125 
C 6.203125 42.6875 9.796875 38.03125 11.203125 36.640625 
C 16.40625 31.5 19.203125 30.90625 29.59375 28.625 
C 39.59375 26.453125 40.796875 26.25 43 24.1875 
C 44.296875 22.890625 47.203125 20.125 47.203125 15.078125 
C 47.203125 10.8125 45.09375 3 33.90625 3 
C 25.09375 3 11.203125 5.96875 10.40625 20.421875 
C 10.296875 22.203125 10.296875 22.5 8.296875 22.5 
C 6.203125 22.5 6.203125 22.203125 6.203125 19.921875 
L 6.203125 1.296875 
C 6.203125 -0.59375 6.203125 -1.28125 7.703125 -1.28125 
C 8.40625 -1.28125 8.5 -1.1875 9.5 -0.296875 
C 10.59375 0.796875 11.5 2.09375 14 4.578125 
C 19.796875 0.015625 28 -1.265625 34 -1.265625 
C 49.59375 -1.265625 56.203125 9.21875 56.203125 19.71875 
C 56.203125 29 50 37.90625 39.09375 40.375 
z
" id="CMBX12-83"/>
      <path d="M 21.09375 40 
L 35.5 40 
L 35.5 44.265625 
L 21.09375 44.265625 
L 21.09375 63 
L 16.90625 63 
C 16.796875 53.203125 12 43.375 2.09375 43.375 
L 2.09375 40 
L 10.203125 40 
L 10.203125 12.328125 
C 10.203125 1.78125 18.40625 -0.5 25.59375 -0.5 
C 33 -0.5 37.40625 5.078125 37.40625 12.421875 
L 37.40625 17.703125 
L 33.203125 17.703125 
L 33.203125 12.53125 
C 33.203125 5.953125 30.203125 3.078125 27.09375 3.078125 
C 21.09375 3.078125 21.09375 9.75 21.09375 12.03125 
z
" id="CMBX12-116"/>
      <path d="M 46 29.65625 
C 46 38.8125 38.703125 44.984375 24.59375 44.984375 
C 19 44.984375 7.203125 44.984375 7.203125 36.46875 
C 7.203125 32.203125 10.40625 30.390625 13.09375 30.390625 
C 16.09375 30.390625 19 32.484375 19 36.296875 
C 19 38.203125 18.296875 39.984375 16.59375 41.09375 
C 19.90625 42 22.296875 42 24.203125 42 
C 31 42 35.09375 38.203125 35.09375 29.984375 
L 35.09375 25.984375 
C 19.296875 25.984375 3.40625 21.59375 3.40625 10.5625 
C 3.40625 1.484375 15 -0.5 21.90625 -0.5 
C 29.59375 -0.5 34.5 3.640625 36.5 7.96875 
C 36.5 4.28125 36.5 0 46.59375 0 
L 51.703125 0 
C 53.796875 0 54.59375 0 54.59375 2.265625 
C 54.59375 4.265625 53.703125 4.265625 52.296875 4.265625 
C 46 4.265625 46 5.84375 46 8.15625 
z
M 35.09375 13.78125 
C 35.09375 4.546875 26.703125 2.78125 23.5 2.78125 
C 18.59375 2.78125 14.5 6.09375 14.5 10.71875 
C 14.5 19.890625 25.296875 23 35.09375 23 
z
" id="CMBX12-97"/>
      <path d="M 22.296875 61.84375 
C 22.296875 65.921875 19 69 15.09375 69 
C 11 69 7.90625 65.625 7.90625 61.84375 
C 7.90625 58.0625 11 54.6875 15.09375 54.6875 
C 19 54.6875 22.296875 57.765625 22.296875 61.84375 
z
M 4.703125 44 
L 4.703125 39.328125 
C 10.59375 39.328125 11.296875 39.328125 11.296875 35.46875 
L 11.296875 4.0625 
L 4.40625 4.0625 
L 4.40625 -0.203125 
C 6.703125 0 13.59375 0 16.296875 0 
C 19.09375 0 25.5 0 27.90625 -0.203125 
L 27.90625 4.0625 
L 21.703125 4.0625 
L 21.703125 44 
z
" id="CMBX12-105"/>
      <path d="M 37.703125 42.421875 
C 37.703125 44.3125 37.703125 45 36.203125 45 
C 35.59375 45 35.40625 45 33.90625 44.109375 
C 33.5 43.8125 32.40625 43.109375 31.90625 42.8125 
C 29.09375 44.40625 25.40625 45 21.796875 45 
C 18.796875 45 3.796875 45 3.796875 32.125 
C 3.796875 21.703125 16.203125 19.53125 19.296875 19.03125 
C 22 18.546875 25.296875 17.9375 25.703125 17.9375 
C 29.703125 17.046875 33.703125 14.5625 33.703125 10.40625 
C 33.703125 2.78125 24.59375 2.78125 22.5 2.78125 
C 17.40625 2.78125 11.09375 4.359375 8.296875 14 
C 7.703125 15.984375 7.59375 15.984375 5.90625 15.984375 
C 3.796875 15.984375 3.796875 15.6875 3.796875 13.40625 
L 3.796875 2.0625 
C 3.796875 0.1875 3.796875 -0.5 5.296875 -0.5 
C 6 -0.5 6.203125 -0.5 8.203125 1.09375 
L 10.796875 2.984375 
C 15.296875 -0.5 20.703125 -0.5 22.5 -0.5 
C 28 -0.5 40.5 0.6875 40.5 13.875 
C 40.5 18.625 37.90625 21.90625 35.90625 23.6875 
C 31.796875 27.046875 28.40625 27.65625 23 28.640625 
C 16.59375 29.734375 10.59375 30.828125 10.59375 35.578125 
C 10.59375 42.015625 19.5 42.015625 21.59375 42.015625 
C 32.703125 42.015625 33.296875 35.078125 33.5 32.609375 
C 33.59375 31.328125 34.40625 31.328125 35.59375 31.328125 
C 37.703125 31.328125 37.703125 31.625 37.703125 33.90625 
z
" id="CMBX12-115"/>
      <path d="M 46.796875 11.765625 
C 46.796875 12.953125 45.703125 12.953125 44.703125 12.953125 
C 43.09375 12.953125 43 12.859375 42.5 11.671875 
C 41.796875 9.765625 39.09375 3.078125 29.90625 3.078125 
C 15.796875 3.078125 15.796875 18.21875 15.796875 22.703125 
C 15.796875 28.578125 15.90625 41.625 29 41.625 
C 29.703125 41.625 35.59375 41.625 35.59375 41.125 
C 35.59375 41 35.5 40.90625 35.296875 40.8125 
C 35 40.515625 33.703125 39 33.703125 36.46875 
C 33.703125 32.25 37.09375 30.53125 39.59375 30.53125 
C 41.703125 30.53125 45.5 31.859375 45.5 36.65625 
C 45.5 45 34 45 28.59375 45 
C 10.796875 45 3.796875 33.515625 3.796875 22.09375 
C 3.796875 8.625 13.296875 -0.5 28 -0.5 
C 43.703125 -0.5 46.796875 11.0625 46.796875 11.765625 
z
" id="CMBX12-99"/>
     </defs>
     <g transform="translate(404.506565 271.72083)scale(0.22 -0.22)">
      <use transform="scale(0.996264)" xlink:href="#CMBX12-90"/>
      <use transform="translate(105.853051 0)scale(0.996264)" xlink:href="#CMBX12-83"/>
      <use transform="translate(168.119552 0)scale(0.996264)" xlink:href="#CMBX12-116"/>
      <use transform="translate(211.706102 0)scale(0.996264)" xlink:href="#CMBX12-97"/>
      <use transform="translate(266.18929 0)scale(0.996264)" xlink:href="#CMBX12-116"/>
      <use transform="translate(309.775841 0)scale(0.996264)" xlink:href="#CMBX12-105"/>
      <use transform="translate(340.909091 0)scale(0.996264)" xlink:href="#CMBX12-115"/>
      <use transform="translate(385.118428 0)scale(0.996264)" xlink:href="#CMBX12-116"/>
      <use transform="translate(428.704978 0)scale(0.996264)" xlink:href="#CMBX12-105"/>
      <use transform="translate(459.838229 0)scale(0.996264)" xlink:href="#CMBX12-99"/>
     </g>
    </g>
   </g>
   <g id="matplotlib.axis_2">
    <g id="ytick_1">
     <g id="line2d_6">
      <defs>
       <path d="M 0 0 
L -3.5 0 
" id="ma9fe94485d" style="stroke:#000000;stroke-width:0.8;"/>
      </defs>
      <g>
       <use style="stroke:#000000;stroke-width:0.8;" x="69.55691" xlink:href="#ma9fe94485d" y="228.44192"/>
      </g>
     </g>
     <g id="text_7">
      <!-- $0.0$ -->
      <g transform="translate(36.55694 234.69192)scale(0.18 -0.18)">
       <use transform="scale(0.996264)" xlink:href="#CMBX12-48"/>
       <use transform="translate(56.039851 0)scale(0.996264)" xlink:href="#CMMIB10-58"/>
       <use transform="translate(87.864782 0)scale(0.996264)" xlink:href="#CMBX12-48"/>
      </g>
     </g>
    </g>
    <g id="ytick_2">
     <g id="line2d_7">
      <g>
       <use style="stroke:#000000;stroke-width:0.8;" x="69.55691" xlink:href="#ma9fe94485d" y="188.161166"/>
      </g>
     </g>
     <g id="text_8">
      <!-- $0.2$ -->
      <g transform="translate(36.55694 194.411166)scale(0.18 -0.18)">
       <use transform="scale(0.996264)" xlink:href="#CMBX12-48"/>
       <use transform="translate(56.039851 0)scale(0.996264)" xlink:href="#CMMIB10-58"/>
       <use transform="translate(87.864782 0)scale(0.996264)" xlink:href="#CMBX12-50"/>
      </g>
     </g>
    </g>
    <g id="ytick_3">
     <g id="line2d_8">
      <g>
       <use style="stroke:#000000;stroke-width:0.8;" x="69.55691" xlink:href="#ma9fe94485d" y="147.880411"/>
      </g>
     </g>
     <g id="text_9">
      <!-- $0.4$ -->
      <defs>
       <path d="M 43.296875 15.71875 
L 53 15.71875 
L 53 20 
L 43.296875 20 
L 43.296875 62.609375 
C 43.296875 65.09375 43.203125 65.5 40.703125 65.5 
C 38.90625 65.5 38.703125 65.5 37.5 64 
L 3.09375 20 
L 3.09375 15.71875 
L 31.5 15.71875 
L 31.5 4.171875 
L 20.59375 4.171875 
L 20.59375 0 
C 23.5 0 33.40625 0 37 0 
C 40.40625 0 50.296875 0 53 -0.09375 
L 53 4.171875 
L 43.296875 4.171875 
z
M 32.40625 51.59375 
L 32.40625 20 
L 7.703125 20 
z
" id="CMBX12-52"/>
      </defs>
      <g transform="translate(36.55694 154.130411)scale(0.18 -0.18)">
       <use transform="scale(0.996264)" xlink:href="#CMBX12-48"/>
       <use transform="translate(56.039851 0)scale(0.996264)" xlink:href="#CMMIB10-58"/>
       <use transform="translate(87.864782 0)scale(0.996264)" xlink:href="#CMBX12-52"/>
      </g>
     </g>
    </g>
    <g id="ytick_4">
     <g id="line2d_9">
      <g>
       <use style="stroke:#000000;stroke-width:0.8;" x="69.55691" xlink:href="#ma9fe94485d" y="107.599657"/>
      </g>
     </g>
     <g id="text_10">
      <!-- $0.6$ -->
      <defs>
       <path d="M 17.40625 36.25 
C 17.40625 42.328125 17.703125 48.53125 20.5 53.90625 
C 22.703125 58.109375 27.796875 62 34.296875 62 
C 36.203125 62 39.796875 61.703125 42.203125 59.203125 
C 38.40625 58.8125 36.796875 56.015625 36.796875 53.3125 
C 36.796875 49.703125 39.5 47.40625 42.703125 47.40625 
C 45.296875 47.40625 48.59375 49.109375 48.59375 53.5 
C 48.59375 59.484375 44.59375 65.578125 34.09375 65.578125 
C 21.59375 65.578125 4.703125 57.796875 4.703125 31.796875 
C 4.703125 25.109375 4.703125 -1 28.40625 -1 
C 41.59375 -1 51.40625 6.765625 51.40625 20.703125 
C 51.40625 34.640625 41.703125 42 29.796875 42 
C 27.796875 42 21.40625 42 17.40625 33.546875 
z
M 28.296875 2.96875 
C 21.90625 2.96875 19.40625 8.34375 19 9.140625 
C 17.59375 12.4375 17.59375 20.40625 17.59375 21.296875 
C 17.59375 33.546875 22.90625 38.734375 28.796875 38.734375 
C 38.703125 38.734375 38.703125 30.765625 38.703125 20.796875 
C 38.703125 10.9375 38.703125 2.96875 28.296875 2.96875 
z
" id="CMBX12-54"/>
      </defs>
      <g transform="translate(36.55694 113.849657)scale(0.18 -0.18)">
       <use transform="scale(0.996264)" xlink:href="#CMBX12-48"/>
       <use transform="translate(56.039851 0)scale(0.996264)" xlink:href="#CMMIB10-58"/>
       <use transform="translate(87.864782 0)scale(0.996264)" xlink:href="#CMBX12-54"/>
      </g>
     </g>
    </g>
    <g id="ytick_5">
     <g id="line2d_10">
      <g>
       <use style="stroke:#000000;stroke-width:0.8;" x="69.55691" xlink:href="#ma9fe94485d" y="67.318903"/>
      </g>
     </g>
     <g id="text_11">
      <!-- $0.8$ -->
      <defs>
       <path d="M 37.703125 36.921875 
C 42.703125 39.515625 48.296875 43.203125 48.296875 51 
C 48.296875 61.28125 39.09375 65.671875 28.203125 65.671875 
C 14.90625 65.671875 7.796875 58.09375 7.796875 48.40625 
C 7.796875 43.03125 10.5 37.03125 17.90625 33.140625 
C 6.59375 28.140625 4.703125 21.265625 4.703125 16.078125 
C 4.703125 4.59375 14.703125 -1 27.90625 -1 
C 42.703125 -1 51.40625 6.96875 51.40625 18.5625 
C 51.40625 29.4375 42.796875 34.140625 37.703125 36.921875 
z
M 19.703125 47.265625 
C 17.703125 48.375 14.90625 50.671875 14.90625 53.984375 
C 14.90625 62 25.59375 62 27.90625 62 
C 36.40625 62 41.203125 57.53125 41.203125 50.96875 
C 41.203125 46.890625 39.40625 42.609375 33.703125 39.328125 
z
M 22 30.59375 
L 35.796875 22.734375 
C 39.09375 20.84375 43.40625 18.46875 43.40625 13.40625 
C 43.40625 5.453125 35.40625 2.96875 28.203125 2.96875 
C 18.296875 2.96875 12.703125 8.234375 12.703125 16.078125 
C 12.703125 23.328125 17.203125 27.90625 22 30.59375 
z
" id="CMBX12-56"/>
      </defs>
      <g transform="translate(36.55694 73.568903)scale(0.18 -0.18)">
       <use transform="scale(0.996264)" xlink:href="#CMBX12-48"/>
       <use transform="translate(56.039851 0)scale(0.996264)" xlink:href="#CMMIB10-58"/>
       <use transform="translate(87.864782 0)scale(0.996264)" xlink:href="#CMBX12-56"/>
      </g>
     </g>
    </g>
    <g id="ytick_6">
     <g id="line2d_11">
      <g>
       <use style="stroke:#000000;stroke-width:0.8;" x="69.55691" xlink:href="#ma9fe94485d" y="27.038148"/>
      </g>
     </g>
     <g id="text_12">
      <!-- $1.0$ -->
      <g transform="translate(36.55694 33.288148)scale(0.18 -0.18)">
       <use transform="scale(0.996264)" xlink:href="#CMBX12-49"/>
       <use transform="translate(56.039851 0)scale(0.996264)" xlink:href="#CMMIB10-58"/>
       <use transform="translate(87.864782 0)scale(0.996264)" xlink:href="#CMBX12-48"/>
      </g>
     </g>
    </g>
    <g id="text_13">
     <!-- \textbf{Recall} -->
     <defs>
      <path d="M 52.90625 33.65625 
C 66.40625 37.234375 69.703125 44.359375 69.703125 49.734375 
C 69.703125 59.671875 59.203125 68 40.703125 68 
L 3.796875 68 
L 3.796875 63.71875 
L 14.40625 63.71875 
L 14.40625 4.171875 
L 3.796875 4.171875 
L 3.796875 0 
C 6.703125 0 17.09375 0 20.703125 0 
C 24.296875 0 34.796875 0 37.703125 0 
L 37.703125 4.171875 
L 27.09375 4.171875 
L 27.09375 32.71875 
L 39 32.71875 
C 43 32.71875 46.203125 31.515625 48.40625 28.890625 
C 51.40625 25.46875 51.40625 23.25 51.40625 16.515625 
C 51.40625 9.78125 51.40625 5.671875 56.5 2.25 
C 61.703125 -1.28125 69.90625 -1.28125 72.09375 -1.28125 
C 82.296875 -1.28125 83.5 7.71875 83.5 9.109375 
C 83.5 10.8125 82.703125 11.109375 81.40625 11.109375 
C 79.5 11.109375 79.40625 10.421875 79.296875 9.109375 
C 78.796875 4.09375 75.703125 2 72.90625 2 
C 66.5 2 65.796875 8.65625 65 17.765625 
C 64.40625 23.03125 63.703125 30.375 52.90625 33.65625 
z
M 38.796875 36 
L 27.09375 36 
L 27.09375 63.71875 
L 39 63.71875 
C 55.296875 63.71875 55.59375 55.6875 55.59375 49.90625 
C 55.59375 44.515625 55.5 36 38.796875 36 
z
" id="CMBX12-82"/>
      <path d="M 45.203125 22 
C 47.5 22 48.09375 22 48.09375 24.484375 
C 48.09375 27.46875 47.40625 34.890625 42.796875 39.5625 
C 38.59375 43.71875 33 45 27.203125 45 
C 11.59375 45 3.09375 34.890625 3.09375 22.40625 
C 3.09375 8.515625 13.40625 -0.5 28.5 -0.5 
C 43.59375 -0.5 48.09375 10 48.09375 11.6875 
C 48.09375 13.171875 46.59375 13.171875 46 13.171875 
C 44.40625 13.171875 44.296875 12.875 43.703125 11.59375 
C 41.09375 5.15625 34.5 3.078125 29.703125 3.078125 
C 15.203125 3.078125 15.09375 16.453125 15.09375 22 
z
M 15.09375 24.890625 
C 15.296875 28.9375 15.40625 32.8125 17.5 36.375 
C 19.40625 39.546875 22.90625 41.71875 27.203125 41.71875 
C 37.90625 41.71875 38.796875 29.828125 38.90625 24.890625 
z
" id="CMBX12-101"/>
      <path d="M 21.703125 69 
L 4.40625 69 
L 4.40625 64.328125 
C 10.59375 64.328125 11.296875 64.328125 11.296875 60.40625 
L 11.296875 4.0625 
L 4.40625 4.0625 
L 4.40625 -0.203125 
C 6.703125 0 13.796875 0 16.5 0 
C 19.203125 0 26.296875 0 28.59375 -0.203125 
L 28.59375 4.0625 
L 21.703125 4.0625 
z
" id="CMBX12-108"/>
     </defs>
     <g transform="translate(27.27777 153.48833)rotate(-90)scale(0.22 -0.22)">
      <use transform="scale(0.996264)" xlink:href="#CMBX12-82"/>
      <use transform="translate(83.598675 0)scale(0.996264)" xlink:href="#CMBX12-101"/>
      <use transform="translate(134.737943 0)scale(0.996264)" xlink:href="#CMBX12-99"/>
      <use transform="translate(184.551143 0)scale(0.996264)" xlink:href="#CMBX12-97"/>
      <use transform="translate(239.034331 0)scale(0.996264)" xlink:href="#CMBX12-108"/>
      <use transform="translate(270.167581 0)scale(0.996264)" xlink:href="#CMBX12-108"/>
     </g>
    </g>
   </g>
   <g id="line2d_12">
    <path clip-path="url(#p7bf5517319)" d="M 69.55691 31.066224 
L 74.145228 31.066224 
L 74.415129 32.408916 
L 86.830576 32.408916 
L 87.100477 33.751607 
L 90.069388 33.751607 
L 90.339289 35.094299 
L 94.117904 35.094299 
L 94.387805 36.436991 
L 109.772164 36.436991 
L 110.042065 37.779683 
L 114.360481 37.779683 
L 114.630382 39.122375 
L 134.603059 39.122375 
L 134.87296 40.465066 
L 144.319496 40.465066 
L 144.589397 41.807758 
L 155.655339 41.807758 
L 155.92524 43.15045 
L 156.734943 43.15045 
L 157.004844 44.493142 
L 184.80465 44.493142 
L 185.074551 45.835834 
L 187.23376 45.835834 
L 187.503661 47.178525 
L 188.043463 47.178525 
L 188.313364 48.521217 
L 205.58703 48.521217 
L 205.856931 49.863909 
L 207.206436 49.863909 
L 207.476337 51.206601 
L 211.254951 51.206601 
L 211.524853 52.549293 
L 212.874358 52.549293 
L 213.144259 53.891985 
L 216.652972 53.891985 
L 216.922873 55.234676 
L 229.878123 55.234676 
L 230.148024 57.92006 
L 230.417925 57.92006 
L 230.687826 59.262752 
L 236.085846 59.262752 
L 236.355747 60.605444 
L 236.895549 60.605444 
L 237.16545 61.948135 
L 241.753768 61.948135 
L 242.023669 63.290827 
L 250.390601 63.290827 
L 250.660502 64.633519 
L 255.788622 64.633519 
L 256.058523 65.976211 
L 257.677929 65.976211 
L 257.94783 67.318903 
L 263.615752 67.318903 
L 263.885653 68.661594 
L 275.761298 68.661594 
L 276.031199 70.004286 
L 281.42922 70.004286 
L 281.699121 71.346978 
L 282.238923 71.346978 
L 282.508824 72.68967 
L 294.114568 72.68967 
L 294.384469 74.032362 
L 300.862094 74.032362 
L 301.131995 75.375053 
L 304.910609 75.375053 
L 305.18051 76.717745 
L 305.450411 76.717745 
L 305.720312 78.060437 
L 306.260115 78.060437 
L 306.530016 79.403129 
L 307.339719 79.403129 
L 307.60962 80.745821 
L 320.025067 80.745821 
L 320.294968 82.088513 
L 322.454176 82.088513 
L 322.724077 83.431204 
L 331.36091 83.431204 
L 331.630811 84.773896 
L 332.440515 84.773896 
L 332.710416 86.116588 
L 339.997743 86.116588 
L 340.267644 87.45928 
L 345.665665 87.45928 
L 345.935566 88.801972 
L 346.205467 88.801972 
L 346.475368 90.144663 
L 348.364675 90.144663 
L 348.634576 91.487355 
L 351.333587 91.487355 
L 351.603488 92.830047 
L 353.762696 92.830047 
L 354.032597 94.172739 
L 354.8423 94.172739 
L 355.112201 95.515431 
L 355.921904 95.515431 
L 356.191805 96.858122 
L 361.050024 96.858122 
L 361.589826 99.543506 
L 364.288836 99.543506 
L 364.558737 100.886198 
L 372.385867 100.886198 
L 372.655768 102.22889 
L 373.19557 102.22889 
L 373.465471 103.571582 
L 374.005273 103.571582 
L 374.275174 104.914273 
L 376.974185 104.914273 
L 377.783888 108.942349 
L 379.133393 108.942349 
L 379.403294 110.285041 
L 379.673195 110.285041 
L 379.943096 111.627732 
L 380.752799 111.627732 
L 381.0227 112.970424 
L 392.898346 112.970424 
L 393.168247 114.313116 
L 402.614783 114.313116 
L 402.884684 115.655808 
L 411.251616 115.655808 
L 411.521517 116.9985 
L 419.348647 116.9985 
L 419.618548 118.341191 
L 421.237954 118.341191 
L 421.507855 119.683883 
L 426.366073 119.683883 
L 426.635975 121.026575 
L 432.573797 121.026575 
L 432.843698 122.369267 
L 436.082511 122.369267 
L 436.352412 123.711959 
L 436.892214 123.711959 
L 437.162115 125.054651 
L 452.816375 125.054651 
L 453.086276 126.397342 
L 454.975583 126.397342 
L 455.245484 127.740034 
L 455.515385 127.740034 
L 455.785286 129.082726 
L 456.055187 129.082726 
L 456.325088 130.425418 
L 469.010436 130.425418 
L 469.280337 131.76811 
L 470.629843 131.76811 
L 471.439546 135.796185 
L 474.138556 135.796185 
L 474.408457 137.138877 
L 481.155983 137.138877 
L 481.425884 138.481569 
L 487.633608 138.481569 
L 487.903509 139.82426 
L 488.17341 143.852336 
L 488.443311 143.852336 
L 488.713212 145.195028 
L 493.57143 145.195028 
L 493.841331 146.53772 
L 498.969451 146.53772 
L 499.239352 147.880411 
L 500.858758 147.880411 
L 501.128659 149.223103 
L 502.748065 149.223103 
L 503.017966 150.565795 
L 506.256779 150.565795 
L 506.52668 151.908487 
L 506.796581 151.908487 
L 507.336383 154.59387 
L 508.685888 154.59387 
L 508.955789 155.936562 
L 509.765492 155.936562 
L 510.035393 157.279254 
L 511.384898 157.279254 
L 511.654799 159.964638 
L 515.163513 159.964638 
L 515.433414 161.307329 
L 517.322721 161.307329 
L 517.592622 162.650021 
L 521.371237 162.650021 
L 521.641138 163.992713 
L 527.039158 163.992713 
L 527.309059 165.335405 
L 528.658564 165.335405 
L 528.928465 166.678097 
L 540.804111 166.678097 
L 541.074012 168.020788 
L 544.312824 168.020788 
L 544.582725 169.36348 
L 547.551637 169.36348 
L 547.821538 170.706172 
L 551.330251 170.706172 
L 551.600152 172.048864 
L 555.108865 172.048864 
L 555.378767 173.391556 
L 556.998173 173.391556 
L 557.268074 174.734248 
L 558.617579 174.734248 
L 558.88748 176.076939 
L 569.41362 176.076939 
L 569.683521 177.419631 
L 572.11263 177.419631 
L 572.382531 178.762323 
L 575.081542 178.762323 
L 575.351443 180.105015 
L 582.098969 180.105015 
L 582.36887 181.447707 
L 591.815406 181.447707 
L 592.085307 182.790398 
L 593.164911 182.790398 
L 593.434812 184.13309 
L 602.881348 184.13309 
L 603.151249 185.475782 
L 604.770655 185.475782 
L 605.040556 186.818474 
L 606.659962 186.818474 
L 606.929863 188.161166 
L 610.708478 188.161166 
L 610.978379 189.503857 
L 611.788082 189.503857 
L 612.057983 190.846549 
L 615.836598 190.846549 
L 616.106499 192.189241 
L 650.923732 192.189241 
L 651.193633 193.531933 
L 654.432445 193.531933 
L 654.702346 194.874625 
L 665.768288 194.874625 
L 666.038189 196.217317 
L 666.30809 196.217317 
L 666.577991 197.560008 
L 674.944923 197.560008 
L 675.214824 198.9027 
L 679.26334 198.9027 
L 679.533241 200.245392 
L 686.280767 200.245392 
L 686.550668 201.588084 
L 689.78948 201.588084 
L 690.329282 204.273467 
L 700.585521 204.273467 
L 700.855422 205.616159 
L 701.125323 205.616159 
L 701.395224 206.958851 
L 711.381563 206.958851 
L 711.651464 208.301543 
L 712.731068 208.301543 
L 713.000969 209.644235 
L 730.004734 209.644235 
L 730.274635 210.986926 
L 734.053249 210.986926 
L 734.32315 212.329618 
L 743.229884 212.329618 
L 743.499785 213.67231 
L 747.818202 213.67231 
L 748.088103 215.015002 
L 752.136618 215.015002 
L 752.406519 216.357694 
L 759.423946 216.357694 
L 759.693847 217.700386 
L 766.171472 217.700386 
L 766.441373 219.043077 
L 767.790878 219.043077 
L 768.060779 220.385769 
L 788.303357 220.385769 
L 788.573258 221.728461 
L 852 221.728461 
L 852 221.728461 
" style="fill:none;stroke:#e41a1c;stroke-linecap:square;stroke-width:2;"/>
   </g>
   <g id="line2d_13">
    <path clip-path="url(#p7bf5517319)" d="M 69.55691 31.721957 
L 92.768399 31.721957 
L 93.0383 34.063861 
L 106.26345 34.063861 
L 106.533351 36.405766 
L 129.74484 36.405766 
L 130.014741 38.74767 
L 134.063257 38.74767 
L 134.333158 41.089574 
L 140.810782 41.089574 
L 141.080683 43.431479 
L 153.496131 43.431479 
L 153.766032 45.773383 
L 193.441483 45.773383 
L 193.711384 48.115287 
L 260.107038 48.115287 
L 260.376939 50.457192 
L 262.536147 50.457192 
L 262.806048 52.799096 
L 263.345851 52.799096 
L 263.615752 55.141 
L 301.671797 55.141 
L 301.941698 57.482904 
L 304.370807 57.482904 
L 304.640708 59.824809 
L 318.13576 59.824809 
L 318.405661 62.166713 
L 350.253983 62.166713 
L 350.523884 64.508617 
L 367.257748 64.508617 
L 367.527649 66.850522 
L 368.607253 66.850522 
L 368.877154 69.192426 
L 373.735372 69.192426 
L 374.005273 71.53433 
L 378.053789 71.53433 
L 378.32369 73.876235 
L 380.482898 73.876235 
L 380.752799 76.218139 
L 420.428251 76.218139 
L 420.698152 80.901948 
L 424.206865 80.901948 
L 424.476766 83.243852 
L 431.764094 83.243852 
L 432.033995 85.585756 
L 441.21063 85.585756 
L 441.480531 87.927661 
L 450.657166 87.927661 
L 450.927067 90.269565 
L 461.99301 90.269565 
L 462.262911 92.611469 
L 462.532812 92.611469 
L 462.802713 94.953374 
L 479.536577 94.953374 
L 479.806478 97.295278 
L 482.235587 97.295278 
L 482.505488 99.637182 
L 491.952024 99.637182 
L 492.221925 101.979087 
L 494.111232 101.979087 
L 494.381133 104.320991 
L 506.52668 104.320991 
L 506.796581 106.662895 
L 515.433414 106.662895 
L 515.703315 109.0048 
L 530.547872 109.0048 
L 530.817773 111.346704 
L 534.326486 111.346704 
L 534.596387 113.688608 
L 538.1051 113.688608 
L 538.375002 116.030513 
L 544.582725 116.030513 
L 544.852626 118.372417 
L 548.631241 118.372417 
L 548.901142 120.714321 
L 567.794214 120.714321 
L 568.064115 123.056225 
L 581.289266 123.056225 
L 581.559167 125.39813 
L 586.147484 125.39813 
L 586.417385 127.740034 
L 586.687286 127.740034 
L 586.957187 130.081938 
L 593.434812 130.081938 
L 593.704713 132.423843 
L 626.632639 132.423843 
L 626.90254 134.765747 
L 630.141352 134.765747 
L 630.411253 137.107651 
L 630.951055 137.107651 
L 631.490857 141.79146 
L 633.919967 141.79146 
L 634.189868 144.133364 
L 658.48096 144.133364 
L 658.750862 146.475269 
L 669.546903 146.475269 
L 669.816804 148.817173 
L 673.055616 148.817173 
L 673.325517 151.159077 
L 682.232251 151.159077 
L 682.502152 153.500982 
L 686.010866 153.500982 
L 686.280767 155.842886 
L 693.028293 155.842886 
L 693.298194 158.18479 
L 705.983542 158.18479 
L 706.253443 160.526695 
L 721.367901 160.526695 
L 721.637802 162.868599 
L 725.146515 162.868599 
L 725.416416 165.210503 
L 726.49602 165.210503 
L 726.765921 167.552408 
L 747.008499 167.552408 
L 747.2784 169.894312 
L 752.406519 169.894312 
L 752.67642 172.236216 
L 759.154045 172.236216 
L 759.423946 174.578121 
L 791.002367 174.578121 
L 791.272268 176.920025 
L 801.798408 176.920025 
L 802.068309 181.603834 
L 819.341975 181.603834 
L 819.881777 186.287642 
L 820.961381 186.287642 
L 821.231282 188.629547 
L 821.771084 188.629547 
L 822.040986 190.971451 
L 831.757423 190.971451 
L 832.027324 193.313355 
L 839.584553 193.313355 
L 839.854454 195.655259 
L 852 195.655259 
L 852 195.655259 
" style="fill:none;stroke:#377eb8;stroke-dasharray:7.4,3.2;stroke-dashoffset:0;stroke-linecap:round;stroke-width:2;"/>
   </g>
   <g id="patch_3">
    <path d="M 69.55691 228.44192 
L 69.55691 12 
" style="fill:none;stroke:#000000;stroke-linecap:square;stroke-linejoin:miter;stroke-width:0.8;"/>
   </g>
   <g id="patch_4">
    <path d="M 852 228.44192 
L 852 12 
" style="fill:none;"/>
   </g>
   <g id="patch_5">
    <path d="M 69.55691 228.44192 
L 852 228.44192 
" style="fill:none;stroke:#000000;stroke-linecap:square;stroke-linejoin:miter;stroke-width:0.8;"/>
   </g>
   <g id="patch_6">
    <path d="M 69.55691 12 
L 852 12 
" style="fill:none;"/>
   </g>
   <g id="legend_1">
    <g id="patch_7">
     <path d="M 619.49812 40.7111 
L 847.2 40.7111 
Q 850.4 40.7111 850.4 37.5111 
L 850.4 16.8 
Q 850.4 13.6 847.2 13.6 
L 619.49812 13.6 
Q 616.29812 13.6 616.29812 16.8 
L 616.29812 37.5111 
Q 616.29812 40.7111 619.49812 40.7111 
z
" style="fill:none;opacity:0;"/>
    </g>
    <g id="line2d_14">
     <path d="M 622.69812 25.6 
L 654.69812 25.6 
" style="fill:none;stroke:#e41a1c;stroke-linecap:square;stroke-width:2;"/>
    </g>
    <g id="line2d_15"/>
    <g id="text_14">
     <!-- \textbf{Train} -->
     <defs>
      <path d="M 72 67.265625 
L 6.09375 67.265625 
L 4.09375 43.703125 
L 8.296875 43.703125 
C 9.203125 54.546875 10 63 24.40625 63 
L 32.5 63 
L 32.5 4.171875 
L 17.40625 4.171875 
L 17.40625 0 
C 25.40625 0 35.703125 0 39.09375 0 
C 45.203125 0 52.796875 0 60.796875 0 
L 60.796875 4.171875 
L 45.703125 4.171875 
L 45.703125 63 
L 53.703125 63 
C 68.09375 63 68.90625 54.640625 69.796875 43.703125 
L 74 43.703125 
z
" id="CMBX12-84"/>
      <path d="M 20.796875 22.046875 
C 20.796875 25.296875 21.5 41 33.203125 41 
C 31.796875 39.921875 31.09375 38.25 31.09375 36.5 
C 31.09375 32.484375 34.40625 30.8125 36.90625 30.8125 
C 39.40625 30.8125 42.703125 32.484375 42.703125 36.515625 
C 42.703125 41.53125 37.5 44.28125 32.703125 44.28125 
C 24.796875 44.28125 21.40625 37.515625 20 33.390625 
L 19.90625 33.390625 
L 19.90625 44 
L 3.5 44 
L 3.5 39.328125 
C 9.703125 39.328125 10.40625 39.328125 10.40625 35.46875 
L 10.40625 4.0625 
L 3.5 4.0625 
L 3.5 -0.203125 
C 5.796875 0 13.296875 0 16.09375 0 
C 19 0 27.09375 0 29.5 -0.203125 
L 29.5 4.0625 
L 20.796875 4.0625 
z
" id="CMBX12-114"/>
      <path d="M 53.09375 30.0625 
C 53.09375 39.453125 49 44.28125 38 44.28125 
C 30.796875 44.28125 24.59375 40.859375 21.203125 33.484375 
L 21.09375 33.484375 
L 21.09375 44 
L 4.203125 44 
L 4.203125 39.328125 
C 10.40625 39.328125 11.09375 39.328125 11.09375 35.46875 
L 11.09375 4.0625 
L 4.203125 4.0625 
L 4.203125 -0.203125 
C 6.5 0 13.703125 0 16.5 0 
C 19.296875 0 26.59375 0 28.90625 -0.203125 
L 28.90625 4.0625 
L 22 4.0625 
L 22 25.109375 
C 22 35.765625 30 41 36.40625 41 
C 40.09375 41 42.203125 38.640625 42.203125 31.140625 
L 42.203125 4.0625 
L 35.296875 4.0625 
L 35.296875 -0.203125 
C 37.59375 0 44.796875 0 47.59375 0 
C 50.40625 0 57.703125 0 60 -0.203125 
L 60 4.0625 
L 53.09375 4.0625 
z
" id="CMBX12-110"/>
     </defs>
     <g transform="translate(667.49812 31.2)scale(0.16 -0.16)">
      <use transform="scale(0.996264)" xlink:href="#CMBX12-84"/>
      <use transform="translate(68.608395 0)scale(0.996264)" xlink:href="#CMBX12-114"/>
      <use transform="translate(114.385903 0)scale(0.996264)" xlink:href="#CMBX12-97"/>
      <use transform="translate(168.869091 0)scale(0.996264)" xlink:href="#CMBX12-105"/>
      <use transform="translate(200.002341 0)scale(0.996264)" xlink:href="#CMBX12-110"/>
     </g>
    </g>
    <g id="line2d_16">
     <path d="M 741.6185 25.6 
L 773.6185 25.6 
" style="fill:none;stroke:#377eb8;stroke-dasharray:7.4,3.2;stroke-dashoffset:0;stroke-linecap:round;stroke-width:2;"/>
    </g>
    <g id="line2d_17"/>
    <g id="text_15">
     <!-- \textbf{Testing} -->
     <defs>
      <path d="M 13 18.578125 
C 17.796875 16 23.40625 16 24.90625 16 
C 38.703125 16 44.203125 23.65625 44.203125 30.625 
C 44.203125 35.703125 41.296875 39.296875 40.09375 40.28125 
C 43 41.8125 45.40625 42.1875 47.09375 42.390625 
C 46.796875 41.90625 46.5 41.53125 46.5 40.28125 
C 46.5 38.28125 47.90625 36.46875 50.5 36.46875 
C 53.09375 36.46875 54.5 38.359375 54.5 40.4375 
C 54.5 42.828125 52.703125 46 48.5 46 
C 44.203125 46 40.09375 43.796875 38 41.90625 
C 33.90625 44.28125 30 45.171875 24.90625 45.171875 
C 11.09375 45.171875 5.59375 37.546875 5.59375 30.578125 
C 5.59375 27.5 6.59375 23.453125 10.796875 20.078125 
C 9.09375 18.140625 7.296875 14.578125 7.296875 10.921875 
C 7.296875 6.5625 9.59375 2.8125 11.703125 1.1875 
C 9.296875 0.609375 3.09375 -1.640625 3.09375 -7.203125 
C 3.09375 -12.96875 9.59375 -19.5 28 -19.5 
C 44.59375 -19.5 53 -14.21875 53 -6.859375 
C 53 1.78125 47.203125 4.609375 44.703125 5.78125 
C 39.90625 8.140625 33.5 8.140625 24.703125 8.140625 
C 22.203125 8.140625 17.796875 8.140625 17.296875 8.234375 
C 13 8.984375 11.796875 12.953125 11.796875 14.953125 
C 11.796875 15.78125 11.90625 17.296875 13 18.578125 
z
M 24.90625 19.171875 
C 16.203125 19.171875 16.203125 26.015625 16.203125 30.578125 
C 16.203125 35.15625 16.203125 42 24.90625 42 
C 33.59375 42 33.59375 35.15625 33.59375 30.578125 
C 33.59375 26.015625 33.59375 19.171875 24.90625 19.171875 
z
M 30.5 -1 
C 37.796875 -1 44.796875 -2.265625 44.796875 -7.296875 
C 44.796875 -10.703125 41.296875 -16.328125 28.09375 -16.328125 
C 14.90625 -16.328125 11.296875 -10.890625 11.296875 -7.203125 
C 11.296875 -1 17.59375 -1 19.09375 -1 
z
" id="CMBX12-103"/>
     </defs>
     <g transform="translate(786.4185 31.2)scale(0.16 -0.16)">
      <use transform="translate(0 -0.072648)scale(0.996264)" xlink:href="#CMBX12-84"/>
      <use transform="translate(68.608395 -0.072648)scale(0.996264)" xlink:href="#CMBX12-101"/>
      <use transform="translate(119.747663 -0.072648)scale(0.996264)" xlink:href="#CMBX12-115"/>
      <use transform="translate(163.957 -0.072648)scale(0.996264)" xlink:href="#CMBX12-116"/>
      <use transform="translate(207.54355 -0.072648)scale(0.996264)" xlink:href="#CMBX12-105"/>
      <use transform="translate(238.6768 -0.072648)scale(0.996264)" xlink:href="#CMBX12-110"/>
      <use transform="translate(300.943301 -0.072648)scale(0.996264)" xlink:href="#CMBX12-103"/>
     </g>
    </g>
   </g>
  </g>
 </g>
 <defs>
  <clipPath id="p7bf5517319">
   <rect height="216.44192" width="782.44309" x="69.55691" y="12"/>
  </clipPath>
 </defs>
</svg>
