<?xml version="1.0" encoding="utf-8" standalone="no"?>
<!DOCTYPE svg PUBLIC "-//W3C//DTD SVG 1.1//EN"
  "http://www.w3.org/Graphics/SVG/1.1/DTD/svg11.dtd">
<!-- Created with matplotlib (https://matplotlib.org/) -->
<svg height="288pt" version="1.1" viewBox="0 0 864 288" width="864pt" xmlns="http://www.w3.org/2000/svg" xmlns:xlink="http://www.w3.org/1999/xlink">
 <defs>
  <style type="text/css">
*{stroke-linecap:butt;stroke-linejoin:round;}
  </style>
 </defs>
 <g id="figure_1">
  <g id="patch_1">
   <path d="M 0 288 
L 864 288 
L 864 0 
L 0 0 
z
" style="fill:#ffffff;"/>
  </g>
  <g id="axes_1">
   <g id="patch_2">
    <path d="M 71.99997 225.99886 
L 842.604918 225.99886 
L 842.604918 12 
L 71.99997 12 
z
" style="fill:#ffffff;"/>
   </g>
   <g id="matplotlib.axis_1">
    <g id="xtick_1">
     <g id="line2d_1">
      <defs>
       <path d="M 0 0 
L 0 3.5 
" id="m1d88574d58" style="stroke:#000000;stroke-width:0.8;"/>
      </defs>
      <g>
       <use style="stroke:#000000;stroke-width:0.8;" x="264.418701" xlink:href="#m1d88574d58" y="225.99886"/>
      </g>
     </g>
     <g id="text_1">
      <!-- $5$ -->
      <defs>
       <path d="M 15.40625 51.796875 
C 18.796875 51 21.5 51 23 51 
C 25.40625 51 31.09375 51 37.796875 55.109375 
C 40.90625 56.984375 46.09375 61.5 46.09375 63.796875 
C 46.09375 64.296875 46.09375 65.5 44.90625 65.5 
C 44.796875 65.5 44.59375 65.5 43.59375 64.984375 
C 39 63.34375 34.09375 62.21875 28.5 62.21875 
C 22.796875 62.21875 18 63.3125 13.296875 65 
C 12.59375 65.203125 12.296875 65.40625 12 65.40625 
C 10.796875 65.40625 10.796875 64.40625 10.796875 62.71875 
L 10.796875 33.796875 
C 10.796875 31.90625 10.796875 30.8125 12.796875 30.8125 
C 13.796875 30.8125 14 30.921875 14.796875 31.90625 
C 16 33.3125 19.59375 37.71875 28.09375 37.71875 
C 37.296875 37.71875 37.296875 28.359375 37.296875 20.5 
C 37.296875 13.3125 37.296875 2.96875 25 2.96875 
C 21.296875 2.96875 15 4.359375 11.59375 10 
C 16.90625 10 18.203125 13.984375 18.203125 16.171875 
C 18.203125 19.75 15.59375 22.421875 11.90625 22.421875 
C 8.90625 22.421875 5.59375 20.640625 5.59375 15.96875 
C 5.59375 7.34375 13.5 -1 25.40625 -1 
C 40.796875 -1 50.5 7.859375 50.5 20.203125 
C 50.5 32.34375 42.203125 41 28.5 41 
C 24.5 41 19.703125 40.203125 15.40625 37.015625 
z
" id="CMBX12-53"/>
      </defs>
      <g transform="translate(259.356201 245.49886)scale(0.18 -0.18)">
       <use transform="scale(0.996264)" xlink:href="#CMBX12-53"/>
      </g>
     </g>
    </g>
    <g id="xtick_2">
     <g id="line2d_2">
      <g>
       <use style="stroke:#000000;stroke-width:0.8;" x="456.837432" xlink:href="#m1d88574d58" y="225.99886"/>
      </g>
     </g>
     <g id="text_2">
      <!-- $10$ -->
      <defs>
       <path d="M 34.59375 62.109375 
C 34.59375 65 34.40625 65 31.203125 65 
C 23.796875 59 12.703125 59 10.5 59 
L 8.59375 59 
L 8.59375 54.734375 
L 10.5 54.734375 
C 14 54.734375 19.296875 55.328125 23.296875 56.625 
L 23.296875 4.171875 
L 9.40625 4.171875 
L 9.40625 0 
C 13.59375 0 24.09375 0 28.796875 0 
C 33.5 0 44.09375 0 48.296875 0 
L 48.296875 4.171875 
L 34.59375 4.171875 
z
" id="CMBX12-49"/>
       <path d="M 51.703125 31.84375 
C 51.703125 41.375 51.703125 65.28125 28.09375 65.28125 
C 4.40625 65.28125 4.40625 41.46875 4.40625 31.84375 
C 4.40625 22.3125 4.40625 -1 28 -1 
C 51.59375 -1 51.703125 22.015625 51.703125 31.84375 
z
M 28.09375 2.28125 
C 24.90625 2.28125 22.5 3.5625 20.5 5.65625 
C 18 8.140625 16.40625 9.703125 16.40625 33.03125 
C 16.40625 39.984375 16.40625 46.3125 17.203125 51.484375 
C 18.59375 61.3125 25.796875 62 28 62 
C 31.203125 62 37.40625 60.515625 38.796875 52.1875 
C 39.703125 47.109375 39.703125 39.078125 39.703125 33.03125 
C 39.703125 9.609375 38.203125 8.234375 35.203125 5.25 
C 33.203125 3.265625 30.5 2.28125 28.09375 2.28125 
z
" id="CMBX12-48"/>
      </defs>
      <g transform="translate(446.712432 245.49886)scale(0.18 -0.18)">
       <use transform="scale(0.996264)" xlink:href="#CMBX12-49"/>
       <use transform="translate(56.039851 0)scale(0.996264)" xlink:href="#CMBX12-48"/>
      </g>
     </g>
    </g>
    <g id="xtick_3">
     <g id="line2d_3">
      <g>
       <use style="stroke:#000000;stroke-width:0.8;" x="649.256163" xlink:href="#m1d88574d58" y="225.99886"/>
      </g>
     </g>
     <g id="text_3">
      <!-- $15$ -->
      <g transform="translate(639.131163 245.49886)scale(0.18 -0.18)">
       <use transform="scale(0.996264)" xlink:href="#CMBX12-49"/>
       <use transform="translate(56.039851 0)scale(0.996264)" xlink:href="#CMBX12-53"/>
      </g>
     </g>
    </g>
    <g id="xtick_4">
     <g id="line2d_4">
      <g>
       <use style="stroke:#000000;stroke-width:0.8;" x="841.674894" xlink:href="#m1d88574d58" y="225.99886"/>
      </g>
     </g>
     <g id="text_4">
      <!-- $20$ -->
      <defs>
       <path d="M 50.5 21.375 
L 46.296875 21.375 
C 46 19.28125 45.296875 13.40625 43.796875 12.421875 
C 43 11.71875 35.203125 11.71875 33.703125 11.71875 
L 18.203125 11.71875 
C 22 14.90625 31.09375 22.46875 32.59375 23.578125 
C 43.703125 31.84375 50.5 36.90625 50.5 46.46875 
C 50.5 58.203125 39.796875 65.28125 26.59375 65.28125 
C 15.296875 65.28125 5.59375 58.90625 5.59375 49.453125 
C 5.59375 44.171875 9.90625 42.6875 12.203125 42.6875 
C 15.296875 42.6875 18.90625 44.765625 18.90625 49.359375 
C 18.90625 53.546875 15.796875 55.625 12.703125 56.03125 
C 16.703125 60.609375 22 61 24.09375 61 
C 33.296875 61 37.703125 53.546875 37.703125 46.375 
C 37.703125 38.609375 32.40625 31.453125 28.296875 27.171875 
L 6.59375 4.578125 
C 5.59375 3.671875 5.59375 3.484375 5.59375 1.6875 
L 5.59375 0 
L 47.59375 0 
z
" id="CMBX12-50"/>
      </defs>
      <g transform="translate(831.549894 245.49886)scale(0.18 -0.18)">
       <use transform="scale(0.996264)" xlink:href="#CMBX12-50"/>
       <use transform="translate(56.039851 0)scale(0.996264)" xlink:href="#CMBX12-48"/>
      </g>
     </g>
    </g>
    <g id="text_5">
     <!-- \textbf{Time (Minutes)} -->
     <defs>
      <path d="M 72 67.265625 
L 6.09375 67.265625 
L 4.09375 43.703125 
L 8.296875 43.703125 
C 9.203125 54.546875 10 63 24.40625 63 
L 32.5 63 
L 32.5 4.171875 
L 17.40625 4.171875 
L 17.40625 0 
C 25.40625 0 35.703125 0 39.09375 0 
C 45.203125 0 52.796875 0 60.796875 0 
L 60.796875 4.171875 
L 45.703125 4.171875 
L 45.703125 63 
L 53.703125 63 
C 68.09375 63 68.90625 54.640625 69.796875 43.703125 
L 74 43.703125 
z
" id="CMBX12-84"/>
      <path d="M 22.296875 61.84375 
C 22.296875 65.921875 19 69 15.09375 69 
C 11 69 7.90625 65.625 7.90625 61.84375 
C 7.90625 58.0625 11 54.6875 15.09375 54.6875 
C 19 54.6875 22.296875 57.765625 22.296875 61.84375 
z
M 4.703125 44 
L 4.703125 39.328125 
C 10.59375 39.328125 11.296875 39.328125 11.296875 35.46875 
L 11.296875 4.0625 
L 4.40625 4.0625 
L 4.40625 -0.203125 
C 6.703125 0 13.59375 0 16.296875 0 
C 19.09375 0 25.5 0 27.90625 -0.203125 
L 27.90625 4.0625 
L 21.703125 4.0625 
L 21.703125 44 
z
" id="CMBX12-105"/>
      <path d="M 84.40625 30.0625 
C 84.40625 39.15625 80.5 44.28125 69.296875 44.28125 
C 59.203125 44.28125 54.5 37.609375 52.90625 34.46875 
C 51.296875 42.8125 44.5 44.28125 38.09375 44.28125 
C 28.5 44.28125 23.296875 38.203125 21.203125 33.484375 
L 21.09375 33.484375 
L 21.09375 44 
L 4.203125 44 
L 4.203125 39.328125 
C 10.40625 39.328125 11.09375 39.328125 11.09375 35.46875 
L 11.09375 4.0625 
L 4.203125 4.0625 
L 4.203125 -0.203125 
C 6.5 0 13.703125 0 16.5 0 
C 19.296875 0 26.59375 0 28.90625 -0.203125 
L 28.90625 4.0625 
L 22 4.0625 
L 22 25.109375 
C 22 35.875 30.09375 41 36.40625 41 
C 40.09375 41 42.296875 38.828125 42.296875 31.140625 
L 42.296875 4.0625 
L 35.40625 4.0625 
L 35.40625 -0.203125 
C 37.703125 0 44.90625 0 47.703125 0 
C 50.5 0 57.796875 0 60.09375 -0.203125 
L 60.09375 4.0625 
L 53.203125 4.0625 
L 53.203125 25.109375 
C 53.203125 35.875 61.296875 41 67.59375 41 
C 71.296875 41 73.5 38.828125 73.5 31.140625 
L 73.5 4.0625 
L 66.59375 4.0625 
L 66.59375 -0.203125 
C 68.90625 0 76.09375 0 78.90625 0 
C 81.703125 0 89 0 91.296875 -0.203125 
L 91.296875 4.0625 
L 84.40625 4.0625 
z
" id="CMBX12-109"/>
      <path d="M 45.203125 22 
C 47.5 22 48.09375 22 48.09375 24.484375 
C 48.09375 27.46875 47.40625 34.890625 42.796875 39.5625 
C 38.59375 43.71875 33 45 27.203125 45 
C 11.59375 45 3.09375 34.890625 3.09375 22.40625 
C 3.09375 8.515625 13.40625 -0.5 28.5 -0.5 
C 43.59375 -0.5 48.09375 10 48.09375 11.6875 
C 48.09375 13.171875 46.59375 13.171875 46 13.171875 
C 44.40625 13.171875 44.296875 12.875 43.703125 11.59375 
C 41.09375 5.15625 34.5 3.078125 29.703125 3.078125 
C 15.203125 3.078125 15.09375 16.453125 15.09375 22 
z
M 15.09375 24.890625 
C 15.296875 28.9375 15.40625 32.8125 17.5 36.375 
C 19.40625 39.546875 22.90625 41.71875 27.203125 41.71875 
C 37.90625 41.71875 38.796875 29.828125 38.90625 24.890625 
z
" id="CMBX12-101"/>
      <path d="M 37.40625 -23.8125 
C 37.40625 -23.40625 37.40625 -23.203125 35.5 -21.421875 
C 24.296875 -10.296875 20 7.203125 20 24.6875 
C 20 44.28125 24.90625 60.390625 36.09375 71.609375 
C 37.296875 72.796875 37.40625 72.90625 37.40625 73.296875 
C 37.40625 74.5 36.203125 74.5 35.703125 74.5 
C 34.796875 74.5 34.59375 74.5 32 72.40625 
C 17.59375 60.984375 10.796875 42.6875 10.796875 24.8125 
C 10.796875 6.515625 17.703125 -11.28125 31.90625 -22.8125 
C 34.5 -25 34.703125 -25 35.703125 -25 
C 36.203125 -25 37.40625 -25 37.40625 -23.8125 
z
" id="CMBX12-40"/>
      <path d="M 53.296875 12.453125 
L 29.296875 65.90625 
C 28.40625 68 27.5 68 25.40625 68 
L 4.09375 68 
L 4.09375 63.71875 
L 14.703125 63.71875 
L 14.703125 6.9375 
C 14.703125 4.75 14.59375 4.65625 12 4.25 
C 10.203125 4.0625 8.203125 4.0625 6.40625 4.0625 
L 4.09375 4.0625 
L 4.09375 -0.203125 
C 6.40625 0 14.203125 0 17 0 
C 19.796875 0 27.703125 0 30 -0.203125 
L 30 4.0625 
L 27.703125 4.0625 
C 25 4.0625 24.796875 4.0625 22.40625 4.359375 
C 19.5 4.765625 19.40625 4.859375 19.40625 7.046875 
L 19.40625 62.53125 
L 19.5 62.53125 
L 46.703125 2.09375 
C 47.203125 1 47.796875 0 49.5 0 
C 51.203125 0 51.796875 1 52.296875 2.09375 
L 80 63.71875 
L 80.09375 63.71875 
L 80.09375 4.0625 
L 69.5 4.0625 
L 69.5 -0.203125 
C 72.203125 0 82.59375 0 86 0 
C 89.40625 0 99.796875 0 102.5 -0.203125 
L 102.5 4.0625 
L 91.90625 4.0625 
L 91.90625 63.71875 
L 102.5 63.71875 
L 102.5 68 
L 81.203125 68 
C 79.09375 68 78.203125 68 77.296875 65.90625 
z
" id="CMBX12-77"/>
      <path d="M 53.09375 30.0625 
C 53.09375 39.453125 49 44.28125 38 44.28125 
C 30.796875 44.28125 24.59375 40.859375 21.203125 33.484375 
L 21.09375 33.484375 
L 21.09375 44 
L 4.203125 44 
L 4.203125 39.328125 
C 10.40625 39.328125 11.09375 39.328125 11.09375 35.46875 
L 11.09375 4.0625 
L 4.203125 4.0625 
L 4.203125 -0.203125 
C 6.5 0 13.703125 0 16.5 0 
C 19.296875 0 26.59375 0 28.90625 -0.203125 
L 28.90625 4.0625 
L 22 4.0625 
L 22 25.109375 
C 22 35.765625 30 41 36.40625 41 
C 40.09375 41 42.203125 38.640625 42.203125 31.140625 
L 42.203125 4.0625 
L 35.296875 4.0625 
L 35.296875 -0.203125 
C 37.59375 0 44.796875 0 47.59375 0 
C 50.40625 0 57.703125 0 60 -0.203125 
L 60 4.0625 
L 53.09375 4.0625 
z
" id="CMBX12-110"/>
      <path d="M 35.296875 44.671875 
L 35.296875 40 
C 41.5 40 42.203125 40 42.203125 36.125 
L 42.203125 16.5 
C 42.203125 8.890625 37.703125 2.78125 29.90625 2.78125 
C 22.40625 2.78125 22 5.265625 22 10.6875 
L 22 44.671875 
L 4.203125 44.671875 
L 4.203125 40 
C 10.40625 40 11.09375 40 11.09375 36.125 
L 11.09375 12.40625 
C 11.09375 2.390625 17.796875 -0.5 28.5 -0.5 
C 30.90625 -0.5 38.296875 -0.5 42.59375 7.75 
L 42.703125 7.75 
L 42.703125 0 
L 60 0 
L 60 4.5625 
C 53.796875 4.5625 53.09375 4.5625 53.09375 8.4375 
L 53.09375 44.671875 
z
" id="CMBX12-117"/>
      <path d="M 21.09375 40 
L 35.5 40 
L 35.5 44.265625 
L 21.09375 44.265625 
L 21.09375 63 
L 16.90625 63 
C 16.796875 53.203125 12 43.375 2.09375 43.375 
L 2.09375 40 
L 10.203125 40 
L 10.203125 12.328125 
C 10.203125 1.78125 18.40625 -0.5 25.59375 -0.5 
C 33 -0.5 37.40625 5.078125 37.40625 12.421875 
L 37.40625 17.703125 
L 33.203125 17.703125 
L 33.203125 12.53125 
C 33.203125 5.953125 30.203125 3.078125 27.09375 3.078125 
C 21.09375 3.078125 21.09375 9.75 21.09375 12.03125 
z
" id="CMBX12-116"/>
      <path d="M 37.703125 42.421875 
C 37.703125 44.3125 37.703125 45 36.203125 45 
C 35.59375 45 35.40625 45 33.90625 44.109375 
C 33.5 43.8125 32.40625 43.109375 31.90625 42.8125 
C 29.09375 44.40625 25.40625 45 21.796875 45 
C 18.796875 45 3.796875 45 3.796875 32.125 
C 3.796875 21.703125 16.203125 19.53125 19.296875 19.03125 
C 22 18.546875 25.296875 17.9375 25.703125 17.9375 
C 29.703125 17.046875 33.703125 14.5625 33.703125 10.40625 
C 33.703125 2.78125 24.59375 2.78125 22.5 2.78125 
C 17.40625 2.78125 11.09375 4.359375 8.296875 14 
C 7.703125 15.984375 7.59375 15.984375 5.90625 15.984375 
C 3.796875 15.984375 3.796875 15.6875 3.796875 13.40625 
L 3.796875 2.0625 
C 3.796875 0.1875 3.796875 -0.5 5.296875 -0.5 
C 6 -0.5 6.203125 -0.5 8.203125 1.09375 
L 10.796875 2.984375 
C 15.296875 -0.5 20.703125 -0.5 22.5 -0.5 
C 28 -0.5 40.5 0.6875 40.5 13.875 
C 40.5 18.625 37.90625 21.90625 35.90625 23.6875 
C 31.796875 27.046875 28.40625 27.65625 23 28.640625 
C 16.59375 29.734375 10.59375 30.828125 10.59375 35.578125 
C 10.59375 42.015625 19.5 42.015625 21.59375 42.015625 
C 32.703125 42.015625 33.296875 35.078125 33.5 32.609375 
C 33.59375 31.328125 34.40625 31.328125 35.59375 31.328125 
C 37.703125 31.328125 37.703125 31.625 37.703125 33.90625 
z
" id="CMBX12-115"/>
      <path d="M 32.796875 24.703125 
C 32.796875 42.984375 25.90625 60.78125 11.703125 72.3125 
C 9.09375 74.5 8.90625 74.5 7.90625 74.5 
C 7.40625 74.5 6.203125 74.5 6.203125 73.3125 
C 6.203125 72.921875 6.203125 72.71875 8.09375 70.9375 
C 19.296875 59.796875 23.59375 42.3125 23.59375 24.8125 
C 23.59375 5.21875 18.703125 -10.875 7.5 -22.109375 
C 6.296875 -23.3125 6.203125 -23.40625 6.203125 -23.8125 
C 6.203125 -25 7.40625 -25 7.90625 -25 
C 8.796875 -25 9 -25 11.59375 -22.90625 
C 26 -11.484375 32.796875 6.8125 32.796875 24.703125 
z
" id="CMBX12-41"/>
     </defs>
     <g transform="translate(371.627204 270.5)scale(0.22 -0.22)">
      <use transform="translate(0 -0.0934)scale(0.996264)" xlink:href="#CMBX12-84"/>
      <use transform="translate(77.94837 -0.0934)scale(0.996264)" xlink:href="#CMBX12-105"/>
      <use transform="translate(109.081621 -0.0934)scale(0.996264)" xlink:href="#CMBX12-109"/>
      <use transform="translate(202.481372 -0.0934)scale(0.996264)" xlink:href="#CMBX12-101"/>
      <use transform="translate(290.980539 -0.0934)scale(0.996264)" xlink:href="#CMBX12-40"/>
      <use transform="translate(334.56709 -0.0934)scale(0.996264)" xlink:href="#CMBX12-77"/>
      <use transform="translate(440.881515 -0.0934)scale(0.996264)" xlink:href="#CMBX12-105"/>
      <use transform="translate(472.014765 -0.0934)scale(0.996264)" xlink:href="#CMBX12-110"/>
      <use transform="translate(531.167941 -0.0934)scale(0.996264)" xlink:href="#CMBX12-117"/>
      <use transform="translate(593.434441 -0.0934)scale(0.996264)" xlink:href="#CMBX12-116"/>
      <use transform="translate(637.020992 -0.0934)scale(0.996264)" xlink:href="#CMBX12-101"/>
      <use transform="translate(688.160259 -0.0934)scale(0.996264)" xlink:href="#CMBX12-115"/>
      <use transform="translate(732.369596 -0.0934)scale(0.996264)" xlink:href="#CMBX12-41"/>
     </g>
    </g>
   </g>
   <g id="matplotlib.axis_2">
    <g id="ytick_1">
     <g id="line2d_5">
      <defs>
       <path d="M 0 0 
L -3.5 0 
" id="medaeef8bb7" style="stroke:#000000;stroke-width:0.8;"/>
      </defs>
      <g>
       <use style="stroke:#000000;stroke-width:0.8;" x="71.99997" xlink:href="#medaeef8bb7" y="225.99886"/>
      </g>
     </g>
     <g id="text_6">
      <!-- $0.1$ -->
      <defs>
       <path d="M 23.703125 7.765625 
C 23.703125 12.046875 20.203125 15.53125 15.90625 15.53125 
C 11.59375 15.53125 8.09375 12.046875 8.09375 7.765625 
C 8.09375 3.484375 11.59375 0 15.90625 0 
C 20.203125 0 23.703125 3.484375 23.703125 7.765625 
z
" id="CMMIB10-58"/>
      </defs>
      <g transform="translate(39 232.24886)scale(0.18 -0.18)">
       <use transform="scale(0.996264)" xlink:href="#CMBX12-48"/>
       <use transform="translate(56.039851 0)scale(0.996264)" xlink:href="#CMMIB10-58"/>
       <use transform="translate(87.864782 0)scale(0.996264)" xlink:href="#CMBX12-49"/>
      </g>
     </g>
    </g>
    <g id="ytick_2">
     <g id="line2d_6">
      <g>
       <use style="stroke:#000000;stroke-width:0.8;" x="71.99997" xlink:href="#medaeef8bb7" y="187.149059"/>
      </g>
     </g>
     <g id="text_7">
      <!-- $0.2$ -->
      <g transform="translate(39 193.399059)scale(0.18 -0.18)">
       <use transform="scale(0.996264)" xlink:href="#CMBX12-48"/>
       <use transform="translate(56.039851 0)scale(0.996264)" xlink:href="#CMMIB10-58"/>
       <use transform="translate(87.864782 0)scale(0.996264)" xlink:href="#CMBX12-50"/>
      </g>
     </g>
    </g>
    <g id="ytick_3">
     <g id="line2d_7">
      <g>
       <use style="stroke:#000000;stroke-width:0.8;" x="71.99997" xlink:href="#medaeef8bb7" y="148.299258"/>
      </g>
     </g>
     <g id="text_8">
      <!-- $0.3$ -->
      <defs>
       <path d="M 26.09375 33 
C 37.296875 33 37.296875 22.71875 37.296875 17.984375 
C 37.296875 13.53125 37.296875 3.0625 26.5 3.0625 
C 24.40625 3.0625 17.796875 3.0625 13 6.625 
C 17.296875 7.515625 18.796875 10.59375 18.796875 13.5625 
C 18.796875 17.625 15.90625 20.5 11.796875 20.5 
C 7.59375 20.5 4.703125 17.625 4.703125 13.46875 
C 4.703125 4.34375 14.703125 -1 27 -1 
C 43.5 -1 51.40625 8.015625 51.40625 17.921875 
C 51.40625 22.796875 48.90625 32.203125 33.40625 34.875 
C 42.203125 37.59375 48.296875 43.8125 48.296875 51.71875 
C 48.296875 59.25 41.09375 65.578125 27.203125 65.578125 
C 16 65.578125 7.796875 59.65625 7.796875 51.53125 
C 7.796875 46.515625 11.703125 44.90625 14.296875 44.90625 
C 17.203125 44.90625 20.703125 46.8125 20.703125 51.4375 
C 20.703125 53.765625 19.703125 57.171875 15 57.875 
C 19.203125 62 26 62 26.59375 62 
C 35.5 62 35.5 55.03125 35.5 52.015625 
C 35.5 48.984375 35.09375 44.328125 31.90625 40.203125 
C 29.296875 36.75 26.703125 36.5625 22.90625 36.5625 
C 21.703125 36.265625 19.703125 36.265625 19.296875 36.078125 
C 18.703125 35.78125 18.703125 35.078125 18.703125 34.6875 
C 18.703125 33 19.296875 33 21.296875 33 
z
" id="CMBX12-51"/>
      </defs>
      <g transform="translate(39 154.549258)scale(0.18 -0.18)">
       <use transform="scale(0.996264)" xlink:href="#CMBX12-48"/>
       <use transform="translate(56.039851 0)scale(0.996264)" xlink:href="#CMMIB10-58"/>
       <use transform="translate(87.864782 0)scale(0.996264)" xlink:href="#CMBX12-51"/>
      </g>
     </g>
    </g>
    <g id="ytick_4">
     <g id="line2d_8">
      <g>
       <use style="stroke:#000000;stroke-width:0.8;" x="71.99997" xlink:href="#medaeef8bb7" y="109.449457"/>
      </g>
     </g>
     <g id="text_9">
      <!-- $0.4$ -->
      <defs>
       <path d="M 43.296875 15.71875 
L 53 15.71875 
L 53 20 
L 43.296875 20 
L 43.296875 62.609375 
C 43.296875 65.09375 43.203125 65.5 40.703125 65.5 
C 38.90625 65.5 38.703125 65.5 37.5 64 
L 3.09375 20 
L 3.09375 15.71875 
L 31.5 15.71875 
L 31.5 4.171875 
L 20.59375 4.171875 
L 20.59375 0 
C 23.5 0 33.40625 0 37 0 
C 40.40625 0 50.296875 0 53 -0.09375 
L 53 4.171875 
L 43.296875 4.171875 
z
M 32.40625 51.59375 
L 32.40625 20 
L 7.703125 20 
z
" id="CMBX12-52"/>
      </defs>
      <g transform="translate(39 115.699457)scale(0.18 -0.18)">
       <use transform="scale(0.996264)" xlink:href="#CMBX12-48"/>
       <use transform="translate(56.039851 0)scale(0.996264)" xlink:href="#CMMIB10-58"/>
       <use transform="translate(87.864782 0)scale(0.996264)" xlink:href="#CMBX12-52"/>
      </g>
     </g>
    </g>
    <g id="ytick_5">
     <g id="line2d_9">
      <g>
       <use style="stroke:#000000;stroke-width:0.8;" x="71.99997" xlink:href="#medaeef8bb7" y="70.599656"/>
      </g>
     </g>
     <g id="text_10">
      <!-- $0.5$ -->
      <g transform="translate(39 76.849656)scale(0.18 -0.18)">
       <use transform="scale(0.996264)" xlink:href="#CMBX12-48"/>
       <use transform="translate(56.039851 0)scale(0.996264)" xlink:href="#CMMIB10-58"/>
       <use transform="translate(87.864782 0)scale(0.996264)" xlink:href="#CMBX12-53"/>
      </g>
     </g>
    </g>
    <g id="ytick_6">
     <g id="line2d_10">
      <g>
       <use style="stroke:#000000;stroke-width:0.8;" x="71.99997" xlink:href="#medaeef8bb7" y="31.749855"/>
      </g>
     </g>
     <g id="text_11">
      <!-- $0.6$ -->
      <defs>
       <path d="M 17.40625 36.25 
C 17.40625 42.328125 17.703125 48.53125 20.5 53.90625 
C 22.703125 58.109375 27.796875 62 34.296875 62 
C 36.203125 62 39.796875 61.703125 42.203125 59.203125 
C 38.40625 58.8125 36.796875 56.015625 36.796875 53.3125 
C 36.796875 49.703125 39.5 47.40625 42.703125 47.40625 
C 45.296875 47.40625 48.59375 49.109375 48.59375 53.5 
C 48.59375 59.484375 44.59375 65.578125 34.09375 65.578125 
C 21.59375 65.578125 4.703125 57.796875 4.703125 31.796875 
C 4.703125 25.109375 4.703125 -1 28.40625 -1 
C 41.59375 -1 51.40625 6.765625 51.40625 20.703125 
C 51.40625 34.640625 41.703125 42 29.796875 42 
C 27.796875 42 21.40625 42 17.40625 33.546875 
z
M 28.296875 2.96875 
C 21.90625 2.96875 19.40625 8.34375 19 9.140625 
C 17.59375 12.4375 17.59375 20.40625 17.59375 21.296875 
C 17.59375 33.546875 22.90625 38.734375 28.796875 38.734375 
C 38.703125 38.734375 38.703125 30.765625 38.703125 20.796875 
C 38.703125 10.9375 38.703125 2.96875 28.296875 2.96875 
z
" id="CMBX12-54"/>
      </defs>
      <g transform="translate(39 37.999855)scale(0.18 -0.18)">
       <use transform="scale(0.996264)" xlink:href="#CMBX12-48"/>
       <use transform="translate(56.039851 0)scale(0.996264)" xlink:href="#CMMIB10-58"/>
       <use transform="translate(87.864782 0)scale(0.996264)" xlink:href="#CMBX12-54"/>
      </g>
     </g>
    </g>
    <g id="text_12">
     <!-- \textbf{RMS (g)} -->
     <defs>
      <path d="M 52.90625 33.65625 
C 66.40625 37.234375 69.703125 44.359375 69.703125 49.734375 
C 69.703125 59.671875 59.203125 68 40.703125 68 
L 3.796875 68 
L 3.796875 63.71875 
L 14.40625 63.71875 
L 14.40625 4.171875 
L 3.796875 4.171875 
L 3.796875 0 
C 6.703125 0 17.09375 0 20.703125 0 
C 24.296875 0 34.796875 0 37.703125 0 
L 37.703125 4.171875 
L 27.09375 4.171875 
L 27.09375 32.71875 
L 39 32.71875 
C 43 32.71875 46.203125 31.515625 48.40625 28.890625 
C 51.40625 25.46875 51.40625 23.25 51.40625 16.515625 
C 51.40625 9.78125 51.40625 5.671875 56.5 2.25 
C 61.703125 -1.28125 69.90625 -1.28125 72.09375 -1.28125 
C 82.296875 -1.28125 83.5 7.71875 83.5 9.109375 
C 83.5 10.8125 82.703125 11.109375 81.40625 11.109375 
C 79.5 11.109375 79.40625 10.421875 79.296875 9.109375 
C 78.796875 4.09375 75.703125 2 72.90625 2 
C 66.5 2 65.796875 8.65625 65 17.765625 
C 64.40625 23.03125 63.703125 30.375 52.90625 33.65625 
z
M 38.796875 36 
L 27.09375 36 
L 27.09375 63.71875 
L 39 63.71875 
C 55.296875 63.71875 55.59375 55.6875 55.59375 49.90625 
C 55.59375 44.515625 55.5 36 38.796875 36 
z
" id="CMBX12-82"/>
      <path d="M 25.40625 43.46875 
C 15.5 45.625 15.203125 52.75 15.203125 54.140625 
C 15.203125 59.171875 18.5 65.03125 28.203125 65.03125 
C 37.90625 65.03125 46.59375 60.359375 48.703125 47.34375 
C 49 45.25 49 45.25 50.90625 45.25 
C 53 45.25 53 45.546875 53 47.8125 
L 53 66.4375 
C 53 68.3125 53 69.015625 51.5 69.015625 
C 50.796875 69.015625 50.5 68.921875 49.59375 67.921875 
L 45.296875 63.046875 
C 42.796875 65.140625 37.796875 69 28.09375 69 
C 13.796875 69 6.203125 60.09375 6.203125 49.3125 
C 6.203125 42.6875 9.796875 38.03125 11.203125 36.640625 
C 16.40625 31.5 19.203125 30.90625 29.59375 28.625 
C 39.59375 26.453125 40.796875 26.25 43 24.1875 
C 44.296875 22.890625 47.203125 20.125 47.203125 15.078125 
C 47.203125 10.8125 45.09375 3 33.90625 3 
C 25.09375 3 11.203125 5.96875 10.40625 20.421875 
C 10.296875 22.203125 10.296875 22.5 8.296875 22.5 
C 6.203125 22.5 6.203125 22.203125 6.203125 19.921875 
L 6.203125 1.296875 
C 6.203125 -0.59375 6.203125 -1.28125 7.703125 -1.28125 
C 8.40625 -1.28125 8.5 -1.1875 9.5 -0.296875 
C 10.59375 0.796875 11.5 2.09375 14 4.578125 
C 19.796875 0.015625 28 -1.265625 34 -1.265625 
C 49.59375 -1.265625 56.203125 9.21875 56.203125 19.71875 
C 56.203125 29 50 37.90625 39.09375 40.375 
z
" id="CMBX12-83"/>
      <path d="M 13 18.578125 
C 17.796875 16 23.40625 16 24.90625 16 
C 38.703125 16 44.203125 23.65625 44.203125 30.625 
C 44.203125 35.703125 41.296875 39.296875 40.09375 40.28125 
C 43 41.8125 45.40625 42.1875 47.09375 42.390625 
C 46.796875 41.90625 46.5 41.53125 46.5 40.28125 
C 46.5 38.28125 47.90625 36.46875 50.5 36.46875 
C 53.09375 36.46875 54.5 38.359375 54.5 40.4375 
C 54.5 42.828125 52.703125 46 48.5 46 
C 44.203125 46 40.09375 43.796875 38 41.90625 
C 33.90625 44.28125 30 45.171875 24.90625 45.171875 
C 11.09375 45.171875 5.59375 37.546875 5.59375 30.578125 
C 5.59375 27.5 6.59375 23.453125 10.796875 20.078125 
C 9.09375 18.140625 7.296875 14.578125 7.296875 10.921875 
C 7.296875 6.5625 9.59375 2.8125 11.703125 1.1875 
C 9.296875 0.609375 3.09375 -1.640625 3.09375 -7.203125 
C 3.09375 -12.96875 9.59375 -19.5 28 -19.5 
C 44.59375 -19.5 53 -14.21875 53 -6.859375 
C 53 1.78125 47.203125 4.609375 44.703125 5.78125 
C 39.90625 8.140625 33.5 8.140625 24.703125 8.140625 
C 22.203125 8.140625 17.796875 8.140625 17.296875 8.234375 
C 13 8.984375 11.796875 12.953125 11.796875 14.953125 
C 11.796875 15.78125 11.90625 17.296875 13 18.578125 
z
M 24.90625 19.171875 
C 16.203125 19.171875 16.203125 26.015625 16.203125 30.578125 
C 16.203125 35.15625 16.203125 42 24.90625 42 
C 33.59375 42 33.59375 35.15625 33.59375 30.578125 
C 33.59375 26.015625 33.59375 19.171875 24.90625 19.171875 
z
M 30.5 -1 
C 37.796875 -1 44.796875 -2.265625 44.796875 -7.296875 
C 44.796875 -10.703125 41.296875 -16.328125 28.09375 -16.328125 
C 14.90625 -16.328125 11.296875 -10.890625 11.296875 -7.203125 
C 11.296875 -1 17.59375 -1 19.09375 -1 
z
" id="CMBX12-103"/>
     </defs>
     <g transform="translate(28.5 166.78071)rotate(-90)scale(0.22 -0.22)">
      <use transform="translate(0 -0.0934)scale(0.996264)" xlink:href="#CMBX12-82"/>
      <use transform="translate(83.598675 -0.0934)scale(0.996264)" xlink:href="#CMBX12-77"/>
      <use transform="translate(189.913101 -0.0934)scale(0.996264)" xlink:href="#CMBX12-83"/>
      <use transform="translate(289.539502 -0.0934)scale(0.996264)" xlink:href="#CMBX12-40"/>
      <use transform="translate(333.126052 -0.0934)scale(0.996264)" xlink:href="#CMBX12-103"/>
      <use transform="translate(389.165903 -0.0934)scale(0.996264)" xlink:href="#CMBX12-41"/>
     </g>
    </g>
   </g>
   <g id="line2d_11">
    <path clip-path="url(#pbe71fbcce4)" d="M 71.99997 184.97089 
L 72.618276 184.782529 
L 73.317397 180.66207 
L 74.00818 186.208095 
L 74.679722 182.191319 
L 75.362167 184.479921 
L 76.056798 178.670992 
L 77.507635 184.167798 
L 78.726929 182.54491 
L 79.409374 184.696674 
L 80.089253 183.887939 
L 80.796713 180.948021 
L 81.589478 181.174668 
L 82.186618 182.566433 
L 82.845331 181.89059 
L 83.585502 183.946794 
L 84.182641 184.81064 
L 84.85739 180.802737 
L 85.619368 177.72499 
L 86.209452 182.113954 
L 86.914987 182.326203 
L 87.657082 181.019079 
L 88.413288 181.053353 
L 89.058532 183.135702 
L 90.452285 181.371831 
L 91.790878 181.23378 
L 92.471399 182.532818 
L 93.208363 180.370881 
L 93.90556 183.081723 
L 94.636751 182.768474 
L 95.278147 182.751648 
L 96.755281 183.593471 
L 97.407581 181.287162 
L 98.488333 181.549484 
L 98.926406 182.517763 
L 99.592816 181.913131 
L 100.262433 180.049728 
L 100.922429 180.407197 
L 101.623475 181.39199 
L 102.998628 181.386105 
L 103.693901 178.737703 
L 104.375063 181.38405 
L 105.101764 179.246966 
L 105.717504 182.684968 
L 106.472427 181.022468 
L 107.707114 179.218372 
L 108.394049 177.871984 
L 109.08868 179.495923 
L 110.566456 179.172221 
L 111.218756 181.733901 
L 111.867848 180.363124 
L 112.59006 182.926238 
L 113.391805 181.412056 
L 113.929936 180.655473 
L 114.760543 182.85381 
L 115.51739 177.561383 
L 116.247299 177.784659 
L 116.907295 183.029697 
L 117.615396 179.34283 
L 118.342097 179.864656 
L 119.091247 181.792228 
L 119.835267 179.55903 
L 120.476662 178.612247 
L 121.080216 179.21314 
L 121.850532 176.941194 
L 122.452803 180.606125 
L 123.11344 177.734933 
L 123.776002 181.86317 
L 124.407136 179.400578 
L 125.114595 181.737699 
L 125.78293 180.98065 
L 126.47692 181.814195 
L 127.220939 181.598964 
L 127.926474 181.109795 
L 128.674983 179.861825 
L 129.28944 181.629024 
L 130.053343 178.077824 
L 130.646634 181.049667 
L 131.390653 180.860224 
L 132.072456 181.471053 
L 132.820324 181.03235 
L 133.452099 179.400249 
L 134.07297 182.819635 
L 134.786202 176.78621 
L 135.526373 179.801549 
L 136.158789 181.51484 
L 137.215168 180.949444 
L 137.852715 181.055537 
L 138.552478 180.242734 
L 139.20606 182.122827 
L 139.903899 179.903198 
L 140.585702 180.467266 
L 141.393861 178.161859 
L 142.071816 182.629622 
L 142.731813 102.038054 
L 143.385395 112.841964 
L 144.028715 107.987452 
L 144.678449 114.289431 
L 145.396171 116.748989 
L 146.040774 117.946944 
L 146.883568 108.597184 
L 147.469803 93.091189 
L 148.245892 123.282321 
L 149.58192 123.914367 
L 150.170721 103.334678 
L 150.830717 102.803759 
L 151.592695 84.736942 
L 152.345053 110.211194 
L 153.067906 106.467659 
L 153.682363 120.983182 
L 154.399443 84.272252 
L 155.051101 124.528977 
L 155.856053 122.334748 
L 156.483979 112.372879 
L 157.218378 120.579523 
L 157.86298 116.510106 
L 158.582626 107.564398 
L 159.159883 114.74804 
L 159.836555 120.870045 
L 160.547222 105.480708 
L 161.22646 96.189484 
L 162.026922 94.895938 
L 162.627268 107.919462 
L 163.434785 101.56965 
L 164.198046 109.479577 
L 164.912561 110.00445 
L 165.616814 98.977626 
L 166.364681 108.139371 
L 167.035581 108.835049 
L 168.497964 123.764749 
L 169.131663 117.790757 
L 170.441393 113.112875 
L 171.302787 112.060963 
L 172.041675 108.712612 
L 172.779922 112.855952 
L 173.454029 123.960926 
L 174.217931 119.47569 
L 174.935012 123.732788 
L 175.685445 118.815712 
L 176.401242 112.918718 
L 176.984912 119.094273 
L 177.750739 112.079955 
L 178.391493 103.909967 
L 179.05149 103.181624 
L 179.726879 111.756641 
L 180.413173 102.133455 
L 181.926867 109.890739 
L 182.668962 120.275134 
L 183.425809 120.82995 
L 184.888191 103.091458 
L 185.565505 114.306431 
L 186.292206 120.471498 
L 186.825848 103.637447 
L 187.605144 104.898653 
L 188.148406 110.219383 
L 188.828927 107.488372 
L 189.655044 101.128139 
L 190.287461 106.700112 
L 191.071246 96.63719 
L 191.65171 117.48005 
L 192.347624 117.102574 
L 193.04418 121.239433 
L 193.723418 113.561303 
L 194.520673 116.811377 
L 195.134489 108.937353 
L 195.890694 104.286178 
L 196.480137 104.802207 
L 197.199783 106.629081 
L 197.817447 102.361371 
L 198.522341 96.512687 
L 199.453648 102.463183 
L 200.032187 115.773296 
L 200.724894 113.01954 
L 201.344482 107.450932 
L 202.068618 112.814117 
L 202.861383 113.988837 
L 203.41106 112.721232 
L 204.188431 118.109331 
L 204.866387 114.509291 
L 205.505217 118.31592 
L 206.20498 114.027912 
L 206.840603 116.161165 
L 207.641065 110.220103 
L 208.329924 97.845042 
L 209.060474 96.046567 
L 209.706359 111.688274 
L 210.379825 112.998242 
L 211.009675 99.253485 
L 211.762032 93.577471 
L 212.418822 113.526305 
L 213.22698 112.173162 
L 213.844003 106.969181 
L 214.488606 108.76214 
L 215.158864 110.209741 
L 215.883642 110.482594 
L 216.557107 110.055423 
L 217.939957 121.224814 
L 219.977671 113.736937 
L 220.676151 115.930168 
L 221.366934 129.837537 
L 222.077601 138.170816 
L 222.712582 133.494439 
L 223.535493 99.409746 
L 224.260912 136.208451 
L 225.05945 140.818109 
L 225.779737 141.087691 
L 226.493611 139.61825 
L 227.198504 134.95994 
L 227.968179 133.507594 
L 228.508876 126.735442 
L 229.343973 106.697614 
L 229.959072 125.053058 
L 230.68898 137.547199 
L 231.275216 133.671743 
L 232.021801 130.666227 
L 232.654858 120.336071 
L 233.471355 126.810318 
L 234.164063 133.994838 
L 234.840094 103.993942 
L 236.084401 140.290164 
L 236.810462 135.16993 
L 237.45314 128.928461 
L 238.140075 91.505153 
L 238.836631 102.442687 
L 239.562049 131.86015 
L 240.27464 138.248625 
L 241.633758 107.302664 
L 242.507339 133.425022 
L 243.009552 131.546978 
L 243.811938 121.722276 
L 244.483479 137.028994 
L 245.080619 132.053396 
L 245.745746 131.235183 
L 246.425625 134.145924 
L 247.160665 131.491765 
L 247.812965 131.74639 
L 249.231091 108.22703 
L 249.925722 135.66663 
L 250.601753 113.340639 
L 251.23417 138.263847 
L 252.0109 142.263782 
L 252.749146 138.685772 
L 253.361038 139.170793 
L 254.214094 140.829343 
L 254.935023 124.012791 
L 255.708546 138.623064 
L 256.447434 129.862126 
L 257.243407 126.095944 
L 257.968184 140.02238 
L 259.385668 135.329602 
L 260.133536 123.225485 
L 260.781346 130.142497 
L 261.496502 132.529432 
L 262.127635 102.184348 
L 262.892821 103.808038 
L 263.452759 132.984581 
L 264.2436 140.576887 
L 264.843305 137.843704 
L 265.596304 102.018922 
L 266.269128 125.49585 
L 266.914372 118.695691 
L 267.646846 125.620721 
L 268.256172 128.178488 
L 268.961066 140.687919 
L 269.776921 140.328564 
L 270.455518 134.995174 
L 271.117438 133.405396 
L 272.441921 110.983327 
L 273.207106 114.100417 
L 273.86133 140.555626 
L 274.579051 136.511501 
L 275.187736 136.330951 
L 275.902251 138.291065 
L 276.578282 138.23394 
L 277.22994 138.314677 
L 277.904047 126.297323 
L 278.557629 127.481485 
L 279.336925 136.434176 
L 279.980887 114.67357 
L 280.746713 105.78782 
L 281.438138 129.772149 
L 282.187288 135.990314 
L 282.916555 136.596555 
L 283.535502 122.661021 
L 284.16407 114.562463 
L 284.902958 117.320493 
L 285.575782 131.789891 
L 286.263358 127.350842 
L 286.903471 116.592076 
L 287.579502 126.835066 
L 288.342122 130.059926 
L 289.061127 126.351737 
L 289.706371 132.295552 
L 290.540827 131.98634 
L 291.302163 139.592011 
L 291.884551 118.557797 
L 292.618307 101.988986 
L 293.981273 137.322512 
L 294.657946 139.781158 
L 295.286514 138.654683 
L 296.117121 115.834506 
L 296.76429 90.985177 
L 297.440321 101.67804 
L 298.214486 103.023861 
L 298.824453 85.404713 
L 299.573603 90.196779 
L 300.155349 95.666408 
L 300.849339 94.90613 
L 301.586303 92.657631 
L 302.321984 85.510461 
L 303.606058 98.686462 
L 304.306463 98.077499 
L 305.066517 95.767329 
L 305.675843 84.627896 
L 307.156184 92.605539 
L 307.837988 86.636021 
L 308.490287 84.507729 
L 309.108593 92.214882 
L 309.81028 98.448556 
L 310.490159 99.789775 
L 311.161701 99.541292 
L 311.91983 101.010744 
L 312.690788 98.851986 
L 313.272534 87.52081 
L 313.914571 85.693838 
L 314.587395 98.997425 
L 315.281386 94.750387 
L 315.918933 98.262839 
L 316.693739 97.590389 
L 317.451869 96.076112 
L 318.147142 87.888851 
L 318.891802 85.10267 
L 319.420954 87.567366 
L 320.139317 90.010614 
L 320.816631 88.943072 
L 321.602982 92.796705 
L 322.297614 101.937761 
L 322.935161 99.270364 
L 323.700988 99.778134 
L 324.262851 89.487316 
L 324.955558 87.387892 
L 325.640569 89.868981 
L 326.320448 96.68264 
L 327.042018 99.895615 
L 328.441544 88.45316 
L 329.091278 93.824403 
L 329.819904 101.731768 
L 330.4985 96.998246 
L 331.176456 99.53621 
L 331.976918 94.646239 
L 332.572774 87.610761 
L 333.259709 94.317994 
L 333.98641 95.409403 
L 334.577777 99.984042 
L 335.271126 99.927954 
L 335.983075 88.305821 
L 336.750826 85.050578 
L 337.460851 91.8169 
L 338.118923 95.232061 
L 338.793672 86.49366 
L 339.459441 99.126773 
L 340.297103 91.584446 
L 341.032784 94.939361 
L 341.612606 94.45165 
L 342.322631 84.260351 
L 342.908867 103.373702 
L 343.672769 103.768857 
L 344.333407 102.5135 
L 345.023549 102.791827 
L 345.731008 99.383109 
L 346.477593 101.63494 
L 347.20237 98.937252 
L 347.764233 93.299625 
L 348.473617 93.84637 
L 349.27921 102.522307 
L 349.905212 103.377869 
L 350.640252 102.079098 
L 351.229053 99.853308 
L 351.944851 97.646955 
L 352.558666 102.918957 
L 353.326417 104.012984 
L 353.958833 96.514552 
L 354.711832 98.327488 
L 355.361566 101.40584 
L 356.05748 100.543785 
L 356.73287 98.27164 
L 357.3717 97.645167 
L 358.110588 93.404599 
L 358.819972 87.876019 
L 359.596702 90.483658 
L 360.218215 96.882515 
L 360.841651 100.075855 
L 361.564504 94.656274 
L 362.286716 100.115444 
L 362.999307 99.856125 
L 363.609915 99.241776 
L 364.474517 98.79616 
L 365.211481 92.114584 
L 365.779116 96.627093 
L 366.507742 100.395865 
L 367.144006 97.663838 
L 367.824527 98.370697 
L 368.518517 102.785455 
L 369.257405 99.459032 
L 369.953961 95.532294 
L 370.597922 98.355201 
L 372.121879 100.220629 
L 372.677327 98.193497 
L 373.434175 98.410591 
L 374.085833 97.881783 
L 374.742622 97.869933 
L 375.423784 103.648384 
L 376.116492 105.17897 
L 376.853455 93.220379 
L 377.458933 107.522067 
L 378.204876 96.360444 
L 378.8591 76.542898 
L 379.53449 79.099153 
L 380.24708 99.26486 
L 381.615819 105.005126 
L 382.281588 105.258298 
L 383.170562 104.110489 
L 383.802337 102.552658 
L 384.486706 94.714137 
L 385.142213 112.637747 
L 385.94524 97.525284 
L 386.618065 97.920999 
L 387.932284 69.575307 
L 388.608316 93.099331 
L 389.274084 93.923027 
L 389.977054 93.588101 
L 390.668479 93.390113 
L 391.483051 94.918825 
L 392.808175 108.514374 
L 393.463682 106.724136 
L 394.084553 113.912359 
L 394.89207 95.593958 
L 395.489209 112.436047 
L 396.272995 104.057589 
L 396.917598 107.762985 
L 397.586574 101.856767 
L 398.254267 81.064444 
L 398.915546 96.829962 
L 400.368307 83.787762 
L 401.037283 65.197441 
L 401.769757 67.913719 
L 402.412435 90.404022 
L 403.08526 101.411294 
L 403.785022 86.138607 
L 404.395631 106.859675 
L 405.156327 105.881908 
L 405.793233 106.938089 
L 406.596901 103.77587 
L 407.185703 105.867624 
L 407.941267 106.235832 
L 408.532634 102.92603 
L 409.172105 97.624929 
L 409.884696 100.96112 
L 410.642185 85.472895 
L 411.282939 104.649527 
L 412.046841 113.247081 
L 412.676692 83.402729 
L 413.345668 100.803471 
L 414.001174 99.395136 
L 414.666302 96.151809 
L 415.43277 110.778164 
L 416.189617 94.562782 
L 416.874627 90.87317 
L 417.509609 92.432353 
L 418.221558 103.712769 
L 418.912983 106.703948 
L 419.528723 104.809088 
L 420.215016 77.838991 
L 420.902593 68.859099 
L 421.609411 86.316639 
L 422.403459 90.159499 
L 423.040365 78.245814 
L 423.698437 74.343932 
L 424.38473 95.111304 
L 425.024843 110.819201 
L 425.714344 103.298537 
L 426.410258 80.322549 
L 427.206872 103.567777 
L 427.852116 114.171456 
L 428.491587 76.826518 
L 429.152225 85.20074 
L 429.853271 98.764015 
L 430.644753 94.858549 
L 431.28679 101.98697 
L 431.967952 90.705041 
L 432.602293 88.848234 
L 433.291793 98.56467 
L 433.953714 101.33454 
L 434.623331 93.081446 
L 435.347467 106.756634 
L 435.995277 112.951923 
L 436.789966 101.506629 
L 437.49486 102.634729 
L 438.114448 70.407453 
L 438.802024 78.297848 
L 439.474207 87.569931 
L 440.25671 52.702955 
L 440.873733 96.526914 
L 441.695361 98.849982 
L 442.253375 91.266485 
L 443.01856 89.573428 
L 443.933832 105.00392 
L 444.577152 110.473942 
L 445.324378 108.560758 
L 445.957436 109.735037 
L 446.610377 105.664343 
L 447.277428 86.143757 
L 448.088152 43.410749 
L 448.728265 98.545802 
L 449.400448 86.291048 
L 450.070065 62.555667 
L 450.795484 137.354464 
L 451.419562 134.197733 
L 452.229645 119.584432 
L 452.840254 132.429526 
L 453.52783 138.262028 
L 454.188468 135.996493 
L 454.936335 136.038752 
L 455.550151 134.124559 
L 456.25761 124.19894 
L 457.049093 133.97011 
L 457.721917 117.934886 
L 458.387686 127.505011 
L 459.067565 134.532685 
L 459.769252 130.321494 
L 460.497878 122.761857 
L 461.168136 130.013963 
L 461.796704 130.353157 
L 462.572152 130.432244 
L 463.243052 120.107477 
L 463.869054 130.659535 
L 464.589341 131.08228 
L 465.328229 132.669286 
L 465.995922 125.329596 
L 466.726472 126.473886 
L 467.443553 125.276383 
L 468.101625 115.719483 
L 468.789842 128.167709 
L 469.472287 126.409911 
L 470.186802 129.291179 
L 470.944291 115.950934 
L 471.570293 128.163527 
L 472.263 124.918693 
L 472.897341 128.499976 
L 473.643284 118.29232 
L 474.302639 117.638523 
L 474.938903 130.619997 
L 475.772077 122.633844 
L 476.411548 125.202191 
L 477.054868 129.278432 
L 477.703961 119.188403 
L 479.047043 126.403431 
L 479.776952 129.955808 
L 480.463887 131.295544 
L 481.15916 122.304502 
L 481.831984 123.956417 
L 482.505449 123.103796 
L 483.168653 124.327447 
L 483.874829 129.496205 
L 484.513018 126.983603 
L 485.214705 132.892057 
L 485.945255 122.233054 
L 486.610382 128.408613 
L 487.410844 131.120332 
L 488.041978 125.619015 
L 488.658359 129.472431 
L 489.301679 129.23389 
L 489.986048 127.58131 
L 490.732633 132.492734 
L 491.393912 122.422527 
L 492.223237 130.546638 
L 492.823583 131.645914 
L 493.604803 122.615303 
L 494.180135 130.942669 
L 495.013308 123.746897 
L 495.645725 129.022875 
L 496.419248 127.555781 
L 497.024725 129.193523 
L 497.712302 124.482596 
L 498.310083 135.270286 
L 499.000224 131.714981 
L 499.673049 133.130791 
L 500.361908 129.646192 
L 501.209191 130.83892 
L 501.810821 129.488133 
L 502.497114 109.735426 
L 503.151338 134.306352 
L 503.849818 121.086403 
L 504.492496 128.29876 
L 505.170452 134.583961 
L 505.973479 122.44673 
L 506.62193 129.016452 
L 507.463442 131.128424 
L 508.126645 121.80629 
L 508.837953 114.235928 
L 509.530019 132.308463 
L 510.23812 122.383968 
L 510.87695 134.277458 
L 511.581844 129.158717 
L 512.243764 119.573675 
L 513.039095 121.44023 
L 513.747196 127.242671 
L 514.367426 125.795641 
L 515.159549 128.463073 
L 515.694474 129.143923 
L 516.41412 123.688416 
L 517.054233 121.336151 
L 517.79312 125.241674 
L 518.4544 126.45428 
L 519.132996 127.400213 
L 519.904595 127.30788 
L 520.498528 119.183683 
L 521.164938 122.660562 
L 521.835838 132.777379 
L 522.513793 118.479988 
L 523.263585 130.676634 
L 524.007604 124.957056 
L 524.657979 127.267061 
L 525.332086 121.434144 
L 526.10561 119.956755 
L 526.809862 128.338252 
L 527.367877 129.723841 
L 528.17347 112.929094 
L 528.80332 118.782936 
L 529.50629 118.448093 
L 530.187452 114.625965 
L 530.822434 117.37708 
L 531.593392 115.8598 
L 532.243767 116.817046 
L 533.000614 117.379279 
L 533.675363 118.841007 
L 534.373201 117.350204 
L 534.987017 118.270383 
L 535.712436 113.892515 
L 536.360245 115.921477 
L 537.139541 117.131773 
L 537.743095 116.127236 
L 538.398601 116.576699 
L 539.136848 113.965723 
L 539.773754 114.486456 
L 540.490193 112.854637 
L 541.160451 116.87299 
L 541.846103 113.781696 
L 542.513796 117.28164 
L 543.343762 117.026474 
L 543.990289 116.450699 
L 544.656058 118.387058 
L 545.288474 116.129384 
L 545.968995 118.344817 
L 546.670682 118.163772 
L 547.425605 115.096526 
L 548.173473 114.870775 
L 548.835393 117.123726 
L 549.588392 108.028566 
L 550.130371 117.296776 
L 550.844886 115.539167 
L 551.500392 111.628512 
L 552.207211 118.786126 
L 552.974961 117.551697 
L 553.674083 120.727045 
L 554.31163 120.366695 
L 555.06976 117.077391 
L 555.707307 119.770396 
L 556.473134 116.829885 
L 557.119661 118.599327 
L 557.849569 117.673776 
L 558.507 116.398238 
L 559.268978 118.562457 
L 559.946292 115.733532 
L 560.683256 116.918455 
L 561.266284 116.891387 
L 562.075084 118.38491 
L 562.751116 121.656875 
L 564.068543 114.062211 
L 564.740084 113.724796 
L 565.415474 114.501682 
L 566.220425 118.076433 
L 566.864387 117.215527 
L 567.809804 116.655272 
L 568.408226 119.240438 
L 569.079768 120.603456 
L 569.842387 117.206243 
L 570.483783 121.404985 
L 571.095033 118.536762 
L 571.865991 122.118759 
L 572.540739 113.925583 
L 573.314263 116.231334 
L 573.903705 118.711837 
L 574.654138 119.451309 
L 575.288479 117.916156 
L 575.951041 119.445775 
L 576.565498 115.658109 
L 577.29284 116.713031 
L 577.956685 111.912748 
L 578.684669 115.035941 
L 579.408805 112.093097 
L 580.706349 119.22884 
L 581.353517 120.247653 
L 582.879398 121.29048 
L 583.516304 119.065756 
L 584.152568 121.516234 
L 584.912622 120.888473 
L 585.503989 122.604779 
L 586.206318 118.195987 
L 586.843865 119.110079 
L 587.52182 118.707795 
L 588.278667 120.511565 
L 588.939946 118.50404 
L 589.652537 119.452271 
L 590.363203 120.600989 
L 590.988564 117.694029 
L 591.63894 121.724938 
L 592.398994 120.19931 
L 593.11864 116.665665 
L 593.856245 119.319123 
L 594.471343 120.169941 
L 595.21408 121.52591 
L 595.970285 121.342009 
L 596.668124 118.4267 
L 597.448061 117.711018 
L 598.188873 113.471641 
L 598.943155 118.928554 
L 599.676911 120.449551 
L 600.430552 121.48904 
L 601.021918 121.459445 
L 601.621623 121.729862 
L 602.386809 119.479141 
L 603.023073 121.099532 
L 603.665752 113.894696 
L 604.408488 118.942086 
L 605.127493 109.475458 
L 605.807372 117.299197 
L 606.491742 109.092129 
L 607.306956 117.183685 
L 607.85599 112.02446 
L 608.677618 120.180565 
L 609.457556 111.704905 
L 610.231079 117.65988 
L 610.932766 113.95669 
L 611.677426 108.581021 
L 612.38232 112.153107 
L 613.202665 113.637193 
L 613.970416 119.031943 
L 614.748429 118.977323 
L 615.404577 116.080092 
L 616.049821 106.355492 
L 616.784861 109.023385 
L 617.379435 112.585121 
L 618.122171 119.026859 
L 618.687241 108.943543 
L 619.363913 104.24644 
L 620.137437 107.270633 
L 620.891077 106.633422 
L 621.624192 105.288751 
L 622.273926 106.735226 
L 622.958937 110.035198 
L 623.5394 113.491586 
L 624.414905 112.038582 
L 625.204463 106.597127 
L 626.003001 110.789281 
L 626.735475 107.749867 
L 627.47308 114.932586 
L 628.220947 119.370193 
L 629.547354 120.066263 
L 630.192598 112.798177 
L 631.157257 108.137969 
L 631.805708 116.982876 
L 632.495209 112.75447 
L 633.170599 111.960421 
L 633.821615 116.956714 
L 634.506626 105.897963 
L 635.182657 112.685651 
L 635.87793 109.505276 
L 636.627722 112.584832 
L 637.28387 112.838817 
L 637.981708 117.256601 
L 638.640422 122.737819 
L 639.384441 122.451885 
L 640.011726 118.811923 
L 640.747407 110.359781 
L 641.522213 120.095518 
L 642.109731 117.711561 
L 642.828736 118.440892 
L 643.440628 109.828116 
L 644.123714 107.198 
L 644.7696 112.483786 
L 645.460383 110.131376 
L 646.278804 112.83859 
L 646.872095 119.202255 
L 647.63279 106.292977 
L 648.388996 99.467863 
L 648.92392 100.646196 
L 649.693595 109.901485 
L 650.349102 113.830493 
L 651.052071 119.606391 
L 651.803787 112.595021 
L 653.108386 123.187338 
L 653.742085 123.095614 
L 654.446338 123.353092 
L 655.198054 109.076851 
L 655.908079 111.218018 
L 657.242182 116.836145 
L 657.947717 110.006985 
L 658.59681 110.828929 
L 659.363278 120.762998 
L 659.989921 110.091292 
L 660.755748 116.76586 
L 661.426648 115.60002 
L 662.191192 112.711897 
L 662.745358 111.810326 
L 663.545178 122.309667 
L 664.121793 111.0872 
L 664.899165 120.499882 
L 665.604059 110.830444 
L 666.348078 119.476855 
L 667.708478 123.86056 
L 668.506374 120.330385 
L 669.81867 115.310632 
L 670.535751 120.404448 
L 671.229099 119.117449 
L 671.808921 122.395124 
L 672.492649 117.438081 
L 673.178301 117.286593 
L 673.878705 107.686055 
L 674.546398 115.160968 
L 675.247444 118.822329 
L 675.949772 120.474771 
L 676.709185 119.414731 
L 677.282593 116.968303 
L 678.034309 109.827091 
L 678.774479 121.219747 
L 679.484504 116.933655 
L 680.159894 119.920556 
L 680.927003 118.426795 
L 681.534405 95.661683 
L 682.204022 116.189053 
L 682.962794 104.694852 
L 683.679233 105.359744 
L 684.347567 102.787795 
L 685.038992 108.599074 
L 685.729134 100.717037 
L 686.423765 108.460118 
L 687.124169 97.750699 
L 687.820084 101.749879 
L 688.585269 101.719928 
L 689.192029 106.915688 
L 689.818032 100.669302 
L 690.640301 94.249723 
L 691.376623 103.274031 
L 692.083441 104.510551 
L 693.087867 98.170115 
L 693.566348 110.041615 
L 694.126928 103.999859 
L 694.808732 104.395104 
L 695.480273 98.335565 
L 696.162719 99.307805 
L 696.85735 106.346755 
L 698.238275 102.583076 
L 698.848884 90.003374 
L 699.537743 104.376895 
L 700.236865 94.953571 
L 701.05721 104.303314 
L 701.683212 99.73046 
L 702.33038 101.363051 
L 703.011543 101.853953 
L 703.70874 102.583159 
L 704.507919 106.831743 
L 705.105058 111.500959 
L 705.847795 93.627764 
L 706.491756 100.500499 
L 707.157525 104.15485 
L 707.796996 102.269079 
L 708.541657 102.528066 
L 709.174073 101.708056 
L 709.942465 103.104146 
L 710.599896 109.902736 
L 711.9712 101.287313 
L 712.643383 103.267414 
L 713.344428 105.682626 
L 714.024308 106.17972 
L 714.720864 106.137426 
L 715.503367 106.99033 
L 716.142838 103.525527 
L 716.798345 108.510064 
L 717.530819 108.072107 
L 718.15618 112.05179 
L 718.859149 110.292568 
L 719.540312 102.575874 
L 720.34847 110.746193 
L 720.99179 99.52254 
L 721.660766 107.951217 
L 722.379129 106.841181 
L 723.078892 108.133746 
L 723.747868 106.965098 
L 724.481625 107.258427 
L 725.152525 111.552762 
L 725.790072 109.374063 
L 726.475083 112.677988 
L 727.207557 108.270945 
L 727.895774 111.69906 
L 728.677636 110.705327 
L 729.980311 114.154883 
L 730.652493 112.629337 
L 731.297096 100.569427 
L 731.966072 105.483002 
L 732.666476 105.494604 
L 733.374577 107.306554 
L 734.153873 102.587129 
L 734.824773 107.864859 
L 735.563661 109.225908 
L 736.369895 108.026334 
L 737.090183 109.00308 
L 737.850237 113.10513 
L 738.60067 107.753631 
L 739.34533 109.583362 
L 740.095763 106.927918 
L 740.793602 111.693607 
L 741.575463 109.652893 
L 742.333593 112.638686 
L 742.970499 110.83476 
L 743.527872 102.046427 
L 744.225069 106.593152 
L 744.845299 111.556216 
L 745.66821 107.784483 
L 746.278818 111.914409 
L 747.044645 115.377451 
L 747.695662 109.750621 
L 748.335133 113.62672 
L 749.025275 104.888237 
L 749.673085 111.676049 
L 750.345909 113.793411 
L 751.150861 109.749649 
L 751.837796 109.905353 
L 752.604264 109.318966 
L 753.200762 113.751129 
L 754.071777 105.249364 
L 754.614398 123.220358 
L 755.445647 113.230896 
L 756.208908 113.709156 
L 757.052343 116.086763 
L 757.646276 116.218184 
L 758.360149 117.810927 
L 759.027842 120.732051 
L 759.624982 107.738416 
L 760.367718 111.31672 
L 761.816631 130.07936 
L 762.54205 121.54192 
L 763.164204 124.119616 
L 763.844724 133.753313 
L 764.451485 107.221999 
L 765.115971 109.396514 
L 765.810602 125.358174 
L 766.509724 113.416001 
L 767.194093 125.582947 
L 767.940678 123.557962 
L 768.678283 129.022471 
L 769.266443 107.962825 
L 770.022007 111.121702 
L 770.701887 118.116212 
L 771.444623 106.852915 
L 772.113599 123.664628 
L 772.87237 129.253088 
L 773.4926 123.301017 
L 774.132071 120.879573 
L 774.863262 109.578844 
L 775.549556 113.474208 
L 776.319872 122.56543 
L 776.947157 120.693086 
L 777.745695 126.23516 
L 778.38196 115.644291 
L 779.192042 131.53686 
L 779.821893 120.929312 
L 780.451102 114.398918 
L 781.234888 118.176156 
L 781.847421 118.623093 
L 782.513831 103.255822 
L 783.238608 115.147598 
L 783.987117 119.076659 
L 784.814518 124.759337 
L 785.513639 119.99694 
L 786.267279 119.007266 
L 786.988208 105.825786 
L 787.709778 115.025048 
L 788.492281 121.341535 
L 789.210003 124.371372 
L 790.503698 108.916686 
L 791.152791 112.832908 
L 791.867306 112.308957 
L 792.54013 109.692245 
L 793.303391 124.166894 
L 794.058955 116.451116 
L 794.679826 101.343284 
L 795.984425 96.150566 
L 796.650194 104.013633 
L 797.491705 90.8827 
L 798.069603 107.622271 
L 798.846333 124.014044 
L 799.480032 128.129796 
L 800.188133 104.290495 
L 800.856467 117.477705 
L 801.55174 126.912022 
L 802.233544 122.091584 
L 803.030799 101.839213 
L 803.761349 104.06837 
L 804.55219 126.945856 
L 805.284664 115.470503 
L 806.029966 95.873587 
L 806.600808 128.485033 
L 807.338413 118.509324 
L 808.024065 122.961984 
L 808.700096 121.523624 
L 809.426156 128.818931 
L 810.142595 126.879376 
L 810.780143 124.278579 
L 811.407428 105.618003 
L 812.167482 112.10736 
L 812.880714 105.299974 
L 813.514413 102.58774 
L 814.359131 116.413073 
L 815.021052 101.506272 
L 815.728511 99.108921 
L 816.325651 99.752264 
L 817.058124 139.905727 
L 817.881677 121.933646 
L 818.616075 98.204084 
L 819.369715 114.575072 
L 820.637113 104.411135 
L 821.396525 102.659043 
L 822.130924 127.820832 
L 822.867246 132.090999 
L 823.474006 133.12918 
L 824.227646 121.880765 
L 824.866477 106.549764 
L 825.55726 104.090255 
L 826.296148 94.657303 
L 826.877894 106.503236 
L 827.566753 124.510154 
L 828.253046 113.885927 
L 830.378632 143.695689 
L 831.041194 128.896671 
L 831.69221 124.774998 
L 832.411215 118.158833 
L 833.144972 124.497868 
L 833.867183 129.379906 
L 834.575284 125.499546 
L 835.210908 128.979668 
L 835.875394 126.69981 
L 836.566818 179.466687 
L 837.378184 186.067421 
L 838.163252 195.538976 
L 838.882257 197.694462 
L 839.675022 198.210176 
L 840.39082 200.464497 
L 841.129708 199.870736 
L 841.869237 200.004664 
L 842.604918 198.48431 
L 842.604918 198.48431 
" style="fill:none;stroke:#e41a1c;stroke-linecap:square;stroke-width:2;"/>
   </g>
   <g id="patch_3">
    <path d="M 71.99997 225.99886 
L 71.99997 12 
" style="fill:none;stroke:#000000;stroke-linecap:square;stroke-linejoin:miter;stroke-width:0.8;"/>
   </g>
   <g id="patch_4">
    <path d="M 842.604918 225.99886 
L 842.604918 12 
" style="fill:none;"/>
   </g>
   <g id="patch_5">
    <path d="M 71.99997 225.99886 
L 842.604918 225.99886 
" style="fill:none;stroke:#000000;stroke-linecap:square;stroke-linejoin:miter;stroke-width:0.8;"/>
   </g>
   <g id="patch_6">
    <path d="M 71.99997 12 
L 842.604918 12 
" style="fill:none;"/>
   </g>
  </g>
 </g>
 <defs>
  <clipPath id="pbe71fbcce4">
   <rect height="213.99886" width="770.604948" x="71.99997" y="12"/>
  </clipPath>
 </defs>
</svg>
