<?xml version="1.0" encoding="UTF-8" standalone="no"?>
<!-- Created with matplotlib (https://matplotlib.org/) -->

<svg
   xmlns:dc="http://purl.org/dc/elements/1.1/"
   xmlns:cc="http://creativecommons.org/ns#"
   xmlns:rdf="http://www.w3.org/1999/02/22-rdf-syntax-ns#"
   xmlns:svg="http://www.w3.org/2000/svg"
   xmlns="http://www.w3.org/2000/svg"
   xmlns:xlink="http://www.w3.org/1999/xlink"
   xmlns:sodipodi="http://sodipodi.sourceforge.net/DTD/sodipodi-0.dtd"
   xmlns:inkscape="http://www.inkscape.org/namespaces/inkscape"
   height="432pt"
   version="1.1"
   viewBox="0 0 864 432"
   width="864pt"
   id="svg328"
   sodipodi:docname="Warmup_RMS_History.svg"
   inkscape:version="0.92.5 (0.92.5+69)">
  <metadata
     id="metadata332">
    <rdf:RDF>
      <cc:Work
         rdf:about="">
        <dc:format>image/svg+xml</dc:format>
        <dc:type
           rdf:resource="http://purl.org/dc/dcmitype/StillImage" />
      </cc:Work>
    </rdf:RDF>
  </metadata>
  <sodipodi:namedview
     pagecolor="#ffffff"
     bordercolor="#666666"
     borderopacity="1"
     objecttolerance="10"
     gridtolerance="10"
     guidetolerance="10"
     inkscape:pageopacity="0"
     inkscape:pageshadow="2"
     inkscape:window-width="1853"
     inkscape:window-height="1025"
     id="namedview330"
     showgrid="false"
     inkscape:zoom="0.88879394"
     inkscape:cx="685.1879"
     inkscape:cy="363.54146"
     inkscape:window-x="67"
     inkscape:window-y="27"
     inkscape:window-maximized="1"
     inkscape:current-layer="svg328" />
  <defs
     id="defs4">
    <marker
       inkscape:stockid="Arrow1Mend"
       orient="auto"
       refY="0.0"
       refX="0.0"
       id="Arrow1Mend"
       style="overflow:visible;"
       inkscape:isstock="true">
      <path
         id="path1195"
         d="M 0.0,0.0 L 5.0,-5.0 L -12.5,0.0 L 5.0,5.0 L 0.0,0.0 z "
         style="fill-rule:evenodd;stroke:#000000;stroke-width:1pt;stroke-opacity:1;fill:#000000;fill-opacity:1"
         transform="scale(0.4) rotate(180) translate(10,0)" />
    </marker>
    <style
       type="text/css"
       id="style2">
*{stroke-linecap:butt;stroke-linejoin:round;}
  </style>
    <marker
       inkscape:stockid="Arrow1Mend"
       orient="auto"
       refY="0"
       refX="0"
       id="Arrow1Mend-4"
       style="overflow:visible"
       inkscape:isstock="true">
      <path
         inkscape:connector-curvature="0"
         id="path1195-9"
         d="M 0,0 5,-5 -12.5,0 5,5 Z"
         style="fill:#000000;fill-opacity:1;fill-rule:evenodd;stroke:#000000;stroke-width:1.00000003pt;stroke-opacity:1"
         transform="matrix(-0.4,0,0,-0.4,-4,0)" />
    </marker>
    <marker
       inkscape:stockid="Arrow1Mend"
       orient="auto"
       refY="0"
       refX="0"
       id="Arrow1Mend-4-0"
       style="overflow:visible"
       inkscape:isstock="true">
      <path
         inkscape:connector-curvature="0"
         id="path1195-9-8"
         d="M 0,0 5,-5 -12.5,0 5,5 Z"
         style="fill:#000000;fill-opacity:1;fill-rule:evenodd;stroke:#000000;stroke-width:1.00000003pt;stroke-opacity:1"
         transform="matrix(-0.4,0,0,-0.4,-4,0)" />
    </marker>
  </defs>
  <g
     id="figure_1">
    <g
       id="patch_1">
      <path
         d="M 0 432  L 864 432  L 864 0  L 0 0  z "
         style="fill:#ffffff;"
         id="path6" />
    </g>
    <g
       id="axes_1">
      <g
         id="patch_2">
        <path
           d="M 74.349062 351.892606  L 852 351.892606  L 852 12  L 74.349062 12  z "
           style="fill:none;"
           id="path9" />
      </g>
      <g
         id="matplotlib.axis_1">
        <g
           id="xtick_1">
          <g
             id="line2d_1">
            <defs
               id="defs13">
              <path
                 d="M 0 0  L 0 3.5  "
                 id="m7e9ae023c8"
                 style="stroke:#000000;stroke-width:0.8;" />
            </defs>
            <g
               id="g17">
              <use
                 style="stroke:#000000;stroke-width:0.8;"
                 x="109.696831"
                 xlink:href="#m7e9ae023c8"
                 y="351.892606"
                 id="use15" />
            </g>
          </g>
          <g
             id="text_1">
            <!-- \textbf{2020-01-17} -->
            <defs
               id="defs25">
              <path
                 d="M 50.5 21.375  L 46.296875 21.375  C 46 19.28125 45.296875 13.40625 43.796875 12.421875  C 43 11.71875 35.203125 11.71875 33.703125 11.71875  L 18.203125 11.71875  C 22 14.90625 31.09375 22.46875 32.59375 23.578125  C 43.703125 31.84375 50.5 36.90625 50.5 46.46875  C 50.5 58.203125 39.796875 65.28125 26.59375 65.28125  C 15.296875 65.28125 5.59375 58.90625 5.59375 49.453125  C 5.59375 44.171875 9.90625 42.6875 12.203125 42.6875  C 15.296875 42.6875 18.90625 44.765625 18.90625 49.359375  C 18.90625 53.546875 15.796875 55.625 12.703125 56.03125  C 16.703125 60.609375 22 61 24.09375 61  C 33.296875 61 37.703125 53.546875 37.703125 46.375  C 37.703125 38.609375 32.40625 31.453125 28.296875 27.171875  L 6.59375 4.578125  C 5.59375 3.671875 5.59375 3.484375 5.59375 1.6875  L 5.59375 0  L 47.59375 0  z "
                 id="CMBX12-50" />
              <path
                 d="M 51.703125 31.84375  C 51.703125 41.375 51.703125 65.28125 28.09375 65.28125  C 4.40625 65.28125 4.40625 41.46875 4.40625 31.84375  C 4.40625 22.3125 4.40625 -1 28 -1  C 51.59375 -1 51.703125 22.015625 51.703125 31.84375  z M 28.09375 2.28125  C 24.90625 2.28125 22.5 3.5625 20.5 5.65625  C 18 8.140625 16.40625 9.703125 16.40625 33.03125  C 16.40625 39.984375 16.40625 46.3125 17.203125 51.484375  C 18.59375 61.3125 25.796875 62 28 62  C 31.203125 62 37.40625 60.515625 38.796875 52.1875  C 39.703125 47.109375 39.703125 39.078125 39.703125 33.03125  C 39.703125 9.609375 38.203125 8.234375 35.203125 5.25  C 33.203125 3.265625 30.5 2.28125 28.09375 2.28125  z "
                 id="CMBX12-48" />
              <path
                 d="M 31.203125 17  L 31.203125 26.140625  L 1.203125 26.140625  L 1.203125 17  z "
                 id="CMBX12-45" />
              <path
                 d="M 34.59375 62.109375  C 34.59375 65 34.40625 65 31.203125 65  C 23.796875 59 12.703125 59 10.5 59  L 8.59375 59  L 8.59375 54.734375  L 10.5 54.734375  C 14 54.734375 19.296875 55.328125 23.296875 56.625  L 23.296875 4.171875  L 9.40625 4.171875  L 9.40625 0  C 13.59375 0 24.09375 0 28.796875 0  C 33.5 0 44.09375 0 48.296875 0  L 48.296875 4.171875  L 34.59375 4.171875  z "
                 id="CMBX12-49" />
              <path
                 d="M 53.59375 60.390625  C 54.5 61.390625 54.5 61.609375 54.5 64.921875  L 33.40625 64.921875  C 32.703125 64.921875 17.796875 64.921875 16.59375 65.125  C 14.09375 65.515625 13.90625 66.5625 13.703125 67.53125  L 9.5 67.53125  L 6.203125 43  L 10.40625 43  C 10.5 44.015625 11.296875 51.25 13 52.390625  C 13.90625 53 22.203125 53 23.796875 53  L 41.90625 53  C 30.296875 38.859375 29 37.25 25.90625 31.328125  C 20 19.671875 19.09375 10.640625 19.09375 5.71875  C 19.09375 -1 24.203125 -1 25 -1  C 27.5 -1 28.90625 0.296875 29.59375 1  C 30.90625 2.625 30.90625 3.828125 30.90625 8.25  C 30.90625 23.609375 32.296875 34.875 38.59375 42.40625  z "
                 id="CMBX12-55" />
            </defs>
            <g
               transform="translate(26.106861 416.967924)rotate(-30)scale(0.18 -0.18)"
               id="g47">
              <use
                 transform="scale(0.996264)"
                 xlink:href="#CMBX12-50"
                 id="use27" />
              <use
                 transform="translate(56.039851 0)scale(0.996264)"
                 xlink:href="#CMBX12-48"
                 id="use29" />
              <use
                 transform="translate(112.079701 0)scale(0.996264)"
                 xlink:href="#CMBX12-50"
                 id="use31" />
              <use
                 transform="translate(168.119552 0)scale(0.996264)"
                 xlink:href="#CMBX12-48"
                 id="use33" />
              <use
                 transform="translate(224.159402 0)scale(0.996264)"
                 xlink:href="#CMBX12-45"
                 id="use35" />
              <use
                 transform="translate(261.519303 0)scale(0.996264)"
                 xlink:href="#CMBX12-48"
                 id="use37" />
              <use
                 transform="translate(317.559153 0)scale(0.996264)"
                 xlink:href="#CMBX12-49"
                 id="use39" />
              <use
                 transform="translate(373.599004 0)scale(0.996264)"
                 xlink:href="#CMBX12-45"
                 id="use41" />
              <use
                 transform="translate(410.958904 0)scale(0.996264)"
                 xlink:href="#CMBX12-49"
                 id="use43" />
              <use
                 transform="translate(466.998755 0)scale(0.996264)"
                 xlink:href="#CMBX12-55"
                 id="use45" />
            </g>
          </g>
        </g>
        <g
           id="xtick_2">
          <g
             id="line2d_2">
            <g
               id="g53">
              <use
                 style="stroke:#000000;stroke-width:0.8;"
                 x="294.280486"
                 xlink:href="#m7e9ae023c8"
                 y="351.892606"
                 id="use51" />
            </g>
          </g>
          <g
             id="text_2">
            <!-- \textbf{2020-02-10} -->
            <g
               transform="translate(210.690516 416.967924)rotate(-30)scale(0.18 -0.18)"
               id="g76">
              <use
                 transform="scale(0.996264)"
                 xlink:href="#CMBX12-50"
                 id="use56" />
              <use
                 transform="translate(56.039851 0)scale(0.996264)"
                 xlink:href="#CMBX12-48"
                 id="use58" />
              <use
                 transform="translate(112.079701 0)scale(0.996264)"
                 xlink:href="#CMBX12-50"
                 id="use60" />
              <use
                 transform="translate(168.119552 0)scale(0.996264)"
                 xlink:href="#CMBX12-48"
                 id="use62" />
              <use
                 transform="translate(224.159402 0)scale(0.996264)"
                 xlink:href="#CMBX12-45"
                 id="use64" />
              <use
                 transform="translate(261.519303 0)scale(0.996264)"
                 xlink:href="#CMBX12-48"
                 id="use66" />
              <use
                 transform="translate(317.559153 0)scale(0.996264)"
                 xlink:href="#CMBX12-50"
                 id="use68" />
              <use
                 transform="translate(373.599004 0)scale(0.996264)"
                 xlink:href="#CMBX12-45"
                 id="use70" />
              <use
                 transform="translate(410.958904 0)scale(0.996264)"
                 xlink:href="#CMBX12-49"
                 id="use72" />
              <use
                 transform="translate(466.998755 0)scale(0.996264)"
                 xlink:href="#CMBX12-48"
                 id="use74" />
            </g>
          </g>
        </g>
        <g
           id="xtick_3">
          <g
             id="line2d_3">
            <g
               id="g82">
              <use
                 style="stroke:#000000;stroke-width:0.8;"
                 x="478.864141"
                 xlink:href="#m7e9ae023c8"
                 y="351.892606"
                 id="use80" />
            </g>
          </g>
          <g
             id="text_3">
            <!-- \textbf{2020-02-19} -->
            <defs
               id="defs86">
              <path
                 d="M 38.703125 28.375  C 38.703125 21.375 38.703125 2.96875 23.09375 2.96875  C 20 2.96875 16.40625 3.765625 14.296875 5.375  C 17.203125 5.96875 19.296875 8.078125 19.296875 11.296875  C 19.296875 14.90625 16.59375 17.21875 13.40625 17.21875  C 10.796875 17.21875 7.5 15.515625 7.5 11.109375  C 7.5 4.109375 13 -1 23.296875 -1  C 36 -1 51.40625 7.265625 51.40625 32.984375  C 51.40625 39.671875 51.40625 65.578125 28.296875 65.578125  C 14.5 65.578125 4.703125 57.625 4.703125 44  C 4.703125 30.171875 14.296875 22.734375 26.296875 22.734375  C 30.5 22.734375 35.5 24.21875 38.703125 31.265625  z M 27.296875 26  C 17.40625 26 17.40625 34.046875 17.40625 43.796875  C 17.40625 53.359375 17.40625 62 28.296875 62  C 34.703125 62 37 56.34375 37.40625 55.25  C 38.40625 52.25 38.59375 46.09375 38.59375 42.8125  C 38.59375 35.859375 35.703125 26 27.296875 26  z "
                 id="CMBX12-57" />
            </defs>
            <g
               transform="translate(395.274171 416.967924)rotate(-30)scale(0.18 -0.18)"
               id="g108">
              <use
                 transform="scale(0.996264)"
                 xlink:href="#CMBX12-50"
                 id="use88" />
              <use
                 transform="translate(56.039851 0)scale(0.996264)"
                 xlink:href="#CMBX12-48"
                 id="use90" />
              <use
                 transform="translate(112.079701 0)scale(0.996264)"
                 xlink:href="#CMBX12-50"
                 id="use92" />
              <use
                 transform="translate(168.119552 0)scale(0.996264)"
                 xlink:href="#CMBX12-48"
                 id="use94" />
              <use
                 transform="translate(224.159402 0)scale(0.996264)"
                 xlink:href="#CMBX12-45"
                 id="use96" />
              <use
                 transform="translate(261.519303 0)scale(0.996264)"
                 xlink:href="#CMBX12-48"
                 id="use98" />
              <use
                 transform="translate(317.559153 0)scale(0.996264)"
                 xlink:href="#CMBX12-50"
                 id="use100" />
              <use
                 transform="translate(373.599004 0)scale(0.996264)"
                 xlink:href="#CMBX12-45"
                 id="use102" />
              <use
                 transform="translate(410.958904 0)scale(0.996264)"
                 xlink:href="#CMBX12-49"
                 id="use104" />
              <use
                 transform="translate(466.998755 0)scale(0.996264)"
                 xlink:href="#CMBX12-57"
                 id="use106" />
            </g>
          </g>
        </g>
        <g
           id="xtick_4">
          <g
             id="line2d_4">
            <g
               id="g114">
              <use
                 style="stroke:#000000;stroke-width:0.8;"
                 x="663.447796"
                 xlink:href="#m7e9ae023c8"
                 y="351.892606"
                 id="use112" />
            </g>
          </g>
          <g
             id="text_4">
            <!-- \textbf{2020-02-25} -->
            <defs
               id="defs118">
              <path
                 d="M 15.40625 51.796875  C 18.796875 51 21.5 51 23 51  C 25.40625 51 31.09375 51 37.796875 55.109375  C 40.90625 56.984375 46.09375 61.5 46.09375 63.796875  C 46.09375 64.296875 46.09375 65.5 44.90625 65.5  C 44.796875 65.5 44.59375 65.5 43.59375 64.984375  C 39 63.34375 34.09375 62.21875 28.5 62.21875  C 22.796875 62.21875 18 63.3125 13.296875 65  C 12.59375 65.203125 12.296875 65.40625 12 65.40625  C 10.796875 65.40625 10.796875 64.40625 10.796875 62.71875  L 10.796875 33.796875  C 10.796875 31.90625 10.796875 30.8125 12.796875 30.8125  C 13.796875 30.8125 14 30.921875 14.796875 31.90625  C 16 33.3125 19.59375 37.71875 28.09375 37.71875  C 37.296875 37.71875 37.296875 28.359375 37.296875 20.5  C 37.296875 13.3125 37.296875 2.96875 25 2.96875  C 21.296875 2.96875 15 4.359375 11.59375 10  C 16.90625 10 18.203125 13.984375 18.203125 16.171875  C 18.203125 19.75 15.59375 22.421875 11.90625 22.421875  C 8.90625 22.421875 5.59375 20.640625 5.59375 15.96875  C 5.59375 7.34375 13.5 -1 25.40625 -1  C 40.796875 -1 50.5 7.859375 50.5 20.203125  C 50.5 32.34375 42.203125 41 28.5 41  C 24.5 41 19.703125 40.203125 15.40625 37.015625  z "
                 id="CMBX12-53" />
            </defs>
            <g
               transform="translate(579.857826 416.967924)rotate(-30)scale(0.18 -0.18)"
               id="g140">
              <use
                 transform="scale(0.996264)"
                 xlink:href="#CMBX12-50"
                 id="use120" />
              <use
                 transform="translate(56.039851 0)scale(0.996264)"
                 xlink:href="#CMBX12-48"
                 id="use122" />
              <use
                 transform="translate(112.079701 0)scale(0.996264)"
                 xlink:href="#CMBX12-50"
                 id="use124" />
              <use
                 transform="translate(168.119552 0)scale(0.996264)"
                 xlink:href="#CMBX12-48"
                 id="use126" />
              <use
                 transform="translate(224.159402 0)scale(0.996264)"
                 xlink:href="#CMBX12-45"
                 id="use128" />
              <use
                 transform="translate(261.519303 0)scale(0.996264)"
                 xlink:href="#CMBX12-48"
                 id="use130" />
              <use
                 transform="translate(317.559153 0)scale(0.996264)"
                 xlink:href="#CMBX12-50"
                 id="use132" />
              <use
                 transform="translate(373.599004 0)scale(0.996264)"
                 xlink:href="#CMBX12-45"
                 id="use134" />
              <use
                 transform="translate(410.958904 0)scale(0.996264)"
                 xlink:href="#CMBX12-50"
                 id="use136" />
              <use
                 transform="translate(466.998755 0)scale(0.996264)"
                 xlink:href="#CMBX12-53"
                 id="use138" />
            </g>
          </g>
        </g>
        <g
           id="xtick_5">
          <g
             id="line2d_5">
            <g
               id="g146">
              <use
                 style="stroke:#000000;stroke-width:0.8;"
                 x="848.031451"
                 xlink:href="#m7e9ae023c8"
                 y="351.892606"
                 id="use144" />
            </g>
          </g>
        </g>
        <g
           id="text_5">
          <!-- \textbf{} -->
          <g
             transform="translate(463.174531 440.27777)scale(0.22 -0.22)"
             id="g150" />
        </g>
      </g>
      <g
         id="matplotlib.axis_2">
        <g
           id="ytick_1">
          <g
             id="line2d_6">
            <defs
               id="defs155">
              <path
                 d="M 0 0  L -3.5 0  "
                 id="m8e02249b8b"
                 style="stroke:#000000;stroke-width:0.8;" />
            </defs>
            <g
               id="g159">
              <use
                 style="stroke:#000000;stroke-width:0.8;"
                 x="74.349062"
                 xlink:href="#m8e02249b8b"
                 y="351.892606"
                 id="use157" />
            </g>
          </g>
          <g
             id="text_6">
            <!-- $0.0$ -->
            <defs
               id="defs163">
              <path
                 d="M 23.703125 7.765625  C 23.703125 12.046875 20.203125 15.53125 15.90625 15.53125  C 11.59375 15.53125 8.09375 12.046875 8.09375 7.765625  C 8.09375 3.484375 11.59375 0 15.90625 0  C 20.203125 0 23.703125 3.484375 23.703125 7.765625  z "
                 id="CMMIB10-58" />
            </defs>
            <g
               transform="translate(41.349092 358.142606)scale(0.18 -0.18)"
               id="g171">
              <use
                 transform="scale(0.996264)"
                 xlink:href="#CMBX12-48"
                 id="use165" />
              <use
                 transform="translate(56.039851 0)scale(0.996264)"
                 xlink:href="#CMMIB10-58"
                 id="use167" />
              <use
                 transform="translate(87.864782 0)scale(0.996264)"
                 xlink:href="#CMBX12-48"
                 id="use169" />
            </g>
          </g>
        </g>
        <g
           id="ytick_2">
          <g
             id="line2d_7">
            <g
               id="g177">
              <use
                 style="stroke:#000000;stroke-width:0.8;"
                 x="74.349062"
                 xlink:href="#m8e02249b8b"
                 y="290.86402"
                 id="use175" />
            </g>
          </g>
          <g
             id="text_7">
            <!-- $0.1$ -->
            <g
               transform="translate(41.349092 297.11402)scale(0.18 -0.18)"
               id="g186">
              <use
                 transform="scale(0.996264)"
                 xlink:href="#CMBX12-48"
                 id="use180" />
              <use
                 transform="translate(56.039851 0)scale(0.996264)"
                 xlink:href="#CMMIB10-58"
                 id="use182" />
              <use
                 transform="translate(87.864782 0)scale(0.996264)"
                 xlink:href="#CMBX12-49"
                 id="use184" />
            </g>
          </g>
        </g>
        <g
           id="ytick_3">
          <g
             id="line2d_8">
            <g
               id="g192">
              <use
                 style="stroke:#000000;stroke-width:0.8;"
                 x="74.349062"
                 xlink:href="#m8e02249b8b"
                 y="229.835434"
                 id="use190" />
            </g>
          </g>
          <g
             id="text_8">
            <!-- $0.2$ -->
            <g
               transform="translate(41.349092 236.085434)scale(0.18 -0.18)"
               id="g201">
              <use
                 transform="scale(0.996264)"
                 xlink:href="#CMBX12-48"
                 id="use195" />
              <use
                 transform="translate(56.039851 0)scale(0.996264)"
                 xlink:href="#CMMIB10-58"
                 id="use197" />
              <use
                 transform="translate(87.864782 0)scale(0.996264)"
                 xlink:href="#CMBX12-50"
                 id="use199" />
            </g>
          </g>
        </g>
        <g
           id="ytick_4">
          <g
             id="line2d_9">
            <g
               id="g207">
              <use
                 style="stroke:#000000;stroke-width:0.8;"
                 x="74.349062"
                 xlink:href="#m8e02249b8b"
                 y="168.806849"
                 id="use205" />
            </g>
          </g>
          <g
             id="text_9">
            <!-- $0.3$ -->
            <defs
               id="defs211">
              <path
                 d="M 26.09375 33  C 37.296875 33 37.296875 22.71875 37.296875 17.984375  C 37.296875 13.53125 37.296875 3.0625 26.5 3.0625  C 24.40625 3.0625 17.796875 3.0625 13 6.625  C 17.296875 7.515625 18.796875 10.59375 18.796875 13.5625  C 18.796875 17.625 15.90625 20.5 11.796875 20.5  C 7.59375 20.5 4.703125 17.625 4.703125 13.46875  C 4.703125 4.34375 14.703125 -1 27 -1  C 43.5 -1 51.40625 8.015625 51.40625 17.921875  C 51.40625 22.796875 48.90625 32.203125 33.40625 34.875  C 42.203125 37.59375 48.296875 43.8125 48.296875 51.71875  C 48.296875 59.25 41.09375 65.578125 27.203125 65.578125  C 16 65.578125 7.796875 59.65625 7.796875 51.53125  C 7.796875 46.515625 11.703125 44.90625 14.296875 44.90625  C 17.203125 44.90625 20.703125 46.8125 20.703125 51.4375  C 20.703125 53.765625 19.703125 57.171875 15 57.875  C 19.203125 62 26 62 26.59375 62  C 35.5 62 35.5 55.03125 35.5 52.015625  C 35.5 48.984375 35.09375 44.328125 31.90625 40.203125  C 29.296875 36.75 26.703125 36.5625 22.90625 36.5625  C 21.703125 36.265625 19.703125 36.265625 19.296875 36.078125  C 18.703125 35.78125 18.703125 35.078125 18.703125 34.6875  C 18.703125 33 19.296875 33 21.296875 33  z "
                 id="CMBX12-51" />
            </defs>
            <g
               transform="translate(41.349092 175.056849)scale(0.18 -0.18)"
               id="g219">
              <use
                 transform="scale(0.996264)"
                 xlink:href="#CMBX12-48"
                 id="use213" />
              <use
                 transform="translate(56.039851 0)scale(0.996264)"
                 xlink:href="#CMMIB10-58"
                 id="use215" />
              <use
                 transform="translate(87.864782 0)scale(0.996264)"
                 xlink:href="#CMBX12-51"
                 id="use217" />
            </g>
          </g>
        </g>
        <g
           id="ytick_5">
          <g
             id="line2d_10">
            <g
               id="g225">
              <use
                 style="stroke:#000000;stroke-width:0.8;"
                 x="74.349062"
                 xlink:href="#m8e02249b8b"
                 y="107.778263"
                 id="use223" />
            </g>
          </g>
          <g
             id="text_10">
            <!-- $0.4$ -->
            <defs
               id="defs229">
              <path
                 d="M 43.296875 15.71875  L 53 15.71875  L 53 20  L 43.296875 20  L 43.296875 62.609375  C 43.296875 65.09375 43.203125 65.5 40.703125 65.5  C 38.90625 65.5 38.703125 65.5 37.5 64  L 3.09375 20  L 3.09375 15.71875  L 31.5 15.71875  L 31.5 4.171875  L 20.59375 4.171875  L 20.59375 0  C 23.5 0 33.40625 0 37 0  C 40.40625 0 50.296875 0 53 -0.09375  L 53 4.171875  L 43.296875 4.171875  z M 32.40625 51.59375  L 32.40625 20  L 7.703125 20  z "
                 id="CMBX12-52" />
            </defs>
            <g
               transform="translate(41.349092 114.028263)scale(0.18 -0.18)"
               id="g237">
              <use
                 transform="scale(0.996264)"
                 xlink:href="#CMBX12-48"
                 id="use231" />
              <use
                 transform="translate(56.039851 0)scale(0.996264)"
                 xlink:href="#CMMIB10-58"
                 id="use233" />
              <use
                 transform="translate(87.864782 0)scale(0.996264)"
                 xlink:href="#CMBX12-52"
                 id="use235" />
            </g>
          </g>
        </g>
        <g
           id="ytick_6">
          <g
             id="line2d_11">
            <g
               id="g243">
              <use
                 style="stroke:#000000;stroke-width:0.8;"
                 x="74.349062"
                 xlink:href="#m8e02249b8b"
                 y="46.749677"
                 id="use241" />
            </g>
          </g>
          <g
             id="text_11">
            <!-- $0.5$ -->
            <g
               transform="translate(41.349092 52.999677)scale(0.18 -0.18)"
               id="g252">
              <use
                 transform="scale(0.996264)"
                 xlink:href="#CMBX12-48"
                 id="use246" />
              <use
                 transform="translate(56.039851 0)scale(0.996264)"
                 xlink:href="#CMMIB10-58"
                 id="use248" />
              <use
                 transform="translate(87.864782 0)scale(0.996264)"
                 xlink:href="#CMBX12-53"
                 id="use250" />
            </g>
          </g>
        </g>
        <g
           id="text_12">
          <!-- \textbf{Vibration RMS (g)} -->
          <defs
             id="defs270">
            <path
               d="M 72.40625 61.734375  C 73 63.015625 73.40625 64 80.796875 64  L 82.5 64  L 82.5 68.171875  C 79.40625 68.171875 72.203125 68.171875 71.40625 68.171875  C 68.59375 68.171875 61.5 68.171875 59.203125 68.28125  L 59.203125 64  C 61.40625 64 65.09375 64 67.90625 62.90625  L 67.40625 61.53125  L 46.90625 15.234375  L 25.296875 64  L 34.59375 64  L 34.59375 68.171875  C 31.40625 68.171875 21.796875 68.171875 18 68.171875  C 14.796875 68.171875 4.90625 68.171875 2.40625 68.28125  L 2.40625 64  L 11.40625 64  L 39 1.5625  C 39.90625 -0.40625 40.796875 -0.5 42.40625 -0.5  C 44 -0.5 45 -0.5 45.90625 1.5625  z "
               id="CMBX12-86" />
            <path
               d="M 22.296875 61.84375  C 22.296875 65.921875 19 69 15.09375 69  C 11 69 7.90625 65.625 7.90625 61.84375  C 7.90625 58.0625 11 54.6875 15.09375 54.6875  C 19 54.6875 22.296875 57.765625 22.296875 61.84375  z M 4.703125 44  L 4.703125 39.328125  C 10.59375 39.328125 11.296875 39.328125 11.296875 35.46875  L 11.296875 4.0625  L 4.40625 4.0625  L 4.40625 -0.203125  C 6.703125 0 13.59375 0 16.296875 0  C 19.09375 0 25.5 0 27.90625 -0.203125  L 27.90625 4.0625  L 21.703125 4.0625  L 21.703125 44  z "
               id="CMBX12-105" />
            <path
               d="M 20.796875 69  L 3.5 69  L 3.5 64.328125  C 9.703125 64.328125 10.40625 64.328125 10.40625 60.421875  L 10.40625 0  L 14.59375 0  C 16.296875 1.921875 18 3.859375 19.59375 5.875  C 24.703125 0.59375 30.203125 -0.5 34.203125 -0.5  C 48 -0.5 58.59375 7.875 58.59375 22.359375  C 58.59375 36.015625 49.203125 45 35.5 45  C 29.59375 45 24.90625 43.109375 20.796875 39.921875  z M 21.296875 35.125  C 24.796875 39.921875 30 41.71875 34.203125 41.71875  C 46.59375 41.71875 46.59375 29.046875 46.59375 22.453125  C 46.59375 17.953125 46.59375 12.265625 44.203125 8.5625  C 41.09375 3.765625 36.40625 2.78125 33.203125 2.78125  C 26.40625 2.78125 22.703125 7.5625 21.296875 9.765625  z "
               id="CMBX12-98" />
            <path
               d="M 20.796875 22.046875  C 20.796875 25.296875 21.5 41 33.203125 41  C 31.796875 39.921875 31.09375 38.25 31.09375 36.5  C 31.09375 32.484375 34.40625 30.8125 36.90625 30.8125  C 39.40625 30.8125 42.703125 32.484375 42.703125 36.515625  C 42.703125 41.53125 37.5 44.28125 32.703125 44.28125  C 24.796875 44.28125 21.40625 37.515625 20 33.390625  L 19.90625 33.390625  L 19.90625 44  L 3.5 44  L 3.5 39.328125  C 9.703125 39.328125 10.40625 39.328125 10.40625 35.46875  L 10.40625 4.0625  L 3.5 4.0625  L 3.5 -0.203125  C 5.796875 0 13.296875 0 16.09375 0  C 19 0 27.09375 0 29.5 -0.203125  L 29.5 4.0625  L 20.796875 4.0625  z "
               id="CMBX12-114" />
            <path
               d="M 46 29.65625  C 46 38.8125 38.703125 44.984375 24.59375 44.984375  C 19 44.984375 7.203125 44.984375 7.203125 36.46875  C 7.203125 32.203125 10.40625 30.390625 13.09375 30.390625  C 16.09375 30.390625 19 32.484375 19 36.296875  C 19 38.203125 18.296875 39.984375 16.59375 41.09375  C 19.90625 42 22.296875 42 24.203125 42  C 31 42 35.09375 38.203125 35.09375 29.984375  L 35.09375 25.984375  C 19.296875 25.984375 3.40625 21.59375 3.40625 10.5625  C 3.40625 1.484375 15 -0.5 21.90625 -0.5  C 29.59375 -0.5 34.5 3.640625 36.5 7.96875  C 36.5 4.28125 36.5 0 46.59375 0  L 51.703125 0  C 53.796875 0 54.59375 0 54.59375 2.265625  C 54.59375 4.265625 53.703125 4.265625 52.296875 4.265625  C 46 4.265625 46 5.84375 46 8.15625  z M 35.09375 13.78125  C 35.09375 4.546875 26.703125 2.78125 23.5 2.78125  C 18.59375 2.78125 14.5 6.09375 14.5 10.71875  C 14.5 19.890625 25.296875 23 35.09375 23  z "
               id="CMBX12-97" />
            <path
               d="M 21.09375 40  L 35.5 40  L 35.5 44.265625  L 21.09375 44.265625  L 21.09375 63  L 16.90625 63  C 16.796875 53.203125 12 43.375 2.09375 43.375  L 2.09375 40  L 10.203125 40  L 10.203125 12.328125  C 10.203125 1.78125 18.40625 -0.5 25.59375 -0.5  C 33 -0.5 37.40625 5.078125 37.40625 12.421875  L 37.40625 17.703125  L 33.203125 17.703125  L 33.203125 12.53125  C 33.203125 5.953125 30.203125 3.078125 27.09375 3.078125  C 21.09375 3.078125 21.09375 9.75 21.09375 12.03125  z "
               id="CMBX12-116" />
            <path
               d="M 53 21.796875  C 53 35.1875 43.796875 45 28.09375 45  C 11.796875 45 3.09375 34.6875 3.09375 21.796875  C 3.09375 8.828125 12.296875 -0.5 28 -0.5  C 44.296875 -0.5 53 9.3125 53 21.796875  z M 28.09375 3.078125  C 15.09375 3.078125 15.09375 14.671875 15.09375 22.796875  C 15.09375 27.453125 15.09375 32.40625 17 35.984375  C 19.203125 39.9375 23.703125 41.71875 28 41.71875  C 33.703125 41.71875 37.296875 39.046875 39 36.28125  C 41 32.703125 41 27.546875 41 22.796875  C 41 14.5625 41 3.078125 28.09375 3.078125  z "
               id="CMBX12-111" />
            <path
               d="M 53.09375 30.0625  C 53.09375 39.453125 49 44.28125 38 44.28125  C 30.796875 44.28125 24.59375 40.859375 21.203125 33.484375  L 21.09375 33.484375  L 21.09375 44  L 4.203125 44  L 4.203125 39.328125  C 10.40625 39.328125 11.09375 39.328125 11.09375 35.46875  L 11.09375 4.0625  L 4.203125 4.0625  L 4.203125 -0.203125  C 6.5 0 13.703125 0 16.5 0  C 19.296875 0 26.59375 0 28.90625 -0.203125  L 28.90625 4.0625  L 22 4.0625  L 22 25.109375  C 22 35.765625 30 41 36.40625 41  C 40.09375 41 42.203125 38.640625 42.203125 31.140625  L 42.203125 4.0625  L 35.296875 4.0625  L 35.296875 -0.203125  C 37.59375 0 44.796875 0 47.59375 0  C 50.40625 0 57.703125 0 60 -0.203125  L 60 4.0625  L 53.09375 4.0625  z "
               id="CMBX12-110" />
            <path
               d="M 52.90625 33.65625  C 66.40625 37.234375 69.703125 44.359375 69.703125 49.734375  C 69.703125 59.671875 59.203125 68 40.703125 68  L 3.796875 68  L 3.796875 63.71875  L 14.40625 63.71875  L 14.40625 4.171875  L 3.796875 4.171875  L 3.796875 0  C 6.703125 0 17.09375 0 20.703125 0  C 24.296875 0 34.796875 0 37.703125 0  L 37.703125 4.171875  L 27.09375 4.171875  L 27.09375 32.71875  L 39 32.71875  C 43 32.71875 46.203125 31.515625 48.40625 28.890625  C 51.40625 25.46875 51.40625 23.25 51.40625 16.515625  C 51.40625 9.78125 51.40625 5.671875 56.5 2.25  C 61.703125 -1.28125 69.90625 -1.28125 72.09375 -1.28125  C 82.296875 -1.28125 83.5 7.71875 83.5 9.109375  C 83.5 10.8125 82.703125 11.109375 81.40625 11.109375  C 79.5 11.109375 79.40625 10.421875 79.296875 9.109375  C 78.796875 4.09375 75.703125 2 72.90625 2  C 66.5 2 65.796875 8.65625 65 17.765625  C 64.40625 23.03125 63.703125 30.375 52.90625 33.65625  z M 38.796875 36  L 27.09375 36  L 27.09375 63.71875  L 39 63.71875  C 55.296875 63.71875 55.59375 55.6875 55.59375 49.90625  C 55.59375 44.515625 55.5 36 38.796875 36  z "
               id="CMBX12-82" />
            <path
               d="M 53.296875 12.453125  L 29.296875 65.90625  C 28.40625 68 27.5 68 25.40625 68  L 4.09375 68  L 4.09375 63.71875  L 14.703125 63.71875  L 14.703125 6.9375  C 14.703125 4.75 14.59375 4.65625 12 4.25  C 10.203125 4.0625 8.203125 4.0625 6.40625 4.0625  L 4.09375 4.0625  L 4.09375 -0.203125  C 6.40625 0 14.203125 0 17 0  C 19.796875 0 27.703125 0 30 -0.203125  L 30 4.0625  L 27.703125 4.0625  C 25 4.0625 24.796875 4.0625 22.40625 4.359375  C 19.5 4.765625 19.40625 4.859375 19.40625 7.046875  L 19.40625 62.53125  L 19.5 62.53125  L 46.703125 2.09375  C 47.203125 1 47.796875 0 49.5 0  C 51.203125 0 51.796875 1 52.296875 2.09375  L 80 63.71875  L 80.09375 63.71875  L 80.09375 4.0625  L 69.5 4.0625  L 69.5 -0.203125  C 72.203125 0 82.59375 0 86 0  C 89.40625 0 99.796875 0 102.5 -0.203125  L 102.5 4.0625  L 91.90625 4.0625  L 91.90625 63.71875  L 102.5 63.71875  L 102.5 68  L 81.203125 68  C 79.09375 68 78.203125 68 77.296875 65.90625  z "
               id="CMBX12-77" />
            <path
               d="M 25.40625 43.46875  C 15.5 45.625 15.203125 52.75 15.203125 54.140625  C 15.203125 59.171875 18.5 65.03125 28.203125 65.03125  C 37.90625 65.03125 46.59375 60.359375 48.703125 47.34375  C 49 45.25 49 45.25 50.90625 45.25  C 53 45.25 53 45.546875 53 47.8125  L 53 66.4375  C 53 68.3125 53 69.015625 51.5 69.015625  C 50.796875 69.015625 50.5 68.921875 49.59375 67.921875  L 45.296875 63.046875  C 42.796875 65.140625 37.796875 69 28.09375 69  C 13.796875 69 6.203125 60.09375 6.203125 49.3125  C 6.203125 42.6875 9.796875 38.03125 11.203125 36.640625  C 16.40625 31.5 19.203125 30.90625 29.59375 28.625  C 39.59375 26.453125 40.796875 26.25 43 24.1875  C 44.296875 22.890625 47.203125 20.125 47.203125 15.078125  C 47.203125 10.8125 45.09375 3 33.90625 3  C 25.09375 3 11.203125 5.96875 10.40625 20.421875  C 10.296875 22.203125 10.296875 22.5 8.296875 22.5  C 6.203125 22.5 6.203125 22.203125 6.203125 19.921875  L 6.203125 1.296875  C 6.203125 -0.59375 6.203125 -1.28125 7.703125 -1.28125  C 8.40625 -1.28125 8.5 -1.1875 9.5 -0.296875  C 10.59375 0.796875 11.5 2.09375 14 4.578125  C 19.796875 0.015625 28 -1.265625 34 -1.265625  C 49.59375 -1.265625 56.203125 9.21875 56.203125 19.71875  C 56.203125 29 50 37.90625 39.09375 40.375  z "
               id="CMBX12-83" />
            <path
               d="M 37.40625 -23.8125  C 37.40625 -23.40625 37.40625 -23.203125 35.5 -21.421875  C 24.296875 -10.296875 20 7.203125 20 24.6875  C 20 44.28125 24.90625 60.390625 36.09375 71.609375  C 37.296875 72.796875 37.40625 72.90625 37.40625 73.296875  C 37.40625 74.5 36.203125 74.5 35.703125 74.5  C 34.796875 74.5 34.59375 74.5 32 72.40625  C 17.59375 60.984375 10.796875 42.6875 10.796875 24.8125  C 10.796875 6.515625 17.703125 -11.28125 31.90625 -22.8125  C 34.5 -25 34.703125 -25 35.703125 -25  C 36.203125 -25 37.40625 -25 37.40625 -23.8125  z "
               id="CMBX12-40" />
            <path
               d="M 13 18.578125  C 17.796875 16 23.40625 16 24.90625 16  C 38.703125 16 44.203125 23.65625 44.203125 30.625  C 44.203125 35.703125 41.296875 39.296875 40.09375 40.28125  C 43 41.8125 45.40625 42.1875 47.09375 42.390625  C 46.796875 41.90625 46.5 41.53125 46.5 40.28125  C 46.5 38.28125 47.90625 36.46875 50.5 36.46875  C 53.09375 36.46875 54.5 38.359375 54.5 40.4375  C 54.5 42.828125 52.703125 46 48.5 46  C 44.203125 46 40.09375 43.796875 38 41.90625  C 33.90625 44.28125 30 45.171875 24.90625 45.171875  C 11.09375 45.171875 5.59375 37.546875 5.59375 30.578125  C 5.59375 27.5 6.59375 23.453125 10.796875 20.078125  C 9.09375 18.140625 7.296875 14.578125 7.296875 10.921875  C 7.296875 6.5625 9.59375 2.8125 11.703125 1.1875  C 9.296875 0.609375 3.09375 -1.640625 3.09375 -7.203125  C 3.09375 -12.96875 9.59375 -19.5 28 -19.5  C 44.59375 -19.5 53 -14.21875 53 -6.859375  C 53 1.78125 47.203125 4.609375 44.703125 5.78125  C 39.90625 8.140625 33.5 8.140625 24.703125 8.140625  C 22.203125 8.140625 17.796875 8.140625 17.296875 8.234375  C 13 8.984375 11.796875 12.953125 11.796875 14.953125  C 11.796875 15.78125 11.90625 17.296875 13 18.578125  z M 24.90625 19.171875  C 16.203125 19.171875 16.203125 26.015625 16.203125 30.578125  C 16.203125 35.15625 16.203125 42 24.90625 42  C 33.59375 42 33.59375 35.15625 33.59375 30.578125  C 33.59375 26.015625 33.59375 19.171875 24.90625 19.171875  z M 30.5 -1  C 37.796875 -1 44.796875 -2.265625 44.796875 -7.296875  C 44.796875 -10.703125 41.296875 -16.328125 28.09375 -16.328125  C 14.90625 -16.328125 11.296875 -10.890625 11.296875 -7.203125  C 11.296875 -1 17.59375 -1 19.09375 -1  z "
               id="CMBX12-103" />
            <path
               d="M 32.796875 24.703125  C 32.796875 42.984375 25.90625 60.78125 11.703125 72.3125  C 9.09375 74.5 8.90625 74.5 7.90625 74.5  C 7.40625 74.5 6.203125 74.5 6.203125 73.3125  C 6.203125 72.921875 6.203125 72.71875 8.09375 70.9375  C 19.296875 59.796875 23.59375 42.3125 23.59375 24.8125  C 23.59375 5.21875 18.703125 -10.875 7.5 -22.109375  C 6.296875 -23.3125 6.203125 -23.40625 6.203125 -23.8125  C 6.203125 -25 7.40625 -25 7.90625 -25  C 8.796875 -25 9 -25 11.59375 -22.90625  C 26 -11.484375 32.796875 6.8125 32.796875 24.703125  z "
               id="CMBX12-41" />
          </defs>
          <g
             transform="translate(30.849092 285.892523)rotate(-90)scale(0.22 -0.22)"
             id="g302">
            <use
               transform="translate(0 -0.0934)scale(0.996264)"
               xlink:href="#CMBX12-86"
               id="use272" />
            <use
               transform="translate(84.636395 -0.0934)scale(0.996264)"
               xlink:href="#CMBX12-105"
               id="use274" />
            <use
               transform="translate(115.769645 -0.0934)scale(0.996264)"
               xlink:href="#CMBX12-98"
               id="use276" />
            <use
               transform="translate(178.036146 -0.0934)scale(0.996264)"
               xlink:href="#CMBX12-114"
               id="use278" />
            <use
               transform="translate(223.813653 -0.0934)scale(0.996264)"
               xlink:href="#CMBX12-97"
               id="use280" />
            <use
               transform="translate(278.296841 -0.0934)scale(0.996264)"
               xlink:href="#CMBX12-116"
               id="use282" />
            <use
               transform="translate(321.883391 -0.0934)scale(0.996264)"
               xlink:href="#CMBX12-105"
               id="use284" />
            <use
               transform="translate(353.016642 -0.0934)scale(0.996264)"
               xlink:href="#CMBX12-111"
               id="use286" />
            <use
               transform="translate(409.056492 -0.0934)scale(0.996264)"
               xlink:href="#CMBX12-110"
               id="use288" />
            <use
               transform="translate(508.682893 -0.0934)scale(0.996264)"
               xlink:href="#CMBX12-82"
               id="use290" />
            <use
               transform="translate(592.281569 -0.0934)scale(0.996264)"
               xlink:href="#CMBX12-77"
               id="use292" />
            <use
               transform="translate(698.595994 -0.0934)scale(0.996264)"
               xlink:href="#CMBX12-83"
               id="use294" />
            <use
               transform="translate(798.222395 -0.0934)scale(0.996264)"
               xlink:href="#CMBX12-40"
               id="use296" />
            <use
               transform="translate(841.808945 -0.0934)scale(0.996264)"
               xlink:href="#CMBX12-103"
               id="use298" />
            <use
               transform="translate(897.848796 -0.0934)scale(0.996264)"
               xlink:href="#CMBX12-41"
               id="use300" />
          </g>
        </g>
      </g>
      <g
         id="line2d_12">
        <path
           clip-path="url(#p5524658545)"
           d="M 109.696831 272.427285  L 110.61975 282.08811  L 111.542668 267.490072  L 112.465586 288.923311  L 113.388505 273.147422  L 114.311423 280.531881  L 115.234341 267.361912  L 116.157259 289.771609  L 117.080178 276.089  L 118.003096 282.295607  L 118.926014 273.013159  L 119.848933 283.705367  L 121.694769 289.106397  L 122.617687 288.831768  L 123.540606 286.659151  L 124.463524 292.786421  L 125.386442 289.88146  L 126.30936 280.476955  L 128.155197 294.495221  L 129.078115 293.006124  L 130.001034 279.891081  L 130.923952 278.627789  L 131.84687 274.685342  L 132.769788 267.453455  L 133.692707 282.112521  L 134.615625 286.537094  L 135.538543 283.046259  L 136.461461 285.395859  L 138.307298 275.350554  L 139.230216 281.325252  L 140.153135 281.612087  L 141.076053 281.728041  L 141.998971 282.911996  L 142.921889 280.208429  L 143.844808 281.514441  L 144.767726 272.238096  L 145.690644 276.497891  L 146.613562 277.41332  L 147.536481 288.502214  L 148.459399 285.304316  L 149.382317 290.656523  L 150.305236 279.097709  L 151.228154 287.086351  L 152.151072 264.579008  L 153.07399 272.500519  L 153.996909 271.774279  L 154.919827 279.683583  L 155.842745 276.503994  L 156.765664 274.941662  L 157.688582 278.176177  L 158.6115 268.210209  L 159.534418 279.012269  L 160.457337 278.987858  L 161.380255 281.819584  L 162.303173 273.995719  L 163.226091 276.760314  L 164.14901 277.309571  L 165.071928 279.482189  L 165.994846 286.878854  L 166.917765 285.060202  L 167.840683 278.975652  L 169.686519 283.937276  L 170.609438 274.245936  L 171.532356 284.218007  L 172.455274 283.272064  L 173.378192 286.146511  L 174.301111 272.43949  L 175.224029 262.906825  L 176.146947 272.769045  L 177.069866 261.692356  L 177.992784 272.732428  L 178.915702 278.804772  L 179.83862 275.167468  L 180.761539 261.332288  L 181.684457 278.414189  L 183.530293 271.212816  L 184.453212 268.869318  L 185.37613 274.367994  L 186.299048 276.070691  L 187.221967 276.47348  L 188.144885 280.470852  L 189.067803 279.293  L 189.990721 280.464749  L 190.91364 270.822233  L 191.836558 276.650463  L 192.759476 272.671399  L 193.682395 280.855332  L 194.605313 274.844017  L 195.528231 270.748998  L 196.451149 263.425568  L 197.374068 261.649636  L 198.296986 276.400246  L 199.219904 276.034074  L 200.142822 274.367994  L 201.065741 277.767286  L 201.988659 276.34532  L 202.911577 281.679218  L 203.834496 279.750715  L 204.757414 281.74635  L 205.680332 278.627789  L 206.60325 278.188383  L 207.526169 282.991333  L 208.449087 283.02795  L 209.372005 280.153504  L 210.294923 278.176177  L 211.217842 282.698396  L 213.063678 273.769913  L 213.986597 283.076773  L 214.909515 288.51442  L 215.832433 285.835265  L 216.755351 275.887605  L 217.67827 280.074166  L 218.601188 281.416795  L 219.524106 286.250259  L 220.447024 283.601619  L 221.369943 282.332224  L 222.292861 276.845754  L 223.215779 280.165709  L 224.138698 289.020957  L 225.061616 279.0794  L 225.984534 281.245915  L 226.907452 278.298235  L 227.830371 290.027929  L 228.753289 287.464728  L 229.676207 278.176177  L 230.599126 280.245046  L 231.522044 286.634739  L 232.444962 286.140408  L 234.290799 290.931152  L 236.136635 279.897183  L 237.059553 260.960013  L 237.982472 253.978343  L 238.90539 262.821385  L 239.828308 262.650505  L 240.751227 254.552012  L 241.674145 270.041067  L 242.597063 262.803077  L 243.519981 272.793456  L 244.4429 271.035833  L 245.365818 268.545867  L 246.288736 276.980017  L 247.211654 266.660083  L 248.134573 262.638299  L 249.057491 283.19883  L 249.980409 273.898073  L 250.903328 261.704562  L 251.826246 267.972198  L 252.749164 267.380221  L 253.672082 271.981776  L 254.595001 264.023648  L 255.517919 273.885868  L 256.440837 275.680108  L 257.363755 274.624314  L 258.286674 279.372338  L 259.209592 275.2346  L 260.13251 273.611239  L 261.055429 273.12301  L 261.978347 275.497022  L 262.901265 276.381937  L 263.824183 276.296497  L 264.747102 282.783836  L 265.67002 271.078553  L 266.592938 274.911148  L 267.515857 267.014049  L 268.438775 272.018393  L 269.361693 280.464749  L 270.284611 280.702761  L 271.20753 264.145705  L 272.130448 264.536288  L 273.053366 258.77519  L 273.976284 264.414231  L 274.899203 258.299167  L 275.822121 257.261681  L 276.745039 261.625225  L 277.667958 253.990549  L 278.590876 267.136106  L 279.513794 266.287809  L 280.436712 257.57903  L 281.359631 270.028861  L 282.282549 262.180585  L 283.205467 248.565107  L 284.128385 276.967811  L 285.051304 267.648746  L 285.974222 277.785594  L 286.89714 269.638278  L 287.820059 277.596406  L 288.742977 268.448221  L 289.665895 266.757729  L 290.588813 270.523193  L 291.511732 279.366235  L 292.43465 273.538005  L 293.357568 59.663326  L 294.280486 286.653048  L 295.203405 234.260007  L 296.126323 250.652285  L 297.049241 250.585154  L 297.97216 254.619143  L 298.895078 249.596491  L 299.817996 269.32093  L 300.740914 267.825729  L 301.663833 268.661821  L 302.586751 277.260749  L 303.509669 279.213663  L 304.432588 262.406391  L 305.355506 275.472611  L 306.278424 255.955669  L 307.201342 270.041067  L 308.124261 270.108198  L 309.047179 260.715899  L 309.970097 266.989638  L 310.893015 280.330486  L 311.815934 260.923396  L 312.738852 275.936428  L 313.66177 268.899832  L 314.584689 267.337501  L 315.507607 280.177915  L 316.430525 245.696764  L 317.353443 245.031552  L 318.276362 239.642728  L 319.19928 242.212032  L 320.122198 242.535483  L 321.045116 255.430823  L 321.968035 260.111716  L 322.890953 229.798817  L 323.813871 263.712403  L 324.73679 253.337543  L 325.659708 266.580746  L 326.582626 256.755144  L 327.505544 275.088131  L 328.428463 271.762073  L 329.351381 263.260791  L 330.274299 268.710644  L 331.197217 263.871077  L 332.120136 253.856286  L 333.043054 259.055921  L 333.965972 258.762984  L 334.888891 265.793477  L 335.811809 263.388951  L 336.734727 258.665338  L 337.657645 257.542412  L 338.580564 259.190184  L 339.503482 270.028861  L 340.4264 249.791782  L 341.349318 247.423873  L 342.272237 263.895488  L 343.195155 267.959992  L 344.118073 265.988769  L 345.040992 258.26255  L 345.96391 258.531076  L 346.886828 252.965269  L 347.809746 261.393316  L 348.732665 260.752516  L 349.655583 266.025386  L 350.578501 252.324468  L 351.50142 263.773431  L 352.424338 262.028014  L 353.347256 261.826619  L 354.270174 269.253798  L 355.193093 259.098641  L 356.116011 265.976563  L 357.038929 274.544977  L 357.961847 272.09773  L 358.884766 265.134369  L 359.807684 264.243351  L 360.730602 226.130999  L 361.653521 255.406412  L 362.576439 263.285202  L 363.499357 248.65665  L 364.422275 259.135259  L 365.345194 259.574664  L 366.268112 271.377593  L 367.19103 261.637431  L 368.113948 256.810069  L 369.036867 250.933017  L 369.959785 263.675785  L 370.882703 245.647941  L 371.805622 241.540717  L 372.72854 244.268695  L 373.651458 242.450043  L 375.497295 244.433472  L 376.420213 244.860672  L 377.343131 247.088216  L 378.266049 246.545061  L 379.188968 246.575576  L 380.111886 247.185861  L 381.034804 239.929563  L 381.957723 245.678455  L 382.880641 244.073404  L 383.803559 239.300968  L 384.726477 241.949609  L 385.649396 240.173677  L 386.572314 244.274798  L 387.495232 245.861541  L 388.418151 243.505838  L 389.341069 237.860694  L 390.263987 233.118772  L 391.186905 236.74387  L 392.109824 238.879871  L 393.032742 252.757771  L 393.95566 251.634845  L 394.878578 248.650548  L 395.801497 246.795279  L 396.724415 244.140535  L 397.647333 250.414274  L 398.570252 248.131805  L 399.49317 247.039393  L 400.416088 243.829289  L 401.339006 246.172787  L 402.261925 255.467441  L 404.107761 246.612193  L 405.030679 255.461338  L 405.953598 253.538937  L 406.876516 251.939988  L 407.799434 254.161429  L 408.722353 243.926935  L 409.645271 251.586022  L 410.568189 248.48577  L 411.491107 252.001017  L 412.414026 251.207645  L 413.336944 253.691509  L 414.259862 243.987964  L 415.18278 244.640969  L 416.105699 244.396855  L 417.028617 241.089106  L 417.951535 243.426501  L 418.874454 241.296603  L 419.797372 245.690661  L 421.643208 241.436969  L 422.566127 242.52938  L 423.489045 250.383759  L 424.411963 247.179759  L 425.334882 241.595643  L 426.2578 254.234663  L 427.180718 236.475345  L 428.103636 245.684558  L 429.026555 237.567756  L 429.949473 244.280901  L 430.872391 249.828399  L 431.795309 243.664512  L 432.718228 238.800534  L 433.641146 242.065563  L 434.564064 249.785679  L 435.486983 245.989701  L 436.409901 235.230361  L 437.332819 243.725541  L 439.178656 234.253904  L 440.101574 246.581678  L 441.024492 245.92257  L 441.94741 246.490136  L 442.870329 246.22161  L 443.793247 249.706342  L 444.716165 250.426479  L 445.639084 252.403806  L 446.562002 257.756013  L 447.48492 174.751033  L 448.407838 165.419762  L 449.330757 166.756288  L 450.253675 167.628997  L 451.176593 167.952448  L 452.099511 169.307283  L 453.02243 166.359602  L 453.945348 165.139031  L 454.868266 169.679557  L 455.791185 162.417156  L 456.714103 167.354368  L 457.637021 167.818186  L 458.559939 168.666483  L 459.482858 175.019559  L 460.405776 172.688267  L 461.328694 173.170392  L 462.251613 173.426713  L 463.174531 171.742324  L 464.097449 171.937615  L 465.020367 174.159056  L 465.943286 173.579284  L 466.866204 171.565341  L 467.789122 172.309889  L 468.71204 166.835625  L 469.634959 169.703969  L 470.557877 167.262825  L 471.480795 170.350872  L 472.403714 166.139899  L 473.326632 169.185226  L 474.24955 171.632472  L 475.172468 172.334301  L 476.095387 173.725753  L 477.018305 169.649043  L 477.941223 172.273272  L 478.864141 171.132038  L 479.78706 172.480769  L 480.709978 173.030027  L 481.632896 174.152953  L 482.555815 173.243627  L 483.478733 173.20701  L 484.401651 173.646415  L 485.324569 171.821661  L 486.247488 170.479032  L 487.170406 171.888792  L 488.093324 172.828632  L 489.016242 170.979466  L 489.939161 171.101523  L 490.862079 158.169566  L 491.784997 157.13208  L 492.707916 154.361382  L 493.630834 155.08152  L 494.553752 157.85832  L 495.47667 158.962938  L 496.399589 156.729291  L 497.322507 153.091988  L 498.245425 156.540103  L 499.168344 158.175669  L 500.091262 161.257613  L 501.01418 158.41368  L 501.937098 157.138183  L 502.860017 161.373567  L 503.782935 155.63688  L 504.705853 156.564514  L 505.628771 158.956835  L 506.55169 159.994321  L 507.474608 160.842618  L 508.397526 159.939395  L 509.320445 158.145155  L 510.243363 159.445064  L 511.166281 153.500879  L 512.089199 166.933271  L 513.012118 174.641181  L 514.857954 165.334322  L 515.780872 163.21663  L 516.703791 162.435464  L 517.626709 159.713589  L 518.549627 165.108516  L 519.472546 166.560997  L 520.395464 164.45551  L 521.318382 163.222733  L 522.2413 166.274162  L 523.164219 164.772859  L 524.087137 164.894916  L 525.010055 167.775465  L 525.932973 171.669089  L 526.855892 168.74582  L 528.701728 171.022186  L 529.624647 172.65165  L 530.547565 174.598461  L 531.470483 172.584518  L 532.393401 173.371787  L 533.31632 160.848721  L 534.239238 161.172172  L 535.162156 159.817338  L 537.007993 157.754572  L 537.930911 158.706618  L 539.776748 163.314276  L 540.699666 158.639486  L 541.622584 160.366595  L 542.545502 158.389269  L 543.468421 160.873132  L 544.391339 158.401475  L 547.160094 160.690047  L 549.928849 159.707486  L 550.851767 160.037041  L 551.774685 159.957704  L 552.697603 160.488652  L 553.620522 160.244538  L 554.54344 158.560149  L 555.466358 168.068403  L 556.389277 168.31862  L 558.235113 167.854803  L 559.158031 167.781568  L 560.08095 163.070162  L 561.003868 164.864402  L 561.926786 167.458117  L 562.849704 165.206162  L 563.772623 163.363099  L 564.695541 162.96031  L 565.618459 164.351762  L 566.541378 162.044881  L 567.464296 163.186116  L 568.387214 165.969019  L 569.310132 162.630756  L 570.233051 167.171282  L 571.155969 167.348265  L 572.078887 171.394461  L 573.001805 170.149477  L 573.924724 167.793774  L 574.847642 166.005637  L 575.77056 167.842597  L 576.693479 168.428471  L 577.616397 150.980399  L 578.539315 152.481702  L 579.462233 157.101566  L 580.385152 154.166091  L 581.30807 154.385794  L 582.230988 153.946388  L 583.153907 157.150389  L 584.076825 151.438113  L 584.999743 152.32913  L 585.922661 153.568011  L 586.84558 148.429404  L 587.768498 152.365748  L 588.691416 148.65521  L 589.614334 145.683117  L 590.537253 143.669174  L 591.460171 145.762455  L 592.383089 144.212328  L 593.306008 150.693564  L 594.228926 148.075438  L 595.151844 146.897586  L 596.074762 142.753745  L 596.997681 148.063232  L 597.920599 146.018775  L 598.843517 145.512237  L 599.766435 148.819987  L 600.689354 143.364031  L 601.612272 150.797313  L 602.53519 140.928991  L 603.458109 138.02403  L 604.381027 148.270729  L 605.303945 147.092878  L 606.226863 147.092878  L 607.149782 141.734568  L 608.0727 143.882774  L 608.995618 144.895849  L 609.918536 142.045814  L 610.841455 141.209722  L 611.764373 145.799072  L 612.687291 147.642135  L 613.61021 143.486088  L 614.533128 138.512259  L 615.456046 141.704054  L 616.378964 141.295162  L 617.301883 141.954271  L 618.224801 139.079824  L 619.147719 141.557585  L 620.070638 143.229768  L 620.993556 146.494798  L 621.916474 147.373609  L 622.839392 149.875781  L 623.762311 149.89409  L 624.685229 147.214935  L 625.608147 147.098981  L 626.531065 147.355301  L 627.453984 150.199233  L 628.376902 144.694454  L 629.29982 149.729313  L 631.145657 143.38234  L 632.068575 137.743298  L 632.991493 136.534932  L 633.914412 144.175711  L 634.83733 146.445975  L 635.760248 147.025746  L 636.683166 146.122523  L 637.606085 143.785128  L 638.529003 143.229768  L 639.451921 142.302134  L 640.37484 146.378843  L 642.220676 145.811277  L 643.143594 156.265474  L 644.066513 160.769384  L 644.989431 153.555805  L 645.912349 154.190502  L 646.835267 153.256765  L 647.758186 162.972516  L 648.681104 161.391875  L 649.604022 161.874001  L 650.526941 157.193109  L 651.449859 157.028332  L 652.372777 159.481681  L 653.295695 153.427645  L 654.218614 156.765909  L 655.141532 153.989108  L 656.06445 154.556674  L 656.987369 161.697018  L 657.910287 155.996948  L 658.833205 158.163463  L 659.756123 155.563645  L 660.679042 155.130342  L 661.60196 154.959462  L 662.524878 152.017885  L 663.447796 151.084147  L 664.370715 144.206226  L 665.293633 139.464304  L 666.216551 143.98042  L 667.13947 153.952491  L 668.062388 144.883643  L 668.985306 124.878472  L 669.908224 117.469602  L 670.831143 120.2403  L 672.676979 143.357928  L 673.599897 144.413723  L 674.522816 136.187069  L 675.445734 145.04842  L 676.368652 143.303003  L 677.291571 133.361446  L 678.214489 136.211481  L 679.137407 133.813057  L 680.060325 128.027547  L 680.983244 133.251594  L 681.906162 135.759869  L 682.82908 129.724142  L 683.751998 128.326588  L 684.674917 139.360556  L 685.597835 140.977813  L 686.520753 143.5105  L 687.443672 154.574982  L 688.36659 137.218453  L 689.289508 144.901951  L 690.212426 144.743277  L 691.135345 145.536649  L 692.058263 138.768579  L 692.981181 134.911572  L 693.9041 143.119917  L 694.827018 136.65699  L 695.749936 135.845309  L 696.672854 139.90371  L 697.595773 135.753766  L 698.518691 133.831366  L 699.441609 137.798224  L 700.364527 139.98915  L 701.287446 138.176601  L 702.210364 140.782522  L 703.133282 148.368375  L 704.056201 154.459028  L 704.979119 150.388421  L 705.902037 153.281176  L 706.824955 150.608124  L 707.747874 136.455595  L 708.670792 145.194889  L 709.59371 209.726515  L 710.516628 149.55233  L 711.439547 137.114704  L 712.362465 154.239325  L 713.285383 153.647348  L 714.208302 146.690089  L 715.13122 150.730181  L 716.054138 157.577589  L 717.899975 140.11731  L 718.822893 138.573287  L 719.745811 146.946409  L 720.668729 152.390159  L 721.591648 133.0502  L 722.514566 140.184442  L 723.437484 138.396304  L 724.360403 144.261151  L 725.283321 133.910703  L 726.206239 142.99786  L 727.129157 148.008307  L 728.052076 145.188786  L 729.897912 135.326566  L 730.820831 146.299506  L 731.743749 149.869678  L 732.666667 141.313471  L 733.589585 140.880168  L 734.512504 146.983026  L 735.435422 144.822614  L 736.35834 141.307368  L 737.281258 166.475557  L 738.204177 159.640355  L 739.127095 162.295098  L 740.050013 151.792079  L 740.972932 158.877498  L 741.89585 161.751944  L 742.818768 171.577546  L 743.741686 164.638596  L 744.664605 155.563645  L 745.587523 156.686571  L 746.510441 164.315145  L 747.433359 161.526138  L 748.356278 160.90975  L 749.279196 152.036193  L 750.202114 154.269839  L 751.125033 154.843508  L 752.047951 159.933292  L 752.970869 159.109406  L 753.893787 148.838295  L 754.816706 152.50001  L 755.739624 167.397088  L 756.662542 167.128562  L 757.58546 157.138183  L 758.508379 163.955076  L 759.431297 157.101566  L 760.354215 155.789451  L 761.277134 162.929796  L 762.200052 165.731008  L 764.045888 146.439872  L 764.968807 146.189655  L 765.891725 154.95336  L 766.814643 161.013498  L 767.737562 156.070183  L 768.66048 154.269839  L 769.583398 157.083257  L 770.506316 154.636011  L 771.429235 147.697061  L 772.352153 148.74065  L 773.275071 156.033566  L 774.197989 151.200102  L 775.120908 145.04842  L 776.043826 143.394545  L 776.966744 150.479964  L 778.812581 136.48611  L 779.735499 143.437265  L 780.658417 146.775529  L 781.581336 140.111208  L 782.504254 145.664809  L 783.427172 142.082431  L 784.35009 143.229768  L 785.273009 133.764235  L 786.195927 134.221949  L 787.118845 148.61249  L 788.041764 137.676167  L 788.964682 142.155665  L 789.8876 12  L 790.810518 158.389269  L 792.656355 162.221864  L 793.579273 151.248924  L 794.502191 143.522705  L 795.42511 137.438155  L 796.348028 142.119048  L 797.270946 148.734547  L 798.193865 151.120764  L 799.116783 149.949016  L 800.039701 152.310822  L 800.962619 143.400648  L 801.885538 145.500032  L 802.808456 150.016147  L 803.731374 144.83482  L 804.654292 152.554936  L 805.577211 144.163506  L 806.500129 146.928101  L 808.345966 154.800788  L 809.268884 144.010934  L 810.191802 143.38234  L 811.11472 149.350935  L 812.037639 153.995211  L 812.960557 153.403234  L 813.883475 153.195736  L 814.806394 152.37185  L 815.729312 154.410205  L 816.65223 155.880994  L 816.65223 155.880994  "
           style="fill:none;stroke:#e41a1c;stroke-linecap:square;stroke-width:2;"
           id="path306" />
      </g>
      <g
         id="patch_3">
        <path
           d="M 74.349062 351.892606  L 74.349062 12  "
           style="fill:none;stroke:#000000;stroke-linecap:square;stroke-linejoin:miter;stroke-width:0.8;"
           id="path309" />
      </g>
      <g
         id="patch_4">
        <path
           d="M 852 351.892606  L 852 12  "
           style="fill:none;"
           id="path312" />
      </g>
      <g
         id="patch_5">
        <path
           d="M 74.349062 351.892606  L 852 351.892606  "
           style="fill:none;stroke:#000000;stroke-linecap:square;stroke-linejoin:miter;stroke-width:0.8;"
           id="path315" />
      </g>
      <g
         id="patch_6">
        <path
           d="M 74.349062 12  L 852 12  "
           style="fill:none;"
           id="path318" />
      </g>
    </g>
  </g>
  <defs
     id="defs326">
    <clipPath
       id="p5524658545">
      <rect
         height="339.892606"
         width="777.650938"
         x="74.349062"
         y="12"
         id="rect323" />
    </clipPath>
  </defs>
  <rect
     style="opacity:1;fill:#e2f800;fill-opacity:0.39215686;stroke:none;stroke-width:7;stroke-linecap:butt;stroke-linejoin:round;stroke-miterlimit:4;stroke-dasharray:none;stroke-dashoffset:0;stroke-opacity:1"
     id="rect1139"
     width="133.32674"
     height="86.071678"
     x="309.68933"
     y="206.6947"
     ry="3.4165349" />
  <text
     xml:space="preserve"
     style="font-style:normal;font-weight:normal;font-size:30px;line-height:1.25;font-family:sans-serif;letter-spacing:0px;word-spacing:0px;fill:#000000;fill-opacity:1;stroke:none;stroke-width:0.75;stroke-linecap:butt;stroke-linejoin:round"
     x="337.63986"
     y="70.836411"
     id="text1176"><tspan
       sodipodi:role="line"
       id="tspan1174"
       style="font-style:normal;font-variant:normal;font-weight:bold;font-stretch:normal;font-size:22px;font-family:'CMU Serif';-inkscape-font-specification:'CMU Serif, Bold';font-variant-ligatures:normal;font-variant-caps:normal;font-variant-numeric:normal;font-feature-settings:normal;text-align:start;writing-mode:lr-tb;text-anchor:start;stroke-width:0.75;stroke-linecap:butt;stroke-linejoin:round"
       x="337.63986"
       y="70.836411">02-17: Operator </tspan><tspan
       sodipodi:role="line"
       style="font-style:normal;font-variant:normal;font-weight:bold;font-stretch:normal;font-size:22px;font-family:'CMU Serif';-inkscape-font-specification:'CMU Serif, Bold';font-variant-ligatures:normal;font-variant-caps:normal;font-variant-numeric:normal;font-feature-settings:normal;text-align:start;writing-mode:lr-tb;text-anchor:start;stroke-width:0.75;stroke-linecap:butt;stroke-linejoin:round"
       x="337.63986"
       y="108.33641"
       id="tspan1178">Noted odd behavior</tspan></text>
  <path
     style="fill:none;stroke:#000000;stroke-width:3;stroke-linecap:butt;stroke-linejoin:miter;stroke-miterlimit:4;stroke-dasharray:none;stroke-opacity:1;marker-end:url(#Arrow1Mend)"
     d="m 448.54759,115.74763 v 43.03584"
     id="path1184"
     inkscape:connector-curvature="0" />
  <text
     xml:space="preserve"
     style="font-style:normal;font-weight:normal;font-size:30px;line-height:1.25;font-family:sans-serif;letter-spacing:0px;word-spacing:0px;fill:#000000;fill-opacity:1;stroke:none;stroke-width:0.75;stroke-linecap:butt;stroke-linejoin:round"
     x="492.43799"
     y="248.07133"
     id="text1176-3"><tspan
       sodipodi:role="line"
       style="font-style:normal;font-variant:normal;font-weight:bold;font-stretch:normal;font-size:22px;font-family:'CMU Serif';-inkscape-font-specification:'CMU Serif, Bold';font-variant-ligatures:normal;font-variant-caps:normal;font-variant-numeric:normal;font-feature-settings:normal;text-align:start;writing-mode:lr-tb;text-anchor:start;stroke-width:0.75;stroke-linecap:butt;stroke-linejoin:round"
       x="492.43799"
       y="248.07133"
       id="tspan1178-9">Week of </tspan><tspan
       sodipodi:role="line"
       style="font-style:normal;font-variant:normal;font-weight:bold;font-stretch:normal;font-size:22px;font-family:'CMU Serif';-inkscape-font-specification:'CMU Serif, Bold';font-variant-ligatures:normal;font-variant-caps:normal;font-variant-numeric:normal;font-feature-settings:normal;text-align:start;writing-mode:lr-tb;text-anchor:start;stroke-width:0.75;stroke-linecap:butt;stroke-linejoin:round"
       x="492.43799"
       y="285.57135"
       id="tspan1527">high utilization</tspan></text>
  <path
     style="fill:none;stroke:#000000;stroke-width:3;stroke-linecap:butt;stroke-linejoin:miter;stroke-miterlimit:4;stroke-dasharray:none;stroke-opacity:1;marker-end:url(#Arrow1Mend-4)"
     d="M 490.69303,261.33208 H 447.65719"
     id="path1184-1"
     inkscape:connector-curvature="0" />
  <text
     xml:space="preserve"
     style="font-style:normal;font-weight:normal;font-size:30px;line-height:1.25;font-family:sans-serif;letter-spacing:0px;word-spacing:0px;fill:#000000;fill-opacity:1;stroke:none;stroke-width:0.75;stroke-linecap:butt;stroke-linejoin:round"
     x="107.10117"
     y="166.61586"
     id="text1176-3-7"><tspan
       sodipodi:role="line"
       style="font-style:normal;font-variant:normal;font-weight:bold;font-stretch:normal;font-size:22px;font-family:'CMU Serif';-inkscape-font-specification:'CMU Serif, Bold';font-variant-ligatures:normal;font-variant-caps:normal;font-variant-numeric:normal;font-feature-settings:normal;text-align:start;writing-mode:lr-tb;text-anchor:start;stroke-width:0.75;stroke-linecap:butt;stroke-linejoin:round"
       x="107.10117"
       y="166.61586"
       id="tspan1527-6">Spindle </tspan><tspan
       sodipodi:role="line"
       style="font-style:normal;font-variant:normal;font-weight:bold;font-stretch:normal;font-size:22px;font-family:'CMU Serif';-inkscape-font-specification:'CMU Serif, Bold';font-variant-ligatures:normal;font-variant-caps:normal;font-variant-numeric:normal;font-feature-settings:normal;text-align:start;writing-mode:lr-tb;text-anchor:start;stroke-width:0.75;stroke-linecap:butt;stroke-linejoin:round"
       x="107.10117"
       y="204.11586"
       id="tspan1973">Maintenance</tspan></text>
  <path
     style="fill:none;stroke:#000000;stroke-width:3;stroke-linecap:butt;stroke-linejoin:miter;stroke-miterlimit:4;stroke-dasharray:none;stroke-opacity:1;marker-end:url(#Arrow1Mend-4-0)"
     d="m 114.97447,213.02348 v 43.03584"
     id="path1184-1-5"
     inkscape:connector-curvature="0" />
</svg>
