<?xml version="1.0" encoding="utf-8" standalone="no"?>
<!DOCTYPE svg PUBLIC "-//W3C//DTD SVG 1.1//EN"
  "http://www.w3.org/Graphics/SVG/1.1/DTD/svg11.dtd">
<!-- Created with matplotlib (https://matplotlib.org/) -->
<svg height="432pt" version="1.1" viewBox="0 0 648 432" width="648pt" xmlns="http://www.w3.org/2000/svg" xmlns:xlink="http://www.w3.org/1999/xlink">
 <defs>
  <style type="text/css">
*{stroke-linecap:butt;stroke-linejoin:round;}
  </style>
 </defs>
 <g id="figure_1">
  <g id="patch_1">
   <path d="M 0 432 
L 648 432 
L 648 0 
L 0 0 
z
" style="fill:none;"/>
  </g>
  <g id="axes_1">
   <g id="patch_2">
    <path d="M 75.83746 368.94192 
L 633 368.94192 
L 633 18.327349 
L 75.83746 18.327349 
z
" style="fill:none;"/>
   </g>
   <g id="matplotlib.axis_1">
    <g id="xtick_1">
     <g id="line2d_1">
      <defs>
       <path d="M 0 0 
L 0 3.5 
" id="ma2087af0c2" style="stroke:#000000;stroke-width:0.8;"/>
      </defs>
      <g>
       <use style="stroke:#000000;stroke-width:0.8;" x="196.009773" xlink:href="#ma2087af0c2" y="368.94192"/>
      </g>
     </g>
     <g id="text_1">
      <!-- \textbf{SK-Learn} -->
      <defs>
       <path d="M 25.40625 43.46875 
C 15.5 45.625 15.203125 52.75 15.203125 54.140625 
C 15.203125 59.171875 18.5 65.03125 28.203125 65.03125 
C 37.90625 65.03125 46.59375 60.359375 48.703125 47.34375 
C 49 45.25 49 45.25 50.90625 45.25 
C 53 45.25 53 45.546875 53 47.8125 
L 53 66.4375 
C 53 68.3125 53 69.015625 51.5 69.015625 
C 50.796875 69.015625 50.5 68.921875 49.59375 67.921875 
L 45.296875 63.046875 
C 42.796875 65.140625 37.796875 69 28.09375 69 
C 13.796875 69 6.203125 60.09375 6.203125 49.3125 
C 6.203125 42.6875 9.796875 38.03125 11.203125 36.640625 
C 16.40625 31.5 19.203125 30.90625 29.59375 28.625 
C 39.59375 26.453125 40.796875 26.25 43 24.1875 
C 44.296875 22.890625 47.203125 20.125 47.203125 15.078125 
C 47.203125 10.8125 45.09375 3 33.90625 3 
C 25.09375 3 11.203125 5.96875 10.40625 20.421875 
C 10.296875 22.203125 10.296875 22.5 8.296875 22.5 
C 6.203125 22.5 6.203125 22.203125 6.203125 19.921875 
L 6.203125 1.296875 
C 6.203125 -0.59375 6.203125 -1.28125 7.703125 -1.28125 
C 8.40625 -1.28125 8.5 -1.1875 9.5 -0.296875 
C 10.59375 0.796875 11.5 2.09375 14 4.578125 
C 19.796875 0.015625 28 -1.265625 34 -1.265625 
C 49.59375 -1.265625 56.203125 9.21875 56.203125 19.71875 
C 56.203125 29 50 37.90625 39.09375 40.375 
z
" id="CMBX12-83"/>
       <path d="M 46.90625 41.859375 
L 70.703125 61.9375 
C 72 63.03125 72.90625 63.828125 81.796875 63.828125 
L 81.796875 68 
C 75.796875 68 75.59375 68 71.09375 68 
C 68.09375 68 60.296875 68 57.796875 68.109375 
L 57.796875 63.828125 
C 60 63.828125 62.40625 63.828125 65 62.734375 
L 65 62.640625 
L 27.59375 30.921875 
L 27.59375 63.828125 
L 38.203125 63.828125 
L 38.203125 68 
C 35.296875 68 24.59375 68 21 68 
C 17.40625 68 6.703125 68 3.796875 68 
L 3.796875 63.828125 
L 14.40625 63.828125 
L 14.40625 4.171875 
L 3.796875 4.171875 
L 3.796875 0 
C 6.703125 0 17.40625 0 21 0 
C 24.59375 0 35.296875 0 38.203125 0 
L 38.203125 4.171875 
L 27.59375 4.171875 
L 27.59375 25.453125 
L 37.90625 34.203125 
L 58.796875 6.46875 
C 59 6.171875 59.40625 5.671875 59.40625 5.265625 
C 59.40625 4.171875 54.5 4.171875 52.296875 4.171875 
L 52.296875 0 
C 55.5 0 64.796875 0 68.59375 0 
C 71.59375 0 81 0 83.296875 -0.09375 
L 83.296875 4.171875 
L 80.59375 4.171875 
C 75.203125 4.171875 74.796875 4.671875 73.796875 6.0625 
z
" id="CMBX12-75"/>
       <path d="M 31.203125 17 
L 31.203125 26.140625 
L 1.203125 26.140625 
L 1.203125 17 
z
" id="CMBX12-45"/>
       <path d="M 62.796875 26.8125 
L 58.59375 26.8125 
C 57.90625 19.953125 56.296875 4.265625 38.296875 4.265625 
L 27.59375 4.265625 
L 27.59375 63.828125 
L 40.90625 63.828125 
L 40.90625 68 
C 36 68 27.09375 68 21.796875 68 
C 18.09375 68 6.703125 68 3.796875 68 
L 3.796875 63.828125 
L 14.40625 63.828125 
L 14.40625 4.265625 
L 3.796875 4.265625 
L 3.796875 0 
L 59.90625 0 
z
" id="CMBX12-76"/>
       <path d="M 45.203125 22 
C 47.5 22 48.09375 22 48.09375 24.484375 
C 48.09375 27.46875 47.40625 34.890625 42.796875 39.5625 
C 38.59375 43.71875 33 45 27.203125 45 
C 11.59375 45 3.09375 34.890625 3.09375 22.40625 
C 3.09375 8.515625 13.40625 -0.5 28.5 -0.5 
C 43.59375 -0.5 48.09375 10 48.09375 11.6875 
C 48.09375 13.171875 46.59375 13.171875 46 13.171875 
C 44.40625 13.171875 44.296875 12.875 43.703125 11.59375 
C 41.09375 5.15625 34.5 3.078125 29.703125 3.078125 
C 15.203125 3.078125 15.09375 16.453125 15.09375 22 
z
M 15.09375 24.890625 
C 15.296875 28.9375 15.40625 32.8125 17.5 36.375 
C 19.40625 39.546875 22.90625 41.71875 27.203125 41.71875 
C 37.90625 41.71875 38.796875 29.828125 38.90625 24.890625 
z
" id="CMBX12-101"/>
       <path d="M 46 29.65625 
C 46 38.8125 38.703125 44.984375 24.59375 44.984375 
C 19 44.984375 7.203125 44.984375 7.203125 36.46875 
C 7.203125 32.203125 10.40625 30.390625 13.09375 30.390625 
C 16.09375 30.390625 19 32.484375 19 36.296875 
C 19 38.203125 18.296875 39.984375 16.59375 41.09375 
C 19.90625 42 22.296875 42 24.203125 42 
C 31 42 35.09375 38.203125 35.09375 29.984375 
L 35.09375 25.984375 
C 19.296875 25.984375 3.40625 21.59375 3.40625 10.5625 
C 3.40625 1.484375 15 -0.5 21.90625 -0.5 
C 29.59375 -0.5 34.5 3.640625 36.5 7.96875 
C 36.5 4.28125 36.5 0 46.59375 0 
L 51.703125 0 
C 53.796875 0 54.59375 0 54.59375 2.265625 
C 54.59375 4.265625 53.703125 4.265625 52.296875 4.265625 
C 46 4.265625 46 5.84375 46 8.15625 
z
M 35.09375 13.78125 
C 35.09375 4.546875 26.703125 2.78125 23.5 2.78125 
C 18.59375 2.78125 14.5 6.09375 14.5 10.71875 
C 14.5 19.890625 25.296875 23 35.09375 23 
z
" id="CMBX12-97"/>
       <path d="M 20.796875 22.046875 
C 20.796875 25.296875 21.5 41 33.203125 41 
C 31.796875 39.921875 31.09375 38.25 31.09375 36.5 
C 31.09375 32.484375 34.40625 30.8125 36.90625 30.8125 
C 39.40625 30.8125 42.703125 32.484375 42.703125 36.515625 
C 42.703125 41.53125 37.5 44.28125 32.703125 44.28125 
C 24.796875 44.28125 21.40625 37.515625 20 33.390625 
L 19.90625 33.390625 
L 19.90625 44 
L 3.5 44 
L 3.5 39.328125 
C 9.703125 39.328125 10.40625 39.328125 10.40625 35.46875 
L 10.40625 4.0625 
L 3.5 4.0625 
L 3.5 -0.203125 
C 5.796875 0 13.296875 0 16.09375 0 
C 19 0 27.09375 0 29.5 -0.203125 
L 29.5 4.0625 
L 20.796875 4.0625 
z
" id="CMBX12-114"/>
       <path d="M 53.09375 30.0625 
C 53.09375 39.453125 49 44.28125 38 44.28125 
C 30.796875 44.28125 24.59375 40.859375 21.203125 33.484375 
L 21.09375 33.484375 
L 21.09375 44 
L 4.203125 44 
L 4.203125 39.328125 
C 10.40625 39.328125 11.09375 39.328125 11.09375 35.46875 
L 11.09375 4.0625 
L 4.203125 4.0625 
L 4.203125 -0.203125 
C 6.5 0 13.703125 0 16.5 0 
C 19.296875 0 26.59375 0 28.90625 -0.203125 
L 28.90625 4.0625 
L 22 4.0625 
L 22 25.109375 
C 22 35.765625 30 41 36.40625 41 
C 40.09375 41 42.203125 38.640625 42.203125 31.140625 
L 42.203125 4.0625 
L 35.296875 4.0625 
L 35.296875 -0.203125 
C 37.59375 0 44.796875 0 47.59375 0 
C 50.40625 0 57.703125 0 60 -0.203125 
L 60 4.0625 
L 53.09375 4.0625 
z
" id="CMBX12-110"/>
      </defs>
      <g transform="translate(153.697263 389.94192)scale(0.18 -0.18)">
       <use transform="scale(0.996264)" xlink:href="#CMBX12-83"/>
       <use transform="translate(62.266501 0)scale(0.996264)" xlink:href="#CMBX12-75"/>
       <use transform="translate(150.01622 0)scale(0.996264)" xlink:href="#CMBX12-45"/>
       <use transform="translate(187.376121 0)scale(0.996264)" xlink:href="#CMBX12-76"/>
       <use transform="translate(254.716216 0)scale(0.996264)" xlink:href="#CMBX12-101"/>
       <use transform="translate(305.855483 0)scale(0.996264)" xlink:href="#CMBX12-97"/>
       <use transform="translate(360.338671 0)scale(0.996264)" xlink:href="#CMBX12-114"/>
       <use transform="translate(406.116179 0)scale(0.996264)" xlink:href="#CMBX12-110"/>
      </g>
     </g>
    </g>
    <g id="xtick_2">
     <g id="line2d_2">
      <g>
       <use style="stroke:#000000;stroke-width:0.8;" x="383.291299" xlink:href="#ma2087af0c2" y="368.94192"/>
      </g>
     </g>
     <g id="text_2">
      <!-- \textbf{Tensorflow} -->
      <defs>
       <path d="M 72 67.265625 
L 6.09375 67.265625 
L 4.09375 43.703125 
L 8.296875 43.703125 
C 9.203125 54.546875 10 63 24.40625 63 
L 32.5 63 
L 32.5 4.171875 
L 17.40625 4.171875 
L 17.40625 0 
C 25.40625 0 35.703125 0 39.09375 0 
C 45.203125 0 52.796875 0 60.796875 0 
L 60.796875 4.171875 
L 45.703125 4.171875 
L 45.703125 63 
L 53.703125 63 
C 68.09375 63 68.90625 54.640625 69.796875 43.703125 
L 74 43.703125 
z
" id="CMBX12-84"/>
       <path d="M 37.703125 42.421875 
C 37.703125 44.3125 37.703125 45 36.203125 45 
C 35.59375 45 35.40625 45 33.90625 44.109375 
C 33.5 43.8125 32.40625 43.109375 31.90625 42.8125 
C 29.09375 44.40625 25.40625 45 21.796875 45 
C 18.796875 45 3.796875 45 3.796875 32.125 
C 3.796875 21.703125 16.203125 19.53125 19.296875 19.03125 
C 22 18.546875 25.296875 17.9375 25.703125 17.9375 
C 29.703125 17.046875 33.703125 14.5625 33.703125 10.40625 
C 33.703125 2.78125 24.59375 2.78125 22.5 2.78125 
C 17.40625 2.78125 11.09375 4.359375 8.296875 14 
C 7.703125 15.984375 7.59375 15.984375 5.90625 15.984375 
C 3.796875 15.984375 3.796875 15.6875 3.796875 13.40625 
L 3.796875 2.0625 
C 3.796875 0.1875 3.796875 -0.5 5.296875 -0.5 
C 6 -0.5 6.203125 -0.5 8.203125 1.09375 
L 10.796875 2.984375 
C 15.296875 -0.5 20.703125 -0.5 22.5 -0.5 
C 28 -0.5 40.5 0.6875 40.5 13.875 
C 40.5 18.625 37.90625 21.90625 35.90625 23.6875 
C 31.796875 27.046875 28.40625 27.65625 23 28.640625 
C 16.59375 29.734375 10.59375 30.828125 10.59375 35.578125 
C 10.59375 42.015625 19.5 42.015625 21.59375 42.015625 
C 32.703125 42.015625 33.296875 35.078125 33.5 32.609375 
C 33.59375 31.328125 34.40625 31.328125 35.59375 31.328125 
C 37.703125 31.328125 37.703125 31.625 37.703125 33.90625 
z
" id="CMBX12-115"/>
       <path d="M 53 21.796875 
C 53 35.1875 43.796875 45 28.09375 45 
C 11.796875 45 3.09375 34.6875 3.09375 21.796875 
C 3.09375 8.828125 12.296875 -0.5 28 -0.5 
C 44.296875 -0.5 53 9.3125 53 21.796875 
z
M 28.09375 3.078125 
C 15.09375 3.078125 15.09375 14.671875 15.09375 22.796875 
C 15.09375 27.453125 15.09375 32.40625 17 35.984375 
C 19.203125 39.9375 23.703125 41.71875 28 41.71875 
C 33.703125 41.71875 37.296875 39.046875 39 36.28125 
C 41 32.703125 41 27.546875 41 22.796875 
C 41 14.5625 41 3.078125 28.09375 3.078125 
z
" id="CMBX12-111"/>
       <path d="M 52 68.796875 
C 51.09375 68.703125 45.90625 68.296875 45.5 68.296875 
C 45.203125 68.296875 45 68.296875 44 68.59375 
C 41.296875 69.390625 38 69.390625 36.90625 69.390625 
C 24.5 69.390625 10.40625 65.609375 10.40625 54.015625 
L 10.40625 44 
L 3 44 
L 3 39.734375 
L 10.40625 39.734375 
L 10.40625 4.0625 
L 3.5 4.0625 
L 3.5 -0.203125 
C 5.796875 0 12.90625 0 15.59375 0 
C 18.296875 0 25.40625 0 27.703125 -0.203125 
L 27.703125 4.0625 
L 20.796875 4.0625 
L 20.796875 39.734375 
L 41.59375 39.734375 
L 41.59375 4.0625 
L 34.703125 4.0625 
L 34.703125 -0.203125 
C 37 0 44.09375 0 46.796875 0 
C 49.5 0 56.59375 0 58.90625 -0.203125 
L 58.90625 4.0625 
L 52 4.0625 
z
M 20.296875 44 
L 20.296875 53.875 
C 20.296875 63.625 29.09375 66 36.203125 66 
C 36.796875 66 41.40625 66 41.40625 65.515625 
C 41.40625 65.40625 41.40625 65.3125 41.09375 65.015625 
C 40 63.921875 39.59375 62.53125 39.59375 61.0625 
C 39.59375 60.453125 39.59375 58.171875 41.59375 56.6875 
L 41.59375 44 
z
" id="CMBX12-13"/>
       <path d="M 72 37.4375 
C 72.703125 39.125 73 39.828125 78.796875 39.828125 
L 78.796875 44 
C 75.90625 44 74.59375 44 71 44 
C 66.90625 44 65.59375 44 62 44 
L 62 39.828125 
C 62.90625 39.828125 67.796875 39.828125 67.796875 38.53125 
C 67.796875 38.4375 67.796875 38.328125 67.40625 37.34375 
L 56.90625 11.515625 
L 45.40625 39.828125 
L 51.09375 39.828125 
L 51.09375 44.09375 
C 48.703125 44 42.796875 44 40.09375 44 
C 35 44 34.796875 44 29.796875 44 
L 29.796875 39.828125 
L 35.703125 39.828125 
C 36 39.03125 36.5 37.734375 36.90625 36.84375 
C 37.203125 36.25 38.203125 33.859375 38.203125 33.359375 
C 38.203125 33.171875 37.90625 32.46875 37.796875 32.171875 
L 30.203125 13.40625 
L 19.40625 39.828125 
L 25.09375 39.828125 
L 25.09375 44.09375 
C 22.796875 44 16 44 13.296875 44 
C 10.09375 44 5.296875 44 2.296875 44 
L 2.296875 39.828125 
L 8.203125 39.828125 
L 23.5 1.984375 
C 24.203125 0.203125 24.59375 -0.5 26.796875 -0.5 
C 27.90625 -0.5 29.09375 -0.5 29.90625 1.484375 
L 40.5 27.8125 
L 51.09375 1.6875 
C 52 -0.5 53.09375 -0.5 54.296875 -0.5 
C 56.5 -0.5 56.796875 0.09375 57.5 1.890625 
z
" id="CMBX12-119"/>
      </defs>
      <g transform="translate(335.797549 389.94192)scale(0.18 -0.18)">
       <use transform="scale(0.996264)" xlink:href="#CMBX12-84"/>
       <use transform="translate(68.608395 0)scale(0.996264)" xlink:href="#CMBX12-101"/>
       <use transform="translate(119.747663 0)scale(0.996264)" xlink:href="#CMBX12-110"/>
       <use transform="translate(182.014163 0)scale(0.996264)" xlink:href="#CMBX12-115"/>
       <use transform="translate(226.2235 0)scale(0.996264)" xlink:href="#CMBX12-111"/>
       <use transform="translate(282.263351 0)scale(0.996264)" xlink:href="#CMBX12-114"/>
       <use transform="translate(328.040858 0)scale(0.996264)" xlink:href="#CMBX12-13"/>
       <use transform="translate(390.307359 0)scale(0.996264)" xlink:href="#CMBX12-111"/>
       <use transform="translate(443.233884 0)scale(0.996264)" xlink:href="#CMBX12-119"/>
      </g>
     </g>
    </g>
    <g id="xtick_3">
     <g id="line2d_3">
      <g>
       <use style="stroke:#000000;stroke-width:0.8;" x="570.572825" xlink:href="#ma2087af0c2" y="368.94192"/>
      </g>
     </g>
     <g id="text_3">
      <!-- \textbf{TF-Lite} -->
      <defs>
       <path d="M 63 67.28125 
L 3.796875 67.28125 
L 3.796875 63 
L 14.40625 63 
L 14.40625 4.171875 
L 3.796875 4.171875 
L 3.796875 0 
C 6.703125 0 18.09375 0 21.796875 0 
C 27.09375 0 36 0 40.90625 0 
L 40.90625 4.171875 
L 27.59375 4.171875 
L 27.59375 31.71875 
L 33.09375 31.71875 
C 42.703125 31.71875 43.5 27.3125 43.5 20 
L 47.703125 20 
L 47.703125 47.53125 
L 43.5 47.53125 
C 43.5 40.328125 42.703125 36 33.09375 36 
L 27.59375 36 
L 27.59375 63 
L 41.90625 63 
C 57.796875 63 60.296875 55.875 61.703125 44.078125 
L 65.90625 44.078125 
z
" id="CMBX12-70"/>
       <path d="M 22.296875 61.84375 
C 22.296875 65.921875 19 69 15.09375 69 
C 11 69 7.90625 65.625 7.90625 61.84375 
C 7.90625 58.0625 11 54.6875 15.09375 54.6875 
C 19 54.6875 22.296875 57.765625 22.296875 61.84375 
z
M 4.703125 44 
L 4.703125 39.328125 
C 10.59375 39.328125 11.296875 39.328125 11.296875 35.46875 
L 11.296875 4.0625 
L 4.40625 4.0625 
L 4.40625 -0.203125 
C 6.703125 0 13.59375 0 16.296875 0 
C 19.09375 0 25.5 0 27.90625 -0.203125 
L 27.90625 4.0625 
L 21.703125 4.0625 
L 21.703125 44 
z
" id="CMBX12-105"/>
       <path d="M 21.09375 40 
L 35.5 40 
L 35.5 44.265625 
L 21.09375 44.265625 
L 21.09375 63 
L 16.90625 63 
C 16.796875 53.203125 12 43.375 2.09375 43.375 
L 2.09375 40 
L 10.203125 40 
L 10.203125 12.328125 
C 10.203125 1.78125 18.40625 -0.5 25.59375 -0.5 
C 33 -0.5 37.40625 5.078125 37.40625 12.421875 
L 37.40625 17.703125 
L 33.203125 17.703125 
L 33.203125 12.53125 
C 33.203125 5.953125 30.203125 3.078125 27.09375 3.078125 
C 21.09375 3.078125 21.09375 9.75 21.09375 12.03125 
z
" id="CMBX12-116"/>
      </defs>
      <g transform="translate(536.33846 389.94192)scale(0.18 -0.18)">
       <use transform="scale(0.996264)" xlink:href="#CMBX12-84"/>
       <use transform="translate(77.94837 0)scale(0.996264)" xlink:href="#CMBX12-70"/>
       <use transform="translate(148.401791 0)scale(0.996264)" xlink:href="#CMBX12-45"/>
       <use transform="translate(185.761691 0)scale(0.996264)" xlink:href="#CMBX12-76"/>
       <use transform="translate(253.101787 0)scale(0.996264)" xlink:href="#CMBX12-105"/>
       <use transform="translate(284.235037 0)scale(0.996264)" xlink:href="#CMBX12-116"/>
       <use transform="translate(327.821588 0)scale(0.996264)" xlink:href="#CMBX12-101"/>
      </g>
     </g>
    </g>
    <g id="text_4">
     <!-- \textbf{Model Type} -->
     <defs>
      <path d="M 53.296875 12.453125 
L 29.296875 65.90625 
C 28.40625 68 27.5 68 25.40625 68 
L 4.09375 68 
L 4.09375 63.71875 
L 14.703125 63.71875 
L 14.703125 6.9375 
C 14.703125 4.75 14.59375 4.65625 12 4.25 
C 10.203125 4.0625 8.203125 4.0625 6.40625 4.0625 
L 4.09375 4.0625 
L 4.09375 -0.203125 
C 6.40625 0 14.203125 0 17 0 
C 19.796875 0 27.703125 0 30 -0.203125 
L 30 4.0625 
L 27.703125 4.0625 
C 25 4.0625 24.796875 4.0625 22.40625 4.359375 
C 19.5 4.765625 19.40625 4.859375 19.40625 7.046875 
L 19.40625 62.53125 
L 19.5 62.53125 
L 46.703125 2.09375 
C 47.203125 1 47.796875 0 49.5 0 
C 51.203125 0 51.796875 1 52.296875 2.09375 
L 80 63.71875 
L 80.09375 63.71875 
L 80.09375 4.0625 
L 69.5 4.0625 
L 69.5 -0.203125 
C 72.203125 0 82.59375 0 86 0 
C 89.40625 0 99.796875 0 102.5 -0.203125 
L 102.5 4.0625 
L 91.90625 4.0625 
L 91.90625 63.71875 
L 102.5 63.71875 
L 102.5 68 
L 81.203125 68 
C 79.09375 68 78.203125 68 77.296875 65.90625 
z
" id="CMBX12-77"/>
      <path d="M 34.703125 69 
L 34.703125 64.328125 
C 40.90625 64.328125 41.59375 64.328125 41.59375 60.421875 
L 41.59375 40.234375 
C 39.40625 42.125 35 45 28.09375 45 
C 13.90625 45 3.796875 36.21875 3.796875 22.25 
C 3.796875 7.96875 13.703125 -0.5 27 -0.5 
C 32.5 -0.5 37.203125 1.46875 41.09375 4.859375 
L 41.09375 0 
L 58.90625 0 
L 58.90625 4.5625 
C 52.703125 4.5625 52 4.5625 52 8.4375 
L 52 69 
z
M 41.09375 10.328125 
C 36.90625 4.09375 31.796875 2.78125 28.203125 2.78125 
C 15.796875 2.78125 15.796875 15.453125 15.796875 22.046875 
C 15.796875 26.75 15.796875 31.75 18 35.53125 
C 21.09375 41.125 27 41.71875 29.296875 41.71875 
C 33.40625 41.71875 37.796875 39.9375 41.09375 35.5625 
z
" id="CMBX12-100"/>
      <path d="M 21.703125 69 
L 4.40625 69 
L 4.40625 64.328125 
C 10.59375 64.328125 11.296875 64.328125 11.296875 60.40625 
L 11.296875 4.0625 
L 4.40625 4.0625 
L 4.40625 -0.203125 
C 6.703125 0 13.796875 0 16.5 0 
C 19.203125 0 26.296875 0 28.59375 -0.203125 
L 28.59375 4.0625 
L 21.703125 4.0625 
z
" id="CMBX12-108"/>
      <path d="M 49.5 37.828125 
C 50.09375 39.203125 50.5 40 56.90625 40 
L 56.90625 44.171875 
C 53.5 44.171875 53.09375 44.171875 49 44.171875 
C 46.296875 44.171875 46.09375 44.171875 40.40625 44.171875 
L 40.40625 40 
C 40.5 40 45.203125 40 45.203125 38.71875 
C 45.203125 38.421875 44.90625 37.828125 44.796875 37.53125 
L 33.09375 12.578125 
L 20.296875 40 
L 25.796875 40 
L 25.796875 44.265625 
C 23.40625 44.171875 16.59375 44.171875 13.796875 44.171875 
C 10.90625 44.171875 5 44.171875 2.40625 44.265625 
L 2.40625 40 
L 8.796875 40 
L 27.296875 0.3125 
C 26.796875 -0.875 25.40625 -3.75 24.90625 -4.9375 
C 22.796875 -9.390625 19.59375 -16.21875 12.59375 -16.21875 
C 12.203125 -16.21875 11 -16.21875 9.90625 -15.625 
C 10.09375 -15.515625 13.09375 -14.328125 13.09375 -10.5625 
C 13.09375 -7.3125 10.703125 -5.234375 7.703125 -5.234375 
C 4.59375 -5.234375 2.203125 -7.328125 2.203125 -10.6875 
C 2.203125 -15.34375 6.59375 -19.5 12.59375 -19.5 
C 20.796875 -19.5 26.203125 -12.171875 28.203125 -7.8125 
z
" id="CMBX12-121"/>
      <path d="M 28.203125 -14.921875 
L 21.296875 -14.921875 
L 21.296875 4.1875 
C 23.796875 2 28.203125 -0.5 34.203125 -0.5 
C 47.90625 -0.5 58.59375 7.703125 58.59375 22.140625 
C 58.59375 35.78125 49.296875 44.578125 35.796875 44.578125 
C 29.90625 44.578125 24.796875 42.78125 20.796875 39.90625 
L 20.796875 44.671875 
L 3.5 44.671875 
L 3.5 40 
C 9.703125 40 10.40625 40 10.40625 36.09375 
L 10.40625 -14.921875 
L 3.5 -14.921875 
L 3.5 -19.1875 
C 5.796875 -19 13 -19 15.796875 -19 
C 18.59375 -19 25.90625 -19 28.203125 -19.1875 
z
M 21.296875 35.09375 
C 25 39.53125 30.296875 41 34.203125 41 
C 40.703125 41 46.59375 35.171875 46.59375 22.140625 
C 46.59375 7.8125 39.40625 2.78125 33 2.78125 
C 28.703125 2.78125 24.40625 4.984375 21.296875 9.6875 
z
" id="CMBX12-112"/>
     </defs>
     <g transform="translate(288.406005 412.72083)scale(0.22 -0.22)">
      <use transform="translate(0 -0.072648)scale(0.996264)" xlink:href="#CMBX12-77"/>
      <use transform="translate(106.314425 -0.072648)scale(0.996264)" xlink:href="#CMBX12-111"/>
      <use transform="translate(165.467601 -0.072648)scale(0.996264)" xlink:href="#CMBX12-100"/>
      <use transform="translate(227.734101 -0.072648)scale(0.996264)" xlink:href="#CMBX12-101"/>
      <use transform="translate(278.873369 -0.072648)scale(0.996264)" xlink:href="#CMBX12-108"/>
      <use transform="translate(347.366519 -0.072648)scale(0.996264)" xlink:href="#CMBX12-84"/>
      <use transform="translate(422.201565 -0.072648)scale(0.996264)" xlink:href="#CMBX12-121"/>
      <use transform="translate(481.35474 -0.072648)scale(0.996264)" xlink:href="#CMBX12-112"/>
      <use transform="translate(546.734566 -0.072648)scale(0.996264)" xlink:href="#CMBX12-101"/>
     </g>
    </g>
   </g>
   <g id="matplotlib.axis_2">
    <g id="ytick_1">
     <g id="line2d_4">
      <defs>
       <path d="M 0 0 
L -3.5 0 
" id="m865723660f" style="stroke:#000000;stroke-width:0.8;"/>
      </defs>
      <g>
       <use style="stroke:#000000;stroke-width:0.8;" x="75.83746" xlink:href="#m865723660f" y="353.004894"/>
      </g>
     </g>
     <g id="text_5">
      <!-- $10^{0}$ -->
      <defs>
       <path d="M 34.59375 62.109375 
C 34.59375 65 34.40625 65 31.203125 65 
C 23.796875 59 12.703125 59 10.5 59 
L 8.59375 59 
L 8.59375 54.734375 
L 10.5 54.734375 
C 14 54.734375 19.296875 55.328125 23.296875 56.625 
L 23.296875 4.171875 
L 9.40625 4.171875 
L 9.40625 0 
C 13.59375 0 24.09375 0 28.796875 0 
C 33.5 0 44.09375 0 48.296875 0 
L 48.296875 4.171875 
L 34.59375 4.171875 
z
" id="CMBX12-49"/>
       <path d="M 51.703125 31.84375 
C 51.703125 41.375 51.703125 65.28125 28.09375 65.28125 
C 4.40625 65.28125 4.40625 41.46875 4.40625 31.84375 
C 4.40625 22.3125 4.40625 -1 28 -1 
C 51.59375 -1 51.703125 22.015625 51.703125 31.84375 
z
M 28.09375 2.28125 
C 24.90625 2.28125 22.5 3.5625 20.5 5.65625 
C 18 8.140625 16.40625 9.703125 16.40625 33.03125 
C 16.40625 39.984375 16.40625 46.3125 17.203125 51.484375 
C 18.59375 61.3125 25.796875 62 28 62 
C 31.203125 62 37.40625 60.515625 38.796875 52.1875 
C 39.703125 47.109375 39.703125 39.078125 39.703125 33.03125 
C 39.703125 9.609375 38.203125 8.234375 35.203125 5.25 
C 33.203125 3.265625 30.5 2.28125 28.09375 2.28125 
z
" id="CMBX12-48"/>
      </defs>
      <g transform="translate(41 359.254894)scale(0.18 -0.18)">
       <use transform="scale(0.996264)" xlink:href="#CMBX12-49"/>
       <use transform="translate(56.039851 0)scale(0.996264)" xlink:href="#CMBX12-48"/>
       <use transform="translate(112.079701 36.153639)scale(0.697382)" xlink:href="#CMBX12-48"/>
      </g>
     </g>
    </g>
    <g id="ytick_2">
     <g id="line2d_5">
      <g>
       <use style="stroke:#000000;stroke-width:0.8;" x="75.83746" xlink:href="#m865723660f" y="187.490773"/>
      </g>
     </g>
     <g id="text_6">
      <!-- $10^{1}$ -->
      <g transform="translate(41 193.740773)scale(0.18 -0.18)">
       <use transform="scale(0.996264)" xlink:href="#CMBX12-49"/>
       <use transform="translate(56.039851 0)scale(0.996264)" xlink:href="#CMBX12-48"/>
       <use transform="translate(112.079701 36.153639)scale(0.697382)" xlink:href="#CMBX12-49"/>
      </g>
     </g>
    </g>
    <g id="ytick_3">
     <g id="line2d_6">
      <g>
       <use style="stroke:#000000;stroke-width:0.8;" x="75.83746" xlink:href="#m865723660f" y="21.976651"/>
      </g>
     </g>
     <g id="text_7">
      <!-- $10^{2}$ -->
      <defs>
       <path d="M 50.5 21.375 
L 46.296875 21.375 
C 46 19.28125 45.296875 13.40625 43.796875 12.421875 
C 43 11.71875 35.203125 11.71875 33.703125 11.71875 
L 18.203125 11.71875 
C 22 14.90625 31.09375 22.46875 32.59375 23.578125 
C 43.703125 31.84375 50.5 36.90625 50.5 46.46875 
C 50.5 58.203125 39.796875 65.28125 26.59375 65.28125 
C 15.296875 65.28125 5.59375 58.90625 5.59375 49.453125 
C 5.59375 44.171875 9.90625 42.6875 12.203125 42.6875 
C 15.296875 42.6875 18.90625 44.765625 18.90625 49.359375 
C 18.90625 53.546875 15.796875 55.625 12.703125 56.03125 
C 16.703125 60.609375 22 61 24.09375 61 
C 33.296875 61 37.703125 53.546875 37.703125 46.375 
C 37.703125 38.609375 32.40625 31.453125 28.296875 27.171875 
L 6.59375 4.578125 
C 5.59375 3.671875 5.59375 3.484375 5.59375 1.6875 
L 5.59375 0 
L 47.59375 0 
z
" id="CMBX12-50"/>
      </defs>
      <g transform="translate(41 28.226651)scale(0.18 -0.18)">
       <use transform="scale(0.996264)" xlink:href="#CMBX12-49"/>
       <use transform="translate(56.039851 0)scale(0.996264)" xlink:href="#CMBX12-48"/>
       <use transform="translate(112.079701 36.153639)scale(0.697382)" xlink:href="#CMBX12-50"/>
      </g>
     </g>
    </g>
    <g id="ytick_4">
     <g id="line2d_7">
      <defs>
       <path d="M 0 0 
L -2 0 
" id="m31f3e67dd2" style="stroke:#000000;stroke-width:0.6;"/>
      </defs>
      <g>
       <use style="stroke:#000000;stroke-width:0.6;" x="75.83746" xlink:href="#m31f3e67dd2" y="360.578405"/>
      </g>
     </g>
    </g>
    <g id="ytick_5">
     <g id="line2d_8">
      <g>
       <use style="stroke:#000000;stroke-width:0.6;" x="75.83746" xlink:href="#m31f3e67dd2" y="303.180179"/>
      </g>
     </g>
    </g>
    <g id="ytick_6">
     <g id="line2d_9">
      <g>
       <use style="stroke:#000000;stroke-width:0.6;" x="75.83746" xlink:href="#m31f3e67dd2" y="274.034589"/>
      </g>
     </g>
    </g>
    <g id="ytick_7">
     <g id="line2d_10">
      <g>
       <use style="stroke:#000000;stroke-width:0.6;" x="75.83746" xlink:href="#m31f3e67dd2" y="253.355463"/>
      </g>
     </g>
    </g>
    <g id="ytick_8">
     <g id="line2d_11">
      <g>
       <use style="stroke:#000000;stroke-width:0.6;" x="75.83746" xlink:href="#m31f3e67dd2" y="237.315488"/>
      </g>
     </g>
    </g>
    <g id="ytick_9">
     <g id="line2d_12">
      <g>
       <use style="stroke:#000000;stroke-width:0.6;" x="75.83746" xlink:href="#m31f3e67dd2" y="224.209873"/>
      </g>
     </g>
    </g>
    <g id="ytick_10">
     <g id="line2d_13">
      <g>
       <use style="stroke:#000000;stroke-width:0.6;" x="75.83746" xlink:href="#m31f3e67dd2" y="213.129234"/>
      </g>
     </g>
    </g>
    <g id="ytick_11">
     <g id="line2d_14">
      <g>
       <use style="stroke:#000000;stroke-width:0.6;" x="75.83746" xlink:href="#m31f3e67dd2" y="203.530748"/>
      </g>
     </g>
    </g>
    <g id="ytick_12">
     <g id="line2d_15">
      <g>
       <use style="stroke:#000000;stroke-width:0.6;" x="75.83746" xlink:href="#m31f3e67dd2" y="195.064283"/>
      </g>
     </g>
    </g>
    <g id="ytick_13">
     <g id="line2d_16">
      <g>
       <use style="stroke:#000000;stroke-width:0.6;" x="75.83746" xlink:href="#m31f3e67dd2" y="137.666057"/>
      </g>
     </g>
    </g>
    <g id="ytick_14">
     <g id="line2d_17">
      <g>
       <use style="stroke:#000000;stroke-width:0.6;" x="75.83746" xlink:href="#m31f3e67dd2" y="108.520467"/>
      </g>
     </g>
    </g>
    <g id="ytick_15">
     <g id="line2d_18">
      <g>
       <use style="stroke:#000000;stroke-width:0.6;" x="75.83746" xlink:href="#m31f3e67dd2" y="87.841342"/>
      </g>
     </g>
    </g>
    <g id="ytick_16">
     <g id="line2d_19">
      <g>
       <use style="stroke:#000000;stroke-width:0.6;" x="75.83746" xlink:href="#m31f3e67dd2" y="71.801366"/>
      </g>
     </g>
    </g>
    <g id="ytick_17">
     <g id="line2d_20">
      <g>
       <use style="stroke:#000000;stroke-width:0.6;" x="75.83746" xlink:href="#m31f3e67dd2" y="58.695752"/>
      </g>
     </g>
    </g>
    <g id="ytick_18">
     <g id="line2d_21">
      <g>
       <use style="stroke:#000000;stroke-width:0.6;" x="75.83746" xlink:href="#m31f3e67dd2" y="47.615113"/>
      </g>
     </g>
    </g>
    <g id="ytick_19">
     <g id="line2d_22">
      <g>
       <use style="stroke:#000000;stroke-width:0.6;" x="75.83746" xlink:href="#m31f3e67dd2" y="38.016627"/>
      </g>
     </g>
    </g>
    <g id="ytick_20">
     <g id="line2d_23">
      <g>
       <use style="stroke:#000000;stroke-width:0.6;" x="75.83746" xlink:href="#m31f3e67dd2" y="29.550162"/>
      </g>
     </g>
    </g>
    <g id="text_8">
     <!-- \textbf{Latency (ms)} -->
     <defs>
      <path d="M 46.796875 11.765625 
C 46.796875 12.953125 45.703125 12.953125 44.703125 12.953125 
C 43.09375 12.953125 43 12.859375 42.5 11.671875 
C 41.796875 9.765625 39.09375 3.078125 29.90625 3.078125 
C 15.796875 3.078125 15.796875 18.21875 15.796875 22.703125 
C 15.796875 28.578125 15.90625 41.625 29 41.625 
C 29.703125 41.625 35.59375 41.625 35.59375 41.125 
C 35.59375 41 35.5 40.90625 35.296875 40.8125 
C 35 40.515625 33.703125 39 33.703125 36.46875 
C 33.703125 32.25 37.09375 30.53125 39.59375 30.53125 
C 41.703125 30.53125 45.5 31.859375 45.5 36.65625 
C 45.5 45 34 45 28.59375 45 
C 10.796875 45 3.796875 33.515625 3.796875 22.09375 
C 3.796875 8.625 13.296875 -0.5 28 -0.5 
C 43.703125 -0.5 46.796875 11.0625 46.796875 11.765625 
z
" id="CMBX12-99"/>
      <path d="M 37.40625 -23.8125 
C 37.40625 -23.40625 37.40625 -23.203125 35.5 -21.421875 
C 24.296875 -10.296875 20 7.203125 20 24.6875 
C 20 44.28125 24.90625 60.390625 36.09375 71.609375 
C 37.296875 72.796875 37.40625 72.90625 37.40625 73.296875 
C 37.40625 74.5 36.203125 74.5 35.703125 74.5 
C 34.796875 74.5 34.59375 74.5 32 72.40625 
C 17.59375 60.984375 10.796875 42.6875 10.796875 24.8125 
C 10.796875 6.515625 17.703125 -11.28125 31.90625 -22.8125 
C 34.5 -25 34.703125 -25 35.703125 -25 
C 36.203125 -25 37.40625 -25 37.40625 -23.8125 
z
" id="CMBX12-40"/>
      <path d="M 84.40625 30.0625 
C 84.40625 39.15625 80.5 44.28125 69.296875 44.28125 
C 59.203125 44.28125 54.5 37.609375 52.90625 34.46875 
C 51.296875 42.8125 44.5 44.28125 38.09375 44.28125 
C 28.5 44.28125 23.296875 38.203125 21.203125 33.484375 
L 21.09375 33.484375 
L 21.09375 44 
L 4.203125 44 
L 4.203125 39.328125 
C 10.40625 39.328125 11.09375 39.328125 11.09375 35.46875 
L 11.09375 4.0625 
L 4.203125 4.0625 
L 4.203125 -0.203125 
C 6.5 0 13.703125 0 16.5 0 
C 19.296875 0 26.59375 0 28.90625 -0.203125 
L 28.90625 4.0625 
L 22 4.0625 
L 22 25.109375 
C 22 35.875 30.09375 41 36.40625 41 
C 40.09375 41 42.296875 38.828125 42.296875 31.140625 
L 42.296875 4.0625 
L 35.40625 4.0625 
L 35.40625 -0.203125 
C 37.703125 0 44.90625 0 47.703125 0 
C 50.5 0 57.796875 0 60.09375 -0.203125 
L 60.09375 4.0625 
L 53.203125 4.0625 
L 53.203125 25.109375 
C 53.203125 35.875 61.296875 41 67.59375 41 
C 71.296875 41 73.5 38.828125 73.5 31.140625 
L 73.5 4.0625 
L 66.59375 4.0625 
L 66.59375 -0.203125 
C 68.90625 0 76.09375 0 78.90625 0 
C 81.703125 0 89 0 91.296875 -0.203125 
L 91.296875 4.0625 
L 84.40625 4.0625 
z
" id="CMBX12-109"/>
      <path d="M 32.796875 24.703125 
C 32.796875 42.984375 25.90625 60.78125 11.703125 72.3125 
C 9.09375 74.5 8.90625 74.5 7.90625 74.5 
C 7.40625 74.5 6.203125 74.5 6.203125 73.3125 
C 6.203125 72.921875 6.203125 72.71875 8.09375 70.9375 
C 19.296875 59.796875 23.59375 42.3125 23.59375 24.8125 
C 23.59375 5.21875 18.703125 -10.875 7.5 -22.109375 
C 6.296875 -23.3125 6.203125 -23.40625 6.203125 -23.8125 
C 6.203125 -25 7.40625 -25 7.90625 -25 
C 8.796875 -25 9 -25 11.59375 -22.90625 
C 26 -11.484375 32.796875 6.8125 32.796875 24.703125 
z
" id="CMBX12-41"/>
     </defs>
     <g transform="translate(31.5 265.39437)rotate(-90)scale(0.22 -0.22)">
      <use transform="translate(0 -0.0934)scale(0.996264)" xlink:href="#CMBX12-76"/>
      <use transform="translate(67.340095 -0.0934)scale(0.996264)" xlink:href="#CMBX12-97"/>
      <use transform="translate(121.823284 -0.0934)scale(0.996264)" xlink:href="#CMBX12-116"/>
      <use transform="translate(165.409834 -0.0934)scale(0.996264)" xlink:href="#CMBX12-101"/>
      <use transform="translate(216.549101 -0.0934)scale(0.996264)" xlink:href="#CMBX12-110"/>
      <use transform="translate(278.815602 -0.0934)scale(0.996264)" xlink:href="#CMBX12-99"/>
      <use transform="translate(328.628802 -0.0934)scale(0.996264)" xlink:href="#CMBX12-121"/>
      <use transform="translate(425.141878 -0.0934)scale(0.996264)" xlink:href="#CMBX12-40"/>
      <use transform="translate(468.728429 -0.0934)scale(0.996264)" xlink:href="#CMBX12-109"/>
      <use transform="translate(562.12818 -0.0934)scale(0.996264)" xlink:href="#CMBX12-115"/>
      <use transform="translate(606.337517 -0.0934)scale(0.996264)" xlink:href="#CMBX12-41"/>
     </g>
    </g>
   </g>
   <g id="line2d_24">
    <path clip-path="url(#p3791695524)" d="M 164.796185 331.625076 
L 164.796185 336.38639 
" style="fill:none;stroke:#000000;stroke-linecap:square;stroke-width:2;"/>
   </g>
   <g id="line2d_25">
    <path clip-path="url(#p3791695524)" d="M 164.796185 327.617762 
L 164.796185 321.996932 
" style="fill:none;stroke:#000000;stroke-linecap:square;stroke-width:2;"/>
   </g>
   <g id="line2d_26">
    <path clip-path="url(#p3791695524)" d="M 153.091089 336.38639 
L 176.50128 336.38639 
" style="fill:none;stroke:#000000;stroke-linecap:square;stroke-width:2;"/>
   </g>
   <g id="line2d_27">
    <path clip-path="url(#p3791695524)" d="M 153.091089 321.996932 
L 176.50128 321.996932 
" style="fill:none;stroke:#000000;stroke-linecap:square;stroke-width:2;"/>
   </g>
   <g id="line2d_28">
    <path clip-path="url(#p3791695524)" d="M 227.22336 330.97101 
L 227.22336 336.691712 
" style="fill:none;stroke:#000000;stroke-linecap:square;stroke-width:2;"/>
   </g>
   <g id="line2d_29">
    <path clip-path="url(#p3791695524)" d="M 227.22336 326.635736 
L 227.22336 320.719826 
" style="fill:none;stroke:#000000;stroke-linecap:square;stroke-width:2;"/>
   </g>
   <g id="line2d_30">
    <path clip-path="url(#p3791695524)" d="M 215.518265 336.691712 
L 238.928456 336.691712 
" style="fill:none;stroke:#000000;stroke-linecap:square;stroke-width:2;"/>
   </g>
   <g id="line2d_31">
    <path clip-path="url(#p3791695524)" d="M 215.518265 320.719826 
L 238.928456 320.719826 
" style="fill:none;stroke:#000000;stroke-linecap:square;stroke-width:2;"/>
   </g>
   <g id="line2d_32">
    <path clip-path="url(#p3791695524)" d="M 352.077711 52.358472 
L 352.077711 65.260842 
" style="fill:none;stroke:#000000;stroke-linecap:square;stroke-width:2;"/>
   </g>
   <g id="line2d_33">
    <path clip-path="url(#p3791695524)" d="M 352.077711 44.556045 
L 352.077711 34.264375 
" style="fill:none;stroke:#000000;stroke-linecap:square;stroke-width:2;"/>
   </g>
   <g id="line2d_34">
    <path clip-path="url(#p3791695524)" d="M 340.372616 65.260842 
L 363.782806 65.260842 
" style="fill:none;stroke:#000000;stroke-linecap:square;stroke-width:2;"/>
   </g>
   <g id="line2d_35">
    <path clip-path="url(#p3791695524)" d="M 340.372616 34.264375 
L 363.782806 34.264375 
" style="fill:none;stroke:#000000;stroke-linecap:square;stroke-width:2;"/>
   </g>
   <g id="line2d_36">
    <path clip-path="url(#p3791695524)" d="M 414.504886 53.568555 
L 414.504886 65.300711 
" style="fill:none;stroke:#000000;stroke-linecap:square;stroke-width:2;"/>
   </g>
   <g id="line2d_37">
    <path clip-path="url(#p3791695524)" d="M 414.504886 45.893648 
L 414.504886 35.739246 
" style="fill:none;stroke:#000000;stroke-linecap:square;stroke-width:2;"/>
   </g>
   <g id="line2d_38">
    <path clip-path="url(#p3791695524)" d="M 402.799791 65.300711 
L 426.209982 65.300711 
" style="fill:none;stroke:#000000;stroke-linecap:square;stroke-width:2;"/>
   </g>
   <g id="line2d_39">
    <path clip-path="url(#p3791695524)" d="M 402.799791 35.739246 
L 426.209982 35.739246 
" style="fill:none;stroke:#000000;stroke-linecap:square;stroke-width:2;"/>
   </g>
   <g id="line2d_40">
    <path clip-path="url(#p3791695524)" d="M 539.359237 265.745219 
L 539.359237 274.462647 
" style="fill:none;stroke:#000000;stroke-linecap:square;stroke-width:2;"/>
   </g>
   <g id="line2d_41">
    <path clip-path="url(#p3791695524)" d="M 539.359237 258.090112 
L 539.359237 247.984809 
" style="fill:none;stroke:#000000;stroke-linecap:square;stroke-width:2;"/>
   </g>
   <g id="line2d_42">
    <path clip-path="url(#p3791695524)" d="M 527.654142 274.462647 
L 551.064332 274.462647 
" style="fill:none;stroke:#000000;stroke-linecap:square;stroke-width:2;"/>
   </g>
   <g id="line2d_43">
    <path clip-path="url(#p3791695524)" d="M 527.654142 247.984809 
L 551.064332 247.984809 
" style="fill:none;stroke:#000000;stroke-linecap:square;stroke-width:2;"/>
   </g>
   <g id="line2d_44">
    <path clip-path="url(#p3791695524)" d="M 601.786412 282.674309 
L 601.786412 300.564863 
" style="fill:none;stroke:#000000;stroke-linecap:square;stroke-width:2;"/>
   </g>
   <g id="line2d_45">
    <path clip-path="url(#p3791695524)" d="M 601.786412 272.460193 
L 601.786412 261.289827 
" style="fill:none;stroke:#000000;stroke-linecap:square;stroke-width:2;"/>
   </g>
   <g id="line2d_46">
    <path clip-path="url(#p3791695524)" d="M 590.081317 300.564863 
L 613.491508 300.564863 
" style="fill:none;stroke:#000000;stroke-linecap:square;stroke-width:2;"/>
   </g>
   <g id="line2d_47">
    <path clip-path="url(#p3791695524)" d="M 590.081317 261.289827 
L 613.491508 261.289827 
" style="fill:none;stroke:#000000;stroke-linecap:square;stroke-width:2;"/>
   </g>
   <g id="patch_3">
    <path clip-path="url(#p3791695524)" d="M 141.385994 331.625076 
L 188.206376 331.625076 
L 188.206376 327.617762 
L 141.385994 327.617762 
L 141.385994 331.625076 
z
" style="fill:#e41a1c;stroke:#e41a1c;stroke-linejoin:miter;stroke-width:2;"/>
   </g>
   <g id="patch_4">
    <path clip-path="url(#p3791695524)" d="M 203.813169 330.97101 
L 250.633551 330.97101 
L 250.633551 326.635736 
L 203.813169 326.635736 
L 203.813169 330.97101 
z
" style="fill:#377eb8;stroke:#377eb8;stroke-linejoin:miter;stroke-width:2;"/>
   </g>
   <g id="patch_5">
    <path clip-path="url(#p3791695524)" d="M 328.66752 52.358472 
L 375.487902 52.358472 
L 375.487902 44.556045 
L 328.66752 44.556045 
L 328.66752 52.358472 
z
" style="fill:#e41a1c;stroke:#e41a1c;stroke-linejoin:miter;stroke-width:2;"/>
   </g>
   <g id="patch_6">
    <path clip-path="url(#p3791695524)" d="M 391.094696 53.568555 
L 437.915077 53.568555 
L 437.915077 45.893648 
L 391.094696 45.893648 
L 391.094696 53.568555 
z
" style="fill:#377eb8;stroke:#377eb8;stroke-linejoin:miter;stroke-width:2;"/>
   </g>
   <g id="patch_7">
    <path clip-path="url(#p3791695524)" d="M 515.949046 265.745219 
L 562.769428 265.745219 
L 562.769428 258.090112 
L 515.949046 258.090112 
L 515.949046 265.745219 
z
" style="fill:#e41a1c;stroke:#e41a1c;stroke-linejoin:miter;stroke-width:2;"/>
   </g>
   <g id="patch_8">
    <path clip-path="url(#p3791695524)" d="M 578.376222 282.674309 
L 625.196603 282.674309 
L 625.196603 272.460193 
L 578.376222 272.460193 
L 578.376222 282.674309 
z
" style="fill:#377eb8;stroke:#377eb8;stroke-linejoin:miter;stroke-width:2;"/>
   </g>
   <g id="line2d_48">
    <path clip-path="url(#p3791695524)" d="M 141.385994 329.725245 
L 188.206376 329.725245 
" style="fill:none;stroke:#000000;stroke-linecap:square;stroke-width:2;"/>
   </g>
   <g id="line2d_49">
    <path clip-path="url(#p3791695524)" d="M 203.813169 329.817362 
L 250.633551 329.817362 
" style="fill:none;stroke:#000000;stroke-linecap:square;stroke-width:2;"/>
   </g>
   <g id="line2d_50">
    <path clip-path="url(#p3791695524)" d="M 328.66752 49.72586 
L 375.487902 49.72586 
" style="fill:none;stroke:#000000;stroke-linecap:square;stroke-width:2;"/>
   </g>
   <g id="line2d_51">
    <path clip-path="url(#p3791695524)" d="M 391.094696 50.820275 
L 437.915077 50.820275 
" style="fill:none;stroke:#000000;stroke-linecap:square;stroke-width:2;"/>
   </g>
   <g id="line2d_52">
    <path clip-path="url(#p3791695524)" d="M 515.949046 262.537106 
L 562.769428 262.537106 
" style="fill:none;stroke:#000000;stroke-linecap:square;stroke-width:2;"/>
   </g>
   <g id="line2d_53">
    <path clip-path="url(#p3791695524)" d="M 578.376222 276.59005 
L 625.196603 276.59005 
" style="fill:none;stroke:#000000;stroke-linecap:square;stroke-width:2;"/>
   </g>
   <g id="patch_9">
    <path d="M 75.83746 368.94192 
L 75.83746 18.327349 
" style="fill:none;stroke:#000000;stroke-linecap:square;stroke-linejoin:miter;stroke-width:0.8;"/>
   </g>
   <g id="patch_10">
    <path d="M 633 368.94192 
L 633 18.327349 
" style="fill:none;"/>
   </g>
   <g id="patch_11">
    <path d="M 75.83746 368.94192 
L 633 368.94192 
" style="fill:none;stroke:#000000;stroke-linecap:square;stroke-linejoin:miter;stroke-width:0.8;"/>
   </g>
   <g id="patch_12">
    <path d="M 75.83746 18.327349 
L 633 18.327349 
" style="fill:none;"/>
   </g>
   <g id="legend_1">
    <g id="patch_13">
     <path d="M 80.63746 69.349549 
L 267.19864 69.349549 
Q 270.39864 69.349549 270.39864 66.149549 
L 270.39864 23.127349 
Q 270.39864 19.927349 267.19864 19.927349 
L 80.63746 19.927349 
Q 77.43746 19.927349 77.43746 23.127349 
L 77.43746 66.149549 
Q 77.43746 69.349549 80.63746 69.349549 
z
" style="fill:none;opacity:0;"/>
    </g>
    <g id="line2d_54">
     <path d="M 83.83746 31.927349 
L 115.83746 31.927349 
" style="fill:none;stroke:#e41a1c;stroke-linecap:square;stroke-width:2;"/>
    </g>
    <g id="line2d_55"/>
    <g id="text_9">
     <!-- \textbf{Classifier} -->
     <defs>
      <path d="M 74.90625 66.4375 
C 74.90625 68.71875 74.90625 69.015625 72.703125 69.015625 
L 65.203125 61.859375 
C 59.59375 66.609375 52.90625 69 45.5 69 
C 21.59375 69 6.203125 54.640625 6.203125 33.859375 
C 6.203125 13.46875 21.09375 -1.265625 45.59375 -1.265625 
C 63.40625 -1.265625 74.90625 10.796875 74.90625 22.484375 
C 74.90625 24.171875 74.296875 24.171875 72.796875 24.171875 
C 71.796875 24.171875 70.796875 24.171875 70.703125 23.1875 
C 69.796875 8.15625 56.90625 3 47.90625 3 
C 41.40625 3 32.59375 4.796875 27 11.015625 
C 23.5 14.78125 20.296875 20.203125 20.296875 33.859375 
C 20.296875 43.5625 21.796875 50.78125 26.5 56.3125 
C 32.90625 63.734375 42.90625 64.734375 47.703125 64.734375 
C 55.203125 64.734375 67.296875 60.5625 70.296875 43.15625 
C 70.5 42.265625 71.40625 42.265625 72.59375 42.265625 
C 74.90625 42.265625 74.90625 42.46875 74.90625 44.84375 
z
" id="CMBX12-67"/>
      <path d="M 34.703125 44.390625 
L 34.703125 44.390625 
L 20.296875 44.390625 
L 20.296875 54.078125 
C 20.296875 65.03125 32.09375 66 36.09375 66 
C 37.203125 66 40.796875 66 43.796875 64.03125 
C 40.703125 63.03125 39.40625 60.65625 39.40625 58.09375 
C 39.40625 54.453125 42.09375 52.078125 45.5 52.078125 
C 48.796875 52.078125 51.59375 54.359375 51.59375 58.109375 
C 51.59375 63.546875 47.09375 69.28125 37 69.28125 
C 25.59375 69.28125 10.40625 65.90625 10.40625 53.96875 
L 10.40625 44 
L 3 44 
L 3 39.734375 
L 10.40625 39.734375 
L 10.40625 4.0625 
L 3.5 4.0625 
L 3.5 -0.203125 
C 5.796875 0 12.90625 0 15.59375 0 
C 18.296875 0 25.40625 0 27.703125 -0.203125 
L 27.703125 4.0625 
L 20.796875 4.0625 
L 20.796875 39.734375 
L 38.5 39.734375 
C 41 39.734375 41.59375 39.625 41.59375 36.140625 
L 41.59375 4.0625 
L 34.703125 4.0625 
L 34.703125 -0.203125 
C 37 0 44.09375 0 46.796875 0 
C 49.5 0 56.59375 0 58.90625 -0.203125 
L 58.90625 4.0625 
L 52 4.0625 
L 52 44.390625 
z
" id="CMBX12-12"/>
     </defs>
     <g transform="translate(128.63746 37.527349)scale(0.16 -0.16)">
      <use transform="scale(0.996264)" xlink:href="#CMBX12-67"/>
      <use transform="translate(80.946451 0)scale(0.996264)" xlink:href="#CMBX12-108"/>
      <use transform="translate(112.079701 0)scale(0.996264)" xlink:href="#CMBX12-97"/>
      <use transform="translate(166.562889 0)scale(0.996264)" xlink:href="#CMBX12-115"/>
      <use transform="translate(210.772226 0)scale(0.996264)" xlink:href="#CMBX12-115"/>
      <use transform="translate(254.981563 0)scale(0.996264)" xlink:href="#CMBX12-105"/>
      <use transform="translate(286.114814 0)scale(0.996264)" xlink:href="#CMBX12-12"/>
      <use transform="translate(348.381314 0)scale(0.996264)" xlink:href="#CMBX12-101"/>
      <use transform="translate(399.520581 0)scale(0.996264)" xlink:href="#CMBX12-114"/>
     </g>
    </g>
    <g id="line2d_56">
     <path d="M 83.83746 54.238449 
L 115.83746 54.238449 
" style="fill:none;stroke:#377eb8;stroke-linecap:square;stroke-width:2;"/>
    </g>
    <g id="line2d_57"/>
    <g id="text_10">
     <!-- \textbf{Novelty Detector} -->
     <defs>
      <path d="M 29 66.90625 
C 28 68 27.90625 68 25.90625 68 
L 3.796875 68 
L 3.796875 63.828125 
L 14.40625 63.828125 
L 14.40625 6.953125 
C 14.40625 4.75 14.296875 4.65625 11.703125 4.25 
C 9.90625 4.0625 7.90625 4.0625 6.09375 4.0625 
L 3.796875 4.0625 
L 3.796875 -0.203125 
C 6.09375 0 13.90625 0 16.703125 0 
C 19.5 0 27.40625 0 29.703125 -0.203125 
L 29.703125 4.0625 
L 27.40625 4.0625 
C 24.703125 4.0625 24.5 4.0625 22.09375 4.359375 
C 19.203125 4.765625 19.09375 4.859375 19.09375 7.046875 
L 19.09375 60.4375 
L 68.59375 1.296875 
C 69.703125 0.09375 69.796875 0 71.09375 0 
C 73.5 0 73.5 0.59375 73.5 2.875 
L 73.5 60.9375 
C 73.5 63.125 73.59375 63.234375 76.203125 63.625 
C 78 63.828125 80 63.828125 81.796875 63.828125 
L 84.09375 63.828125 
L 84.09375 68.109375 
C 81.796875 68 74 68 71.203125 68 
C 68.40625 68 60.5 68 58.203125 68.109375 
L 58.203125 63.828125 
L 60.5 63.828125 
C 63.203125 63.828125 63.40625 63.828125 65.796875 63.53125 
C 68.703125 63.140625 68.796875 63.03125 68.796875 60.828125 
L 68.796875 19.203125 
z
" id="CMBX12-78"/>
      <path d="M 49.5 37.53125 
C 50.203125 39.03125 50.59375 39.828125 56.90625 39.828125 
L 56.90625 44 
C 53.296875 44 53.09375 44 49 44 
C 46.296875 44 46.09375 44 40.40625 44 
L 40.40625 39.828125 
C 43.09375 39.828125 45.296875 39.328125 45.296875 38.625 
C 45.296875 38.53125 45.296875 38.4375 44.796875 37.4375 
L 33.09375 11.921875 
L 20.203125 39.828125 
L 25.703125 39.828125 
L 25.703125 44.09375 
C 23.40625 44 16.40625 44 13.703125 44 
C 10.796875 44 5 44 2.40625 44.09375 
L 2.40625 39.828125 
L 8.703125 39.828125 
L 26.296875 1.890625 
C 27.203125 0 27.40625 -0.5 29.703125 -0.5 
C 31.296875 -0.5 32.09375 -0.296875 33 1.6875 
z
" id="CMBX12-118"/>
      <path d="M 3.796875 68.28125 
L 3.796875 64 
L 14.40625 64 
L 14.40625 4.265625 
L 3.796875 4.265625 
L 3.796875 0 
L 45.90625 0 
C 65.09375 0 79.90625 12.234375 79.90625 33.546875 
C 79.90625 56.046875 64.703125 68.28125 45.90625 68.28125 
z
M 27.09375 4.265625 
L 27.09375 64 
L 42.09375 64 
C 50.796875 64 57.796875 60.625 61.5 55.4375 
C 64.40625 51.359375 66.296875 46.484375 66.296875 33.640625 
C 66.296875 21.984375 64.796875 16.828125 61.296875 12.140625 
C 57.796875 7.546875 51.09375 4.265625 42.09375 4.265625 
z
" id="CMBX12-68"/>
     </defs>
     <g transform="translate(128.63746 59.838449)scale(0.16 -0.16)">
      <use transform="translate(0 -0.072648)scale(0.996264)" xlink:href="#CMBX12-78"/>
      <use transform="translate(87.634475 -0.072648)scale(0.996264)" xlink:href="#CMBX12-111"/>
      <use transform="translate(140.561 -0.072648)scale(0.996264)" xlink:href="#CMBX12-118"/>
      <use transform="translate(196.600851 -0.072648)scale(0.996264)" xlink:href="#CMBX12-101"/>
      <use transform="translate(247.740118 -0.072648)scale(0.996264)" xlink:href="#CMBX12-108"/>
      <use transform="translate(278.873369 -0.072648)scale(0.996264)" xlink:href="#CMBX12-116"/>
      <use transform="translate(319.346594 -0.072648)scale(0.996264)" xlink:href="#CMBX12-121"/>
      <use transform="translate(415.85967 -0.072648)scale(0.996264)" xlink:href="#CMBX12-68"/>
      <use transform="translate(501.764456 -0.072648)scale(0.996264)" xlink:href="#CMBX12-101"/>
      <use transform="translate(552.903723 -0.072648)scale(0.996264)" xlink:href="#CMBX12-116"/>
      <use transform="translate(596.490273 -0.072648)scale(0.996264)" xlink:href="#CMBX12-101"/>
      <use transform="translate(647.62954 -0.072648)scale(0.996264)" xlink:href="#CMBX12-99"/>
      <use transform="translate(697.442741 -0.072648)scale(0.996264)" xlink:href="#CMBX12-116"/>
      <use transform="translate(741.029291 -0.072648)scale(0.996264)" xlink:href="#CMBX12-111"/>
      <use transform="translate(797.069142 -0.072648)scale(0.996264)" xlink:href="#CMBX12-114"/>
     </g>
    </g>
   </g>
  </g>
 </g>
 <defs>
  <clipPath id="p3791695524">
   <rect height="350.614571" width="557.16254" x="75.83746" y="18.327349"/>
  </clipPath>
 </defs>
</svg>
