<?xml version="1.0" encoding="utf-8" standalone="no"?>
<!DOCTYPE svg PUBLIC "-//W3C//DTD SVG 1.1//EN"
  "http://www.w3.org/Graphics/SVG/1.1/DTD/svg11.dtd">
<!-- Created with matplotlib (https://matplotlib.org/) -->
<svg height="432pt" version="1.1" viewBox="0 0 648 432" width="648pt" xmlns="http://www.w3.org/2000/svg" xmlns:xlink="http://www.w3.org/1999/xlink">
 <defs>
  <style type="text/css">
*{stroke-linecap:butt;stroke-linejoin:round;}
  </style>
 </defs>
 <g id="figure_1">
  <g id="patch_1">
   <path d="M 0 432 
L 648 432 
L 648 0 
L 0 0 
z
" style="fill:#ffffff;"/>
  </g>
  <g id="axes_1">
   <g id="patch_2">
    <path d="M 91.41537 365.09886 
L 623.98125 365.09886 
L 623.98125 14.4 
L 91.41537 14.4 
z
" style="fill:#ffffff;"/>
   </g>
   <g id="matplotlib.axis_1">
    <g id="xtick_1">
     <g id="line2d_1">
      <defs>
       <path d="M 0 0 
L 0 6 
" id="m4a98a8ce39" style="stroke:#262626;stroke-width:1.25;"/>
      </defs>
      <g>
       <use style="fill:#262626;stroke:#262626;stroke-width:1.25;" x="91.41537" xlink:href="#m4a98a8ce39" y="365.09886"/>
      </g>
     </g>
     <g id="text_1">
      <!-- $0$ -->
      <defs>
       <path d="M 51.703125 31.84375 
C 51.703125 41.375 51.703125 65.28125 28.09375 65.28125 
C 4.40625 65.28125 4.40625 41.46875 4.40625 31.84375 
C 4.40625 22.3125 4.40625 -1 28 -1 
C 51.59375 -1 51.703125 22.015625 51.703125 31.84375 
z
M 28.09375 2.28125 
C 24.90625 2.28125 22.5 3.5625 20.5 5.65625 
C 18 8.140625 16.40625 9.703125 16.40625 33.03125 
C 16.40625 39.984375 16.40625 46.3125 17.203125 51.484375 
C 18.59375 61.3125 25.796875 62 28 62 
C 31.203125 62 37.40625 60.515625 38.796875 52.1875 
C 39.703125 47.109375 39.703125 39.078125 39.703125 33.03125 
C 39.703125 9.609375 38.203125 8.234375 35.203125 5.25 
C 33.203125 3.265625 30.5 2.28125 28.09375 2.28125 
z
" id="CMBX12-48"/>
      </defs>
      <g style="fill:#262626;" transform="translate(86.35287 387.09886)scale(0.18 -0.18)">
       <use transform="scale(0.996264)" xlink:href="#CMBX12-48"/>
      </g>
     </g>
    </g>
    <g id="xtick_2">
     <g id="line2d_2">
      <g>
       <use style="fill:#262626;stroke:#262626;stroke-width:1.25;" x="156.425853" xlink:href="#m4a98a8ce39" y="365.09886"/>
      </g>
     </g>
     <g id="text_2">
      <!-- $500$ -->
      <defs>
       <path d="M 15.40625 51.796875 
C 18.796875 51 21.5 51 23 51 
C 25.40625 51 31.09375 51 37.796875 55.109375 
C 40.90625 56.984375 46.09375 61.5 46.09375 63.796875 
C 46.09375 64.296875 46.09375 65.5 44.90625 65.5 
C 44.796875 65.5 44.59375 65.5 43.59375 64.984375 
C 39 63.34375 34.09375 62.21875 28.5 62.21875 
C 22.796875 62.21875 18 63.3125 13.296875 65 
C 12.59375 65.203125 12.296875 65.40625 12 65.40625 
C 10.796875 65.40625 10.796875 64.40625 10.796875 62.71875 
L 10.796875 33.796875 
C 10.796875 31.90625 10.796875 30.8125 12.796875 30.8125 
C 13.796875 30.8125 14 30.921875 14.796875 31.90625 
C 16 33.3125 19.59375 37.71875 28.09375 37.71875 
C 37.296875 37.71875 37.296875 28.359375 37.296875 20.5 
C 37.296875 13.3125 37.296875 2.96875 25 2.96875 
C 21.296875 2.96875 15 4.359375 11.59375 10 
C 16.90625 10 18.203125 13.984375 18.203125 16.171875 
C 18.203125 19.75 15.59375 22.421875 11.90625 22.421875 
C 8.90625 22.421875 5.59375 20.640625 5.59375 15.96875 
C 5.59375 7.34375 13.5 -1 25.40625 -1 
C 40.796875 -1 50.5 7.859375 50.5 20.203125 
C 50.5 32.34375 42.203125 41 28.5 41 
C 24.5 41 19.703125 40.203125 15.40625 37.015625 
z
" id="CMBX12-53"/>
      </defs>
      <g style="fill:#262626;" transform="translate(141.238353 387.09886)scale(0.18 -0.18)">
       <use transform="scale(0.996264)" xlink:href="#CMBX12-53"/>
       <use transform="translate(56.039851 0)scale(0.996264)" xlink:href="#CMBX12-48"/>
       <use transform="translate(112.079701 0)scale(0.996264)" xlink:href="#CMBX12-48"/>
      </g>
     </g>
    </g>
    <g id="xtick_3">
     <g id="line2d_3">
      <g>
       <use style="fill:#262626;stroke:#262626;stroke-width:1.25;" x="221.436337" xlink:href="#m4a98a8ce39" y="365.09886"/>
      </g>
     </g>
     <g id="text_3">
      <!-- $1000$ -->
      <defs>
       <path d="M 34.59375 62.109375 
C 34.59375 65 34.40625 65 31.203125 65 
C 23.796875 59 12.703125 59 10.5 59 
L 8.59375 59 
L 8.59375 54.734375 
L 10.5 54.734375 
C 14 54.734375 19.296875 55.328125 23.296875 56.625 
L 23.296875 4.171875 
L 9.40625 4.171875 
L 9.40625 0 
C 13.59375 0 24.09375 0 28.796875 0 
C 33.5 0 44.09375 0 48.296875 0 
L 48.296875 4.171875 
L 34.59375 4.171875 
z
" id="CMBX12-49"/>
      </defs>
      <g style="fill:#262626;" transform="translate(201.186337 387.09886)scale(0.18 -0.18)">
       <use transform="scale(0.996264)" xlink:href="#CMBX12-49"/>
       <use transform="translate(56.039851 0)scale(0.996264)" xlink:href="#CMBX12-48"/>
       <use transform="translate(112.079701 0)scale(0.996264)" xlink:href="#CMBX12-48"/>
       <use transform="translate(168.119552 0)scale(0.996264)" xlink:href="#CMBX12-48"/>
      </g>
     </g>
    </g>
    <g id="xtick_4">
     <g id="line2d_4">
      <g>
       <use style="fill:#262626;stroke:#262626;stroke-width:1.25;" x="286.44682" xlink:href="#m4a98a8ce39" y="365.09886"/>
      </g>
     </g>
     <g id="text_4">
      <!-- $1500$ -->
      <g style="fill:#262626;" transform="translate(266.19682 387.09886)scale(0.18 -0.18)">
       <use transform="scale(0.996264)" xlink:href="#CMBX12-49"/>
       <use transform="translate(56.039851 0)scale(0.996264)" xlink:href="#CMBX12-53"/>
       <use transform="translate(112.079701 0)scale(0.996264)" xlink:href="#CMBX12-48"/>
       <use transform="translate(168.119552 0)scale(0.996264)" xlink:href="#CMBX12-48"/>
      </g>
     </g>
    </g>
    <g id="xtick_5">
     <g id="line2d_5">
      <g>
       <use style="fill:#262626;stroke:#262626;stroke-width:1.25;" x="351.457304" xlink:href="#m4a98a8ce39" y="365.09886"/>
      </g>
     </g>
     <g id="text_5">
      <!-- $2000$ -->
      <defs>
       <path d="M 50.5 21.375 
L 46.296875 21.375 
C 46 19.28125 45.296875 13.40625 43.796875 12.421875 
C 43 11.71875 35.203125 11.71875 33.703125 11.71875 
L 18.203125 11.71875 
C 22 14.90625 31.09375 22.46875 32.59375 23.578125 
C 43.703125 31.84375 50.5 36.90625 50.5 46.46875 
C 50.5 58.203125 39.796875 65.28125 26.59375 65.28125 
C 15.296875 65.28125 5.59375 58.90625 5.59375 49.453125 
C 5.59375 44.171875 9.90625 42.6875 12.203125 42.6875 
C 15.296875 42.6875 18.90625 44.765625 18.90625 49.359375 
C 18.90625 53.546875 15.796875 55.625 12.703125 56.03125 
C 16.703125 60.609375 22 61 24.09375 61 
C 33.296875 61 37.703125 53.546875 37.703125 46.375 
C 37.703125 38.609375 32.40625 31.453125 28.296875 27.171875 
L 6.59375 4.578125 
C 5.59375 3.671875 5.59375 3.484375 5.59375 1.6875 
L 5.59375 0 
L 47.59375 0 
z
" id="CMBX12-50"/>
      </defs>
      <g style="fill:#262626;" transform="translate(331.207304 387.09886)scale(0.18 -0.18)">
       <use transform="scale(0.996264)" xlink:href="#CMBX12-50"/>
       <use transform="translate(56.039851 0)scale(0.996264)" xlink:href="#CMBX12-48"/>
       <use transform="translate(112.079701 0)scale(0.996264)" xlink:href="#CMBX12-48"/>
       <use transform="translate(168.119552 0)scale(0.996264)" xlink:href="#CMBX12-48"/>
      </g>
     </g>
    </g>
    <g id="xtick_6">
     <g id="line2d_6">
      <g>
       <use style="fill:#262626;stroke:#262626;stroke-width:1.25;" x="416.467787" xlink:href="#m4a98a8ce39" y="365.09886"/>
      </g>
     </g>
     <g id="text_6">
      <!-- $2500$ -->
      <g style="fill:#262626;" transform="translate(396.217787 387.09886)scale(0.18 -0.18)">
       <use transform="scale(0.996264)" xlink:href="#CMBX12-50"/>
       <use transform="translate(56.039851 0)scale(0.996264)" xlink:href="#CMBX12-53"/>
       <use transform="translate(112.079701 0)scale(0.996264)" xlink:href="#CMBX12-48"/>
       <use transform="translate(168.119552 0)scale(0.996264)" xlink:href="#CMBX12-48"/>
      </g>
     </g>
    </g>
    <g id="xtick_7">
     <g id="line2d_7">
      <g>
       <use style="fill:#262626;stroke:#262626;stroke-width:1.25;" x="481.47827" xlink:href="#m4a98a8ce39" y="365.09886"/>
      </g>
     </g>
     <g id="text_7">
      <!-- $3000$ -->
      <defs>
       <path d="M 26.09375 33 
C 37.296875 33 37.296875 22.71875 37.296875 17.984375 
C 37.296875 13.53125 37.296875 3.0625 26.5 3.0625 
C 24.40625 3.0625 17.796875 3.0625 13 6.625 
C 17.296875 7.515625 18.796875 10.59375 18.796875 13.5625 
C 18.796875 17.625 15.90625 20.5 11.796875 20.5 
C 7.59375 20.5 4.703125 17.625 4.703125 13.46875 
C 4.703125 4.34375 14.703125 -1 27 -1 
C 43.5 -1 51.40625 8.015625 51.40625 17.921875 
C 51.40625 22.796875 48.90625 32.203125 33.40625 34.875 
C 42.203125 37.59375 48.296875 43.8125 48.296875 51.71875 
C 48.296875 59.25 41.09375 65.578125 27.203125 65.578125 
C 16 65.578125 7.796875 59.65625 7.796875 51.53125 
C 7.796875 46.515625 11.703125 44.90625 14.296875 44.90625 
C 17.203125 44.90625 20.703125 46.8125 20.703125 51.4375 
C 20.703125 53.765625 19.703125 57.171875 15 57.875 
C 19.203125 62 26 62 26.59375 62 
C 35.5 62 35.5 55.03125 35.5 52.015625 
C 35.5 48.984375 35.09375 44.328125 31.90625 40.203125 
C 29.296875 36.75 26.703125 36.5625 22.90625 36.5625 
C 21.703125 36.265625 19.703125 36.265625 19.296875 36.078125 
C 18.703125 35.78125 18.703125 35.078125 18.703125 34.6875 
C 18.703125 33 19.296875 33 21.296875 33 
z
" id="CMBX12-51"/>
      </defs>
      <g style="fill:#262626;" transform="translate(461.22827 387.09886)scale(0.18 -0.18)">
       <use transform="scale(0.996264)" xlink:href="#CMBX12-51"/>
       <use transform="translate(56.039851 0)scale(0.996264)" xlink:href="#CMBX12-48"/>
       <use transform="translate(112.079701 0)scale(0.996264)" xlink:href="#CMBX12-48"/>
       <use transform="translate(168.119552 0)scale(0.996264)" xlink:href="#CMBX12-48"/>
      </g>
     </g>
    </g>
    <g id="xtick_8">
     <g id="line2d_8">
      <g>
       <use style="fill:#262626;stroke:#262626;stroke-width:1.25;" x="546.488754" xlink:href="#m4a98a8ce39" y="365.09886"/>
      </g>
     </g>
     <g id="text_8">
      <!-- $3500$ -->
      <g style="fill:#262626;" transform="translate(526.238754 387.09886)scale(0.18 -0.18)">
       <use transform="scale(0.996264)" xlink:href="#CMBX12-51"/>
       <use transform="translate(56.039851 0)scale(0.996264)" xlink:href="#CMBX12-53"/>
       <use transform="translate(112.079701 0)scale(0.996264)" xlink:href="#CMBX12-48"/>
       <use transform="translate(168.119552 0)scale(0.996264)" xlink:href="#CMBX12-48"/>
      </g>
     </g>
    </g>
    <g id="xtick_9">
     <g id="line2d_9">
      <g>
       <use style="fill:#262626;stroke:#262626;stroke-width:1.25;" x="611.499237" xlink:href="#m4a98a8ce39" y="365.09886"/>
      </g>
     </g>
     <g id="text_9">
      <!-- $4000$ -->
      <defs>
       <path d="M 43.296875 15.71875 
L 53 15.71875 
L 53 20 
L 43.296875 20 
L 43.296875 62.609375 
C 43.296875 65.09375 43.203125 65.5 40.703125 65.5 
C 38.90625 65.5 38.703125 65.5 37.5 64 
L 3.09375 20 
L 3.09375 15.71875 
L 31.5 15.71875 
L 31.5 4.171875 
L 20.59375 4.171875 
L 20.59375 0 
C 23.5 0 33.40625 0 37 0 
C 40.40625 0 50.296875 0 53 -0.09375 
L 53 4.171875 
L 43.296875 4.171875 
z
M 32.40625 51.59375 
L 32.40625 20 
L 7.703125 20 
z
" id="CMBX12-52"/>
      </defs>
      <g style="fill:#262626;" transform="translate(591.249237 387.09886)scale(0.18 -0.18)">
       <use transform="scale(0.996264)" xlink:href="#CMBX12-52"/>
       <use transform="translate(56.039851 0)scale(0.996264)" xlink:href="#CMBX12-48"/>
       <use transform="translate(112.079701 0)scale(0.996264)" xlink:href="#CMBX12-48"/>
       <use transform="translate(168.119552 0)scale(0.996264)" xlink:href="#CMBX12-48"/>
      </g>
     </g>
    </g>
    <g id="text_10">
     <!-- \textbf{Frequency (Hz)} -->
     <defs>
      <path d="M 63 67.28125 
L 3.796875 67.28125 
L 3.796875 63 
L 14.40625 63 
L 14.40625 4.171875 
L 3.796875 4.171875 
L 3.796875 0 
C 6.703125 0 18.09375 0 21.796875 0 
C 27.09375 0 36 0 40.90625 0 
L 40.90625 4.171875 
L 27.59375 4.171875 
L 27.59375 31.71875 
L 33.09375 31.71875 
C 42.703125 31.71875 43.5 27.3125 43.5 20 
L 47.703125 20 
L 47.703125 47.53125 
L 43.5 47.53125 
C 43.5 40.328125 42.703125 36 33.09375 36 
L 27.59375 36 
L 27.59375 63 
L 41.90625 63 
C 57.796875 63 60.296875 55.875 61.703125 44.078125 
L 65.90625 44.078125 
z
" id="CMBX12-70"/>
      <path d="M 20.796875 22.046875 
C 20.796875 25.296875 21.5 41 33.203125 41 
C 31.796875 39.921875 31.09375 38.25 31.09375 36.5 
C 31.09375 32.484375 34.40625 30.8125 36.90625 30.8125 
C 39.40625 30.8125 42.703125 32.484375 42.703125 36.515625 
C 42.703125 41.53125 37.5 44.28125 32.703125 44.28125 
C 24.796875 44.28125 21.40625 37.515625 20 33.390625 
L 19.90625 33.390625 
L 19.90625 44 
L 3.5 44 
L 3.5 39.328125 
C 9.703125 39.328125 10.40625 39.328125 10.40625 35.46875 
L 10.40625 4.0625 
L 3.5 4.0625 
L 3.5 -0.203125 
C 5.796875 0 13.296875 0 16.09375 0 
C 19 0 27.09375 0 29.5 -0.203125 
L 29.5 4.0625 
L 20.796875 4.0625 
z
" id="CMBX12-114"/>
      <path d="M 45.203125 22 
C 47.5 22 48.09375 22 48.09375 24.484375 
C 48.09375 27.46875 47.40625 34.890625 42.796875 39.5625 
C 38.59375 43.71875 33 45 27.203125 45 
C 11.59375 45 3.09375 34.890625 3.09375 22.40625 
C 3.09375 8.515625 13.40625 -0.5 28.5 -0.5 
C 43.59375 -0.5 48.09375 10 48.09375 11.6875 
C 48.09375 13.171875 46.59375 13.171875 46 13.171875 
C 44.40625 13.171875 44.296875 12.875 43.703125 11.59375 
C 41.09375 5.15625 34.5 3.078125 29.703125 3.078125 
C 15.203125 3.078125 15.09375 16.453125 15.09375 22 
z
M 15.09375 24.890625 
C 15.296875 28.9375 15.40625 32.8125 17.5 36.375 
C 19.40625 39.546875 22.90625 41.71875 27.203125 41.71875 
C 37.90625 41.71875 38.796875 29.828125 38.90625 24.890625 
z
" id="CMBX12-101"/>
      <path d="M 52 44.578125 
L 48.296875 44.578125 
L 43 36.359375 
C 39.5 41.421875 34.59375 44.578125 28 44.578125 
C 14.203125 44.578125 3.796875 36.078125 3.796875 22.03125 
C 3.796875 7.890625 13.796875 -0.5 27 -0.5 
C 30.796875 -0.5 35.90625 0.296875 41.09375 5.15625 
L 41.09375 -14.921875 
L 34.203125 -14.921875 
L 34.203125 -19.1875 
C 36.5 -19 43.703125 -19 46.5 -19 
C 49.296875 -19 56.59375 -19 58.90625 -19.1875 
L 58.90625 -14.921875 
L 52 -14.921875 
z
M 41.59375 11.859375 
C 37.40625 4.046875 31.5 2.78125 28.203125 2.78125 
C 21.796875 2.78125 15.796875 8.609375 15.796875 21.9375 
C 15.796875 36.359375 23.40625 41 29.296875 41 
C 37.09375 41 41.59375 33 41.59375 28.453125 
z
" id="CMBX12-113"/>
      <path d="M 35.296875 44.671875 
L 35.296875 40 
C 41.5 40 42.203125 40 42.203125 36.125 
L 42.203125 16.5 
C 42.203125 8.890625 37.703125 2.78125 29.90625 2.78125 
C 22.40625 2.78125 22 5.265625 22 10.6875 
L 22 44.671875 
L 4.203125 44.671875 
L 4.203125 40 
C 10.40625 40 11.09375 40 11.09375 36.125 
L 11.09375 12.40625 
C 11.09375 2.390625 17.796875 -0.5 28.5 -0.5 
C 30.90625 -0.5 38.296875 -0.5 42.59375 7.75 
L 42.703125 7.75 
L 42.703125 0 
L 60 0 
L 60 4.5625 
C 53.796875 4.5625 53.09375 4.5625 53.09375 8.4375 
L 53.09375 44.671875 
z
" id="CMBX12-117"/>
      <path d="M 53.09375 30.0625 
C 53.09375 39.453125 49 44.28125 38 44.28125 
C 30.796875 44.28125 24.59375 40.859375 21.203125 33.484375 
L 21.09375 33.484375 
L 21.09375 44 
L 4.203125 44 
L 4.203125 39.328125 
C 10.40625 39.328125 11.09375 39.328125 11.09375 35.46875 
L 11.09375 4.0625 
L 4.203125 4.0625 
L 4.203125 -0.203125 
C 6.5 0 13.703125 0 16.5 0 
C 19.296875 0 26.59375 0 28.90625 -0.203125 
L 28.90625 4.0625 
L 22 4.0625 
L 22 25.109375 
C 22 35.765625 30 41 36.40625 41 
C 40.09375 41 42.203125 38.640625 42.203125 31.140625 
L 42.203125 4.0625 
L 35.296875 4.0625 
L 35.296875 -0.203125 
C 37.59375 0 44.796875 0 47.59375 0 
C 50.40625 0 57.703125 0 60 -0.203125 
L 60 4.0625 
L 53.09375 4.0625 
z
" id="CMBX12-110"/>
      <path d="M 46.796875 11.765625 
C 46.796875 12.953125 45.703125 12.953125 44.703125 12.953125 
C 43.09375 12.953125 43 12.859375 42.5 11.671875 
C 41.796875 9.765625 39.09375 3.078125 29.90625 3.078125 
C 15.796875 3.078125 15.796875 18.21875 15.796875 22.703125 
C 15.796875 28.578125 15.90625 41.625 29 41.625 
C 29.703125 41.625 35.59375 41.625 35.59375 41.125 
C 35.59375 41 35.5 40.90625 35.296875 40.8125 
C 35 40.515625 33.703125 39 33.703125 36.46875 
C 33.703125 32.25 37.09375 30.53125 39.59375 30.53125 
C 41.703125 30.53125 45.5 31.859375 45.5 36.65625 
C 45.5 45 34 45 28.59375 45 
C 10.796875 45 3.796875 33.515625 3.796875 22.09375 
C 3.796875 8.625 13.296875 -0.5 28 -0.5 
C 43.703125 -0.5 46.796875 11.0625 46.796875 11.765625 
z
" id="CMBX12-99"/>
      <path d="M 49.5 37.828125 
C 50.09375 39.203125 50.5 40 56.90625 40 
L 56.90625 44.171875 
C 53.5 44.171875 53.09375 44.171875 49 44.171875 
C 46.296875 44.171875 46.09375 44.171875 40.40625 44.171875 
L 40.40625 40 
C 40.5 40 45.203125 40 45.203125 38.71875 
C 45.203125 38.421875 44.90625 37.828125 44.796875 37.53125 
L 33.09375 12.578125 
L 20.296875 40 
L 25.796875 40 
L 25.796875 44.265625 
C 23.40625 44.171875 16.59375 44.171875 13.796875 44.171875 
C 10.90625 44.171875 5 44.171875 2.40625 44.265625 
L 2.40625 40 
L 8.796875 40 
L 27.296875 0.3125 
C 26.796875 -0.875 25.40625 -3.75 24.90625 -4.9375 
C 22.796875 -9.390625 19.59375 -16.21875 12.59375 -16.21875 
C 12.203125 -16.21875 11 -16.21875 9.90625 -15.625 
C 10.09375 -15.515625 13.09375 -14.328125 13.09375 -10.5625 
C 13.09375 -7.3125 10.703125 -5.234375 7.703125 -5.234375 
C 4.59375 -5.234375 2.203125 -7.328125 2.203125 -10.6875 
C 2.203125 -15.34375 6.59375 -19.5 12.59375 -19.5 
C 20.796875 -19.5 26.203125 -12.171875 28.203125 -7.8125 
z
" id="CMBX12-121"/>
      <path d="M 37.40625 -23.8125 
C 37.40625 -23.40625 37.40625 -23.203125 35.5 -21.421875 
C 24.296875 -10.296875 20 7.203125 20 24.6875 
C 20 44.28125 24.90625 60.390625 36.09375 71.609375 
C 37.296875 72.796875 37.40625 72.90625 37.40625 73.296875 
C 37.40625 74.5 36.203125 74.5 35.703125 74.5 
C 34.796875 74.5 34.59375 74.5 32 72.40625 
C 17.59375 60.984375 10.796875 42.6875 10.796875 24.8125 
C 10.796875 6.515625 17.703125 -11.28125 31.90625 -22.8125 
C 34.5 -25 34.703125 -25 35.703125 -25 
C 36.203125 -25 37.40625 -25 37.40625 -23.8125 
z
" id="CMBX12-40"/>
      <path d="M 73.5 63.828125 
L 84.09375 63.828125 
L 84.09375 68 
C 81.203125 68 70.5 68 66.90625 68 
C 63.296875 68 52.59375 68 49.703125 68 
L 49.703125 63.828125 
L 60.296875 63.828125 
L 60.296875 37.265625 
L 27.59375 37.265625 
L 27.59375 63.828125 
L 38.203125 63.828125 
L 38.203125 68 
C 35.296875 68 24.59375 68 21 68 
C 17.40625 68 6.703125 68 3.796875 68 
L 3.796875 63.828125 
L 14.40625 63.828125 
L 14.40625 4.171875 
L 3.796875 4.171875 
L 3.796875 0 
C 6.703125 0 17.40625 0 21 0 
C 24.59375 0 35.296875 0 38.203125 0 
L 38.203125 4.171875 
L 27.59375 4.171875 
L 27.59375 33 
L 60.296875 33 
L 60.296875 4.171875 
L 49.703125 4.171875 
L 49.703125 0 
C 52.59375 0 63.296875 0 66.90625 0 
C 70.5 0 81.203125 0 84.09375 0 
L 84.09375 4.171875 
L 73.5 4.171875 
z
" id="CMBX12-72"/>
      <path d="M 44 40.234375 
C 44.90625 41.3125 44.90625 41.515625 44.90625 42.109375 
C 44.90625 44 43.90625 44 42 44 
L 5.796875 44 
L 4.703125 26.953125 
L 8.90625 26.953125 
C 9.5 36.359375 11.703125 40.71875 22.796875 40.71875 
L 31.796875 40.71875 
L 4 3.953125 
C 3.09375 2.875 3.09375 2.6875 3.09375 1.984375 
C 3.09375 0 4 0 6 0 
L 43.5 0 
L 45.203125 19.625 
L 41 19.625 
C 40.203125 9.125 38 3.578125 25.40625 3.578125 
L 16.296875 3.578125 
z
" id="CMBX12-122"/>
      <path d="M 32.796875 24.703125 
C 32.796875 42.984375 25.90625 60.78125 11.703125 72.3125 
C 9.09375 74.5 8.90625 74.5 7.90625 74.5 
C 7.40625 74.5 6.203125 74.5 6.203125 73.3125 
C 6.203125 72.921875 6.203125 72.71875 8.09375 70.9375 
C 19.296875 59.796875 23.59375 42.3125 23.59375 24.8125 
C 23.59375 5.21875 18.703125 -10.875 7.5 -22.109375 
C 6.296875 -23.3125 6.203125 -23.40625 6.203125 -23.8125 
C 6.203125 -25 7.40625 -25 7.90625 -25 
C 8.796875 -25 9 -25 11.59375 -22.90625 
C 26 -11.484375 32.796875 6.8125 32.796875 24.703125 
z
" id="CMBX12-41"/>
     </defs>
     <g style="fill:#262626;" transform="translate(273.36496 412.1)scale(0.22 -0.22)">
      <use transform="translate(0 -0.0934)scale(0.996264)" xlink:href="#CMBX12-70"/>
      <use transform="translate(61.113445 -0.0934)scale(0.996264)" xlink:href="#CMBX12-114"/>
      <use transform="translate(106.890953 -0.0934)scale(0.996264)" xlink:href="#CMBX12-101"/>
      <use transform="translate(158.03022 -0.0934)scale(0.996264)" xlink:href="#CMBX12-113"/>
      <use transform="translate(217.183396 -0.0934)scale(0.996264)" xlink:href="#CMBX12-117"/>
      <use transform="translate(279.449896 -0.0934)scale(0.996264)" xlink:href="#CMBX12-101"/>
      <use transform="translate(330.589163 -0.0934)scale(0.996264)" xlink:href="#CMBX12-110"/>
      <use transform="translate(392.855664 -0.0934)scale(0.996264)" xlink:href="#CMBX12-99"/>
      <use transform="translate(442.668864 -0.0934)scale(0.996264)" xlink:href="#CMBX12-121"/>
      <use transform="translate(539.18194 -0.0934)scale(0.996264)" xlink:href="#CMBX12-40"/>
      <use transform="translate(582.768491 -0.0934)scale(0.996264)" xlink:href="#CMBX12-72"/>
      <use transform="translate(670.402966 -0.0934)scale(0.996264)" xlink:href="#CMBX12-122"/>
      <use transform="translate(720.216166 -0.0934)scale(0.996264)" xlink:href="#CMBX12-41"/>
     </g>
    </g>
   </g>
   <g id="matplotlib.axis_2">
    <g id="ytick_1">
     <g id="line2d_10">
      <defs>
       <path d="M 0 0 
L -6 0 
" id="m21e6474a0c" style="stroke:#262626;stroke-width:1.25;"/>
      </defs>
      <g>
       <use style="fill:#262626;stroke:#262626;stroke-width:1.25;" x="91.41537" xlink:href="#m21e6474a0c" y="325.477179"/>
      </g>
     </g>
     <g id="text_11">
      <!-- $10^{-7}$ -->
      <defs>
       <path d="M 75.203125 22 
C 76.703125 22 79.703125 22 79.703125 25 
C 79.703125 28.09375 76.796875 28.09375 75.203125 28.09375 
L 14.09375 28.09375 
C 12.59375 28.09375 9.59375 28.09375 9.59375 25.09375 
C 9.59375 22 12.5 22 14.09375 22 
z
" id="CMBSY10-0"/>
       <path d="M 53.59375 60.390625 
C 54.5 61.390625 54.5 61.609375 54.5 64.921875 
L 33.40625 64.921875 
C 32.703125 64.921875 17.796875 64.921875 16.59375 65.125 
C 14.09375 65.515625 13.90625 66.5625 13.703125 67.53125 
L 9.5 67.53125 
L 6.203125 43 
L 10.40625 43 
C 10.5 44.015625 11.296875 51.25 13 52.390625 
C 13.90625 53 22.203125 53 23.796875 53 
L 41.90625 53 
C 30.296875 38.859375 29 37.25 25.90625 31.328125 
C 20 19.671875 19.09375 10.640625 19.09375 5.71875 
C 19.09375 -1 24.203125 -1 25 -1 
C 27.5 -1 28.90625 0.296875 29.59375 1 
C 30.90625 2.625 30.90625 3.828125 30.90625 8.25 
C 30.90625 23.609375 32.296875 34.875 38.59375 42.40625 
z
" id="CMBX12-55"/>
      </defs>
      <g style="fill:#262626;" transform="translate(42.80802 331.727179)scale(0.18 -0.18)">
       <use transform="scale(0.996264)" xlink:href="#CMBX12-49"/>
       <use transform="translate(56.039851 0)scale(0.996264)" xlink:href="#CMBX12-48"/>
       <use transform="translate(112.079701 36.153639)scale(0.697382)" xlink:href="#CMBSY10-0"/>
       <use transform="translate(174.456293 36.153639)scale(0.697382)" xlink:href="#CMBX12-55"/>
      </g>
     </g>
    </g>
    <g id="ytick_2">
     <g id="line2d_11">
      <g>
       <use style="fill:#262626;stroke:#262626;stroke-width:1.25;" x="91.41537" xlink:href="#m21e6474a0c" y="245.01885"/>
      </g>
     </g>
     <g id="text_12">
      <!-- $10^{-6}$ -->
      <defs>
       <path d="M 17.40625 36.25 
C 17.40625 42.328125 17.703125 48.53125 20.5 53.90625 
C 22.703125 58.109375 27.796875 62 34.296875 62 
C 36.203125 62 39.796875 61.703125 42.203125 59.203125 
C 38.40625 58.8125 36.796875 56.015625 36.796875 53.3125 
C 36.796875 49.703125 39.5 47.40625 42.703125 47.40625 
C 45.296875 47.40625 48.59375 49.109375 48.59375 53.5 
C 48.59375 59.484375 44.59375 65.578125 34.09375 65.578125 
C 21.59375 65.578125 4.703125 57.796875 4.703125 31.796875 
C 4.703125 25.109375 4.703125 -1 28.40625 -1 
C 41.59375 -1 51.40625 6.765625 51.40625 20.703125 
C 51.40625 34.640625 41.703125 42 29.796875 42 
C 27.796875 42 21.40625 42 17.40625 33.546875 
z
M 28.296875 2.96875 
C 21.90625 2.96875 19.40625 8.34375 19 9.140625 
C 17.59375 12.4375 17.59375 20.40625 17.59375 21.296875 
C 17.59375 33.546875 22.90625 38.734375 28.796875 38.734375 
C 38.703125 38.734375 38.703125 30.765625 38.703125 20.796875 
C 38.703125 10.9375 38.703125 2.96875 28.296875 2.96875 
z
" id="CMBX12-54"/>
      </defs>
      <g style="fill:#262626;" transform="translate(42.80802 251.26885)scale(0.18 -0.18)">
       <use transform="scale(0.996264)" xlink:href="#CMBX12-49"/>
       <use transform="translate(56.039851 0)scale(0.996264)" xlink:href="#CMBX12-48"/>
       <use transform="translate(112.079701 36.153639)scale(0.697382)" xlink:href="#CMBSY10-0"/>
       <use transform="translate(174.456293 36.153639)scale(0.697382)" xlink:href="#CMBX12-54"/>
      </g>
     </g>
    </g>
    <g id="ytick_3">
     <g id="line2d_12">
      <g>
       <use style="fill:#262626;stroke:#262626;stroke-width:1.25;" x="91.41537" xlink:href="#m21e6474a0c" y="164.560521"/>
      </g>
     </g>
     <g id="text_13">
      <!-- $10^{-5}$ -->
      <g style="fill:#262626;" transform="translate(42.80802 170.810521)scale(0.18 -0.18)">
       <use transform="scale(0.996264)" xlink:href="#CMBX12-49"/>
       <use transform="translate(56.039851 0)scale(0.996264)" xlink:href="#CMBX12-48"/>
       <use transform="translate(112.079701 36.153639)scale(0.697382)" xlink:href="#CMBSY10-0"/>
       <use transform="translate(174.456293 36.153639)scale(0.697382)" xlink:href="#CMBX12-53"/>
      </g>
     </g>
    </g>
    <g id="ytick_4">
     <g id="line2d_13">
      <g>
       <use style="fill:#262626;stroke:#262626;stroke-width:1.25;" x="91.41537" xlink:href="#m21e6474a0c" y="84.102192"/>
      </g>
     </g>
     <g id="text_14">
      <!-- $10^{-4}$ -->
      <g style="fill:#262626;" transform="translate(42.80802 90.352192)scale(0.18 -0.18)">
       <use transform="scale(0.996264)" xlink:href="#CMBX12-49"/>
       <use transform="translate(56.039851 0)scale(0.996264)" xlink:href="#CMBX12-48"/>
       <use transform="translate(112.079701 36.153639)scale(0.697382)" xlink:href="#CMBSY10-0"/>
       <use transform="translate(174.456293 36.153639)scale(0.697382)" xlink:href="#CMBX12-52"/>
      </g>
     </g>
    </g>
    <g id="ytick_5">
     <g id="line2d_14">
      <defs>
       <path d="M 0 0 
L -4 0 
" id="m6bd4fa1bc8" style="stroke:#262626;"/>
      </defs>
      <g>
       <use style="fill:#262626;stroke:#262626;" x="91.41537" xlink:href="#m6bd4fa1bc8" y="357.494767"/>
      </g>
     </g>
    </g>
    <g id="ytick_6">
     <g id="line2d_15">
      <g>
       <use style="fill:#262626;stroke:#262626;" x="91.41537" xlink:href="#m6bd4fa1bc8" y="349.69755"/>
      </g>
     </g>
    </g>
    <g id="ytick_7">
     <g id="line2d_16">
      <g>
       <use style="fill:#262626;stroke:#262626;" x="91.41537" xlink:href="#m6bd4fa1bc8" y="343.326759"/>
      </g>
     </g>
    </g>
    <g id="ytick_8">
     <g id="line2d_17">
      <g>
       <use style="fill:#262626;stroke:#262626;" x="91.41537" xlink:href="#m6bd4fa1bc8" y="337.940332"/>
      </g>
     </g>
    </g>
    <g id="ytick_9">
     <g id="line2d_18">
      <g>
       <use style="fill:#262626;stroke:#262626;" x="91.41537" xlink:href="#m6bd4fa1bc8" y="333.274397"/>
      </g>
     </g>
    </g>
    <g id="ytick_10">
     <g id="line2d_19">
      <g>
       <use style="fill:#262626;stroke:#262626;" x="91.41537" xlink:href="#m6bd4fa1bc8" y="329.15875"/>
      </g>
     </g>
    </g>
    <g id="ytick_11">
     <g id="line2d_20">
      <g>
       <use style="fill:#262626;stroke:#262626;" x="91.41537" xlink:href="#m6bd4fa1bc8" y="301.256809"/>
      </g>
     </g>
    </g>
    <g id="ytick_12">
     <g id="line2d_21">
      <g>
       <use style="fill:#262626;stroke:#262626;" x="91.41537" xlink:href="#m6bd4fa1bc8" y="287.0888"/>
      </g>
     </g>
    </g>
    <g id="ytick_13">
     <g id="line2d_22">
      <g>
       <use style="fill:#262626;stroke:#262626;" x="91.41537" xlink:href="#m6bd4fa1bc8" y="277.036438"/>
      </g>
     </g>
    </g>
    <g id="ytick_14">
     <g id="line2d_23">
      <g>
       <use style="fill:#262626;stroke:#262626;" x="91.41537" xlink:href="#m6bd4fa1bc8" y="269.239221"/>
      </g>
     </g>
    </g>
    <g id="ytick_15">
     <g id="line2d_24">
      <g>
       <use style="fill:#262626;stroke:#262626;" x="91.41537" xlink:href="#m6bd4fa1bc8" y="262.86843"/>
      </g>
     </g>
    </g>
    <g id="ytick_16">
     <g id="line2d_25">
      <g>
       <use style="fill:#262626;stroke:#262626;" x="91.41537" xlink:href="#m6bd4fa1bc8" y="257.482003"/>
      </g>
     </g>
    </g>
    <g id="ytick_17">
     <g id="line2d_26">
      <g>
       <use style="fill:#262626;stroke:#262626;" x="91.41537" xlink:href="#m6bd4fa1bc8" y="252.816068"/>
      </g>
     </g>
    </g>
    <g id="ytick_18">
     <g id="line2d_27">
      <g>
       <use style="fill:#262626;stroke:#262626;" x="91.41537" xlink:href="#m6bd4fa1bc8" y="248.700421"/>
      </g>
     </g>
    </g>
    <g id="ytick_19">
     <g id="line2d_28">
      <g>
       <use style="fill:#262626;stroke:#262626;" x="91.41537" xlink:href="#m6bd4fa1bc8" y="220.79848"/>
      </g>
     </g>
    </g>
    <g id="ytick_20">
     <g id="line2d_29">
      <g>
       <use style="fill:#262626;stroke:#262626;" x="91.41537" xlink:href="#m6bd4fa1bc8" y="206.630471"/>
      </g>
     </g>
    </g>
    <g id="ytick_21">
     <g id="line2d_30">
      <g>
       <use style="fill:#262626;stroke:#262626;" x="91.41537" xlink:href="#m6bd4fa1bc8" y="196.578109"/>
      </g>
     </g>
    </g>
    <g id="ytick_22">
     <g id="line2d_31">
      <g>
       <use style="fill:#262626;stroke:#262626;" x="91.41537" xlink:href="#m6bd4fa1bc8" y="188.780891"/>
      </g>
     </g>
    </g>
    <g id="ytick_23">
     <g id="line2d_32">
      <g>
       <use style="fill:#262626;stroke:#262626;" x="91.41537" xlink:href="#m6bd4fa1bc8" y="182.410101"/>
      </g>
     </g>
    </g>
    <g id="ytick_24">
     <g id="line2d_33">
      <g>
       <use style="fill:#262626;stroke:#262626;" x="91.41537" xlink:href="#m6bd4fa1bc8" y="177.023674"/>
      </g>
     </g>
    </g>
    <g id="ytick_25">
     <g id="line2d_34">
      <g>
       <use style="fill:#262626;stroke:#262626;" x="91.41537" xlink:href="#m6bd4fa1bc8" y="172.357739"/>
      </g>
     </g>
    </g>
    <g id="ytick_26">
     <g id="line2d_35">
      <g>
       <use style="fill:#262626;stroke:#262626;" x="91.41537" xlink:href="#m6bd4fa1bc8" y="168.242092"/>
      </g>
     </g>
    </g>
    <g id="ytick_27">
     <g id="line2d_36">
      <g>
       <use style="fill:#262626;stroke:#262626;" x="91.41537" xlink:href="#m6bd4fa1bc8" y="140.34015"/>
      </g>
     </g>
    </g>
    <g id="ytick_28">
     <g id="line2d_37">
      <g>
       <use style="fill:#262626;stroke:#262626;" x="91.41537" xlink:href="#m6bd4fa1bc8" y="126.172142"/>
      </g>
     </g>
    </g>
    <g id="ytick_29">
     <g id="line2d_38">
      <g>
       <use style="fill:#262626;stroke:#262626;" x="91.41537" xlink:href="#m6bd4fa1bc8" y="116.11978"/>
      </g>
     </g>
    </g>
    <g id="ytick_30">
     <g id="line2d_39">
      <g>
       <use style="fill:#262626;stroke:#262626;" x="91.41537" xlink:href="#m6bd4fa1bc8" y="108.322562"/>
      </g>
     </g>
    </g>
    <g id="ytick_31">
     <g id="line2d_40">
      <g>
       <use style="fill:#262626;stroke:#262626;" x="91.41537" xlink:href="#m6bd4fa1bc8" y="101.951771"/>
      </g>
     </g>
    </g>
    <g id="ytick_32">
     <g id="line2d_41">
      <g>
       <use style="fill:#262626;stroke:#262626;" x="91.41537" xlink:href="#m6bd4fa1bc8" y="96.565345"/>
      </g>
     </g>
    </g>
    <g id="ytick_33">
     <g id="line2d_42">
      <g>
       <use style="fill:#262626;stroke:#262626;" x="91.41537" xlink:href="#m6bd4fa1bc8" y="91.899409"/>
      </g>
     </g>
    </g>
    <g id="ytick_34">
     <g id="line2d_43">
      <g>
       <use style="fill:#262626;stroke:#262626;" x="91.41537" xlink:href="#m6bd4fa1bc8" y="87.783763"/>
      </g>
     </g>
    </g>
    <g id="ytick_35">
     <g id="line2d_44">
      <g>
       <use style="fill:#262626;stroke:#262626;" x="91.41537" xlink:href="#m6bd4fa1bc8" y="59.881821"/>
      </g>
     </g>
    </g>
    <g id="ytick_36">
     <g id="line2d_45">
      <g>
       <use style="fill:#262626;stroke:#262626;" x="91.41537" xlink:href="#m6bd4fa1bc8" y="45.713813"/>
      </g>
     </g>
    </g>
    <g id="ytick_37">
     <g id="line2d_46">
      <g>
       <use style="fill:#262626;stroke:#262626;" x="91.41537" xlink:href="#m6bd4fa1bc8" y="35.661451"/>
      </g>
     </g>
    </g>
    <g id="ytick_38">
     <g id="line2d_47">
      <g>
       <use style="fill:#262626;stroke:#262626;" x="91.41537" xlink:href="#m6bd4fa1bc8" y="27.864233"/>
      </g>
     </g>
    </g>
    <g id="ytick_39">
     <g id="line2d_48">
      <g>
       <use style="fill:#262626;stroke:#262626;" x="91.41537" xlink:href="#m6bd4fa1bc8" y="21.493442"/>
      </g>
     </g>
    </g>
    <g id="ytick_40">
     <g id="line2d_49">
      <g>
       <use style="fill:#262626;stroke:#262626;" x="91.41537" xlink:href="#m6bd4fa1bc8" y="16.107015"/>
      </g>
     </g>
    </g>
    <g id="text_15">
     <!-- \textbf{PSD $(\mathrm{V}^2/\mathrm{Hz})$} -->
     <defs>
      <path d="M 27.59375 30.21875 
L 44.59375 30.21875 
C 61.296875 30.21875 70.59375 38.65625 70.59375 48.875 
C 70.59375 59.5625 61.09375 68 44.59375 68 
L 3.796875 68 
L 3.796875 63.71875 
L 14.40625 63.71875 
L 14.40625 4.171875 
L 3.796875 4.171875 
L 3.796875 0 
C 6.703125 0 17.40625 0 21 0 
C 24.59375 0 35.296875 0 38.203125 0 
L 38.203125 4.171875 
L 27.59375 4.171875 
z
M 41 63.71875 
C 56.5 63.71875 56.5 55.59375 56.5 48.859375 
C 56.5 42.328125 56.5 34 41 34 
L 27.09375 34 
L 27.09375 63.71875 
z
" id="CMBX12-80"/>
      <path d="M 25.40625 43.46875 
C 15.5 45.625 15.203125 52.75 15.203125 54.140625 
C 15.203125 59.171875 18.5 65.03125 28.203125 65.03125 
C 37.90625 65.03125 46.59375 60.359375 48.703125 47.34375 
C 49 45.25 49 45.25 50.90625 45.25 
C 53 45.25 53 45.546875 53 47.8125 
L 53 66.4375 
C 53 68.3125 53 69.015625 51.5 69.015625 
C 50.796875 69.015625 50.5 68.921875 49.59375 67.921875 
L 45.296875 63.046875 
C 42.796875 65.140625 37.796875 69 28.09375 69 
C 13.796875 69 6.203125 60.09375 6.203125 49.3125 
C 6.203125 42.6875 9.796875 38.03125 11.203125 36.640625 
C 16.40625 31.5 19.203125 30.90625 29.59375 28.625 
C 39.59375 26.453125 40.796875 26.25 43 24.1875 
C 44.296875 22.890625 47.203125 20.125 47.203125 15.078125 
C 47.203125 10.8125 45.09375 3 33.90625 3 
C 25.09375 3 11.203125 5.96875 10.40625 20.421875 
C 10.296875 22.203125 10.296875 22.5 8.296875 22.5 
C 6.203125 22.5 6.203125 22.203125 6.203125 19.921875 
L 6.203125 1.296875 
C 6.203125 -0.59375 6.203125 -1.28125 7.703125 -1.28125 
C 8.40625 -1.28125 8.5 -1.1875 9.5 -0.296875 
C 10.59375 0.796875 11.5 2.09375 14 4.578125 
C 19.796875 0.015625 28 -1.265625 34 -1.265625 
C 49.59375 -1.265625 56.203125 9.21875 56.203125 19.71875 
C 56.203125 29 50 37.90625 39.09375 40.375 
z
" id="CMBX12-83"/>
      <path d="M 3.796875 68.28125 
L 3.796875 64 
L 14.40625 64 
L 14.40625 4.265625 
L 3.796875 4.265625 
L 3.796875 0 
L 45.90625 0 
C 65.09375 0 79.90625 12.234375 79.90625 33.546875 
C 79.90625 56.046875 64.703125 68.28125 45.90625 68.28125 
z
M 27.09375 4.265625 
L 27.09375 64 
L 42.09375 64 
C 50.796875 64 57.796875 60.625 61.5 55.4375 
C 64.40625 51.359375 66.296875 46.484375 66.296875 33.640625 
C 66.296875 21.984375 64.796875 16.828125 61.296875 12.140625 
C 57.796875 7.546875 51.09375 4.265625 42.09375 4.265625 
z
" id="CMBX12-68"/>
      <path d="M 72.40625 61.734375 
C 73 63.015625 73.40625 64 80.796875 64 
L 82.5 64 
L 82.5 68.171875 
C 79.40625 68.171875 72.203125 68.171875 71.40625 68.171875 
C 68.59375 68.171875 61.5 68.171875 59.203125 68.28125 
L 59.203125 64 
C 61.40625 64 65.09375 64 67.90625 62.90625 
L 67.40625 61.53125 
L 46.90625 15.234375 
L 25.296875 64 
L 34.59375 64 
L 34.59375 68.171875 
C 31.40625 68.171875 21.796875 68.171875 18 68.171875 
C 14.796875 68.171875 4.90625 68.171875 2.40625 68.28125 
L 2.40625 64 
L 11.40625 64 
L 39 1.5625 
C 39.90625 -0.40625 40.796875 -0.5 42.40625 -0.5 
C 44 -0.5 45 -0.5 45.90625 1.5625 
z
" id="CMBX12-86"/>
      <path d="M 50.296875 69.234375 
C 51 70.828125 51 71.015625 51 71.421875 
C 51 73.3125 49.40625 74.5 48 74.5 
C 45.90625 74.5 45.296875 73.015625 44.703125 71.515625 
L 7.09375 -19.71875 
C 6.40625 -21.3125 6.40625 -21.515625 6.40625 -21.90625 
C 6.40625 -23.796875 8 -25 9.40625 -25 
C 11.5 -25 12.203125 -23.296875 12.703125 -22.109375 
z
" id="CMMIB10-61"/>
     </defs>
     <g style="fill:#262626;" transform="translate(32.30802 263.91203)rotate(-90)scale(0.22 -0.22)">
      <use transform="translate(0 -0.0934)scale(0.996264)" xlink:href="#CMBX12-80"/>
      <use transform="translate(76.564811 -0.0934)scale(0.996264)" xlink:href="#CMBX12-83"/>
      <use transform="translate(138.831311 -0.0934)scale(0.996264)" xlink:href="#CMBX12-68"/>
      <use transform="translate(262.095997 -0.0934)scale(0.996264)" xlink:href="#CMBX12-40"/>
      <use transform="translate(305.682548 -0.0934)scale(0.996264)" xlink:href="#CMBX12-86"/>
      <use transform="translate(391.875605 36.060239)scale(0.697382)" xlink:href="#CMBX12-50"/>
      <use transform="translate(431.60145 -0.0934)scale(0.996264)" xlink:href="#CMMIB10-61"/>
      <use transform="translate(488.886327 -0.0934)scale(0.996264)" xlink:href="#CMBX12-72"/>
      <use transform="translate(576.520802 -0.0934)scale(0.996264)" xlink:href="#CMBX12-122"/>
      <use transform="translate(626.334002 -0.0934)scale(0.996264)" xlink:href="#CMBX12-41"/>
     </g>
    </g>
   </g>
   <g id="line2d_50">
    <path clip-path="url(#pa8cb479fc9)" d="M 91.41537 328.022634 
L 91.935454 295.355225 
L 92.455538 315.943073 
L 92.975622 295.741384 
L 94.015789 285.616674 
L 94.535873 315.34985 
L 95.055957 319.643491 
L 95.576041 301.883754 
L 96.096125 300.398165 
L 96.616209 312.994439 
L 97.136293 287.494548 
L 97.656376 291.667409 
L 98.17646 324.192024 
L 98.696544 313.97152 
L 99.216628 297.574534 
L 99.736712 304.230889 
L 100.256796 303.808403 
L 100.77688 309.255053 
L 101.296963 291.741534 
L 101.817047 290.550303 
L 102.337131 317.031629 
L 102.857215 310.644973 
L 103.377299 294.115077 
L 103.897383 296.601324 
L 104.417467 314.023895 
L 104.937551 310.048436 
L 105.457634 296.597397 
L 105.977718 300.342219 
L 106.497802 302.921978 
L 107.017886 328.43957 
L 107.53797 316.859131 
L 108.058054 308.171704 
L 108.578138 288.551786 
L 109.098221 318.109269 
L 109.618305 327.618832 
L 110.138389 311.078055 
L 110.658473 290.331022 
L 111.178557 291.532501 
L 111.698641 297.090637 
L 112.218725 293.751432 
L 112.738809 288.193298 
L 113.258892 295.15833 
L 113.778976 305.295512 
L 114.29906 323.492431 
L 114.819144 316.669414 
L 115.339228 323.113693 
L 115.859312 321.987244 
L 116.379396 303.26333 
L 116.899479 298.064199 
L 117.419563 281.104513 
L 117.939647 293.874335 
L 118.459731 291.340466 
L 118.979815 297.393778 
L 119.499899 291.232197 
L 120.019983 305.800113 
L 120.540067 302.587963 
L 121.06015 283.430291 
L 121.580234 302.065333 
L 122.100318 308.482656 
L 122.620402 311.447553 
L 123.140486 327.667747 
L 123.66057 314.855933 
L 124.180654 282.236207 
L 124.700738 290.972996 
L 125.220821 295.445419 
L 125.740905 266.830846 
L 126.781073 309.572439 
L 127.821241 303.176272 
L 128.341325 300.61927 
L 128.861408 302.413618 
L 129.381492 297.591291 
L 129.901576 295.427191 
L 130.42166 300.877452 
L 130.941744 298.782451 
L 131.461828 290.582766 
L 131.981912 293.97263 
L 132.501996 284.847706 
L 133.022079 281.276053 
L 133.542163 290.263473 
L 134.582331 293.716851 
L 135.102415 294.664326 
L 135.622499 287.498333 
L 136.142583 297.225 
L 136.662666 303.672101 
L 137.18275 291.729289 
L 137.702834 296.314754 
L 138.222918 305.746572 
L 138.743002 296.808457 
L 139.263086 300.250581 
L 139.78317 323.185941 
L 140.303254 317.151349 
L 140.823337 304.108554 
L 141.343421 305.701964 
L 141.863505 302.238921 
L 142.383589 292.72342 
L 142.903673 297.860413 
L 143.423757 242.46559 
L 144.463924 17.730225 
L 144.984008 26.028429 
L 145.504092 155.705333 
L 146.024176 257.369473 
L 146.54426 322.924782 
L 147.064344 323.710337 
L 147.584428 291.206367 
L 148.104512 323.872597 
L 148.624595 304.182124 
L 149.144679 301.222984 
L 149.664763 313.14846 
L 150.184847 288.94931 
L 150.704931 276.398716 
L 151.225015 298.296218 
L 151.745099 305.675022 
L 152.265182 316.700242 
L 152.785266 294.888381 
L 153.30535 302.924584 
L 153.825434 301.028072 
L 154.345518 292.390741 
L 154.865602 300.084279 
L 155.385686 295.887324 
L 155.90577 306.206183 
L 156.425853 296.800155 
L 156.945937 299.212685 
L 157.466021 311.604231 
L 157.986105 319.490271 
L 158.506189 316.390847 
L 159.026273 296.819654 
L 159.546357 300.525054 
L 160.06644 309.422849 
L 160.586524 326.405909 
L 161.106608 296.247594 
L 161.626692 294.311095 
L 162.146776 321.774138 
L 162.66686 312.096986 
L 163.186944 313.401952 
L 163.707028 319.416864 
L 164.227111 348.476903 
L 164.747195 308.847198 
L 165.267279 297.141562 
L 165.787363 315.526123 
L 166.307447 322.778558 
L 166.827531 302.410972 
L 167.347615 297.756708 
L 167.867698 303.793963 
L 168.387782 302.030212 
L 168.907866 292.025009 
L 169.42795 302.234342 
L 169.948034 295.751326 
L 170.468118 285.103308 
L 172.028369 309.41129 
L 172.548453 305.875328 
L 173.068537 289.211243 
L 173.588621 294.557568 
L 174.108705 312.305279 
L 174.628789 321.844608 
L 175.148873 316.913639 
L 175.668956 286.533598 
L 176.18904 282.68771 
L 176.709124 288.513488 
L 177.229208 316.134577 
L 177.749292 311.893873 
L 178.269376 287.149961 
L 179.309544 299.168471 
L 179.829627 298.017711 
L 180.349711 299.341104 
L 180.869795 291.765324 
L 181.389879 297.687912 
L 181.909963 311.187614 
L 182.430047 295.315203 
L 182.950131 294.564515 
L 183.470214 305.730695 
L 183.990298 306.489441 
L 184.510382 310.94111 
L 185.030466 313.24929 
L 185.55055 318.321551 
L 186.070634 317.384972 
L 186.590718 307.892331 
L 187.110802 292.019808 
L 187.630885 283.59868 
L 188.150969 280.466783 
L 189.191137 287.901179 
L 189.711221 304.143586 
L 190.231305 300.240068 
L 190.751389 319.861361 
L 191.271473 313.860563 
L 191.791556 299.442224 
L 192.31164 311.661399 
L 192.831724 310.010131 
L 193.351808 319.390279 
L 193.871892 322.134002 
L 194.391976 320.656646 
L 195.432143 331.514794 
L 195.952227 297.15005 
L 196.472311 311.56174 
L 196.992395 318.48698 
L 197.512479 283.193853 
L 198.032563 299.25043 
L 198.552647 308.477032 
L 199.072731 313.449537 
L 199.592814 316.176506 
L 200.112898 313.545364 
L 200.632982 331.200159 
L 201.153066 335.865469 
L 201.67315 319.053417 
L 202.193234 307.076798 
L 202.713318 290.683409 
L 203.233401 302.201632 
L 203.753485 303.728848 
L 204.273569 288.91258 
L 204.793653 297.363793 
L 205.313737 293.65671 
L 205.833821 285.025164 
L 206.353905 295.240543 
L 206.873989 298.099853 
L 207.394072 291.720888 
L 207.914156 273.037438 
L 208.43424 277.744209 
L 208.954324 300.141544 
L 209.474408 316.198319 
L 209.994492 305.752221 
L 210.514576 318.210498 
L 211.034659 305.239144 
L 211.554743 319.205739 
L 212.074827 294.497532 
L 212.594911 287.263989 
L 213.114995 318.010301 
L 213.635079 293.319376 
L 214.155163 282.993297 
L 214.675247 290.355308 
L 215.19533 300.325391 
L 215.715414 303.084477 
L 216.235498 287.518172 
L 216.755582 292.250021 
L 217.275666 273.057449 
L 217.79575 271.330431 
L 218.315834 301.400492 
L 218.835917 294.332871 
L 219.356001 282.3876 
L 219.876085 289.627282 
L 220.396169 316.138426 
L 220.916253 315.191585 
L 221.436337 296.491225 
L 221.956421 286.172775 
L 222.476505 295.966837 
L 222.996588 283.729962 
L 223.516672 276.884543 
L 224.036756 295.86947 
L 224.55684 282.32739 
L 225.076924 287.232277 
L 225.597008 297.210885 
L 226.117092 318.519147 
L 226.637175 319.839749 
L 227.157259 332.638856 
L 227.677343 338.504707 
L 228.197427 305.305403 
L 228.717511 307.693421 
L 229.237595 302.643612 
L 229.757679 318.72259 
L 230.277763 316.197055 
L 230.797846 290.617158 
L 231.31793 285.361692 
L 231.838014 307.450079 
L 232.358098 317.427924 
L 232.878182 301.858786 
L 233.398266 295.110387 
L 234.438433 318.771748 
L 234.958517 313.496883 
L 235.478601 323.608303 
L 235.998685 311.278981 
L 236.518769 309.630672 
L 237.038853 300.482351 
L 237.558937 301.222688 
L 238.079021 277.448202 
L 238.599104 284.41426 
L 239.639272 309.996151 
L 240.159356 295.705857 
L 240.67944 288.859629 
L 241.199524 294.207708 
L 241.719608 302.162146 
L 242.239691 320.795561 
L 242.759775 307.614416 
L 243.279859 291.015583 
L 243.799943 317.52839 
L 244.320027 316.1398 
L 244.840111 308.381565 
L 245.360195 308.935816 
L 245.880279 302.37147 
L 246.400362 293.88631 
L 247.44053 304.649059 
L 247.960614 319.148011 
L 248.480698 293.22314 
L 249.000782 291.667866 
L 249.520866 285.251506 
L 250.040949 291.019872 
L 250.561033 321.170676 
L 251.081117 291.419119 
L 251.601201 282.567207 
L 252.121285 291.009103 
L 252.641369 283.794765 
L 253.161453 306.4823 
L 253.681537 315.058488 
L 254.20162 303.868899 
L 254.721704 307.211381 
L 255.241788 288.092988 
L 255.761872 294.847396 
L 256.281956 303.637513 
L 256.80204 294.361329 
L 257.322124 311.812505 
L 257.842208 306.40238 
L 258.882375 320.096201 
L 259.402459 319.809081 
L 259.922543 282.261342 
L 260.442627 269.987684 
L 260.962711 278.981356 
L 261.482795 307.058803 
L 262.002878 304.470345 
L 262.522962 308.170391 
L 263.043046 304.425101 
L 263.56313 282.980427 
L 264.083214 298.358855 
L 264.603298 305.918149 
L 265.123382 298.400622 
L 265.643466 345.08265 
L 266.163549 295.31774 
L 266.683633 290.993927 
L 267.203717 304.074093 
L 267.723801 298.184423 
L 268.243885 297.892775 
L 268.763969 296.212609 
L 269.284053 291.460828 
L 269.804136 293.511251 
L 270.32422 284.359152 
L 270.844304 285.451052 
L 271.364388 288.014219 
L 271.884472 297.988886 
L 272.404556 325.741744 
L 272.92464 322.258045 
L 273.444724 301.878153 
L 273.964807 286.534962 
L 274.484891 291.340139 
L 275.004975 297.877516 
L 276.045143 320.62846 
L 276.565227 310.195216 
L 277.085311 314.367817 
L 277.605394 308.257865 
L 278.125478 312.571988 
L 278.645562 310.745709 
L 279.165646 321.268742 
L 279.68573 289.385874 
L 280.205814 277.586732 
L 280.725898 280.919275 
L 281.245982 273.657284 
L 281.766065 285.963398 
L 282.286149 295.297725 
L 282.806233 302.021328 
L 283.326317 284.093823 
L 283.846401 280.970599 
L 284.886569 300.733876 
L 285.926736 320.184012 
L 286.44682 307.490619 
L 286.966904 317.180964 
L 287.486988 317.073698 
L 288.007072 321.636412 
L 288.527156 288.758901 
L 289.04724 299.873484 
L 289.567323 297.764172 
L 290.087407 291.457503 
L 290.607491 306.184327 
L 291.127575 302.734181 
L 291.647659 294.991076 
L 292.167743 316.521498 
L 292.687827 331.740942 
L 293.20791 314.082079 
L 293.727994 312.966955 
L 294.248078 291.349853 
L 294.768162 288.423081 
L 295.288246 304.094431 
L 295.80833 308.9317 
L 296.328414 303.507652 
L 296.848498 295.631619 
L 297.368581 299.279714 
L 297.888665 320.650613 
L 298.408749 314.686601 
L 298.928833 299.52638 
L 299.448917 294.324328 
L 299.969001 293.461394 
L 301.529252 312.914943 
L 302.049336 336.388002 
L 302.56942 306.340478 
L 303.089504 300.77489 
L 303.609588 308.753299 
L 304.129672 291.37787 
L 304.649756 297.135591 
L 305.169839 308.687024 
L 305.689923 323.38692 
L 306.210007 317.630518 
L 306.730091 295.14029 
L 307.250175 282.693332 
L 308.290343 314.397744 
L 309.33051 282.665187 
L 309.850594 286.359667 
L 310.370678 287.996052 
L 310.890762 293.397504 
L 311.410846 311.504647 
L 311.93093 303.007566 
L 312.451014 318.356092 
L 312.971097 304.988497 
L 313.491181 295.60734 
L 314.011265 289.297719 
L 314.531349 308.87624 
L 315.051433 321.387866 
L 315.571517 320.188246 
L 316.091601 327.839384 
L 316.611684 314.346637 
L 317.131768 307.244973 
L 317.651852 311.088178 
L 318.171936 325.678433 
L 318.69202 307.829439 
L 319.212104 311.921859 
L 319.732188 301.794747 
L 320.252272 320.831949 
L 320.772355 316.473888 
L 321.292439 297.513461 
L 321.812523 304.371737 
L 322.332607 298.678529 
L 322.852691 280.52996 
L 323.372775 288.284668 
L 323.892859 286.455077 
L 324.933026 304.876687 
L 325.45311 304.530979 
L 325.973194 317.565421 
L 326.493278 313.134369 
L 327.013362 304.84805 
L 327.533446 308.055683 
L 328.05353 309.505712 
L 328.573613 305.315474 
L 329.093697 315.155578 
L 329.613781 304.489917 
L 330.133865 299.205766 
L 330.653949 295.956492 
L 331.174033 309.809093 
L 331.694117 331.252411 
L 332.214201 339.436393 
L 332.734284 319.41956 
L 333.254368 313.738559 
L 333.774452 297.01102 
L 334.294536 300.507792 
L 334.81462 310.788079 
L 335.854788 275.881181 
L 336.374871 289.552267 
L 336.894955 297.369489 
L 337.415039 295.941637 
L 337.935123 298.686439 
L 338.455207 319.016611 
L 338.975291 304.753199 
L 339.495375 283.045149 
L 340.015459 288.450075 
L 340.535542 286.419348 
L 341.055626 300.537841 
L 341.57571 302.558218 
L 342.095794 295.19589 
L 342.615878 317.560401 
L 343.135962 299.319178 
L 343.656046 297.779068 
L 344.176129 281.586655 
L 344.696213 293.112693 
L 345.216297 296.236311 
L 345.736381 293.414376 
L 346.256465 302.945849 
L 346.776549 299.97403 
L 347.296633 326.734364 
L 347.816717 317.768916 
L 348.3368 297.447535 
L 348.856884 319.371466 
L 349.376968 303.02179 
L 349.897052 314.577685 
L 350.417136 283.282128 
L 350.93722 272.613433 
L 351.457304 288.351666 
L 352.497471 307.331642 
L 353.017555 299.891775 
L 353.537639 295.957883 
L 354.057723 304.808399 
L 354.577807 336.73883 
L 355.097891 298.787601 
L 355.617975 300.639488 
L 356.138058 320.265253 
L 356.658142 302.016644 
L 357.178226 294.205355 
L 358.218394 295.392446 
L 358.738478 298.687876 
L 359.258562 279.334284 
L 359.778645 279.773129 
L 360.298729 287.737544 
L 360.818813 307.875696 
L 361.338897 303.081805 
L 361.858981 302.365315 
L 362.379065 299.113267 
L 362.899149 297.520613 
L 363.419233 285.120723 
L 363.939316 278.022474 
L 364.4594 313.795517 
L 364.979484 321.769898 
L 365.499568 323.689443 
L 366.019652 312.628525 
L 366.539736 297.479363 
L 367.05982 297.219415 
L 367.579903 319.661754 
L 368.099987 316.563885 
L 368.620071 310.870216 
L 369.140155 296.466936 
L 369.660239 316.045511 
L 370.180323 312.608953 
L 370.700407 306.729388 
L 371.220491 294.628531 
L 371.740574 301.836991 
L 372.260658 317.158931 
L 372.780742 315.92396 
L 373.300826 288.285264 
L 373.82091 300.515153 
L 374.340994 306.852087 
L 374.861078 286.555786 
L 375.381161 299.474356 
L 375.901245 305.541791 
L 376.421329 296.273107 
L 376.941413 327.594619 
L 377.461497 311.230674 
L 377.981581 305.988558 
L 379.021749 278.632234 
L 379.541832 291.010067 
L 380.061916 291.18056 
L 380.582 310.937281 
L 381.102084 315.74329 
L 381.622168 307.027101 
L 382.142252 333.291192 
L 382.662336 349.859069 
L 383.182419 309.21491 
L 383.702503 287.561558 
L 384.222587 281.944122 
L 384.742671 290.445919 
L 385.262755 290.427832 
L 385.782839 291.347019 
L 386.302923 318.380847 
L 386.823007 296.289475 
L 387.34309 296.559974 
L 387.863174 363.306539 
L 388.383258 326.146132 
L 388.903342 312.75723 
L 389.423426 294.956304 
L 389.94351 300.295337 
L 390.463594 326.856624 
L 390.983677 325.249479 
L 391.503761 301.739522 
L 392.023845 295.942307 
L 392.543929 317.288084 
L 393.064013 310.077233 
L 393.584097 280.277671 
L 394.104181 286.606 
L 394.624265 295.295757 
L 395.144348 288.420397 
L 396.184516 317.832004 
L 396.7046 341.149376 
L 397.744768 310.003751 
L 398.264852 293.677805 
L 398.784936 302.702029 
L 399.305019 304.884008 
L 399.825103 314.289695 
L 400.345187 327.386735 
L 400.865271 312.77469 
L 401.385355 306.817916 
L 401.905439 324.102369 
L 402.425523 329.547778 
L 403.985774 300.141358 
L 404.505858 300.635675 
L 405.025942 335.44142 
L 405.546026 317.346214 
L 406.06611 305.346019 
L 406.586194 286.978113 
L 407.106277 297.427821 
L 407.626361 304.948638 
L 408.146445 309.613199 
L 408.666529 310.013783 
L 409.186613 313.570078 
L 409.706697 329.117173 
L 410.226781 300.320197 
L 410.746864 311.156604 
L 411.266948 326.867753 
L 411.787032 302.562342 
L 412.307116 299.982568 
L 412.8272 304.47429 
L 413.347284 302.398385 
L 413.867368 305.521798 
L 414.387452 300.779301 
L 415.427619 311.472099 
L 415.947703 293.949025 
L 416.467787 295.613127 
L 416.987871 290.449338 
L 417.507955 281.74633 
L 418.028039 289.412136 
L 418.548122 290.976183 
L 419.068206 302.666075 
L 419.58829 283.801625 
L 420.108374 295.600179 
L 420.628458 284.54116 
L 421.148542 304.397924 
L 421.668626 303.06282 
L 422.18871 304.118845 
L 422.708793 297.978365 
L 423.228877 279.105568 
L 423.748961 292.81835 
L 424.269045 316.593059 
L 424.789129 305.763256 
L 425.309213 304.697539 
L 425.829297 311.705303 
L 426.34938 310.84412 
L 426.869464 302.699146 
L 427.389548 296.991588 
L 427.909632 299.742427 
L 428.429716 307.283677 
L 428.9498 325.324608 
L 429.989968 307.784861 
L 430.510051 295.213879 
L 431.030135 299.116195 
L 431.550219 304.400766 
L 432.070303 292.080134 
L 432.590387 285.906289 
L 433.110471 299.846248 
L 433.630555 325.73625 
L 434.150638 310.494342 
L 434.670722 300.340258 
L 435.190806 297.673279 
L 435.71089 282.986613 
L 436.230974 288.129605 
L 436.751058 286.465018 
L 437.271142 295.84227 
L 437.791226 301.268362 
L 438.311309 305.303057 
L 438.831393 312.97406 
L 439.351477 322.523041 
L 439.871561 305.379331 
L 440.391645 273.532348 
L 440.911729 298.261396 
L 441.431813 315.162446 
L 441.951896 309.521772 
L 442.47198 316.445848 
L 442.992064 327.280852 
L 443.512148 326.781683 
L 444.032232 297.110642 
L 444.552316 293.08416 
L 445.0724 330.865268 
L 446.112567 280.087885 
L 446.632651 290.957857 
L 447.152735 341.569395 
L 447.672819 330.512443 
L 448.192903 312.672852 
L 448.712987 308.952066 
L 449.233071 322.107429 
L 449.753154 296.08185 
L 450.273238 296.688472 
L 450.793322 308.692317 
L 451.313406 293.784464 
L 451.83349 300.81129 
L 452.353574 320.664053 
L 452.873658 317.34538 
L 453.393742 325.124161 
L 453.913825 316.184736 
L 454.433909 295.370035 
L 454.953993 311.731462 
L 455.474077 296.710882 
L 455.994161 286.742574 
L 456.514245 308.613942 
L 457.034329 281.22128 
L 457.554413 282.902133 
L 458.074496 301.523724 
L 458.59458 297.216256 
L 459.114664 286.37005 
L 459.634748 283.118057 
L 460.154832 290.413621 
L 460.674916 305.607964 
L 461.195 282.851082 
L 461.715083 287.665033 
L 462.235167 301.363598 
L 462.755251 323.555329 
L 463.275335 306.473878 
L 464.315503 296.292429 
L 464.835587 283.94604 
L 465.355671 279.203099 
L 465.875754 289.914171 
L 466.395838 318.680657 
L 466.915922 304.80766 
L 467.436006 301.4078 
L 467.95609 290.806079 
L 468.476174 295.331295 
L 468.996258 292.493799 
L 469.516341 315.641398 
L 470.036425 311.78501 
L 470.556509 299.211722 
L 471.076593 299.223214 
L 471.596677 294.66326 
L 472.116761 304.210947 
L 472.636845 291.049929 
L 473.156929 295.262403 
L 473.677012 292.2424 
L 474.197096 299.302887 
L 474.71718 302.145679 
L 475.237264 291.444686 
L 475.757348 291.048728 
L 476.277432 298.399995 
L 476.797516 308.023088 
L 477.317599 306.422538 
L 477.837683 300.734598 
L 478.357767 300.823636 
L 478.877851 318.266313 
L 479.397935 299.057019 
L 479.918019 296.787419 
L 480.438103 283.650641 
L 480.958187 293.654255 
L 481.47827 296.867414 
L 481.998354 308.562452 
L 483.038522 293.393796 
L 483.558606 290.352632 
L 484.07869 325.758019 
L 484.598774 301.110137 
L 485.118857 324.422106 
L 485.638941 295.515474 
L 486.159025 290.177996 
L 486.679109 292.356294 
L 487.199193 272.927625 
L 487.719277 283.364625 
L 488.239361 309.360768 
L 488.759445 327.050232 
L 489.279528 314.067074 
L 489.799612 322.171049 
L 490.319696 298.057479 
L 490.83978 315.814808 
L 491.359864 304.112754 
L 491.879948 299.120945 
L 492.400032 314.961037 
L 492.920115 295.344612 
L 493.440199 289.170624 
L 493.960283 312.923984 
L 494.480367 319.532945 
L 495.000451 297.161423 
L 495.520535 286.608126 
L 496.040619 296.107106 
L 496.560703 289.992973 
L 497.080786 288.878543 
L 497.60087 307.925891 
L 498.120954 313.259337 
L 498.641038 329.330387 
L 499.161122 304.916618 
L 499.681206 291.180083 
L 500.20129 283.258051 
L 500.721373 291.58134 
L 501.241457 291.768784 
L 501.761541 298.541999 
L 502.281625 310.860579 
L 502.801709 315.823592 
L 503.321793 316.23463 
L 503.841877 306.756036 
L 504.361961 300.238729 
L 504.882044 319.820087 
L 505.402128 312.925062 
L 505.922212 291.396748 
L 506.442296 282.197585 
L 506.96238 300.63185 
L 507.482464 290.977877 
L 508.002548 312.970905 
L 508.522631 308.516447 
L 509.042715 328.657327 
L 509.562799 320.651044 
L 510.082883 301.142993 
L 511.123051 299.462179 
L 512.163219 266.57459 
L 513.203386 292.054499 
L 513.72347 297.737079 
L 514.243554 291.664936 
L 514.763638 288.405571 
L 515.283722 302.260175 
L 515.803806 298.98167 
L 516.323889 303.741368 
L 516.843973 299.760276 
L 517.364057 317.887794 
L 517.884141 312.09749 
L 518.924309 276.366087 
L 519.444393 292.490712 
L 519.964477 282.782263 
L 520.48456 285.459149 
L 521.004644 322.447872 
L 521.524728 319.831731 
L 522.044812 299.542456 
L 522.564896 297.154132 
L 523.08498 297.618262 
L 524.125148 316.542108 
L 524.645231 299.999964 
L 525.165315 296.90071 
L 525.685399 317.529596 
L 526.205483 302.272912 
L 527.245651 285.350435 
L 527.765735 294.376442 
L 528.285818 299.628891 
L 528.805902 283.085516 
L 529.325986 294.942371 
L 529.84607 333.992776 
L 530.366154 305.095188 
L 530.886238 306.452713 
L 531.406322 290.074678 
L 531.926406 291.073151 
L 532.446489 319.746644 
L 532.966573 308.737404 
L 533.486657 293.132981 
L 534.006741 310.375303 
L 534.526825 302.257841 
L 535.046909 291.248066 
L 535.566993 293.68781 
L 536.087076 289.874878 
L 537.127244 329.691525 
L 537.647328 331.505646 
L 538.167412 309.701117 
L 538.687496 277.881454 
L 539.20758 290.189678 
L 539.727664 294.287755 
L 540.247747 276.968365 
L 540.767831 274.639815 
L 541.287915 281.432918 
L 541.807999 329.696992 
L 542.328083 328.353289 
L 542.848167 317.731115 
L 543.368251 318.162447 
L 543.888334 299.110095 
L 544.408418 300.466897 
L 544.928502 299.464934 
L 545.448586 289.678181 
L 545.96867 305.31081 
L 546.488754 295.871005 
L 547.008838 290.367184 
L 547.528922 303.449122 
L 548.049005 300.624265 
L 548.569089 301.535603 
L 549.609257 314.330355 
L 550.129341 310.484235 
L 550.649425 300.430256 
L 551.169509 312.44583 
L 551.689592 307.894437 
L 552.209676 320.65541 
L 552.72976 302.66168 
L 553.249844 296.52659 
L 553.769928 283.294784 
L 554.810096 300.509237 
L 555.33018 304.083644 
L 555.850263 292.422189 
L 556.370347 313.871123 
L 556.890431 329.637058 
L 557.930599 288.660232 
L 558.970767 326.329757 
L 559.49085 313.605408 
L 560.010934 293.568562 
L 560.531018 357.371053 
L 561.051102 307.792891 
L 561.571186 317.690591 
L 562.09127 298.13705 
L 562.611354 293.867836 
L 563.131438 292.189696 
L 563.651521 301.219041 
L 564.691689 305.212624 
L 565.211773 303.439852 
L 565.731857 295.018971 
L 566.251941 294.94602 
L 566.772025 319.72739 
L 567.812192 299.612957 
L 568.332276 299.543158 
L 568.85236 315.063354 
L 569.372444 318.099383 
L 569.892528 318.533183 
L 570.412612 318.733405 
L 570.932696 308.718116 
L 571.452779 308.686196 
L 571.972863 310.53511 
L 572.492947 305.025492 
L 573.013031 303.945943 
L 573.533115 296.028346 
L 574.053199 295.312872 
L 574.573283 298.781216 
L 575.093366 296.820882 
L 575.61345 281.376015 
L 576.133534 281.645568 
L 576.653618 300.352698 
L 577.173702 303.309392 
L 577.693786 301.204812 
L 578.21387 314.506991 
L 578.733954 332.132969 
L 579.254037 305.849946 
L 579.774121 310.806735 
L 580.294205 308.808344 
L 580.814289 322.299467 
L 581.334373 323.31104 
L 581.854457 288.875116 
L 582.374541 282.999328 
L 582.894624 315.209839 
L 583.414708 276.49947 
L 583.934792 285.225748 
L 584.454876 319.588783 
L 584.97496 315.573611 
L 585.495044 308.802652 
L 586.015128 291.172207 
L 586.535212 298.431211 
L 587.055295 300.821019 
L 587.575379 298.279275 
L 588.095463 317.214087 
L 588.615547 330.101213 
L 589.135631 318.956598 
L 589.655715 295.224892 
L 590.175799 295.276217 
L 590.695883 290.683069 
L 591.73605 285.025218 
L 592.256134 277.22079 
L 592.776218 296.605723 
L 593.296302 304.884852 
L 593.816386 301.315695 
L 594.33647 299.932021 
L 594.856553 293.933506 
L 595.376637 294.803548 
L 595.896721 296.029767 
L 596.416805 306.731632 
L 596.936889 322.824984 
L 597.456973 306.051045 
L 597.977057 302.897168 
L 598.497141 311.353617 
L 599.017224 306.758808 
L 599.537308 312.175025 
L 600.057392 308.366506 
L 600.577476 308.208304 
L 601.09756 305.308026 
L 601.617644 303.380591 
L 602.137728 293.125425 
L 602.657811 291.804504 
L 603.177895 308.545127 
L 603.697979 308.201951 
L 604.218063 302.140934 
L 604.738147 302.33596 
L 605.258231 300.89645 
L 605.778315 320.242642 
L 606.298399 335.422111 
L 607.338566 280.276505 
L 607.85865 287.381488 
L 608.378734 317.229748 
L 608.898818 302.983925 
L 609.418902 300.690059 
L 609.938986 319.602109 
L 610.459069 310.457098 
L 610.979153 323.397052 
L 611.499237 346.376374 
L 612.019321 325.990064 
L 612.539405 300.111248 
L 613.579573 323.70525 
L 614.099657 321.078068 
L 614.61974 327.526958 
L 615.659908 296.30869 
L 616.179992 276.800969 
L 616.700076 290.255327 
L 617.22016 320.746208 
L 617.740244 316.939925 
L 618.260327 312.227845 
L 618.780411 304.871575 
L 619.300495 302.254603 
L 619.820579 308.283776 
L 620.340663 309.653453 
L 620.860747 314.355701 
L 621.380831 294.991349 
L 621.900915 297.821862 
L 622.420998 291.836086 
L 622.941082 297.22483 
L 623.461166 285.292643 
L 623.98125 299.92991 
L 623.98125 299.92991 
" style="fill:none;stroke:#e41a1c;stroke-linecap:round;stroke-width:2;"/>
   </g>
   <g id="patch_3">
    <path d="M 91.41537 365.09886 
L 91.41537 14.4 
" style="fill:none;stroke:#262626;stroke-linecap:square;stroke-linejoin:miter;stroke-width:1.25;"/>
   </g>
   <g id="patch_4">
    <path d="M 623.98125 365.09886 
L 623.98125 14.4 
" style="fill:none;"/>
   </g>
   <g id="patch_5">
    <path d="M 91.41537 365.09886 
L 623.98125 365.09886 
" style="fill:none;stroke:#262626;stroke-linecap:square;stroke-linejoin:miter;stroke-width:1.25;"/>
   </g>
   <g id="patch_6">
    <path d="M 91.41537 14.4 
L 623.98125 14.4 
" style="fill:none;"/>
   </g>
  </g>
 </g>
 <defs>
  <clipPath id="pa8cb479fc9">
   <rect height="350.69886" width="532.56588" x="91.41537" y="14.4"/>
  </clipPath>
 </defs>
</svg>
