<?xml version="1.0" encoding="utf-8" standalone="no"?>
<!DOCTYPE svg PUBLIC "-//W3C//DTD SVG 1.1//EN"
  "http://www.w3.org/Graphics/SVG/1.1/DTD/svg11.dtd">
<!-- Created with matplotlib (https://matplotlib.org/) -->
<svg height="432pt" version="1.1" viewBox="0 0 648 432" width="648pt" xmlns="http://www.w3.org/2000/svg" xmlns:xlink="http://www.w3.org/1999/xlink">
 <defs>
  <style type="text/css">
*{stroke-linecap:butt;stroke-linejoin:round;}
  </style>
 </defs>
 <g id="figure_1">
  <g id="patch_1">
   <path d="M 0 432 
L 648 432 
L 648 0 
L 0 0 
z
" style="fill:#ffffff;"/>
  </g>
  <g id="axes_1">
   <g id="patch_2">
    <path d="M 74.45691 365.09886 
L 623.98125 365.09886 
L 623.98125 14.4 
L 74.45691 14.4 
z
" style="fill:#ffffff;"/>
   </g>
   <g id="matplotlib.axis_1">
    <g id="xtick_1">
     <g id="line2d_1">
      <defs>
       <path d="M 0 0 
L 0 6 
" id="m18609b4275" style="stroke:#262626;stroke-width:1.25;"/>
      </defs>
      <g>
       <use style="fill:#262626;stroke:#262626;stroke-width:1.25;" x="208.618126" xlink:href="#m18609b4275" y="365.09886"/>
      </g>
     </g>
     <g id="text_1">
      <!-- $1000$ -->
      <defs>
       <path d="M 34.59375 62.109375 
C 34.59375 65 34.40625 65 31.203125 65 
C 23.796875 59 12.703125 59 10.5 59 
L 8.59375 59 
L 8.59375 54.734375 
L 10.5 54.734375 
C 14 54.734375 19.296875 55.328125 23.296875 56.625 
L 23.296875 4.171875 
L 9.40625 4.171875 
L 9.40625 0 
C 13.59375 0 24.09375 0 28.796875 0 
C 33.5 0 44.09375 0 48.296875 0 
L 48.296875 4.171875 
L 34.59375 4.171875 
z
" id="CMBX12-49"/>
       <path d="M 51.703125 31.84375 
C 51.703125 41.375 51.703125 65.28125 28.09375 65.28125 
C 4.40625 65.28125 4.40625 41.46875 4.40625 31.84375 
C 4.40625 22.3125 4.40625 -1 28 -1 
C 51.59375 -1 51.703125 22.015625 51.703125 31.84375 
z
M 28.09375 2.28125 
C 24.90625 2.28125 22.5 3.5625 20.5 5.65625 
C 18 8.140625 16.40625 9.703125 16.40625 33.03125 
C 16.40625 39.984375 16.40625 46.3125 17.203125 51.484375 
C 18.59375 61.3125 25.796875 62 28 62 
C 31.203125 62 37.40625 60.515625 38.796875 52.1875 
C 39.703125 47.109375 39.703125 39.078125 39.703125 33.03125 
C 39.703125 9.609375 38.203125 8.234375 35.203125 5.25 
C 33.203125 3.265625 30.5 2.28125 28.09375 2.28125 
z
" id="CMBX12-48"/>
      </defs>
      <g style="fill:#262626;" transform="translate(188.368126 387.09886)scale(0.18 -0.18)">
       <use transform="scale(0.996264)" xlink:href="#CMBX12-49"/>
       <use transform="translate(56.039851 0)scale(0.996264)" xlink:href="#CMBX12-48"/>
       <use transform="translate(112.079701 0)scale(0.996264)" xlink:href="#CMBX12-48"/>
       <use transform="translate(168.119552 0)scale(0.996264)" xlink:href="#CMBX12-48"/>
      </g>
     </g>
    </g>
    <g id="xtick_2">
     <g id="line2d_2">
      <g>
       <use style="fill:#262626;stroke:#262626;stroke-width:1.25;" x="342.779342" xlink:href="#m18609b4275" y="365.09886"/>
      </g>
     </g>
     <g id="text_2">
      <!-- $2000$ -->
      <defs>
       <path d="M 50.5 21.375 
L 46.296875 21.375 
C 46 19.28125 45.296875 13.40625 43.796875 12.421875 
C 43 11.71875 35.203125 11.71875 33.703125 11.71875 
L 18.203125 11.71875 
C 22 14.90625 31.09375 22.46875 32.59375 23.578125 
C 43.703125 31.84375 50.5 36.90625 50.5 46.46875 
C 50.5 58.203125 39.796875 65.28125 26.59375 65.28125 
C 15.296875 65.28125 5.59375 58.90625 5.59375 49.453125 
C 5.59375 44.171875 9.90625 42.6875 12.203125 42.6875 
C 15.296875 42.6875 18.90625 44.765625 18.90625 49.359375 
C 18.90625 53.546875 15.796875 55.625 12.703125 56.03125 
C 16.703125 60.609375 22 61 24.09375 61 
C 33.296875 61 37.703125 53.546875 37.703125 46.375 
C 37.703125 38.609375 32.40625 31.453125 28.296875 27.171875 
L 6.59375 4.578125 
C 5.59375 3.671875 5.59375 3.484375 5.59375 1.6875 
L 5.59375 0 
L 47.59375 0 
z
" id="CMBX12-50"/>
      </defs>
      <g style="fill:#262626;" transform="translate(322.529342 387.09886)scale(0.18 -0.18)">
       <use transform="scale(0.996264)" xlink:href="#CMBX12-50"/>
       <use transform="translate(56.039851 0)scale(0.996264)" xlink:href="#CMBX12-48"/>
       <use transform="translate(112.079701 0)scale(0.996264)" xlink:href="#CMBX12-48"/>
       <use transform="translate(168.119552 0)scale(0.996264)" xlink:href="#CMBX12-48"/>
      </g>
     </g>
    </g>
    <g id="xtick_3">
     <g id="line2d_3">
      <g>
       <use style="fill:#262626;stroke:#262626;stroke-width:1.25;" x="476.940557" xlink:href="#m18609b4275" y="365.09886"/>
      </g>
     </g>
     <g id="text_3">
      <!-- $3000$ -->
      <defs>
       <path d="M 26.09375 33 
C 37.296875 33 37.296875 22.71875 37.296875 17.984375 
C 37.296875 13.53125 37.296875 3.0625 26.5 3.0625 
C 24.40625 3.0625 17.796875 3.0625 13 6.625 
C 17.296875 7.515625 18.796875 10.59375 18.796875 13.5625 
C 18.796875 17.625 15.90625 20.5 11.796875 20.5 
C 7.59375 20.5 4.703125 17.625 4.703125 13.46875 
C 4.703125 4.34375 14.703125 -1 27 -1 
C 43.5 -1 51.40625 8.015625 51.40625 17.921875 
C 51.40625 22.796875 48.90625 32.203125 33.40625 34.875 
C 42.203125 37.59375 48.296875 43.8125 48.296875 51.71875 
C 48.296875 59.25 41.09375 65.578125 27.203125 65.578125 
C 16 65.578125 7.796875 59.65625 7.796875 51.53125 
C 7.796875 46.515625 11.703125 44.90625 14.296875 44.90625 
C 17.203125 44.90625 20.703125 46.8125 20.703125 51.4375 
C 20.703125 53.765625 19.703125 57.171875 15 57.875 
C 19.203125 62 26 62 26.59375 62 
C 35.5 62 35.5 55.03125 35.5 52.015625 
C 35.5 48.984375 35.09375 44.328125 31.90625 40.203125 
C 29.296875 36.75 26.703125 36.5625 22.90625 36.5625 
C 21.703125 36.265625 19.703125 36.265625 19.296875 36.078125 
C 18.703125 35.78125 18.703125 35.078125 18.703125 34.6875 
C 18.703125 33 19.296875 33 21.296875 33 
z
" id="CMBX12-51"/>
      </defs>
      <g style="fill:#262626;" transform="translate(456.690557 387.09886)scale(0.18 -0.18)">
       <use transform="scale(0.996264)" xlink:href="#CMBX12-51"/>
       <use transform="translate(56.039851 0)scale(0.996264)" xlink:href="#CMBX12-48"/>
       <use transform="translate(112.079701 0)scale(0.996264)" xlink:href="#CMBX12-48"/>
       <use transform="translate(168.119552 0)scale(0.996264)" xlink:href="#CMBX12-48"/>
      </g>
     </g>
    </g>
    <g id="xtick_4">
     <g id="line2d_4">
      <g>
       <use style="fill:#262626;stroke:#262626;stroke-width:1.25;" x="611.101773" xlink:href="#m18609b4275" y="365.09886"/>
      </g>
     </g>
     <g id="text_4">
      <!-- $4000$ -->
      <defs>
       <path d="M 43.296875 15.71875 
L 53 15.71875 
L 53 20 
L 43.296875 20 
L 43.296875 62.609375 
C 43.296875 65.09375 43.203125 65.5 40.703125 65.5 
C 38.90625 65.5 38.703125 65.5 37.5 64 
L 3.09375 20 
L 3.09375 15.71875 
L 31.5 15.71875 
L 31.5 4.171875 
L 20.59375 4.171875 
L 20.59375 0 
C 23.5 0 33.40625 0 37 0 
C 40.40625 0 50.296875 0 53 -0.09375 
L 53 4.171875 
L 43.296875 4.171875 
z
M 32.40625 51.59375 
L 32.40625 20 
L 7.703125 20 
z
" id="CMBX12-52"/>
      </defs>
      <g style="fill:#262626;" transform="translate(590.851773 387.09886)scale(0.18 -0.18)">
       <use transform="scale(0.996264)" xlink:href="#CMBX12-52"/>
       <use transform="translate(56.039851 0)scale(0.996264)" xlink:href="#CMBX12-48"/>
       <use transform="translate(112.079701 0)scale(0.996264)" xlink:href="#CMBX12-48"/>
       <use transform="translate(168.119552 0)scale(0.996264)" xlink:href="#CMBX12-48"/>
      </g>
     </g>
    </g>
    <g id="text_5">
     <!-- \textbf{Frequency (Hz)} -->
     <defs>
      <path d="M 63 67.28125 
L 3.796875 67.28125 
L 3.796875 63 
L 14.40625 63 
L 14.40625 4.171875 
L 3.796875 4.171875 
L 3.796875 0 
C 6.703125 0 18.09375 0 21.796875 0 
C 27.09375 0 36 0 40.90625 0 
L 40.90625 4.171875 
L 27.59375 4.171875 
L 27.59375 31.71875 
L 33.09375 31.71875 
C 42.703125 31.71875 43.5 27.3125 43.5 20 
L 47.703125 20 
L 47.703125 47.53125 
L 43.5 47.53125 
C 43.5 40.328125 42.703125 36 33.09375 36 
L 27.59375 36 
L 27.59375 63 
L 41.90625 63 
C 57.796875 63 60.296875 55.875 61.703125 44.078125 
L 65.90625 44.078125 
z
" id="CMBX12-70"/>
      <path d="M 20.796875 22.046875 
C 20.796875 25.296875 21.5 41 33.203125 41 
C 31.796875 39.921875 31.09375 38.25 31.09375 36.5 
C 31.09375 32.484375 34.40625 30.8125 36.90625 30.8125 
C 39.40625 30.8125 42.703125 32.484375 42.703125 36.515625 
C 42.703125 41.53125 37.5 44.28125 32.703125 44.28125 
C 24.796875 44.28125 21.40625 37.515625 20 33.390625 
L 19.90625 33.390625 
L 19.90625 44 
L 3.5 44 
L 3.5 39.328125 
C 9.703125 39.328125 10.40625 39.328125 10.40625 35.46875 
L 10.40625 4.0625 
L 3.5 4.0625 
L 3.5 -0.203125 
C 5.796875 0 13.296875 0 16.09375 0 
C 19 0 27.09375 0 29.5 -0.203125 
L 29.5 4.0625 
L 20.796875 4.0625 
z
" id="CMBX12-114"/>
      <path d="M 45.203125 22 
C 47.5 22 48.09375 22 48.09375 24.484375 
C 48.09375 27.46875 47.40625 34.890625 42.796875 39.5625 
C 38.59375 43.71875 33 45 27.203125 45 
C 11.59375 45 3.09375 34.890625 3.09375 22.40625 
C 3.09375 8.515625 13.40625 -0.5 28.5 -0.5 
C 43.59375 -0.5 48.09375 10 48.09375 11.6875 
C 48.09375 13.171875 46.59375 13.171875 46 13.171875 
C 44.40625 13.171875 44.296875 12.875 43.703125 11.59375 
C 41.09375 5.15625 34.5 3.078125 29.703125 3.078125 
C 15.203125 3.078125 15.09375 16.453125 15.09375 22 
z
M 15.09375 24.890625 
C 15.296875 28.9375 15.40625 32.8125 17.5 36.375 
C 19.40625 39.546875 22.90625 41.71875 27.203125 41.71875 
C 37.90625 41.71875 38.796875 29.828125 38.90625 24.890625 
z
" id="CMBX12-101"/>
      <path d="M 52 44.578125 
L 48.296875 44.578125 
L 43 36.359375 
C 39.5 41.421875 34.59375 44.578125 28 44.578125 
C 14.203125 44.578125 3.796875 36.078125 3.796875 22.03125 
C 3.796875 7.890625 13.796875 -0.5 27 -0.5 
C 30.796875 -0.5 35.90625 0.296875 41.09375 5.15625 
L 41.09375 -14.921875 
L 34.203125 -14.921875 
L 34.203125 -19.1875 
C 36.5 -19 43.703125 -19 46.5 -19 
C 49.296875 -19 56.59375 -19 58.90625 -19.1875 
L 58.90625 -14.921875 
L 52 -14.921875 
z
M 41.59375 11.859375 
C 37.40625 4.046875 31.5 2.78125 28.203125 2.78125 
C 21.796875 2.78125 15.796875 8.609375 15.796875 21.9375 
C 15.796875 36.359375 23.40625 41 29.296875 41 
C 37.09375 41 41.59375 33 41.59375 28.453125 
z
" id="CMBX12-113"/>
      <path d="M 35.296875 44.671875 
L 35.296875 40 
C 41.5 40 42.203125 40 42.203125 36.125 
L 42.203125 16.5 
C 42.203125 8.890625 37.703125 2.78125 29.90625 2.78125 
C 22.40625 2.78125 22 5.265625 22 10.6875 
L 22 44.671875 
L 4.203125 44.671875 
L 4.203125 40 
C 10.40625 40 11.09375 40 11.09375 36.125 
L 11.09375 12.40625 
C 11.09375 2.390625 17.796875 -0.5 28.5 -0.5 
C 30.90625 -0.5 38.296875 -0.5 42.59375 7.75 
L 42.703125 7.75 
L 42.703125 0 
L 60 0 
L 60 4.5625 
C 53.796875 4.5625 53.09375 4.5625 53.09375 8.4375 
L 53.09375 44.671875 
z
" id="CMBX12-117"/>
      <path d="M 53.09375 30.0625 
C 53.09375 39.453125 49 44.28125 38 44.28125 
C 30.796875 44.28125 24.59375 40.859375 21.203125 33.484375 
L 21.09375 33.484375 
L 21.09375 44 
L 4.203125 44 
L 4.203125 39.328125 
C 10.40625 39.328125 11.09375 39.328125 11.09375 35.46875 
L 11.09375 4.0625 
L 4.203125 4.0625 
L 4.203125 -0.203125 
C 6.5 0 13.703125 0 16.5 0 
C 19.296875 0 26.59375 0 28.90625 -0.203125 
L 28.90625 4.0625 
L 22 4.0625 
L 22 25.109375 
C 22 35.765625 30 41 36.40625 41 
C 40.09375 41 42.203125 38.640625 42.203125 31.140625 
L 42.203125 4.0625 
L 35.296875 4.0625 
L 35.296875 -0.203125 
C 37.59375 0 44.796875 0 47.59375 0 
C 50.40625 0 57.703125 0 60 -0.203125 
L 60 4.0625 
L 53.09375 4.0625 
z
" id="CMBX12-110"/>
      <path d="M 46.796875 11.765625 
C 46.796875 12.953125 45.703125 12.953125 44.703125 12.953125 
C 43.09375 12.953125 43 12.859375 42.5 11.671875 
C 41.796875 9.765625 39.09375 3.078125 29.90625 3.078125 
C 15.796875 3.078125 15.796875 18.21875 15.796875 22.703125 
C 15.796875 28.578125 15.90625 41.625 29 41.625 
C 29.703125 41.625 35.59375 41.625 35.59375 41.125 
C 35.59375 41 35.5 40.90625 35.296875 40.8125 
C 35 40.515625 33.703125 39 33.703125 36.46875 
C 33.703125 32.25 37.09375 30.53125 39.59375 30.53125 
C 41.703125 30.53125 45.5 31.859375 45.5 36.65625 
C 45.5 45 34 45 28.59375 45 
C 10.796875 45 3.796875 33.515625 3.796875 22.09375 
C 3.796875 8.625 13.296875 -0.5 28 -0.5 
C 43.703125 -0.5 46.796875 11.0625 46.796875 11.765625 
z
" id="CMBX12-99"/>
      <path d="M 49.5 37.828125 
C 50.09375 39.203125 50.5 40 56.90625 40 
L 56.90625 44.171875 
C 53.5 44.171875 53.09375 44.171875 49 44.171875 
C 46.296875 44.171875 46.09375 44.171875 40.40625 44.171875 
L 40.40625 40 
C 40.5 40 45.203125 40 45.203125 38.71875 
C 45.203125 38.421875 44.90625 37.828125 44.796875 37.53125 
L 33.09375 12.578125 
L 20.296875 40 
L 25.796875 40 
L 25.796875 44.265625 
C 23.40625 44.171875 16.59375 44.171875 13.796875 44.171875 
C 10.90625 44.171875 5 44.171875 2.40625 44.265625 
L 2.40625 40 
L 8.796875 40 
L 27.296875 0.3125 
C 26.796875 -0.875 25.40625 -3.75 24.90625 -4.9375 
C 22.796875 -9.390625 19.59375 -16.21875 12.59375 -16.21875 
C 12.203125 -16.21875 11 -16.21875 9.90625 -15.625 
C 10.09375 -15.515625 13.09375 -14.328125 13.09375 -10.5625 
C 13.09375 -7.3125 10.703125 -5.234375 7.703125 -5.234375 
C 4.59375 -5.234375 2.203125 -7.328125 2.203125 -10.6875 
C 2.203125 -15.34375 6.59375 -19.5 12.59375 -19.5 
C 20.796875 -19.5 26.203125 -12.171875 28.203125 -7.8125 
z
" id="CMBX12-121"/>
      <path d="M 37.40625 -23.8125 
C 37.40625 -23.40625 37.40625 -23.203125 35.5 -21.421875 
C 24.296875 -10.296875 20 7.203125 20 24.6875 
C 20 44.28125 24.90625 60.390625 36.09375 71.609375 
C 37.296875 72.796875 37.40625 72.90625 37.40625 73.296875 
C 37.40625 74.5 36.203125 74.5 35.703125 74.5 
C 34.796875 74.5 34.59375 74.5 32 72.40625 
C 17.59375 60.984375 10.796875 42.6875 10.796875 24.8125 
C 10.796875 6.515625 17.703125 -11.28125 31.90625 -22.8125 
C 34.5 -25 34.703125 -25 35.703125 -25 
C 36.203125 -25 37.40625 -25 37.40625 -23.8125 
z
" id="CMBX12-40"/>
      <path d="M 73.5 63.828125 
L 84.09375 63.828125 
L 84.09375 68 
C 81.203125 68 70.5 68 66.90625 68 
C 63.296875 68 52.59375 68 49.703125 68 
L 49.703125 63.828125 
L 60.296875 63.828125 
L 60.296875 37.265625 
L 27.59375 37.265625 
L 27.59375 63.828125 
L 38.203125 63.828125 
L 38.203125 68 
C 35.296875 68 24.59375 68 21 68 
C 17.40625 68 6.703125 68 3.796875 68 
L 3.796875 63.828125 
L 14.40625 63.828125 
L 14.40625 4.171875 
L 3.796875 4.171875 
L 3.796875 0 
C 6.703125 0 17.40625 0 21 0 
C 24.59375 0 35.296875 0 38.203125 0 
L 38.203125 4.171875 
L 27.59375 4.171875 
L 27.59375 33 
L 60.296875 33 
L 60.296875 4.171875 
L 49.703125 4.171875 
L 49.703125 0 
C 52.59375 0 63.296875 0 66.90625 0 
C 70.5 0 81.203125 0 84.09375 0 
L 84.09375 4.171875 
L 73.5 4.171875 
z
" id="CMBX12-72"/>
      <path d="M 44 40.234375 
C 44.90625 41.3125 44.90625 41.515625 44.90625 42.109375 
C 44.90625 44 43.90625 44 42 44 
L 5.796875 44 
L 4.703125 26.953125 
L 8.90625 26.953125 
C 9.5 36.359375 11.703125 40.71875 22.796875 40.71875 
L 31.796875 40.71875 
L 4 3.953125 
C 3.09375 2.875 3.09375 2.6875 3.09375 1.984375 
C 3.09375 0 4 0 6 0 
L 43.5 0 
L 45.203125 19.625 
L 41 19.625 
C 40.203125 9.125 38 3.578125 25.40625 3.578125 
L 16.296875 3.578125 
z
" id="CMBX12-122"/>
      <path d="M 32.796875 24.703125 
C 32.796875 42.984375 25.90625 60.78125 11.703125 72.3125 
C 9.09375 74.5 8.90625 74.5 7.90625 74.5 
C 7.40625 74.5 6.203125 74.5 6.203125 73.3125 
C 6.203125 72.921875 6.203125 72.71875 8.09375 70.9375 
C 19.296875 59.796875 23.59375 42.3125 23.59375 24.8125 
C 23.59375 5.21875 18.703125 -10.875 7.5 -22.109375 
C 6.296875 -23.3125 6.203125 -23.40625 6.203125 -23.8125 
C 6.203125 -25 7.40625 -25 7.90625 -25 
C 8.796875 -25 9 -25 11.59375 -22.90625 
C 26 -11.484375 32.796875 6.8125 32.796875 24.703125 
z
" id="CMBX12-41"/>
     </defs>
     <g style="fill:#262626;" transform="translate(264.88573 412.1)scale(0.22 -0.22)">
      <use transform="translate(0 -0.0934)scale(0.996264)" xlink:href="#CMBX12-70"/>
      <use transform="translate(61.113445 -0.0934)scale(0.996264)" xlink:href="#CMBX12-114"/>
      <use transform="translate(106.890953 -0.0934)scale(0.996264)" xlink:href="#CMBX12-101"/>
      <use transform="translate(158.03022 -0.0934)scale(0.996264)" xlink:href="#CMBX12-113"/>
      <use transform="translate(217.183396 -0.0934)scale(0.996264)" xlink:href="#CMBX12-117"/>
      <use transform="translate(279.449896 -0.0934)scale(0.996264)" xlink:href="#CMBX12-101"/>
      <use transform="translate(330.589163 -0.0934)scale(0.996264)" xlink:href="#CMBX12-110"/>
      <use transform="translate(392.855664 -0.0934)scale(0.996264)" xlink:href="#CMBX12-99"/>
      <use transform="translate(442.668864 -0.0934)scale(0.996264)" xlink:href="#CMBX12-121"/>
      <use transform="translate(539.18194 -0.0934)scale(0.996264)" xlink:href="#CMBX12-40"/>
      <use transform="translate(582.768491 -0.0934)scale(0.996264)" xlink:href="#CMBX12-72"/>
      <use transform="translate(670.402966 -0.0934)scale(0.996264)" xlink:href="#CMBX12-122"/>
      <use transform="translate(720.216166 -0.0934)scale(0.996264)" xlink:href="#CMBX12-41"/>
     </g>
    </g>
   </g>
   <g id="matplotlib.axis_2">
    <g id="ytick_1">
     <g id="line2d_5">
      <defs>
       <path d="M 0 0 
L -6 0 
" id="mf398f8b549" style="stroke:#262626;stroke-width:1.25;"/>
      </defs>
      <g>
       <use style="fill:#262626;stroke:#262626;stroke-width:1.25;" x="74.45691" xlink:href="#mf398f8b549" y="365.09886"/>
      </g>
     </g>
     <g id="text_6">
      <!-- $0.0$ -->
      <defs>
       <path d="M 23.703125 7.765625 
C 23.703125 12.046875 20.203125 15.53125 15.90625 15.53125 
C 11.59375 15.53125 8.09375 12.046875 8.09375 7.765625 
C 8.09375 3.484375 11.59375 0 15.90625 0 
C 20.203125 0 23.703125 3.484375 23.703125 7.765625 
z
" id="CMMIB10-58"/>
      </defs>
      <g style="fill:#262626;" transform="translate(38.95694 371.34886)scale(0.18 -0.18)">
       <use transform="scale(0.996264)" xlink:href="#CMBX12-48"/>
       <use transform="translate(56.039851 0)scale(0.996264)" xlink:href="#CMMIB10-58"/>
       <use transform="translate(87.864782 0)scale(0.996264)" xlink:href="#CMBX12-48"/>
      </g>
     </g>
    </g>
    <g id="ytick_2">
     <g id="line2d_6">
      <g>
       <use style="fill:#262626;stroke:#262626;stroke-width:1.25;" x="74.45691" xlink:href="#mf398f8b549" y="311.704121"/>
      </g>
     </g>
     <g id="text_7">
      <!-- $0.1$ -->
      <g style="fill:#262626;" transform="translate(38.95694 317.954121)scale(0.18 -0.18)">
       <use transform="scale(0.996264)" xlink:href="#CMBX12-48"/>
       <use transform="translate(56.039851 0)scale(0.996264)" xlink:href="#CMMIB10-58"/>
       <use transform="translate(87.864782 0)scale(0.996264)" xlink:href="#CMBX12-49"/>
      </g>
     </g>
    </g>
    <g id="ytick_3">
     <g id="line2d_7">
      <g>
       <use style="fill:#262626;stroke:#262626;stroke-width:1.25;" x="74.45691" xlink:href="#mf398f8b549" y="258.309382"/>
      </g>
     </g>
     <g id="text_8">
      <!-- $0.2$ -->
      <g style="fill:#262626;" transform="translate(38.95694 264.559382)scale(0.18 -0.18)">
       <use transform="scale(0.996264)" xlink:href="#CMBX12-48"/>
       <use transform="translate(56.039851 0)scale(0.996264)" xlink:href="#CMMIB10-58"/>
       <use transform="translate(87.864782 0)scale(0.996264)" xlink:href="#CMBX12-50"/>
      </g>
     </g>
    </g>
    <g id="ytick_4">
     <g id="line2d_8">
      <g>
       <use style="fill:#262626;stroke:#262626;stroke-width:1.25;" x="74.45691" xlink:href="#mf398f8b549" y="204.914643"/>
      </g>
     </g>
     <g id="text_9">
      <!-- $0.3$ -->
      <g style="fill:#262626;" transform="translate(38.95694 211.164643)scale(0.18 -0.18)">
       <use transform="scale(0.996264)" xlink:href="#CMBX12-48"/>
       <use transform="translate(56.039851 0)scale(0.996264)" xlink:href="#CMMIB10-58"/>
       <use transform="translate(87.864782 0)scale(0.996264)" xlink:href="#CMBX12-51"/>
      </g>
     </g>
    </g>
    <g id="ytick_5">
     <g id="line2d_9">
      <g>
       <use style="fill:#262626;stroke:#262626;stroke-width:1.25;" x="74.45691" xlink:href="#mf398f8b549" y="151.519904"/>
      </g>
     </g>
     <g id="text_10">
      <!-- $0.4$ -->
      <g style="fill:#262626;" transform="translate(38.95694 157.769904)scale(0.18 -0.18)">
       <use transform="scale(0.996264)" xlink:href="#CMBX12-48"/>
       <use transform="translate(56.039851 0)scale(0.996264)" xlink:href="#CMMIB10-58"/>
       <use transform="translate(87.864782 0)scale(0.996264)" xlink:href="#CMBX12-52"/>
      </g>
     </g>
    </g>
    <g id="ytick_6">
     <g id="line2d_10">
      <g>
       <use style="fill:#262626;stroke:#262626;stroke-width:1.25;" x="74.45691" xlink:href="#mf398f8b549" y="98.125165"/>
      </g>
     </g>
     <g id="text_11">
      <!-- $0.5$ -->
      <defs>
       <path d="M 15.40625 51.796875 
C 18.796875 51 21.5 51 23 51 
C 25.40625 51 31.09375 51 37.796875 55.109375 
C 40.90625 56.984375 46.09375 61.5 46.09375 63.796875 
C 46.09375 64.296875 46.09375 65.5 44.90625 65.5 
C 44.796875 65.5 44.59375 65.5 43.59375 64.984375 
C 39 63.34375 34.09375 62.21875 28.5 62.21875 
C 22.796875 62.21875 18 63.3125 13.296875 65 
C 12.59375 65.203125 12.296875 65.40625 12 65.40625 
C 10.796875 65.40625 10.796875 64.40625 10.796875 62.71875 
L 10.796875 33.796875 
C 10.796875 31.90625 10.796875 30.8125 12.796875 30.8125 
C 13.796875 30.8125 14 30.921875 14.796875 31.90625 
C 16 33.3125 19.59375 37.71875 28.09375 37.71875 
C 37.296875 37.71875 37.296875 28.359375 37.296875 20.5 
C 37.296875 13.3125 37.296875 2.96875 25 2.96875 
C 21.296875 2.96875 15 4.359375 11.59375 10 
C 16.90625 10 18.203125 13.984375 18.203125 16.171875 
C 18.203125 19.75 15.59375 22.421875 11.90625 22.421875 
C 8.90625 22.421875 5.59375 20.640625 5.59375 15.96875 
C 5.59375 7.34375 13.5 -1 25.40625 -1 
C 40.796875 -1 50.5 7.859375 50.5 20.203125 
C 50.5 32.34375 42.203125 41 28.5 41 
C 24.5 41 19.703125 40.203125 15.40625 37.015625 
z
" id="CMBX12-53"/>
      </defs>
      <g style="fill:#262626;" transform="translate(38.95694 104.375165)scale(0.18 -0.18)">
       <use transform="scale(0.996264)" xlink:href="#CMBX12-48"/>
       <use transform="translate(56.039851 0)scale(0.996264)" xlink:href="#CMMIB10-58"/>
       <use transform="translate(87.864782 0)scale(0.996264)" xlink:href="#CMBX12-53"/>
      </g>
     </g>
    </g>
    <g id="ytick_7">
     <g id="line2d_11">
      <g>
       <use style="fill:#262626;stroke:#262626;stroke-width:1.25;" x="74.45691" xlink:href="#mf398f8b549" y="44.730426"/>
      </g>
     </g>
     <g id="text_12">
      <!-- $0.6$ -->
      <defs>
       <path d="M 17.40625 36.25 
C 17.40625 42.328125 17.703125 48.53125 20.5 53.90625 
C 22.703125 58.109375 27.796875 62 34.296875 62 
C 36.203125 62 39.796875 61.703125 42.203125 59.203125 
C 38.40625 58.8125 36.796875 56.015625 36.796875 53.3125 
C 36.796875 49.703125 39.5 47.40625 42.703125 47.40625 
C 45.296875 47.40625 48.59375 49.109375 48.59375 53.5 
C 48.59375 59.484375 44.59375 65.578125 34.09375 65.578125 
C 21.59375 65.578125 4.703125 57.796875 4.703125 31.796875 
C 4.703125 25.109375 4.703125 -1 28.40625 -1 
C 41.59375 -1 51.40625 6.765625 51.40625 20.703125 
C 51.40625 34.640625 41.703125 42 29.796875 42 
C 27.796875 42 21.40625 42 17.40625 33.546875 
z
M 28.296875 2.96875 
C 21.90625 2.96875 19.40625 8.34375 19 9.140625 
C 17.59375 12.4375 17.59375 20.40625 17.59375 21.296875 
C 17.59375 33.546875 22.90625 38.734375 28.796875 38.734375 
C 38.703125 38.734375 38.703125 30.765625 38.703125 20.796875 
C 38.703125 10.9375 38.703125 2.96875 28.296875 2.96875 
z
" id="CMBX12-54"/>
      </defs>
      <g style="fill:#262626;" transform="translate(38.95694 50.980426)scale(0.18 -0.18)">
       <use transform="scale(0.996264)" xlink:href="#CMBX12-48"/>
       <use transform="translate(56.039851 0)scale(0.996264)" xlink:href="#CMMIB10-58"/>
       <use transform="translate(87.864782 0)scale(0.996264)" xlink:href="#CMBX12-54"/>
      </g>
     </g>
    </g>
    <g id="text_13">
     <!-- \textbf{Normalized Amplitude} -->
     <defs>
      <path d="M 29 66.90625 
C 28 68 27.90625 68 25.90625 68 
L 3.796875 68 
L 3.796875 63.828125 
L 14.40625 63.828125 
L 14.40625 6.953125 
C 14.40625 4.75 14.296875 4.65625 11.703125 4.25 
C 9.90625 4.0625 7.90625 4.0625 6.09375 4.0625 
L 3.796875 4.0625 
L 3.796875 -0.203125 
C 6.09375 0 13.90625 0 16.703125 0 
C 19.5 0 27.40625 0 29.703125 -0.203125 
L 29.703125 4.0625 
L 27.40625 4.0625 
C 24.703125 4.0625 24.5 4.0625 22.09375 4.359375 
C 19.203125 4.765625 19.09375 4.859375 19.09375 7.046875 
L 19.09375 60.4375 
L 68.59375 1.296875 
C 69.703125 0.09375 69.796875 0 71.09375 0 
C 73.5 0 73.5 0.59375 73.5 2.875 
L 73.5 60.9375 
C 73.5 63.125 73.59375 63.234375 76.203125 63.625 
C 78 63.828125 80 63.828125 81.796875 63.828125 
L 84.09375 63.828125 
L 84.09375 68.109375 
C 81.796875 68 74 68 71.203125 68 
C 68.40625 68 60.5 68 58.203125 68.109375 
L 58.203125 63.828125 
L 60.5 63.828125 
C 63.203125 63.828125 63.40625 63.828125 65.796875 63.53125 
C 68.703125 63.140625 68.796875 63.03125 68.796875 60.828125 
L 68.796875 19.203125 
z
" id="CMBX12-78"/>
      <path d="M 53 21.796875 
C 53 35.1875 43.796875 45 28.09375 45 
C 11.796875 45 3.09375 34.6875 3.09375 21.796875 
C 3.09375 8.828125 12.296875 -0.5 28 -0.5 
C 44.296875 -0.5 53 9.3125 53 21.796875 
z
M 28.09375 3.078125 
C 15.09375 3.078125 15.09375 14.671875 15.09375 22.796875 
C 15.09375 27.453125 15.09375 32.40625 17 35.984375 
C 19.203125 39.9375 23.703125 41.71875 28 41.71875 
C 33.703125 41.71875 37.296875 39.046875 39 36.28125 
C 41 32.703125 41 27.546875 41 22.796875 
C 41 14.5625 41 3.078125 28.09375 3.078125 
z
" id="CMBX12-111"/>
      <path d="M 84.40625 30.0625 
C 84.40625 39.15625 80.5 44.28125 69.296875 44.28125 
C 59.203125 44.28125 54.5 37.609375 52.90625 34.46875 
C 51.296875 42.8125 44.5 44.28125 38.09375 44.28125 
C 28.5 44.28125 23.296875 38.203125 21.203125 33.484375 
L 21.09375 33.484375 
L 21.09375 44 
L 4.203125 44 
L 4.203125 39.328125 
C 10.40625 39.328125 11.09375 39.328125 11.09375 35.46875 
L 11.09375 4.0625 
L 4.203125 4.0625 
L 4.203125 -0.203125 
C 6.5 0 13.703125 0 16.5 0 
C 19.296875 0 26.59375 0 28.90625 -0.203125 
L 28.90625 4.0625 
L 22 4.0625 
L 22 25.109375 
C 22 35.875 30.09375 41 36.40625 41 
C 40.09375 41 42.296875 38.828125 42.296875 31.140625 
L 42.296875 4.0625 
L 35.40625 4.0625 
L 35.40625 -0.203125 
C 37.703125 0 44.90625 0 47.703125 0 
C 50.5 0 57.796875 0 60.09375 -0.203125 
L 60.09375 4.0625 
L 53.203125 4.0625 
L 53.203125 25.109375 
C 53.203125 35.875 61.296875 41 67.59375 41 
C 71.296875 41 73.5 38.828125 73.5 31.140625 
L 73.5 4.0625 
L 66.59375 4.0625 
L 66.59375 -0.203125 
C 68.90625 0 76.09375 0 78.90625 0 
C 81.703125 0 89 0 91.296875 -0.203125 
L 91.296875 4.0625 
L 84.40625 4.0625 
z
" id="CMBX12-109"/>
      <path d="M 46 29.65625 
C 46 38.8125 38.703125 44.984375 24.59375 44.984375 
C 19 44.984375 7.203125 44.984375 7.203125 36.46875 
C 7.203125 32.203125 10.40625 30.390625 13.09375 30.390625 
C 16.09375 30.390625 19 32.484375 19 36.296875 
C 19 38.203125 18.296875 39.984375 16.59375 41.09375 
C 19.90625 42 22.296875 42 24.203125 42 
C 31 42 35.09375 38.203125 35.09375 29.984375 
L 35.09375 25.984375 
C 19.296875 25.984375 3.40625 21.59375 3.40625 10.5625 
C 3.40625 1.484375 15 -0.5 21.90625 -0.5 
C 29.59375 -0.5 34.5 3.640625 36.5 7.96875 
C 36.5 4.28125 36.5 0 46.59375 0 
L 51.703125 0 
C 53.796875 0 54.59375 0 54.59375 2.265625 
C 54.59375 4.265625 53.703125 4.265625 52.296875 4.265625 
C 46 4.265625 46 5.84375 46 8.15625 
z
M 35.09375 13.78125 
C 35.09375 4.546875 26.703125 2.78125 23.5 2.78125 
C 18.59375 2.78125 14.5 6.09375 14.5 10.71875 
C 14.5 19.890625 25.296875 23 35.09375 23 
z
" id="CMBX12-97"/>
      <path d="M 21.703125 69 
L 4.40625 69 
L 4.40625 64.328125 
C 10.59375 64.328125 11.296875 64.328125 11.296875 60.40625 
L 11.296875 4.0625 
L 4.40625 4.0625 
L 4.40625 -0.203125 
C 6.703125 0 13.796875 0 16.5 0 
C 19.203125 0 26.296875 0 28.59375 -0.203125 
L 28.59375 4.0625 
L 21.703125 4.0625 
z
" id="CMBX12-108"/>
      <path d="M 22.296875 61.84375 
C 22.296875 65.921875 19 69 15.09375 69 
C 11 69 7.90625 65.625 7.90625 61.84375 
C 7.90625 58.0625 11 54.6875 15.09375 54.6875 
C 19 54.6875 22.296875 57.765625 22.296875 61.84375 
z
M 4.703125 44 
L 4.703125 39.328125 
C 10.59375 39.328125 11.296875 39.328125 11.296875 35.46875 
L 11.296875 4.0625 
L 4.40625 4.0625 
L 4.40625 -0.203125 
C 6.703125 0 13.59375 0 16.296875 0 
C 19.09375 0 25.5 0 27.90625 -0.203125 
L 27.90625 4.0625 
L 21.703125 4.0625 
L 21.703125 44 
z
" id="CMBX12-105"/>
      <path d="M 34.703125 69 
L 34.703125 64.328125 
C 40.90625 64.328125 41.59375 64.328125 41.59375 60.421875 
L 41.59375 40.234375 
C 39.40625 42.125 35 45 28.09375 45 
C 13.90625 45 3.796875 36.21875 3.796875 22.25 
C 3.796875 7.96875 13.703125 -0.5 27 -0.5 
C 32.5 -0.5 37.203125 1.46875 41.09375 4.859375 
L 41.09375 0 
L 58.90625 0 
L 58.90625 4.5625 
C 52.703125 4.5625 52 4.5625 52 8.4375 
L 52 69 
z
M 41.09375 10.328125 
C 36.90625 4.09375 31.796875 2.78125 28.203125 2.78125 
C 15.796875 2.78125 15.796875 15.453125 15.796875 22.046875 
C 15.796875 26.75 15.796875 31.75 18 35.53125 
C 21.09375 41.125 27 41.71875 29.296875 41.71875 
C 33.40625 41.71875 37.796875 39.9375 41.09375 35.5625 
z
" id="CMBX12-100"/>
      <path d="M 45.796875 67.203125 
C 45.09375 69 44.90625 69.5 42.5 69.5 
C 40 69.5 39.796875 69 39.09375 67.203125 
L 14.296875 6.453125 
C 13.59375 4.859375 13.59375 4.671875 10.796875 4.359375 
C 8.296875 4.0625 7.90625 4.0625 5.703125 4.0625 
L 3.90625 4.0625 
L 3.90625 -0.203125 
C 6.5 0 12.5 0 15.40625 0 
C 18.09375 0 25.40625 0 27.703125 -0.203125 
L 27.703125 4.0625 
C 25.5 4.0625 21.703125 4.0625 18.90625 5.171875 
C 19.203125 6.09375 19.203125 6.28125 19.40625 6.6875 
L 24.703125 19.71875 
L 51.5 19.71875 
L 57.796875 4.0625 
L 48.40625 4.0625 
L 48.40625 0 
C 51.59375 0 61.296875 0 65.09375 0 
C 68.296875 0 78.5 0 81 -0.203125 
L 81 4.0625 
L 71.5 4.0625 
z
M 38.09375 52.609375 
L 49.703125 24 
L 26.40625 24 
z
" id="CMBX12-65"/>
      <path d="M 28.203125 -14.921875 
L 21.296875 -14.921875 
L 21.296875 4.1875 
C 23.796875 2 28.203125 -0.5 34.203125 -0.5 
C 47.90625 -0.5 58.59375 7.703125 58.59375 22.140625 
C 58.59375 35.78125 49.296875 44.578125 35.796875 44.578125 
C 29.90625 44.578125 24.796875 42.78125 20.796875 39.90625 
L 20.796875 44.671875 
L 3.5 44.671875 
L 3.5 40 
C 9.703125 40 10.40625 40 10.40625 36.09375 
L 10.40625 -14.921875 
L 3.5 -14.921875 
L 3.5 -19.1875 
C 5.796875 -19 13 -19 15.796875 -19 
C 18.59375 -19 25.90625 -19 28.203125 -19.1875 
z
M 21.296875 35.09375 
C 25 39.53125 30.296875 41 34.203125 41 
C 40.703125 41 46.59375 35.171875 46.59375 22.140625 
C 46.59375 7.8125 39.40625 2.78125 33 2.78125 
C 28.703125 2.78125 24.40625 4.984375 21.296875 9.6875 
z
" id="CMBX12-112"/>
      <path d="M 21.09375 40 
L 35.5 40 
L 35.5 44.265625 
L 21.09375 44.265625 
L 21.09375 63 
L 16.90625 63 
C 16.796875 53.203125 12 43.375 2.09375 43.375 
L 2.09375 40 
L 10.203125 40 
L 10.203125 12.328125 
C 10.203125 1.78125 18.40625 -0.5 25.59375 -0.5 
C 33 -0.5 37.40625 5.078125 37.40625 12.421875 
L 37.40625 17.703125 
L 33.203125 17.703125 
L 33.203125 12.53125 
C 33.203125 5.953125 30.203125 3.078125 27.09375 3.078125 
C 21.09375 3.078125 21.09375 9.75 21.09375 12.03125 
z
" id="CMBX12-116"/>
     </defs>
     <g style="fill:#262626;" transform="translate(29.67777 313.63313)rotate(-90)scale(0.22 -0.22)">
      <use transform="translate(0 -0.072648)scale(0.996264)" xlink:href="#CMBX12-78"/>
      <use transform="translate(87.634475 -0.072648)scale(0.996264)" xlink:href="#CMBX12-111"/>
      <use transform="translate(143.674326 -0.072648)scale(0.996264)" xlink:href="#CMBX12-114"/>
      <use transform="translate(189.451833 -0.072648)scale(0.996264)" xlink:href="#CMBX12-109"/>
      <use transform="translate(282.851584 -0.072648)scale(0.996264)" xlink:href="#CMBX12-97"/>
      <use transform="translate(337.334772 -0.072648)scale(0.996264)" xlink:href="#CMBX12-108"/>
      <use transform="translate(368.468022 -0.072648)scale(0.996264)" xlink:href="#CMBX12-105"/>
      <use transform="translate(399.601272 -0.072648)scale(0.996264)" xlink:href="#CMBX12-122"/>
      <use transform="translate(449.414473 -0.072648)scale(0.996264)" xlink:href="#CMBX12-101"/>
      <use transform="translate(500.55374 -0.072648)scale(0.996264)" xlink:href="#CMBX12-100"/>
      <use transform="translate(600.180141 -0.072648)scale(0.996264)" xlink:href="#CMBX12-65"/>
      <use transform="translate(684.816536 -0.072648)scale(0.996264)" xlink:href="#CMBX12-109"/>
      <use transform="translate(778.216287 -0.072648)scale(0.996264)" xlink:href="#CMBX12-112"/>
      <use transform="translate(840.482787 -0.072648)scale(0.996264)" xlink:href="#CMBX12-108"/>
      <use transform="translate(871.616038 -0.072648)scale(0.996264)" xlink:href="#CMBX12-105"/>
      <use transform="translate(902.749288 -0.072648)scale(0.996264)" xlink:href="#CMBX12-116"/>
      <use transform="translate(946.335838 -0.072648)scale(0.996264)" xlink:href="#CMBX12-117"/>
      <use transform="translate(1008.602339 -0.072648)scale(0.996264)" xlink:href="#CMBX12-100"/>
      <use transform="translate(1070.86884 -0.072648)scale(0.996264)" xlink:href="#CMBX12-101"/>
     </g>
    </g>
   </g>
   <g id="line2d_12">
    <path clip-path="url(#p3882eb53f4)" d="M 74.45691 300.466994 
L 74.993555 273.368062 
L 75.5302 290.446511 
L 76.066845 273.688397 
L 77.140134 265.289543 
L 77.676779 289.954409 
L 78.213424 293.516157 
L 78.750069 278.78374 
L 79.286714 277.551384 
L 79.823359 288.0005 
L 80.360003 266.847314 
L 80.896648 270.308871 
L 81.433293 297.289349 
L 81.969938 288.811028 
L 82.506583 275.209068 
L 83.043228 280.730783 
L 83.579873 280.380314 
L 84.116518 284.89853 
L 84.653162 270.37036 
L 85.189807 269.382186 
L 85.726452 291.349513 
L 86.263097 286.051524 
L 86.799742 272.339309 
L 87.336387 274.401751 
L 87.873032 288.854476 
L 88.409676 285.556673 
L 88.946321 274.398494 
L 89.482966 277.504975 
L 90.019611 279.644988 
L 90.556256 300.812858 
L 91.092901 291.206418 
L 91.629546 283.999848 
L 92.16619 267.724336 
L 92.702835 292.243458 
L 93.23948 300.132023 
L 93.776125 286.410783 
L 94.31277 269.200284 
L 94.849415 270.196959 
L 95.38606 274.807656 
L 95.922705 272.037652 
L 96.459349 267.426956 
L 96.995994 273.20473 
L 97.532639 281.613931 
L 98.069284 296.709007 
L 98.605929 291.04904 
L 99.142574 296.394829 
L 99.679219 295.460394 
L 100.215863 279.928154 
L 100.752508 275.615266 
L 101.289153 261.546523 
L 101.825798 272.139604 
L 102.362443 270.037658 
L 102.899088 275.059124 
L 103.435733 269.947845 
L 103.972377 282.032517 
L 104.509022 279.36791 
L 105.045667 263.47585 
L 105.582312 278.934367 
L 106.118957 284.257795 
L 106.655602 286.717297 
L 107.192247 300.172601 
L 107.728892 289.544685 
L 108.265536 262.485308 
L 108.802181 269.732827 
L 109.338826 273.442882 
L 109.875471 249.705942 
L 110.948761 285.161814 
L 112.02205 279.855936 
L 112.558695 277.7348 
L 113.09534 279.223284 
L 113.631985 275.222969 
L 114.16863 273.427761 
L 114.705275 277.948972 
L 115.24192 276.211085 
L 115.778564 269.409116 
L 116.315209 272.221145 
L 116.851854 264.651653 
L 117.388499 261.688823 
L 117.925144 269.144249 
L 118.998434 272.008965 
L 119.535079 272.794934 
L 120.071723 266.850454 
L 120.608368 274.919116 
L 121.145013 280.267246 
L 121.681658 270.360203 
L 122.218303 274.16403 
L 122.754948 281.988103 
L 123.291593 274.573577 
L 123.828237 277.428957 
L 124.364882 296.454762 
L 124.901527 291.448825 
L 125.438172 280.629301 
L 125.974817 281.951099 
L 126.511462 279.078366 
L 127.048107 271.184874 
L 127.584751 275.446217 
L 128.121396 229.49398 
L 129.194686 43.066947 
L 129.731331 49.950641 
L 130.267976 157.522854 
L 130.804621 241.857352 
L 131.341266 296.23812 
L 131.87791 296.88977 
L 132.414555 269.926418 
L 132.9512 297.024371 
L 133.487845 280.690331 
L 134.02449 278.235605 
L 134.561135 288.128267 
L 135.09778 268.054098 
L 135.634424 257.642875 
L 136.171069 275.807734 
L 136.707714 281.928749 
L 137.244359 291.074614 
L 137.781004 272.980796 
L 138.317649 279.647151 
L 138.854294 278.073917 
L 139.390938 270.908904 
L 139.927583 277.291003 
L 140.464228 273.80946 
L 141.000873 282.369369 
L 141.537518 274.56669 
L 142.074163 276.567981 
L 142.610808 286.847268 
L 143.147453 293.389055 
L 143.684097 290.817958 
L 144.220742 274.582865 
L 144.757387 277.656643 
L 145.294032 285.037723 
L 145.830677 299.125855 
L 146.367322 274.108319 
L 146.903967 272.501915 
L 147.440611 295.283614 
L 147.977256 287.256028 
L 148.513901 288.338549 
L 149.050546 293.328161 
L 149.587191 317.434634 
L 150.123836 284.560197 
L 150.660481 274.849901 
L 151.197125 290.100635 
L 151.73377 296.116821 
L 152.270415 279.221089 
L 152.80706 275.36019 
L 153.343705 280.368336 
L 153.88035 278.905233 
L 154.416995 270.605514 
L 154.953639 279.074567 
L 155.490284 273.696645 
L 156.026929 264.863685 
L 157.636864 285.028134 
L 158.173509 282.094912 
L 158.710154 268.271382 
L 159.246798 272.706373 
L 159.783443 287.428814 
L 160.320088 295.342072 
L 160.856733 291.251635 
L 161.393378 266.050168 
L 161.930023 262.859849 
L 162.466668 267.692566 
L 163.003312 290.605372 
L 163.539957 287.087537 
L 164.076602 266.561465 
L 165.149892 276.531304 
L 165.686537 275.576702 
L 166.223182 276.67451 
L 166.759826 270.390095 
L 167.296471 275.30312 
L 167.833116 286.501666 
L 168.369761 273.334863 
L 168.906406 272.712137 
L 169.443051 281.974933 
L 169.979696 282.604343 
L 170.516341 286.297181 
L 171.052985 288.21191 
L 171.58963 292.419555 
L 172.126275 291.642625 
L 172.66292 283.768096 
L 173.199565 270.6012 
L 173.73621 263.615535 
L 174.272855 261.0175 
L 175.346144 267.184631 
L 175.882789 280.658362 
L 176.419434 277.420236 
L 176.956079 293.696889 
L 177.492724 288.718985 
L 178.029369 276.758393 
L 178.566013 286.894691 
L 179.102658 285.524897 
L 179.639303 293.306107 
L 180.175948 295.582137 
L 180.712593 294.35661 
L 181.785883 303.363881 
L 182.322528 274.856942 
L 182.859172 286.812019 
L 183.395817 292.556785 
L 183.932462 263.279715 
L 184.469107 276.599292 
L 185.005752 284.25313 
L 185.542397 288.378023 
L 186.079042 290.640154 
L 186.615686 288.457515 
L 187.152331 303.102878 
L 187.688976 306.972941 
L 188.225621 293.026667 
L 188.762266 283.091579 
L 189.298911 269.492603 
L 189.835556 279.047433 
L 190.3722 280.31432 
L 190.908845 268.023629 
L 191.44549 275.034251 
L 191.982135 271.959076 
L 192.51878 264.798861 
L 193.055425 273.272929 
L 193.59207 275.644842 
L 194.128715 270.353233 
L 194.665359 254.85456 
L 195.202004 258.759016 
L 195.738649 277.338507 
L 196.275294 290.658248 
L 196.811939 281.99279 
L 197.348584 292.327432 
L 197.885229 281.567171 
L 198.421873 293.153024 
L 198.958518 272.656572 
L 199.495163 266.656056 
L 200.031808 292.16136 
L 200.568453 271.679244 
L 201.105098 263.113345 
L 201.641743 269.22043 
L 202.178387 277.491015 
L 202.715032 279.779788 
L 203.251677 266.866911 
L 203.788322 270.792171 
L 204.324967 254.871159 
L 204.861612 253.438529 
L 205.398257 278.382855 
L 205.934902 272.519979 
L 206.471546 262.610896 
L 207.008191 268.616503 
L 207.544836 290.608565 
L 208.081481 289.823122 
L 208.618126 274.31042 
L 209.154771 265.75085 
L 209.691416 273.875419 
L 210.22806 263.724439 
L 210.764705 258.045888 
L 211.30135 273.79465 
L 211.837995 262.560948 
L 212.37464 266.62975 
L 212.911285 274.907407 
L 213.44793 292.583468 
L 213.984574 293.678961 
L 214.521219 304.296335 
L 215.057864 309.162295 
L 215.594509 281.622136 
L 216.131154 283.603093 
L 216.667799 279.414073 
L 217.204444 292.752233 
L 217.741088 290.6572 
L 218.277733 269.437645 
L 218.814378 265.078024 
L 219.351023 283.401231 
L 219.887668 291.678255 
L 220.424313 278.763028 
L 220.960958 273.16496 
L 222.034247 292.793011 
L 222.570892 288.417298 
L 223.107537 296.805128 
L 223.644182 286.57746 
L 224.180827 285.21012 
L 224.717472 277.62122 
L 225.254117 278.235359 
L 225.790761 258.513466 
L 226.327406 264.292092 
L 227.400696 285.5133 
L 227.937341 273.658926 
L 228.473986 267.979704 
L 229.010631 272.416151 
L 229.547275 279.014677 
L 230.08392 294.471845 
L 230.620565 283.537555 
L 231.15721 269.768155 
L 231.693855 291.761596 
L 232.2305 290.609704 
L 232.767145 284.173936 
L 233.30379 284.63371 
L 233.840434 279.18832 
L 234.377079 272.149538 
L 235.450369 281.077672 
L 235.987014 293.105137 
L 236.523659 271.599412 
L 237.060304 270.30925 
L 237.596948 264.986621 
L 238.133593 269.771713 
L 238.670238 294.783019 
L 239.206883 270.102904 
L 239.743528 262.759886 
L 240.280173 269.762779 
L 240.816818 263.778195 
L 241.353462 282.598419 
L 241.890107 289.712712 
L 242.426752 280.430498 
L 242.963397 283.203221 
L 243.500042 267.343745 
L 244.036687 272.946797 
L 244.573332 280.238553 
L 245.109977 272.543586 
L 245.646621 287.020039 
L 246.183266 282.532122 
L 247.256556 293.891698 
L 247.793201 293.653521 
L 248.329846 262.506159 
L 248.866491 252.324666 
L 249.403135 259.785279 
L 249.93978 283.076651 
L 250.476425 280.929422 
L 251.01307 283.998759 
L 251.549715 280.891889 
L 252.08636 263.102669 
L 252.623005 275.859695 
L 253.159649 282.130433 
L 253.696294 275.894341 
L 254.232939 314.618963 
L 254.769584 273.336967 
L 255.306229 269.75019 
L 255.842874 280.600714 
L 256.379519 275.714996 
L 256.916164 275.473063 
L 257.452808 274.079297 
L 257.989453 270.137503 
L 258.526098 271.838412 
L 259.062743 264.246377 
L 259.599388 265.152152 
L 260.136033 267.278402 
L 260.672678 275.55279 
L 261.209322 298.574904 
L 261.745967 295.685035 
L 262.282612 278.779094 
L 262.819257 266.051299 
L 263.355902 270.037387 
L 263.892547 275.460404 
L 264.965836 294.333228 
L 265.502481 285.678433 
L 266.039126 289.139773 
L 266.575771 284.071322 
L 267.112416 287.650061 
L 267.649061 286.135088 
L 268.185706 294.864368 
L 268.722351 268.416246 
L 269.258995 258.628382 
L 269.79564 261.392861 
L 270.332285 255.368747 
L 270.86893 265.577164 
L 271.405575 273.320364 
L 271.94222 278.897864 
L 272.478865 264.026276 
L 273.015509 261.435436 
L 274.088799 277.82987 
L 274.625444 286.839336 
L 275.162089 293.964541 
L 275.698734 283.434861 
L 276.235379 291.473392 
L 276.772023 291.384411 
L 277.308668 295.169366 
L 277.845313 267.896146 
L 278.381958 277.11614 
L 278.918603 275.366381 
L 279.455248 270.134745 
L 279.991893 282.351239 
L 280.528538 279.489204 
L 281.065182 273.065986 
L 281.601827 290.926338 
L 282.138472 303.55148 
L 282.675117 288.902742 
L 283.211762 287.977701 
L 283.748407 270.045445 
L 284.285052 267.61757 
L 284.821696 280.617586 
L 285.358341 284.630295 
L 285.894986 280.130829 
L 286.431631 273.597343 
L 286.968276 276.623584 
L 287.504921 294.351605 
L 288.041566 289.404217 
L 288.57821 276.828204 
L 289.114855 272.512892 
L 289.6515 271.797054 
L 291.261435 287.934555 
L 291.79808 307.406403 
L 292.334724 282.480772 
L 292.871369 277.863893 
L 293.408014 284.482304 
L 293.944659 270.068686 
L 294.481304 274.844948 
L 295.017949 284.427326 
L 295.554594 296.621482 
L 296.091239 291.846315 
L 296.627883 273.189765 
L 297.164528 262.864512 
L 298.237818 289.164599 
L 299.311108 262.841165 
L 299.847753 265.905885 
L 300.384397 267.263332 
L 300.921042 271.744054 
L 301.457687 286.764658 
L 301.994332 279.715988 
L 302.530977 292.448208 
L 303.067622 281.359249 
L 303.604267 273.577202 
L 304.140911 268.343118 
L 304.677556 284.584289 
L 305.214201 294.963187 
L 305.750846 293.968054 
L 306.287491 300.31498 
L 306.824136 289.122204 
L 307.360781 283.231087 
L 307.897426 286.419181 
L 308.43407 298.522385 
L 308.970715 283.715925 
L 309.50736 287.110752 
L 310.044005 278.709905 
L 310.58065 294.502031 
L 311.117295 290.886844 
L 311.65394 275.158406 
L 312.190584 280.847622 
L 312.727229 276.124877 
L 313.263874 261.069909 
L 313.800519 267.50275 
L 314.337164 265.985032 
L 315.410454 281.266499 
L 315.947098 280.97972 
L 316.483743 291.792314 
L 317.020388 288.116578 
L 317.557033 281.242743 
L 318.093678 283.903604 
L 318.630323 285.106461 
L 319.166968 281.63049 
L 319.703613 289.793252 
L 320.240257 280.945657 
L 320.776902 276.562241 
L 321.313547 273.866838 
L 321.850192 285.358128 
L 322.386837 303.146224 
L 322.923482 309.935166 
L 323.460127 293.330398 
L 323.996771 288.617778 
L 324.533416 274.741611 
L 325.070061 277.642324 
L 325.606706 286.170237 
L 326.679996 257.213559 
L 327.216641 268.554275 
L 327.753285 275.038976 
L 328.28993 273.854515 
L 328.826575 276.131438 
L 329.36322 292.996135 
L 329.899865 281.16406 
L 330.43651 263.156359 
L 330.973155 267.639963 
L 331.5098 265.955392 
L 332.046444 277.667251 
L 332.583089 279.343235 
L 333.119734 273.235888 
L 333.656379 291.78815 
L 334.193024 276.656321 
L 334.729669 275.378738 
L 335.266314 261.94648 
L 335.802958 271.507792 
L 336.339603 274.098959 
L 336.876248 271.75805 
L 337.412893 279.664791 
L 337.949538 277.199547 
L 338.486183 299.398322 
L 339.022828 291.961122 
L 339.559472 275.103718 
L 340.096117 293.290501 
L 340.632762 279.727787 
L 341.169407 289.313867 
L 341.706052 263.352943 
L 342.242697 254.50283 
L 342.779342 267.558328 
L 343.852631 283.302983 
L 344.389276 277.131313 
L 344.925921 273.867992 
L 345.462566 281.209851 
L 345.999211 307.697429 
L 346.535856 276.215357 
L 347.072501 277.751571 
L 347.609145 294.031934 
L 348.14579 278.893978 
L 348.682435 272.414199 
L 349.755725 273.398939 
L 350.29237 276.132631 
L 350.829015 260.078047 
L 351.365659 260.442087 
L 351.902304 267.048889 
L 352.438949 283.754297 
L 352.975594 279.777572 
L 353.512239 279.183215 
L 354.048884 276.485509 
L 354.585529 275.164339 
L 355.122173 264.878131 
L 355.658818 258.989847 
L 356.195463 288.665027 
L 356.732108 295.280097 
L 357.268753 296.872437 
L 357.805398 287.696961 
L 358.342043 275.13012 
L 358.878688 274.914483 
L 359.415332 293.531307 
L 359.951977 290.9615 
L 360.488622 286.238372 
L 361.025267 274.290272 
L 361.561912 290.531487 
L 362.098557 287.680725 
L 362.635202 282.803389 
L 363.171846 272.765241 
L 363.708491 278.744948 
L 364.245136 291.455114 
L 364.781781 290.430656 
L 365.318426 267.503245 
L 365.855071 277.648431 
L 366.391716 282.905172 
L 366.92836 266.068573 
L 367.465005 276.785048 
L 368.00165 281.818229 
L 368.538295 274.129483 
L 369.07494 300.111938 
L 369.611585 286.537386 
L 370.14823 282.18884 
L 371.221519 259.495668 
L 371.758164 269.763579 
L 372.294809 269.90501 
L 372.831454 286.294005 
L 373.368099 290.280783 
L 373.904744 283.050353 
L 374.441389 304.837475 
L 374.978033 318.581196 
L 375.514678 284.865229 
L 376.051323 266.902902 
L 376.587968 262.243013 
L 377.124613 269.295596 
L 377.661258 269.280591 
L 378.197903 270.043095 
L 378.734547 292.468743 
L 379.271192 274.14306 
L 379.807837 274.36745 
L 380.344482 329.736413 
L 380.881127 298.910359 
L 381.417772 287.803727 
L 381.954417 273.037141 
L 382.491062 277.466085 
L 383.027706 299.499741 
L 383.564351 298.16655 
L 384.100996 278.664094 
L 384.637641 273.85507 
L 385.174286 291.562252 
L 385.710931 285.580561 
L 386.247576 260.860625 
L 386.78422 266.110228 
L 387.320865 273.318731 
L 387.85751 267.615344 
L 388.9308 292.013456 
L 389.467445 311.356154 
L 390.540734 285.519604 
L 391.077379 271.976575 
L 391.614024 279.462532 
L 392.150669 281.272572 
L 392.687314 289.074968 
L 393.223959 299.93949 
L 393.760604 287.81821 
L 394.297249 282.876826 
L 394.833893 297.214975 
L 395.370538 301.732162 
L 396.980473 277.338353 
L 397.517118 277.748409 
L 398.053763 306.621175 
L 398.590407 291.610473 
L 399.127052 281.655828 
L 399.663697 266.418911 
L 400.200342 275.087364 
L 400.736987 281.326185 
L 401.273632 285.195626 
L 401.810277 285.527927 
L 402.346921 288.478016 
L 402.883566 301.374958 
L 403.420211 277.486706 
L 403.956856 286.475943 
L 404.493501 299.508973 
L 405.030146 279.346656 
L 405.566791 277.206629 
L 406.103436 280.932694 
L 406.64008 279.210647 
L 407.176725 281.801644 
L 407.71337 277.867552 
L 408.78666 286.737659 
L 409.323305 272.201563 
L 409.85995 273.582003 
L 410.396594 269.298432 
L 410.933239 262.078936 
L 411.469884 268.438031 
L 412.006529 269.735471 
L 412.543174 279.432707 
L 413.079819 263.783886 
L 413.616464 273.571262 
L 414.153108 264.39736 
L 414.689753 280.869345 
L 415.226398 279.761823 
L 415.763043 280.637838 
L 416.299688 275.544063 
L 416.836333 259.888318 
L 417.372978 271.263623 
L 417.909623 290.985701 
L 418.446267 282.001943 
L 418.982912 281.117888 
L 419.519557 286.93111 
L 420.056202 286.216725 
L 420.592847 279.460141 
L 421.129492 274.725491 
L 421.666137 277.007423 
L 422.202781 283.263194 
L 422.739426 298.228872 
L 423.812716 283.678946 
L 424.349361 273.25081 
L 424.886006 276.487938 
L 425.422651 280.871703 
L 425.959295 270.651242 
L 426.49594 265.529789 
L 427.032585 277.093547 
L 427.56923 298.570346 
L 428.105875 285.926569 
L 428.64252 277.503348 
L 429.179165 275.290982 
L 429.715809 263.1078 
L 430.252454 267.374119 
L 430.789099 265.993278 
L 431.325744 273.772086 
L 431.862389 278.273247 
L 432.399034 281.62019 
L 432.935679 287.983596 
L 433.472324 295.90486 
L 434.008968 281.683462 
L 434.545613 255.265108 
L 435.082258 275.778848 
L 435.618903 289.79895 
L 436.155548 285.119784 
L 436.692193 290.863583 
L 437.228838 299.851656 
L 437.765482 299.437575 
L 438.302127 274.824251 
L 438.838772 271.484122 
L 439.375417 302.825073 
L 440.448707 260.703189 
L 440.985352 269.720269 
L 441.521996 311.704578 
L 442.058641 302.532391 
L 442.595286 287.733731 
L 443.131931 284.64719 
L 443.668576 295.560093 
L 444.205221 273.970828 
L 444.741866 274.474045 
L 445.278511 284.431717 
L 445.815155 272.065053 
L 446.3518 277.894088 
L 446.888445 294.362754 
L 447.42509 291.609781 
L 447.961735 298.062594 
L 448.49838 290.64698 
L 449.035025 273.380348 
L 449.571669 286.95281 
L 450.108314 274.492634 
L 450.644959 266.223522 
L 451.181604 284.366702 
L 451.718249 261.643386 
L 452.254894 263.037721 
L 452.791539 278.485081 
L 453.328183 274.911863 
L 453.864828 265.914498 
L 454.401473 263.216839 
L 454.938118 269.268803 
L 455.474763 281.873122 
L 456.011408 262.995373 
L 456.548053 266.988738 
L 457.084698 278.35225 
L 457.621342 296.761184 
L 458.157987 282.591433 
L 459.231277 274.145511 
L 459.767922 263.903684 
L 460.304567 259.969223 
L 460.841212 268.854489 
L 461.377856 292.717447 
L 461.914501 281.209238 
L 462.451146 278.388917 
L 462.987791 269.594363 
L 463.524436 273.348211 
L 464.061081 270.994394 
L 464.597726 290.19626 
L 465.13437 286.997231 
L 465.671015 276.567182 
L 466.20766 276.576715 
L 466.744305 272.79405 
L 467.28095 280.71424 
L 467.817595 269.796646 
L 468.35424 273.291063 
L 468.890885 270.785849 
L 469.427529 276.642807 
L 469.964174 279.001017 
L 470.500819 270.124113 
L 471.037464 269.795649 
L 471.574109 275.893822 
L 472.110754 283.876565 
L 472.647399 282.548844 
L 473.184043 277.830469 
L 473.720688 277.904329 
L 474.257333 292.373732 
L 474.793978 276.438849 
L 475.330623 274.556125 
L 475.867268 263.658639 
L 476.403913 271.95704 
L 476.940557 274.622484 
L 477.477202 284.323989 
L 478.550492 271.740978 
L 479.087137 269.21821 
L 479.623782 298.588404 
L 480.160427 278.141994 
L 480.697072 297.480211 
L 481.233716 273.500995 
L 481.770361 269.073342 
L 482.307006 270.880328 
L 482.843651 254.763465 
L 483.380296 263.421377 
L 483.916941 284.986224 
L 484.453586 299.660347 
L 484.99023 288.890294 
L 485.526875 295.612868 
L 486.06352 275.609691 
L 486.600165 290.34011 
L 487.13681 280.632785 
L 487.673455 276.491879 
L 488.2101 289.631873 
L 488.746744 273.359259 
L 489.283389 268.237687 
L 489.820034 287.942056 
L 490.356679 293.424455 
L 490.893324 274.866377 
L 491.429969 266.111991 
L 491.966614 273.991778 
L 492.503258 268.919858 
L 493.039903 267.995394 
L 493.576548 283.795936 
L 494.113193 288.220244 
L 494.649838 301.551828 
L 495.186483 281.299623 
L 495.723128 269.904614 
L 496.259773 263.33297 
L 496.796417 270.237473 
L 497.333062 270.392965 
L 497.869707 276.011619 
L 498.406352 286.230378 
L 498.942997 290.347397 
L 499.479642 290.68837 
L 500.016287 282.825494 
L 500.552931 277.419125 
L 501.089576 293.662651 
L 501.626221 287.94295 
L 502.162866 270.084346 
L 502.699511 262.45327 
L 503.236156 277.745236 
L 503.772801 269.736876 
L 504.309445 287.980978 
L 504.84609 284.285826 
L 505.382735 300.993497 
L 505.91938 294.351963 
L 506.456025 278.169249 
L 507.529315 276.774947 
L 508.602604 249.493367 
L 509.675894 270.629977 
L 510.212539 275.343906 
L 510.749184 270.306819 
L 511.285829 267.603045 
L 511.822474 279.095996 
L 512.359118 276.376344 
L 512.895763 280.324706 
L 513.432408 277.02223 
L 513.969053 292.059736 
L 514.505698 287.256445 
L 515.578988 257.615808 
L 516.115632 270.991834 
L 516.652277 262.938284 
L 517.188922 265.158869 
L 517.725567 295.842504 
L 518.262212 293.67231 
L 518.798857 276.841539 
L 519.335502 274.860328 
L 519.872147 275.245343 
L 520.945436 290.943435 
L 521.482081 277.221061 
L 522.018726 274.650104 
L 522.555371 291.762596 
L 523.092016 279.106563 
L 524.165305 265.068686 
L 524.70195 272.556123 
L 525.238595 276.91324 
L 525.77524 263.189845 
L 526.311885 273.025583 
L 526.84853 305.419467 
L 527.385175 281.447754 
L 527.921819 282.573876 
L 528.458464 268.987636 
L 528.995109 269.81591 
L 529.531754 293.601727 
L 530.068399 284.469118 
L 530.605044 271.524622 
L 531.141689 285.827822 
L 531.678334 279.094061 
L 532.214978 269.961008 
L 532.751623 271.984875 
L 533.288268 268.821894 
L 534.361558 301.851406 
L 534.898203 303.356292 
L 535.434848 285.268557 
L 535.971492 258.872865 
L 536.508137 269.083033 
L 537.044782 272.482553 
L 537.581427 258.115422 
L 538.118072 256.183795 
L 538.654717 261.818948 
L 539.191362 301.855941 
L 539.728006 300.741285 
L 540.264651 291.929764 
L 540.801296 292.287571 
L 541.337941 276.482878 
L 541.874586 277.6084 
L 542.411231 276.777231 
L 542.947876 268.658726 
L 543.484521 281.626621 
L 544.021165 273.795923 
L 544.55781 269.230281 
L 545.094455 280.082276 
L 545.6311 277.738943 
L 546.167745 278.494935 
L 547.241035 289.108697 
L 547.777679 285.918185 
L 548.314324 277.578005 
L 548.850969 287.545407 
L 549.387614 283.769844 
L 549.924259 294.355584 
L 550.460904 279.429061 
L 550.997549 274.339757 
L 551.534193 263.363441 
L 552.607483 277.643523 
L 553.144128 280.608638 
L 553.680773 270.934991 
L 554.217418 288.727746 
L 554.754063 301.806223 
L 555.827352 267.814296 
L 556.900642 299.062684 
L 557.437287 288.507324 
L 557.973932 271.885954 
L 558.510577 324.812689 
L 559.047222 283.685607 
L 559.583866 291.896148 
L 560.120511 275.675699 
L 560.657156 272.134214 
L 561.193801 270.742129 
L 561.730446 278.232334 
L 562.803736 281.545172 
L 563.34038 280.074586 
L 563.877025 273.089127 
L 564.41367 273.02861 
L 564.950315 293.585755 
L 566.023605 276.900022 
L 566.56025 276.842121 
L 567.096894 289.716749 
L 567.633539 292.235257 
L 568.170184 292.595112 
L 568.706829 292.761204 
L 569.243474 284.453118 
L 569.780119 284.42664 
L 570.316764 285.960388 
L 570.853409 281.389938 
L 571.390053 280.494409 
L 571.926698 273.926444 
L 572.463343 273.332929 
L 572.999988 276.21006 
L 573.536633 274.583884 
L 574.073278 261.771745 
L 574.609923 261.99535 
L 575.146567 277.513668 
L 575.683212 279.966364 
L 576.219857 278.22053 
L 576.756502 289.255224 
L 577.293147 303.876682 
L 577.829792 282.073856 
L 578.366437 286.185712 
L 578.903081 284.527966 
L 579.439726 295.719396 
L 579.976371 296.558537 
L 580.513016 267.992551 
L 581.049661 263.118349 
L 581.586306 289.838264 
L 582.122951 257.726454 
L 582.659596 264.965253 
L 583.19624 293.470775 
L 583.732885 290.140028 
L 584.26953 284.523244 
L 584.806175 269.898081 
L 585.34282 275.919717 
L 585.879465 277.902158 
L 586.41611 275.793679 
L 586.952754 291.500869 
L 587.489399 302.191258 
L 588.026044 292.946352 
L 588.562689 273.259946 
L 589.099334 273.302522 
L 589.635979 269.492321 
L 590.709268 264.798906 
L 591.245913 258.324818 
L 591.782558 274.405401 
L 592.319203 281.273271 
L 592.855848 278.312512 
L 593.392493 277.164699 
L 593.929138 272.18869 
L 594.465783 272.910425 
L 595.002427 273.927622 
L 595.539072 282.80525 
L 596.075717 296.155334 
L 596.612362 282.240676 
L 597.149007 279.624407 
L 597.685652 286.639373 
L 598.222297 282.827794 
L 598.758941 287.320764 
L 599.295586 284.161444 
L 599.832231 284.030209 
L 600.368876 281.624312 
L 600.905521 280.025427 
L 601.442166 271.518354 
L 601.978811 270.422596 
L 602.515455 284.309617 
L 603.0521 284.024938 
L 603.588745 278.997081 
L 604.12539 279.158863 
L 604.662035 277.964732 
L 605.19868 294.013177 
L 605.735325 306.605158 
L 606.808614 260.859657 
L 607.345259 266.753526 
L 607.881904 291.51386 
L 608.418549 279.696376 
L 608.955194 277.793522 
L 609.491839 293.481829 
L 610.028484 285.895674 
L 610.565128 296.629887 
L 611.101773 315.69216 
L 611.638418 298.780895 
L 612.175063 277.313375 
L 613.248353 296.88555 
L 613.784998 294.706196 
L 614.321642 300.055811 
L 615.394932 274.159 
L 615.931577 257.97656 
L 616.468222 269.137492 
L 617.004867 294.430905 
L 617.541512 291.27344 
L 618.078157 287.36458 
L 618.614801 281.262258 
L 619.151446 279.091374 
L 619.688091 284.092816 
L 620.224736 285.229018 
L 620.761381 289.129722 
L 621.298026 273.066212 
L 621.834671 275.414237 
L 622.371315 270.448795 
L 622.90796 274.918975 
L 623.444605 265.020745 
L 623.98125 277.162948 
L 623.98125 277.162948 
" style="fill:none;stroke:#e41a1c;stroke-linecap:round;stroke-width:2;"/>
   </g>
   <g id="patch_3">
    <path d="M 74.45691 365.09886 
L 74.45691 14.4 
" style="fill:none;stroke:#262626;stroke-linecap:square;stroke-linejoin:miter;stroke-width:1.25;"/>
   </g>
   <g id="patch_4">
    <path d="M 623.98125 365.09886 
L 623.98125 14.4 
" style="fill:none;"/>
   </g>
   <g id="patch_5">
    <path d="M 74.45691 365.09886 
L 623.98125 365.09886 
" style="fill:none;stroke:#262626;stroke-linecap:square;stroke-linejoin:miter;stroke-width:1.25;"/>
   </g>
   <g id="patch_6">
    <path d="M 74.45691 14.4 
L 623.98125 14.4 
" style="fill:none;"/>
   </g>
  </g>
 </g>
 <defs>
  <clipPath id="p3882eb53f4">
   <rect height="350.69886" width="549.52434" x="74.45691" y="14.4"/>
  </clipPath>
 </defs>
</svg>
