<?xml version="1.0" encoding="utf-8" standalone="no"?>
<!DOCTYPE svg PUBLIC "-//W3C//DTD SVG 1.1//EN"
  "http://www.w3.org/Graphics/SVG/1.1/DTD/svg11.dtd">
<!-- Created with matplotlib (https://matplotlib.org/) -->
<svg height="432pt" version="1.1" viewBox="0 0 648 432" width="648pt" xmlns="http://www.w3.org/2000/svg" xmlns:xlink="http://www.w3.org/1999/xlink">
 <defs>
  <style type="text/css">
*{stroke-linecap:butt;stroke-linejoin:round;}
  </style>
 </defs>
 <g id="figure_1">
  <g id="patch_1">
   <path d="M 0 432 
L 648 432 
L 648 0 
L 0 0 
z
" style="fill:#ffffff;"/>
  </g>
  <g id="axes_1">
   <g id="patch_2">
    <path d="M 91.41537 365.09886 
L 623.98125 365.09886 
L 623.98125 14.4 
L 91.41537 14.4 
z
" style="fill:#ffffff;"/>
   </g>
   <g id="matplotlib.axis_1">
    <g id="xtick_1">
     <g id="line2d_1">
      <defs>
       <path d="M 0 0 
L 0 6 
" id="m6ca1d7ee9b" style="stroke:#262626;stroke-width:1.25;"/>
      </defs>
      <g>
       <use style="fill:#262626;stroke:#262626;stroke-width:1.25;" x="91.41537" xlink:href="#m6ca1d7ee9b" y="365.09886"/>
      </g>
     </g>
     <g id="text_1">
      <!-- $0$ -->
      <defs>
       <path d="M 51.703125 31.84375 
C 51.703125 41.375 51.703125 65.28125 28.09375 65.28125 
C 4.40625 65.28125 4.40625 41.46875 4.40625 31.84375 
C 4.40625 22.3125 4.40625 -1 28 -1 
C 51.59375 -1 51.703125 22.015625 51.703125 31.84375 
z
M 28.09375 2.28125 
C 24.90625 2.28125 22.5 3.5625 20.5 5.65625 
C 18 8.140625 16.40625 9.703125 16.40625 33.03125 
C 16.40625 39.984375 16.40625 46.3125 17.203125 51.484375 
C 18.59375 61.3125 25.796875 62 28 62 
C 31.203125 62 37.40625 60.515625 38.796875 52.1875 
C 39.703125 47.109375 39.703125 39.078125 39.703125 33.03125 
C 39.703125 9.609375 38.203125 8.234375 35.203125 5.25 
C 33.203125 3.265625 30.5 2.28125 28.09375 2.28125 
z
" id="CMBX12-48"/>
      </defs>
      <g style="fill:#262626;" transform="translate(86.35287 387.09886)scale(0.18 -0.18)">
       <use transform="scale(0.996264)" xlink:href="#CMBX12-48"/>
      </g>
     </g>
    </g>
    <g id="xtick_2">
     <g id="line2d_2">
      <g>
       <use style="fill:#262626;stroke:#262626;stroke-width:1.25;" x="156.425853" xlink:href="#m6ca1d7ee9b" y="365.09886"/>
      </g>
     </g>
     <g id="text_2">
      <!-- $500$ -->
      <defs>
       <path d="M 15.40625 51.796875 
C 18.796875 51 21.5 51 23 51 
C 25.40625 51 31.09375 51 37.796875 55.109375 
C 40.90625 56.984375 46.09375 61.5 46.09375 63.796875 
C 46.09375 64.296875 46.09375 65.5 44.90625 65.5 
C 44.796875 65.5 44.59375 65.5 43.59375 64.984375 
C 39 63.34375 34.09375 62.21875 28.5 62.21875 
C 22.796875 62.21875 18 63.3125 13.296875 65 
C 12.59375 65.203125 12.296875 65.40625 12 65.40625 
C 10.796875 65.40625 10.796875 64.40625 10.796875 62.71875 
L 10.796875 33.796875 
C 10.796875 31.90625 10.796875 30.8125 12.796875 30.8125 
C 13.796875 30.8125 14 30.921875 14.796875 31.90625 
C 16 33.3125 19.59375 37.71875 28.09375 37.71875 
C 37.296875 37.71875 37.296875 28.359375 37.296875 20.5 
C 37.296875 13.3125 37.296875 2.96875 25 2.96875 
C 21.296875 2.96875 15 4.359375 11.59375 10 
C 16.90625 10 18.203125 13.984375 18.203125 16.171875 
C 18.203125 19.75 15.59375 22.421875 11.90625 22.421875 
C 8.90625 22.421875 5.59375 20.640625 5.59375 15.96875 
C 5.59375 7.34375 13.5 -1 25.40625 -1 
C 40.796875 -1 50.5 7.859375 50.5 20.203125 
C 50.5 32.34375 42.203125 41 28.5 41 
C 24.5 41 19.703125 40.203125 15.40625 37.015625 
z
" id="CMBX12-53"/>
      </defs>
      <g style="fill:#262626;" transform="translate(141.238353 387.09886)scale(0.18 -0.18)">
       <use transform="scale(0.996264)" xlink:href="#CMBX12-53"/>
       <use transform="translate(56.039851 0)scale(0.996264)" xlink:href="#CMBX12-48"/>
       <use transform="translate(112.079701 0)scale(0.996264)" xlink:href="#CMBX12-48"/>
      </g>
     </g>
    </g>
    <g id="xtick_3">
     <g id="line2d_3">
      <g>
       <use style="fill:#262626;stroke:#262626;stroke-width:1.25;" x="221.436337" xlink:href="#m6ca1d7ee9b" y="365.09886"/>
      </g>
     </g>
     <g id="text_3">
      <!-- $1000$ -->
      <defs>
       <path d="M 34.59375 62.109375 
C 34.59375 65 34.40625 65 31.203125 65 
C 23.796875 59 12.703125 59 10.5 59 
L 8.59375 59 
L 8.59375 54.734375 
L 10.5 54.734375 
C 14 54.734375 19.296875 55.328125 23.296875 56.625 
L 23.296875 4.171875 
L 9.40625 4.171875 
L 9.40625 0 
C 13.59375 0 24.09375 0 28.796875 0 
C 33.5 0 44.09375 0 48.296875 0 
L 48.296875 4.171875 
L 34.59375 4.171875 
z
" id="CMBX12-49"/>
      </defs>
      <g style="fill:#262626;" transform="translate(201.186337 387.09886)scale(0.18 -0.18)">
       <use transform="scale(0.996264)" xlink:href="#CMBX12-49"/>
       <use transform="translate(56.039851 0)scale(0.996264)" xlink:href="#CMBX12-48"/>
       <use transform="translate(112.079701 0)scale(0.996264)" xlink:href="#CMBX12-48"/>
       <use transform="translate(168.119552 0)scale(0.996264)" xlink:href="#CMBX12-48"/>
      </g>
     </g>
    </g>
    <g id="xtick_4">
     <g id="line2d_4">
      <g>
       <use style="fill:#262626;stroke:#262626;stroke-width:1.25;" x="286.44682" xlink:href="#m6ca1d7ee9b" y="365.09886"/>
      </g>
     </g>
     <g id="text_4">
      <!-- $1500$ -->
      <g style="fill:#262626;" transform="translate(266.19682 387.09886)scale(0.18 -0.18)">
       <use transform="scale(0.996264)" xlink:href="#CMBX12-49"/>
       <use transform="translate(56.039851 0)scale(0.996264)" xlink:href="#CMBX12-53"/>
       <use transform="translate(112.079701 0)scale(0.996264)" xlink:href="#CMBX12-48"/>
       <use transform="translate(168.119552 0)scale(0.996264)" xlink:href="#CMBX12-48"/>
      </g>
     </g>
    </g>
    <g id="xtick_5">
     <g id="line2d_5">
      <g>
       <use style="fill:#262626;stroke:#262626;stroke-width:1.25;" x="351.457304" xlink:href="#m6ca1d7ee9b" y="365.09886"/>
      </g>
     </g>
     <g id="text_5">
      <!-- $2000$ -->
      <defs>
       <path d="M 50.5 21.375 
L 46.296875 21.375 
C 46 19.28125 45.296875 13.40625 43.796875 12.421875 
C 43 11.71875 35.203125 11.71875 33.703125 11.71875 
L 18.203125 11.71875 
C 22 14.90625 31.09375 22.46875 32.59375 23.578125 
C 43.703125 31.84375 50.5 36.90625 50.5 46.46875 
C 50.5 58.203125 39.796875 65.28125 26.59375 65.28125 
C 15.296875 65.28125 5.59375 58.90625 5.59375 49.453125 
C 5.59375 44.171875 9.90625 42.6875 12.203125 42.6875 
C 15.296875 42.6875 18.90625 44.765625 18.90625 49.359375 
C 18.90625 53.546875 15.796875 55.625 12.703125 56.03125 
C 16.703125 60.609375 22 61 24.09375 61 
C 33.296875 61 37.703125 53.546875 37.703125 46.375 
C 37.703125 38.609375 32.40625 31.453125 28.296875 27.171875 
L 6.59375 4.578125 
C 5.59375 3.671875 5.59375 3.484375 5.59375 1.6875 
L 5.59375 0 
L 47.59375 0 
z
" id="CMBX12-50"/>
      </defs>
      <g style="fill:#262626;" transform="translate(331.207304 387.09886)scale(0.18 -0.18)">
       <use transform="scale(0.996264)" xlink:href="#CMBX12-50"/>
       <use transform="translate(56.039851 0)scale(0.996264)" xlink:href="#CMBX12-48"/>
       <use transform="translate(112.079701 0)scale(0.996264)" xlink:href="#CMBX12-48"/>
       <use transform="translate(168.119552 0)scale(0.996264)" xlink:href="#CMBX12-48"/>
      </g>
     </g>
    </g>
    <g id="xtick_6">
     <g id="line2d_6">
      <g>
       <use style="fill:#262626;stroke:#262626;stroke-width:1.25;" x="416.467787" xlink:href="#m6ca1d7ee9b" y="365.09886"/>
      </g>
     </g>
     <g id="text_6">
      <!-- $2500$ -->
      <g style="fill:#262626;" transform="translate(396.217787 387.09886)scale(0.18 -0.18)">
       <use transform="scale(0.996264)" xlink:href="#CMBX12-50"/>
       <use transform="translate(56.039851 0)scale(0.996264)" xlink:href="#CMBX12-53"/>
       <use transform="translate(112.079701 0)scale(0.996264)" xlink:href="#CMBX12-48"/>
       <use transform="translate(168.119552 0)scale(0.996264)" xlink:href="#CMBX12-48"/>
      </g>
     </g>
    </g>
    <g id="xtick_7">
     <g id="line2d_7">
      <g>
       <use style="fill:#262626;stroke:#262626;stroke-width:1.25;" x="481.47827" xlink:href="#m6ca1d7ee9b" y="365.09886"/>
      </g>
     </g>
     <g id="text_7">
      <!-- $3000$ -->
      <defs>
       <path d="M 26.09375 33 
C 37.296875 33 37.296875 22.71875 37.296875 17.984375 
C 37.296875 13.53125 37.296875 3.0625 26.5 3.0625 
C 24.40625 3.0625 17.796875 3.0625 13 6.625 
C 17.296875 7.515625 18.796875 10.59375 18.796875 13.5625 
C 18.796875 17.625 15.90625 20.5 11.796875 20.5 
C 7.59375 20.5 4.703125 17.625 4.703125 13.46875 
C 4.703125 4.34375 14.703125 -1 27 -1 
C 43.5 -1 51.40625 8.015625 51.40625 17.921875 
C 51.40625 22.796875 48.90625 32.203125 33.40625 34.875 
C 42.203125 37.59375 48.296875 43.8125 48.296875 51.71875 
C 48.296875 59.25 41.09375 65.578125 27.203125 65.578125 
C 16 65.578125 7.796875 59.65625 7.796875 51.53125 
C 7.796875 46.515625 11.703125 44.90625 14.296875 44.90625 
C 17.203125 44.90625 20.703125 46.8125 20.703125 51.4375 
C 20.703125 53.765625 19.703125 57.171875 15 57.875 
C 19.203125 62 26 62 26.59375 62 
C 35.5 62 35.5 55.03125 35.5 52.015625 
C 35.5 48.984375 35.09375 44.328125 31.90625 40.203125 
C 29.296875 36.75 26.703125 36.5625 22.90625 36.5625 
C 21.703125 36.265625 19.703125 36.265625 19.296875 36.078125 
C 18.703125 35.78125 18.703125 35.078125 18.703125 34.6875 
C 18.703125 33 19.296875 33 21.296875 33 
z
" id="CMBX12-51"/>
      </defs>
      <g style="fill:#262626;" transform="translate(461.22827 387.09886)scale(0.18 -0.18)">
       <use transform="scale(0.996264)" xlink:href="#CMBX12-51"/>
       <use transform="translate(56.039851 0)scale(0.996264)" xlink:href="#CMBX12-48"/>
       <use transform="translate(112.079701 0)scale(0.996264)" xlink:href="#CMBX12-48"/>
       <use transform="translate(168.119552 0)scale(0.996264)" xlink:href="#CMBX12-48"/>
      </g>
     </g>
    </g>
    <g id="xtick_8">
     <g id="line2d_8">
      <g>
       <use style="fill:#262626;stroke:#262626;stroke-width:1.25;" x="546.488754" xlink:href="#m6ca1d7ee9b" y="365.09886"/>
      </g>
     </g>
     <g id="text_8">
      <!-- $3500$ -->
      <g style="fill:#262626;" transform="translate(526.238754 387.09886)scale(0.18 -0.18)">
       <use transform="scale(0.996264)" xlink:href="#CMBX12-51"/>
       <use transform="translate(56.039851 0)scale(0.996264)" xlink:href="#CMBX12-53"/>
       <use transform="translate(112.079701 0)scale(0.996264)" xlink:href="#CMBX12-48"/>
       <use transform="translate(168.119552 0)scale(0.996264)" xlink:href="#CMBX12-48"/>
      </g>
     </g>
    </g>
    <g id="xtick_9">
     <g id="line2d_9">
      <g>
       <use style="fill:#262626;stroke:#262626;stroke-width:1.25;" x="611.499237" xlink:href="#m6ca1d7ee9b" y="365.09886"/>
      </g>
     </g>
     <g id="text_9">
      <!-- $4000$ -->
      <defs>
       <path d="M 43.296875 15.71875 
L 53 15.71875 
L 53 20 
L 43.296875 20 
L 43.296875 62.609375 
C 43.296875 65.09375 43.203125 65.5 40.703125 65.5 
C 38.90625 65.5 38.703125 65.5 37.5 64 
L 3.09375 20 
L 3.09375 15.71875 
L 31.5 15.71875 
L 31.5 4.171875 
L 20.59375 4.171875 
L 20.59375 0 
C 23.5 0 33.40625 0 37 0 
C 40.40625 0 50.296875 0 53 -0.09375 
L 53 4.171875 
L 43.296875 4.171875 
z
M 32.40625 51.59375 
L 32.40625 20 
L 7.703125 20 
z
" id="CMBX12-52"/>
      </defs>
      <g style="fill:#262626;" transform="translate(591.249237 387.09886)scale(0.18 -0.18)">
       <use transform="scale(0.996264)" xlink:href="#CMBX12-52"/>
       <use transform="translate(56.039851 0)scale(0.996264)" xlink:href="#CMBX12-48"/>
       <use transform="translate(112.079701 0)scale(0.996264)" xlink:href="#CMBX12-48"/>
       <use transform="translate(168.119552 0)scale(0.996264)" xlink:href="#CMBX12-48"/>
      </g>
     </g>
    </g>
    <g id="text_10">
     <!-- \textbf{Frequency (Hz)} -->
     <defs>
      <path d="M 63 67.28125 
L 3.796875 67.28125 
L 3.796875 63 
L 14.40625 63 
L 14.40625 4.171875 
L 3.796875 4.171875 
L 3.796875 0 
C 6.703125 0 18.09375 0 21.796875 0 
C 27.09375 0 36 0 40.90625 0 
L 40.90625 4.171875 
L 27.59375 4.171875 
L 27.59375 31.71875 
L 33.09375 31.71875 
C 42.703125 31.71875 43.5 27.3125 43.5 20 
L 47.703125 20 
L 47.703125 47.53125 
L 43.5 47.53125 
C 43.5 40.328125 42.703125 36 33.09375 36 
L 27.59375 36 
L 27.59375 63 
L 41.90625 63 
C 57.796875 63 60.296875 55.875 61.703125 44.078125 
L 65.90625 44.078125 
z
" id="CMBX12-70"/>
      <path d="M 20.796875 22.046875 
C 20.796875 25.296875 21.5 41 33.203125 41 
C 31.796875 39.921875 31.09375 38.25 31.09375 36.5 
C 31.09375 32.484375 34.40625 30.8125 36.90625 30.8125 
C 39.40625 30.8125 42.703125 32.484375 42.703125 36.515625 
C 42.703125 41.53125 37.5 44.28125 32.703125 44.28125 
C 24.796875 44.28125 21.40625 37.515625 20 33.390625 
L 19.90625 33.390625 
L 19.90625 44 
L 3.5 44 
L 3.5 39.328125 
C 9.703125 39.328125 10.40625 39.328125 10.40625 35.46875 
L 10.40625 4.0625 
L 3.5 4.0625 
L 3.5 -0.203125 
C 5.796875 0 13.296875 0 16.09375 0 
C 19 0 27.09375 0 29.5 -0.203125 
L 29.5 4.0625 
L 20.796875 4.0625 
z
" id="CMBX12-114"/>
      <path d="M 45.203125 22 
C 47.5 22 48.09375 22 48.09375 24.484375 
C 48.09375 27.46875 47.40625 34.890625 42.796875 39.5625 
C 38.59375 43.71875 33 45 27.203125 45 
C 11.59375 45 3.09375 34.890625 3.09375 22.40625 
C 3.09375 8.515625 13.40625 -0.5 28.5 -0.5 
C 43.59375 -0.5 48.09375 10 48.09375 11.6875 
C 48.09375 13.171875 46.59375 13.171875 46 13.171875 
C 44.40625 13.171875 44.296875 12.875 43.703125 11.59375 
C 41.09375 5.15625 34.5 3.078125 29.703125 3.078125 
C 15.203125 3.078125 15.09375 16.453125 15.09375 22 
z
M 15.09375 24.890625 
C 15.296875 28.9375 15.40625 32.8125 17.5 36.375 
C 19.40625 39.546875 22.90625 41.71875 27.203125 41.71875 
C 37.90625 41.71875 38.796875 29.828125 38.90625 24.890625 
z
" id="CMBX12-101"/>
      <path d="M 52 44.578125 
L 48.296875 44.578125 
L 43 36.359375 
C 39.5 41.421875 34.59375 44.578125 28 44.578125 
C 14.203125 44.578125 3.796875 36.078125 3.796875 22.03125 
C 3.796875 7.890625 13.796875 -0.5 27 -0.5 
C 30.796875 -0.5 35.90625 0.296875 41.09375 5.15625 
L 41.09375 -14.921875 
L 34.203125 -14.921875 
L 34.203125 -19.1875 
C 36.5 -19 43.703125 -19 46.5 -19 
C 49.296875 -19 56.59375 -19 58.90625 -19.1875 
L 58.90625 -14.921875 
L 52 -14.921875 
z
M 41.59375 11.859375 
C 37.40625 4.046875 31.5 2.78125 28.203125 2.78125 
C 21.796875 2.78125 15.796875 8.609375 15.796875 21.9375 
C 15.796875 36.359375 23.40625 41 29.296875 41 
C 37.09375 41 41.59375 33 41.59375 28.453125 
z
" id="CMBX12-113"/>
      <path d="M 35.296875 44.671875 
L 35.296875 40 
C 41.5 40 42.203125 40 42.203125 36.125 
L 42.203125 16.5 
C 42.203125 8.890625 37.703125 2.78125 29.90625 2.78125 
C 22.40625 2.78125 22 5.265625 22 10.6875 
L 22 44.671875 
L 4.203125 44.671875 
L 4.203125 40 
C 10.40625 40 11.09375 40 11.09375 36.125 
L 11.09375 12.40625 
C 11.09375 2.390625 17.796875 -0.5 28.5 -0.5 
C 30.90625 -0.5 38.296875 -0.5 42.59375 7.75 
L 42.703125 7.75 
L 42.703125 0 
L 60 0 
L 60 4.5625 
C 53.796875 4.5625 53.09375 4.5625 53.09375 8.4375 
L 53.09375 44.671875 
z
" id="CMBX12-117"/>
      <path d="M 53.09375 30.0625 
C 53.09375 39.453125 49 44.28125 38 44.28125 
C 30.796875 44.28125 24.59375 40.859375 21.203125 33.484375 
L 21.09375 33.484375 
L 21.09375 44 
L 4.203125 44 
L 4.203125 39.328125 
C 10.40625 39.328125 11.09375 39.328125 11.09375 35.46875 
L 11.09375 4.0625 
L 4.203125 4.0625 
L 4.203125 -0.203125 
C 6.5 0 13.703125 0 16.5 0 
C 19.296875 0 26.59375 0 28.90625 -0.203125 
L 28.90625 4.0625 
L 22 4.0625 
L 22 25.109375 
C 22 35.765625 30 41 36.40625 41 
C 40.09375 41 42.203125 38.640625 42.203125 31.140625 
L 42.203125 4.0625 
L 35.296875 4.0625 
L 35.296875 -0.203125 
C 37.59375 0 44.796875 0 47.59375 0 
C 50.40625 0 57.703125 0 60 -0.203125 
L 60 4.0625 
L 53.09375 4.0625 
z
" id="CMBX12-110"/>
      <path d="M 46.796875 11.765625 
C 46.796875 12.953125 45.703125 12.953125 44.703125 12.953125 
C 43.09375 12.953125 43 12.859375 42.5 11.671875 
C 41.796875 9.765625 39.09375 3.078125 29.90625 3.078125 
C 15.796875 3.078125 15.796875 18.21875 15.796875 22.703125 
C 15.796875 28.578125 15.90625 41.625 29 41.625 
C 29.703125 41.625 35.59375 41.625 35.59375 41.125 
C 35.59375 41 35.5 40.90625 35.296875 40.8125 
C 35 40.515625 33.703125 39 33.703125 36.46875 
C 33.703125 32.25 37.09375 30.53125 39.59375 30.53125 
C 41.703125 30.53125 45.5 31.859375 45.5 36.65625 
C 45.5 45 34 45 28.59375 45 
C 10.796875 45 3.796875 33.515625 3.796875 22.09375 
C 3.796875 8.625 13.296875 -0.5 28 -0.5 
C 43.703125 -0.5 46.796875 11.0625 46.796875 11.765625 
z
" id="CMBX12-99"/>
      <path d="M 49.5 37.828125 
C 50.09375 39.203125 50.5 40 56.90625 40 
L 56.90625 44.171875 
C 53.5 44.171875 53.09375 44.171875 49 44.171875 
C 46.296875 44.171875 46.09375 44.171875 40.40625 44.171875 
L 40.40625 40 
C 40.5 40 45.203125 40 45.203125 38.71875 
C 45.203125 38.421875 44.90625 37.828125 44.796875 37.53125 
L 33.09375 12.578125 
L 20.296875 40 
L 25.796875 40 
L 25.796875 44.265625 
C 23.40625 44.171875 16.59375 44.171875 13.796875 44.171875 
C 10.90625 44.171875 5 44.171875 2.40625 44.265625 
L 2.40625 40 
L 8.796875 40 
L 27.296875 0.3125 
C 26.796875 -0.875 25.40625 -3.75 24.90625 -4.9375 
C 22.796875 -9.390625 19.59375 -16.21875 12.59375 -16.21875 
C 12.203125 -16.21875 11 -16.21875 9.90625 -15.625 
C 10.09375 -15.515625 13.09375 -14.328125 13.09375 -10.5625 
C 13.09375 -7.3125 10.703125 -5.234375 7.703125 -5.234375 
C 4.59375 -5.234375 2.203125 -7.328125 2.203125 -10.6875 
C 2.203125 -15.34375 6.59375 -19.5 12.59375 -19.5 
C 20.796875 -19.5 26.203125 -12.171875 28.203125 -7.8125 
z
" id="CMBX12-121"/>
      <path d="M 37.40625 -23.8125 
C 37.40625 -23.40625 37.40625 -23.203125 35.5 -21.421875 
C 24.296875 -10.296875 20 7.203125 20 24.6875 
C 20 44.28125 24.90625 60.390625 36.09375 71.609375 
C 37.296875 72.796875 37.40625 72.90625 37.40625 73.296875 
C 37.40625 74.5 36.203125 74.5 35.703125 74.5 
C 34.796875 74.5 34.59375 74.5 32 72.40625 
C 17.59375 60.984375 10.796875 42.6875 10.796875 24.8125 
C 10.796875 6.515625 17.703125 -11.28125 31.90625 -22.8125 
C 34.5 -25 34.703125 -25 35.703125 -25 
C 36.203125 -25 37.40625 -25 37.40625 -23.8125 
z
" id="CMBX12-40"/>
      <path d="M 73.5 63.828125 
L 84.09375 63.828125 
L 84.09375 68 
C 81.203125 68 70.5 68 66.90625 68 
C 63.296875 68 52.59375 68 49.703125 68 
L 49.703125 63.828125 
L 60.296875 63.828125 
L 60.296875 37.265625 
L 27.59375 37.265625 
L 27.59375 63.828125 
L 38.203125 63.828125 
L 38.203125 68 
C 35.296875 68 24.59375 68 21 68 
C 17.40625 68 6.703125 68 3.796875 68 
L 3.796875 63.828125 
L 14.40625 63.828125 
L 14.40625 4.171875 
L 3.796875 4.171875 
L 3.796875 0 
C 6.703125 0 17.40625 0 21 0 
C 24.59375 0 35.296875 0 38.203125 0 
L 38.203125 4.171875 
L 27.59375 4.171875 
L 27.59375 33 
L 60.296875 33 
L 60.296875 4.171875 
L 49.703125 4.171875 
L 49.703125 0 
C 52.59375 0 63.296875 0 66.90625 0 
C 70.5 0 81.203125 0 84.09375 0 
L 84.09375 4.171875 
L 73.5 4.171875 
z
" id="CMBX12-72"/>
      <path d="M 44 40.234375 
C 44.90625 41.3125 44.90625 41.515625 44.90625 42.109375 
C 44.90625 44 43.90625 44 42 44 
L 5.796875 44 
L 4.703125 26.953125 
L 8.90625 26.953125 
C 9.5 36.359375 11.703125 40.71875 22.796875 40.71875 
L 31.796875 40.71875 
L 4 3.953125 
C 3.09375 2.875 3.09375 2.6875 3.09375 1.984375 
C 3.09375 0 4 0 6 0 
L 43.5 0 
L 45.203125 19.625 
L 41 19.625 
C 40.203125 9.125 38 3.578125 25.40625 3.578125 
L 16.296875 3.578125 
z
" id="CMBX12-122"/>
      <path d="M 32.796875 24.703125 
C 32.796875 42.984375 25.90625 60.78125 11.703125 72.3125 
C 9.09375 74.5 8.90625 74.5 7.90625 74.5 
C 7.40625 74.5 6.203125 74.5 6.203125 73.3125 
C 6.203125 72.921875 6.203125 72.71875 8.09375 70.9375 
C 19.296875 59.796875 23.59375 42.3125 23.59375 24.8125 
C 23.59375 5.21875 18.703125 -10.875 7.5 -22.109375 
C 6.296875 -23.3125 6.203125 -23.40625 6.203125 -23.8125 
C 6.203125 -25 7.40625 -25 7.90625 -25 
C 8.796875 -25 9 -25 11.59375 -22.90625 
C 26 -11.484375 32.796875 6.8125 32.796875 24.703125 
z
" id="CMBX12-41"/>
     </defs>
     <g style="fill:#262626;" transform="translate(273.36496 412.1)scale(0.22 -0.22)">
      <use transform="translate(0 -0.0934)scale(0.996264)" xlink:href="#CMBX12-70"/>
      <use transform="translate(61.113445 -0.0934)scale(0.996264)" xlink:href="#CMBX12-114"/>
      <use transform="translate(106.890953 -0.0934)scale(0.996264)" xlink:href="#CMBX12-101"/>
      <use transform="translate(158.03022 -0.0934)scale(0.996264)" xlink:href="#CMBX12-113"/>
      <use transform="translate(217.183396 -0.0934)scale(0.996264)" xlink:href="#CMBX12-117"/>
      <use transform="translate(279.449896 -0.0934)scale(0.996264)" xlink:href="#CMBX12-101"/>
      <use transform="translate(330.589163 -0.0934)scale(0.996264)" xlink:href="#CMBX12-110"/>
      <use transform="translate(392.855664 -0.0934)scale(0.996264)" xlink:href="#CMBX12-99"/>
      <use transform="translate(442.668864 -0.0934)scale(0.996264)" xlink:href="#CMBX12-121"/>
      <use transform="translate(539.18194 -0.0934)scale(0.996264)" xlink:href="#CMBX12-40"/>
      <use transform="translate(582.768491 -0.0934)scale(0.996264)" xlink:href="#CMBX12-72"/>
      <use transform="translate(670.402966 -0.0934)scale(0.996264)" xlink:href="#CMBX12-122"/>
      <use transform="translate(720.216166 -0.0934)scale(0.996264)" xlink:href="#CMBX12-41"/>
     </g>
    </g>
   </g>
   <g id="matplotlib.axis_2">
    <g id="ytick_1">
     <g id="line2d_10">
      <defs>
       <path d="M 0 0 
L -6 0 
" id="md29206c75b" style="stroke:#262626;stroke-width:1.25;"/>
      </defs>
      <g>
       <use style="fill:#262626;stroke:#262626;stroke-width:1.25;" x="91.41537" xlink:href="#md29206c75b" y="334.314027"/>
      </g>
     </g>
     <g id="text_11">
      <!-- $10^{-7}$ -->
      <defs>
       <path d="M 75.203125 22 
C 76.703125 22 79.703125 22 79.703125 25 
C 79.703125 28.09375 76.796875 28.09375 75.203125 28.09375 
L 14.09375 28.09375 
C 12.59375 28.09375 9.59375 28.09375 9.59375 25.09375 
C 9.59375 22 12.5 22 14.09375 22 
z
" id="CMBSY10-0"/>
       <path d="M 53.59375 60.390625 
C 54.5 61.390625 54.5 61.609375 54.5 64.921875 
L 33.40625 64.921875 
C 32.703125 64.921875 17.796875 64.921875 16.59375 65.125 
C 14.09375 65.515625 13.90625 66.5625 13.703125 67.53125 
L 9.5 67.53125 
L 6.203125 43 
L 10.40625 43 
C 10.5 44.015625 11.296875 51.25 13 52.390625 
C 13.90625 53 22.203125 53 23.796875 53 
L 41.90625 53 
C 30.296875 38.859375 29 37.25 25.90625 31.328125 
C 20 19.671875 19.09375 10.640625 19.09375 5.71875 
C 19.09375 -1 24.203125 -1 25 -1 
C 27.5 -1 28.90625 0.296875 29.59375 1 
C 30.90625 2.625 30.90625 3.828125 30.90625 8.25 
C 30.90625 23.609375 32.296875 34.875 38.59375 42.40625 
z
" id="CMBX12-55"/>
      </defs>
      <g style="fill:#262626;" transform="translate(42.80802 340.564027)scale(0.18 -0.18)">
       <use transform="scale(0.996264)" xlink:href="#CMBX12-49"/>
       <use transform="translate(56.039851 0)scale(0.996264)" xlink:href="#CMBX12-48"/>
       <use transform="translate(112.079701 36.153639)scale(0.697382)" xlink:href="#CMBSY10-0"/>
       <use transform="translate(174.456293 36.153639)scale(0.697382)" xlink:href="#CMBX12-55"/>
      </g>
     </g>
    </g>
    <g id="ytick_2">
     <g id="line2d_11">
      <g>
       <use style="fill:#262626;stroke:#262626;stroke-width:1.25;" x="91.41537" xlink:href="#md29206c75b" y="251.570967"/>
      </g>
     </g>
     <g id="text_12">
      <!-- $10^{-6}$ -->
      <defs>
       <path d="M 17.40625 36.25 
C 17.40625 42.328125 17.703125 48.53125 20.5 53.90625 
C 22.703125 58.109375 27.796875 62 34.296875 62 
C 36.203125 62 39.796875 61.703125 42.203125 59.203125 
C 38.40625 58.8125 36.796875 56.015625 36.796875 53.3125 
C 36.796875 49.703125 39.5 47.40625 42.703125 47.40625 
C 45.296875 47.40625 48.59375 49.109375 48.59375 53.5 
C 48.59375 59.484375 44.59375 65.578125 34.09375 65.578125 
C 21.59375 65.578125 4.703125 57.796875 4.703125 31.796875 
C 4.703125 25.109375 4.703125 -1 28.40625 -1 
C 41.59375 -1 51.40625 6.765625 51.40625 20.703125 
C 51.40625 34.640625 41.703125 42 29.796875 42 
C 27.796875 42 21.40625 42 17.40625 33.546875 
z
M 28.296875 2.96875 
C 21.90625 2.96875 19.40625 8.34375 19 9.140625 
C 17.59375 12.4375 17.59375 20.40625 17.59375 21.296875 
C 17.59375 33.546875 22.90625 38.734375 28.796875 38.734375 
C 38.703125 38.734375 38.703125 30.765625 38.703125 20.796875 
C 38.703125 10.9375 38.703125 2.96875 28.296875 2.96875 
z
" id="CMBX12-54"/>
      </defs>
      <g style="fill:#262626;" transform="translate(42.80802 257.820967)scale(0.18 -0.18)">
       <use transform="scale(0.996264)" xlink:href="#CMBX12-49"/>
       <use transform="translate(56.039851 0)scale(0.996264)" xlink:href="#CMBX12-48"/>
       <use transform="translate(112.079701 36.153639)scale(0.697382)" xlink:href="#CMBSY10-0"/>
       <use transform="translate(174.456293 36.153639)scale(0.697382)" xlink:href="#CMBX12-54"/>
      </g>
     </g>
    </g>
    <g id="ytick_3">
     <g id="line2d_12">
      <g>
       <use style="fill:#262626;stroke:#262626;stroke-width:1.25;" x="91.41537" xlink:href="#md29206c75b" y="168.827908"/>
      </g>
     </g>
     <g id="text_13">
      <!-- $10^{-5}$ -->
      <g style="fill:#262626;" transform="translate(42.80802 175.077908)scale(0.18 -0.18)">
       <use transform="scale(0.996264)" xlink:href="#CMBX12-49"/>
       <use transform="translate(56.039851 0)scale(0.996264)" xlink:href="#CMBX12-48"/>
       <use transform="translate(112.079701 36.153639)scale(0.697382)" xlink:href="#CMBSY10-0"/>
       <use transform="translate(174.456293 36.153639)scale(0.697382)" xlink:href="#CMBX12-53"/>
      </g>
     </g>
    </g>
    <g id="ytick_4">
     <g id="line2d_13">
      <g>
       <use style="fill:#262626;stroke:#262626;stroke-width:1.25;" x="91.41537" xlink:href="#md29206c75b" y="86.084848"/>
      </g>
     </g>
     <g id="text_14">
      <!-- $10^{-4}$ -->
      <g style="fill:#262626;" transform="translate(42.80802 92.334848)scale(0.18 -0.18)">
       <use transform="scale(0.996264)" xlink:href="#CMBX12-49"/>
       <use transform="translate(56.039851 0)scale(0.996264)" xlink:href="#CMBX12-48"/>
       <use transform="translate(112.079701 36.153639)scale(0.697382)" xlink:href="#CMBSY10-0"/>
       <use transform="translate(174.456293 36.153639)scale(0.697382)" xlink:href="#CMBX12-52"/>
      </g>
     </g>
    </g>
    <g id="ytick_5">
     <g id="line2d_14">
      <defs>
       <path d="M 0 0 
L -4 0 
" id="mecff7c9a90" style="stroke:#262626;"/>
      </defs>
      <g>
       <use style="fill:#262626;stroke:#262626;" x="91.41537" xlink:href="#mecff7c9a90" y="359.222169"/>
      </g>
     </g>
    </g>
    <g id="ytick_6">
     <g id="line2d_15">
      <g>
       <use style="fill:#262626;stroke:#262626;" x="91.41537" xlink:href="#mecff7c9a90" y="352.670471"/>
      </g>
     </g>
    </g>
    <g id="ytick_7">
     <g id="line2d_16">
      <g>
       <use style="fill:#262626;stroke:#262626;" x="91.41537" xlink:href="#mecff7c9a90" y="347.131089"/>
      </g>
     </g>
    </g>
    <g id="ytick_8">
     <g id="line2d_17">
      <g>
       <use style="fill:#262626;stroke:#262626;" x="91.41537" xlink:href="#mecff7c9a90" y="342.332658"/>
      </g>
     </g>
    </g>
    <g id="ytick_9">
     <g id="line2d_18">
      <g>
       <use style="fill:#262626;stroke:#262626;" x="91.41537" xlink:href="#mecff7c9a90" y="338.100141"/>
      </g>
     </g>
    </g>
    <g id="ytick_10">
     <g id="line2d_19">
      <g>
       <use style="fill:#262626;stroke:#262626;" x="91.41537" xlink:href="#mecff7c9a90" y="309.405884"/>
      </g>
     </g>
    </g>
    <g id="ytick_11">
     <g id="line2d_20">
      <g>
       <use style="fill:#262626;stroke:#262626;" x="91.41537" xlink:href="#mecff7c9a90" y="294.835554"/>
      </g>
     </g>
    </g>
    <g id="ytick_12">
     <g id="line2d_21">
      <g>
       <use style="fill:#262626;stroke:#262626;" x="91.41537" xlink:href="#mecff7c9a90" y="284.497741"/>
      </g>
     </g>
    </g>
    <g id="ytick_13">
     <g id="line2d_22">
      <g>
       <use style="fill:#262626;stroke:#262626;" x="91.41537" xlink:href="#mecff7c9a90" y="276.47911"/>
      </g>
     </g>
    </g>
    <g id="ytick_14">
     <g id="line2d_23">
      <g>
       <use style="fill:#262626;stroke:#262626;" x="91.41537" xlink:href="#mecff7c9a90" y="269.927411"/>
      </g>
     </g>
    </g>
    <g id="ytick_15">
     <g id="line2d_24">
      <g>
       <use style="fill:#262626;stroke:#262626;" x="91.41537" xlink:href="#mecff7c9a90" y="264.388029"/>
      </g>
     </g>
    </g>
    <g id="ytick_16">
     <g id="line2d_25">
      <g>
       <use style="fill:#262626;stroke:#262626;" x="91.41537" xlink:href="#mecff7c9a90" y="259.589598"/>
      </g>
     </g>
    </g>
    <g id="ytick_17">
     <g id="line2d_26">
      <g>
       <use style="fill:#262626;stroke:#262626;" x="91.41537" xlink:href="#mecff7c9a90" y="255.357082"/>
      </g>
     </g>
    </g>
    <g id="ytick_18">
     <g id="line2d_27">
      <g>
       <use style="fill:#262626;stroke:#262626;" x="91.41537" xlink:href="#mecff7c9a90" y="226.662824"/>
      </g>
     </g>
    </g>
    <g id="ytick_19">
     <g id="line2d_28">
      <g>
       <use style="fill:#262626;stroke:#262626;" x="91.41537" xlink:href="#mecff7c9a90" y="212.092495"/>
      </g>
     </g>
    </g>
    <g id="ytick_20">
     <g id="line2d_29">
      <g>
       <use style="fill:#262626;stroke:#262626;" x="91.41537" xlink:href="#mecff7c9a90" y="201.754682"/>
      </g>
     </g>
    </g>
    <g id="ytick_21">
     <g id="line2d_30">
      <g>
       <use style="fill:#262626;stroke:#262626;" x="91.41537" xlink:href="#mecff7c9a90" y="193.736051"/>
      </g>
     </g>
    </g>
    <g id="ytick_22">
     <g id="line2d_31">
      <g>
       <use style="fill:#262626;stroke:#262626;" x="91.41537" xlink:href="#mecff7c9a90" y="187.184352"/>
      </g>
     </g>
    </g>
    <g id="ytick_23">
     <g id="line2d_32">
      <g>
       <use style="fill:#262626;stroke:#262626;" x="91.41537" xlink:href="#mecff7c9a90" y="181.64497"/>
      </g>
     </g>
    </g>
    <g id="ytick_24">
     <g id="line2d_33">
      <g>
       <use style="fill:#262626;stroke:#262626;" x="91.41537" xlink:href="#mecff7c9a90" y="176.846539"/>
      </g>
     </g>
    </g>
    <g id="ytick_25">
     <g id="line2d_34">
      <g>
       <use style="fill:#262626;stroke:#262626;" x="91.41537" xlink:href="#mecff7c9a90" y="172.614023"/>
      </g>
     </g>
    </g>
    <g id="ytick_26">
     <g id="line2d_35">
      <g>
       <use style="fill:#262626;stroke:#262626;" x="91.41537" xlink:href="#mecff7c9a90" y="143.919765"/>
      </g>
     </g>
    </g>
    <g id="ytick_27">
     <g id="line2d_36">
      <g>
       <use style="fill:#262626;stroke:#262626;" x="91.41537" xlink:href="#mecff7c9a90" y="129.349435"/>
      </g>
     </g>
    </g>
    <g id="ytick_28">
     <g id="line2d_37">
      <g>
       <use style="fill:#262626;stroke:#262626;" x="91.41537" xlink:href="#mecff7c9a90" y="119.011622"/>
      </g>
     </g>
    </g>
    <g id="ytick_29">
     <g id="line2d_38">
      <g>
       <use style="fill:#262626;stroke:#262626;" x="91.41537" xlink:href="#mecff7c9a90" y="110.992991"/>
      </g>
     </g>
    </g>
    <g id="ytick_30">
     <g id="line2d_39">
      <g>
       <use style="fill:#262626;stroke:#262626;" x="91.41537" xlink:href="#mecff7c9a90" y="104.441293"/>
      </g>
     </g>
    </g>
    <g id="ytick_31">
     <g id="line2d_40">
      <g>
       <use style="fill:#262626;stroke:#262626;" x="91.41537" xlink:href="#mecff7c9a90" y="98.90191"/>
      </g>
     </g>
    </g>
    <g id="ytick_32">
     <g id="line2d_41">
      <g>
       <use style="fill:#262626;stroke:#262626;" x="91.41537" xlink:href="#mecff7c9a90" y="94.103479"/>
      </g>
     </g>
    </g>
    <g id="ytick_33">
     <g id="line2d_42">
      <g>
       <use style="fill:#262626;stroke:#262626;" x="91.41537" xlink:href="#mecff7c9a90" y="89.870963"/>
      </g>
     </g>
    </g>
    <g id="ytick_34">
     <g id="line2d_43">
      <g>
       <use style="fill:#262626;stroke:#262626;" x="91.41537" xlink:href="#mecff7c9a90" y="61.176705"/>
      </g>
     </g>
    </g>
    <g id="ytick_35">
     <g id="line2d_44">
      <g>
       <use style="fill:#262626;stroke:#262626;" x="91.41537" xlink:href="#mecff7c9a90" y="46.606376"/>
      </g>
     </g>
    </g>
    <g id="ytick_36">
     <g id="line2d_45">
      <g>
       <use style="fill:#262626;stroke:#262626;" x="91.41537" xlink:href="#mecff7c9a90" y="36.268563"/>
      </g>
     </g>
    </g>
    <g id="ytick_37">
     <g id="line2d_46">
      <g>
       <use style="fill:#262626;stroke:#262626;" x="91.41537" xlink:href="#mecff7c9a90" y="28.249932"/>
      </g>
     </g>
    </g>
    <g id="ytick_38">
     <g id="line2d_47">
      <g>
       <use style="fill:#262626;stroke:#262626;" x="91.41537" xlink:href="#mecff7c9a90" y="21.698233"/>
      </g>
     </g>
    </g>
    <g id="ytick_39">
     <g id="line2d_48">
      <g>
       <use style="fill:#262626;stroke:#262626;" x="91.41537" xlink:href="#mecff7c9a90" y="16.158851"/>
      </g>
     </g>
    </g>
    <g id="text_15">
     <!-- \textbf{PSD $(\mathrm{V}^2/\mathrm{Hz})$} -->
     <defs>
      <path d="M 27.59375 30.21875 
L 44.59375 30.21875 
C 61.296875 30.21875 70.59375 38.65625 70.59375 48.875 
C 70.59375 59.5625 61.09375 68 44.59375 68 
L 3.796875 68 
L 3.796875 63.71875 
L 14.40625 63.71875 
L 14.40625 4.171875 
L 3.796875 4.171875 
L 3.796875 0 
C 6.703125 0 17.40625 0 21 0 
C 24.59375 0 35.296875 0 38.203125 0 
L 38.203125 4.171875 
L 27.59375 4.171875 
z
M 41 63.71875 
C 56.5 63.71875 56.5 55.59375 56.5 48.859375 
C 56.5 42.328125 56.5 34 41 34 
L 27.09375 34 
L 27.09375 63.71875 
z
" id="CMBX12-80"/>
      <path d="M 25.40625 43.46875 
C 15.5 45.625 15.203125 52.75 15.203125 54.140625 
C 15.203125 59.171875 18.5 65.03125 28.203125 65.03125 
C 37.90625 65.03125 46.59375 60.359375 48.703125 47.34375 
C 49 45.25 49 45.25 50.90625 45.25 
C 53 45.25 53 45.546875 53 47.8125 
L 53 66.4375 
C 53 68.3125 53 69.015625 51.5 69.015625 
C 50.796875 69.015625 50.5 68.921875 49.59375 67.921875 
L 45.296875 63.046875 
C 42.796875 65.140625 37.796875 69 28.09375 69 
C 13.796875 69 6.203125 60.09375 6.203125 49.3125 
C 6.203125 42.6875 9.796875 38.03125 11.203125 36.640625 
C 16.40625 31.5 19.203125 30.90625 29.59375 28.625 
C 39.59375 26.453125 40.796875 26.25 43 24.1875 
C 44.296875 22.890625 47.203125 20.125 47.203125 15.078125 
C 47.203125 10.8125 45.09375 3 33.90625 3 
C 25.09375 3 11.203125 5.96875 10.40625 20.421875 
C 10.296875 22.203125 10.296875 22.5 8.296875 22.5 
C 6.203125 22.5 6.203125 22.203125 6.203125 19.921875 
L 6.203125 1.296875 
C 6.203125 -0.59375 6.203125 -1.28125 7.703125 -1.28125 
C 8.40625 -1.28125 8.5 -1.1875 9.5 -0.296875 
C 10.59375 0.796875 11.5 2.09375 14 4.578125 
C 19.796875 0.015625 28 -1.265625 34 -1.265625 
C 49.59375 -1.265625 56.203125 9.21875 56.203125 19.71875 
C 56.203125 29 50 37.90625 39.09375 40.375 
z
" id="CMBX12-83"/>
      <path d="M 3.796875 68.28125 
L 3.796875 64 
L 14.40625 64 
L 14.40625 4.265625 
L 3.796875 4.265625 
L 3.796875 0 
L 45.90625 0 
C 65.09375 0 79.90625 12.234375 79.90625 33.546875 
C 79.90625 56.046875 64.703125 68.28125 45.90625 68.28125 
z
M 27.09375 4.265625 
L 27.09375 64 
L 42.09375 64 
C 50.796875 64 57.796875 60.625 61.5 55.4375 
C 64.40625 51.359375 66.296875 46.484375 66.296875 33.640625 
C 66.296875 21.984375 64.796875 16.828125 61.296875 12.140625 
C 57.796875 7.546875 51.09375 4.265625 42.09375 4.265625 
z
" id="CMBX12-68"/>
      <path d="M 72.40625 61.734375 
C 73 63.015625 73.40625 64 80.796875 64 
L 82.5 64 
L 82.5 68.171875 
C 79.40625 68.171875 72.203125 68.171875 71.40625 68.171875 
C 68.59375 68.171875 61.5 68.171875 59.203125 68.28125 
L 59.203125 64 
C 61.40625 64 65.09375 64 67.90625 62.90625 
L 67.40625 61.53125 
L 46.90625 15.234375 
L 25.296875 64 
L 34.59375 64 
L 34.59375 68.171875 
C 31.40625 68.171875 21.796875 68.171875 18 68.171875 
C 14.796875 68.171875 4.90625 68.171875 2.40625 68.28125 
L 2.40625 64 
L 11.40625 64 
L 39 1.5625 
C 39.90625 -0.40625 40.796875 -0.5 42.40625 -0.5 
C 44 -0.5 45 -0.5 45.90625 1.5625 
z
" id="CMBX12-86"/>
      <path d="M 50.296875 69.234375 
C 51 70.828125 51 71.015625 51 71.421875 
C 51 73.3125 49.40625 74.5 48 74.5 
C 45.90625 74.5 45.296875 73.015625 44.703125 71.515625 
L 7.09375 -19.71875 
C 6.40625 -21.3125 6.40625 -21.515625 6.40625 -21.90625 
C 6.40625 -23.796875 8 -25 9.40625 -25 
C 11.5 -25 12.203125 -23.296875 12.703125 -22.109375 
z
" id="CMMIB10-61"/>
     </defs>
     <g style="fill:#262626;" transform="translate(32.30802 263.91203)rotate(-90)scale(0.22 -0.22)">
      <use transform="translate(0 -0.0934)scale(0.996264)" xlink:href="#CMBX12-80"/>
      <use transform="translate(76.564811 -0.0934)scale(0.996264)" xlink:href="#CMBX12-83"/>
      <use transform="translate(138.831311 -0.0934)scale(0.996264)" xlink:href="#CMBX12-68"/>
      <use transform="translate(262.095997 -0.0934)scale(0.996264)" xlink:href="#CMBX12-40"/>
      <use transform="translate(305.682548 -0.0934)scale(0.996264)" xlink:href="#CMBX12-86"/>
      <use transform="translate(391.875605 36.060239)scale(0.697382)" xlink:href="#CMBX12-50"/>
      <use transform="translate(431.60145 -0.0934)scale(0.996264)" xlink:href="#CMMIB10-61"/>
      <use transform="translate(488.886327 -0.0934)scale(0.996264)" xlink:href="#CMBX12-72"/>
      <use transform="translate(576.520802 -0.0934)scale(0.996264)" xlink:href="#CMBX12-122"/>
      <use transform="translate(626.334002 -0.0934)scale(0.996264)" xlink:href="#CMBX12-41"/>
     </g>
    </g>
   </g>
   <g id="line2d_49">
    <path clip-path="url(#p24ed6810a7)" d="M 91.41537 349.735928 
L 91.935454 298.508289 
L 92.455538 283.536711 
L 92.975622 298.654999 
L 93.495705 298.96943 
L 94.015789 296.471657 
L 94.535873 313.231564 
L 95.055957 313.336397 
L 95.576041 322.580509 
L 96.616209 308.768032 
L 97.136293 337.22509 
L 97.656376 326.326609 
L 98.17646 302.060127 
L 98.696544 321.249152 
L 99.216628 322.302707 
L 99.736712 305.12707 
L 100.256796 298.90896 
L 100.77688 298.14313 
L 101.296963 301.945352 
L 101.817047 293.834987 
L 102.337131 330.881675 
L 102.857215 315.26682 
L 103.377299 313.855469 
L 103.897383 328.562313 
L 104.417467 315.694621 
L 104.937551 311.820673 
L 105.457634 298.960244 
L 105.977718 289.715666 
L 106.497802 303.289252 
L 107.017886 338.703172 
L 107.53797 344.217233 
L 108.058054 305.759334 
L 108.578138 301.668313 
L 109.098221 294.482027 
L 109.618305 303.275931 
L 110.138389 298.23328 
L 110.658473 300.492264 
L 111.178557 304.597806 
L 111.698641 300.411838 
L 112.218725 323.963198 
L 112.738809 325.931187 
L 113.258892 324.693976 
L 114.29906 303.956282 
L 114.819144 286.364441 
L 115.339228 282.43231 
L 115.859312 283.012156 
L 116.379396 315.024022 
L 117.419563 291.337506 
L 117.939647 302.816011 
L 118.459731 290.315437 
L 118.979815 314.989406 
L 119.499899 325.464871 
L 120.019983 318.690277 
L 120.540067 321.783973 
L 121.06015 327.145645 
L 121.580234 316.418999 
L 122.100318 303.099563 
L 122.620402 283.420217 
L 123.140486 298.261998 
L 123.66057 307.168624 
L 124.180654 311.362748 
L 125.220821 323.900361 
L 125.740905 321.049175 
L 126.260989 324.147071 
L 126.781073 312.438298 
L 127.301157 321.892677 
L 127.821241 315.591199 
L 128.341325 298.599713 
L 128.861408 308.69057 
L 129.381492 340.119677 
L 129.901576 335.050568 
L 130.42166 308.503961 
L 130.941744 297.26125 
L 131.461828 320.312423 
L 132.501996 305.417475 
L 133.022079 314.12565 
L 133.542163 296.708532 
L 134.062247 295.692507 
L 134.582331 307.501394 
L 135.102415 304.666349 
L 135.622499 297.119048 
L 136.142583 325.51483 
L 136.662666 309.441534 
L 137.18275 289.500914 
L 137.702834 308.854803 
L 138.222918 312.575073 
L 138.743002 297.269702 
L 139.263086 291.160712 
L 139.78317 288.058937 
L 140.303254 311.894498 
L 141.343421 296.609634 
L 141.863505 342.610987 
L 142.383589 347.203598 
L 142.903673 283.976565 
L 143.423757 267.395603 
L 143.943841 118.678139 
L 144.463924 17.824739 
L 144.984008 26.382616 
L 146.024176 271.054409 
L 146.54426 318.583561 
L 147.064344 312.398537 
L 147.584428 296.376088 
L 148.104512 302.810362 
L 148.624595 292.447776 
L 149.144679 284.898692 
L 149.664763 312.495214 
L 150.184847 306.534426 
L 150.704931 288.659445 
L 151.225015 309.337047 
L 151.745099 304.224262 
L 152.265182 316.801666 
L 152.785266 342.37656 
L 153.30535 327.34882 
L 153.825434 318.480581 
L 154.345518 306.712618 
L 154.865602 325.751695 
L 155.385686 328.591918 
L 155.90577 334.373576 
L 156.425853 324.917269 
L 156.945937 312.62328 
L 157.466021 312.925763 
L 157.986105 308.317599 
L 158.506189 314.009404 
L 159.026273 299.16671 
L 159.546357 299.057913 
L 160.06644 308.471202 
L 160.586524 333.184529 
L 161.106608 298.396249 
L 161.626692 300.892712 
L 162.146776 302.20192 
L 162.66686 301.255402 
L 163.186944 304.755102 
L 163.707028 306.930343 
L 164.227111 307.058239 
L 164.747195 323.843781 
L 165.267279 316.111091 
L 165.787363 296.717875 
L 166.307447 297.896101 
L 166.827531 302.6381 
L 167.347615 319.451379 
L 167.867698 309.76962 
L 168.387782 297.634291 
L 168.907866 332.103892 
L 169.42795 307.377197 
L 169.948034 312.804396 
L 170.468118 313.222104 
L 170.988202 317.626499 
L 171.508286 306.909834 
L 172.028369 306.147577 
L 172.548453 289.309717 
L 173.068537 288.687961 
L 173.588621 298.197053 
L 174.108705 292.846148 
L 174.628789 302.279642 
L 175.148873 326.576469 
L 175.668956 304.726709 
L 176.18904 292.807712 
L 176.709124 335.994179 
L 177.229208 336.398109 
L 177.749292 310.266011 
L 178.269376 324.863077 
L 178.78946 333.481946 
L 179.309544 324.604243 
L 180.349711 292.774698 
L 180.869795 304.871793 
L 181.389879 324.3242 
L 181.909963 333.325777 
L 182.950131 314.795414 
L 183.470214 331.412575 
L 183.990298 311.588505 
L 184.510382 310.562476 
L 185.030466 315.565867 
L 185.55055 322.86913 
L 186.070634 307.805214 
L 186.590718 301.243324 
L 187.110802 302.597174 
L 187.630885 299.886955 
L 188.150969 341.671339 
L 188.671053 306.948163 
L 189.191137 319.286785 
L 189.711221 301.382058 
L 190.231305 318.761328 
L 190.751389 293.43078 
L 191.271473 298.806265 
L 191.791556 326.066694 
L 192.31164 331.143924 
L 192.831724 315.336206 
L 193.351808 306.179655 
L 193.871892 325.148015 
L 194.391976 327.194582 
L 194.91206 321.349165 
L 195.432143 322.367348 
L 195.952227 313.573273 
L 196.472311 316.172543 
L 196.992395 313.031733 
L 197.512479 292.992535 
L 198.032563 289.038072 
L 198.552647 308.302534 
L 199.072731 304.716729 
L 200.112898 314.624777 
L 200.632982 305.566537 
L 201.153066 302.102091 
L 201.67315 313.153287 
L 202.193234 319.460324 
L 202.713318 301.301677 
L 203.233401 306.312977 
L 203.753485 302.663631 
L 204.273569 284.213211 
L 204.793653 298.579403 
L 205.313737 305.068912 
L 205.833821 302.769695 
L 206.353905 325.92921 
L 206.873989 318.481982 
L 207.394072 323.872294 
L 207.914156 333.633858 
L 208.43424 321.152772 
L 208.954324 284.495954 
L 209.474408 288.003677 
L 209.994492 312.737808 
L 210.514576 325.369221 
L 211.034659 323.999744 
L 211.554743 327.365091 
L 212.074827 331.683979 
L 212.594911 347.543883 
L 213.635079 309.803153 
L 214.155163 308.762186 
L 214.675247 308.672983 
L 215.19533 311.334401 
L 215.715414 328.151847 
L 216.235498 326.511747 
L 216.755582 304.479519 
L 217.275666 314.644241 
L 217.79575 311.841094 
L 218.315834 310.595372 
L 218.835917 320.256161 
L 219.356001 305.173292 
L 219.876085 295.977491 
L 220.396169 292.314294 
L 220.916253 284.803729 
L 221.436337 287.793028 
L 221.956421 288.858366 
L 222.476505 297.561985 
L 222.996588 315.125676 
L 223.516672 325.65053 
L 224.036756 321.943144 
L 224.55684 317.261956 
L 225.076924 303.20461 
L 225.597008 303.0332 
L 226.117092 300.387213 
L 226.637175 308.47383 
L 227.157259 311.143134 
L 227.677343 321.227791 
L 228.197427 324.308358 
L 228.717511 323.829482 
L 229.237595 304.816936 
L 229.757679 310.765487 
L 230.277763 321.567271 
L 230.797846 323.714329 
L 231.31793 294.825304 
L 231.838014 301.891187 
L 232.358098 339.361235 
L 232.878182 339.81645 
L 233.91835 334.954966 
L 234.438433 326.422423 
L 234.958517 308.581734 
L 235.478601 322.306442 
L 235.998685 327.636994 
L 236.518769 294.336747 
L 237.038853 306.883541 
L 237.558937 297.459365 
L 238.079021 279.458803 
L 238.599104 285.380729 
L 239.639272 328.455371 
L 240.159356 320.304331 
L 240.67944 329.46008 
L 241.199524 334.636673 
L 241.719608 324.588658 
L 242.239691 298.682635 
L 242.759775 313.415496 
L 243.279859 310.662691 
L 244.320027 282.398799 
L 244.840111 294.083108 
L 245.360195 337.105265 
L 245.880279 296.488544 
L 246.400362 301.96952 
L 246.920446 350.214741 
L 247.44053 350.808013 
L 247.960614 326.147213 
L 248.480698 307.448821 
L 249.000782 307.808864 
L 249.520866 317.22781 
L 250.040949 310.739119 
L 251.081117 329.125571 
L 251.601201 309.257337 
L 252.121285 318.516483 
L 252.641369 318.751188 
L 253.161453 302.628713 
L 253.681537 300.966938 
L 254.20162 298.045755 
L 254.721704 309.769019 
L 255.241788 333.651674 
L 255.761872 306.763711 
L 256.281956 313.648812 
L 257.322124 306.061541 
L 257.842208 296.313381 
L 258.362291 291.687315 
L 258.882375 312.717794 
L 259.402459 317.694079 
L 259.922543 320.451744 
L 260.442627 291.414998 
L 260.962711 278.998246 
L 261.482795 309.320018 
L 262.002878 322.364977 
L 262.522962 302.114849 
L 263.043046 317.573166 
L 263.56313 309.577341 
L 264.083214 306.288735 
L 264.603298 290.491105 
L 265.123382 305.861771 
L 265.643466 344.078962 
L 266.163549 294.072641 
L 266.683633 295.097932 
L 267.203717 313.518619 
L 267.723801 314.545428 
L 268.243885 293.883759 
L 268.763969 302.833321 
L 269.284053 329.695222 
L 270.32422 294.548354 
L 270.844304 288.328174 
L 271.364388 305.787634 
L 271.884472 316.177098 
L 272.404556 311.472445 
L 272.92464 327.699649 
L 273.444724 320.637931 
L 273.964807 312.018598 
L 274.484891 330.552583 
L 275.004975 339.24865 
L 275.525059 353.190068 
L 276.045143 312.217995 
L 276.565227 314.941188 
L 277.085311 316.812581 
L 277.605394 299.399469 
L 278.125478 304.803768 
L 278.645562 299.82054 
L 279.165646 317.762018 
L 279.68573 313.804038 
L 280.205814 299.720817 
L 280.725898 295.657297 
L 281.245982 312.308404 
L 281.766065 300.39648 
L 282.286149 295.1348 
L 282.806233 321.269999 
L 283.326317 320.862367 
L 283.846401 306.905239 
L 284.366485 309.768393 
L 284.886569 346.730152 
L 285.406652 332.831491 
L 285.926736 330.379407 
L 286.44682 305.234941 
L 286.966904 322.009757 
L 287.486988 312.040609 
L 288.007072 311.518614 
L 288.527156 305.287266 
L 289.567323 312.789916 
L 290.087407 330.861585 
L 290.607491 320.201207 
L 291.127575 314.715771 
L 291.647659 302.027605 
L 292.687827 326.101094 
L 293.20791 301.947665 
L 293.727994 315.626573 
L 294.248078 313.85714 
L 294.768162 301.31504 
L 295.80833 314.849385 
L 296.328414 317.277512 
L 296.848498 322.710813 
L 297.368581 317.888609 
L 297.888665 319.94227 
L 298.928833 295.561652 
L 299.448917 311.454292 
L 299.969001 306.358623 
L 300.489085 298.948356 
L 301.009168 314.059745 
L 301.529252 305.376962 
L 302.049336 302.812688 
L 302.56942 312.67151 
L 303.089504 293.495118 
L 303.609588 307.077683 
L 304.129672 331.221321 
L 304.649756 310.046189 
L 305.169839 310.671876 
L 305.689923 311.770828 
L 306.210007 320.437968 
L 306.730091 310.70903 
L 307.250175 314.344988 
L 307.770259 311.940177 
L 308.290343 297.943005 
L 308.810426 308.264552 
L 309.33051 343.474535 
L 309.850594 312.739643 
L 310.370678 320.933337 
L 310.890762 320.187964 
L 311.410846 298.979182 
L 311.93093 308.783408 
L 312.451014 310.657016 
L 312.971097 313.455018 
L 313.491181 292.613739 
L 314.011265 296.192746 
L 314.531349 282.053481 
L 315.571517 308.642202 
L 316.091601 301.332592 
L 316.611684 307.904906 
L 317.131768 326.716379 
L 317.651852 328.510731 
L 318.171936 327.497859 
L 318.69202 317.405753 
L 319.212104 323.896824 
L 319.732188 306.225736 
L 320.252272 332.61426 
L 320.772355 299.320133 
L 321.292439 310.674762 
L 321.812523 329.488992 
L 322.332607 301.643997 
L 322.852691 289.433534 
L 323.372775 298.939646 
L 323.892859 306.268518 
L 324.412942 286.57285 
L 324.933026 291.693636 
L 325.45311 306.514095 
L 325.973194 332.930984 
L 326.493278 342.231419 
L 327.013362 329.194044 
L 327.533446 324.819467 
L 328.05353 326.696147 
L 328.573613 313.420604 
L 329.093697 326.254083 
L 329.613781 320.342688 
L 330.133865 309.629976 
L 330.653949 314.308595 
L 331.174033 310.336748 
L 331.694117 320.563486 
L 332.214201 327.462396 
L 333.774452 291.561252 
L 334.294536 292.6685 
L 334.81462 313.918321 
L 335.334704 316.769905 
L 335.854788 330.674661 
L 336.374871 363.255643 
L 336.894955 323.366865 
L 337.415039 301.943126 
L 337.935123 292.690251 
L 338.455207 309.956536 
L 338.975291 314.673229 
L 339.495375 292.455005 
L 340.015459 306.409707 
L 340.535542 306.723107 
L 341.055626 300.733296 
L 341.57571 301.792971 
L 342.095794 320.417937 
L 342.615878 316.720055 
L 343.135962 307.007611 
L 343.656046 294.375671 
L 344.176129 290.097079 
L 344.696213 304.931111 
L 345.216297 311.854457 
L 345.736381 297.452455 
L 346.256465 296.663063 
L 346.776549 299.905307 
L 347.296633 300.112882 
L 347.816717 297.631969 
L 348.856884 353.617 
L 349.376968 305.146108 
L 349.897052 302.615951 
L 350.417136 296.979787 
L 350.93722 306.070058 
L 351.457304 307.609469 
L 351.977387 304.370278 
L 353.017555 337.156569 
L 353.537639 341.163046 
L 355.097891 306.017517 
L 355.617975 302.317726 
L 356.138058 314.821184 
L 356.658142 309.491623 
L 357.178226 305.744378 
L 357.69831 333.941629 
L 358.218394 330.664726 
L 358.738478 303.692332 
L 359.258562 302.82373 
L 359.778645 292.626103 
L 360.298729 304.231527 
L 360.818813 311.647305 
L 361.338897 302.794781 
L 361.858981 299.059101 
L 362.379065 309.245284 
L 362.899149 309.978793 
L 363.419233 302.327615 
L 363.939316 328.300288 
L 364.4594 297.760671 
L 364.979484 283.956523 
L 365.499568 292.660186 
L 366.019652 295.350154 
L 366.539736 310.257712 
L 367.05982 314.803527 
L 367.579903 304.622766 
L 368.099987 316.390847 
L 368.620071 308.81174 
L 369.140155 282.234321 
L 369.660239 294.65129 
L 370.180323 314.16846 
L 370.700407 318.594058 
L 371.220491 302.839265 
L 371.740574 297.277823 
L 372.260658 310.521852 
L 372.780742 316.430514 
L 373.300826 331.894453 
L 373.82091 317.074758 
L 374.340994 311.26818 
L 374.861078 334.058102 
L 375.381161 341.400533 
L 375.901245 341.591862 
L 376.421329 338.308754 
L 376.941413 290.312147 
L 377.461497 281.945745 
L 377.981581 314.233469 
L 378.501665 286.579723 
L 379.021749 284.188663 
L 380.582 317.03189 
L 381.102084 305.827667 
L 381.622168 313.60065 
L 382.142252 299.301366 
L 382.662336 302.722953 
L 383.182419 322.431478 
L 383.702503 301.256671 
L 384.222587 285.171425 
L 385.262755 290.365867 
L 386.302923 306.038364 
L 386.823007 305.423837 
L 387.34309 324.232457 
L 387.863174 320.924191 
L 388.383258 330.411207 
L 388.903342 318.146573 
L 389.423426 309.218686 
L 389.94351 320.918718 
L 390.463594 297.872322 
L 390.983677 303.165694 
L 391.503761 338.465575 
L 392.023845 339.047574 
L 393.064013 308.433359 
L 393.584097 308.00479 
L 394.104181 296.430579 
L 394.624265 295.188441 
L 395.144348 295.736552 
L 395.664432 302.751313 
L 396.184516 343.102622 
L 396.7046 330.938885 
L 397.224684 310.805391 
L 397.744768 320.724315 
L 398.264852 303.196535 
L 398.784936 291.871621 
L 399.305019 309.675495 
L 399.825103 339.99652 
L 400.345187 312.44851 
L 400.865271 299.656488 
L 401.385355 301.248888 
L 401.905439 301.210525 
L 402.425523 293.745938 
L 402.945606 291.243811 
L 403.46569 317.086284 
L 403.985774 335.152786 
L 404.505858 320.44409 
L 405.025942 337.843285 
L 405.546026 321.936974 
L 406.06611 312.712128 
L 406.586194 320.280016 
L 407.106277 303.01983 
L 407.626361 290.027263 
L 408.666529 326.141465 
L 409.186613 321.885675 
L 409.706697 309.894775 
L 410.226781 293.543201 
L 410.746864 298.371921 
L 411.266948 292.769207 
L 411.787032 304.918516 
L 412.307116 309.230756 
L 412.8272 307.106068 
L 413.347284 347.248338 
L 413.867368 301.89093 
L 414.387452 295.487927 
L 414.907535 320.667871 
L 415.427619 319.588918 
L 415.947703 309.713336 
L 416.467787 303.528978 
L 416.987871 300.551445 
L 417.507955 328.925546 
L 418.028039 320.413301 
L 418.548122 304.02448 
L 419.068206 325.10705 
L 419.58829 319.669828 
L 420.628458 293.801263 
L 421.148542 317.195135 
L 421.668626 306.976141 
L 422.18871 314.666763 
L 422.708793 308.89808 
L 423.228877 319.743277 
L 423.748961 304.441732 
L 424.269045 333.883706 
L 424.789129 326.504203 
L 425.309213 297.255903 
L 426.34938 314.13864 
L 426.869464 307.838147 
L 427.389548 303.807702 
L 427.909632 315.761424 
L 428.429716 302.70904 
L 428.9498 281.262432 
L 429.469884 298.812632 
L 429.989968 323.25827 
L 430.510051 290.565445 
L 431.030135 290.619466 
L 431.550219 289.562803 
L 432.070303 297.31421 
L 432.590387 327.597401 
L 433.110471 318.116328 
L 433.630555 317.973478 
L 434.150638 330.988385 
L 435.190806 311.723168 
L 435.71089 313.171196 
L 436.230974 322.200449 
L 436.751058 293.042281 
L 437.271142 299.431218 
L 437.791226 299.684973 
L 438.311309 310.011071 
L 438.831393 325.742903 
L 439.351477 360.955958 
L 439.871561 326.793243 
L 440.391645 311.77985 
L 440.911729 330.257377 
L 441.431813 327.895944 
L 441.951896 311.0707 
L 442.47198 311.383029 
L 442.992064 291.591388 
L 443.512148 320.234657 
L 444.032232 332.708424 
L 444.552316 317.826046 
L 445.0724 322.061733 
L 445.592484 330.414744 
L 446.112567 320.718836 
L 446.632651 321.252188 
L 447.152735 318.067524 
L 447.672819 321.16244 
L 448.192903 312.338172 
L 448.712987 317.986711 
L 449.753154 335.473508 
L 450.273238 321.214539 
L 450.793322 327.129193 
L 451.313406 313.636917 
L 452.353574 297.314161 
L 452.873658 297.18472 
L 453.393742 313.288091 
L 453.913825 316.358823 
L 454.433909 323.358767 
L 455.474077 296.491694 
L 455.994161 294.109635 
L 456.514245 307.292272 
L 457.034329 298.650263 
L 457.554413 319.95422 
L 458.074496 292.761214 
L 458.59458 292.912142 
L 459.114664 315.042155 
L 459.634748 320.104927 
L 460.154832 309.659093 
L 460.674916 308.490963 
L 461.195 345.998875 
L 461.715083 315.49027 
L 462.235167 303.315146 
L 463.275335 326.329287 
L 463.795419 308.507134 
L 464.315503 308.812897 
L 464.835587 314.092276 
L 465.355671 326.459204 
L 465.875754 329.334358 
L 466.395838 322.324743 
L 466.915922 328.23242 
L 467.436006 325.600406 
L 467.95609 324.752206 
L 468.476174 325.004801 
L 468.996258 305.006828 
L 469.516341 292.888479 
L 470.036425 317.687689 
L 470.556509 300.349365 
L 471.596677 332.732958 
L 472.116761 325.845962 
L 472.636845 326.722895 
L 473.156929 339.903504 
L 473.677012 307.907811 
L 474.197096 316.333403 
L 474.71718 298.225136 
L 475.237264 315.520287 
L 475.757348 324.939024 
L 476.277432 349.323023 
L 476.797516 306.846791 
L 477.317599 304.514578 
L 477.837683 283.01918 
L 478.357767 277.014579 
L 478.877851 299.017734 
L 479.397935 291.239575 
L 479.918019 298.081746 
L 480.438103 321.298016 
L 480.958187 339.130844 
L 481.47827 316.907588 
L 481.998354 303.578275 
L 482.518438 331.754111 
L 483.038522 338.239023 
L 483.558606 320.137241 
L 484.07869 317.643805 
L 484.598774 333.792189 
L 485.118857 319.599385 
L 485.638941 334.77906 
L 486.679109 317.300503 
L 487.199193 303.218403 
L 487.719277 295.680886 
L 488.239361 302.059809 
L 488.759445 302.347976 
L 489.279528 323.868465 
L 489.799612 310.364333 
L 490.319696 285.66749 
L 490.83978 294.318011 
L 491.359864 292.634727 
L 491.879948 294.509209 
L 492.400032 298.09247 
L 492.920115 295.794224 
L 493.440199 338.413492 
L 493.960283 312.324741 
L 494.480367 305.970551 
L 495.000451 311.087513 
L 495.520535 298.419581 
L 496.040619 289.461961 
L 496.560703 314.098296 
L 497.080786 300.804816 
L 497.60087 296.785479 
L 498.120954 311.804957 
L 498.641038 306.069408 
L 499.161122 309.845556 
L 499.681206 299.660065 
L 500.20129 308.477748 
L 500.721373 332.079022 
L 501.241457 337.028859 
L 501.761541 318.951621 
L 502.281625 343.186128 
L 502.801709 310.906134 
L 503.841877 291.817505 
L 504.361961 302.910191 
L 504.882044 337.071918 
L 505.402128 330.183599 
L 505.922212 319.629433 
L 506.442296 311.949192 
L 506.96238 339.330726 
L 507.482464 309.371291 
L 508.002548 308.906096 
L 508.522631 324.596084 
L 509.042715 316.000874 
L 509.562799 299.889259 
L 510.082883 319.305898 
L 510.602967 321.791842 
L 511.123051 292.975064 
L 511.643135 285.475517 
L 512.163219 286.125652 
L 512.683302 291.517772 
L 513.203386 294.185081 
L 513.72347 284.685325 
L 514.243554 308.19699 
L 514.763638 348.008269 
L 515.283722 327.654822 
L 515.803806 329.312145 
L 516.843973 306.379656 
L 517.364057 310.909233 
L 517.884141 302.540861 
L 518.404225 318.0771 
L 518.924309 316.688807 
L 519.444393 328.559424 
L 519.964477 311.59631 
L 520.48456 298.613577 
L 521.004644 296.296984 
L 521.524728 297.372723 
L 522.044812 301.469747 
L 522.564896 321.183484 
L 523.08498 329.129064 
L 523.605064 326.269069 
L 524.125148 324.486522 
L 524.645231 316.933457 
L 525.165315 324.326289 
L 525.685399 312.010872 
L 526.205483 305.260968 
L 526.725567 306.632591 
L 527.245651 303.7598 
L 527.765735 315.570055 
L 528.285818 333.86338 
L 528.805902 304.75121 
L 529.325986 308.357498 
L 529.84607 317.426634 
L 530.366154 286.710841 
L 531.406322 325.472397 
L 531.926406 305.950504 
L 532.446489 305.449506 
L 532.966573 313.252373 
L 533.486657 316.019147 
L 534.006741 327.455231 
L 535.046909 309.95124 
L 535.566993 328.353157 
L 536.087076 319.817572 
L 536.60716 326.04384 
L 537.127244 300.002929 
L 537.647328 302.655191 
L 538.687496 288.169355 
L 539.20758 293.872334 
L 539.727664 310.504225 
L 540.247747 293.542277 
L 540.767831 287.951007 
L 541.807999 355.156296 
L 542.328083 338.570926 
L 542.848167 333.582182 
L 543.368251 334.530852 
L 543.888334 303.765689 
L 544.408418 299.399376 
L 544.928502 310.435461 
L 545.448586 318.259819 
L 545.96867 344.364307 
L 547.008838 305.389293 
L 547.528922 315.885906 
L 548.049005 320.700936 
L 548.569089 307.011255 
L 549.089173 307.595373 
L 549.609257 318.476151 
L 550.129341 324.317444 
L 550.649425 332.122469 
L 551.169509 333.090426 
L 551.689592 341.997315 
L 552.209676 333.83587 
L 553.249844 287.660304 
L 553.769928 290.395156 
L 554.290012 303.73951 
L 554.810096 302.661358 
L 555.33018 302.360652 
L 555.850263 308.674521 
L 556.370347 313.403722 
L 556.890431 302.646997 
L 557.410515 283.173228 
L 557.930599 287.999177 
L 558.450683 308.095809 
L 558.970767 306.799417 
L 559.49085 311.069692 
L 560.010934 326.216894 
L 560.531018 317.459746 
L 561.051102 301.678747 
L 561.571186 308.714028 
L 562.09127 309.384431 
L 562.611354 314.426072 
L 563.131438 349.819228 
L 564.171605 297.117941 
L 564.691689 304.940357 
L 565.211773 304.624802 
L 565.731857 292.469471 
L 566.251941 291.056176 
L 566.772025 306.130965 
L 567.292108 309.04634 
L 567.812192 295.305045 
L 568.332276 303.648884 
L 568.85236 319.394222 
L 569.372444 307.76932 
L 569.892528 309.249462 
L 570.412612 310.384724 
L 570.932696 320.840252 
L 571.452779 323.935624 
L 571.972863 320.275379 
L 573.013031 295.365193 
L 573.533115 308.887958 
L 574.053199 299.944029 
L 574.573283 308.387461 
L 575.093366 310.029207 
L 575.61345 295.568934 
L 576.133534 294.449388 
L 576.653618 307.556808 
L 577.173702 292.603727 
L 577.693786 306.004803 
L 578.21387 312.76331 
L 578.733954 310.049924 
L 579.254037 311.483383 
L 579.774121 310.408006 
L 580.814289 283.113598 
L 581.334373 306.809294 
L 581.854457 294.442762 
L 582.374541 304.205826 
L 582.894624 322.496573 
L 583.414708 331.327011 
L 583.934792 310.709084 
L 584.454876 315.360707 
L 584.97496 310.32787 
L 585.495044 311.232526 
L 586.535212 320.934895 
L 587.055295 291.035507 
L 587.575379 277.112898 
L 588.095463 307.554157 
L 588.615547 301.821299 
L 589.135631 313.49644 
L 590.175799 288.688777 
L 590.695883 287.489934 
L 591.215966 290.423339 
L 591.73605 297.429923 
L 592.256134 296.664525 
L 592.776218 306.376847 
L 593.296302 303.64457 
L 593.816386 299.886474 
L 594.33647 324.583469 
L 594.856553 325.179919 
L 595.376637 311.311446 
L 595.896721 303.991515 
L 596.416805 321.682635 
L 596.936889 312.716546 
L 597.456973 308.938926 
L 598.497141 346.097391 
L 599.017224 312.651443 
L 599.537308 301.326165 
L 600.057392 329.20671 
L 600.577476 306.783991 
L 601.09756 311.329291 
L 601.617644 306.009911 
L 602.137728 296.993784 
L 602.657811 300.904742 
L 603.177895 300.511649 
L 603.697979 291.340378 
L 604.218063 299.069248 
L 604.738147 344.97796 
L 605.258231 323.151677 
L 605.778315 317.810584 
L 606.298399 302.226708 
L 606.818482 294.93051 
L 607.338566 321.678883 
L 607.85865 322.353433 
L 608.378734 315.779535 
L 608.898818 298.392099 
L 609.418902 284.750578 
L 609.938986 315.563895 
L 610.459069 314.969419 
L 610.979153 303.881638 
L 611.499237 298.063407 
L 612.019321 290.632875 
L 612.539405 292.634146 
L 613.579573 301.89903 
L 614.099657 285.984565 
L 614.61974 299.173899 
L 615.139824 327.926074 
L 615.659908 311.471975 
L 616.179992 314.863662 
L 616.700076 324.037578 
L 617.22016 322.724356 
L 617.740244 320.99421 
L 618.260327 292.969409 
L 618.780411 293.345684 
L 619.300495 290.245159 
L 619.820579 311.953555 
L 620.340663 328.840355 
L 620.860747 279.755851 
L 621.380831 282.727325 
L 621.900915 289.350993 
L 622.420998 292.386538 
L 622.941082 334.649269 
L 623.461166 332.210645 
L 623.98125 342.398551 
L 623.98125 342.398551 
" style="fill:none;stroke:#e41a1c;stroke-linecap:round;stroke-width:2;"/>
   </g>
   <g id="patch_3">
    <path d="M 91.41537 365.09886 
L 91.41537 14.4 
" style="fill:none;stroke:#262626;stroke-linecap:square;stroke-linejoin:miter;stroke-width:1.25;"/>
   </g>
   <g id="patch_4">
    <path d="M 623.98125 365.09886 
L 623.98125 14.4 
" style="fill:none;"/>
   </g>
   <g id="patch_5">
    <path d="M 91.41537 365.09886 
L 623.98125 365.09886 
" style="fill:none;stroke:#262626;stroke-linecap:square;stroke-linejoin:miter;stroke-width:1.25;"/>
   </g>
   <g id="patch_6">
    <path d="M 91.41537 14.4 
L 623.98125 14.4 
" style="fill:none;"/>
   </g>
  </g>
 </g>
 <defs>
  <clipPath id="p24ed6810a7">
   <rect height="350.69886" width="532.56588" x="91.41537" y="14.4"/>
  </clipPath>
 </defs>
</svg>
