<?xml version="1.0" encoding="utf-8" standalone="no"?>
<!DOCTYPE svg PUBLIC "-//W3C//DTD SVG 1.1//EN"
  "http://www.w3.org/Graphics/SVG/1.1/DTD/svg11.dtd">
<!-- Created with matplotlib (https://matplotlib.org/) -->
<svg height="432pt" version="1.1" viewBox="0 0 648 432" width="648pt" xmlns="http://www.w3.org/2000/svg" xmlns:xlink="http://www.w3.org/1999/xlink">
 <defs>
  <style type="text/css">
*{stroke-linecap:butt;stroke-linejoin:round;}
  </style>
 </defs>
 <g id="figure_1">
  <g id="patch_1">
   <path d="M 0 432 
L 648 432 
L 648 0 
L 0 0 
z
" style="fill:#ffffff;"/>
  </g>
  <g id="axes_1">
   <g id="patch_2">
    <path d="M 74.45691 365.09886 
L 623.98125 365.09886 
L 623.98125 14.4 
L 74.45691 14.4 
z
" style="fill:#ffffff;"/>
   </g>
   <g id="matplotlib.axis_1">
    <g id="xtick_1">
     <g id="line2d_1">
      <defs>
       <path d="M 0 0 
L 0 6 
" id="m6a49503dbf" style="stroke:#262626;stroke-width:1.25;"/>
      </defs>
      <g>
       <use style="fill:#262626;stroke:#262626;stroke-width:1.25;" x="208.618126" xlink:href="#m6a49503dbf" y="365.09886"/>
      </g>
     </g>
     <g id="text_1">
      <!-- $1000$ -->
      <defs>
       <path d="M 34.59375 62.109375 
C 34.59375 65 34.40625 65 31.203125 65 
C 23.796875 59 12.703125 59 10.5 59 
L 8.59375 59 
L 8.59375 54.734375 
L 10.5 54.734375 
C 14 54.734375 19.296875 55.328125 23.296875 56.625 
L 23.296875 4.171875 
L 9.40625 4.171875 
L 9.40625 0 
C 13.59375 0 24.09375 0 28.796875 0 
C 33.5 0 44.09375 0 48.296875 0 
L 48.296875 4.171875 
L 34.59375 4.171875 
z
" id="CMBX12-49"/>
       <path d="M 51.703125 31.84375 
C 51.703125 41.375 51.703125 65.28125 28.09375 65.28125 
C 4.40625 65.28125 4.40625 41.46875 4.40625 31.84375 
C 4.40625 22.3125 4.40625 -1 28 -1 
C 51.59375 -1 51.703125 22.015625 51.703125 31.84375 
z
M 28.09375 2.28125 
C 24.90625 2.28125 22.5 3.5625 20.5 5.65625 
C 18 8.140625 16.40625 9.703125 16.40625 33.03125 
C 16.40625 39.984375 16.40625 46.3125 17.203125 51.484375 
C 18.59375 61.3125 25.796875 62 28 62 
C 31.203125 62 37.40625 60.515625 38.796875 52.1875 
C 39.703125 47.109375 39.703125 39.078125 39.703125 33.03125 
C 39.703125 9.609375 38.203125 8.234375 35.203125 5.25 
C 33.203125 3.265625 30.5 2.28125 28.09375 2.28125 
z
" id="CMBX12-48"/>
      </defs>
      <g style="fill:#262626;" transform="translate(188.368126 387.09886)scale(0.18 -0.18)">
       <use transform="scale(0.996264)" xlink:href="#CMBX12-49"/>
       <use transform="translate(56.039851 0)scale(0.996264)" xlink:href="#CMBX12-48"/>
       <use transform="translate(112.079701 0)scale(0.996264)" xlink:href="#CMBX12-48"/>
       <use transform="translate(168.119552 0)scale(0.996264)" xlink:href="#CMBX12-48"/>
      </g>
     </g>
    </g>
    <g id="xtick_2">
     <g id="line2d_2">
      <g>
       <use style="fill:#262626;stroke:#262626;stroke-width:1.25;" x="342.779342" xlink:href="#m6a49503dbf" y="365.09886"/>
      </g>
     </g>
     <g id="text_2">
      <!-- $2000$ -->
      <defs>
       <path d="M 50.5 21.375 
L 46.296875 21.375 
C 46 19.28125 45.296875 13.40625 43.796875 12.421875 
C 43 11.71875 35.203125 11.71875 33.703125 11.71875 
L 18.203125 11.71875 
C 22 14.90625 31.09375 22.46875 32.59375 23.578125 
C 43.703125 31.84375 50.5 36.90625 50.5 46.46875 
C 50.5 58.203125 39.796875 65.28125 26.59375 65.28125 
C 15.296875 65.28125 5.59375 58.90625 5.59375 49.453125 
C 5.59375 44.171875 9.90625 42.6875 12.203125 42.6875 
C 15.296875 42.6875 18.90625 44.765625 18.90625 49.359375 
C 18.90625 53.546875 15.796875 55.625 12.703125 56.03125 
C 16.703125 60.609375 22 61 24.09375 61 
C 33.296875 61 37.703125 53.546875 37.703125 46.375 
C 37.703125 38.609375 32.40625 31.453125 28.296875 27.171875 
L 6.59375 4.578125 
C 5.59375 3.671875 5.59375 3.484375 5.59375 1.6875 
L 5.59375 0 
L 47.59375 0 
z
" id="CMBX12-50"/>
      </defs>
      <g style="fill:#262626;" transform="translate(322.529342 387.09886)scale(0.18 -0.18)">
       <use transform="scale(0.996264)" xlink:href="#CMBX12-50"/>
       <use transform="translate(56.039851 0)scale(0.996264)" xlink:href="#CMBX12-48"/>
       <use transform="translate(112.079701 0)scale(0.996264)" xlink:href="#CMBX12-48"/>
       <use transform="translate(168.119552 0)scale(0.996264)" xlink:href="#CMBX12-48"/>
      </g>
     </g>
    </g>
    <g id="xtick_3">
     <g id="line2d_3">
      <g>
       <use style="fill:#262626;stroke:#262626;stroke-width:1.25;" x="476.940557" xlink:href="#m6a49503dbf" y="365.09886"/>
      </g>
     </g>
     <g id="text_3">
      <!-- $3000$ -->
      <defs>
       <path d="M 26.09375 33 
C 37.296875 33 37.296875 22.71875 37.296875 17.984375 
C 37.296875 13.53125 37.296875 3.0625 26.5 3.0625 
C 24.40625 3.0625 17.796875 3.0625 13 6.625 
C 17.296875 7.515625 18.796875 10.59375 18.796875 13.5625 
C 18.796875 17.625 15.90625 20.5 11.796875 20.5 
C 7.59375 20.5 4.703125 17.625 4.703125 13.46875 
C 4.703125 4.34375 14.703125 -1 27 -1 
C 43.5 -1 51.40625 8.015625 51.40625 17.921875 
C 51.40625 22.796875 48.90625 32.203125 33.40625 34.875 
C 42.203125 37.59375 48.296875 43.8125 48.296875 51.71875 
C 48.296875 59.25 41.09375 65.578125 27.203125 65.578125 
C 16 65.578125 7.796875 59.65625 7.796875 51.53125 
C 7.796875 46.515625 11.703125 44.90625 14.296875 44.90625 
C 17.203125 44.90625 20.703125 46.8125 20.703125 51.4375 
C 20.703125 53.765625 19.703125 57.171875 15 57.875 
C 19.203125 62 26 62 26.59375 62 
C 35.5 62 35.5 55.03125 35.5 52.015625 
C 35.5 48.984375 35.09375 44.328125 31.90625 40.203125 
C 29.296875 36.75 26.703125 36.5625 22.90625 36.5625 
C 21.703125 36.265625 19.703125 36.265625 19.296875 36.078125 
C 18.703125 35.78125 18.703125 35.078125 18.703125 34.6875 
C 18.703125 33 19.296875 33 21.296875 33 
z
" id="CMBX12-51"/>
      </defs>
      <g style="fill:#262626;" transform="translate(456.690557 387.09886)scale(0.18 -0.18)">
       <use transform="scale(0.996264)" xlink:href="#CMBX12-51"/>
       <use transform="translate(56.039851 0)scale(0.996264)" xlink:href="#CMBX12-48"/>
       <use transform="translate(112.079701 0)scale(0.996264)" xlink:href="#CMBX12-48"/>
       <use transform="translate(168.119552 0)scale(0.996264)" xlink:href="#CMBX12-48"/>
      </g>
     </g>
    </g>
    <g id="xtick_4">
     <g id="line2d_4">
      <g>
       <use style="fill:#262626;stroke:#262626;stroke-width:1.25;" x="611.101773" xlink:href="#m6a49503dbf" y="365.09886"/>
      </g>
     </g>
     <g id="text_4">
      <!-- $4000$ -->
      <defs>
       <path d="M 43.296875 15.71875 
L 53 15.71875 
L 53 20 
L 43.296875 20 
L 43.296875 62.609375 
C 43.296875 65.09375 43.203125 65.5 40.703125 65.5 
C 38.90625 65.5 38.703125 65.5 37.5 64 
L 3.09375 20 
L 3.09375 15.71875 
L 31.5 15.71875 
L 31.5 4.171875 
L 20.59375 4.171875 
L 20.59375 0 
C 23.5 0 33.40625 0 37 0 
C 40.40625 0 50.296875 0 53 -0.09375 
L 53 4.171875 
L 43.296875 4.171875 
z
M 32.40625 51.59375 
L 32.40625 20 
L 7.703125 20 
z
" id="CMBX12-52"/>
      </defs>
      <g style="fill:#262626;" transform="translate(590.851773 387.09886)scale(0.18 -0.18)">
       <use transform="scale(0.996264)" xlink:href="#CMBX12-52"/>
       <use transform="translate(56.039851 0)scale(0.996264)" xlink:href="#CMBX12-48"/>
       <use transform="translate(112.079701 0)scale(0.996264)" xlink:href="#CMBX12-48"/>
       <use transform="translate(168.119552 0)scale(0.996264)" xlink:href="#CMBX12-48"/>
      </g>
     </g>
    </g>
    <g id="text_5">
     <!-- \textbf{Frequency (Hz)} -->
     <defs>
      <path d="M 63 67.28125 
L 3.796875 67.28125 
L 3.796875 63 
L 14.40625 63 
L 14.40625 4.171875 
L 3.796875 4.171875 
L 3.796875 0 
C 6.703125 0 18.09375 0 21.796875 0 
C 27.09375 0 36 0 40.90625 0 
L 40.90625 4.171875 
L 27.59375 4.171875 
L 27.59375 31.71875 
L 33.09375 31.71875 
C 42.703125 31.71875 43.5 27.3125 43.5 20 
L 47.703125 20 
L 47.703125 47.53125 
L 43.5 47.53125 
C 43.5 40.328125 42.703125 36 33.09375 36 
L 27.59375 36 
L 27.59375 63 
L 41.90625 63 
C 57.796875 63 60.296875 55.875 61.703125 44.078125 
L 65.90625 44.078125 
z
" id="CMBX12-70"/>
      <path d="M 20.796875 22.046875 
C 20.796875 25.296875 21.5 41 33.203125 41 
C 31.796875 39.921875 31.09375 38.25 31.09375 36.5 
C 31.09375 32.484375 34.40625 30.8125 36.90625 30.8125 
C 39.40625 30.8125 42.703125 32.484375 42.703125 36.515625 
C 42.703125 41.53125 37.5 44.28125 32.703125 44.28125 
C 24.796875 44.28125 21.40625 37.515625 20 33.390625 
L 19.90625 33.390625 
L 19.90625 44 
L 3.5 44 
L 3.5 39.328125 
C 9.703125 39.328125 10.40625 39.328125 10.40625 35.46875 
L 10.40625 4.0625 
L 3.5 4.0625 
L 3.5 -0.203125 
C 5.796875 0 13.296875 0 16.09375 0 
C 19 0 27.09375 0 29.5 -0.203125 
L 29.5 4.0625 
L 20.796875 4.0625 
z
" id="CMBX12-114"/>
      <path d="M 45.203125 22 
C 47.5 22 48.09375 22 48.09375 24.484375 
C 48.09375 27.46875 47.40625 34.890625 42.796875 39.5625 
C 38.59375 43.71875 33 45 27.203125 45 
C 11.59375 45 3.09375 34.890625 3.09375 22.40625 
C 3.09375 8.515625 13.40625 -0.5 28.5 -0.5 
C 43.59375 -0.5 48.09375 10 48.09375 11.6875 
C 48.09375 13.171875 46.59375 13.171875 46 13.171875 
C 44.40625 13.171875 44.296875 12.875 43.703125 11.59375 
C 41.09375 5.15625 34.5 3.078125 29.703125 3.078125 
C 15.203125 3.078125 15.09375 16.453125 15.09375 22 
z
M 15.09375 24.890625 
C 15.296875 28.9375 15.40625 32.8125 17.5 36.375 
C 19.40625 39.546875 22.90625 41.71875 27.203125 41.71875 
C 37.90625 41.71875 38.796875 29.828125 38.90625 24.890625 
z
" id="CMBX12-101"/>
      <path d="M 52 44.578125 
L 48.296875 44.578125 
L 43 36.359375 
C 39.5 41.421875 34.59375 44.578125 28 44.578125 
C 14.203125 44.578125 3.796875 36.078125 3.796875 22.03125 
C 3.796875 7.890625 13.796875 -0.5 27 -0.5 
C 30.796875 -0.5 35.90625 0.296875 41.09375 5.15625 
L 41.09375 -14.921875 
L 34.203125 -14.921875 
L 34.203125 -19.1875 
C 36.5 -19 43.703125 -19 46.5 -19 
C 49.296875 -19 56.59375 -19 58.90625 -19.1875 
L 58.90625 -14.921875 
L 52 -14.921875 
z
M 41.59375 11.859375 
C 37.40625 4.046875 31.5 2.78125 28.203125 2.78125 
C 21.796875 2.78125 15.796875 8.609375 15.796875 21.9375 
C 15.796875 36.359375 23.40625 41 29.296875 41 
C 37.09375 41 41.59375 33 41.59375 28.453125 
z
" id="CMBX12-113"/>
      <path d="M 35.296875 44.671875 
L 35.296875 40 
C 41.5 40 42.203125 40 42.203125 36.125 
L 42.203125 16.5 
C 42.203125 8.890625 37.703125 2.78125 29.90625 2.78125 
C 22.40625 2.78125 22 5.265625 22 10.6875 
L 22 44.671875 
L 4.203125 44.671875 
L 4.203125 40 
C 10.40625 40 11.09375 40 11.09375 36.125 
L 11.09375 12.40625 
C 11.09375 2.390625 17.796875 -0.5 28.5 -0.5 
C 30.90625 -0.5 38.296875 -0.5 42.59375 7.75 
L 42.703125 7.75 
L 42.703125 0 
L 60 0 
L 60 4.5625 
C 53.796875 4.5625 53.09375 4.5625 53.09375 8.4375 
L 53.09375 44.671875 
z
" id="CMBX12-117"/>
      <path d="M 53.09375 30.0625 
C 53.09375 39.453125 49 44.28125 38 44.28125 
C 30.796875 44.28125 24.59375 40.859375 21.203125 33.484375 
L 21.09375 33.484375 
L 21.09375 44 
L 4.203125 44 
L 4.203125 39.328125 
C 10.40625 39.328125 11.09375 39.328125 11.09375 35.46875 
L 11.09375 4.0625 
L 4.203125 4.0625 
L 4.203125 -0.203125 
C 6.5 0 13.703125 0 16.5 0 
C 19.296875 0 26.59375 0 28.90625 -0.203125 
L 28.90625 4.0625 
L 22 4.0625 
L 22 25.109375 
C 22 35.765625 30 41 36.40625 41 
C 40.09375 41 42.203125 38.640625 42.203125 31.140625 
L 42.203125 4.0625 
L 35.296875 4.0625 
L 35.296875 -0.203125 
C 37.59375 0 44.796875 0 47.59375 0 
C 50.40625 0 57.703125 0 60 -0.203125 
L 60 4.0625 
L 53.09375 4.0625 
z
" id="CMBX12-110"/>
      <path d="M 46.796875 11.765625 
C 46.796875 12.953125 45.703125 12.953125 44.703125 12.953125 
C 43.09375 12.953125 43 12.859375 42.5 11.671875 
C 41.796875 9.765625 39.09375 3.078125 29.90625 3.078125 
C 15.796875 3.078125 15.796875 18.21875 15.796875 22.703125 
C 15.796875 28.578125 15.90625 41.625 29 41.625 
C 29.703125 41.625 35.59375 41.625 35.59375 41.125 
C 35.59375 41 35.5 40.90625 35.296875 40.8125 
C 35 40.515625 33.703125 39 33.703125 36.46875 
C 33.703125 32.25 37.09375 30.53125 39.59375 30.53125 
C 41.703125 30.53125 45.5 31.859375 45.5 36.65625 
C 45.5 45 34 45 28.59375 45 
C 10.796875 45 3.796875 33.515625 3.796875 22.09375 
C 3.796875 8.625 13.296875 -0.5 28 -0.5 
C 43.703125 -0.5 46.796875 11.0625 46.796875 11.765625 
z
" id="CMBX12-99"/>
      <path d="M 49.5 37.828125 
C 50.09375 39.203125 50.5 40 56.90625 40 
L 56.90625 44.171875 
C 53.5 44.171875 53.09375 44.171875 49 44.171875 
C 46.296875 44.171875 46.09375 44.171875 40.40625 44.171875 
L 40.40625 40 
C 40.5 40 45.203125 40 45.203125 38.71875 
C 45.203125 38.421875 44.90625 37.828125 44.796875 37.53125 
L 33.09375 12.578125 
L 20.296875 40 
L 25.796875 40 
L 25.796875 44.265625 
C 23.40625 44.171875 16.59375 44.171875 13.796875 44.171875 
C 10.90625 44.171875 5 44.171875 2.40625 44.265625 
L 2.40625 40 
L 8.796875 40 
L 27.296875 0.3125 
C 26.796875 -0.875 25.40625 -3.75 24.90625 -4.9375 
C 22.796875 -9.390625 19.59375 -16.21875 12.59375 -16.21875 
C 12.203125 -16.21875 11 -16.21875 9.90625 -15.625 
C 10.09375 -15.515625 13.09375 -14.328125 13.09375 -10.5625 
C 13.09375 -7.3125 10.703125 -5.234375 7.703125 -5.234375 
C 4.59375 -5.234375 2.203125 -7.328125 2.203125 -10.6875 
C 2.203125 -15.34375 6.59375 -19.5 12.59375 -19.5 
C 20.796875 -19.5 26.203125 -12.171875 28.203125 -7.8125 
z
" id="CMBX12-121"/>
      <path d="M 37.40625 -23.8125 
C 37.40625 -23.40625 37.40625 -23.203125 35.5 -21.421875 
C 24.296875 -10.296875 20 7.203125 20 24.6875 
C 20 44.28125 24.90625 60.390625 36.09375 71.609375 
C 37.296875 72.796875 37.40625 72.90625 37.40625 73.296875 
C 37.40625 74.5 36.203125 74.5 35.703125 74.5 
C 34.796875 74.5 34.59375 74.5 32 72.40625 
C 17.59375 60.984375 10.796875 42.6875 10.796875 24.8125 
C 10.796875 6.515625 17.703125 -11.28125 31.90625 -22.8125 
C 34.5 -25 34.703125 -25 35.703125 -25 
C 36.203125 -25 37.40625 -25 37.40625 -23.8125 
z
" id="CMBX12-40"/>
      <path d="M 73.5 63.828125 
L 84.09375 63.828125 
L 84.09375 68 
C 81.203125 68 70.5 68 66.90625 68 
C 63.296875 68 52.59375 68 49.703125 68 
L 49.703125 63.828125 
L 60.296875 63.828125 
L 60.296875 37.265625 
L 27.59375 37.265625 
L 27.59375 63.828125 
L 38.203125 63.828125 
L 38.203125 68 
C 35.296875 68 24.59375 68 21 68 
C 17.40625 68 6.703125 68 3.796875 68 
L 3.796875 63.828125 
L 14.40625 63.828125 
L 14.40625 4.171875 
L 3.796875 4.171875 
L 3.796875 0 
C 6.703125 0 17.40625 0 21 0 
C 24.59375 0 35.296875 0 38.203125 0 
L 38.203125 4.171875 
L 27.59375 4.171875 
L 27.59375 33 
L 60.296875 33 
L 60.296875 4.171875 
L 49.703125 4.171875 
L 49.703125 0 
C 52.59375 0 63.296875 0 66.90625 0 
C 70.5 0 81.203125 0 84.09375 0 
L 84.09375 4.171875 
L 73.5 4.171875 
z
" id="CMBX12-72"/>
      <path d="M 44 40.234375 
C 44.90625 41.3125 44.90625 41.515625 44.90625 42.109375 
C 44.90625 44 43.90625 44 42 44 
L 5.796875 44 
L 4.703125 26.953125 
L 8.90625 26.953125 
C 9.5 36.359375 11.703125 40.71875 22.796875 40.71875 
L 31.796875 40.71875 
L 4 3.953125 
C 3.09375 2.875 3.09375 2.6875 3.09375 1.984375 
C 3.09375 0 4 0 6 0 
L 43.5 0 
L 45.203125 19.625 
L 41 19.625 
C 40.203125 9.125 38 3.578125 25.40625 3.578125 
L 16.296875 3.578125 
z
" id="CMBX12-122"/>
      <path d="M 32.796875 24.703125 
C 32.796875 42.984375 25.90625 60.78125 11.703125 72.3125 
C 9.09375 74.5 8.90625 74.5 7.90625 74.5 
C 7.40625 74.5 6.203125 74.5 6.203125 73.3125 
C 6.203125 72.921875 6.203125 72.71875 8.09375 70.9375 
C 19.296875 59.796875 23.59375 42.3125 23.59375 24.8125 
C 23.59375 5.21875 18.703125 -10.875 7.5 -22.109375 
C 6.296875 -23.3125 6.203125 -23.40625 6.203125 -23.8125 
C 6.203125 -25 7.40625 -25 7.90625 -25 
C 8.796875 -25 9 -25 11.59375 -22.90625 
C 26 -11.484375 32.796875 6.8125 32.796875 24.703125 
z
" id="CMBX12-41"/>
     </defs>
     <g style="fill:#262626;" transform="translate(264.88573 412.1)scale(0.22 -0.22)">
      <use transform="translate(0 -0.0934)scale(0.996264)" xlink:href="#CMBX12-70"/>
      <use transform="translate(61.113445 -0.0934)scale(0.996264)" xlink:href="#CMBX12-114"/>
      <use transform="translate(106.890953 -0.0934)scale(0.996264)" xlink:href="#CMBX12-101"/>
      <use transform="translate(158.03022 -0.0934)scale(0.996264)" xlink:href="#CMBX12-113"/>
      <use transform="translate(217.183396 -0.0934)scale(0.996264)" xlink:href="#CMBX12-117"/>
      <use transform="translate(279.449896 -0.0934)scale(0.996264)" xlink:href="#CMBX12-101"/>
      <use transform="translate(330.589163 -0.0934)scale(0.996264)" xlink:href="#CMBX12-110"/>
      <use transform="translate(392.855664 -0.0934)scale(0.996264)" xlink:href="#CMBX12-99"/>
      <use transform="translate(442.668864 -0.0934)scale(0.996264)" xlink:href="#CMBX12-121"/>
      <use transform="translate(539.18194 -0.0934)scale(0.996264)" xlink:href="#CMBX12-40"/>
      <use transform="translate(582.768491 -0.0934)scale(0.996264)" xlink:href="#CMBX12-72"/>
      <use transform="translate(670.402966 -0.0934)scale(0.996264)" xlink:href="#CMBX12-122"/>
      <use transform="translate(720.216166 -0.0934)scale(0.996264)" xlink:href="#CMBX12-41"/>
     </g>
    </g>
   </g>
   <g id="matplotlib.axis_2">
    <g id="ytick_1">
     <g id="line2d_5">
      <defs>
       <path d="M 0 0 
L -6 0 
" id="m8026fb8ec0" style="stroke:#262626;stroke-width:1.25;"/>
      </defs>
      <g>
       <use style="fill:#262626;stroke:#262626;stroke-width:1.25;" x="74.45691" xlink:href="#m8026fb8ec0" y="365.09886"/>
      </g>
     </g>
     <g id="text_6">
      <!-- $0.0$ -->
      <defs>
       <path d="M 23.703125 7.765625 
C 23.703125 12.046875 20.203125 15.53125 15.90625 15.53125 
C 11.59375 15.53125 8.09375 12.046875 8.09375 7.765625 
C 8.09375 3.484375 11.59375 0 15.90625 0 
C 20.203125 0 23.703125 3.484375 23.703125 7.765625 
z
" id="CMMIB10-58"/>
      </defs>
      <g style="fill:#262626;" transform="translate(38.95694 371.34886)scale(0.18 -0.18)">
       <use transform="scale(0.996264)" xlink:href="#CMBX12-48"/>
       <use transform="translate(56.039851 0)scale(0.996264)" xlink:href="#CMMIB10-58"/>
       <use transform="translate(87.864782 0)scale(0.996264)" xlink:href="#CMBX12-48"/>
      </g>
     </g>
    </g>
    <g id="ytick_2">
     <g id="line2d_6">
      <g>
       <use style="fill:#262626;stroke:#262626;stroke-width:1.25;" x="74.45691" xlink:href="#m8026fb8ec0" y="311.581959"/>
      </g>
     </g>
     <g id="text_7">
      <!-- $0.1$ -->
      <g style="fill:#262626;" transform="translate(38.95694 317.831959)scale(0.18 -0.18)">
       <use transform="scale(0.996264)" xlink:href="#CMBX12-48"/>
       <use transform="translate(56.039851 0)scale(0.996264)" xlink:href="#CMMIB10-58"/>
       <use transform="translate(87.864782 0)scale(0.996264)" xlink:href="#CMBX12-49"/>
      </g>
     </g>
    </g>
    <g id="ytick_3">
     <g id="line2d_7">
      <g>
       <use style="fill:#262626;stroke:#262626;stroke-width:1.25;" x="74.45691" xlink:href="#m8026fb8ec0" y="258.065057"/>
      </g>
     </g>
     <g id="text_8">
      <!-- $0.2$ -->
      <g style="fill:#262626;" transform="translate(38.95694 264.315057)scale(0.18 -0.18)">
       <use transform="scale(0.996264)" xlink:href="#CMBX12-48"/>
       <use transform="translate(56.039851 0)scale(0.996264)" xlink:href="#CMMIB10-58"/>
       <use transform="translate(87.864782 0)scale(0.996264)" xlink:href="#CMBX12-50"/>
      </g>
     </g>
    </g>
    <g id="ytick_4">
     <g id="line2d_8">
      <g>
       <use style="fill:#262626;stroke:#262626;stroke-width:1.25;" x="74.45691" xlink:href="#m8026fb8ec0" y="204.548156"/>
      </g>
     </g>
     <g id="text_9">
      <!-- $0.3$ -->
      <g style="fill:#262626;" transform="translate(38.95694 210.798156)scale(0.18 -0.18)">
       <use transform="scale(0.996264)" xlink:href="#CMBX12-48"/>
       <use transform="translate(56.039851 0)scale(0.996264)" xlink:href="#CMMIB10-58"/>
       <use transform="translate(87.864782 0)scale(0.996264)" xlink:href="#CMBX12-51"/>
      </g>
     </g>
    </g>
    <g id="ytick_5">
     <g id="line2d_9">
      <g>
       <use style="fill:#262626;stroke:#262626;stroke-width:1.25;" x="74.45691" xlink:href="#m8026fb8ec0" y="151.031255"/>
      </g>
     </g>
     <g id="text_10">
      <!-- $0.4$ -->
      <g style="fill:#262626;" transform="translate(38.95694 157.281255)scale(0.18 -0.18)">
       <use transform="scale(0.996264)" xlink:href="#CMBX12-48"/>
       <use transform="translate(56.039851 0)scale(0.996264)" xlink:href="#CMMIB10-58"/>
       <use transform="translate(87.864782 0)scale(0.996264)" xlink:href="#CMBX12-52"/>
      </g>
     </g>
    </g>
    <g id="ytick_6">
     <g id="line2d_10">
      <g>
       <use style="fill:#262626;stroke:#262626;stroke-width:1.25;" x="74.45691" xlink:href="#m8026fb8ec0" y="97.514353"/>
      </g>
     </g>
     <g id="text_11">
      <!-- $0.5$ -->
      <defs>
       <path d="M 15.40625 51.796875 
C 18.796875 51 21.5 51 23 51 
C 25.40625 51 31.09375 51 37.796875 55.109375 
C 40.90625 56.984375 46.09375 61.5 46.09375 63.796875 
C 46.09375 64.296875 46.09375 65.5 44.90625 65.5 
C 44.796875 65.5 44.59375 65.5 43.59375 64.984375 
C 39 63.34375 34.09375 62.21875 28.5 62.21875 
C 22.796875 62.21875 18 63.3125 13.296875 65 
C 12.59375 65.203125 12.296875 65.40625 12 65.40625 
C 10.796875 65.40625 10.796875 64.40625 10.796875 62.71875 
L 10.796875 33.796875 
C 10.796875 31.90625 10.796875 30.8125 12.796875 30.8125 
C 13.796875 30.8125 14 30.921875 14.796875 31.90625 
C 16 33.3125 19.59375 37.71875 28.09375 37.71875 
C 37.296875 37.71875 37.296875 28.359375 37.296875 20.5 
C 37.296875 13.3125 37.296875 2.96875 25 2.96875 
C 21.296875 2.96875 15 4.359375 11.59375 10 
C 16.90625 10 18.203125 13.984375 18.203125 16.171875 
C 18.203125 19.75 15.59375 22.421875 11.90625 22.421875 
C 8.90625 22.421875 5.59375 20.640625 5.59375 15.96875 
C 5.59375 7.34375 13.5 -1 25.40625 -1 
C 40.796875 -1 50.5 7.859375 50.5 20.203125 
C 50.5 32.34375 42.203125 41 28.5 41 
C 24.5 41 19.703125 40.203125 15.40625 37.015625 
z
" id="CMBX12-53"/>
      </defs>
      <g style="fill:#262626;" transform="translate(38.95694 103.764353)scale(0.18 -0.18)">
       <use transform="scale(0.996264)" xlink:href="#CMBX12-48"/>
       <use transform="translate(56.039851 0)scale(0.996264)" xlink:href="#CMMIB10-58"/>
       <use transform="translate(87.864782 0)scale(0.996264)" xlink:href="#CMBX12-53"/>
      </g>
     </g>
    </g>
    <g id="ytick_7">
     <g id="line2d_11">
      <g>
       <use style="fill:#262626;stroke:#262626;stroke-width:1.25;" x="74.45691" xlink:href="#m8026fb8ec0" y="43.997452"/>
      </g>
     </g>
     <g id="text_12">
      <!-- $0.6$ -->
      <defs>
       <path d="M 17.40625 36.25 
C 17.40625 42.328125 17.703125 48.53125 20.5 53.90625 
C 22.703125 58.109375 27.796875 62 34.296875 62 
C 36.203125 62 39.796875 61.703125 42.203125 59.203125 
C 38.40625 58.8125 36.796875 56.015625 36.796875 53.3125 
C 36.796875 49.703125 39.5 47.40625 42.703125 47.40625 
C 45.296875 47.40625 48.59375 49.109375 48.59375 53.5 
C 48.59375 59.484375 44.59375 65.578125 34.09375 65.578125 
C 21.59375 65.578125 4.703125 57.796875 4.703125 31.796875 
C 4.703125 25.109375 4.703125 -1 28.40625 -1 
C 41.59375 -1 51.40625 6.765625 51.40625 20.703125 
C 51.40625 34.640625 41.703125 42 29.796875 42 
C 27.796875 42 21.40625 42 17.40625 33.546875 
z
M 28.296875 2.96875 
C 21.90625 2.96875 19.40625 8.34375 19 9.140625 
C 17.59375 12.4375 17.59375 20.40625 17.59375 21.296875 
C 17.59375 33.546875 22.90625 38.734375 28.796875 38.734375 
C 38.703125 38.734375 38.703125 30.765625 38.703125 20.796875 
C 38.703125 10.9375 38.703125 2.96875 28.296875 2.96875 
z
" id="CMBX12-54"/>
      </defs>
      <g style="fill:#262626;" transform="translate(38.95694 50.247452)scale(0.18 -0.18)">
       <use transform="scale(0.996264)" xlink:href="#CMBX12-48"/>
       <use transform="translate(56.039851 0)scale(0.996264)" xlink:href="#CMMIB10-58"/>
       <use transform="translate(87.864782 0)scale(0.996264)" xlink:href="#CMBX12-54"/>
      </g>
     </g>
    </g>
    <g id="text_13">
     <!-- \textbf{Normalized Amplitude} -->
     <defs>
      <path d="M 29 66.90625 
C 28 68 27.90625 68 25.90625 68 
L 3.796875 68 
L 3.796875 63.828125 
L 14.40625 63.828125 
L 14.40625 6.953125 
C 14.40625 4.75 14.296875 4.65625 11.703125 4.25 
C 9.90625 4.0625 7.90625 4.0625 6.09375 4.0625 
L 3.796875 4.0625 
L 3.796875 -0.203125 
C 6.09375 0 13.90625 0 16.703125 0 
C 19.5 0 27.40625 0 29.703125 -0.203125 
L 29.703125 4.0625 
L 27.40625 4.0625 
C 24.703125 4.0625 24.5 4.0625 22.09375 4.359375 
C 19.203125 4.765625 19.09375 4.859375 19.09375 7.046875 
L 19.09375 60.4375 
L 68.59375 1.296875 
C 69.703125 0.09375 69.796875 0 71.09375 0 
C 73.5 0 73.5 0.59375 73.5 2.875 
L 73.5 60.9375 
C 73.5 63.125 73.59375 63.234375 76.203125 63.625 
C 78 63.828125 80 63.828125 81.796875 63.828125 
L 84.09375 63.828125 
L 84.09375 68.109375 
C 81.796875 68 74 68 71.203125 68 
C 68.40625 68 60.5 68 58.203125 68.109375 
L 58.203125 63.828125 
L 60.5 63.828125 
C 63.203125 63.828125 63.40625 63.828125 65.796875 63.53125 
C 68.703125 63.140625 68.796875 63.03125 68.796875 60.828125 
L 68.796875 19.203125 
z
" id="CMBX12-78"/>
      <path d="M 53 21.796875 
C 53 35.1875 43.796875 45 28.09375 45 
C 11.796875 45 3.09375 34.6875 3.09375 21.796875 
C 3.09375 8.828125 12.296875 -0.5 28 -0.5 
C 44.296875 -0.5 53 9.3125 53 21.796875 
z
M 28.09375 3.078125 
C 15.09375 3.078125 15.09375 14.671875 15.09375 22.796875 
C 15.09375 27.453125 15.09375 32.40625 17 35.984375 
C 19.203125 39.9375 23.703125 41.71875 28 41.71875 
C 33.703125 41.71875 37.296875 39.046875 39 36.28125 
C 41 32.703125 41 27.546875 41 22.796875 
C 41 14.5625 41 3.078125 28.09375 3.078125 
z
" id="CMBX12-111"/>
      <path d="M 84.40625 30.0625 
C 84.40625 39.15625 80.5 44.28125 69.296875 44.28125 
C 59.203125 44.28125 54.5 37.609375 52.90625 34.46875 
C 51.296875 42.8125 44.5 44.28125 38.09375 44.28125 
C 28.5 44.28125 23.296875 38.203125 21.203125 33.484375 
L 21.09375 33.484375 
L 21.09375 44 
L 4.203125 44 
L 4.203125 39.328125 
C 10.40625 39.328125 11.09375 39.328125 11.09375 35.46875 
L 11.09375 4.0625 
L 4.203125 4.0625 
L 4.203125 -0.203125 
C 6.5 0 13.703125 0 16.5 0 
C 19.296875 0 26.59375 0 28.90625 -0.203125 
L 28.90625 4.0625 
L 22 4.0625 
L 22 25.109375 
C 22 35.875 30.09375 41 36.40625 41 
C 40.09375 41 42.296875 38.828125 42.296875 31.140625 
L 42.296875 4.0625 
L 35.40625 4.0625 
L 35.40625 -0.203125 
C 37.703125 0 44.90625 0 47.703125 0 
C 50.5 0 57.796875 0 60.09375 -0.203125 
L 60.09375 4.0625 
L 53.203125 4.0625 
L 53.203125 25.109375 
C 53.203125 35.875 61.296875 41 67.59375 41 
C 71.296875 41 73.5 38.828125 73.5 31.140625 
L 73.5 4.0625 
L 66.59375 4.0625 
L 66.59375 -0.203125 
C 68.90625 0 76.09375 0 78.90625 0 
C 81.703125 0 89 0 91.296875 -0.203125 
L 91.296875 4.0625 
L 84.40625 4.0625 
z
" id="CMBX12-109"/>
      <path d="M 46 29.65625 
C 46 38.8125 38.703125 44.984375 24.59375 44.984375 
C 19 44.984375 7.203125 44.984375 7.203125 36.46875 
C 7.203125 32.203125 10.40625 30.390625 13.09375 30.390625 
C 16.09375 30.390625 19 32.484375 19 36.296875 
C 19 38.203125 18.296875 39.984375 16.59375 41.09375 
C 19.90625 42 22.296875 42 24.203125 42 
C 31 42 35.09375 38.203125 35.09375 29.984375 
L 35.09375 25.984375 
C 19.296875 25.984375 3.40625 21.59375 3.40625 10.5625 
C 3.40625 1.484375 15 -0.5 21.90625 -0.5 
C 29.59375 -0.5 34.5 3.640625 36.5 7.96875 
C 36.5 4.28125 36.5 0 46.59375 0 
L 51.703125 0 
C 53.796875 0 54.59375 0 54.59375 2.265625 
C 54.59375 4.265625 53.703125 4.265625 52.296875 4.265625 
C 46 4.265625 46 5.84375 46 8.15625 
z
M 35.09375 13.78125 
C 35.09375 4.546875 26.703125 2.78125 23.5 2.78125 
C 18.59375 2.78125 14.5 6.09375 14.5 10.71875 
C 14.5 19.890625 25.296875 23 35.09375 23 
z
" id="CMBX12-97"/>
      <path d="M 21.703125 69 
L 4.40625 69 
L 4.40625 64.328125 
C 10.59375 64.328125 11.296875 64.328125 11.296875 60.40625 
L 11.296875 4.0625 
L 4.40625 4.0625 
L 4.40625 -0.203125 
C 6.703125 0 13.796875 0 16.5 0 
C 19.203125 0 26.296875 0 28.59375 -0.203125 
L 28.59375 4.0625 
L 21.703125 4.0625 
z
" id="CMBX12-108"/>
      <path d="M 22.296875 61.84375 
C 22.296875 65.921875 19 69 15.09375 69 
C 11 69 7.90625 65.625 7.90625 61.84375 
C 7.90625 58.0625 11 54.6875 15.09375 54.6875 
C 19 54.6875 22.296875 57.765625 22.296875 61.84375 
z
M 4.703125 44 
L 4.703125 39.328125 
C 10.59375 39.328125 11.296875 39.328125 11.296875 35.46875 
L 11.296875 4.0625 
L 4.40625 4.0625 
L 4.40625 -0.203125 
C 6.703125 0 13.59375 0 16.296875 0 
C 19.09375 0 25.5 0 27.90625 -0.203125 
L 27.90625 4.0625 
L 21.703125 4.0625 
L 21.703125 44 
z
" id="CMBX12-105"/>
      <path d="M 34.703125 69 
L 34.703125 64.328125 
C 40.90625 64.328125 41.59375 64.328125 41.59375 60.421875 
L 41.59375 40.234375 
C 39.40625 42.125 35 45 28.09375 45 
C 13.90625 45 3.796875 36.21875 3.796875 22.25 
C 3.796875 7.96875 13.703125 -0.5 27 -0.5 
C 32.5 -0.5 37.203125 1.46875 41.09375 4.859375 
L 41.09375 0 
L 58.90625 0 
L 58.90625 4.5625 
C 52.703125 4.5625 52 4.5625 52 8.4375 
L 52 69 
z
M 41.09375 10.328125 
C 36.90625 4.09375 31.796875 2.78125 28.203125 2.78125 
C 15.796875 2.78125 15.796875 15.453125 15.796875 22.046875 
C 15.796875 26.75 15.796875 31.75 18 35.53125 
C 21.09375 41.125 27 41.71875 29.296875 41.71875 
C 33.40625 41.71875 37.796875 39.9375 41.09375 35.5625 
z
" id="CMBX12-100"/>
      <path d="M 45.796875 67.203125 
C 45.09375 69 44.90625 69.5 42.5 69.5 
C 40 69.5 39.796875 69 39.09375 67.203125 
L 14.296875 6.453125 
C 13.59375 4.859375 13.59375 4.671875 10.796875 4.359375 
C 8.296875 4.0625 7.90625 4.0625 5.703125 4.0625 
L 3.90625 4.0625 
L 3.90625 -0.203125 
C 6.5 0 12.5 0 15.40625 0 
C 18.09375 0 25.40625 0 27.703125 -0.203125 
L 27.703125 4.0625 
C 25.5 4.0625 21.703125 4.0625 18.90625 5.171875 
C 19.203125 6.09375 19.203125 6.28125 19.40625 6.6875 
L 24.703125 19.71875 
L 51.5 19.71875 
L 57.796875 4.0625 
L 48.40625 4.0625 
L 48.40625 0 
C 51.59375 0 61.296875 0 65.09375 0 
C 68.296875 0 78.5 0 81 -0.203125 
L 81 4.0625 
L 71.5 4.0625 
z
M 38.09375 52.609375 
L 49.703125 24 
L 26.40625 24 
z
" id="CMBX12-65"/>
      <path d="M 28.203125 -14.921875 
L 21.296875 -14.921875 
L 21.296875 4.1875 
C 23.796875 2 28.203125 -0.5 34.203125 -0.5 
C 47.90625 -0.5 58.59375 7.703125 58.59375 22.140625 
C 58.59375 35.78125 49.296875 44.578125 35.796875 44.578125 
C 29.90625 44.578125 24.796875 42.78125 20.796875 39.90625 
L 20.796875 44.671875 
L 3.5 44.671875 
L 3.5 40 
C 9.703125 40 10.40625 40 10.40625 36.09375 
L 10.40625 -14.921875 
L 3.5 -14.921875 
L 3.5 -19.1875 
C 5.796875 -19 13 -19 15.796875 -19 
C 18.59375 -19 25.90625 -19 28.203125 -19.1875 
z
M 21.296875 35.09375 
C 25 39.53125 30.296875 41 34.203125 41 
C 40.703125 41 46.59375 35.171875 46.59375 22.140625 
C 46.59375 7.8125 39.40625 2.78125 33 2.78125 
C 28.703125 2.78125 24.40625 4.984375 21.296875 9.6875 
z
" id="CMBX12-112"/>
      <path d="M 21.09375 40 
L 35.5 40 
L 35.5 44.265625 
L 21.09375 44.265625 
L 21.09375 63 
L 16.90625 63 
C 16.796875 53.203125 12 43.375 2.09375 43.375 
L 2.09375 40 
L 10.203125 40 
L 10.203125 12.328125 
C 10.203125 1.78125 18.40625 -0.5 25.59375 -0.5 
C 33 -0.5 37.40625 5.078125 37.40625 12.421875 
L 37.40625 17.703125 
L 33.203125 17.703125 
L 33.203125 12.53125 
C 33.203125 5.953125 30.203125 3.078125 27.09375 3.078125 
C 21.09375 3.078125 21.09375 9.75 21.09375 12.03125 
z
" id="CMBX12-116"/>
     </defs>
     <g style="fill:#262626;" transform="translate(29.67777 313.63313)rotate(-90)scale(0.22 -0.22)">
      <use transform="translate(0 -0.072648)scale(0.996264)" xlink:href="#CMBX12-78"/>
      <use transform="translate(87.634475 -0.072648)scale(0.996264)" xlink:href="#CMBX12-111"/>
      <use transform="translate(143.674326 -0.072648)scale(0.996264)" xlink:href="#CMBX12-114"/>
      <use transform="translate(189.451833 -0.072648)scale(0.996264)" xlink:href="#CMBX12-109"/>
      <use transform="translate(282.851584 -0.072648)scale(0.996264)" xlink:href="#CMBX12-97"/>
      <use transform="translate(337.334772 -0.072648)scale(0.996264)" xlink:href="#CMBX12-108"/>
      <use transform="translate(368.468022 -0.072648)scale(0.996264)" xlink:href="#CMBX12-105"/>
      <use transform="translate(399.601272 -0.072648)scale(0.996264)" xlink:href="#CMBX12-122"/>
      <use transform="translate(449.414473 -0.072648)scale(0.996264)" xlink:href="#CMBX12-101"/>
      <use transform="translate(500.55374 -0.072648)scale(0.996264)" xlink:href="#CMBX12-100"/>
      <use transform="translate(600.180141 -0.072648)scale(0.996264)" xlink:href="#CMBX12-65"/>
      <use transform="translate(684.816536 -0.072648)scale(0.996264)" xlink:href="#CMBX12-109"/>
      <use transform="translate(778.216287 -0.072648)scale(0.996264)" xlink:href="#CMBX12-112"/>
      <use transform="translate(840.482787 -0.072648)scale(0.996264)" xlink:href="#CMBX12-108"/>
      <use transform="translate(871.616038 -0.072648)scale(0.996264)" xlink:href="#CMBX12-105"/>
      <use transform="translate(902.749288 -0.072648)scale(0.996264)" xlink:href="#CMBX12-116"/>
      <use transform="translate(946.335838 -0.072648)scale(0.996264)" xlink:href="#CMBX12-117"/>
      <use transform="translate(1008.602339 -0.072648)scale(0.996264)" xlink:href="#CMBX12-100"/>
      <use transform="translate(1070.86884 -0.072648)scale(0.996264)" xlink:href="#CMBX12-101"/>
     </g>
    </g>
   </g>
   <g id="line2d_12">
    <path clip-path="url(#p15961c75b7)" d="M 74.45691 310.671036 
L 74.993555 269.254503 
L 75.5302 257.150278 
L 76.066845 269.373115 
L 76.603489 269.627326 
L 77.140134 267.607926 
L 77.676779 281.157979 
L 78.213424 281.242734 
L 78.750069 288.716416 
L 79.823359 277.549302 
L 80.360003 300.55627 
L 80.896648 291.745064 
L 81.433293 272.126094 
L 81.969938 287.64004 
L 82.506583 288.491819 
L 83.043228 274.605656 
L 83.579873 269.578438 
L 84.116518 268.959279 
L 84.653162 272.0333 
L 85.189807 265.476231 
L 85.726452 295.427745 
L 86.263097 282.803443 
L 86.799742 281.662395 
L 87.336387 293.552587 
L 87.873032 283.149312 
L 88.409676 280.017302 
L 88.946321 269.6199 
L 89.482966 262.145841 
L 90.019611 273.119817 
L 90.556256 301.75127 
L 91.092901 306.20928 
L 91.629546 275.116829 
L 92.16619 271.80932 
L 92.702835 265.999349 
L 93.23948 273.109047 
L 93.776125 269.032164 
L 94.31277 270.858508 
L 94.849415 274.177757 
L 95.38606 270.793484 
L 95.922705 289.834294 
L 96.459349 291.425373 
L 96.995994 290.425113 
L 98.069284 273.659097 
L 98.605929 259.436442 
L 99.142574 256.257392 
L 99.679219 256.726186 
L 100.215863 282.607146 
L 101.289153 263.457067 
L 101.825798 272.737211 
L 102.362443 262.630744 
L 102.899088 282.57916 
L 103.435733 291.048366 
L 103.972377 285.571241 
L 104.509022 288.072433 
L 105.045667 292.407238 
L 105.582312 283.734958 
L 106.118957 272.966457 
L 106.655602 257.056095 
L 107.192247 269.055381 
L 107.728892 276.256212 
L 108.265536 279.647078 
L 109.338826 289.783491 
L 109.875471 287.478363 
L 110.412116 289.982951 
L 110.948761 280.51664 
L 111.485406 288.160318 
L 112.02205 283.065698 
L 112.558695 269.328417 
L 113.09534 277.486675 
L 113.631985 302.896487 
L 114.16863 298.798213 
L 114.705275 277.335806 
L 115.24192 268.246297 
L 115.778564 286.882714 
L 116.851854 274.840443 
L 117.388499 281.88083 
L 117.925144 267.799435 
L 118.461789 266.977998 
L 118.998434 276.52525 
L 119.535079 274.233172 
L 120.071723 268.131329 
L 120.608368 291.088757 
L 121.145013 278.093815 
L 121.681658 261.972218 
L 122.218303 277.619454 
L 122.754948 280.627219 
L 123.291593 268.25313 
L 123.828237 263.314132 
L 124.364882 260.806408 
L 124.901527 280.076988 
L 125.974817 267.719478 
L 126.511462 304.910661 
L 127.048107 308.623697 
L 127.584751 257.505891 
L 128.121396 244.100511 
L 128.658041 123.865384 
L 129.194686 42.327405 
L 129.731331 49.24628 
L 130.804621 247.058584 
L 131.341266 285.484963 
L 131.87791 280.484494 
L 132.414555 267.530661 
L 132.9512 272.732643 
L 133.487845 264.354698 
L 134.02449 258.251413 
L 134.561135 280.562655 
L 135.09778 275.743476 
L 135.634424 261.291907 
L 136.171069 278.009339 
L 136.707714 273.875754 
L 137.244359 284.044336 
L 137.781004 304.721132 
L 138.317649 292.571502 
L 138.854294 285.401706 
L 139.390938 275.88754 
L 139.927583 291.280258 
L 140.464228 293.576522 
L 141.000873 298.250878 
L 141.537518 290.605641 
L 142.074163 280.666194 
L 142.610808 280.910745 
L 143.147453 277.185136 
L 143.684097 281.786848 
L 144.220742 269.786823 
L 144.757387 269.698863 
L 145.294032 277.309321 
L 145.830677 297.289557 
L 146.367322 269.163921 
L 146.903967 271.182262 
L 147.440611 272.240731 
L 147.977256 271.475489 
L 148.513901 274.304927 
L 149.050546 276.063567 
L 149.587191 276.166968 
L 150.123836 289.737747 
L 150.660481 283.48602 
L 151.197125 267.806988 
L 151.73377 268.759561 
L 152.270415 272.593373 
L 152.80706 286.186576 
L 153.343705 278.359066 
L 153.88035 268.547893 
L 154.416995 296.415883 
L 154.953639 276.424839 
L 155.490284 280.812622 
L 156.026929 281.150331 
L 156.563574 284.711197 
L 157.100219 276.046985 
L 157.636864 275.430716 
L 158.173509 261.817639 
L 158.710154 261.314961 
L 159.246798 269.002874 
L 159.783443 264.676774 
L 160.320088 272.303567 
L 160.856733 291.947071 
L 161.393378 274.281972 
L 161.930023 264.645699 
L 162.466668 299.561103 
L 163.003312 299.887673 
L 163.539957 278.760388 
L 164.076602 290.561827 
L 164.613247 297.530013 
L 165.149892 290.352565 
L 166.223182 264.619008 
L 166.759826 274.39927 
L 167.296471 290.126156 
L 167.833116 297.403753 
L 168.906406 282.422321 
L 169.443051 295.856967 
L 169.979696 279.829598 
L 170.516341 279.000075 
L 171.052985 283.045217 
L 171.58963 288.949761 
L 172.126275 276.770883 
L 172.66292 271.465724 
L 173.199565 272.560286 
L 173.73621 270.369127 
L 174.272855 304.150975 
L 174.809499 276.077974 
L 175.346144 286.053506 
L 175.882789 271.577889 
L 176.419434 285.628684 
L 176.956079 265.149437 
L 177.492724 269.495411 
L 178.029369 291.534928 
L 178.566013 295.639768 
L 179.102658 282.859541 
L 179.639303 275.456651 
L 180.175948 290.792194 
L 180.712593 292.446803 
L 181.249238 287.720899 
L 181.785883 288.54408 
L 182.322528 281.434245 
L 182.859172 283.535703 
L 183.395817 280.99642 
L 183.932462 264.795125 
L 184.469107 261.59802 
L 185.005752 277.172956 
L 185.542397 274.273903 
L 186.079042 278.752439 
L 186.615686 282.284364 
L 187.152331 274.960957 
L 187.688976 272.160021 
L 188.225621 281.094694 
L 188.762266 286.193809 
L 189.298911 271.512902 
L 189.835556 275.564439 
L 190.3722 272.614015 
L 190.908845 257.697215 
L 191.44549 269.311997 
L 191.982135 274.558636 
L 192.51878 272.699765 
L 193.055425 291.423775 
L 193.59207 285.402838 
L 194.128715 289.760799 
L 194.665359 297.65283 
L 195.202004 287.56212 
L 195.738649 257.925807 
L 196.275294 260.761732 
L 196.811939 280.758788 
L 197.348584 290.971035 
L 197.885229 289.863839 
L 198.421873 292.584656 
L 198.958518 296.076391 
L 199.495163 308.89881 
L 200.568453 278.386177 
L 201.105098 277.544575 
L 201.641743 277.472457 
L 202.178387 279.62416 
L 202.715032 293.220733 
L 203.251677 291.894745 
L 203.788322 274.082124 
L 204.324967 282.300101 
L 204.861612 280.033812 
L 205.398257 279.026671 
L 205.934902 286.837227 
L 206.471546 274.643026 
L 207.008191 267.208403 
L 207.544836 264.246781 
L 208.081481 258.174637 
L 208.618126 260.591426 
L 209.154771 261.452731 
L 209.691416 268.489435 
L 210.22806 282.689332 
L 210.764705 291.198468 
L 211.30135 288.20112 
L 211.837995 284.416472 
L 212.37464 273.051386 
L 212.911285 272.912804 
L 213.44793 270.773575 
L 213.984574 277.311446 
L 214.521219 279.469525 
L 215.057864 287.622771 
L 215.594509 290.113348 
L 216.131154 289.726186 
L 216.667799 274.354919 
L 217.204444 279.164205 
L 217.741088 287.897234 
L 218.277733 289.633087 
L 218.814378 266.276883 
L 219.351023 271.989509 
L 219.887668 302.283301 
L 220.424313 302.651334 
L 221.497603 298.72092 
L 222.034247 291.822528 
L 222.570892 277.398684 
L 223.107537 288.494839 
L 223.644182 292.804484 
L 224.180827 265.881893 
L 224.717472 276.025728 
L 225.254117 268.406468 
L 225.790761 253.85337 
L 226.327406 258.64113 
L 227.400696 293.466126 
L 227.937341 286.876171 
L 228.473986 294.278414 
L 229.010631 298.463586 
L 229.547275 290.339965 
L 230.08392 269.395458 
L 230.620565 281.306684 
L 231.15721 279.081096 
L 232.2305 256.230298 
L 232.767145 265.676831 
L 233.30379 300.459394 
L 233.840434 267.621579 
L 234.377079 272.05284 
L 234.913724 311.058147 
L 235.450369 311.537795 
L 235.987014 291.600026 
L 236.523659 276.482746 
L 237.060304 276.773833 
L 237.596948 284.388865 
L 238.133593 279.142887 
L 239.206883 294.00797 
L 239.743528 277.944895 
L 240.280173 285.430732 
L 240.816818 285.620486 
L 241.353462 272.585784 
L 241.890107 271.242272 
L 242.426752 268.880553 
L 242.963397 278.35858 
L 243.500042 297.667234 
L 244.036687 275.928848 
L 244.573332 281.495316 
L 245.109977 278.726 
L 245.646621 275.361157 
L 246.183266 267.479963 
L 246.719911 263.73988 
L 247.256556 280.742607 
L 247.793201 284.765835 
L 248.329846 286.995352 
L 248.866491 263.519717 
L 249.403135 253.481019 
L 249.93978 277.995572 
L 250.476425 288.542163 
L 251.01307 272.170335 
L 251.549715 284.668079 
L 252.08636 278.203612 
L 252.623005 275.544839 
L 253.159649 262.772768 
L 253.696294 275.199647 
L 254.232939 306.09749 
L 254.769584 265.668369 
L 255.306229 266.497296 
L 255.842874 281.390058 
L 256.379519 282.220213 
L 256.916164 265.515662 
L 257.452808 272.751206 
L 257.989453 294.468521 
L 259.062743 266.052973 
L 259.599388 261.024081 
L 260.136033 275.139709 
L 260.672678 283.539385 
L 261.209322 279.735767 
L 261.745967 292.85514 
L 262.282612 287.145881 
L 262.819257 280.17732 
L 263.355902 295.161681 
L 263.892547 302.192278 
L 264.429192 313.463639 
L 264.965836 280.338529 
L 265.502481 282.540177 
L 266.039126 284.053161 
L 266.575771 269.975004 
L 267.112416 274.344273 
L 267.649061 270.315432 
L 268.185706 284.820762 
L 268.722351 281.620814 
L 269.258995 270.234808 
L 269.79564 266.949533 
L 270.332285 280.411623 
L 270.86893 270.781068 
L 271.405575 266.527104 
L 271.94222 287.656895 
L 272.478865 287.327332 
L 273.015509 276.043271 
L 273.552154 278.358074 
L 274.088799 308.240925 
L 274.625444 297.004132 
L 275.162089 295.021671 
L 275.698734 274.692868 
L 276.235379 288.254975 
L 276.772023 280.195116 
L 277.308668 279.773093 
L 277.845313 274.735172 
L 278.918603 280.800916 
L 279.455248 295.411502 
L 279.991893 286.792798 
L 280.528538 282.357931 
L 281.065182 272.0998 
L 282.138472 291.56274 
L 282.675117 272.03517 
L 283.211762 283.094296 
L 283.748407 281.663746 
L 284.285052 271.523706 
L 285.358341 282.465956 
L 285.894986 284.429048 
L 286.431631 288.821765 
L 286.968276 284.923108 
L 287.504921 286.583452 
L 288.57821 266.872205 
L 289.114855 279.72109 
L 289.6515 275.601343 
L 290.188145 269.610288 
L 290.72479 281.827547 
L 291.261435 274.807689 
L 291.79808 272.734524 
L 292.334724 280.705187 
L 292.871369 265.201453 
L 293.408014 276.182688 
L 293.944659 295.702342 
L 294.481304 278.582667 
L 295.017949 279.088522 
L 295.554594 279.977003 
L 296.091239 286.984214 
L 296.627883 279.11856 
L 297.164528 282.058161 
L 297.701173 280.113919 
L 298.237818 268.797482 
L 298.774463 277.142248 
L 299.311108 305.608823 
L 299.847753 280.760271 
L 300.384397 287.384711 
L 300.921042 286.782091 
L 301.457687 269.63521 
L 301.994332 277.561733 
L 302.530977 279.076508 
L 303.067622 281.338637 
L 303.604267 264.488876 
L 304.140911 267.382432 
L 304.677556 255.951116 
L 305.750846 277.447571 
L 306.287491 271.537896 
L 306.824136 276.851482 
L 307.360781 292.060185 
L 307.897426 293.510883 
L 308.43407 292.691997 
L 308.970715 284.532729 
L 309.50736 289.780631 
L 310.044005 275.493906 
L 310.58065 296.828506 
L 311.117295 269.910862 
L 311.65394 279.090855 
L 312.190584 294.301788 
L 312.727229 271.789661 
L 313.263874 261.917743 
L 313.800519 269.603246 
L 314.337164 275.528495 
L 314.873809 259.604936 
L 315.410454 263.744991 
L 315.947098 275.727039 
L 316.483743 297.084571 
L 317.020388 304.603788 
L 317.557033 294.063329 
L 318.093678 290.52657 
L 318.630323 292.043828 
L 319.166968 281.310814 
L 319.703613 291.686429 
L 320.240257 286.907182 
L 320.776902 278.246167 
L 321.313547 282.028737 
L 321.850192 278.817578 
L 322.386837 287.085693 
L 322.923482 292.663325 
L 324.533416 263.637961 
L 325.070061 264.533149 
L 325.606706 281.713209 
L 326.143351 284.018658 
L 326.679996 295.260378 
L 327.216641 321.601458 
L 327.753285 289.35217 
L 328.28993 272.031501 
L 328.826575 264.550735 
L 329.36322 278.510184 
L 329.899865 282.323537 
L 330.43651 264.360542 
L 330.973155 275.642643 
L 331.5098 275.896021 
L 332.046444 271.053377 
L 332.583089 271.910103 
L 333.119734 286.96802 
L 333.656379 283.978356 
L 334.193024 276.126037 
L 334.729669 265.913363 
L 335.266314 262.454206 
L 335.802958 274.447227 
L 336.339603 280.044616 
L 336.876248 268.400881 
L 337.412893 267.762674 
L 337.949538 270.383964 
L 338.486183 270.551785 
L 339.022828 268.546015 
L 340.096117 313.808805 
L 340.632762 274.621048 
L 341.169407 272.575467 
L 341.706052 268.018739 
L 342.242697 275.368044 
L 342.779342 276.612627 
L 343.315987 273.993805 
L 344.389276 300.500872 
L 344.925921 303.74003 
L 346.535856 275.325565 
L 347.072501 272.334357 
L 347.609145 282.443156 
L 348.14579 278.134311 
L 348.682435 275.104737 
L 349.21908 297.901657 
L 349.755725 295.252346 
L 350.29237 273.445699 
L 350.829015 272.743452 
L 351.365659 264.498872 
L 351.902304 273.881628 
L 352.438949 279.877138 
L 352.975594 272.720046 
L 353.512239 269.699823 
L 354.048884 277.935151 
L 354.585529 278.528178 
L 355.122173 272.342352 
L 355.658818 293.340744 
L 356.195463 268.650068 
L 356.732108 257.489688 
L 357.268753 264.526427 
L 357.805398 266.701213 
L 358.342043 278.753679 
L 358.878688 282.42888 
L 359.415332 274.197937 
L 359.951977 283.712197 
L 360.488622 277.584639 
L 361.025267 256.097322 
L 361.561912 266.136195 
L 362.098557 281.915441 
L 362.635202 285.49345 
L 363.171846 272.756011 
L 363.708491 268.259695 
L 364.245136 278.967231 
L 364.781781 283.744267 
L 365.318426 296.246556 
L 365.855071 284.265126 
L 366.391716 279.570622 
L 366.92836 297.995823 
L 367.465005 303.932034 
L 368.00165 304.086719 
L 368.538295 301.432392 
L 369.07494 262.628084 
L 369.611585 255.864014 
L 370.14823 281.968 
L 370.684875 259.610493 
L 371.221519 257.677368 
L 372.831454 284.230468 
L 373.368099 275.172075 
L 373.904744 281.456378 
L 374.441389 269.89569 
L 374.978033 272.661975 
L 375.514678 288.595928 
L 376.051323 271.476516 
L 376.587968 258.471912 
L 377.661258 262.671516 
L 378.734547 275.342419 
L 379.271192 274.845586 
L 379.807837 290.051984 
L 380.344482 287.377316 
L 380.881127 295.047381 
L 381.417772 285.131667 
L 381.954417 277.913647 
L 382.491062 287.372891 
L 383.027706 268.740336 
L 383.564351 273.019922 
L 384.100996 301.559178 
L 384.637641 302.029713 
L 385.710931 277.278725 
L 386.247576 276.932236 
L 386.78422 267.574715 
L 387.320865 266.570471 
L 387.85751 267.013609 
L 388.394155 272.684904 
L 388.9308 305.308139 
L 389.467445 295.473998 
L 390.00409 279.196466 
L 390.540734 287.215721 
L 391.077379 273.044857 
L 391.614024 263.888888 
L 392.150669 278.282968 
L 392.687314 302.796917 
L 393.223959 280.524895 
L 393.760604 270.182799 
L 394.297249 271.470223 
L 394.833893 271.439207 
L 395.370538 265.404236 
L 395.907183 263.381316 
L 396.443828 284.274445 
L 396.980473 298.880854 
L 397.517118 286.989164 
L 398.053763 301.056069 
L 398.590407 288.196131 
L 399.127052 280.738025 
L 399.663697 286.856513 
L 400.200342 272.901994 
L 400.736987 262.397761 
L 401.810277 291.595379 
L 402.346921 288.154657 
L 402.883566 278.460251 
L 403.420211 265.240327 
L 403.956856 269.144252 
L 404.493501 264.614569 
L 405.030146 274.437044 
L 405.566791 277.923405 
L 406.103436 276.205637 
L 406.64008 308.659868 
L 407.176725 271.989301 
L 407.71337 266.8126 
L 408.250015 287.170086 
L 408.78666 286.297774 
L 409.323305 278.313562 
L 409.85995 273.313631 
L 410.396594 270.906354 
L 410.933239 293.846253 
L 411.469884 286.964272 
L 412.006529 273.714234 
L 412.543174 290.759075 
L 413.079819 286.363189 
L 413.616464 276.905517 
L 414.153108 265.448965 
L 414.689753 284.362448 
L 415.226398 276.100593 
L 415.763043 282.318309 
L 416.299688 277.654444 
L 416.836333 286.422571 
L 417.372978 274.051574 
L 417.909623 297.854828 
L 418.446267 291.888645 
L 418.982912 268.241973 
L 419.519557 275.877456 
L 420.056202 281.891332 
L 420.592847 276.797508 
L 421.129492 273.538974 
L 421.666137 283.203321 
L 422.202781 272.650727 
L 422.739426 255.311568 
L 423.276071 269.500558 
L 423.812716 289.264373 
L 424.349361 262.832871 
L 424.886006 262.876545 
L 425.422651 262.022254 
L 425.959295 268.289113 
L 426.49594 292.772475 
L 427.032585 285.107214 
L 427.56923 284.991723 
L 428.105875 295.514018 
L 429.179165 279.938471 
L 429.715809 281.109173 
L 430.252454 288.409146 
L 430.789099 264.835344 
L 431.325744 270.000673 
L 431.862389 270.205828 
L 432.399034 278.554274 
L 432.935679 291.27315 
L 433.472324 319.742208 
L 434.008968 292.122329 
L 434.545613 279.984297 
L 435.082258 294.923013 
L 435.618903 293.01384 
L 436.155548 279.410964 
L 436.692193 279.663475 
L 437.228838 263.662325 
L 437.765482 286.819841 
L 438.302127 296.904635 
L 438.838772 284.872527 
L 439.375417 288.296996 
L 439.912062 295.050241 
L 440.448707 287.211291 
L 440.985352 287.642495 
L 441.521996 285.067757 
L 442.058641 287.569936 
L 442.595286 280.435689 
L 443.131931 285.002421 
L 444.205221 299.140151 
L 444.741866 287.612057 
L 445.278511 292.393938 
L 445.815155 281.485699 
L 446.888445 268.289074 
L 447.42509 268.184423 
L 447.961735 281.20368 
L 448.49838 283.686306 
L 449.035025 289.345623 
L 450.108314 267.624126 
L 450.644959 265.698278 
L 451.181604 276.356179 
L 451.718249 269.369286 
L 452.254894 286.593114 
L 452.791539 264.608106 
L 453.328183 264.730129 
L 453.864828 282.621806 
L 454.401473 286.714958 
L 454.938118 278.269707 
L 455.474763 277.325297 
L 456.011408 307.649702 
L 456.548053 282.984099 
L 457.084698 273.140751 
L 458.157987 291.747229 
L 458.694632 277.338371 
L 459.231277 277.585574 
L 459.767922 281.853848 
L 460.304567 291.852265 
L 460.841212 294.17677 
L 461.377856 288.509634 
L 461.914501 293.285875 
L 462.451146 291.157943 
L 462.987791 290.47219 
L 463.524436 290.676408 
L 464.061081 274.508443 
L 464.597726 264.710998 
L 465.13437 284.760668 
L 465.671015 270.742977 
L 466.744305 296.92447 
L 467.28095 291.35647 
L 467.817595 292.065454 
L 468.35424 302.721715 
L 468.890885 276.85383 
L 469.427529 283.665755 
L 469.964174 269.02558 
L 470.500819 283.008366 
L 471.037464 290.623229 
L 471.574109 310.33721 
L 472.110754 275.996017 
L 472.647399 274.110469 
L 473.184043 256.731865 
L 473.720688 251.877263 
L 474.257333 269.666379 
L 474.793978 263.377891 
L 475.330623 268.909651 
L 475.867268 287.679546 
L 476.403913 302.097035 
L 476.940557 284.129972 
L 477.477202 273.353486 
L 478.013847 296.133093 
L 478.550492 301.376015 
L 479.087137 286.741083 
L 479.623782 284.725189 
L 480.160427 297.780838 
L 480.697072 286.306236 
L 481.233716 298.578704 
L 482.307006 284.447636 
L 482.843651 273.062537 
L 483.380296 266.968604 
L 483.916941 272.125836 
L 484.453586 272.358814 
L 484.99023 289.757704 
L 485.526875 278.83988 
L 486.06352 258.872971 
L 486.600165 265.866746 
L 487.13681 264.505844 
L 487.673455 266.021326 
L 488.2101 268.918322 
L 488.746744 267.060235 
L 489.283389 301.51707 
L 489.820034 280.424831 
L 490.356679 275.287594 
L 490.893324 279.424557 
L 491.429969 269.182784 
L 491.966614 261.940726 
L 492.503258 281.858715 
L 493.039903 271.111199 
L 493.576548 267.861645 
L 494.113193 280.004596 
L 494.649838 275.367518 
L 495.186483 278.420459 
L 495.723128 270.185691 
L 496.259773 277.314613 
L 496.796417 296.395776 
L 497.333062 300.397621 
L 497.869707 285.782532 
L 498.406352 305.375652 
L 498.942997 279.277915 
L 500.016287 263.845137 
L 500.552931 272.813353 
L 501.089576 300.432434 
L 501.626221 294.863364 
L 502.162866 286.33053 
L 502.699511 280.121207 
L 503.236156 302.258635 
L 503.772801 278.037025 
L 504.309445 277.660924 
L 504.84609 290.345969 
L 505.382735 283.396912 
L 505.91938 270.370989 
L 506.456025 286.068958 
L 506.99267 288.078795 
L 507.529315 264.781 
L 508.06596 258.717764 
L 508.602604 259.243386 
L 509.139249 263.602808 
L 509.675894 265.759274 
L 510.212539 258.07891 
L 510.749184 277.087626 
L 511.285829 309.274257 
L 511.822474 292.818898 
L 512.359118 294.158811 
L 513.432408 275.618348 
L 513.969053 279.280421 
L 514.505698 272.514758 
L 515.042343 285.0755 
L 515.578988 283.953092 
L 516.115632 293.550251 
L 516.652277 279.835909 
L 517.188922 269.339626 
L 517.725567 267.466706 
L 518.262212 268.33642 
L 518.798857 271.648783 
L 519.335502 287.586949 
L 519.872147 294.010794 
L 520.408791 291.698545 
L 520.945436 290.25739 
L 521.482081 284.150887 
L 522.018726 290.127845 
L 522.555371 280.171074 
L 523.092016 274.71391 
L 523.628661 275.822841 
L 524.165305 273.500246 
L 524.70195 283.048603 
L 525.238595 297.838394 
L 525.77524 274.301781 
L 526.311885 277.217393 
L 526.84853 284.549611 
L 527.385175 259.716499 
L 528.458464 291.054451 
L 528.995109 275.271386 
L 529.531754 274.866339 
L 530.068399 281.174803 
L 530.605044 283.411685 
L 531.141689 292.657533 
L 532.214978 278.505902 
L 532.751623 293.383488 
L 533.288268 286.482637 
L 533.824913 291.516451 
L 534.361558 270.46289 
L 534.898203 272.607191 
L 535.971492 260.89568 
L 536.508137 265.506425 
L 537.044782 278.95298 
L 537.581427 265.239581 
L 538.118072 260.719149 
L 539.191362 315.053296 
L 539.728006 301.644352 
L 540.264651 297.611052 
L 540.801296 298.378033 
L 541.337941 273.505007 
L 541.874586 269.974929 
L 542.411231 278.897385 
L 542.947876 285.223224 
L 543.484521 306.328186 
L 544.55781 274.817658 
L 545.094455 283.303963 
L 545.6311 287.196819 
L 546.167745 276.128983 
L 546.70439 276.60123 
L 547.241035 285.398124 
L 547.777679 290.120694 
L 548.314324 296.430902 
L 548.850969 297.213477 
L 549.387614 304.41452 
L 549.924259 297.816153 
L 550.997549 260.484122 
L 551.534193 262.695195 
L 552.070838 273.483842 
L 552.607483 272.612177 
L 553.144128 272.369062 
L 553.680773 277.4737 
L 554.217418 281.297166 
L 554.754063 272.600566 
L 555.290708 256.856409 
L 555.827352 260.758093 
L 556.363997 277.005823 
L 556.900642 275.957716 
L 557.437287 279.410148 
L 557.973932 291.656362 
L 558.510577 284.576381 
L 559.047222 271.817755 
L 559.583866 277.505641 
L 560.120511 278.047648 
L 560.657156 282.123716 
L 561.193801 310.738382 
L 562.267091 268.130434 
L 562.803736 274.454703 
L 563.34038 274.199582 
L 563.877025 264.372238 
L 564.41367 263.229617 
L 564.950315 275.417286 
L 565.48696 277.774309 
L 566.023605 266.664744 
L 566.56025 273.410573 
L 567.096894 286.140367 
L 567.633539 276.741863 
L 568.170184 277.938528 
L 568.706829 278.856365 
L 569.243474 287.309453 
L 569.780119 289.812 
L 570.316764 286.852764 
L 571.390053 266.713372 
L 571.926698 277.64626 
L 572.463343 270.415271 
L 572.999988 277.241618 
L 573.536633 278.568937 
L 574.073278 266.878092 
L 574.609923 265.972962 
L 575.146567 276.570052 
L 575.683212 264.480782 
L 576.219857 275.315286 
L 576.756502 280.779405 
L 577.293147 278.585686 
L 577.829792 279.74461 
L 578.366437 278.875189 
L 579.439726 256.808199 
L 579.976371 275.965701 
L 580.513016 265.967605 
L 581.049661 273.860849 
L 581.586306 288.648556 
L 582.122951 295.78779 
L 582.659596 279.118604 
L 583.19624 282.879349 
L 583.732885 278.8104 
L 584.26953 279.541797 
L 585.34282 287.38597 
L 585.879465 263.212906 
L 586.41611 251.956752 
L 586.952754 276.567908 
L 587.489399 271.933006 
L 588.026044 281.372127 
L 589.099334 261.315621 
L 589.635979 260.346381 
L 590.172624 262.717981 
L 590.709268 268.382665 
L 591.245913 267.763856 
L 591.782558 275.616076 
L 592.319203 273.407084 
L 592.855848 270.368738 
L 593.392493 290.33577 
L 593.929138 290.817988 
L 594.465783 279.605602 
L 595.002427 273.687582 
L 595.539072 287.990503 
L 596.075717 280.741598 
L 596.612362 277.687466 
L 597.685652 307.72935 
L 598.222297 280.688963 
L 598.758941 271.5327 
L 599.295586 294.073569 
L 599.832231 275.945244 
L 600.368876 279.620029 
L 600.905521 275.319416 
L 601.442166 268.030056 
L 601.978811 271.191988 
L 602.515455 270.87418 
L 603.0521 263.459389 
L 603.588745 269.708027 
L 604.12539 306.824313 
L 604.662035 289.178194 
L 605.19868 284.860026 
L 605.735325 272.260771 
L 606.27197 266.361939 
L 606.808614 287.987469 
L 607.345259 288.53283 
L 607.881904 283.217963 
L 608.418549 269.160565 
L 608.955194 258.131666 
L 609.491839 283.043623 
L 610.028484 282.563001 
L 610.565128 273.598749 
L 611.101773 268.894825 
L 611.638418 262.887386 
L 612.175063 264.505374 
L 613.248353 271.99585 
L 613.784998 259.12932 
L 614.321642 269.792636 
L 614.858287 293.0382 
L 615.394932 279.735386 
L 615.931577 282.477499 
L 616.468222 289.894428 
L 617.004867 288.832714 
L 617.541512 287.433925 
L 618.078157 264.776428 
L 618.614801 265.080639 
L 619.151446 262.573926 
L 619.688091 280.124734 
L 620.224736 293.777378 
L 620.761381 254.093528 
L 621.298026 256.495906 
L 621.834671 261.85101 
L 622.371315 264.305188 
L 622.90796 298.47377 
L 623.444605 296.502191 
L 623.98125 304.738911 
L 623.98125 304.738911 
" style="fill:none;stroke:#e41a1c;stroke-linecap:round;stroke-width:2;"/>
   </g>
   <g id="patch_3">
    <path d="M 74.45691 365.09886 
L 74.45691 14.4 
" style="fill:none;stroke:#262626;stroke-linecap:square;stroke-linejoin:miter;stroke-width:1.25;"/>
   </g>
   <g id="patch_4">
    <path d="M 623.98125 365.09886 
L 623.98125 14.4 
" style="fill:none;"/>
   </g>
   <g id="patch_5">
    <path d="M 74.45691 365.09886 
L 623.98125 365.09886 
" style="fill:none;stroke:#262626;stroke-linecap:square;stroke-linejoin:miter;stroke-width:1.25;"/>
   </g>
   <g id="patch_6">
    <path d="M 74.45691 14.4 
L 623.98125 14.4 
" style="fill:none;"/>
   </g>
  </g>
 </g>
 <defs>
  <clipPath id="p15961c75b7">
   <rect height="350.69886" width="549.52434" x="74.45691" y="14.4"/>
  </clipPath>
 </defs>
</svg>
